<?xml version="1.0" encoding="UTF-8"?>
<svg width="970px" height="40px" viewBox="0 0 970 40" version="1.1" xmlns="http://www.w3.org/2000/svg" xmlns:xlink="http://www.w3.org/1999/xlink">
    <!-- Generator: Sketch 44.1 (41455) - http://www.bohemiancoding.com/sketch -->
    <title>browser-toolbar</title>
    <desc>Created with Sketch.</desc>
    <defs></defs>
    <g id="Page-1" stroke="none" stroke-width="1" fill="none" fill-rule="evenodd">
        <g id="browser">
            <g id="browser-toolbar">
                <path d="M5.13227513,0 L964.867725,0 C967.701767,0 970,2.238 970,4.999 L970,40 L0,40 L0,4.999 C0,2.238 2.2982328,0 5.13227513,0 L5.13227513,0 Z" id="shape" fill="#F9F8F8"></path>
                <g id="browser-buttons" transform="translate(15.000000, 16.000000)">
                    <g id="group">
                        <circle id="oval" fill="#FF0030" cx="4" cy="4" r="4"></circle>
                        <circle id="oval" fill="#F4E609" cx="20" cy="4" r="4"></circle>
                        <circle id="oval" fill="#95E40B" cx="36" cy="4" r="4"></circle>
                    </g>
                </g>
                <g id="menu" transform="translate(949.000000, 12.000000)" fill="#323C47">
                    <path d="M1.5,9 C0.672,9 0,8.32877626 0,7.50050017 C0,6.67122374 0.672,6 1.5,6 C2.328,6 3,6.67122374 3,7.50050017 C3,8.32877626 2.328,9 1.5,9 L1.5,9 Z M1.5,3 C0.672,3 0,2.328 0,1.5 C0,0.671 0.672,0 1.5,0 C2.328,0 3,0.671 3,1.5 C3,2.328 2.328,3 1.5,3 L1.5,3 Z M1.5,12 C2.328,12 3,12.672 3,13.5 C3,14.328 2.328,15 1.5,15 C0.672,15 0,14.328 0,13.5 C0,12.672 0.672,12 1.5,12 L1.5,12 Z" id="shape"></path>
                </g>
            </g>
        </g>
    </g>
</svg>