<?xml version="1.0" encoding="utf-8"?>
<!-- Generator: Adobe Illustrator 21.1.0, SVG Export Plug-In . SVG Version: 6.00 Build 0)  -->
<svg version="1.1" id="圖層_1" xmlns="http://www.w3.org/2000/svg" xmlns:xlink="http://www.w3.org/1999/xlink" x="0px" y="0px"
	 viewBox="0 0 95 33" style="enable-background:new 0 0 95 33;" xml:space="preserve">
<style type="text/css">
	.st0{fill:#FFFFFF;}
</style>
<g id="Page">
	<g id="etc_x2F_logo--color" transform="translate(-33.000000, 0.000000)">
		<g id="etc_x2F_logo--text--color" transform="translate(33.000000, 0.000000)">
			<path id="Fill-1" class="st0" d="M33,22.5c0-1.9,0-3.7,0-5.6c0.1-4.3,3.4-7.7,7.5-7.9c4.4-0.2,8,3,8.4,7.3c0.4,4.2-2.7,8-6.9,8.7
				c-1.7,0.3-3-0.4-3.1-1.7c-0.1-1.6,0.9-2.2,2.4-2.4c2.4-0.4,3.7-2.2,3.4-4.4c-0.3-2-2-3.4-4-3.3c-2.2,0.1-3.6,1.6-3.6,4.1
				c0,3.4,0,6.7,0,10.1c0,0.6,0,1.2-0.1,1.7c-0.2,1.2-0.9,1.9-2.1,1.9c-1.2-0.1-1.9-0.9-1.9-2.1C33,26.8,33,24.6,33,22.5L33,22.5"/>
			<path id="Fill-2" class="st0" d="M66,19.6c0,1,0,2.1,0,3.1c0,1.3-0.6,2.2-1.9,2.3c-1.3,0.1-2.1-0.8-2.1-2c-0.1-2,0-4.1-0.1-6.1
				c-0.1-2.2-1.5-3.6-3.6-3.7c-2.1-0.1-3.8,1.3-4,3.3c-0.2,2,1,3.8,3,4.3c2.4,0.6,3.2,1.3,2.8,2.7c-0.3,1.4-1.9,1.9-4.1,1.3
				c-3.8-1.1-6.4-5-5.8-8.7c0.7-4.3,4.2-7.2,8.5-7c3.9,0.2,7.2,3.6,7.4,7.6C66,17.6,66,18.6,66,19.6"/>
			<path id="Fill-3" class="st0" d="M87.4,13.4c-2.3-0.3-4,1-4.3,3c-0.3,2.2,1.1,4.2,3.3,4.4c1.1,0.1,2.3,0,3.4,0.1
				c1,0.1,1.6,0.8,1.7,1.9c0.1,1.1-0.5,1.9-1.5,2c-4.7,0.8-9.7-0.6-10.9-6.6c-0.6-3.1,1.1-6.6,3.9-8.2c2.8-1.6,6.4-1.3,8.8,0.8
				c1.5,1.3,1.6,2.4,0.3,3.8c-1.2,1.3-2.4,2.5-3.6,3.7c-1,0.9-2,1.1-3,0c-0.9-1-0.7-2,0.2-2.9C86.1,14.8,86.7,14.2,87.4,13.4"/>
			<path id="Fill-4" class="st0" d="M26.2,13.4c-2.2-0.3-3.9,1-4.2,3.2c-0.3,2,1.3,4,3.4,4.2c1,0.1,1.9,0,2.9,0.1
				c1.3,0.1,2.2,0.7,2.2,2.1c0,1.3-0.9,1.9-2.1,2c-4.7,0.5-8-1.1-9.6-4.6c-1.5-3.3-0.6-7.3,2.1-9.5c3-2.4,7.1-2.4,10,0
				c1.5,1.2,1.5,2.4,0.2,3.8c-1.1,1.2-2.3,2.4-3.5,3.5c-0.9,0.9-2,1.3-3,0.2c-1-1-0.8-2.1,0.2-3c0.6-0.6,1.3-1,1.9-1.4
				C26.5,13.7,26.4,13.5,26.2,13.4"/>
			<path id="Fill-5" class="st0" d="M72,17c0.8-2,1.3-3.5,1.9-5.1c0.5-1.3,1.2-2.4,2.8-1.8c1.5,0.5,1.5,1.8,1.1,3.1
				c-1.2,3.3-2.4,6.6-3.6,9.9c-0.4,1-0.9,1.8-2.1,1.8c-1.1,0-1.7-0.8-2.1-1.7c-1.2-3.4-2.5-6.7-3.7-10.1c-0.5-1.3-0.3-2.5,1-3
				c1.4-0.5,2.3,0.3,2.7,1.6C70.6,13.3,71.2,14.9,72,17"/>
			<path id="Fill-6" class="st0" d="M6,17.1c0-4,3.1-7.6,7-8c1.4-0.2,2.6,0,3,1.6c0.3,1.2-0.6,2.1-2.2,2.5c-2.3,0.5-3.6,1.9-3.5,4
				c0,2,1.3,3.4,3.6,3.7c1.4,0.2,2.3,0.8,2.2,2.3c-0.1,1.3-1.3,2-2.9,1.8C9.2,24.5,6,21,6,17.1"/>
		</g>
	</g>
</g>
</svg>
