<svg height="47" viewBox="0 0 132 47" width="132" xmlns="http://www.w3.org/2000/svg" xmlns:xlink="http://www.w3.org/1999/xlink"><linearGradient id="a" x1="18.267264%" x2="72.644179%" y1="50%" y2="50%"><stop offset="0" stop-color="#b33060"/><stop offset="1" stop-color="#ff8178"/></linearGradient><g fill="none"><path d="m22.6113663 9.47891538v-2.02223479h2.5246111v2.08104657c1.6339358.26453147 3.1036438.96054204 4.2636826 1.95273504v4.9186706h-.1789056c-.790872-1.3998869-2.6800945-2.3858287-4.8867621-2.3858287-2.9188013 0-5.2844407 1.7235166-5.2844407 3.8494381 0 2.1138793 2.3402239 3.8293679 5.237098 3.8479327v.0005017h.0294024c.00598 0 .0119602.0005018.0179403.0005018.0069768 0 .014452 0 .0214288-.0005018h4.3481519l1.6385553-.0000501v6.170039c-.4365494-.646256-.9902097-1.2343089-1.6385553-1.7460954v-3.0115234c-1.3927739.9569823-3.1231491 1.5278787-5.00056 1.5363288 4.0104527.5584647 7.0597676 3.3577719 7.0597676 6.7269781 0 2.9550019-2.3450229 5.471733-5.6268032 6.4230682v2.0835275h-2.5246111v-1.6839503c-.1263832.0044479-.2534804.0066952-.3812332.0066952-2.1294243 0-4.075458-.6256842-5.5699919-1.658289v-3.829368h.0024917c.3785862.4772747.8939527.8872115 1.5059959 1.199892v-8.5480437c1.2074877-.5238286 2.5908909-.8218691 4.0615043-.8218691.0203822 0 .0407477.0000573.0610963.0001715-3.9775665-.5947083-7.0116508-3.7368622-7.0116508-7.5233341 0-3.8883579 3.1980383-7.09672522 7.3317877-7.56643842zm-3.5003689 17.84569432v6.9931314c.594318.1816394 1.2451904.2817927 1.927595.2817927 2.8051788 0 5.0791229-1.6914045 5.0791229-3.7781893 0-2.0872865-2.2739441-3.778691-5.0791229-3.778691-.682526 0-1.3333544.1002725-1.927595.2819562z" fill="url(#a)"/><path d="m43.7294944 23.4843317-20.7086886 20.8502864-20.70819022-20.8502864 20.70819022-20.84978474zm-43.72969374 0 23.02100514 23.1784137 23.0215035-23.1784137-23.0215035-23.17841377z" fill="url(#a)"/><path d="m57.9222011 10.1755218h10.3954861v10.4676828 3.4903442 10.7468211h6.5163085v3.2089728h-16.9117946v-3.2089728h6.8379099v-10.7468211-3.4903442-7.2564768h-6.8379099zm22.8746161 10.682731v-5.9914226c0-3.1118327 1.7244489-4.669424 5.1711274-4.669424h5.7866064 5.7877155c3.4466785 0 5.1711275 1.5575913 5.1711275 4.669424v1.5285608h-3.4477878v-1.5285608c0-.4957494-.1297497-.8809602-.3903581-1.1567487-.2594985-.2757885-.7041954-.4131246-1.3329816-.4131246h-5.7877155-5.7866064c-1.1488931 0-1.7233389.5359454-1.7233389 1.6111858v5.9501101c0 1.0194127.5744458 1.5296773 1.7233389 1.5296773h11.5743219c3.4466785 0 5.1711275 1.5564747 5.1711275 4.669424v6.404547c0 3.0861521-1.724449 4.6281116-5.1711275 4.6281116h-5.7877155-5.7866064c-3.4466785 0-5.1711274-1.5419595-5.1711274-4.6281116v-1.5698732h3.4477885v1.5698732c0 .4946329.1297489.8742609.3892482 1.1366508.2606076.2612734.7041962.3919101 1.3340907.3919101h5.7866064 5.7877155c.6010618 0 1.0391047-.137336 1.3130204-.4131245.2728065-.2757886.4103193-.6464841.4103193-1.1154364v-6.404547c0-.5515771-.1297497-.951303-.3903581-1.1991778-.2594985-.2478747-.7041954-.3706955-1.3329816-.3706955h-11.5743219c-3.4466785 0-5.1711274-1.543076-5.1711274-4.629228zm50.3980348 4.8347854v7.7689746c0 3.0861521-1.723339 4.6281116-5.171128 4.6281116h-5.786606-5.787715c-3.446679 0-5.171128-1.5419595-5.171128-4.6281116v-7.6863497-3.1821756-7.7265456c0-3.1118328 1.724449-4.669424 5.171128-4.669424h5.787715 5.786606c3.447789 0 5.171128 1.5575912 5.171128 4.669424v1.5285608h-3.447788v-1.5285608c0-.4957495-.12975-.8809602-.389248-1.1567488-.260609-.2757885-.705306-.4142411-1.334092-.4142411h-5.786606-5.787715c-1.148893 0-1.723339.537062-1.723339 1.6123023v7.6852332 3.1821756 7.6863497c0 .4946329.129749.8742609.390357 1.1366508.259499.2612734.704196.3919101 1.332982.3919101h5.787715 5.786606c.601062 0 1.039106-.137336 1.313021-.4131246.273916-.2757885.410319-.6464841.410319-1.1154363v-4.6705405h-5.786606v-3.0984341z" fill="#ff8178"/></g></svg>