<?xml version="1.0" encoding="UTF-8"?>
<svg width="86px" height="121px" viewBox="0 0 86 121" version="1.1" xmlns="http://www.w3.org/2000/svg" xmlns:xlink="http://www.w3.org/1999/xlink">
    <!-- Generator: Sketch 52.4 (67378) - http://www.bohemiancoding.com/sketch -->
    <title>logo-text-h</title>
    <desc>Created with Sketch.</desc>
    <defs>
        <linearGradient x1="18.267264%" y1="50%" x2="72.644179%" y2="50%" id="linearGradient-1">
            <stop stop-color="#B33060" offset="0%"></stop>
            <stop stop-color="#FF8178" offset="100%"></stop>
        </linearGradient>
    </defs>
    <g id="Page-1" stroke="none" stroke-width="1" fill="none" fill-rule="evenodd">
        <g id="Desktop-HD" transform="translate(-596.000000, -231.000000)" fill-rule="nonzero">
            <g id="logo-text-h" transform="translate(596.000000, 231.000000)">
                <path d="M42.264448,14.4367935 L42.264448,11.3260125 L46.1452424,11.3260125 L46.1452424,14.5272631 C48.6569039,14.9341888 50.9161171,16.0048541 52.6993112,17.5311334 L52.6993112,25.0974692 L52.4243002,25.0974692 C51.2085836,22.9440389 48.3044992,21.4273757 44.9124429,21.4273757 C40.4257053,21.4273757 36.78928,24.078642 36.78928,27.348923 C36.78928,30.6006799 40.3866369,33.2395968 44.8396684,33.2681548 L44.8396684,33.2689266 L44.8848652,33.2689266 C44.8940577,33.2689266 44.9032503,33.2696984 44.9124429,33.2696984 C44.9231675,33.2696984 44.9346582,33.2696984 44.9453828,33.2689266 L51.6292966,33.2689266 L54.1480593,33.2688494 L54.1480593,42.7601512 C53.477002,41.7660228 52.6259238,40.8614277 51.6292966,40.0741521 L51.6292966,35.4415595 C49.4883455,36.9136746 46.8284389,37.7918783 43.9425109,37.8048769 C50.1073186,38.6639568 54.7946796,42.9700998 54.7946796,48.1529118 C54.7946796,52.6985581 51.1899457,56.5700171 46.1452424,58.0334455 L46.1452424,61.2385125 L42.264448,61.2385125 L42.264448,58.6481106 C42.0701774,58.6549526 41.8748036,58.6584098 41.678422,58.6584098 C38.4051029,58.6584098 35.4136892,57.6959267 33.1163141,56.1074824 L33.1163141,50.2168087 L33.1201444,50.2168087 C33.7021013,50.9509949 34.494315,51.5815961 35.4351386,52.062589 L35.4351386,38.9132294 C37.2912705,38.1074298 39.4178172,37.6489575 41.678422,37.6489575 C41.7097532,37.6489575 41.7410588,37.6490454 41.7723384,37.6492211 C35.658083,36.734388 30.994134,31.9008479 30.994134,26.0761607 C30.994134,20.0947435 35.9101105,15.1593481 42.264448,14.4367935 Z M36.8837335,41.8886248 L36.8837335,52.6460802 C37.7973101,52.925494 38.7978215,53.0795589 39.8468035,53.0795589 C44.1588824,53.0795589 47.6543551,50.4776902 47.6543551,47.2676126 C47.6543551,44.0567633 44.1588824,41.4548946 39.8468035,41.4548946 C38.7976349,41.4548946 37.7971913,41.6091427 36.8837335,41.8886248 Z M75.4279061,35.7230863 L43.1146298,3.58893481 L10.802131,35.7230863 L43.1146298,67.8580111 L75.4279061,35.7230863 Z M7.19327731,35.7230863 L43.1146298,0 L79.0367598,35.7230863 L43.1146298,71.4461727 L7.19327731,35.7230863 Z" id="Combined-Shape" fill="url(#linearGradient-1)"></path>
                <path d="M0,88 L12.1588253,88 L12.1588253,100.14966 L12.1588253,104.200843 L12.1588253,116.674493 L19.7804658,116.674493 L19.7804658,120.399093 L0,120.399093 L0,116.674493 L7.99779355,116.674493 L7.99779355,104.200843 L7.99779355,100.14966 L7.99779355,91.7271918 L0,91.7271918 L0,88 Z M26.7547337,100.399263 L26.7547337,93.4451213 C26.7547337,89.8332703 28.7716926,88.0254009 32.8030164,88.0254009 L39.5711784,88.0254009 L46.3406374,88.0254009 C50.3719612,88.0254009 52.3889202,89.8332703 52.3889202,93.4451213 L52.3889202,95.2192954 L48.3562993,95.2192954 L48.3562993,93.4451213 C48.3562993,92.869713 48.204541,92.4226063 47.8997272,92.102503 C47.5962106,91.7823998 47.0760817,91.6229964 46.3406374,91.6229964 L39.5711784,91.6229964 L32.8030164,91.6229964 C31.4592418,91.6229964 30.7873545,92.2450591 30.7873545,93.4930722 L30.7873545,100.399263 C30.7873545,101.582477 31.4592418,102.174733 32.8030164,102.174733 L46.3406374,102.174733 C50.3719612,102.174733 52.3889202,103.981306 52.3889202,107.594454 L52.3889202,115.028101 C52.3889202,118.610145 50.3719612,120.399871 46.3406374,120.399871 L39.5711784,120.399871 L32.8030164,120.399871 C28.7716926,120.399871 26.7547337,118.610145 26.7547337,115.028101 L26.7547337,113.205976 L30.7873545,113.205976 L30.7873545,115.028101 C30.7873545,115.602213 30.9391129,116.042841 31.2426295,116.347392 C31.5474432,116.650648 32.0662751,116.802276 32.8030164,116.802276 L39.5711784,116.802276 L46.3406374,116.802276 C47.0436546,116.802276 47.5560012,116.642872 47.8763799,116.322769 C48.1954614,116.002666 48.3562993,115.572406 48.3562993,115.028101 L48.3562993,107.594454 C48.3562993,106.954247 48.204541,106.490292 47.8997272,106.202588 C47.5962106,105.914884 47.0760817,105.772329 46.3406374,105.772329 L32.8030164,105.772329 C28.7716926,105.772329 26.7547337,103.981306 26.7547337,100.399263 Z M85.7015592,106.010915 L85.7015592,115.02823 C85.7015592,118.610274 83.6858973,120.4 79.6532764,120.4 L72.8851145,120.4 L66.1156554,120.4 C62.0843317,120.4 60.0673727,118.610274 60.0673727,115.02823 L60.0673727,106.106816 L60.0673727,102.41332 L60.0673727,93.4452512 C60.0673727,89.8333999 62.0843317,88.0255305 66.1156554,88.0255305 L72.8851145,88.0255305 L79.6532764,88.0255305 C83.6858973,88.0255305 85.7015592,89.8333999 85.7015592,93.4452512 L85.7015592,95.2194253 L81.6689383,95.2194253 L81.6689383,93.4452512 C81.6689383,92.8698429 81.51718,92.4227353 81.2136634,92.102632 C80.9088496,91.7825297 80.3887207,91.6218298 79.6532764,91.6218298 L72.8851145,91.6218298 L66.1156554,91.6218298 C64.7718808,91.6218298 64.0999936,92.2451881 64.0999936,93.4932012 L64.0999936,102.41332 L64.0999936,106.106816 L64.0999936,115.02823 C64.0999936,115.602342 64.2517519,116.04297 64.5565656,116.347522 C64.8600823,116.650777 65.3802112,116.802405 66.1156554,116.802405 L72.8851145,116.802405 L79.6532764,116.802405 C80.3562937,116.802405 80.8686402,116.643002 81.1890189,116.322899 C81.5093975,116.002796 81.6689383,115.572535 81.6689383,115.02823 L81.6689383,109.607214 L74.9007764,109.607214 L74.9007764,106.010915 L85.7015592,106.010915 Z" id="Shape" fill="#FF8178"></path>
            </g>
        </g>
    </g>
</svg>