<?xml version="1.0" encoding="UTF-8"?>
<svg width="132px" height="47px" viewBox="0 0 132 47" version="1.1" xmlns="http://www.w3.org/2000/svg" xmlns:xlink="http://www.w3.org/1999/xlink">
    <!-- Generator: Sketch 52.4 (67378) - http://www.bohemiancoding.com/sketch -->
    <title>logo--text--color</title>
    <desc>Created with Sketch.</desc>
    <g id="Page-1" stroke="none" stroke-width="1" fill="none" fill-rule="evenodd">
        <g id="logo--text--color" fill="#FBFBFB" fill-rule="nonzero">
            <path d="M22.6113663,9.47891538 L22.6113663,7.45668059 L25.1359774,7.45668059 L25.1359774,9.53772716 C26.7699132,9.80225863 28.2396212,10.4982692 29.39966,11.4904622 L29.39966,16.4091328 L29.2207544,16.4091328 C28.4298824,15.0092459 26.5406599,14.0233041 24.3339923,14.0233041 C21.415191,14.0233041 19.0495516,15.7468207 19.0495516,17.8727422 C19.0495516,19.9866215 21.3897755,21.7021101 24.2866496,21.7206749 L24.2866496,21.7211766 L24.316052,21.7211766 C24.322032,21.7211766 24.3280122,21.7216784 24.3339923,21.7216784 C24.3409691,21.7216784 24.3484443,21.7216784 24.3554211,21.7211766 L28.703573,21.7211766 L30.3421283,21.7211265 L30.3421283,27.8911655 C29.9055789,27.2449095 29.3519186,26.6568566 28.703573,26.1450701 L28.703573,23.1335467 C27.3107991,24.090529 25.5804239,24.6614254 23.703013,24.6698755 C27.7134657,25.2283402 30.7627806,28.0276474 30.7627806,31.3968536 C30.7627806,34.3518555 28.4177577,36.8685866 25.1359774,37.8199218 L25.1359774,39.9034493 L22.6113663,39.9034493 L22.6113663,38.219499 C22.4849831,38.2239469 22.3578859,38.2261942 22.2301331,38.2261942 C20.1007088,38.2261942 18.1546751,37.60051 16.6601412,36.5679052 L16.6601412,32.7385372 L16.6626329,32.7385372 C17.0412191,33.2158119 17.5565856,33.6257487 18.1686288,33.9384292 L18.1686288,25.3903855 C19.3761165,24.8665569 20.7595197,24.5685164 22.2301331,24.5685164 C22.2505153,24.5685164 22.2708808,24.5685737 22.2912294,24.5686879 C18.3136629,23.9739796 15.2795786,20.8318257 15.2795786,17.0453538 C15.2795786,13.1569959 18.4776169,9.94862858 22.6113663,9.47891538 Z M19.1109974,27.3246097 L19.1109974,34.3177411 C19.7053154,34.4993805 20.3561878,34.5995338 21.0385924,34.5995338 C23.8437712,34.5995338 26.1177153,32.9081293 26.1177153,30.8213445 C26.1177153,28.734058 23.8437712,27.0426535 21.0385924,27.0426535 C20.3560664,27.0426535 19.705238,27.142926 19.1109974,27.3246097 Z" id="Shape"></path>
            <path d="M43.7294944,23.4843317 L23.0208058,44.3346181 L2.31261558,23.4843317 L23.0208058,2.63454696 L43.7294944,23.4843317 Z M-0.00019934,23.4843317 L23.0208058,46.6627454 L46.0423093,23.4843317 L23.0208058,0.30591793 L-0.00019934,23.4843317 Z" id="Shape"></path>
            <path d="M57.9222011,10.1755218 L68.3176872,10.1755218 L68.3176872,20.6432046 L68.3176872,24.1335488 L68.3176872,34.8803699 L74.8339957,34.8803699 L74.8339957,38.0893427 L57.9222011,38.0893427 L57.9222011,34.8803699 L64.760111,34.8803699 L64.760111,24.1335488 L64.760111,20.6432046 L64.760111,13.3867278 L57.9222011,13.3867278 L57.9222011,10.1755218 Z M80.7968172,20.8582528 L80.7968172,14.8668302 C80.7968172,11.7549975 82.5212661,10.1974062 85.9679446,10.1974062 L91.754551,10.1974062 L97.5422665,10.1974062 C100.988945,10.1974062 102.713394,11.7549975 102.713394,14.8668302 L102.713394,16.395391 L99.2656062,16.395391 L99.2656062,14.8668302 C99.2656062,14.3710808 99.1358565,13.98587 98.8752481,13.7100815 C98.6157496,13.434293 98.1710527,13.2969569 97.5422665,13.2969569 L91.754551,13.2969569 L85.9679446,13.2969569 C84.8190515,13.2969569 84.2446057,13.8329023 84.2446057,14.9081427 L84.2446057,20.8582528 C84.2446057,21.8776655 84.8190515,22.3879301 85.9679446,22.3879301 L97.5422665,22.3879301 C100.988945,22.3879301 102.713394,23.9444048 102.713394,27.0573541 L102.713394,33.4619011 C102.713394,36.5480532 100.988945,38.0900127 97.5422665,38.0900127 L91.754551,38.0900127 L85.9679446,38.0900127 C82.5212661,38.0900127 80.7968172,36.5480532 80.7968172,33.4619011 L80.7968172,31.8920279 L84.2446057,31.8920279 L84.2446057,33.4619011 C84.2446057,33.956534 84.3743546,34.336162 84.6338539,34.5985519 C84.8944615,34.8598253 85.3380501,34.990462 85.9679446,34.990462 L91.754551,34.990462 L97.5422665,34.990462 C98.1433283,34.990462 98.5813712,34.853126 98.8552869,34.5773375 C99.1280934,34.3015489 99.2656062,33.9308534 99.2656062,33.4619011 L99.2656062,27.0573541 C99.2656062,26.505777 99.1358565,26.1060511 98.8752481,25.8581763 C98.6157496,25.6103016 98.1710527,25.4874808 97.5422665,25.4874808 L85.9679446,25.4874808 C82.5212661,25.4874808 80.7968172,23.9444048 80.7968172,20.8582528 Z M131.194852,25.6930382 L131.194852,33.4620128 C131.194852,36.5481649 129.471513,38.0901244 126.023724,38.0901244 L120.237118,38.0901244 L114.449403,38.0901244 C111.002724,38.0901244 109.278275,36.5481649 109.278275,33.4620128 L109.278275,25.7756631 L109.278275,22.5934875 L109.278275,14.8669419 C109.278275,11.7551091 111.002724,10.1975179 114.449403,10.1975179 L120.237118,10.1975179 L126.023724,10.1975179 C129.471513,10.1975179 131.194852,11.7551091 131.194852,14.8669419 L131.194852,16.3955027 L127.747064,16.3955027 L127.747064,14.8669419 C127.747064,14.3711924 127.617314,13.9859817 127.357816,13.7101931 C127.097207,13.4344046 126.65251,13.295952 126.023724,13.295952 L120.237118,13.295952 L114.449403,13.295952 C113.30051,13.295952 112.726064,13.833014 112.726064,14.9082543 L112.726064,22.5934875 L112.726064,25.7756631 L112.726064,33.4620128 C112.726064,33.9566457 112.855813,34.3362737 113.116421,34.5986636 C113.37592,34.859937 113.820617,34.9905737 114.449403,34.9905737 L120.237118,34.9905737 L126.023724,34.9905737 C126.624786,34.9905737 127.06283,34.8532377 127.336745,34.5774491 C127.610661,34.3016606 127.747064,33.930965 127.747064,33.4620128 L127.747064,28.7914723 L121.960458,28.7914723 L121.960458,25.6930382 L131.194852,25.6930382 Z" id="Shape"></path>
        </g>
    </g>
</svg>