<?xml version="1.0" encoding="UTF-8"?>
<svg width="95px" height="33px" viewBox="0 0 95 33" version="1.1" xmlns="http://www.w3.org/2000/svg" xmlns:xlink="http://www.w3.org/1999/xlink">
    <!-- Generator: Sketch 44.1 (41455) - http://www.bohemiancoding.com/sketch -->
    <title>etc/logo--text--color</title>
    <desc>Created with Sketch.</desc>
    <defs></defs>
    <g id="Page" stroke="none" stroke-width="1" fill="none" fill-rule="evenodd">
        <g id="etc/logo--color" transform="translate(-33.000000, 0.000000)" fill="#383C41">
            <g id="etc/logo--text--color" transform="translate(33.000000, 0.000000)">
                <path d="M33.0142882,22.4691568 C33.0142882,20.6084153 32.9775376,18.7466259 33.0219157,16.8869322 C33.1231531,12.6303157 36.4508133,9.16312585 40.5412213,9.00628843 C44.9044848,8.83862259 48.5868227,12.0427867 48.9695834,16.3395731 C49.3405561,20.5067679 46.2760439,24.3620343 42.0788513,25.0082464 C40.384858,25.268827 39.1030951,24.5978144 39.0060181,23.2756994 C38.885712,21.6399095 39.9376105,21.101283 41.3649888,20.8763313 C43.7298534,20.5036241 45.0774899,18.7106476 44.789726,16.4677676 C44.5380192,14.5064266 42.7982611,13.1039717 40.7450829,13.2073656 C38.5449025,13.3177457 37.1896385,14.8180056 37.1653692,17.2788511 C37.1324324,20.6513797 37.1587819,24.0246068 37.1518478,27.3971353 C37.150461,27.9776783 37.1695297,28.5683511 37.0745329,29.1366684 C36.8765652,30.3190619 36.1627027,31.0585381 34.9464668,30.996362 C33.7271106,30.9341859 33.0638668,30.1262462 33.0375173,28.9235931 C32.9903657,26.7732787 33.0243426,24.6208684 33.0243426,22.4691568 L33.0142882,22.4691568" id="Fill-1"></path>
                <path d="M65.9879744,19.5966812 C65.9893611,20.6393178 66.0035747,21.6826511 65.9858944,22.7252877 C65.9640541,23.9915703 65.3868458,24.9143716 64.080587,24.9784695 C62.7767549,25.0422191 62.0213574,24.1535569 61.9426629,22.9287289 C61.812661,20.9085988 61.8969022,18.8755794 61.8143944,16.8509207 C61.7246064,14.6503409 60.3129595,13.2586493 58.2190627,13.1928095 C56.1612197,13.1276665 54.4375683,14.5364277 54.1983648,16.4785256 C53.9484146,18.5073646 55.1593386,20.2641359 57.1589407,20.7734358 C59.5748955,21.3886366 60.3139995,22.0825665 59.9909015,23.43141 C59.6449232,24.873962 58.1407149,25.3543482 55.9050294,24.7356637 C52.1048147,23.6846666 49.486057,19.7478688 50.0854523,15.9887337 C50.7753289,11.6635163 54.3110331,8.77388376 58.6201618,9.01390267 C62.5680586,9.23371679 65.8181053,12.5904979 65.9806943,16.6419056 C66.0202149,17.6253213 65.9865878,18.6115238 65.9879744,19.5966812" id="Fill-2"></path>
                <path d="M87.4243145,13.4145665 C85.0851169,13.1048494 83.4084706,14.3731324 83.1339121,16.3677798 C82.8263112,18.6001655 84.2815394,20.5581313 86.4630191,20.7605721 C87.5902077,20.86508 88.7385163,20.7633406 89.8582108,20.9083366 C90.8559551,21.0377603 91.5028367,21.732634 91.5597241,22.7801354 C91.6166116,23.8310973 91.0490998,24.6463973 90.0581685,24.8066197 C85.3310614,25.5707039 80.3307584,24.2110631 79.1286282,18.1907852 C78.5049103,15.067314 80.2043797,11.616823 83.0368287,10.0152914 C85.8648494,8.41687417 89.4749871,8.73108998 91.8118002,10.7793756 C93.2973456,12.0808796 93.3978354,13.1567573 92.0686452,14.5883771 C90.9012606,15.8455864 89.6824389,17.0557325 88.4486289,18.2464996 C87.4863115,19.175305 86.4357676,19.3164944 85.4564181,18.2731457 C84.5213522,17.2765141 84.7856914,16.2826509 85.6103889,15.3597285 C86.1370234,14.7704008 86.6871624,14.2028745 87.4243145,13.4145665" id="Fill-3"></path>
                <path d="M26.2420601,13.3526043 C24.041543,13.0469374 22.3256188,14.3462805 22.0484152,16.5284308 C21.788323,18.5779528 23.3173915,20.513152 25.4477521,20.7352353 C26.4073555,20.8353974 27.3850969,20.7473239 28.3508604,20.8056941 C29.6564549,20.8844422 30.5619865,21.5085552 30.5311861,22.9308557 C30.5020968,24.2616289 29.6160722,24.8042307 28.3902165,24.9237344 C23.715401,25.3792988 20.3896429,23.7884498 18.7472974,20.2979763 C17.2055665,17.0219878 18.1117826,12.9996195 20.8903204,10.7874206 C23.8793276,8.40770933 27.9918647,8.40391009 30.8474035,10.7777498 C32.3008399,11.9862563 32.3881077,13.1785296 31.0612951,14.57389 C29.9175738,15.7772157 28.7266252,16.9346051 27.5500501,18.1058098 C26.6202205,19.0307542 25.5702692,19.373032 24.5476961,18.3544879 C23.5436033,17.3542493 23.7619438,16.2465956 24.7133338,15.3247597 C25.2838256,14.7717964 25.9840212,14.3545698 26.6256961,13.8765552 C26.4977033,13.7017898 26.3700528,13.5273697 26.2420601,13.3526043" id="Fill-4"></path>
                <path d="M71.986556,17.0194527 C72.7501013,14.9903799 73.3237902,13.4721704 73.8926726,11.9519066 C74.3743516,10.6651607 75.105968,9.59755204 76.6632707,10.1580637 C78.1762851,10.7024825 78.2085573,11.9495098 77.7182953,13.2824798 C76.4991634,16.5962441 75.2896446,19.9137748 74.0711994,23.2275391 C73.7155191,24.1951665 73.1442334,24.9861146 72.0126484,24.9998107 C70.8762568,25.0138491 70.3046278,24.2454996 69.9468877,23.2621217 C68.7198594,19.8904915 67.4887114,16.5205733 66.247607,13.1544216 C65.7686746,11.8553493 65.9166458,10.6904985 67.2961084,10.1645694 C68.7047533,9.627341 69.5603085,10.4710189 70.038211,11.7444111 C70.6321558,13.3273345 71.2106512,14.9164211 71.986556,17.0194527" id="Fill-5"></path>
                <path d="M6.00027985,17.0570406 C5.96612919,13.0651683 9.06176651,9.5008724 12.9628766,9.04476777 C14.331663,8.88473105 15.5469439,9.09347459 15.9405389,10.6729674 C16.2430656,11.8864631 15.3755006,12.7899748 13.6959087,13.1448388 C11.3484814,13.6409526 10.1014646,15.0336199 10.1490686,17.1050516 C10.1949478,19.0989003 11.4647317,20.4637351 13.7290245,20.8422568 C15.0871172,21.0694393 16.0354019,21.6570524 15.9422637,23.178097 C15.8643036,24.446214 14.6645458,25.1531587 13.0884407,24.9718998 C9.16835798,24.5210137 6.03374061,21.0210804 6.00027985,17.0570406" id="Fill-6"></path>
            </g>
        </g>
    </g>
</svg>