<?xml version="1.0" encoding="UTF-8"?>
<svg width="17px" height="17px" viewBox="0 0 17 17" version="1.1" xmlns="http://www.w3.org/2000/svg" xmlns:xlink="http://www.w3.org/1999/xlink">
    <!-- Generator: Sketch 44.1 (41455) - http://www.bohemiancoding.com/sketch -->
    <title>Github-color</title>
    <desc>Created with Sketch.</desc>
    <defs></defs>
    <g id="__Symbols" stroke="none" stroke-width="1" fill="none" fill-rule="evenodd">
        <g id="Partials/footer" transform="translate(-171.000000, -120.000000)" fill="#151513">
            <g id="footer">
                <g id="social-icons" transform="translate(136.000000, 120.000000)">
                    <path d="M43.4992173,0 C38.8060714,0 35,3.80554959 35,8.5002609 C35,12.2557169 37.4352804,15.4413579 40.812947,16.5653335 C41.2382209,16.6436048 41.3931981,16.3811351 41.3931981,16.1557138 C41.3931981,15.9542957 41.3858928,15.419442 41.3817183,14.7103042 C39.0174038,15.2237638 38.5185549,13.5706744 38.5185549,13.5706744 C38.1318948,12.5886307 37.5746033,12.3272046 37.5746033,12.3272046 C36.8028485,11.800178 37.6330458,11.8106142 37.6330458,11.8106142 C38.4862028,11.8706222 38.9349581,12.6867307 38.9349581,12.6867307 C39.6931459,13.9855121 40.924614,13.6103318 41.4088523,13.3927377 C41.48608,12.8437951 41.7057614,12.4691366 41.9484023,12.2567605 C40.0610209,12.0422972 38.0765831,11.3128089 38.0765831,8.05568004 C38.0765831,7.12790448 38.4079315,6.36867307 38.951656,5.77485497 C38.8639921,5.55986985 38.5723012,4.69523313 39.0351453,3.52533841 C39.0351453,3.52533841 39.7484576,3.29678627 41.3723257,4.39675865 C42.050155,4.20786396 42.7775561,4.11393843 43.5002609,4.11028577 C44.2224439,4.11393843 44.9493232,4.20786396 45.6281961,4.39675865 C47.2510206,3.29678627 47.9632892,3.52533841 47.9632892,3.52533841 C48.427177,4.69523313 48.135486,5.55986985 48.048344,5.77485497 C48.5931121,6.36867307 48.9218515,7.12790448 48.9218515,8.05568004 C48.9218515,11.3211578 46.9342828,12.0396881 45.0411615,12.249977 C45.3458977,12.5124467 45.6177599,13.0311243 45.6177599,13.8242733 C45.6177599,14.9602505 45.6073237,15.877068 45.6073237,16.1557138 C45.6073237,16.3832223 45.7607354,16.6477792 46.1917493,16.5648117 C49.5668068,15.4382271 52,12.2546733 52,8.5002609 C52,3.80554959 48.1939286,0 43.4992173,0" id="Github"></path>
                </g>
            </g>
        </g>
    </g>
</svg>