<?xml version="1.0" encoding="UTF-8"?>
<svg width="24px" height="24px" viewBox="0 0 24 24" version="1.1" xmlns="http://www.w3.org/2000/svg" xmlns:xlink="http://www.w3.org/1999/xlink">
    <!-- Generator: Sketch 44.1 (41455) - http://www.bohemiancoding.com/sketch -->
    <title>icons/i--location--primary</title>
    <desc>Created with Sketch.</desc>
    <defs>
        <path d="M16,11.9993333 C14.5273333,11.9993333 13.3333333,13.1933333 13.3333333,14.6666667 C13.3333333,16.1393333 14.5273333,17.3333333 16,17.3333333 C17.4726667,17.3333333 18.6666667,16.1393333 18.6666667,14.6666667 C18.6666667,13.1933333 17.4726667,11.9993333 16,11.9993333 M16,5.33333333 C10.8446667,5.34 6.66666667,9.49333333 6.66666667,14.6173333 C6.66666667,21.984 13.3593333,25.6933333 15.3453333,26.554 C15.5173333,26.6286667 15.7006667,26.6666667 15.8833333,26.6666667 C15.9226667,26.6666667 15.9606667,26.658 16,26.6546667 C16.0393333,26.658 16.0773333,26.6666667 16.1166667,26.6666667 C16.2993333,26.6666667 16.4833333,26.6286667 16.6546667,26.554 C18.6406667,25.6933333 25.3333333,21.984 25.3333333,14.6173333 C25.3333333,9.49333333 21.1553333,5.34 16,5.33333333" id="path-1"></path>
    </defs>
    <g id="______Slice" stroke="none" stroke-width="1" fill="none" fill-rule="evenodd">
        <g id="icons/i--location--primary" transform="translate(-4.000000, -4.000000)">
            <g id="Icon/Location">
                <rect id="Bounding-Box" x="0" y="0" width="32" height="32"></rect>
                <mask id="mask-2" fill="white">
                    <use xlink:href="#path-1"></use>
                </mask>
                <use id="Mask" fill="#FFC025" fill-rule="evenodd" xlink:href="#path-1"></use>
                <g id="Mixin/Fill/Active" mask="url(#mask-2)" fill-rule="evenodd" fill="#4CA6FF">
                    <rect id="Box" x="0" y="0" width="32" height="32"></rect>
                </g>
            </g>
        </g>
    </g>
</svg>