<?xml version="1.0" encoding="UTF-8"?>
<svg width="2560px" height="860px" viewBox="0 0 2560 860" version="1.1" xmlns="http://www.w3.org/2000/svg" xmlns:xlink="http://www.w3.org/1999/xlink">
    <!-- Generator: Sketch 44.1 (41455) - http://www.bohemiancoding.com/sketch -->
    <title>team_hero</title>
    <desc>Created with Sketch.</desc>
    <defs>
        <rect id="path-1" x="0" y="0" width="2560" height="860"></rect>
        <rect id="path-3" x="0" y="0" width="2560" height="860"></rect>
        <linearGradient x1="50%" y1="100%" x2="50%" y2="50%" id="linearGradient-5">
            <stop stop-color="#000526" stop-opacity="0.5" offset="0%"></stop>
            <stop stop-color="#000526" stop-opacity="0" offset="100%"></stop>
        </linearGradient>
        <polygon id="path-6" points="9.64920302 0.000241230075 9.64920302 9.64944425 0.000241230075 9.64944425 0.000241230075 0.000241230075 9.64920302 0.000241230075"></polygon>
        <polygon id="path-8" points="9.64944425 9.64920302 0.000241230075 9.64920302 0.000241230075 0.000482460151 9.64944425 0.000482460151 9.64944425 9.64920302"></polygon>
    </defs>
    <g id="Page" stroke="none" stroke-width="1" fill="none" fill-rule="evenodd">
        <g id="team_hero">
            <mask id="mask-2" fill="white">
                <use xlink:href="#path-1"></use>
            </mask>
            <use id="bg" fill="#FF566D" xlink:href="#path-1"></use>
            <mask id="mask-4" fill="white">
                <use xlink:href="#path-3"></use>
            </mask>
            <g id="@@"></g>
            <rect id="Scrim" fill="url(#linearGradient-5)" mask="url(#mask-4)" x="0" y="0" width="2560" height="860"></rect>
            <g id="planet" opacity="0.800000012" mask="url(#mask-4)">
                <g transform="translate(1447.549525, 616.444997) scale(-1, 1) rotate(6.000000) translate(-1447.549525, -616.444997) translate(752.049525, 226.944997)">
                    <g id="Group-4">
                        <path d="M217.308144,145.63398 C184.12041,169.798644 155.272051,195.129431 129.696405,222.398204 C103.151066,250.879375 80.8723749,280.261978 62.3997281,311.260494 C43.6119312,342.816158 28.9210861,375.556455 18.4968891,409.570233 C6.49694139,448.740866 0,489.297891 0,531.0414 C0,824.319533 1391,824.319533 1391,531.0414 C1391,237.757713 1079.60742,2.27373675e-13 695.487879,2.27373675e-13 C510.203838,2.27373675e-13 341.962146,55.4371268 217.308144,145.63398 Z" id="Fill-5" fill="#FF8870"></path>
                    </g>
                    <g id="Group-6" transform="translate(87.000000, 113.000000)">
                        <path d="M192.780913,129.150773 C163.339026,150.580422 137.746737,173.044209 115.057774,197.226636 C91.5085659,222.484239 71.7444361,248.541248 55.3567682,276.031277 C38.6895206,304.015395 25.6568082,333.050065 16.4091741,363.214081 C5.76364175,397.951288 0,433.91797 0,470.936847 C0,731.021051 1234,731.021051 1234,470.936847 C1234,210.847719 957.753812,5.68434189e-14 616.989247,5.68434189e-14 C452.617926,5.68434189e-14 303.365412,49.1626184 192.780913,129.150773 Z" id="Fill-5" fill="#CE6EE8"></path>
                    </g>
                    <g id="Group-8" transform="translate(218.000000, 184.000000)">
                        <path d="M151.693895,101.614122 C128.5269,118.474686 108.389045,136.148897 90.5357361,155.175312 C72.0055247,175.04766 56.4536851,195.54897 43.5586887,217.177762 C30.4436989,239.195295 20.188623,262.039391 12.911919,285.77204 C4.53524809,313.102815 0,341.400925 0,370.526889 C0,575.157704 971,575.157704 971,370.526889 C971,165.892199 753.629621,1.13686838e-13 485.491539,1.13686838e-13 C356.152355,1.13686838e-13 238.709737,38.6804986 151.693895,101.614122 Z" id="Fill-5" fill="#4C6AFF"></path>
                    </g>
                    <g id="Group-5" transform="translate(805.000000, 259.000000)" opacity="0.101845562">
                        <path d="M38.9890295,148 C17.4649789,148 0,134.79097 0,118.5 C0,102.20737 17.4649789,89 38.9890295,89 C60.5350211,89 78,102.20737 78,118.5 C78,134.79097 60.5350211,148 38.9890295,148" id="Fill-238" fill="#170418"></path>
                        <path d="M63.5109131,37 C49.9567929,37 39,28.7184591 39,18.4991761 C39,8.28154086 49.9567929,0 63.5109131,0 C77.0432071,0 88,8.28154086 88,18.4991761 C88,28.7184591 77.0432071,37 63.5109131,37" id="Fill-239" fill="#170418"></path>
                        <path d="M177.010876,45 C167.048338,45 159,38.9559543 159,31.5008157 C159,24.0440457 167.048338,18 177.010876,18 C186.951662,18 195,24.0440457 195,31.5008157 C195,38.9559543 186.951662,45 177.010876,45" id="Fill-240" fill="#170418"></path>
                        <path d="M177.510672,124 C170.040316,124 164,119.299375 164,113.49917 C164,107.698964 170.040316,103 177.510672,103 C184.959684,103 191,107.698964 191,113.49917 C191,119.299375 184.959684,124 177.510672,124" id="Fill-241" fill="#170418"></path>
                        <path d="M113.988871,64 C110.138315,64 107,61.7627604 107,58.999205 C107,56.2372396 110.138315,54 113.988871,54 C117.861685,54 121,56.2372396 121,58.999205 C121,61.7627604 117.861685,64 113.988871,64" id="Fill-242" fill="#170418"></path>
                        <path d="M10.0111288,69 C6.13831479,69 3,66.7643505 3,63.999205 C3,61.2388297 6.13831479,59 10.0111288,59 C13.8616852,59 17,61.2388297 17,63.999205 C17,66.7643505 13.8616852,69 10.0111288,69" id="Fill-243" fill="#170418"></path>
                        <path d="M113.988871,152 C110.138315,152 107,149.761526 107,147 C107,144.238474 110.138315,142 113.988871,142 C117.861685,142 121,144.238474 121,147 C121,149.761526 117.861685,152 113.988871,152" id="Fill-244" fill="#170418"></path>
                    </g>
                    <g id="Group-5" transform="translate(461.000000, 386.000000) scale(-1, 1) rotate(-58.000000) translate(-461.000000, -386.000000) translate(365.000000, 291.000000)" opacity="0.101845562">
                        <path d="M38.9890295,185 C17.4649789,185 0,171.79097 0,155.5 C0,139.20737 17.4649789,126 38.9890295,126 C60.5350211,126 78,139.20737 78,155.5 C78,171.79097 60.5350211,185 38.9890295,185" id="Fill-238" fill="#170418"></path>
                        <path d="M63.5109131,37 C49.9567929,37 39,28.7184591 39,18.4991761 C39,8.28154086 49.9567929,0 63.5109131,0 C77.0432071,0 88,8.28154086 88,18.4991761 C88,28.7184591 77.0432071,37 63.5109131,37" id="Fill-239" fill="#170418"></path>
                        <path d="M177.510672,162 C170.040316,162 164,157.299375 164,151.49917 C164,145.698964 170.040316,141 177.510672,141 C184.959684,141 191,145.698964 191,151.49917 C191,157.299375 184.959684,162 177.510672,162" id="Fill-241" fill="#170418"></path>
                        <path d="M113.988871,102 C110.138315,102 107,99.7627604 107,96.999205 C107,94.2372396 110.138315,92 113.988871,92 C117.861685,92 121,94.2372396 121,96.999205 C121,99.7627604 117.861685,102 113.988871,102" id="Fill-242" fill="#170418"></path>
                        <path d="M10.0111288,107 C6.13831479,107 3,104.76435 3,101.999205 C3,99.2388297 6.13831479,97 10.0111288,97 C13.8616852,97 17,99.2388297 17,101.999205 C17,104.76435 13.8616852,107 10.0111288,107" id="Fill-243" fill="#170418"></path>
                        <path d="M113.988871,189 C110.138315,189 107,186.761526 107,184 C107,181.238474 110.138315,179 113.988871,179 C117.861685,179 121,181.238474 121,184 C121,186.761526 117.861685,189 113.988871,189" id="Fill-244" fill="#170418"></path>
                    </g>
                </g>
            </g>
            <g id="ground" mask="url(#mask-4)">
                <g transform="translate(0.000000, 558.000000)" id="Path-2">
                    <path d="M449,70 C700.938196,70 721,74 935.223324,95.820296 C1149.44665,117.640592 1355.34443,157.088795 1565.90394,116.243129 C1776.46345,75.397463 1847.50359,5.60797479 2065,1 C2301,-4 2560,74 2560,74 L2560,302 L-1.36424205e-12,302 L-1.36424205e-12,164 C-1.36424205e-12,164 197.061804,70 449,70 Z" fill="#FFC725" transform="translate(1280.000000, 151.384746) scale(-1, 1) translate(-1280.000000, -151.384746) "></path>
                    <path d="M321,59 C661.865792,65.657535 612,151 877,134 C1142,117 1477,231.452137 1678,174.226069 C1879,117 1918,105 2144,98 C2370,91 2560,174.226069 2560,174.226069 L2560,302 L5.68434189e-14,302 L5.68434189e-14,85 C5.68434189e-14,85 65,54 321,59 Z" fill="#FFFFFF" opacity="0.601902174"></path>
                </g>
            </g>
            <g id="Observatory" mask="url(#mask-4)">
                <g transform="translate(1382.000000, 332.000000)" id="Page-1">
                    <g>
                        <polyline id="Stroke-15" fill="#E6F0F9" points="82.6272157 219.568376 82.6272157 367.638616 319.5396 367.638616 319.5396 219.568376"></polyline>
                        <path d="M319.537041,219.566548 L82.6283125,219.566548 L82.6283125,171.445548 C82.6283125,106.024094 135.663051,52.9893557 201.084505,52.9893557 C266.505958,52.9893557 319.537041,106.024094 319.537041,171.445548 L319.537041,178.84906 L319.537041,219.566548 Z" id="Fill-1" fill="#E6F0F9"></path>
                        <polygon id="Fill-3" fill="#4CA6FF" points="177.807497 57.6522886 180.655564 67.1799688 212.971437 112.215258 231.463765 156.639986 275.117066 156.639986 282.052602 141.829306 262.986274 89.2625429 234.04494 57.6522886 206.785392 53.1297482"></polygon>
                        <path d="M319.537041,171.445182 L319.537041,367.636422 L291.257453,367.636422 L291.257453,138.64671 C291.257453,116.915117 285.407764,96.5947618 275.229306,79.0859129 C277.115831,80.5666153 278.965795,82.1569994 280.779198,83.7876 C283.78082,86.5259855 286.669103,89.4142691 289.367272,92.4487951 C308.13746,113.401648 319.537041,141.088955 319.537041,171.445182" id="Fill-5" fill="#FFFFFF"></path>
                        <path d="M197.640866,85.2672056 C148.035508,99.4088276 111.723566,145.087583 111.723566,199.208169 L111.723566,367.748663 L82.6286781,367.748663 L82.6286781,171.444085 C82.6286781,117.509957 118.68104,71.9774445 168.026818,57.6530198 C179.426399,65.0930924 189.422054,74.4964667 197.640866,85.2672056" id="Fill-7" fill="#4CE2FF"></path>
                        <polygon id="Fill-9" fill="#00D4BF" points="149.258458 367.637885 252.907626 367.637885 252.907626 293.602765 149.258458 293.602765"></polygon>
                        <polygon id="Fill-11" fill="#FFC725" points="204.710215 95.7429009 243.65086 49.7680053 285.520005 91.6334947 221.147839 146.123343"></polygon>
                        <path d="M236.311694,58.4343188 L232.377779,63.0775091 C233.101678,64.7958551 233.997411,66.6092585 235.054011,68.4994391 L206.726895,101.934065 L207.677469,104.840629 L215.994995,130.334303 L218.620043,128.115077 L214.123095,116.602159 L245.737005,79.2921144 C242.994964,74.4112806 242.329561,70.9599643 242.841409,68.3056682 C240.260234,64.8945686 238.062945,61.5639022 236.311694,58.4343188" id="Fill-12" fill="#FF8870" opacity="0.495697464"></path>
                        <path d="M262.311001,91.1351744 L218.62114,128.112518 L224.532981,143.259555 L225.538396,142.407694 L263.43341,110.329465 L274.960952,100.571453 L276.851133,98.973757 C274.946328,97.9098449 272.968402,96.6777542 270.946603,95.2994214 C268.672537,94.546274 265.886623,93.1313806 262.311001,91.1351744" id="Fill-13" fill="#FBE7BC"></path>
                        <path d="M319.537041,219.566548 L319.537041,178.84906 L319.537041,171.445548 C319.537041,106.024094 266.505958,52.9893557 201.084505,52.9893557 C135.663051,52.9893557 82.6283125,106.024094 82.6283125,171.445548 L82.6283125,219.566548 L319.537041,219.566548" id="Stroke-14" stroke="#17317B" stroke-width="10" stroke-linecap="round" stroke-linejoin="round"></path>
                        <polyline id="Stroke-15" stroke="#17317B" stroke-width="10" stroke-linecap="round" stroke-linejoin="round" points="82.6272157 219.568376 82.6272157 367.638616 319.5396 367.638616 319.5396 219.568376"></polyline>
                        <polygon id="Stroke-16" stroke="#17317B" stroke-width="10" stroke-linecap="round" stroke-linejoin="round" points="149.258458 367.637885 252.907626 367.637885 252.907626 293.602765 149.258458 293.602765"></polygon>
                        <path d="M67.8190949,219 L334.345527,219" id="Stroke-17" stroke="#17317B" stroke-width="10" stroke-linecap="round" stroke-linejoin="round"></path>
                        <path d="M52.9089701,367 L349.257846,367" id="Stroke-18" stroke="#17317B" stroke-width="10" stroke-linecap="round" stroke-linejoin="round"></path>
                        <path d="M82.6272157,256 L223.293944,256" id="Stroke-19" stroke="#17317B" stroke-width="10" stroke-linecap="round" stroke-linejoin="round"></path>
                        <path d="M260.219006,256 L276.850401,256" id="Stroke-20" stroke="#17317B" stroke-width="10" stroke-linecap="round" stroke-linejoin="round"></path>
                        <path d="M201,295.910101 L201,367.63825" id="Stroke-21" stroke="#17317B" stroke-width="10" stroke-linecap="round" stroke-linejoin="round"></path>
                        <path d="M185.923209,330 L216.242876,330" id="Stroke-22" stroke="#17317B" stroke-width="10" stroke-linecap="round" stroke-linejoin="round"></path>
                        <path d="M220.973446,54.6583449 C256.905157,73.965973 281.334919,111.908515 281.334919,155.558159 L220.980758,155.558159 C220.980758,114.343448 199.19798,78.2143093 166.516502,58.0584764" id="Stroke-23" stroke="#17317B" stroke-width="10" stroke-linecap="round" stroke-linejoin="round"></path>
                        <polyline id="Stroke-24" stroke="#17317B" stroke-width="10" stroke-linecap="round" stroke-linejoin="round" points="204.710215 95.7429009 243.65086 49.7680053 285.520005 91.6334947 221.147839 146.123343"></polyline>
                        <path d="M281.333822,155.557063 L220.979661,155.557063 C220.979661,114.342351 199.200539,78.2168685 166.519061,58.0610356" id="Stroke-25" stroke="#17317B" stroke-width="10" stroke-linecap="round" stroke-linejoin="round"></path>
                        <path d="M269.816151,2.6524205 L233.171509,39.2970629 C227.391285,45.0772864 236.765411,63.8291941 254.109737,81.1771765 C271.45772,98.525159 290.209627,107.902941 295.993507,102.119061 L332.641805,65.474419 L269.816151,2.6524205" id="Fill-26" fill="#FFC725"></path>
                        <path d="M264.896197,16.3735961 L232.222031,49.0441064 C232.276872,49.2269091 232.331713,49.413368 232.386553,49.5998268 C232.733879,50.7332039 233.172605,51.928734 233.702733,53.1717928 C234.415664,54.8426101 235.285805,56.6048288 236.313157,58.4328564 C238.064407,61.5624398 240.261697,64.8931062 242.842872,68.3042058 C243.237726,66.2275664 244.356479,64.6408383 245.753092,63.2442252 L273.736539,35.2571218 C271.561186,31.8131177 269.850152,28.5482603 268.680215,25.5905115 C266.841219,22.2123164 265.557943,19.0863891 264.896197,16.3735961" id="Fill-27" fill="#FF8870" opacity="0.495697464"></path>
                        <path d="M310.300383,62.2563591 L278.335491,94.1883462 C277.158241,95.365596 275.867654,95.9286285 274.27727,95.9286285 C273.297447,95.9286285 272.20063,95.7129212 270.946603,95.299787 C272.968402,96.6781198 274.946328,97.9065544 276.851133,98.9741226 C280.075773,100.78387 283.095675,102.121986 285.775564,102.929974 C286.99303,103.29558 288.141031,103.551504 289.212256,103.69409 C289.863033,103.781835 290.484563,103.825708 291.073188,103.825708 C293.160795,103.825708 294.835269,103.2773 295.994238,102.11833 L301.895111,96.2174569 L327.396097,70.7164711 L310.300383,62.2563591" id="Fill-28" fill="#FBE7BC"></path>
                        <path d="M332.640343,65.4733221 C326.856464,71.2572016 308.104556,61.8794198 290.756573,44.5314373 C273.412247,27.1871109 264.034465,8.43520319 269.814689,2.65132369 C275.598568,-3.12889976 294.34682,6.24522606 311.694802,23.5932085 C329.046441,40.941191 338.420566,59.6894426 332.640343,65.4733221" id="Fill-29" fill="#4CE2FF"></path>
                        <path d="M270.737111,6.25326938 C269.779225,6.25326938 268.916396,6.37391921 268.148624,6.62253097 C267.523439,13.6714056 274.181115,26.2299556 285.412517,38.8652828 C283.580834,33.7577735 283.536961,29.7214884 285.683065,27.57904 C286.794506,26.4675992 288.399514,25.9411272 290.395721,25.9411272 C296.303906,25.9411272 305.608567,30.5660372 315.447012,38.3644032 C312.712282,34.9203991 309.593667,31.4069299 306.153319,27.9665819 C292.874526,14.6585405 278.707312,6.25326938 270.737111,6.25326938" id="Fill-30" fill="#4CA6FF"></path>
                        <path d="M332.640343,65.4733221 C326.856464,71.2572016 308.104556,61.8794198 290.756573,44.5314373 C273.412247,27.1871109 264.034465,8.43520319 269.814689,2.65132369 C275.598568,-3.12889976 294.34682,6.24522606 311.694802,23.5932085 C329.046441,40.941191 338.420566,59.6894426 332.640343,65.4733221" id="Stroke-31" stroke="#17317B" stroke-width="10" stroke-linecap="round" stroke-linejoin="round"></path>
                        <path d="M269.816151,2.6524205 L233.171509,39.2970629 C227.391285,45.0772864 236.765411,63.8291941 254.109737,81.1771765 C271.45772,98.525159 290.209627,107.902941 295.993507,102.119061 L332.641805,65.474419" id="Stroke-32" stroke="#17317B" stroke-width="10" stroke-linecap="round" stroke-linejoin="round"></path>
                        <path d="M372.917642,295.910101 C371.338226,295.910101 369.948925,296.91186 369.451702,298.410843 L367.283661,304.900341 L360.794163,307.064726 C359.29518,307.565606 358.293421,308.954907 358.293421,310.534323 C358.293421,312.113738 359.29518,313.503039 360.794163,314.000263 L367.283661,316.168304 L369.451702,322.657802 C369.948925,324.156785 371.338226,325.158544 372.917642,325.158544 C374.497058,325.158544 375.886359,324.156785 376.387238,322.657802 L378.547967,316.168304 L385.037465,314.000263 C386.540104,313.503039 387.541863,312.113738 387.541863,310.534323 C387.541863,308.954907 386.540104,307.565606 385.037465,307.064726 L378.547967,304.900341 L376.387238,298.410843 C375.886359,296.91186 374.497058,295.910101 372.917642,295.910101" id="Fill-33" fill="#9AE0E6"></path>
                        <path d="M80.4332169,7.08173152 C78.853801,7.08173152 77.4645,8.08349067 76.9636204,9.58247335 L74.7992357,16.0719715 L68.3097375,18.2363563 C66.8107548,18.7372359 65.8089956,20.1265369 65.8089956,21.7059528 C65.8089956,23.2853687 66.8107548,24.6746697 68.3097375,25.1755493 L74.7992357,27.339934 L76.9636204,33.8294322 C77.4645,35.3284149 78.853801,36.330174 80.4332169,36.330174 C82.0126328,36.330174 83.4019338,35.3284149 83.9028134,33.8294322 L86.0671981,27.339934 L92.5566963,25.1755493 C94.055679,24.6746697 95.0574382,23.2853687 95.0574382,21.7059528 C95.0574382,20.1265369 94.055679,18.7372359 92.5566963,18.2363563 L86.0671981,16.0719715 L83.9028134,9.58247335 C83.4019338,8.08349067 82.0126328,7.08173152 80.4332169,7.08173152" id="Fill-34" fill="#9AE0E6"></path>
                        <path d="M18.2802766,186.228442 C16.7008607,186.228442 15.3115597,187.230201 14.8106801,188.729184 L11.7322815,197.960723 L2.50074183,201.039122 C1.00175916,201.540002 0,202.929303 0,204.508718 C0,206.088134 1.00175916,207.477435 2.50074183,207.978315 L11.7322815,211.056714 L14.8106801,220.288253 C15.3115597,221.787236 16.7008607,222.788995 18.2802766,222.788995 C19.8596925,222.788995 21.2489935,221.787236 21.746217,220.288253 L24.8246156,211.056714 L34.0598113,207.978315 C35.558794,207.477435 36.5605531,206.088134 36.5605531,204.508718 C36.5605531,202.929303 35.558794,201.540002 34.0598113,201.039122 L24.8246156,197.960723 L21.746217,188.729184 C21.2489935,187.230201 19.8596925,186.228442 18.2802766,186.228442" id="Fill-35" fill="#9AE0E6"></path>
                        <path d="M369.261587,124.075502 C367.678515,124.075502 366.29287,125.077261 365.79199,126.576243 L362.713592,135.807783 L353.482052,138.886182 C351.983069,139.387061 350.98131,140.776362 350.98131,142.355778 C350.98131,143.935194 351.983069,145.324495 353.482052,145.821719 L362.713592,148.903773 L365.79199,158.135313 C366.29287,159.634296 367.678515,160.636055 369.261587,160.636055 C370.841003,160.636055 372.230304,159.634296 372.727527,158.135313 L375.805926,148.903773 L385.037465,145.821719 C386.540104,145.324495 387.541863,143.935194 387.541863,142.355778 C387.541863,140.776362 386.540104,139.387061 385.037465,138.886182 L375.805926,135.807783 L372.727527,126.576243 C372.230304,125.077261 370.841003,124.075502 369.261587,124.075502" id="Fill-36" fill="#9AE0E6"></path>
                        <path d="M391.197919,219.13294 C387.161633,219.13294 383.885808,222.408765 383.885808,226.44505 C383.885808,230.481335 387.161633,233.757161 391.197919,233.757161 C395.234204,233.757161 398.510029,230.481335 398.510029,226.44505 C398.510029,222.408765 395.234204,219.13294 391.197919,219.13294" id="Fill-37" fill="#47E3FF"></path>
                        <path d="M201.083042,3.4256762 C197.043101,3.4256762 193.770932,6.70150176 193.770932,10.7377868 C193.770932,14.7740719 197.043101,18.0498975 201.083042,18.0498975 C205.119327,18.0498975 208.395153,14.7740719 208.395153,10.7377868 C208.395153,6.70150176 205.119327,3.4256762 201.083042,3.4256762" id="Fill-38" fill="#47E3FF"></path>
                        <path d="M40.2166084,299.566157 C36.1803234,299.566157 32.9044978,302.841982 32.9044978,306.878267 C32.9044978,310.914552 36.1803234,314.190378 40.2166084,314.190378 C44.2565496,314.190378 47.5287191,310.914552 47.5287191,306.878267 C47.5287191,302.841982 44.2565496,299.566157 40.2166084,299.566157" id="Fill-39" fill="#47E3FF"></path>
                        <path d="M54.8408297,105.795225 C50.8008886,105.795225 47.5287191,109.071051 47.5287191,113.107336 C47.5287191,117.143621 50.8008886,120.419446 54.8408297,120.419446 C58.8771148,120.419446 62.1529403,117.143621 62.1529403,113.107336 C62.1529403,109.071051 58.8771148,105.795225 54.8408297,105.795225" id="Fill-40" fill="#47E3FF"></path>
                    </g>
                </g>
            </g>
            <g id="Page-1" mask="url(#mask-4)">
                <g transform="translate(1087.888094, 438.500000)">
                    <path d="M135.089083,232.689566 C115.235848,232.689566 99.1433899,216.597107 99.1433899,196.743872 L171.034777,196.743872 C171.034777,216.597107 154.939906,232.689566 135.089083,232.689566" id="Fill-1" stroke="none" fill="#FFC725" fill-rule="evenodd"></path>
                    <path d="M108.520727,196.742907 L103.934943,196.742907 C104.219594,205.538156 105.978162,214.692837 112.074046,219.925118 C115.632189,224.074275 122.989707,225.350382 128.354663,227.142721 C128.419796,227.140309 128.482515,227.137897 128.55006,227.135485 C122.651984,221.401446 118.994937,213.356423 118.994937,204.486393 L115.646663,202.433525 C115.627365,201.9776 115.576706,201.528912 115.576706,201.068163 L108.520727,196.742907" id="Fill-3" stroke="none" fill="#FF8870" fill-rule="evenodd" opacity="0.5"></path>
                    <path d="M170.795236,200.919806 L159.920584,200.919806 C158.465966,207.199025 155.24072,212.82451 150.852745,217.236608 C145.07046,222.997183 137.232895,226.704889 128.548612,227.134278 C128.589622,227.172875 128.630631,227.211472 128.669227,227.250069 C128.563086,227.213884 128.459357,227.180112 128.353216,227.143928 C127.85387,227.165638 127.354524,227.175288 126.850353,227.175288 C122.997908,227.175288 119.285378,226.521554 115.818901,225.334702 C117.898305,227.346561 120.238236,229.095479 122.783214,230.528386 C126.621184,231.92752 130.765517,232.689807 135.08836,232.689807 C153.530399,232.689807 168.727894,218.804604 170.795236,200.919806" id="Fill-5" stroke="none" fill="#FBEEC9" fill-rule="evenodd"></path>
                    <path d="M135.089083,232.689566 C115.235848,232.689566 99.1433899,216.597107 99.1433899,196.743872 L171.034777,196.743872 C171.034777,216.597107 154.939906,232.689566 135.089083,232.689566" id="Stroke-7" stroke="#17317B" stroke-width="8" fill="none" stroke-linecap="round" stroke-linejoin="round"></path>
                    <path d="M31.3435062,171.893315 L31.3435062,133.791024 C31.3435062,110.89829 49.9013359,92.3380483 72.7964823,92.3380483 L72.7964823,113.064536 C61.3477029,113.064536 52.0699942,122.344657 52.0699942,133.791024 L52.0699942,171.893315" id="Fill-9" stroke="none" fill="#E6F0F9" fill-rule="evenodd"></path>
                    <path d="M218.259183,171.893315 L218.259183,133.791024 C218.259183,122.344657 208.979062,113.064536 197.532695,113.064536 L197.532695,92.3380483 C220.425429,92.3380483 238.985671,110.89829 238.985671,133.791024 L238.985671,171.893315" id="Fill-11" stroke="none" fill="#E6F0F9" fill-rule="evenodd"></path>
                    <path d="M187.137126,87.2034661 L135.091737,87.2034661 L83.0439359,87.2034661 C75.2618537,87.2034661 69.2552248,94.0592249 70.3069879,101.788236 L78.1011317,158.882571 C78.8947786,164.691391 80.8897513,170.273455 83.9606102,175.266917 L86.9373893,180.105993 C92.8571754,189.733485 102.395413,196.579595 113.41239,199.110098 C116.509784,199.821727 119.672311,200.178747 122.849311,200.178747 L135.091737,200.178747 L147.331751,200.178747 C150.506339,200.178747 153.67369,199.821727 156.768672,199.110098 C167.785649,196.579595 177.323886,189.733485 183.243672,180.105993 L186.218039,175.266917 C189.29131,170.273455 191.286283,164.691391 192.07993,158.882571 L199.871661,101.788236 C200.925837,94.0592249 194.919208,87.2034661 187.137126,87.2034661" id="Fill-13" stroke="none" fill="#E6F0F9" fill-rule="evenodd"></path>
                    <path d="M158.196754,159.097989 L111.981896,159.097989 C104.889732,159.097989 99.1436312,153.349476 99.1436312,146.259725 L99.1436312,125.718984 C99.1436312,118.629232 104.889732,112.880719 111.981896,112.880719 L158.196754,112.880719 C165.286506,112.880719 171.035018,118.629232 171.035018,125.718984 L171.035018,146.259725 C171.035018,153.349476 165.286506,159.097989 158.196754,159.097989" id="Fill-15" stroke="none" fill="#00D4BF" fill-rule="evenodd"></path>
                    <path d="M181.306836,56.392596 L181.306836,87.2025012 L88.8722958,87.2025012 L88.8722958,56.392596 C88.8722958,30.870454 109.567424,10.1753258 135.089566,10.1753258 C154.448279,10.1753258 171.035259,22.0896792 177.891018,38.9830214 C180.100686,44.3503906 181.306836,50.2291675 181.306836,56.392596" id="Fill-17" stroke="none" fill="#E6F0F9" fill-rule="evenodd"></path>
                    <path d="M150.495725,61.528143 L119.683407,61.528143 C114.012088,61.528143 109.414243,56.9302978 109.414243,51.2565664 C109.414243,45.5852473 114.012088,40.9874021 119.683407,40.9874021 L150.495725,40.9874021 C156.167044,40.9874021 160.764889,45.5852473 160.764889,51.2565664 C160.764889,56.9302978 156.167044,61.528143 150.495725,61.528143" id="Fill-19" stroke="none" fill="#4CE2FF" fill-rule="evenodd"></path>
                    <path d="M170.470299,30.3566339 C163.691733,26.4294083 155.837282,24.1932055 147.466599,24.1932055 C121.942044,24.1932055 101.249328,44.8883337 101.249328,70.4104756 L101.249328,84.1750637 L88.8718133,84.1750637 L88.8718133,56.392596 C88.8718133,30.870454 109.566941,10.1753258 135.089083,10.1753258 C143.228186,10.1753258 150.880004,12.2812644 157.530717,16.0034444 C162.791945,19.7786951 167.208868,24.6804902 170.470299,30.3566339" id="Fill-21" stroke="none" fill="#B4D4EC" fill-rule="evenodd"></path>
                    <path d="M99.7503248,195.018595 C99.928835,196.405668 88.6344429,187.026642 87.24737,176.88533 L82.3142149,175.136412 L72.3007545,101.787995 C71.2514037,94.0589836 77.2580326,87.2032249 85.0377025,87.2032249 L107.915963,87.2032249 L106.417924,92.3390132 L100.56327,92.3390132 C92.7836002,92.3390132 86.8010943,99.1947719 87.8528575,106.897248 L99.7503248,195.018595 Z" id="Fill-23" stroke="none" fill="#B4D4EC" fill-rule="evenodd"></path>
                    <path d="M186.430513,179.588736 C182.228468,186.927661 176.531375,191.263622 168.111415,195.080686 C161.925486,197.884985 159.792223,199.587492 154.354923,199.587492 L155.218527,200.180918 C155.372914,199.331789 155.500766,198.485071 155.604495,197.638353 C165.335716,194.992059 172.859683,186.75164 174.295001,176.325676 L186.491594,87.2032249 L187.135678,87.2032249 C194.912936,87.2032249 200.924389,94.0589836 199.870214,101.787995 L186.430513,179.588736 Z" id="Fill-25" stroke="none" fill="#FFFFFF" fill-rule="evenodd"></path>
                    <path d="M176.171048,51.2570489 L176.171048,87.2027424 C175.553499,87.1014258 174.914239,87.2027424 174.270155,87.2027424 L168.442036,87.2027424 L168.442036,48.5866319 C168.442036,40.2159483 166.208246,32.3590848 162.278608,25.5805197 C166.18171,27.8143102 169.72538,30.612579 172.75523,33.8498866 C174.964897,39.2148435 176.171048,45.0936205 176.171048,51.2570489" id="Fill-27" stroke="none" fill="#FFFFFF" fill-rule="evenodd"></path>
                    <path d="M181.306836,56.392596 L181.306836,87.2025012 L88.8722958,87.2025012 L88.8722958,56.392596 C88.8722958,30.870454 109.567424,10.1753258 135.089566,10.1753258 C154.448279,10.1753258 171.035259,22.0896792 177.891018,38.9830214 C180.100686,44.3503906 181.306836,50.2291675 181.306836,56.392596 Z" id="Stroke-29" stroke="#17317B" stroke-width="8" fill="none" stroke-linecap="round" stroke-linejoin="round"></path>
                    <path d="M158.196754,159.097989 L111.981896,159.097989 C104.889732,159.097989 99.1436312,153.349476 99.1436312,146.259725 L99.1436312,125.718984 C99.1436312,118.629232 104.889732,112.880719 111.981896,112.880719 L158.196754,112.880719 C165.286506,112.880719 171.035018,118.629232 171.035018,125.718984 L171.035018,146.259725 C171.035018,153.349476 165.286506,159.097989 158.196754,159.097989 Z" id="Stroke-31" stroke="#17317B" stroke-width="8" fill="none" stroke-linecap="round" stroke-linejoin="round"></path>
                    <path d="M187.137126,87.2034661 L135.091737,87.2034661 L83.0439359,87.2034661 C75.2618537,87.2034661 69.2552248,94.0592249 70.3069879,101.788236 L78.1011317,158.882571 C78.8947786,164.691391 80.8897513,170.273455 83.9606102,175.266917 L86.9373893,180.105993 C92.8571754,189.733485 102.395413,196.579595 113.41239,199.110098 C116.509784,199.821727 119.672311,200.178747 122.849311,200.178747 L135.091737,200.178747 L147.331751,200.178747 C150.506339,200.178747 153.67369,199.821727 156.768672,199.110098 C167.785649,196.579595 177.323886,189.733485 183.243672,180.105993 L186.218039,175.266917 C189.29131,170.273455 191.286283,164.691391 192.07993,158.882571 L199.871661,101.788236 C200.925837,94.0592249 194.919208,87.2034661 187.137126,87.2034661 Z" id="Stroke-33" stroke="#17317B" stroke-width="8" fill="none" stroke-linecap="round" stroke-linejoin="round"></path>
                    <path d="M84.0467293,0.000241230075 L105.118176,21.0741006" id="Stroke-35" stroke="#17317B" stroke-width="8" fill="none" stroke-linecap="round" stroke-linejoin="round"></path>
                    <path d="M185.959441,0.000241230075 L164.885581,21.0741006" id="Stroke-37" stroke="#17317B" stroke-width="8" fill="none" stroke-linecap="round" stroke-linejoin="round"></path>
                    <polyline id="Stroke-39" stroke="#17317B" stroke-width="8" fill="none" stroke-linecap="round" stroke-linejoin="round" points="114.2263 143.691107 129.915904 128.001503 145.64893 143.734528 156.024236 133.359223"></polyline>
                    <path d="M63.2712716,190.655708 C63.2712716,178.898154 53.7426836,169.367153 41.9851297,169.367153 C30.2275758,169.367153 20.6989879,178.898154 20.6989879,190.655708" id="Stroke-41" stroke="#17317B" stroke-width="8" fill="none" stroke-linecap="round" stroke-linejoin="round"></path>
                    <path d="M72.7955174,92.3390132 C49.9027832,92.3390132 31.3425412,110.896843 31.3425412,133.791989" id="Stroke-43" stroke="#17317B" stroke-width="8" fill="none" stroke-linejoin="round"></path>
                    <path d="M52.0695118,133.791024 C52.0695118,122.344657 61.3496328,113.064536 72.7959999,113.064536" id="Stroke-45" stroke="#17317B" stroke-width="8" fill="none" stroke-linejoin="round"></path>
                    <path d="M52,133.791024 L52,171.893315" id="Stroke-47" stroke="#17317B" stroke-width="8" fill="none" stroke-linejoin="round"></path>
                    <path d="M31,133.791024 L31,171.893315" id="Stroke-49" stroke="#17317B" stroke-width="8" fill="none" stroke-linejoin="round"></path>
                    <path d="M48.721962,100.563029 L60.9475022,116.785751" id="Stroke-51" stroke="#17317B" stroke-width="8" fill="none" stroke-linejoin="round"></path>
                    <path d="M53.8365221,125.408038 L35.0929452,116.54042" id="Stroke-53" stroke="#17317B" stroke-width="8" fill="none" stroke-linejoin="round"></path>
                    <path d="M31.3435062,137 L52.0555204,137" id="Stroke-55" stroke="#17317B" stroke-width="8" fill="none" stroke-linejoin="round"></path>
                    <path d="M31.3435062,153 L52.0555204,153" id="Stroke-57" stroke="#17317B" stroke-width="8" fill="none" stroke-linejoin="round"></path>
                    <path d="M207.057664,190.655708 C207.057664,178.898154 216.588664,169.367153 228.343806,169.367153 C240.10136,169.367153 249.63236,178.898154 249.63236,190.655708" id="Stroke-59" stroke="#17317B" stroke-width="8" fill="none" stroke-linecap="round" stroke-linejoin="round"></path>
                    <path d="M197.533177,92.3390132 C220.425911,92.3390132 238.986153,110.896843 238.986153,133.791989" id="Stroke-61" stroke="#17317B" stroke-width="8" fill="none" stroke-linejoin="round"></path>
                    <path d="M218.259183,133.791024 C218.259183,122.344657 208.979062,113.064536 197.532695,113.064536" id="Stroke-63" stroke="#17317B" stroke-width="8" fill="none" stroke-linejoin="round"></path>
                    <path d="M218,133.791024 L218,171.893315" id="Stroke-65" stroke="#17317B" stroke-width="8" fill="none" stroke-linejoin="round"></path>
                    <path d="M238,133.791024 L238,171.893315" id="Stroke-67" stroke="#17317B" stroke-width="8" fill="none" stroke-linejoin="round"></path>
                    <path d="M221.609145,100.563029 L209.383605,116.785751" id="Stroke-69" stroke="#17317B" stroke-width="8" fill="none" stroke-linejoin="round"></path>
                    <path d="M216.494826,125.408038 L235.238403,116.54042" id="Stroke-71" stroke="#17317B" stroke-width="8" fill="none" stroke-linejoin="round"></path>
                    <path d="M238.985188,137 L218.275586,137" id="Stroke-73" stroke="#17317B" stroke-width="8" fill="none" stroke-linejoin="round"></path>
                    <path d="M238.985188,153 L218.275586,153" id="Stroke-75" stroke="#17317B" stroke-width="8" fill="none" stroke-linejoin="round"></path>
                    <path d="M150.495725,61.528143 L119.683407,61.528143 C114.012088,61.528143 109.414243,56.9302978 109.414243,51.2565664 C109.414243,45.5852473 114.012088,40.9874021 119.683407,40.9874021 L150.495725,40.9874021 C156.167044,40.9874021 160.764889,45.5852473 160.764889,51.2565664 C160.764889,56.9302978 156.167044,61.528143 150.495725,61.528143 Z" id="Stroke-77" stroke="#17317B" stroke-width="8" fill="none" stroke-linecap="round" stroke-linejoin="round"></path>
                    <path d="M241.230317,18.1395368 C238.567137,18.1395368 236.405715,20.3009582 236.405715,22.9641383 C236.405715,25.6297306 238.567137,27.7887398 241.230317,27.7887398 C243.893497,27.7887398 246.054918,25.6297306 246.054918,22.9641383 C246.054918,20.3009582 243.893497,18.1395368 241.230317,18.1395368" id="Fill-79" stroke="none" fill="#47E3FF" fill-rule="evenodd"></path>
                    <g id="Group-83" stroke="none" stroke-width="1" fill="none" fill-rule="evenodd" transform="translate(250.879278, 100.158727)">
                        <mask id="mask-7" fill="white">
                            <use xlink:href="#path-6"></use>
                        </mask>
                        <g id="Clip-82"></g>
                        <path d="M4.82484274,0.000241230075 C2.16166271,0.000241230075 0.000241230075,2.16166271 0.000241230075,4.82484274 C0.000241230075,7.48802277 2.16166271,9.64944425 4.82484274,9.64944425 C7.48802277,9.64944425 9.64944425,7.48802277 9.64944425,4.82484274 C9.64944425,2.16166271 7.48802277,0.000241230075 4.82484274,0.000241230075" id="Fill-81" fill="#47E3FF" mask="url(#mask-7)"></path>
                    </g>
                    <path d="M4.82484274,109.806965 C2.16166271,109.806965 0.000241230075,111.968387 0.000241230075,114.631567 C0.000241230075,117.297159 2.16166271,119.456168 4.82484274,119.456168 C7.48802277,119.456168 9.64944425,117.297159 9.64944425,114.631567 C9.64944425,111.968387 7.48802277,109.806965 4.82484274,109.806965" id="Fill-84" stroke="none" fill="#47E3FF" fill-rule="evenodd"></path>
                    <path d="M24.1232488,3.66693838 C21.4600687,3.66693838 19.2986473,5.82835985 19.2986473,8.49153988 C19.2986473,11.1547199 21.4600687,13.3161414 24.1232488,13.3161414 C26.7864288,13.3161414 28.9478503,11.1547199 28.9478503,8.49153988 C28.9478503,5.82835985 26.7864288,3.66693838 24.1232488,3.66693838" id="Fill-86" stroke="none" fill="#47E3FF" fill-rule="evenodd"></path>
                    <g id="Group-90" stroke="none" stroke-width="1" fill="none" fill-rule="evenodd" transform="translate(82.018226, 230.422968)">
                        <mask id="mask-9" fill="white">
                            <use xlink:href="#path-8"></use>
                        </mask>
                        <g id="Clip-89"></g>
                        <path d="M4.82484274,0.000482460151 C2.16166271,0.000482460151 0.000241230075,2.16190394 0.000241230075,4.82508397 C0.000241230075,7.488264 2.16166271,9.64968548 4.82484274,9.64968548 C7.48802277,9.64968548 9.64944425,7.488264 9.64944425,4.82508397 C9.64944425,2.16190394 7.48802277,0.000482460151 4.82484274,0.000482460151" id="Fill-88" fill="#47E3FF" mask="url(#mask-9)"></path>
                    </g>
                    <path d="M214.695008,44.6760512 C213.652894,44.6760512 212.73622,45.3370216 212.408147,46.3260649 L210.977653,50.6078987 L206.695819,52.0359808 C205.706776,52.366466 205.045805,53.2831403 205.045805,54.3252542 C205.045805,55.3673681 205.706776,56.2840424 206.695819,56.6145276 L210.980065,58.0426097 L212.408147,62.3244435 C212.73622,63.3134868 213.652894,63.9744572 214.695008,63.9744572 C215.737122,63.9744572 216.653797,63.3134868 216.984282,62.3244435 L218.409952,58.0426097 L222.691785,56.6145276 C223.683241,56.2840424 224.344211,55.3673681 224.344211,54.3252542 C224.344211,53.2831403 223.683241,52.366466 222.691785,52.0359808 L218.409952,50.6078987 L216.984282,46.3260649 C216.653797,45.3370216 215.737122,44.6760512 214.695008,44.6760512" id="Fill-91" stroke="none" fill="#9AE0E6" fill-rule="evenodd"></path>
                    <path d="M48.2462563,35.0268482 C47.2041424,35.0268482 46.2874681,35.6878186 45.9569829,36.6768619 L43.928238,42.7679213 L37.8347663,44.7990785 C36.8433106,45.1295637 36.1847525,46.046238 36.1847525,47.0883519 C36.1847525,48.1304659 36.8433106,49.0471402 37.8347663,49.3752131 L43.9258257,51.4063703 L45.9569829,57.499842 C46.2874681,58.4888853 47.2041424,59.1498557 48.2462563,59.1498557 C49.2883702,59.1498557 50.2050445,58.4888853 50.5331174,57.499842 L52.5642747,51.4087826 L58.6577464,49.3752131 C59.6467897,49.0471402 60.3077601,48.1304659 60.3077601,47.0883519 C60.3077601,46.046238 59.6467897,45.1295637 58.6577464,44.7990785 L52.5642747,42.7679213 L50.5331174,36.6768619 C50.2050445,35.6878186 49.2883702,35.0268482 48.2462563,35.0268482" id="Fill-93" stroke="none" fill="#9AE0E6" fill-rule="evenodd"></path>
                    <path d="M41.009354,208.712502 C39.9672401,208.712502 39.0505658,209.373473 38.7224929,210.362516 L37.2919986,214.64435 L33.0101647,216.072432 C32.0187091,216.402917 31.360151,217.319592 31.360151,218.361705 C31.360151,219.403819 32.0187091,220.320494 33.0101647,220.648567 L37.2919986,222.079061 L38.7224929,226.360895 C39.0505658,227.349938 39.9672401,228.010909 41.009354,228.010909 C42.051468,228.010909 42.9681423,227.349938 43.2962152,226.360895 L44.7267095,222.079061 L49.0085433,220.648567 C49.9975867,220.320494 50.6585571,219.403819 50.6585571,218.361705 C50.6585571,217.319592 49.9975867,216.402917 49.0085433,216.072432 L44.7267095,214.64435 L43.2962152,210.362516 C42.9681423,209.373473 42.051468,208.712502 41.009354,208.712502" id="Fill-95" stroke="none" fill="#9AE0E6" fill-rule="evenodd"></path>
                    <path d="M221.931911,199.063299 C220.887384,199.063299 219.973122,199.721858 219.642637,200.713313 L217.613892,206.804373 L211.520421,208.83553 C210.531377,209.163603 209.870407,210.082689 209.870407,211.124803 C209.870407,212.166917 210.531377,213.083591 211.520421,213.414077 L217.61148,215.445234 L219.642637,221.536293 C219.973122,222.525337 220.887384,223.186307 221.931911,223.186307 C222.974025,223.186307 223.890699,222.525337 224.218772,221.536293 L226.249929,215.445234 L232.343401,213.414077 C233.332444,213.083591 233.993414,212.166917 233.993414,211.124803 C233.993414,210.082689 233.332444,209.163603 232.343401,208.83553 L226.249929,206.804373 L224.218772,200.713313 C223.890699,199.721858 222.974025,199.063299 221.931911,199.063299" id="Fill-97" stroke="none" fill="#9AE0E6" fill-rule="evenodd"></path>
                </g>
            </g>
        </g>
    </g>
</svg>