<?xml version="1.0" encoding="UTF-8"?>
<svg width="2560px" height="210px" viewBox="0 0 2560 210" preserveAspectRatio="none" version="1.1" xmlns="http://www.w3.org/2000/svg" xmlns:xlink="http://www.w3.org/1999/xlink">
    <!-- Generator: Sketch 44 (41411) - http://www.bohemiancoding.com/sketch -->
    <title>Group</title>
    <desc>Created with Sketch.</desc>
    <defs>
        <rect id="path-1" x="0" y="0" width="2560" height="210"></rect>
    </defs>
    <g id="Page" stroke="none" stroke-width="1" fill="none" fill-rule="evenodd">
        <g id="Group">
            <mask id="mask-2" fill="white">
                <use xlink:href="#path-1"></use>
            </mask>
            <g id="Mask"></g>
            <g mask="url(#mask-2)" id="Shape">
                <g transform="translate(-339.000000, 0.000000)">
                    <path d="M2448.03294,99 C2297.1686,179.499 2162.2285,167 2000.62181,171 C1839.01511,175 1536.75073,157 1402.07848,179 C1267.40623,201 547.667147,190 411.498539,197 C275.329932,204 2.27373675e-13,205 2.27373675e-13,205 L689.811914,213 C689.811914,213 320.220681,206 439.929347,212 C559.638013,218 1309.29827,255 1440.98379,256 C1572.66931,257 2087.59614,231.601 2199.63746,255 C2462.99653,310 2520.39384,315.087 2636.57409,317 C2762.19637,319.069 2838.36699,310.733 2898.4368,308 C2904.59581,307.72 2905.91859,2.84217094e-14 2905.91859,2.84217094e-14 C2905.91859,2.84217094e-14 2633.56941,2.84217094e-14 2448.03294,99 Z" fill="#4DA1FF"></path>
                    <path d="M331.001926,211.212339 C334.757336,210.7108 955.718102,210.04871 1026.26337,211.051787 C1096.80864,212.054865 1235.64773,222.085639 1324.95504,262.208733 C1414.26235,302.331828 1602.63323,292.301054 1701.6968,292.301054 C1800.76037,292.301054 1924.08401,291.135479 2049.92026,293.304132 C2195.52269,295.813831 2311.70024,364.460434 2498.70824,360.510316 C2718.79447,355.862055 2888.95867,390.602637 2888.95867,390.602637 C2888.95867,390.602637 2918.97793,231.448363 2918.97793,221.082561 C2918.97793,208.042555 2921.25039,170.42916 2869.44615,159.894841 C2817.64191,149.360523 2709.61158,137.327607 2644.30167,143.845604 C2578.99176,150.3636 2458.99126,177.450702 2305.084,177.950234 C2151.17673,178.449767 1168.85487,195.002549 1168.85487,195.002549 L756.09,199.014859 L328,200.178488 C301.888491,200.178488 341.2896,211.713877 345.04501,211.212339 L331.001926,211.212339 Z" fill="#CE6EE8"></path>
                </g>
            </g>
        </g>
    </g>
</svg>
