<?xml version="1.0" encoding="UTF-8"?>
<svg width="2560px" height="343px" viewBox="0 0 2560 343" preserveAspectRatio="none" version="1.1" xmlns="http://www.w3.org/2000/svg" xmlns:xlink="http://www.w3.org/1999/xlink">
    <!-- Generator: Sketch 44 (41411) - http://www.bohemiancoding.com/sketch -->
    <title>bottom</title>
    <desc>Created with Sketch.</desc>
    <defs>
        <linearGradient x1="50%" y1="91.2281817%" x2="50%" y2="12.6591734%" id="linearGradient-1">
            <stop stop-color="#FFFFFF" offset="0%"></stop>
            <stop stop-color="#FFFFFF" stop-opacity="0" offset="100%"></stop>
        </linearGradient>
    </defs>
    <g id="Page" stroke="none" stroke-width="1" fill="none" fill-rule="evenodd">
        <g id="section" transform="translate(0.000000, -517.000000)">
            <g id="about_section_2_bg">
                <g id="bottom" transform="translate(0.000000, 517.000000)">
                    <path d="M0,128.825581 C0,128.825581 223.554501,99.9302326 670.619243,157.72093 C1117.68399,215.511628 1417.50121,260.27907 1791.82923,191.906977 C2166.15725,123.534884 2560,0 2560,0 L2560,343 L0,343 L0,128.825581 Z" id="Path-2" fill="#CE6EE8" style="mix-blend-mode: hard-light;"></path>
                    <path d="M2559.97782,263.974136 C2559.97782,263.974136 2339.53529,95.4906096 1982.20505,156.190872 C1624.87481,216.891134 1068.43519,176.630756 695.10509,165.481728 C321.77499,154.3327 0,289.988534 0,289.988534 L0,343 L2559.97782,343 L2559.97782,263.974136 Z" id="Path-2" fill="#4CA6FF" style="mix-blend-mode: hard-light;"></path>
                    <path d="M0,102 C0,102 206.220436,191.383452 659.549842,189.815529 C1112.87925,188.247605 1567.98642,343.472038 1944.87204,264.291898 C2321.75767,185.111758 2559.97782,171.772599 2559.97782,171.772599 L2559.97782,343 L0,343 L0,102 Z" id="Path-2" fill="url(#linearGradient-1)" transform="translate(1279.988912, 222.500000) scale(-1, 1) translate(-1279.988912, -222.500000) "></path>
                </g>
            </g>
        </g>
    </g>
</svg>
