<?xml version="1.0" encoding="UTF-8"?>
<svg width="2560px" height="335px" viewBox="0 0 2560 335" version="1.1" xmlns="http://www.w3.org/2000/svg" xmlns:xlink="http://www.w3.org/1999/xlink">
    <!-- Generator: Sketch 44.1 (41455) - http://www.bohemiancoding.com/sketch -->
    <title>line-chart</title>
    <desc>Created with Sketch.</desc>
    <defs>
        <rect id="path-1" x="0" y="0" width="2560" height="353"></rect>
        <linearGradient x1="49.0074933%" y1="-121.051739%" x2="49.0074933%" y2="100%" id="linearGradient-3">
            <stop stop-color="#4DE1FF" offset="0%"></stop>
            <stop stop-color="#4697FF" offset="100%"></stop>
        </linearGradient>
        <path d="M330,210 C410,209 408.464765,117.85906 480.42953,117.85906 C542.050443,117.85906 565.694053,155.228188 627.328859,155.228188 C688.963665,155.228188 699.361922,23.7919463 772.295302,23.7919463 C845.228682,23.7919463 844.207317,108.194631 915.973154,108.194631 C987.738992,108.194631 989.01573,65.0268456 1062.22819,65.0268456 C1135.44065,65.0268456 1140.58696,114.723304 1209.77181,115.281879 C1278.95666,115.840454 1272.27751,167.746616 1356.02685,166.181208 C1439.77618,164.6158 1427.39653,29.8589955 1500.99329,28.9463087 C1574.59004,28.033622 1575.73154,72.114094 1645.95973,72.114094 C1716.18792,72.114094 1713.09228,0.0824309753 1794.14765,0.597315436 C1875.20302,1.1121999 1865.27143,72.114094 1939.11409,72.114094 C2012.95675,72.114094 2011.61959,154.987245 2084.08054,157.161074 C2156.54148,159.334902 2161.44566,133 2228,133 C2294.55434,133 2309.49112,187 2367,187 C2424.50888,187 2459.77577,127 2523,127 C2560.35732,127 2560,138 2560,138 L2560,322 L6.05845175e-28,322 L6.05845175e-28,278.973604 C6.05845175e-28,278.973604 15.5043453,256 36,256 C106.731795,256 118.19597,181 182,181 C245.80403,181 250,211 330,210 Z" id="path-4"></path>
        <filter x="-0.6%" y="-4.7%" width="101.2%" height="109.3%" filterUnits="objectBoundingBox" id="filter-6">
            <feOffset dx="0" dy="0" in="SourceAlpha" result="shadowOffsetOuter1"></feOffset>
            <feGaussianBlur stdDeviation="5" in="shadowOffsetOuter1" result="shadowBlurOuter1"></feGaussianBlur>
            <feColorMatrix values="0 0 0 0 0   0 0 0 0 0   0 0 0 0 0.278431373  0 0 0 0.1 0" type="matrix" in="shadowBlurOuter1"></feColorMatrix>
        </filter>
        <path d="M622.801421,171.919463 C618.383143,171.919463 614.801421,168.337741 614.801421,163.919463 C614.801421,159.501185 618.383143,155.919463 622.801421,155.919463 C627.219699,155.919463 630.801421,159.501185 630.801421,163.919463 C630.801421,168.337741 627.219699,171.919463 622.801421,171.919463 Z M329.977892,225 C325.559614,225 321.977892,221.418278 321.977892,217 C321.977892,212.581722 325.559614,209 329.977892,209 C334.39617,209 337.977892,212.581722 337.977892,217 C337.977892,221.418278 334.39617,225 329.977892,225 Z M37.1543624,271 C32.7360844,271 29.1543624,267.418278 29.1543624,263 C29.1543624,258.581722 32.7360844,255 37.1543624,255 C41.5726404,255 45.1543624,258.581722 45.1543624,263 C45.1543624,267.418278 41.5726404,271 37.1543624,271 Z M183.566127,198 C179.147849,198 175.566127,194.418278 175.566127,190 C175.566127,185.581722 179.147849,182 183.566127,182 C187.984405,182 191.566127,185.581722 191.566127,190 C191.566127,194.418278 187.984405,198 183.566127,198 Z M915.624951,124.241611 C911.206673,124.241611 907.624951,120.659889 907.624951,116.241611 C907.624951,111.823333 911.206673,108.241611 915.624951,108.241611 C920.043229,108.241611 923.624951,111.823333 923.624951,116.241611 C923.624951,120.659889 920.043229,124.241611 915.624951,124.241611 Z M1208.44848,130.684564 C1204.0302,130.684564 1200.44848,127.102842 1200.44848,122.684564 C1200.44848,118.266286 1204.0302,114.684564 1208.44848,114.684564 C1212.86676,114.684564 1216.44848,118.266286 1216.44848,122.684564 C1216.44848,127.102842 1212.86676,130.684564 1208.44848,130.684564 Z M1501.27201,45.6375839 C1496.85373,45.6375839 1493.27201,42.0558619 1493.27201,37.6375839 C1493.27201,33.2193059 1496.85373,29.6375839 1501.27201,29.6375839 C1505.69029,29.6375839 1509.27201,33.2193059 1509.27201,37.6375839 C1509.27201,42.0558619 1505.69029,45.6375839 1501.27201,45.6375839 Z M1794.09554,16 C1789.67726,16 1786.09554,12.418278 1786.09554,8 C1786.09554,3.581722 1789.67726,0 1794.09554,0 C1798.51382,0 1802.09554,3.581722 1802.09554,8 C1802.09554,12.418278 1798.51382,16 1794.09554,16 Z M2086.91907,173.208054 C2082.50079,173.208054 2078.91907,169.626332 2078.91907,165.208054 C2078.91907,160.789776 2082.50079,157.208054 2086.91907,157.208054 C2091.33735,157.208054 2094.91907,160.789776 2094.91907,165.208054 C2094.91907,169.626332 2091.33735,173.208054 2086.91907,173.208054 Z M769.213186,40.4832215 C764.794908,40.4832215 761.213186,36.9014995 761.213186,32.4832215 C761.213186,28.0649435 764.794908,24.4832215 769.213186,24.4832215 C773.631464,24.4832215 777.213186,28.0649435 777.213186,32.4832215 C777.213186,36.9014995 773.631464,40.4832215 769.213186,40.4832215 Z M476.389657,137.127517 C471.971379,137.127517 468.389657,133.545795 468.389657,129.127517 C468.389657,124.709239 471.971379,121.127517 476.389657,121.127517 C480.807935,121.127517 484.389657,124.709239 484.389657,129.127517 C484.389657,133.545795 480.807935,137.127517 476.389657,137.127517 Z M1062.03672,81.7181208 C1057.61844,81.7181208 1054.03672,78.1363988 1054.03672,73.7181208 C1054.03672,69.2998428 1057.61844,65.7181208 1062.03672,65.7181208 C1066.45499,65.7181208 1070.03672,69.2998428 1070.03672,73.7181208 C1070.03672,78.1363988 1066.45499,81.7181208 1062.03672,81.7181208 Z M1354.86024,182.228188 C1350.44197,182.228188 1346.86024,178.646466 1346.86024,174.228188 C1346.86024,169.80991 1350.44197,166.228188 1354.86024,166.228188 C1359.27852,166.228188 1362.86024,169.80991 1362.86024,174.228188 C1362.86024,178.646466 1359.27852,182.228188 1354.86024,182.228188 Z M1647.68377,88.1610738 C1643.2655,88.1610738 1639.68377,84.5793518 1639.68377,80.1610738 C1639.68377,75.7427958 1643.2655,72.1610738 1647.68377,72.1610738 C1652.10205,72.1610738 1655.68377,75.7427958 1655.68377,80.1610738 C1655.68377,84.5793518 1652.10205,88.1610738 1647.68377,88.1610738 Z M1940.5073,88.1610738 C1936.08903,88.1610738 1932.5073,84.5793518 1932.5073,80.1610738 C1932.5073,75.7427958 1936.08903,72.1610738 1940.5073,72.1610738 C1944.92558,72.1610738 1948.5073,75.7427958 1948.5073,80.1610738 C1948.5073,84.5793518 1944.92558,88.1610738 1940.5073,88.1610738 Z M2233.33083,149 C2228.91256,149 2225.33083,145.418278 2225.33083,141 C2225.33083,136.581722 2228.91256,133 2233.33083,133 C2237.74911,133 2241.33083,136.581722 2241.33083,141 C2241.33083,145.418278 2237.74911,149 2233.33083,149 Z M2379.7426,206 C2375.32432,206 2371.7426,202.418278 2371.7426,198 C2371.7426,193.581722 2375.32432,190 2379.7426,190 C2384.16088,190 2387.7426,193.581722 2387.7426,198 C2387.7426,202.418278 2384.16088,206 2379.7426,206 Z M2526.15436,149 C2521.73608,149 2518.15436,145.418278 2518.15436,141 C2518.15436,136.581722 2521.73608,133 2526.15436,133 C2530.57264,133 2534.15436,136.581722 2534.15436,141 C2534.15436,145.418278 2530.57264,149 2526.15436,149 Z" id="path-7"></path>
    </defs>
    <g id="______Slice" stroke="none" stroke-width="1" fill="none" fill-rule="evenodd">
        <g id="home" transform="translate(0.000000, -1385.000000)">
            <g id="block" transform="translate(0.000000, 860.000000)">
                <g id="line-chart" transform="translate(0.000000, 507.000000)">
                    <mask id="mask-2" fill="white">
                        <use xlink:href="#path-1"></use>
                    </mask>
                    <g id="mask"></g>
                    <path d="M1280,53 C1986.92448,53 2560,187.097238 2560,352.514563 C2560,352.622458 1706.66718,352.78427 0.00152725704,353 C0,187.097238 573.07552,53 1280,53 Z" id="waveform" fill="#17317B" opacity="0.100000001" mask="url(#mask-2)"></path>
                    <g id="graph" mask="url(#mask-2)">
                        <g transform="translate(0.000000, 22.000000)">
                            <g id="waveform" stroke-width="1" fill-rule="evenodd" transform="translate(0.000000, 9.000000)">
                                <mask id="mask-5" fill="white">
                                    <use xlink:href="#path-4"></use>
                                </mask>
                                <g id="Rectangle-2">
                                    <use fill="black" fill-opacity="1" filter="url(#filter-6)" xlink:href="#path-4"></use>
                                    <use fill="url(#linearGradient-3)" fill-rule="evenodd" xlink:href="#path-4"></use>
                                </g>
                            </g>
                            <g id="dot">
                                <use fill="#47AAFF" fill-rule="evenodd" xlink:href="#path-7"></use>
                                <path stroke="#FFFFFF" stroke-width="4" d="M622.801421,173.919463 C617.278574,173.919463 612.801421,169.442311 612.801421,163.919463 C612.801421,158.396616 617.278574,153.919463 622.801421,153.919463 C628.324269,153.919463 632.801421,158.396616 632.801421,163.919463 C632.801421,169.442311 628.324269,173.919463 622.801421,173.919463 Z M329.977892,227 C324.455044,227 319.977892,222.522847 319.977892,217 C319.977892,211.477153 324.455044,207 329.977892,207 C335.500739,207 339.977892,211.477153 339.977892,217 C339.977892,222.522847 335.500739,227 329.977892,227 Z M37.1543624,273 C31.6315149,273 27.1543624,268.522847 27.1543624,263 C27.1543624,257.477153 31.6315149,253 37.1543624,253 C42.6772099,253 47.1543624,257.477153 47.1543624,263 C47.1543624,268.522847 42.6772099,273 37.1543624,273 Z M183.566127,200 C178.04328,200 173.566127,195.522847 173.566127,190 C173.566127,184.477153 178.04328,180 183.566127,180 C189.088975,180 193.566127,184.477153 193.566127,190 C193.566127,195.522847 189.088975,200 183.566127,200 Z M915.624951,126.241611 C910.102103,126.241611 905.624951,121.764458 905.624951,116.241611 C905.624951,110.718763 910.102103,106.241611 915.624951,106.241611 C921.147798,106.241611 925.624951,110.718763 925.624951,116.241611 C925.624951,121.764458 921.147798,126.241611 915.624951,126.241611 Z M1208.44848,132.684564 C1202.92563,132.684564 1198.44848,128.207411 1198.44848,122.684564 C1198.44848,117.161716 1202.92563,112.684564 1208.44848,112.684564 C1213.97133,112.684564 1218.44848,117.161716 1218.44848,122.684564 C1218.44848,128.207411 1213.97133,132.684564 1208.44848,132.684564 Z M1501.27201,47.6375839 C1495.74916,47.6375839 1491.27201,43.1604314 1491.27201,37.6375839 C1491.27201,32.1147364 1495.74916,27.6375839 1501.27201,27.6375839 C1506.79486,27.6375839 1511.27201,32.1147364 1511.27201,37.6375839 C1511.27201,43.1604314 1506.79486,47.6375839 1501.27201,47.6375839 Z M1794.09554,18 C1788.57269,18 1784.09554,13.5228475 1784.09554,8 C1784.09554,2.4771525 1788.57269,-2 1794.09554,-2 C1799.61839,-2 1804.09554,2.4771525 1804.09554,8 C1804.09554,13.5228475 1799.61839,18 1794.09554,18 Z M2086.91907,175.208054 C2081.39622,175.208054 2076.91907,170.730901 2076.91907,165.208054 C2076.91907,159.685206 2081.39622,155.208054 2086.91907,155.208054 C2092.44192,155.208054 2096.91907,159.685206 2096.91907,165.208054 C2096.91907,170.730901 2092.44192,175.208054 2086.91907,175.208054 Z M769.213186,42.4832215 C763.690338,42.4832215 759.213186,38.006069 759.213186,32.4832215 C759.213186,26.960374 763.690338,22.4832215 769.213186,22.4832215 C774.736033,22.4832215 779.213186,26.960374 779.213186,32.4832215 C779.213186,38.006069 774.736033,42.4832215 769.213186,42.4832215 Z M476.389657,139.127517 C470.866809,139.127517 466.389657,134.650364 466.389657,129.127517 C466.389657,123.604669 470.866809,119.127517 476.389657,119.127517 C481.912504,119.127517 486.389657,123.604669 486.389657,129.127517 C486.389657,134.650364 481.912504,139.127517 476.389657,139.127517 Z M1062.03672,83.7181208 C1056.51387,83.7181208 1052.03672,79.2409683 1052.03672,73.7181208 C1052.03672,68.1952733 1056.51387,63.7181208 1062.03672,63.7181208 C1067.55956,63.7181208 1072.03672,68.1952733 1072.03672,73.7181208 C1072.03672,79.2409683 1067.55956,83.7181208 1062.03672,83.7181208 Z M1354.86024,184.228188 C1349.3374,184.228188 1344.86024,179.751035 1344.86024,174.228188 C1344.86024,168.70534 1349.3374,164.228188 1354.86024,164.228188 C1360.38309,164.228188 1364.86024,168.70534 1364.86024,174.228188 C1364.86024,179.751035 1360.38309,184.228188 1354.86024,184.228188 Z M1647.68377,90.1610738 C1642.16093,90.1610738 1637.68377,85.6839213 1637.68377,80.1610738 C1637.68377,74.6382263 1642.16093,70.1610738 1647.68377,70.1610738 C1653.20662,70.1610738 1657.68377,74.6382263 1657.68377,80.1610738 C1657.68377,85.6839213 1653.20662,90.1610738 1647.68377,90.1610738 Z M1940.5073,90.1610738 C1934.98446,90.1610738 1930.5073,85.6839213 1930.5073,80.1610738 C1930.5073,74.6382263 1934.98446,70.1610738 1940.5073,70.1610738 C1946.03015,70.1610738 1950.5073,74.6382263 1950.5073,80.1610738 C1950.5073,85.6839213 1946.03015,90.1610738 1940.5073,90.1610738 Z M2233.33083,151 C2227.80799,151 2223.33083,146.522847 2223.33083,141 C2223.33083,135.477153 2227.80799,131 2233.33083,131 C2238.85368,131 2243.33083,135.477153 2243.33083,141 C2243.33083,146.522847 2238.85368,151 2233.33083,151 Z M2379.7426,208 C2374.21975,208 2369.7426,203.522847 2369.7426,198 C2369.7426,192.477153 2374.21975,188 2379.7426,188 C2385.26545,188 2389.7426,192.477153 2389.7426,198 C2389.7426,203.522847 2385.26545,208 2379.7426,208 Z M2526.15436,151 C2520.63151,151 2516.15436,146.522847 2516.15436,141 C2516.15436,135.477153 2520.63151,131 2526.15436,131 C2531.67721,131 2536.15436,135.477153 2536.15436,141 C2536.15436,146.522847 2531.67721,151 2526.15436,151 Z"></path>
                            </g>
                        </g>
                    </g>
                </g>
            </g>
        </g>
    </g>
</svg>