<?xml version="1.0" encoding="UTF-8"?>
<svg width="2560px" height="473px" viewBox="0 0 2560 473" preserveAspectRatio="none" version="1.1" xmlns="http://www.w3.org/2000/svg" xmlns:xlink="http://www.w3.org/1999/xlink">
    <!-- Generator: Sketch 44.1 (41455) - http://www.bohemiancoding.com/sketch -->
    <title>bg--about-wave</title>
    <desc>Created with Sketch.</desc>
    <defs>
        <rect id="path-1" x="0" y="0" width="2560" height="473"></rect>
    </defs>
    <g id="______Slice" stroke="none" stroke-width="1" fill="none" fill-rule="evenodd">
        <g id="about">
            <g id="section">
                <g id="about-hero">
                    <g id="about-wave">
                        <mask id="mask-2" fill="white">
                            <use xlink:href="#path-1"></use>
                        </mask>
                        <g id="amazing"></g>
                        <path d="M2560,310 C2560,310 2348.86396,195 1896.47702,197 C1444.09008,199 989.929073,1 613.826988,102 C237.724903,203 0,220.015063 0,220.015063 L0,6.82121026e-13 L2560,6.82121026e-13 L2560,310 Z" id="waveform-1" fill="#FF566D" mask="url(#mask-2)"></path>
                        <path d="M2560,317 C2410.96367,338.333333 2187.42392,325.333333 1889.38076,278 C1442.31601,207 1142.49879,152 768.170768,236 C393.842749,320 0,473 0,473 L0,1.70530257e-13 L2560,-5.68434189e-14 L2560,317 Z" id="waveform-2" fill="#47AAFF" style="mix-blend-mode: hard-light;" mask="url(#mask-2)"></path>
                    </g>
                </g>
            </g>
        </g>
    </g>
</svg>
