<?xml version="1.0" encoding="UTF-8"?>
<svg width="360px" height="360px" viewBox="0 0 360 360" version="1.1" xmlns="http://www.w3.org/2000/svg" xmlns:xlink="http://www.w3.org/1999/xlink">
    <!-- Generator: Sketch 44 (41411) - http://www.bohemiancoding.com/sketch -->
    <title>about-culture-03</title>
    <desc>Created with Sketch.</desc>
    <defs></defs>
    <g id="Assets" stroke="none" stroke-width="1" fill="none" fill-rule="evenodd">
        <g id="Galaxy" transform="translate(1.000000, 19.000000)">
            <g id="Page-1">
                <g id="Group-50">
                    <path d="M205.644964,169.407936 C199.461327,179.356467 185.78336,183.487937 175.093658,178.640385 C164.403955,173.789887 160.74703,161.793301 166.930666,151.841823 C173.114302,141.893291 186.792269,137.761821 197.481972,142.61232 C208.171674,147.462818 211.825641,159.456457 205.644964,169.407936" id="Fill-2" fill="#FFDCA1"></path>
                    <path d="M205.644964,169.407936 L200.612253,166.30786 C199.002732,168.901079 196.638749,171.022804 193.836881,172.502118 C191.040931,173.978484 187.827807,174.780025 184.691608,174.777078 C182.197443,174.777078 179.759493,174.279062 177.546402,173.27419 C174.930931,172.086613 173.046253,170.403967 171.771063,168.47084 C170.50179,166.534767 169.842005,164.339371 169.839046,162.023155 C169.844964,159.742301 170.478121,157.340626 171.963377,154.947792 C173.572898,152.351626 175.933922,150.226954 178.73579,148.750587 C181.534699,147.274221 184.747823,146.469733 187.884021,146.47268 C190.378187,146.47268 192.813179,146.967749 195.029228,147.972622 C197.64174,149.163145 199.529377,150.845791 200.801608,152.778918 C202.07384,154.714992 202.730666,156.910387 202.733625,159.226604 C202.730666,161.504511 202.097509,163.909132 200.612253,166.30786 L205.644964,169.407936 L210.677674,172.508011 C213.266517,168.344126 214.571294,163.741162 214.568336,159.226604 C214.571294,154.638374 213.228055,150.153283 210.704302,146.322391 C208.186468,142.482659 204.488121,139.308912 199.934716,137.249071 C196.073641,135.495701 191.949245,134.68532 187.884021,134.68532 C182.759592,134.688267 177.709129,135.958355 173.200104,138.330561 C168.696997,140.705714 164.714617,144.215401 161.897955,148.741747 C159.306154,152.905632 158.001377,157.508596 158.004336,162.023155 C158.001377,166.611384 159.347575,171.096475 161.871327,174.930314 C164.389162,178.767099 168.087509,181.940846 172.640914,184.003634 C176.501988,185.754057 180.626385,186.564438 184.691608,186.564438 C189.816038,186.561491 194.866501,185.291403 199.372567,182.919197 C203.878633,180.544044 207.861013,177.037304 210.677674,172.510958 L205.644964,169.407936" id="Fill-4" fill="#2D3666"></path>
                    <path d="M186.916534,152.730295 C183.661988,152.730295 180.407443,154.362844 178.664782,157.168236 C176.22979,161.084586 177.667707,165.811317 181.877906,167.72087 C183.07617,168.263088 184.366154,168.52241 185.659096,168.52241 C188.913641,168.52241 192.168187,166.889861 193.910848,164.084469 C196.34584,160.165172 194.907922,155.441388 190.697724,153.531835 C189.49946,152.98667 188.209476,152.730295 186.916534,152.730295" id="Fill-6" fill="#FFC675"></path>
                    <path d="M168.835463,220.403001 C158.249314,220.403001 147.677959,218.301904 137.890653,213.861016 C117.026058,204.395766 102.093612,187.878728 95.8389669,167.348094 C89.5843223,146.81746 92.7856116,124.816353 104.851099,105.402572 C135.156835,56.638264 202.443083,36.3021215 254.847182,60.0742794 C308.130008,84.2501544 334.536207,139.043697 319.062322,193.321542 C318.168802,196.451086 314.893545,198.266339 311.754388,197.382287 C308.609314,196.492342 306.78381,193.233137 307.677331,190.103593 C321.515066,141.560298 297.774636,92.5042532 249.941694,70.8007769 C202.768537,49.4037719 142.195529,67.7095417 114.913562,111.60567 C104.664702,128.10208 101.910174,146.681906 107.164785,163.923866 C112.416438,181.168774 125.070702,195.092593 142.79614,203.134519 C172.048587,216.407086 209.603083,205.055859 226.517843,177.835898 C228.236835,175.065868 231.881926,174.214232 234.666041,175.926346 C237.441281,177.63846 238.302256,181.271913 236.580306,184.038996 C222.301727,207.018454 195.537529,220.403001 168.835463,220.403001" id="Fill-8" fill="#2D3666"></path>
                    <path d="M299.982106,227.574431 C298.91994,227.574431 297.84594,227.288587 296.875494,226.693326 C294.097296,224.981212 293.236321,221.350705 294.955312,218.580675 C296.189081,216.591558 297.372552,214.558239 298.47318,212.53376 C300.026486,209.672378 303.615362,208.605622 306.491197,210.149766 C309.367031,211.696857 310.438073,215.274321 308.881808,218.138649 C307.674668,220.363513 306.375808,222.600165 305.020734,224.780827 C303.902354,226.584293 301.96442,227.574431 299.982106,227.574431" id="Fill-10" fill="#2D3666"></path>
                    <path d="M110.723483,113.036066 C109.661317,113.036066 108.584359,112.750222 107.613912,112.152014 C104.835714,110.4399 103.977698,106.809393 105.696689,104.039363 C138.893053,50.6161019 206.374574,22.2321394 269.802706,35.0125843 C273.003995,35.6579422 275.075069,38.7668584 274.430078,41.9582861 C273.779169,45.1467669 270.654805,47.2183954 267.456474,46.5641969 C208.782937,34.7503155 146.405136,60.9270949 115.762111,110.245408 C114.640772,112.045928 112.705797,113.036066 110.723483,113.036066" id="Fill-12" fill="#2D3666"></path>
                    <path d="M298.497145,56.2949572 C297.677592,56.2949572 296.843245,56.1210936 296.050319,55.7615791 C294.354997,54.9954007 292.641922,54.2645844 290.919972,53.5661834 C287.893245,52.3461916 286.428699,48.9101762 287.65655,45.8955589 C288.881443,42.875048 292.331261,41.419309 295.360947,42.6422476 C297.236749,43.3966387 299.100716,44.1981791 300.949889,45.0350817 C303.92336,46.3817875 305.239972,49.8737929 303.887856,52.8383139 C302.89374,55.0071881 300.74574,56.2949572 298.497145,56.2949572" id="Fill-14" fill="#2D3666"></path>
                    <path d="M164.977939,270.680511 C148.88865,270.680511 132.82303,267.486137 117.946798,260.737873 C64.6610132,236.564945 38.2548149,181.771403 53.7316579,127.490611 C54.6222198,124.361067 57.8915587,122.539919 61.0395917,123.429865 C64.1846661,124.319811 66.0072116,127.576069 65.1166496,130.70856 C51.2759554,179.251854 75.0193438,228.310846 122.852286,250.008429 C170.022484,271.408381 230.598451,253.105558 257.87746,209.209429 C268.129278,192.713019 270.880848,174.130247 265.629195,156.888286 C260.377542,139.646325 247.723278,125.722507 229.99784,117.677634 C200.748352,104.405066 163.190898,115.759241 146.276137,142.979201 C144.557145,145.746284 140.909096,146.603815 138.127939,144.885807 C135.34974,143.173693 134.491724,139.543186 136.210716,136.776103 C156.152203,104.69091 200.428815,91.3210969 234.903327,106.948189 C255.767922,116.416386 270.700369,132.936371 276.955013,153.467005 C283.206699,173.994692 280.008369,195.992852 267.942881,215.412528 C246.24098,250.335528 205.562121,270.677564 164.977939,270.680511" id="Fill-16" fill="#2D3666"></path>
                    <path d="M69.1099769,111.372575 C68.1602413,111.372575 67.1986711,111.145668 66.3021917,110.665333 C63.426357,109.115295 62.3553157,105.540778 63.9115802,102.67645 C65.1305554,100.425064 66.4323736,98.1884128 67.7756132,96.0313259 C69.494605,93.2612963 73.1426545,92.4067128 75.9208529,94.1217736 C78.6990512,95.8368345 79.5570678,99.4702881 77.8351174,102.234424 C76.6161421,104.199966 75.4326711,106.236233 74.3202083,108.28134 C73.2491669,110.252776 71.2135967,111.372575 69.1099769,111.372575" id="Fill-18" fill="#2D3666"></path>
                    <path d="M133.633116,288.839234 C123.416802,288.839234 113.159066,287.849095 102.99305,285.801042 C99.7888017,285.155684 97.7177273,282.046767 98.3656777,278.85534 C99.0106694,275.663912 102.123198,273.592284 105.339281,274.249429 C164.012818,286.060363 226.387661,259.883584 257.033645,210.568217 C258.752636,207.804082 262.397727,206.949498 265.178884,208.661612 C267.957083,210.373726 268.815099,214.004233 267.096107,216.774262 C239.219446,261.63106 187.158554,288.839234 133.633116,288.839234" id="Fill-20" fill="#2D3666"></path>
                    <path d="M79.6502661,278.60309 C78.9105967,278.60309 78.1590926,278.461642 77.4312579,278.169905 C75.5524975,277.412567 73.6855719,276.613973 71.8363983,275.774124 C68.8629273,274.424471 67.5522331,270.929519 68.9102661,267.967945 C70.2682992,265.003424 73.7802496,263.700921 76.750762,265.050573 C78.4431256,265.822645 80.1532413,266.550515 81.8722331,267.245969 C84.901919,268.465961 86.3635058,271.901976 85.1356545,274.916593 C84.2066298,277.209235 81.9905802,278.60309 79.6502661,278.60309" id="Fill-22" fill="#2D3666"></path>
                    <path d="M204.149352,304.002199 L203.99846,304.456012 C203.702592,305.33417 203.007302,306.026678 202.125617,306.318415 L201.66998,306.47165 L202.125617,306.621939 C203.007302,306.913676 203.702592,307.609131 203.99846,308.487289 L204.149352,308.938155 L204.300245,308.487289 C204.593154,307.609131 205.288443,306.913676 206.170129,306.621939 L206.628724,306.47165 L206.170129,306.318415 C205.288443,306.026678 204.593154,305.33417 204.300245,304.456012 L204.149352,304.002199" id="Fill-24" fill="#9AE0E6"></path>
                    <path d="M204.149352,291.737156 C202.871203,291.737156 201.746906,292.54459 201.341567,293.752794 L198.85036,301.193565 L191.379699,303.674805 C190.166641,304.078522 189.355964,305.198321 189.355964,306.471356 C189.355964,307.744391 190.166641,308.86419 191.379699,309.267907 L198.85036,311.749146 L201.341567,319.189917 C201.746906,320.398121 202.871203,321.205556 204.149352,321.205556 C205.427501,321.205556 206.551798,320.398121 206.954179,319.189917 L209.445385,311.749146 L216.919005,309.267907 C218.129104,308.86419 218.94274,307.744391 218.94274,306.471356 C218.94274,305.198321 218.132063,304.078522 216.919005,303.674805 L209.445385,301.193565 L206.954179,293.752794 C206.551798,292.54459 205.427501,291.737156 204.149352,291.737156 M203.99846,304.455717 L204.149352,304.001904 L204.300245,304.455717 C204.593154,305.333876 205.288443,306.026383 206.170129,306.31812 L206.628724,306.471356 L206.170129,306.621645 C205.288443,306.916329 204.593154,307.608836 204.300245,308.486994 L204.149352,308.940808 L203.99846,308.486994 C203.702592,307.608836 203.007302,306.916329 202.125617,306.621645 L201.66998,306.471356 L202.125617,306.31812 C203.007302,306.026383 203.702592,305.333876 203.99846,304.455717" id="Fill-26" fill="#9AE0E6"></path>
                    <path d="M11.8350066,150.026569 C11.7521636,150.117921 11.666362,150.206326 11.5716843,150.288838 C11.666362,150.371349 11.7521636,150.456808 11.8350066,150.551107 C11.9178496,150.456808 12.0036512,150.371349 12.0983289,150.288838 C12.0036512,150.206326 11.9178496,150.117921 11.8350066,150.026569" id="Fill-28" fill="#9AE0E6"></path>
                    <path d="M11.8350066,138.501183 C10.5568579,138.501183 9.43256033,139.308618 9.02722149,140.516822 L7.2756843,145.75041 L2.02107273,147.494939 C0.810973554,147.895709 0.000295867769,149.015508 0.000295867769,150.288543 C0.000295867769,151.561578 0.810973554,152.681377 2.02107273,153.082148 L7.2756843,154.829624 L9.02722149,160.060265 C9.43256033,161.268469 10.5568579,162.075903 11.8350066,162.075903 C13.1131554,162.075903 14.2374529,161.268469 14.6398331,160.060265 L16.3943289,154.829624 L21.6459818,153.082148 C22.8590397,152.681377 23.6697174,151.561578 23.6697174,150.288543 C23.6697174,149.015508 22.8590397,147.895709 21.6459818,147.494939 L16.3913702,145.747463 L14.6398331,140.516822 C14.2374529,139.308618 13.1131554,138.501183 11.8350066,138.501183 M11.5716843,150.288543 C11.6634033,150.206032 11.7521636,150.120573 11.8350066,150.026274 C11.9178496,150.120573 12.0036512,150.206032 12.0983289,150.288543 C12.0036512,150.371055 11.9178496,150.45946 11.8350066,150.550812 C11.7521636,150.45946 11.6634033,150.371055 11.5716843,150.288543" id="Fill-30" fill="#9AE0E6"></path>
                    <path d="M14.7930926,200.384823 C11.5385471,200.384823 8.87573719,203.036979 8.87573719,206.278502 C8.87573719,209.520026 11.5385471,212.172182 14.7930926,212.172182 C18.047638,212.172182 20.7104479,209.520026 20.7104479,206.278502 C20.7104479,203.036979 18.047638,200.384823 14.7930926,200.384823" id="Fill-32" fill="#9AE0E6"></path>
                    <path d="M133.1402,15.2127666 L132.989307,15.66658 C132.69344,16.5447383 131.99815,17.2372457 131.119423,17.5289828 L130.660828,17.6822185 L131.119423,17.8325073 C131.99815,18.1242445 132.69344,18.8167519 132.989307,19.6949102 L133.1402,20.1487235 L133.291093,19.6949102 C133.58696,18.8167519 134.28225,18.1242445 135.163936,17.8325073 L135.619572,17.6822185 L135.163936,17.5289828 C134.28225,17.2372457 133.58696,16.5447383 133.291093,15.66658 L133.1402,15.2127666" id="Fill-34" fill="#9AE0E6"></path>
                    <path d="M133.1402,2.94625059 C131.862051,2.94625059 130.737754,3.75368474 130.335374,4.96188912 L127.841208,12.4056069 L120.370547,14.8838993 C119.157489,15.2876163 118.346812,16.4074155 118.346812,17.6804504 C118.346812,18.9534852 119.157489,20.0732844 120.370547,20.4770015 L127.844167,22.9582408 L130.335374,30.3990117 C130.737754,31.607216 131.862051,32.4146502 133.1402,32.4146502 C134.418349,32.4146502 135.542646,31.607216 135.947985,30.3990117 L138.439192,22.9582408 L145.909853,20.4770015 C147.122911,20.0732844 147.933588,18.9534852 147.933588,17.6804504 C147.933588,16.4074155 147.122911,15.2876163 145.909853,14.8838993 L138.439192,12.40266 L135.947985,4.96188912 C135.542646,3.75368474 134.418349,2.94625059 133.1402,2.94625059 M132.989307,15.6648119 L133.1402,15.2139453 L133.291093,15.6648119 C133.58696,16.5429702 134.28225,17.2384244 135.163936,17.5301615 L135.619572,17.6804504 L135.163936,17.8336861 C134.28225,18.1254232 133.58696,18.8179306 133.291093,19.6960889 L133.1402,20.1499023 L132.989307,19.6960889 C132.69344,18.8179306 131.99815,18.1254232 131.119423,17.8336861 L130.660828,17.6804504 L131.119423,17.5301615 C131.99815,17.2384244 132.69344,16.5429702 132.989307,15.6648119" id="Fill-36" fill="#9AE0E6"></path>
                    <path d="M227.818774,0 C224.564228,0 221.901418,2.65215596 221.901418,5.89367992 C221.901418,9.13520387 224.564228,11.7873598 227.818774,11.7873598 C231.073319,11.7873598 233.736129,9.13520387 233.736129,5.89367992 C233.736129,2.65215596 231.073319,0 227.818774,0" id="Fill-38" fill="#9AE0E6"></path>
                    <path d="M79.8845934,58.9362098 C76.6300479,58.9362098 73.967238,61.5883658 73.967238,64.8298897 C73.967238,68.0714137 76.6300479,70.7235697 79.8845934,70.7235697 C83.1391388,70.7235697 85.8019488,68.0714137 85.8019488,64.8298897 C85.8019488,61.5883658 83.1391388,58.9362098 79.8845934,58.9362098" id="Fill-40" fill="#9AE0E6"></path>
                    <path d="M275.156729,277.003546 C271.902183,277.003546 269.239374,279.655701 269.239374,282.897225 C269.239374,286.138749 271.902183,288.790905 275.156729,288.790905 C278.411274,288.790905 281.074084,286.138749 281.074084,282.897225 C281.074084,279.655701 278.411274,277.003546 275.156729,277.003546" id="Fill-42" fill="#9AE0E6"></path>
                    <path d="M352.082053,200.384823 C348.827507,200.384823 346.164698,203.036979 346.164698,206.278502 C346.164698,209.520026 348.827507,212.172182 352.082053,212.172182 C355.336598,212.172182 357.999408,209.520026 357.999408,206.278502 C357.999408,203.036979 355.336598,200.384823 352.082053,200.384823" id="Fill-44" fill="#9AE0E6"></path>
                    <path d="M343.206316,102.876835 C343.123473,102.968187 343.037671,103.056592 342.942993,103.139104 C343.037671,103.221615 343.123473,103.307074 343.206316,103.401373 C343.289159,103.307074 343.377919,103.221615 343.469638,103.139104 C343.377919,103.056592 343.289159,102.968187 343.206316,102.876835" id="Fill-46" fill="#9AE0E6"></path>
                    <path d="M343.206316,91.3523334 C341.928167,91.3523334 340.803869,92.1597676 340.401489,93.3650251 L338.649952,98.5986129 L333.39534,100.343142 C332.182283,100.746859 331.371605,101.866658 331.371605,103.139693 C331.371605,104.412728 332.182283,105.532527 333.39534,105.936244 L338.646993,107.677827 L340.401489,112.911415 C340.803869,114.119619 341.928167,114.927053 343.206316,114.927053 C344.484464,114.927053 345.608762,114.119619 346.011142,112.911415 L347.765638,107.677827 L353.017291,105.936244 C354.230349,105.532527 355.041026,104.412728 355.041026,103.139693 C355.041026,101.866658 354.230349,100.746859 353.017291,100.343142 L347.765638,98.5986129 L346.011142,93.3650251 C345.608762,92.1597676 344.484464,91.3523334 343.206316,91.3523334 M342.942993,103.139693 C343.037671,103.057182 343.123473,102.968777 343.206316,102.877425 C343.289159,102.968777 343.377919,103.057182 343.469638,103.139693 C343.377919,103.219258 343.289159,103.307663 343.206316,103.401962 C343.123473,103.307663 343.037671,103.219258 342.942993,103.139693" id="Fill-48" fill="#9AE0E6"></path>
                </g>
            </g>
        </g>
    </g>
</svg>