<?xml version="1.0" encoding="UTF-8"?>
<svg width="360px" height="360px" viewBox="0 0 360 360" version="1.1" xmlns="http://www.w3.org/2000/svg" xmlns:xlink="http://www.w3.org/1999/xlink">
    <!-- Generator: Sketch 44 (41411) - http://www.bohemiancoding.com/sketch -->
    <title>about-culture-02</title>
    <desc>Created with Sketch.</desc>
    <defs></defs>
    <g id="Assets" stroke="none" stroke-width="1" fill="none" fill-rule="evenodd">
        <g id="X-Wing" transform="translate(5.000000, 15.000000)">
            <g id="Page-1">
                <polygon id="Fill-2" fill="#E8F3FF" points="88.6116949 218.512919 148.304492 161.283189 173.887119 187.668324 115.30661 248.61427"></polygon>
                <polygon id="Fill-3" fill="#B8DAF2" points="95.7754237 225.707216 115.707627 248.182892 115.322034 248.599108 88.6271186 218.512622 148.305085 161.282892 155.364407 168.566676"></polygon>
                <polygon id="Fill-4" fill="#E8F3FF" points="183.527839 127.837838 242.588856 71.7764865 276.960042 47.9391892 288.453686 60.9459459 264.451992 94.0589189 207.903263 154.46973"></polygon>
                <polygon id="Fill-5" fill="#FFFFFF" points="289.633602 60.4045676 264.451398 94.0586216 208.807331 155.718081 205.722585 152.923486 196.82428 144.004568 199.909025 146.799162 255.553093 85.1397027 268.384449 67.9915946 285.062839 55.4545676"></polygon>
                <polygon id="Fill-6" fill="#B8DAF2" points="276.166314 46.5338649 242.590042 71.7744054 181.073093 127.547378 183.861229 130.63927 192.759534 139.558189 189.971398 136.466297 190.766314 135.746838 183.529025 127.83873 242.590042 71.7744054 276.961229 47.9400811 284.183686 56.1157568 285.064619 55.4527838"></polygon>
                <polygon id="Fill-7" fill="#A7D0F2" points="276.960042 47.9394865 242.588856 71.7738108 183.527839 127.838135 190.765127 135.746243 251.487161 80.6927297 284.185466 56.1151622"></polygon>
                <polygon id="Fill-8" fill="#FFFFFF" points="173.635593 189.645351 115.055085 250.591297 108.292373 242.980486 166.457627 182.450757 147.949153 163.36427 148.067797 163.275081"></polygon>
                <polygon id="Fill-9" fill="#E8F3FF" points="130.305 270.635378 113.525763 287.453486 96.7465254 270.635378 113.525763 253.81727 117.719831 249.613486 176.445678 190.751595 184.83678 182.344027 189.030847 178.13727 205.810085 194.955378 189.030847 211.773486 142.890169 258.021054"></polygon>
                <polygon id="Fill-10" fill="#B8DAF2" points="196.628814 185.680892 121.230508 261.372784 112.480508 252.602514 187.878814 176.913595"></polygon>
                <polygon id="Fill-11" fill="#E8F3FF" points="238.821907 261.927838 190.272754 213.507027 144.793517 259.094595 206.093941 293.777297"></polygon>
                <polygon id="Fill-12" fill="#E8F3FF" points="74.7852119 97.0152432 123.09411 145.676865 77.6119068 191.261459 43.0093644 129.819027"></polygon>
                <polygon id="Fill-13" fill="#E8F3FF" points="238.378475 227.352459 221.599237 244.170568 204.82 227.352459 221.599237 210.534351 229.990339 218.944892"></polygon>
                <polygon id="Fill-14" fill="#B8DAF2" points="230.342415 219.126838 213.732246 235.775486 205.160212 227.183595 221.770381 210.534946"></polygon>
                <polygon id="Fill-15" fill="#E8F3FF" points="129.316398 269.396243 112.537161 286.214351 95.7579237 269.396243 112.537161 252.578135"></polygon>
                <polygon id="Fill-16" fill="#FFDCA1" points="110.737924 285.420568 93.9586864 268.602459 110.749788 251.775432 127.529025 268.590568"></polygon>
                <polygon id="Fill-17" fill="#E8DAB9" points="112.503347 252.617378 112.046568 253.075216 120.793602 261.842514 121.250381 261.384676"></polygon>
                <polygon id="Fill-18" fill="#FFC675" points="112.047161 253.075811 95.8789407 269.314189 104.623008 278.081486 120.794195 261.843108"></polygon>
                <polygon id="Fill-19" fill="#78D5DD" points="183.847288 181.103703 175.459153 189.51127 146.094746 160.081811 154.482881 151.67127 181.059153 127.560459 183.847288 130.649378 204.820593 151.67127 207.902373 154.468838"></polygon>
                <polygon id="Fill-20" fill="#9AE0E6" points="199.551017 146.392162 199.933644 146.775676 199.93661 146.76973 199.556949 146.386216"></polygon>
                <polygon id="Fill-21" fill="#FFFFFF" points="199.938093 146.769135 199.935127 146.775081 204.820297 151.671568 204.918178 151.760757"></polygon>
                <polygon id="Fill-22" fill="#9AE0E6" points="207.69 154.705189 185.245508 179.553297 187.879407 176.913297 188.517119 177.552486 208.493814 155.433568"></polygon>
                <polygon id="Fill-23" fill="#FFFFFF" points="207.690297 154.705486 208.49411 155.433865 208.663178 155.246568 207.862331 154.515216"></polygon>
                <polygon id="Fill-24" fill="#D1F1FA" points="187.878814 176.912108 185.247881 179.555081 183.847881 181.104 175.459746 189.511568 176.242797 190.296432 184.607203 181.882919 188.519492 177.55427"></polygon>
                <polygon id="Fill-25" fill="#A8EFF3" points="199.551907 146.390973 175.621398 172.877189 167.254025 181.290703 175.458263 189.510973 183.846398 181.103405 185.246398 179.554486 207.69089 154.706378 207.862924 154.516108 205.608686 152.449892 204.917585 151.760162 204.819703 151.670973 199.934534 146.774486"></polygon>
                <path d="M154.474873,151.681378 L154.474873,151.681378 L146.095636,160.080027 L146.080805,160.094892 L147.774449,161.792459 L147.78928,161.780568 L146.095636,160.080027 L154.474873,151.681378 L154.474873,151.681378 Z M173.742669,187.817865 L173.742669,187.820838 L175.379958,189.458946 L173.742669,187.817865 Z" id="Fill-26" fill="#9AE0E6"></path>
                <path d="M147.78839,161.779378 L147.773559,161.794243 L147.773559,161.794243 L147.78839,161.779378 L147.78839,161.779378 L147.78839,161.779378 Z M154.954492,168.962081 L154.939661,168.973973 L173.74178,187.819649 L173.744746,187.819649 L156.226949,170.237486 L154.954492,168.962081 Z" id="Fill-27" fill="#8CD5E6"></path>
                <polygon id="Fill-28" fill="#6FBFDA" points="147.788686 161.779973 147.773856 161.794838 154.939958 168.974568 154.954788 168.962676"></polygon>
                <polygon id="Fill-29" fill="#48BBC7" points="181.050847 127.569676 154.474576 151.680486 146.095339 160.082108 147.788983 161.779676 147.788983 161.779676 154.952119 168.962378 156.227542 170.237784 155.097458 169.102108 163.461864 160.688595 189.889831 136.726432 183.838983 130.661568"></polygon>
                <polygon id="Fill-30" fill="#E8F3FF" points="83.1736441 223.147784 66.3944068 239.965892 49.6151695 223.147784 66.3944068 206.329676"></polygon>
                <polygon id="Fill-31" fill="#E8F3FF" points="125.121144 113.833054 108.341907 130.651162 91.5626695 113.833054 108.341907 97.0149459 116.733008 105.425486"></polygon>
                <polygon id="Fill-32" fill="#B8DAF2" points="116.745763 105.778378 100.135593 122.427027 91.5635593 113.835135 108.173729 97.1864865"></polygon>
                <g id="Group-133">
                    <path d="M116.732415,254.319703 C115.213771,254.319703 113.698093,253.739973 112.538347,252.577541 L83.1769068,223.148081 C80.8574153,220.823216 80.8574153,217.062405 83.1769068,214.740514 C85.4934322,212.415649 89.2455508,212.415649 91.5650424,214.740514 L120.926483,244.169973 C123.243008,246.491865 123.243008,250.255649 120.926483,252.577541 C119.766737,253.739973 118.251059,254.319703 116.732415,254.319703" id="Fill-33" fill="#2D3666"></path>
                    <path d="M183.843136,187.050541 C182.422373,187.050541 180.998644,186.542162 179.862627,185.510541 C177.436356,183.307568 177.249492,179.54973 179.450339,177.111892 L259.146525,88.8235135 C261.341441,86.3886486 265.096525,86.2043243 267.525763,88.4013514 C269.955,90.6072973 270.144831,94.3651351 267.943983,96.802973 L188.241864,185.097297 C187.07322,186.390541 185.462627,187.050541 183.843136,187.050541" id="Fill-35" fill="#2D3666"></path>
                    <path d="M175.457669,195.458405 C173.939025,195.458405 172.423347,194.878676 171.263602,193.716243 L141.902161,164.286784 C139.582669,161.961919 139.582669,158.201108 141.902161,155.879216 C144.218686,153.554351 147.970805,153.554351 150.290297,155.879216 L179.651737,185.308676 C181.968263,187.630568 181.968263,191.394351 179.651737,193.716243 C178.491992,194.878676 176.976314,195.458405 175.457669,195.458405" id="Fill-37" fill="#2D3666"></path>
                    <path d="M154.486441,157.619892 C152.866949,157.619892 151.256356,156.959892 150.087712,155.666649 C147.886864,153.228811 148.073729,149.470973 150.5,147.268 L238.590254,67.3782703 C241.025424,65.1782703 244.774576,65.3685405 246.972458,67.8004324 C249.170339,70.2352973 248.980508,73.9961081 246.551271,76.1990811 L158.466949,156.079892 C157.330932,157.111514 155.907203,157.619892 154.486441,157.619892" id="Fill-39" fill="#2D3666"></path>
                    <path d="M251.603136,72.4344054 L262.903983,83.7614324 L280.881525,59.7338649 L275.575169,54.4122432 L251.603136,72.4344054 Z M263.544661,98.7571081 C261.978559,98.7571081 260.465847,98.1387297 259.350593,97.0179189 L238.377288,75.9930541 C237.161186,74.7741351 236.532373,73.0884595 236.653983,71.3700811 C236.775593,69.6487297 237.635763,68.0671081 239.012034,67.0354865 L272.570508,41.8068378 C274.931525,40.029 278.238729,40.2698108 280.326864,42.3598108 L292.909068,54.9711622 C294.997203,57.0641351 295.231525,60.3730541 293.457797,62.7425135 L268.290424,96.3817027 C267.25822,97.7611622 265.680254,98.6233243 263.965847,98.7452162 C263.826441,98.7541351 263.684068,98.7571081 263.544661,98.7571081 L263.544661,98.7571081 Z" id="Fill-41" fill="#2D3666"></path>
                    <path d="M125.120847,153.415811 C123.602203,153.415811 122.086525,152.836081 120.92678,151.673649 L104.150508,134.855541 C101.831017,132.533649 101.831017,128.766892 104.150508,126.447973 C106.467034,124.123108 110.222119,124.123108 112.538644,126.447973 L129.314915,143.266081 C131.631441,145.587973 131.631441,149.35473 129.314915,151.673649 C128.155169,152.836081 126.639492,153.415811 125.120847,153.415811" id="Fill-43" fill="#2D3666"></path>
                    <path d="M91.5638559,119.778405 C90.0452119,119.778405 88.5295339,119.198676 87.3697881,118.036243 L70.5905508,101.221108 C68.2710593,98.9021892 68.2710593,95.1354324 70.5905508,92.8135405 C72.9070763,90.4886757 76.662161,90.4886757 78.9786864,92.8135405 L95.7579237,109.628676 C98.0744492,111.947595 98.0744492,115.714351 95.7579237,118.036243 C94.598178,119.198676 93.0825,119.778405 91.5638559,119.778405" id="Fill-45" fill="#2D3666"></path>
                    <path d="M78.9840254,199.662486 C76.9670763,199.662486 75.0035169,198.633838 73.8912288,196.77573 L36.1416525,133.710054 C34.4539407,130.894649 35.3645339,127.243838 38.1734322,125.552216 C40.9823305,123.863568 44.6276695,124.77627 46.3124153,127.591676 L84.0649576,190.657351 C85.7497034,193.472757 84.8420763,197.123568 82.0302119,198.815189 C81.0751271,199.388973 80.0251271,199.662486 78.9840254,199.662486" id="Fill-47" fill="#2D3666"></path>
                    <path d="M204.820297,233.297216 C203.301653,233.297216 201.785975,232.717486 200.626229,231.555054 L183.846992,214.739919 C181.5275,212.421 181.5275,208.654243 183.846992,206.332351 C186.163517,204.007486 189.918602,204.007486 192.235127,206.332351 L209.014364,223.147486 C211.33089,225.466405 211.33089,229.233162 209.014364,231.555054 C207.854619,232.717486 206.338941,233.297216 204.820297,233.297216" id="Fill-49" fill="#2D3666"></path>
                    <path d="M238.377288,266.934622 C236.858644,266.934622 235.342966,266.354892 234.18322,265.192459 L217.406949,248.374351 C215.087458,246.052459 215.087458,242.285703 217.406949,239.966784 C219.723475,237.641919 223.478559,237.641919 225.795085,239.966784 L242.571356,256.784892 C244.887881,259.106784 244.887881,262.873541 242.571356,265.192459 C241.41161,266.354892 239.895932,266.934622 238.377288,266.934622" id="Fill-51" fill="#2D3666"></path>
                    <path d="M204.814661,300.569351 C203.773559,300.569351 202.723559,300.295838 201.768475,299.722054 L138.848559,261.882054 C136.039661,260.193405 135.129068,256.539622 136.813814,253.724216 C138.501525,250.905838 142.140932,249.993135 144.952797,251.68773 L207.872712,289.524757 C210.684576,291.216378 211.592203,294.867189 209.907458,297.682595 C208.795169,299.540703 206.83161,300.569351 204.814661,300.569351" id="Fill-53" fill="#2D3666"></path>
                    <path d="M99.9522881,113.835135 L108.349322,122.248649 L116.731525,113.832162 L108.352288,105.415676 L99.9522881,113.835135 Z M108.352288,136.608108 C106.780254,136.608108 105.270508,135.980811 104.15822,134.865946 L87.3700847,118.038919 C85.0535593,115.717027 85.0535593,111.953243 87.3700847,109.631351 L103.977288,92.9797297 C103.989153,92.9678378 104.181949,92.7805405 104.193814,92.7686486 C106.510339,90.4854054 110.241695,90.4883784 112.546356,92.8043243 L129.310763,109.64027 C131.621356,111.959189 131.61839,115.717027 129.307797,118.035946 L112.552288,134.862973 C111.44,135.977838 109.927288,136.608108 108.355254,136.608108 L108.352288,136.608108 Z" id="Fill-55" fill="#2D3666"></path>
                    <path d="M116.732415,111.370243 C115.213771,111.370243 113.698093,110.790514 112.538347,109.628081 C110.221822,107.306189 110.221822,103.542405 112.538347,101.220514 L137.70572,75.9948378 C140.025212,73.669973 143.777331,73.669973 146.093856,75.9948378 C148.413347,78.3167297 148.413347,82.0775405 146.093856,84.4024054 L120.926483,109.628081 C119.766737,110.790514 118.251059,111.370243 116.732415,111.370243" id="Fill-57" fill="#2D3666"></path>
                    <path d="M213.208729,227.35127 L221.599831,235.761811 L229.987966,227.35127 L221.599831,218.943703 L213.208729,227.35127 Z M221.599831,250.115324 C220.027797,250.115324 218.518051,249.488027 217.405763,248.373162 L200.626525,231.555054 C199.514237,230.440189 198.88839,228.926946 198.88839,227.35127 C198.88839,225.775595 199.514237,224.262351 200.626525,223.147486 L217.405763,206.332351 C219.722288,204.007486 223.477373,204.007486 225.793898,206.332351 L242.570169,223.147486 C244.889661,225.469378 244.889661,229.233162 242.570169,231.555054 L225.793898,248.373162 C224.68161,249.488027 223.171864,250.115324 221.599831,250.115324 L221.599831,250.115324 Z" id="Fill-59" fill="#2D3666"></path>
                    <path d="M229.988856,224.889054 C228.470212,224.889054 226.954534,224.309324 225.794788,223.146892 C223.478263,220.825 223.478263,217.061216 225.794788,214.739324 L250.962161,189.513649 C253.281653,187.188784 257.033771,187.188784 259.350297,189.513649 C261.669788,191.835541 261.669788,195.596351 259.350297,197.921216 L234.182924,223.146892 C233.023178,224.309324 231.5075,224.889054 229.988856,224.889054" id="Fill-61" fill="#2D3666"></path>
                    <polygon id="Fill-63" fill="#E8F3FF" points="41.2273305 130.650865 28.642161 143.265189 20.2540254 134.854649 11.8629237 126.447081 74.7858051 63.3814054 83.1739407 71.788973 91.5650424 80.1965405 74.7858051 97.0146486"></polygon>
                    <polygon id="Fill-65" fill="#B8DAF2" points="83.5500424 72.179027 20.6390254 135.235784 11.8919915 126.468486 74.8030085 63.4117297"></polygon>
                    <path d="M83.1754237,77.7358108 C81.6567797,77.7358108 80.1411017,77.1560811 78.9813559,75.9936486 C76.6648305,73.6717568 76.6648305,69.907973 78.9813559,67.5860811 L120.927966,25.5393243 C123.244492,23.2174324 126.99661,23.2174324 129.316102,25.5393243 C131.632627,27.8641892 131.632627,31.625 129.316102,33.9468919 L87.3694915,75.9936486 C86.2097458,77.1560811 84.6940678,77.7358108 83.1754237,77.7358108" id="Fill-67" fill="#2D3666"></path>
                    <path d="M11.8644068,149.209054 C10.3457627,149.209054 8.83008475,148.629324 7.67033898,147.466892 C5.35381356,145.145 5.35381356,141.381216 7.67033898,139.059324 L16.0584746,130.651757 C18.375,128.329865 22.1300847,128.329865 24.4466102,130.651757 C26.7631356,132.973649 26.7631356,136.737432 24.4466102,139.059324 L16.0584746,147.466892 C14.8987288,148.629324 13.3830508,149.209054 11.8644068,149.209054" id="Fill-69" fill="#2D3666"></path>
                    <polygon id="Fill-71" fill="#E8F3FF" points="263.546441 252.579027 271.934576 260.986595 209.014661 324.055243 200.626525 315.644703 192.235424 307.237135 204.820593 294.622811 238.379068 260.986595 255.158305 244.171459"></polygon>
                    <path d="M263.545551,258.523784 C262.026907,258.523784 260.511229,257.944054 259.351483,256.781622 C257.034958,254.45973 257.034958,250.695946 259.351483,248.374054 L301.301059,206.33027 C303.617585,204.008378 307.369703,204.008378 309.689195,206.33027 C312.00572,208.655135 312.00572,212.415946 309.689195,214.737838 L267.739619,256.781622 C266.579873,257.944054 265.064195,258.523784 263.545551,258.523784" id="Fill-73" fill="#2D3666"></path>
                    <path d="M192.2375,330 C190.718856,330 189.203178,329.42027 188.043432,328.257838 C185.726907,325.935946 185.726907,322.172162 188.043432,319.85027 L196.431568,311.442703 C198.748093,309.120811 202.503178,309.120811 204.819703,311.442703 C207.136229,313.764595 207.136229,317.528378 204.819703,319.85027 L196.431568,328.257838 C195.271822,329.42027 193.756144,330 192.2375,330" id="Fill-75" fill="#2D3666"></path>
                    <path d="M62.2012288,166.027757 C60.6825847,166.027757 59.1669068,165.448027 58.007161,164.285595 C55.6906356,161.966676 55.6906356,158.199919 58.007161,155.878027 L74.7834322,139.059919 C77.0999576,136.735054 80.8550424,136.735054 83.1715678,139.059919 C85.4910593,141.378838 85.4910593,145.145595 83.1715678,147.467486 L66.3952966,164.285595 C65.2355508,165.448027 63.7198729,166.027757 62.2012288,166.027757" id="Fill-77" fill="#2D3666"></path>
                    <path d="M175.457669,279.546568 C173.939025,279.546568 172.423347,278.966838 171.263602,277.804405 C168.947076,275.482514 168.947076,271.715757 171.263602,269.396838 L188.042839,252.581703 C190.359364,250.256838 194.114449,250.256838 196.430975,252.581703 C198.750466,254.903595 198.750466,258.670351 196.430975,260.98927 L179.651737,277.804405 C178.491992,278.966838 176.976314,279.546568 175.457669,279.546568" id="Fill-79" fill="#2D3666"></path>
                    <path d="M204.820297,157.619892 C203.301653,157.619892 201.785975,157.040162 200.626229,155.87773 L179.652924,134.855838 C177.333432,132.533946 177.333432,128.770162 179.652924,126.44827 C181.969449,124.123405 185.724534,124.123405 188.041059,126.44827 L209.014364,147.470162 C211.33089,149.792054 211.33089,153.555838 209.014364,155.87773 C207.854619,157.040162 206.338941,157.619892 204.820297,157.619892" id="Fill-81" fill="#2D3666"></path>
                    <polygon id="Fill-83" fill="#E8F3FF" points="83.1736441 223.147784 66.3944068 239.965892 49.6151695 223.147784 66.3944068 206.329676 78.9795763 193.715351 125.120254 147.467784 141.899492 130.649676 158.678729 147.467784 154.484661 151.671568 146.093559 160.082108 87.370678 218.944"></polygon>
                    <polygon id="Fill-85" fill="#B8DAF2" points="150.618347 139.492486 75.2200424 215.184378 66.4700424 206.414108 141.868347 130.722216"></polygon>
                    <polygon id="Fill-87" fill="#FFDCA1" points="67.1881356 241.769595 50.4088983 224.951486 67.2 208.124459 83.9762712 224.939595"></polygon>
                    <polygon id="Fill-89" fill="#E8DAB9" points="66.4884322 206.431946 49.8663983 223.125189 51.0498729 224.308432 67.1973305 208.123568 74.7460593 215.689784 75.2384322 215.19627 75.2236017 215.181405 75.2206356 215.184378"></polygon>
                    <polygon id="Fill-91" fill="#B8C4AF" points="66.4928814 206.427189 66.4899153 206.433135 75.2191525 215.182595 75.2250847 215.179622"></polygon>
                    <polygon id="Fill-93" fill="#FFC675" points="67.1985169 208.123568 51.0480932 224.308432 58.6146186 231.892486 74.7472458 215.689784"></polygon>
                    <path d="M83.1694915,229.098784 C81.6508475,229.098784 80.1351695,228.519054 78.9754237,227.356622 L62.2762712,210.615811 C59.9745763,208.308784 59.9122881,204.524189 62.1991525,202.199324 C64.4860169,199.871486 68.1728814,199.788243 70.5042373,202.050676 L70.5961864,202.139865 L87.3635593,218.949054 C89.6800847,221.270946 89.6800847,225.037703 87.3635593,227.356622 C86.2038136,228.519054 84.6881356,229.098784 83.1694915,229.098784" id="Fill-95" fill="#2D3666"></path>
                    <path d="M129.315212,275.342486 C127.796568,275.342486 126.28089,274.762757 125.121144,273.600324 L108.344873,256.782216 C106.025381,254.460324 106.025381,250.693568 108.344873,248.374649 C110.661398,246.049784 114.416483,246.049784 116.733008,248.374649 L133.50928,265.192757 C135.825805,267.514649 135.825805,271.281405 133.50928,273.600324 C132.349534,274.762757 130.833856,275.342486 129.315212,275.342486" id="Fill-97" fill="#2D3666"></path>
                    <polygon id="Fill-99" fill="#B8DAF2" points="263.864407 253.034784 200.95339 316.091541 192.206356 307.324243 255.117373 244.267486"></polygon>
                    <path d="M58.0041949,223.147189 L66.3952966,231.55773 L150.288517,147.470162 L141.900381,139.059622 L58.0041949,223.147189 Z M66.3952966,245.911243 C64.8766525,245.911243 63.3609746,245.331514 62.2012288,244.169081 L45.4219915,227.350973 C44.3097034,226.236108 43.6838559,224.722865 43.6838559,223.147189 C43.6838559,221.571514 44.3097034,220.05827 45.4219915,218.943405 L137.706314,126.44827 C138.818602,125.333405 140.328347,124.706108 141.900381,124.706108 C143.472415,124.706108 144.982161,125.333405 146.094449,126.44827 L162.87072,143.266378 C165.190212,145.58827 165.190212,149.352054 162.87072,151.673946 L70.5893644,244.169081 C69.4325847,245.331514 67.9139407,245.911243 66.3952966,245.911243 L66.3952966,245.911243 Z" id="Fill-101" fill="#2D3666"></path>
                    <path d="M104.146653,269.396541 L112.537754,277.807081 L125.119958,265.192757 L196.430975,193.716541 L188.039873,185.308973 L104.146653,269.396541 Z M112.537754,292.160595 C110.96572,292.160595 109.455975,291.533297 108.343686,290.418432 L91.5644492,273.600324 C89.2479237,271.278432 89.2479237,267.514649 91.5644492,265.192757 L183.845805,172.697622 C186.162331,170.372757 189.917415,170.372757 192.233941,172.697622 L209.013178,189.512757 C210.125466,190.627622 210.751314,192.140865 210.751314,193.716541 C210.751314,195.292216 210.125466,196.805459 209.013178,197.920324 L116.731822,290.418432 C115.619534,291.533297 114.109788,292.160595 112.537754,292.160595 L112.537754,292.160595 Z" id="Fill-103" fill="#2D3666"></path>
                    <path d="M20.252839,126.447081 L28.6439407,134.854649 L83.1757203,80.1965405 L74.7846186,71.786 L20.252839,126.447081 Z M28.6439407,149.208162 C27.1252966,149.208162 25.6096186,148.628432 24.4498729,147.466 L7.67063559,130.650865 C5.35411017,128.328973 5.35411017,124.565189 7.67063559,122.243297 L70.5905508,59.1746486 C72.8151271,56.9449189 76.7541102,56.9449189 78.9786864,59.1746486 L95.7579237,75.9927568 C98.0744492,78.3176216 98.0744492,82.0784324 95.7579237,84.4003243 L32.8380085,147.466 C31.6812288,148.628432 30.1625847,149.208162 28.6439407,149.208162 L28.6439407,149.208162 Z" id="Fill-105" fill="#2D3666"></path>
                    <path d="M200.625932,307.235351 L209.014068,315.645892 L263.548814,260.987784 L255.157712,252.577243 L200.625932,307.235351 Z M209.014068,329.999405 C207.495424,329.999405 205.979746,329.419676 204.82,328.257243 L188.043729,311.439135 C185.727203,309.117243 185.727203,305.353459 188.043729,303.031568 L250.963644,239.965892 C253.280169,237.644 257.035254,237.644 259.35178,239.965892 L276.131017,256.784 C277.243305,257.898865 277.869153,259.412108 277.869153,260.987784 C277.869153,262.566432 277.243305,264.076703 276.131017,265.191568 L213.208136,328.257243 C212.051356,329.419676 210.532712,329.999405 209.014068,329.999405 L209.014068,329.999405 Z" id="Fill-107" fill="#2D3666"></path>
                    <path d="M44.4912288,291.086757 C44.408178,291.178919 44.322161,291.268108 44.2272458,291.351351 C44.322161,291.434595 44.408178,291.520811 44.4912288,291.615946 C44.5742797,291.520811 44.6602966,291.434595 44.7552119,291.351351 C44.6602966,291.268108 44.5742797,291.178919 44.4912288,291.086757" id="Fill-109" fill="#9AE0E6"></path>
                    <path d="M44.4915254,279.459162 C43.2101695,279.459162 42.0830508,280.273757 41.679661,281.492676 L39.9207627,286.772676 L34.6559322,288.532676 C33.4398305,288.937 32.6271186,290.06673 32.6271186,291.351054 C32.6271186,292.635378 33.4398305,293.765108 34.6559322,294.172405 L39.9237288,295.932405 L41.679661,301.209432 C42.0830508,302.428351 43.2101695,303.242946 44.4915254,303.242946 C45.7728814,303.242946 46.9,302.428351 47.3033898,301.209432 L49.0622881,295.932405 L54.3271186,294.172405 C55.5432203,293.765108 56.3559322,292.635378 56.3559322,291.351054 C56.3559322,290.06673 55.5432203,288.937 54.3271186,288.532676 L49.0622881,286.769703 L47.3033898,281.492676 C46.9,280.273757 45.7728814,279.459162 44.4915254,279.459162 M44.2275424,291.351054 C44.3224576,291.267811 44.4084746,291.181595 44.4915254,291.086459 C44.5745763,291.181595 44.6605932,291.267811 44.7555085,291.351054 C44.6605932,291.434297 44.5745763,291.520514 44.4915254,291.615649 C44.4084746,291.520514 44.3224576,291.434297 44.2275424,291.351054" id="Fill-111" fill="#9AE0E6"></path>
                    <path d="M133.460339,309.204351 C130.182797,309.204351 127.528136,311.865162 127.528136,315.150297 C127.528136,318.432459 130.182797,321.096243 133.460339,321.096243 C136.734915,321.096243 139.392542,318.432459 139.392542,315.150297 C139.392542,311.865162 136.734915,309.204351 133.460339,309.204351" id="Fill-113" fill="#9AE0E6"></path>
                    <path d="M296.610763,282.433027 C293.33322,282.433027 290.678559,285.093838 290.678559,288.378973 C290.678559,291.661135 293.33322,294.324919 296.610763,294.324919 C299.885339,294.324919 302.542966,291.661135 302.542966,288.378973 C302.542966,285.093838 299.885339,282.433027 296.610763,282.433027" id="Fill-115" fill="#9AE0E6"></path>
                    <path d="M17.7969068,50.5411351 C14.5193644,50.5411351 11.8647034,53.2019459 11.8647034,56.4870811 C11.8647034,59.7692432 14.5193644,62.433027 17.7969068,62.433027 C21.0714831,62.433027 23.7291102,59.7692432 23.7291102,56.4870811 C23.7291102,53.2019459 21.0714831,50.5411351 17.7969068,50.5411351" id="Fill-117" fill="#9AE0E6"></path>
                    <path d="M180.932203,11.6272973 C180.849153,11.7194595 180.763136,11.8086486 180.66822,11.8918919 C180.763136,11.9751351 180.849153,12.0613514 180.932203,12.1564865 C181.015254,12.0613514 181.101271,11.9751351 181.196186,11.8918919 C181.101271,11.8086486 181.015254,11.7194595 180.932203,11.6272973" id="Fill-119" fill="#9AE0E6"></path>
                    <path d="M180.932203,-0.000594594595 C179.650847,-0.000594594595 178.523729,0.814 178.120339,2.03291892 L176.364407,7.30994595 L171.09661,9.07291892 C169.880508,9.47724324 169.067797,10.606973 169.067797,11.8912973 C169.067797,13.1756216 169.880508,14.3053514 171.09661,14.7126486 L176.361441,16.4726486 L178.120339,21.7496757 C178.523729,22.9685946 179.650847,23.7831892 180.932203,23.7831892 C182.213559,23.7831892 183.340678,22.9685946 183.744068,21.7496757 L185.502966,16.4726486 L190.767797,14.7126486 C191.983898,14.3053514 192.79661,13.1756216 192.79661,11.8912973 C192.79661,10.606973 191.983898,9.47724324 190.767797,9.07291892 L185.502966,7.30994595 L183.744068,2.03291892 C183.340678,0.814 182.213559,-0.000594594595 180.932203,-0.000594594595 M180.66822,11.8912973 C180.763136,11.8080541 180.849153,11.7218378 180.932203,11.6267027 C181.015254,11.7218378 181.101271,11.8080541 181.196186,11.8912973 C181.101271,11.9745405 181.015254,12.0607568 180.932203,12.1558919 C180.849153,12.0607568 180.763136,11.9745405 180.66822,11.8912973" id="Fill-121" fill="#9AE0E6"></path>
                    <path d="M183.897712,68.3777838 C180.623136,68.3777838 177.965508,71.0415676 177.965508,74.3237297 C177.965508,77.6088649 180.623136,80.2696757 183.897712,80.2696757 C187.175254,80.2696757 189.829915,77.6088649 189.829915,74.3237297 C189.829915,71.0415676 187.175254,68.3777838 183.897712,68.3777838" id="Fill-123" fill="#9AE0E6"></path>
                    <path d="M284.744576,143.185514 L284.593305,143.643351 C284.299661,144.529297 283.602627,145.227946 282.718729,145.52227 L282.258983,145.676865 L282.718729,145.828486 C283.602627,146.122811 284.299661,146.821459 284.593305,147.707405 L284.744576,148.168216 L284.898814,147.707405 C285.192458,146.821459 285.889492,146.122811 286.77339,145.828486 L287.230169,145.676865 L286.77339,145.52227 C285.889492,145.227946 285.192458,144.529297 284.898814,143.643351 L284.744576,143.185514" id="Fill-125" fill="#9AE0E6"></path>
                    <path d="M284.746059,130.810216 C283.464703,130.810216 282.334619,131.624811 281.931229,132.84373 L279.433771,140.353459 L271.944364,142.85373 C270.728263,143.261027 269.915551,144.390757 269.915551,145.675081 C269.915551,146.959405 270.728263,148.089135 271.944364,148.496432 L279.433771,150.999676 L281.931229,158.506432 C282.334619,159.725351 283.464703,160.539946 284.746059,160.539946 C286.027415,160.539946 287.154534,159.725351 287.557924,158.506432 L290.055381,150.999676 L297.547754,148.496432 C298.763856,148.089135 299.576568,146.959405 299.576568,145.675081 C299.576568,144.390757 298.763856,143.261027 297.547754,142.85373 L290.055381,140.350486 L287.557924,132.84373 C287.154534,131.624811 286.027415,130.810216 284.746059,130.810216 M284.591822,143.641568 L284.746059,143.186703 L284.897331,143.641568 C285.190975,144.527514 285.890975,145.229135 286.771907,145.523459 L287.228686,145.675081 L286.771907,145.829676 C285.890975,146.124 285.190975,146.822649 284.897331,147.708595 L284.746059,148.166432 L284.591822,147.708595 C284.298178,146.822649 283.601144,146.124 282.717246,145.829676 L282.260466,145.675081 L282.717246,145.523459 C283.601144,145.229135 284.298178,144.527514 284.591822,143.641568" id="Fill-127" fill="#9AE0E6"></path>
                    <path d="M344.0675,174.060135 C340.792924,174.060135 338.135297,176.723919 338.135297,180.006081 C338.135297,183.288243 340.792924,185.952027 344.0675,185.952027 C347.345042,185.952027 349.999703,183.288243 349.999703,180.006081 C349.999703,176.723919 347.345042,174.060135 344.0675,174.060135" id="Fill-129" fill="#9AE0E6"></path>
                    <path d="M5.93220339,199.188892 C2.65466102,199.188892 0,201.852676 0,205.134838 C0,208.419973 2.65466102,211.080784 5.93220339,211.080784 C9.20677966,211.080784 11.8644068,208.419973 11.8644068,205.134838 C11.8644068,201.852676 9.20677966,199.188892 5.93220339,199.188892" id="Fill-131" fill="#9AE0E6"></path>
                </g>
            </g>
        </g>
    </g>
</svg>