<?xml version="1.0" encoding="UTF-8"?>
<svg width="220px" height="220px" viewBox="0 0 220 220" version="1.1" xmlns="http://www.w3.org/2000/svg" xmlns:xlink="http://www.w3.org/1999/xlink">
    <!-- Generator: Sketch 44 (41411) - http://www.bohemiancoding.com/sketch -->
    <title>about-culture-02</title>
    <desc>Created with Sketch.</desc>
    <defs></defs>
    <g id="Assets" stroke="none" stroke-width="1" fill="none" fill-rule="evenodd">
        <g id="X-Wing" transform="translate(3.055556, 9.166667)">
            <g id="Page-1">
                <polygon id="Fill-2" fill="#E8F3FF" points="54.1515913 133.535673 90.6305226 98.5619489 106.26435 114.686198 70.4651507 151.930943"></polygon>
                <polygon id="Fill-3" fill="#B8DAF2" points="58.5294256 137.932188 70.7102166 151.667323 70.4745763 151.921677 54.1610169 133.535491 90.6308851 98.5617673 94.9449153 103.012968"></polygon>
                <polygon id="Fill-4" fill="#E8F3FF" points="112.155902 78.1231231 148.248745 43.8634084 169.253359 29.2961712 176.277253 37.2447447 161.60955 57.4804505 127.051994 94.3981682"></polygon>
                <polygon id="Fill-5" fill="#FFFFFF" points="176.998312 36.9139024 161.609188 57.4802688 127.60448 95.1610495 125.719357 93.4532417 120.281504 88.0027913 122.166627 89.7105991 156.171335 52.0298183 164.012719 41.5504189 174.205068 33.8889024"></polygon>
                <polygon id="Fill-6" fill="#B8DAF2" points="168.768303 28.4373619 148.24947 43.8621366 110.655779 77.9456201 112.35964 79.8351096 117.797493 85.2855601 116.093632 83.3960706 116.579414 82.9564009 112.156627 78.1236682 148.24947 43.8621366 169.254084 29.2967162 173.667808 34.2929625 174.206156 33.8878123"></polygon>
                <polygon id="Fill-7" fill="#A7D0F2" points="169.253359 29.2963529 148.248745 43.8617733 112.155902 78.1233048 116.578689 82.9560375 153.686598 49.3122237 173.668896 34.2925991"></polygon>
                <polygon id="Fill-8" fill="#FFFFFF" points="106.11064 115.894381 70.3114407 153.139126 66.1786723 148.488075 101.724105 111.497685 90.413371 99.8337207 90.4858757 99.7792162"></polygon>
                <polygon id="Fill-9" fill="#E8F3FF" points="79.6308333 165.388287 69.376855 175.66602 59.1228766 165.388287 69.376855 155.110554 71.9398964 152.541575 107.827914 116.570419 112.95581 111.432461 115.518851 108.861665 125.77283 119.139398 115.518851 129.417131 87.3217702 157.679533"></polygon>
                <polygon id="Fill-10" fill="#B8DAF2" points="120.162053 113.471656 74.0853107 159.727812 68.7380885 154.368203 114.814831 108.113863"></polygon>
                <polygon id="Fill-11" fill="#E8F3FF" points="145.946721 160.067012 116.277794 130.476517 88.484927 158.335586 125.946297 179.530571"></polygon>
                <polygon id="Fill-12" fill="#E8F3FF" points="45.7020739 59.2870931 75.2241784 89.0247508 47.4294986 116.882003 26.2835005 79.3338498"></polygon>
                <polygon id="Fill-13" fill="#E8F3FF" points="145.675734 138.937614 135.421756 149.215347 125.167778 138.937614 135.421756 128.659881 140.549652 133.799656"></polygon>
                <polygon id="Fill-14" fill="#B8DAF2" points="140.764809 133.910845 130.61415 144.08502 125.375685 138.834419 135.526344 128.660245"></polygon>
                <polygon id="Fill-15" fill="#E8F3FF" points="79.0266879 164.631038 68.7727095 174.90877 58.5187312 164.631038 68.7727095 154.353305"></polygon>
                <polygon id="Fill-16" fill="#FFDCA1" points="67.6731756 174.42368 57.4191973 164.145947 67.6804261 153.862764 77.9344044 164.13868"></polygon>
                <polygon id="Fill-17" fill="#E8DAB9" points="68.7520457 154.377287 68.4729025 154.657077 73.8183121 160.014869 74.0974553 159.73508"></polygon>
                <polygon id="Fill-18" fill="#FFC675" points="68.4732651 154.65744 58.592686 164.580893 63.936283 169.938686 73.8186747 160.015233"></polygon>
                <polygon id="Fill-19" fill="#78D5DD" points="112.351121 110.674485 107.225038 115.812443 89.2801224 97.8277733 94.4062053 92.6879985 110.64726 77.9536141 112.351121 79.8412868 125.16814 92.6879985 127.05145 94.3976231"></polygon>
                <polygon id="Fill-20" fill="#9AE0E6" points="121.947844 89.4618769 122.181671 89.6962462 122.183484 89.6926126 121.951469 89.4582432"></polygon>
                <polygon id="Fill-21" fill="#FFFFFF" points="122.18439 89.6922492 122.182578 89.6958829 125.167959 92.6881802 125.227775 92.7426847"></polygon>
                <polygon id="Fill-22" fill="#9AE0E6" points="126.921667 94.5420601 113.205589 109.727015 114.815193 108.113682 115.204906 108.504297 127.412886 94.9871802"></polygon>
                <polygon id="Fill-23" fill="#FFFFFF" points="126.921848 94.5422417 127.413067 94.9873619 127.516387 94.8729024 127.02698 94.4259655"></polygon>
                <polygon id="Fill-24" fill="#D1F1FA" points="114.814831 108.112955 113.207039 109.728105 112.351483 110.674667 107.2254 115.812625 107.703931 116.292264 112.815513 111.150673 115.206356 108.505387"></polygon>
                <polygon id="Fill-25" fill="#A8EFF3" points="121.948387 89.4611502 107.324188 105.647171 102.210793 110.788763 107.224494 115.812261 112.350577 110.674303 113.206132 109.727742 126.92221 94.5427868 127.027342 94.4265105 125.649753 93.1638228 125.227413 92.7423213 125.167597 92.6878168 122.182215 89.6955195"></polygon>
                <path d="M94.4013112,92.6941757 L94.4013112,92.6941757 L89.2806662,97.8266832 L89.2716031,97.8357673 L90.3066078,98.8731697 L90.3156709,98.8659024 L89.2806662,97.8266832 L94.4013112,92.6941757 L94.4013112,92.6941757 Z M106.176076,114.777584 L106.176076,114.779401 L107.176641,115.780467 L106.176076,114.777584 Z" id="Fill-26" fill="#9AE0E6"></path>
                <path d="M90.3151271,98.8651757 L90.306064,98.8742598 L90.306064,98.8742598 L90.3151271,98.8651757 L90.3151271,98.8651757 L90.3151271,98.8651757 Z M94.6944115,103.254605 L94.6853484,103.261872 L106.175532,114.778674 L106.177345,114.778674 L95.4720245,104.03402 L94.6944115,103.254605 Z" id="Fill-27" fill="#8CD5E6"></path>
                <polygon id="Fill-28" fill="#6FBFDA" points="90.3153084 98.865539 90.3062453 98.8746231 94.6855297 103.262236 94.6945927 103.254968"></polygon>
                <polygon id="Fill-29" fill="#48BBC7" points="110.642185 77.9592462 94.4011299 92.6936306 89.2804849 97.827955 90.3154896 98.8653574 90.3154896 98.8653574 94.6929614 103.254787 95.472387 104.034201 94.7817797 103.340177 99.8933616 98.1985856 116.043785 83.555042 112.346045 79.8487357"></polygon>
                <polygon id="Fill-30" fill="#E8F3FF" points="50.828338 136.36809 40.5743597 146.645823 30.3203814 136.36809 40.5743597 126.090357"></polygon>
                <polygon id="Fill-31" fill="#E8F3FF" points="76.4629214 69.5646441 66.208943 79.8423769 55.9549647 69.5646441 66.208943 59.2869114 71.3368385 64.4266862"></polygon>
                <polygon id="Fill-32" fill="#B8DAF2" points="71.3446328 64.6423423 61.1939736 74.8165165 55.9555085 69.5659159 66.1061676 59.3917417"></polygon>
                <g id="Group-133">
                    <path d="M71.336476,155.417596 C70.4084157,155.417596 69.4821681,155.063317 68.7734346,154.352941 L50.8303319,136.368272 C49.4128649,134.947521 49.4128649,132.649248 50.8303319,131.230314 C52.2459863,129.809563 54.5389477,129.809563 55.9564148,131.230314 L73.8995174,149.214983 C75.3151718,150.633917 75.3151718,152.934008 73.8995174,154.352941 C73.1907839,155.063317 72.2645363,155.417596 71.336476,155.417596" id="Fill-33" fill="#2D3666"></path>
                    <path d="M112.348583,114.308664 C111.480339,114.308664 110.610282,113.997988 109.91605,113.367553 C108.433329,112.021291 108.319134,109.724835 109.664096,108.235045 L158.367321,54.281036 C159.708658,52.7930631 162.003432,52.6804204 163.487966,54.023048 C164.9725,55.3711261 165.088508,57.6675826 163.743545,59.1573724 L115.036695,113.115015 C114.322524,113.90533 113.338272,114.308664 112.348583,114.308664" id="Fill-35" fill="#2D3666"></path>
                    <path d="M107.224131,119.446803 C106.296071,119.446803 105.369823,119.092524 104.66109,118.382149 L86.7179873,100.397479 C85.3005202,98.9767282 85.3005202,96.678455 86.7179873,95.259521 C88.1336417,93.8387703 90.4266031,93.8387703 91.8440702,95.259521 L109.787173,113.244191 C111.202827,114.663125 111.202827,116.963215 109.787173,118.382149 C109.078439,119.092524 108.152192,119.446803 107.224131,119.446803" id="Fill-37" fill="#2D3666"></path>
                    <path d="M94.4083804,96.3232673 C93.4186911,96.3232673 92.4344397,95.9199339 91.7202684,95.1296186 C90.375306,93.6398288 90.4895009,91.3433724 91.9722222,89.9971111 L145.805155,41.1756096 C147.293315,39.8311652 149.584463,39.9474414 150.927613,41.4335976 C152.270763,42.9215706 152.154755,45.2198438 150.670221,46.5661051 L96.8409134,95.3821562 C96.1466808,96.0125916 95.2766243,96.3232673 94.4083804,96.3232673" id="Fill-39" fill="#2D3666"></path>
                    <path d="M153.757472,44.26547 L160.663545,51.187542 L171.649821,36.5040285 L168.407048,33.2519264 L153.757472,44.26547 Z M161.055071,60.3515661 C160.098008,60.3515661 159.173573,59.9736682 158.492029,59.2887282 L145.675009,46.4401997 C144.931836,45.6953048 144.547561,44.6651697 144.621879,43.6150495 C144.696196,42.5631126 145.221855,41.5965661 146.06291,40.9661306 L166.570866,25.5486231 C168.01371,24.4621667 170.034779,24.6093288 171.310862,25.8865511 L178.999986,33.593488 C180.276069,34.872527 180.419266,36.8946441 179.33532,38.3426471 L163.955259,58.8999294 C163.324468,59.7429324 162.360155,60.2698093 161.312462,60.3442988 C161.227269,60.3497492 161.140264,60.3515661 161.055071,60.3515661 L161.055071,60.3515661 Z" id="Fill-41" fill="#2D3666"></path>
                    <path d="M76.4627401,93.7541066 C75.5346798,93.7541066 74.6084322,93.3998273 73.8996987,92.689452 L63.647533,82.4117192 C62.2300659,80.9927853 62.2300659,78.6908784 63.647533,77.2737613 C65.0631874,75.8530105 67.3579614,75.8530105 68.7736158,77.2737613 L79.0257815,87.551494 C80.441436,88.9704279 80.441436,91.2723348 79.0257815,92.689452 C78.317048,93.3998273 77.3908004,93.7541066 76.4627401,93.7541066" id="Fill-43" fill="#2D3666"></path>
                    <path d="M55.9556897,73.1979144 C55.0276295,73.1979144 54.1013818,72.8436351 53.3926483,72.1332598 L43.13867,61.8573438 C41.7212029,60.4402267 41.7212029,58.1383198 43.13867,56.7193859 C44.5543244,55.2986351 46.8490984,55.2986351 48.2647528,56.7193859 L58.5187312,66.9953018 C59.9343856,68.4124189 59.9343856,70.7143258 58.5187312,72.1332598 C57.8099976,72.8436351 56.88375,73.1979144 55.9556897,73.1979144" id="Fill-45" fill="#2D3666"></path>
                    <path d="M48.2680155,122.015964 C47.0354355,122.015964 45.8354826,121.387345 45.1557509,120.251835 L22.0865654,81.7116997 C21.055186,79.9911742 21.6116596,77.7601231 23.3282086,76.7263544 C25.0447575,75.6944024 27.2724647,76.2521652 28.3020315,77.9726907 L51.3730297,116.512826 C52.4025965,118.233351 51.8479355,120.464402 50.1295739,121.498171 C49.545911,121.848817 48.9042444,122.015964 48.2680155,122.015964" id="Fill-47" fill="#2D3666"></path>
                    <path d="M125.167959,142.570521 C124.239899,142.570521 123.313651,142.216242 122.604918,141.505866 L112.350939,131.22995 C110.933472,129.812833 110.933472,127.510926 112.350939,126.091992 C113.766594,124.671242 116.061368,124.671242 117.477022,126.091992 L127.731,136.367908 C129.146655,137.785026 129.146655,140.086932 127.731,141.505866 C127.022267,142.216242 126.096019,142.570521 125.167959,142.570521" id="Fill-49" fill="#2D3666"></path>
                    <path d="M145.675009,163.126713 C144.746949,163.126713 143.820702,162.772434 143.111968,162.062059 L132.859802,151.784326 C131.442335,150.365392 131.442335,148.063485 132.859802,146.646368 C134.275457,145.225617 136.570231,145.225617 137.985885,146.646368 L148.238051,156.924101 C149.653705,158.343035 149.653705,160.644941 148.238051,162.062059 C147.529317,162.772434 146.60307,163.126713 145.675009,163.126713" id="Fill-51" fill="#2D3666"></path>
                    <path d="M125.164515,183.68127 C124.528286,183.68127 123.88662,183.514123 123.302957,183.163477 L84.8518974,160.039033 C83.1353484,159.007081 82.5788748,156.774213 83.6084416,155.053688 C84.6398211,153.331345 86.863903,152.773583 88.5822646,153.809168 L127.033324,176.931796 C128.751685,177.965565 129.306347,180.196616 128.27678,181.917141 C127.597048,183.052652 126.397095,183.68127 125.164515,183.68127" id="Fill-53" fill="#2D3666"></path>
                    <path d="M61.0819539,69.5659159 L66.2134746,74.7075075 L71.3359322,69.5640991 L66.2152872,64.4206907 L61.0819539,69.5659159 Z M66.2152872,83.4827327 C65.2545998,83.4827327 64.3319774,83.0993844 63.6522458,82.4180781 L53.3928296,72.1348949 C51.9771751,70.715961 51.9771751,68.4158709 53.3928296,66.9969369 L63.5416761,56.8209459 C63.5489266,56.8136787 63.6667467,56.6992192 63.6739972,56.691952 C65.0896516,55.2966366 67.3699247,55.2984535 68.7783286,56.7137538 L79.0232439,67.0023874 C80.4352731,68.4195045 80.4334605,70.715961 79.0214313,72.1330781 L68.7819539,82.4162613 C68.1022222,83.0975676 67.1777872,83.4827327 66.2170998,83.4827327 L66.2152872,83.4827327 Z" id="Fill-55" fill="#2D3666"></path>
                    <path d="M71.336476,68.0595931 C70.4084157,68.0595931 69.4821681,67.7053138 68.7734346,66.9949384 C67.3577801,65.5760045 67.3577801,63.2759144 68.7734346,61.8569805 L84.1534958,46.4412898 C85.5709628,45.020539 87.8639242,45.020539 89.2795786,46.4412898 C90.6970457,47.8602237 90.6970457,50.158497 89.2795786,51.5792477 L73.8995174,66.9949384 C73.1907839,67.7053138 72.2645363,68.0595931 71.336476,68.0595931" id="Fill-57" fill="#2D3666"></path>
                    <path d="M130.294223,138.936887 L135.422119,144.076662 L140.548202,138.936887 L135.422119,133.798929 L130.294223,138.936887 Z M135.422119,152.848254 C134.461431,152.848254 133.538809,152.464905 132.859077,151.783599 L122.605099,141.505866 C121.925367,140.82456 121.542905,139.8998 121.542905,138.936887 C121.542905,137.973974 121.925367,137.049215 122.605099,136.367908 L132.859077,126.091992 C134.274732,124.671242 136.569506,124.671242 137.98516,126.091992 L148.237326,136.367908 C149.654793,137.786842 149.654793,140.086932 148.237326,141.505866 L137.98516,151.783599 C137.305428,152.464905 136.382806,152.848254 135.422119,152.848254 L135.422119,152.848254 Z" id="Fill-59" fill="#2D3666"></path>
                    <path d="M140.548745,137.4322 C139.620685,137.4322 138.694437,137.07792 137.985704,136.367545 C136.570049,134.948611 136.570049,132.648521 137.985704,131.229587 L153.365765,115.813896 C154.783232,114.393146 157.076194,114.393146 158.491848,115.813896 C159.909315,117.23283 159.909315,119.531104 158.491848,120.951854 L143.111787,136.367545 C142.403053,137.07792 141.476806,137.4322 140.548745,137.4322" id="Fill-61" fill="#2D3666"></path>
                    <polygon id="Fill-63" fill="#E8F3FF" points="25.1944798 79.8421952 17.5035428 87.5509489 12.37746 82.4111742 7.2495645 77.2732162 45.7024364 38.7330811 50.8285193 43.871039 55.9564148 49.008997 45.7024364 59.2867297"></polygon>
                    <polygon id="Fill-65" fill="#B8DAF2" points="51.0583592 44.1094054 12.6127378 82.6440901 7.26732815 77.2862973 45.7129496 38.7516126"></polygon>
                    <path d="M50.8294256,47.5052177 C49.9013653,47.5052177 48.9751177,47.1509384 48.2663842,46.4405631 C46.8507298,45.0216291 46.8507298,42.721539 48.2663842,41.3026051 L73.9004237,15.6073649 C75.3160782,14.1884309 77.6090395,14.1884309 79.0265066,15.6073649 C80.442161,17.0281156 80.442161,19.3263889 79.0265066,20.7453228 L53.392467,46.4405631 C52.6837335,47.1509384 51.7574859,47.5052177 50.8294256,47.5052177" id="Fill-67" fill="#2D3666"></path>
                    <path d="M7.25047081,91.1833108 C6.32241055,91.1833108 5.3961629,90.8290315 4.68742938,90.1186562 C3.27177495,88.6997222 3.27177495,86.3996321 4.68742938,84.9806982 L9.81351224,79.8427402 C11.2291667,78.4238063 13.5239407,78.4238063 14.9395951,79.8427402 C16.3552495,81.2616742 16.3552495,83.5617643 14.9395951,84.9806982 L9.81351224,90.1186562 C9.10477872,90.8290315 8.17853107,91.1833108 7.25047081,91.1833108" id="Fill-69" fill="#2D3666"></path>
                    <polygon id="Fill-71" fill="#E8F3FF" points="161.056158 154.35385 166.182241 159.491808 127.731182 198.03376 122.605099 192.893985 117.477203 187.756027 125.16814 180.047273 145.676097 159.491808 155.930075 149.215892"></polygon>
                    <path d="M161.055614,157.986757 C160.127554,157.986757 159.201306,157.632477 158.492573,156.922102 C157.076919,155.503168 157.076919,153.203078 158.492573,151.784144 L184.128425,126.090721 C185.54408,124.671787 187.837041,124.671787 189.254508,126.090721 C190.670162,127.511471 190.670162,129.809745 189.254508,131.228679 L163.618656,156.922102 C162.909922,157.632477 161.983675,157.986757 161.055614,157.986757" id="Fill-73" fill="#2D3666"></path>
                    <path d="M117.478472,201.666667 C116.550412,201.666667 115.624164,201.312387 114.915431,200.602012 C113.499776,199.183078 113.499776,196.882988 114.915431,195.464054 L120.041514,190.326096 C121.457168,188.907162 123.751942,188.907162 125.167597,190.326096 C126.583251,191.74503 126.583251,194.04512 125.167597,195.464054 L120.041514,200.602012 C119.33278,201.312387 118.406532,201.666667 117.478472,201.666667" id="Fill-75" fill="#2D3666"></path>
                    <path d="M38.0118621,101.461407 C37.0838018,101.461407 36.1575541,101.107128 35.4488206,100.396752 C34.0331662,98.9796351 34.0331662,96.6777282 35.4488206,95.2587943 L45.7009863,84.9810616 C47.1166408,83.5603108 49.4114148,83.5603108 50.8270692,84.9810616 C52.2445363,86.3981787 52.2445363,88.7000856 50.8270692,90.1190195 L40.5749035,100.396752 C39.86617,101.107128 38.9399223,101.461407 38.0118621,101.461407" id="Fill-77" fill="#2D3666"></path>
                    <path d="M107.224131,170.834014 C106.296071,170.834014 105.369823,170.479734 104.66109,169.769359 C103.245435,168.350425 103.245435,166.048518 104.66109,164.631401 L114.915068,154.355485 C116.330723,152.934734 118.625497,152.934734 120.041151,154.355485 C121.458618,155.774419 121.458618,158.076326 120.041151,159.493443 L109.787173,169.769359 C109.078439,170.479734 108.152192,170.834014 107.224131,170.834014" id="Fill-79" fill="#2D3666"></path>
                    <path d="M125.167959,96.3232673 C124.239899,96.3232673 123.313651,95.968988 122.604918,95.2586126 L109.787898,82.4119009 C108.370431,80.992967 108.370431,78.6928769 109.787898,77.2739429 C111.203552,75.8531922 113.498326,75.8531922 114.913981,77.2739429 L127.731,90.1206547 C129.146655,91.5395886 129.146655,93.8396787 127.731,95.2586126 C127.022267,95.968988 126.096019,96.3232673 125.167959,96.3232673" id="Fill-81" fill="#2D3666"></path>
                    <polygon id="Fill-83" fill="#E8F3FF" points="50.828338 136.36809 40.5743597 146.645823 30.3203814 136.36809 40.5743597 126.090357 48.2652966 118.381604 76.4623776 90.1192012 86.7163559 79.8414685 96.9703343 90.1192012 94.4072928 92.6881802 89.2793974 97.827955 53.3931921 133.799111"></polygon>
                    <polygon id="Fill-85" fill="#B8DAF2" points="92.0445457 85.2454084 45.9678037 131.501565 40.6205815 126.141955 86.6973234 79.8857988"></polygon>
                    <polygon id="Fill-87" fill="#FFDCA1" points="41.0594162 147.748086 30.8054379 137.470353 41.0666667 127.18717 51.3188324 137.463086"></polygon>
                    <polygon id="Fill-89" fill="#E8DAB9" points="40.6318197 126.152856 30.4739101 136.354282 31.1971445 137.077375 41.0650353 127.186625 45.6781474 131.810423 45.9790419 131.508832 45.9699788 131.499748 45.9681662 131.501565"></polygon>
                    <polygon id="Fill-91" fill="#B8C4AF" points="40.6345386 126.149949 40.632726 126.153583 45.9672599 131.500474 45.9708851 131.498658"></polygon>
                    <polygon id="Fill-93" fill="#FFC675" points="41.0657604 127.186625 31.196057 137.077375 35.8200447 141.712075 45.6788724 131.810423"></polygon>
                    <path d="M50.8258004,140.004812 C49.8977401,140.004812 48.9714925,139.650533 48.2627589,138.940158 L38.0577213,128.709662 C36.6511299,127.299812 36.613065,124.987005 38.0105932,123.566254 C39.4081215,122.143686 41.6612053,122.092815 43.0859228,123.475413 L43.1421139,123.529917 L53.3888418,133.8022 C54.8044962,135.221134 54.8044962,137.523041 53.3888418,138.940158 C52.6801083,139.650533 51.7538606,140.004812 50.8258004,140.004812" id="Fill-95" fill="#2D3666"></path>
                    <path d="M79.0259628,168.264853 C78.0979025,168.264853 77.1716549,167.910574 76.4629214,167.200198 L66.2107556,156.922465 C64.7932886,155.503532 64.7932886,153.201625 66.2107556,151.784508 C67.6264101,150.363757 69.9211841,150.363757 71.3368385,151.784508 L81.5890042,162.06224 C83.0046587,163.481174 83.0046587,165.783081 81.5890042,167.200198 C80.8802707,167.910574 79.9540231,168.264853 79.0259628,168.264853" id="Fill-97" fill="#2D3666"></path>
                    <polygon id="Fill-99" fill="#B8DAF2" points="161.250471 154.632368 122.804849 193.167053 117.45944 187.80926 155.905061 149.274575"></polygon>
                    <path d="M35.447008,136.367727 L40.5749035,141.507502 L91.8429826,90.1206547 L86.7168997,84.9808799 L35.447008,136.367727 Z M40.5749035,150.279093 C39.6468432,150.279093 38.7205956,149.924814 38.0118621,149.214438 L27.7578837,138.936706 C27.0781521,138.255399 26.6956897,137.33064 26.6956897,136.367727 C26.6956897,135.404814 27.0781521,134.480054 27.7578837,133.798748 L84.1538583,77.2739429 C84.8335899,76.5926366 85.7562123,76.2092883 86.7168997,76.2092883 C87.6775871,76.2092883 88.6002095,76.5926366 89.2799411,77.2739429 L99.5321069,87.5516757 C100.949574,88.9706096 100.949574,91.2706997 99.5321069,92.6896336 L43.1379449,149.214438 C42.431024,149.924814 41.5029637,150.279093 40.5749035,150.279093 L40.5749035,150.279093 Z" id="Fill-101" fill="#2D3666"></path>
                    <path d="M63.6451766,164.631219 L68.773072,169.770994 L76.4621963,162.06224 L120.041151,118.38233 L114.913256,113.244372 L63.6451766,164.631219 Z M68.773072,178.542586 C67.8123847,178.542586 66.8897622,178.159237 66.2100306,177.477931 L55.9560523,167.200198 C54.5403978,165.781264 54.5403978,163.481174 55.9560523,162.06224 L112.350214,105.537435 C113.765869,104.116685 116.060643,104.116685 117.476297,105.537435 L127.730275,115.813351 C128.410007,116.494658 128.792469,117.419417 128.792469,118.38233 C128.792469,119.345243 128.410007,120.270003 127.730275,120.951309 L71.3361135,177.477931 C70.6563818,178.159237 69.7337594,178.542586 68.773072,178.542586 L68.773072,178.542586 Z" id="Fill-103" fill="#2D3666"></path>
                    <path d="M12.3767349,77.2732162 L17.5046304,82.4111742 L50.8296069,49.008997 L45.7017114,43.8692222 L12.3767349,77.2732162 Z M17.5046304,91.1827658 C16.5765702,91.1827658 15.6503225,90.8284865 14.941589,90.1181111 L4.68761064,79.8421952 C3.27195621,78.4232613 3.27195621,76.1231712 4.68761064,74.7042372 L43.13867,36.1622853 C44.4981332,34.7996727 46.9052895,34.7996727 48.2647528,36.1622853 L58.5187312,46.440018 C59.9343856,47.8607688 59.9343856,50.159042 58.5187312,51.577976 L20.0676718,90.1181111 C19.3607509,90.8284865 18.4326907,91.1827658 17.5046304,91.1827658 L17.5046304,91.1827658 Z" id="Fill-105" fill="#2D3666"></path>
                    <path d="M122.604736,187.754937 L127.730819,192.894712 L161.057608,159.492535 L155.929713,154.35276 L122.604736,187.754937 Z M127.730819,201.666303 C126.802759,201.666303 125.876511,201.312024 125.167778,200.601649 L114.915612,190.323916 C113.499958,188.904982 113.499958,186.604892 114.915612,185.185958 L153.366671,146.645823 C154.782326,145.226889 157.0771,145.226889 158.492754,146.645823 L168.746733,156.923556 C169.426464,157.604862 169.808927,158.529622 169.808927,159.492535 C169.808927,160.457264 169.426464,161.380207 168.746733,162.061514 L130.293861,200.601649 C129.58694,201.312024 128.658879,201.666303 127.730819,201.666303 L127.730819,201.666303 Z" id="Fill-107" fill="#2D3666"></path>
                    <path d="M27.1890843,177.886351 C27.138331,177.942673 27.0857651,177.997177 27.0277613,178.048048 C27.0857651,178.098919 27.138331,178.151607 27.1890843,178.209745 C27.2398376,178.151607 27.2924035,178.098919 27.3504073,178.048048 C27.2924035,177.997177 27.2398376,177.942673 27.1890843,177.886351" id="Fill-109" fill="#9AE0E6"></path>
                    <path d="M27.1892655,170.780599 C26.4062147,170.780599 25.71742,171.278407 25.470904,172.023302 L24.3960217,175.249968 L21.1786252,176.325524 C20.435452,176.572611 19.9387947,177.263002 19.9387947,178.047866 C19.9387947,178.832731 20.435452,179.523122 21.1786252,179.772026 L24.3978343,180.847581 L25.470904,184.072431 C25.71742,184.817326 26.4062147,185.315134 27.1892655,185.315134 C27.9723164,185.315134 28.6611111,184.817326 28.9076271,184.072431 L29.9825094,180.847581 L33.1999058,179.772026 C33.9430791,179.523122 34.4397363,178.832731 34.4397363,178.047866 C34.4397363,177.263002 33.9430791,176.572611 33.1999058,176.325524 L29.9825094,175.248152 L28.9076271,172.023302 C28.6611111,171.278407 27.9723164,170.780599 27.1892655,170.780599 M27.0279426,178.047866 C27.0859463,177.996995 27.1385122,177.944308 27.1892655,177.88617 C27.2400188,177.944308 27.2925847,177.996995 27.3505885,178.047866 C27.2925847,178.098737 27.2400188,178.151425 27.1892655,178.209563 C27.1385122,178.151425 27.0859463,178.098737 27.0279426,178.047866" id="Fill-111" fill="#9AE0E6"></path>
                    <path d="M81.559096,188.958215 C79.5561535,188.958215 77.9338606,190.584266 77.9338606,192.591848 C77.9338606,194.597614 79.5561535,196.225482 81.559096,196.225482 C83.560226,196.225482 85.1843315,194.597614 85.1843315,192.591848 C85.1843315,190.584266 83.560226,188.958215 81.559096,188.958215" id="Fill-113" fill="#9AE0E6"></path>
                    <path d="M181.262133,172.597961 C179.25919,172.597961 177.636897,174.224012 177.636897,176.231595 C177.636897,178.23736 179.25919,179.865228 181.262133,179.865228 C183.263263,179.865228 184.887368,178.23736 184.887368,176.231595 C184.887368,174.224012 183.263263,172.597961 181.262133,172.597961" id="Fill-115" fill="#9AE0E6"></path>
                    <path d="M10.8758875,30.8862492 C8.87294492,30.8862492 7.25065207,32.5123003 7.25065207,34.5198829 C7.25065207,36.5256486 8.87294492,38.1535165 10.8758875,38.1535165 C12.8770174,38.1535165 14.5011229,36.5256486 14.5011229,34.5198829 C14.5011229,32.5123003 12.8770174,30.8862492 10.8758875,30.8862492" id="Fill-117" fill="#9AE0E6"></path>
                    <path d="M110.56968,7.10557057 C110.518927,7.16189189 110.466361,7.2163964 110.408357,7.26726727 C110.466361,7.31813814 110.518927,7.37082583 110.56968,7.42896396 C110.620433,7.37082583 110.672999,7.31813814 110.731003,7.26726727 C110.672999,7.2163964 110.620433,7.16189189 110.56968,7.10557057" id="Fill-119" fill="#9AE0E6"></path>
                    <path d="M110.56968,-0.000363363363 C109.786629,-0.000363363363 109.097834,0.497444444 108.851318,1.24233934 L107.778249,4.46718919 L104.55904,5.54456156 C103.815866,5.79164865 103.319209,6.48203904 103.319209,7.2669039 C103.319209,8.05176877 103.815866,8.74215916 104.55904,8.99106306 L107.776436,10.0666186 L108.851318,13.2914685 C109.097834,14.0363634 109.786629,14.5341712 110.56968,14.5341712 C111.352731,14.5341712 112.041525,14.0363634 112.288041,13.2914685 L113.362924,10.0666186 L116.58032,8.99106306 C117.323493,8.74215916 117.820151,8.05176877 117.820151,7.2669039 C117.820151,6.48203904 117.323493,5.79164865 116.58032,5.54456156 L113.362924,4.46718919 L112.288041,1.24233934 C112.041525,0.497444444 111.352731,-0.000363363363 110.56968,-0.000363363363 M110.408357,7.2669039 C110.466361,7.21603303 110.518927,7.16334535 110.56968,7.10520721 C110.620433,7.16334535 110.672999,7.21603303 110.731003,7.2669039 C110.672999,7.31777477 110.620433,7.37046246 110.56968,7.4286006 C110.518927,7.37046246 110.466361,7.31777477 110.408357,7.2669039" id="Fill-121" fill="#9AE0E6"></path>
                    <path d="M112.381935,41.7864234 C110.380805,41.7864234 108.7567,43.4142913 108.7567,45.4200571 C108.7567,47.4276396 110.380805,49.0536907 112.381935,49.0536907 C114.384878,49.0536907 116.00717,47.4276396 116.00717,45.4200571 C116.00717,43.4142913 114.384878,41.7864234 112.381935,41.7864234" id="Fill-123" fill="#9AE0E6"></path>
                    <path d="M174.010574,87.5022583 L173.918131,87.782048 C173.738682,88.3234595 173.312717,88.7504114 172.772556,88.9302763 L172.491601,89.0247508 L172.772556,89.1174084 C173.312717,89.2972733 173.738682,89.7242252 173.918131,90.2656366 L174.010574,90.5472432 L174.104831,90.2656366 C174.28428,89.7242252 174.710245,89.2972733 175.250405,89.1174084 L175.529548,89.0247508 L175.250405,88.9302763 C174.710245,88.7504114 174.28428,88.3234595 174.104831,87.782048 L174.010574,87.5022583" id="Fill-125" fill="#9AE0E6"></path>
                    <path d="M174.011481,79.9395766 C173.22843,79.9395766 172.537823,80.4373844 172.291306,81.1822793 L170.765082,85.7715586 L166.188223,87.2995015 C165.445049,87.5484054 164.948392,88.2387958 164.948392,89.0236607 C164.948392,89.8085255 165.445049,90.4989159 166.188223,90.7478198 L170.765082,92.2775796 L172.291306,96.865042 C172.537823,97.6099369 173.22843,98.1077447 174.011481,98.1077447 C174.794532,98.1077447 175.483326,97.6099369 175.729842,96.865042 L177.256066,92.2775796 L181.834739,90.7478198 C182.577912,90.4989159 183.074569,89.8085255 183.074569,89.0236607 C183.074569,88.2387958 182.577912,87.5484054 181.834739,87.2995015 L177.256066,85.7697417 L175.729842,81.1822793 C175.483326,80.4373844 174.794532,79.9395766 174.011481,79.9395766 M173.917225,87.780958 L174.011481,87.502985 L174.103924,87.780958 C174.283373,88.3223694 174.711151,88.7511381 175.249499,88.931003 L175.528642,89.0236607 L175.249499,89.1181351 C174.711151,89.298 174.283373,89.724952 174.103924,90.2663634 L174.011481,90.5461532 L173.917225,90.2663634 C173.737775,89.724952 173.31181,89.298 172.77165,89.1181351 L172.492507,89.0236607 L172.77165,88.931003 C173.31181,88.7511381 173.737775,88.3223694 173.917225,87.780958" id="Fill-127" fill="#9AE0E6"></path>
                    <path d="M210.263472,106.370083 C208.262342,106.370083 206.638237,107.99795 206.638237,110.003716 C206.638237,112.009482 208.262342,113.63735 210.263472,113.63735 C212.266415,113.63735 213.888708,112.009482 213.888708,110.003716 C213.888708,107.99795 212.266415,106.370083 210.263472,106.370083" id="Fill-129" fill="#9AE0E6"></path>
                    <path d="M3.6252354,121.726545 C1.62229284,121.726545 0,123.354413 0,125.360179 C0,127.367761 1.62229284,128.993812 3.6252354,128.993812 C5.62636535,128.993812 7.25047081,127.367761 7.25047081,125.360179 C7.25047081,123.354413 5.62636535,121.726545 3.6252354,121.726545" id="Fill-131" fill="#9AE0E6"></path>
                </g>
            </g>
        </g>
    </g>
</svg>