<?xml version="1.0" encoding="UTF-8"?>
<svg width="220px" height="220px" viewBox="0 0 220 220" version="1.1" xmlns="http://www.w3.org/2000/svg" xmlns:xlink="http://www.w3.org/1999/xlink">
    <!-- Generator: Sketch 44 (41411) - http://www.bohemiancoding.com/sketch -->
    <title>about-culture-02</title>
    <desc>Created with Sketch.</desc>
    <defs></defs>
    <g id="______Slice" stroke="none" stroke-width="1" fill="none" fill-rule="evenodd">
        <g id="about" transform="translate(-1170.000000, -5899.000000)">
            <g id="Rocket" transform="translate(1177.000000, 5916.000000)">
                <path d="M154.380132,25.923052 C154.360108,25.9266927 154.340085,25.9303333 154.320061,25.9339739 C154.340085,25.9303333 154.360108,25.9266927 154.380132,25.923052 M154.192639,25.9558178 C152.361395,26.2780148 150.542893,26.6366182 148.737134,27.031628 L148.737134,27.0334483 C150.544714,26.6366182 152.359575,26.2780148 154.192639,25.9558178 M176.99763,27.4812475 C176.990349,27.7761396 176.981247,28.0728521 176.972146,28.3677442 C176.972146,28.3932287 176.970325,28.4187132 176.970325,28.4441977 C176.981247,28.1238211 176.990349,27.8034444 176.99763,27.4812475" id="Fill-38" fill="#9AE0E6"></path>
                <path d="M159.230015,25.1727154 C157.604468,25.3929743 155.988022,25.6441787 154.380678,25.9226879 C154.360654,25.9263286 154.340631,25.9299692 154.320607,25.9336099 C154.27692,25.9408912 154.235052,25.9481725 154.193185,25.9554537 C152.360121,26.2776507 150.543439,26.6362541 148.73768,27.0349046 L148.739501,27.0403655 C152.18901,26.279471 155.685849,25.6551006 159.230015,25.1727154 M177.009098,27.0785923 C177.007278,27.1131784 177.007278,27.1495848 177.005458,27.184171 C177.007278,27.1495848 177.007278,27.1131784 177.009098,27.0785923 M177.005458,27.2205774 C176.996356,27.5846418 176.985434,27.9468858 176.974512,28.3109502 C176.972692,28.3291534 176.972692,28.3491769 176.972692,28.3673801 C176.981793,28.0743083 176.990895,27.7757756 176.998176,27.4827037 C176.999997,27.3953283 177.003637,27.3079528 177.005458,27.2205774" id="Fill-40" fill="#8CD5E6"></path>
                <path d="M176.973966,28.3104041 C176.893872,30.7387134 176.750067,33.1506398 176.538909,35.544363 C176.748246,33.1961478 176.892052,30.8279091 176.970325,28.4432876 C176.970325,28.4178031 176.972146,28.3941389 176.972146,28.3686544 C176.972146,28.3486308 176.973966,28.3286073 176.973966,28.3104041" id="Fill-42" fill="#9AE0E6"></path>
                <path d="M167.614053,135.494593 L167.521217,135.774923 C167.341005,136.317379 166.911409,136.745154 166.370774,136.925366 L166.090444,137.020023 L166.370774,137.112859 C166.911409,137.294891 167.341005,137.722667 167.521217,138.265123 L167.614053,138.545452 L167.70871,138.265123 C167.888922,137.722667 168.316698,137.294891 168.859153,137.112859 L169.139483,137.020023 L168.859153,136.925366 C168.316698,136.745154 167.888922,136.317379 167.70871,135.774923 L167.614053,135.494593" id="Fill-68" fill="#99D4DB"></path>
                <path d="M167.614964,127.918414 C166.828585,127.918414 166.135042,128.417182 165.887478,129.161694 L164.354767,133.759826 L159.758455,135.292537 C159.010302,135.541921 158.513354,136.233644 158.513354,137.020023 C158.513354,137.806402 159.012123,138.498124 159.758455,138.745688 L164.354767,140.280219 L165.887478,144.876532 C166.135042,145.622864 166.828585,146.121632 167.614964,146.121632 C168.401343,146.121632 169.093065,145.622864 169.340629,144.876532 L170.87334,140.280219 L175.471472,138.745688 C176.217804,138.498124 176.716573,137.806402 176.716573,137.020023 C176.716573,136.233644 176.217804,135.541921 175.471472,135.292537 L170.87334,133.759826 L169.340629,129.161694 C169.093065,128.417182 168.401343,127.918414 167.614964,127.918414 M167.520307,135.774923 L167.614964,135.494593 L167.7078,135.774923 C167.888012,136.317379 168.317608,136.745154 168.858243,136.927186 L169.138573,137.020023 L168.858243,137.112859 C168.317608,137.294891 167.888012,137.722667 167.7078,138.265123 L167.614964,138.545452 L167.520307,138.265123 C167.340095,137.722667 166.912319,137.294891 166.369863,137.112859 L166.089534,137.020023 L166.369863,136.927186 C166.912319,136.745154 167.340095,136.317379 167.520307,135.774923" id="Fill-70" fill="#99D4DB"></path>
                <path d="M180.356488,98.7932647 C178.346853,98.7932647 176.715844,100.422453 176.715844,102.433908 C176.715844,104.443544 178.346853,106.074552 180.356488,106.074552 C182.367944,106.074552 183.997132,104.443544 183.997132,102.433908 C183.997132,100.422453 182.367944,98.7932647 180.356488,98.7932647" id="Fill-72" fill="#99D4DB"></path>
                <path d="M136.668947,167.964583 C134.659311,167.964583 133.028303,169.593772 133.028303,171.605227 C133.028303,173.614862 134.659311,175.245871 136.668947,175.245871 C138.678582,175.245871 140.30959,173.614862 140.30959,171.605227 C140.30959,169.593772 138.678582,167.964583 136.668947,167.964583" id="Fill-74" fill="#99D4DB"></path>
                <path d="M198.559524,68.1008186 C198.508555,68.1572486 198.455766,68.2118582 198.397516,68.2628272 C198.455766,68.3137963 198.508555,68.3665856 198.559524,68.4248359 C198.610493,68.3665856 198.663283,68.3137963 198.721533,68.2628272 C198.663283,68.2118582 198.610493,68.1572486 198.559524,68.1008186" id="Fill-76" fill="#99D4DB"></path>
                <path d="M198.56007,60.9822681 C197.773691,60.9822681 197.080149,61.4810363 196.832585,62.2255479 L195.754954,65.4584395 L192.522063,66.53607 C191.777551,66.7836337 191.278783,67.4771764 191.278783,68.2635554 C191.278783,69.0499344 191.777551,69.7416567 192.522063,69.9892205 L195.754954,71.066851 L196.832585,74.2997425 C197.080149,75.0460745 197.773691,75.5448426 198.56007,75.5448426 C199.346449,75.5448426 200.038172,75.0460745 200.285735,74.2997425 L201.363366,71.066851 L204.596257,69.9892205 C205.342589,69.7416567 205.841358,69.0499344 205.841358,68.2635554 C205.841358,67.4771764 205.342589,66.7836337 204.596257,66.53607 L201.363366,65.4584395 L200.285735,62.2255479 C200.038172,61.4810363 199.346449,60.9822681 198.56007,60.9822681 M198.398062,68.2635554 C198.454492,68.2125864 198.509101,68.1579767 198.56007,68.1015467 C198.611039,68.1579767 198.663829,68.2125864 198.722079,68.2635554 C198.663829,68.3127041 198.611039,68.3673137 198.56007,68.425564 C198.509101,68.3673137 198.454492,68.3127041 198.398062,68.2635554" id="Fill-78" fill="#99D4DB"></path>
                <path d="M56.5747868,18.6981947 C54.5633312,18.6981947 52.9341431,20.3273828 52.9341431,22.3388384 C52.9341431,24.3484736 54.5633312,25.979482 56.5747868,25.979482 C58.5844221,25.979482 60.2154304,24.3484736 60.2154304,22.3388384 C60.2154304,20.3273828 58.5844221,18.6981947 56.5747868,18.6981947" id="Fill-80" fill="#99D4DB"></path>
                <path d="M42.0125763,57.1792518 C41.9616073,57.2356818 41.908818,57.2902914 41.8505677,57.3412604 C41.908818,57.3922294 41.9616073,57.4450188 42.0125763,57.5032691 C42.0635453,57.4450188 42.1163347,57.3922294 42.174585,57.3412604 C42.1163347,57.2902914 42.0635453,57.2356818 42.0125763,57.1792518" id="Fill-82" fill="#99D4DB"></path>
                <path d="M42.0131224,50.0599732 C41.2267434,50.0599732 40.5332008,50.5587413 40.285637,51.303253 L39.2080065,54.5361445 L35.975115,55.613775 C35.2306033,55.8613388 34.7318352,56.5548814 34.7318352,57.3412604 C34.7318352,58.1276394 35.2306033,58.8193617 35.975115,59.0687458 L39.2080065,60.144556 L40.285637,63.3774476 C40.5332008,64.1237795 41.2267434,64.6225477 42.0131224,64.6225477 C42.7995014,64.6225477 43.4912237,64.1237795 43.7387875,63.3774476 L44.816418,60.144556 L48.0493096,59.0687458 C48.7956415,58.8193617 49.2944097,58.1276394 49.2944097,57.3412604 C49.2944097,56.5548814 48.7956415,55.8613388 48.0493096,55.613775 L44.816418,54.5361445 L43.7387875,51.303253 C43.4912237,50.5587413 42.7995014,50.0599732 42.0131224,50.0599732 M41.8511138,57.3412604 C41.9075438,57.2902914 41.9621534,57.2356818 42.0131224,57.1792518 C42.0622711,57.2356818 42.1168808,57.2902914 42.1751311,57.3412604 C42.1168808,57.3922294 42.0622711,57.4450188 42.0131224,57.5032691 C41.9621534,57.4450188 41.9075438,57.3922294 41.8511138,57.3412604" id="Fill-84" fill="#99D4DB"></path>
                <path d="M3.78581823,139.25556 C1.77436263,139.25556 0.145174604,140.886568 0.145174604,142.896204 C0.145174604,144.905839 1.77436263,146.536847 3.78581823,146.536847 C5.79545352,146.536847 7.42646186,144.905839 7.42646186,142.896204 C7.42646186,140.886568 5.79545352,139.25556 3.78581823,139.25556" id="Fill-86" fill="#99D4DB"></path>
                <path d="M109.364483,8.07224817 L109.271647,8.35257773 C109.089615,8.89503363 108.661839,9.32280926 108.121204,9.50302112 L107.839054,9.59767785 L108.121204,9.69051426 C108.661839,9.87072612 109.089615,10.2985018 109.271647,10.8409577 L109.364483,11.1212872 L109.45732,10.8409577 C109.639352,10.2985018 110.067128,9.87072612 110.609584,9.69051426 L110.889913,9.59767785 L110.609584,9.50302112 C110.067128,9.32280926 109.639352,8.89503363 109.45732,8.35257773 L109.364483,8.07224817" id="Fill-88" fill="#99D4DB"></path>
                <path d="M109.364483,0.494976588 C108.578104,0.494976588 107.886382,0.993744765 107.638818,1.74007671 L106.104287,6.33820961 L101.507975,7.86910026 C100.761643,8.11848435 100.262874,8.81020664 100.262874,9.59658566 C100.262874,10.3829647 100.761643,11.074687 101.507975,11.3240711 L106.106107,12.856782 L107.638818,17.4530946 C107.886382,18.1994266 108.578104,18.6981947 109.364483,18.6981947 C110.150862,18.6981947 110.842585,18.1994266 111.091969,17.4530946 L112.62468,12.856782 L117.220992,11.3240711 C117.967324,11.074687 118.466093,10.3829647 118.466093,9.59658566 C118.466093,8.81020664 117.967324,8.11848435 117.220992,7.86910026 L112.622859,6.33638929 L111.091969,1.74007671 C110.842585,0.993744765 110.150862,0.494976588 109.364483,0.494976588 M109.271647,8.35148554 L109.364483,8.0729763 L109.45732,8.35148554 C109.639352,8.89394144 110.067128,9.32353739 110.609584,9.50374925 L110.889913,9.59658566 L110.609584,9.69124239 C110.067128,9.87145425 109.639352,10.2992299 109.45732,10.8416858 L109.364483,11.1220153 L109.271647,10.8416858 C109.089615,10.2992299 108.661839,9.87145425 108.121204,9.69124239 L107.839054,9.59658566 L108.121204,9.50374925 C108.661839,9.32353739 109.089615,8.89394144 109.271647,8.35148554" id="Fill-90" fill="#99D4DB"></path>
                <path d="M167.614053,0.911284187 C165.604418,0.911284187 163.97341,2.54047221 163.97341,4.55192782 C163.97341,6.5615631 165.604418,8.19257144 167.614053,8.19257144 C169.625509,8.19257144 171.254697,6.5615631 171.254697,4.55192782 C171.254697,2.54047221 169.625509,0.911284187 167.614053,0.911284187" id="Fill-92" fill="#99D4DB"></path>
                <path d="M58.2123187,163.120989 C51.0405604,166.616264 42.9664945,167.684835 35.2492418,166.350989 C34.7093516,166.257582 34.2778132,165.826044 34.1844066,165.286154 C32.8486923,157.570769 33.9097912,149.506044 37.3826484,142.334286 C35.0325385,143.763407 32.8244066,145.504505 30.7956154,147.533297 C30.2258352,148.101209 29.6840769,148.687802 29.161,149.283736 C28.5688022,149.804945 27.9840769,150.342967 27.4199011,150.907143 C18.7611099,159.567802 15.5479231,171.60044 17.7560549,182.777473 C28.9368242,184.989341 40.9694615,181.774286 49.6263846,173.115495 C50.1924286,172.553187 50.7248462,171.972198 51.2441868,171.38 C51.8438571,170.856923 52.4304505,170.313297 53.0020989,169.73978 C55.0420989,167.701648 56.7831978,165.469231 58.2123187,163.120989" id="Fill-205" fill="#F9D89F"></path>
                <path d="M110.190659,170.660022 C103.295385,177.555297 95.0401099,182.296615 86.2935165,184.859692 C85.6732967,185.03156 85.0530769,185.203429 84.430989,185.375297 C86.0824176,183.30167 87.5227473,181.12156 88.751978,178.836835 C89.2918681,177.872879 89.7813187,176.882769 90.2296703,175.877714 C94.7748352,165.786066 95.3950549,154.386725 92.1332967,143.936396 C104.483516,139.880681 116.041648,134.055846 126.518132,126.777604 C127.270989,137.041121 125.21044,147.476505 120.347692,156.828374 C117.745385,161.808813 114.364066,166.484747 110.190659,170.660022" id="Fill-206" fill="#7AC9D0"></path>
                <path d="M56.5986264,108.402286 L56.1633516,108.284593 C42.3709341,104.109319 26.9831319,106.711626 15.1597253,116.104593 C15.5426923,114.63811 15.9798352,113.171626 16.4804945,111.744374 C16.6392857,111.294154 16.7980769,110.84767 16.9699451,110.410527 C19.6899451,103.093055 23.995989,96.2220659 29.875,90.3430549 C41.2500549,78.9717363 56.2941209,73.4887692 71.1812637,73.8978901 C72.0406044,73.9128352 72.9260989,73.9520659 73.7835714,74.0174505 C72.1209341,76.3955824 70.547967,78.8390989 69.0553297,81.3349231 C65.1845604,87.7407473 61.8443407,94.4921758 59.0832418,101.533165 L59.0290659,101.63778 C58.1697253,103.872066 57.3514835,106.11756 56.5986264,108.402286" id="Fill-207" fill="#7AC9D0"></path>
                <path d="M145.077648,111.282198 C130.097099,126.262747 111.604462,137.727473 90.9429231,144.333187 L56.2012747,109.591538 C73.5991868,55.312967 124.470286,16.0130769 184.534462,16 C184.534462,53.1982418 169.462374,86.8974725 145.077648,111.282198" id="Fill-208" fill="#E7F0FA"></path>
                <polygon id="Fill-209" fill="#E7F0FA" points="76.2149451 150.739011 49.7958242 124.31989 57.7223077 111.11033 89.4245055 142.812527"></polygon>
                <path d="M144.90522,84.6904615 C136.881593,92.715956 123.870055,92.715956 115.84456,84.6904615 C107.819066,76.6668352 107.819066,63.6552967 115.84456,55.6298022 C123.870055,47.6043077 136.881593,47.6043077 144.90522,55.6298022 C152.930714,63.6552967 152.930714,76.6668352 144.90522,84.6904615" id="Fill-210" fill="#7AC9D0"></path>
                <path d="M27.8021209,150.532956 C27.6732198,150.656253 27.5461868,150.781418 27.4191538,150.908451 C26.7260769,151.601527 26.0666264,152.317022 25.4445385,153.051198 C18.2802527,161.489549 15.7246484,172.494714 17.7571758,182.77878 C20.0325604,183.227132 22.3471758,183.453176 24.6580549,183.453176 C32.7881648,183.453176 40.9126703,180.669659 47.4828901,175.093286 C48.2170659,174.46933 48.9325604,173.809879 49.6275055,173.114934 C49.7713516,172.972956 49.9114615,172.82911 50.0534396,172.681527 C44.6676154,175.111967 38.8502527,176.324385 33.0422308,176.324385 C30.679044,176.324385 28.3158571,176.124495 25.9862967,175.720978 C25.3828901,175.62944 24.9121209,175.138121 24.8168462,174.553396 C23.4138791,166.496143 24.4151978,158.097022 27.8021209,150.532956" id="Fill-211" fill="#F6C174"></path>
                <path d="M123.972615,129.163396 C123.535473,129.451088 123.096462,129.73878 122.655582,130.020868 C120.423165,140.116253 115.375473,149.684824 107.548,157.512297 C103.148549,161.911747 98.1961319,165.431308 92.9130549,168.056033 C92.2666813,170.721857 91.3718462,173.340978 90.2304176,175.877901 C89.7820659,176.881088 89.2926154,177.873066 88.7508571,178.837022 C88.4949231,179.313396 88.2296484,179.786033 87.955033,180.253066 C88.054044,180.21944 88.1549231,180.185813 88.2558022,180.154055 C87.8242637,181.226363 87.3553626,182.283725 86.836022,183.324275 C87.4226154,183.152407 87.9998681,182.945044 88.5808571,182.754495 C88.3604176,183.296253 88.1287692,183.834275 87.8877802,184.366692 C96.0403077,181.710209 103.714593,177.135154 110.191407,170.660209 C114.364813,166.484934 117.746132,161.809 120.34844,156.82856 C121.529099,154.55878 122.543495,152.223615 123.393495,149.843615 C124.243495,145.418011 124.555473,140.910209 124.335033,136.41922 C124.434044,134.21856 124.417231,132.010429 124.25844,129.811637 L123.998769,129.985374 C123.991297,129.710758 123.981956,129.436143 123.972615,129.163396" id="Fill-212" fill="#ABDBE2"></path>
                <path d="M69.6309011,73.8765934 C63.7070549,73.8765934 57.7776044,74.8106593 52.0872747,76.6731868 C44.568044,79.3913187 37.513978,83.7627473 31.4873846,89.7893407 C25.6083736,95.6683516 21.3023297,102.537473 18.5804615,109.854945 C18.8644176,109.647582 19.153978,109.457033 19.4416703,109.259011 C18.6962857,110.807692 18.0144176,112.378791 17.4184835,113.976044 C19.9012308,112.154615 22.5315604,110.635824 25.2384835,109.38044 C26.8637582,107.174176 28.6870549,105.061319 30.6952967,103.053077 C40.5235385,93.222967 53.082989,87.7885714 65.9338681,86.7610989 C67.6525495,83.5834066 69.4963956,80.4804396 71.4579341,77.4615385 C71.3421099,77.4596703 71.2262857,77.4596703 71.1123297,77.4596703 L70.7573846,77.4596703 C70.6452967,77.4615385 70.5332088,77.4615385 70.4211209,77.4615385 L70.2828791,77.4615385 C70.9796923,76.2752747 71.6895824,75.0964835 72.420022,73.9363736 C72.0052967,73.9158242 71.5905714,73.9046154 71.1814505,73.899011 C70.6658462,73.8840659 70.1483736,73.8765934 69.6309011,73.8765934" id="Fill-213" fill="#49B1BC"></path>
                <path d="M128.778945,51.0157033 C124.291692,51.0157033 119.802571,52.7287802 116.374549,56.1586703 C109.533451,63.0147143 109.533451,74.1114176 116.374549,80.9693297 C117.458066,82.0528462 118.655538,82.9626264 119.929604,83.7098791 C115.974769,76.9995495 116.884549,68.1969121 122.655209,62.4411978 C126.075758,59.0113077 130.563011,57.2982308 135.054,57.3000989 C138.123341,57.3000989 141.194549,58.0996593 143.925758,59.6969121 C143.178505,58.4396593 142.268725,57.2421868 141.185209,56.1586703 C137.755319,52.7287802 133.268066,51.0157033 128.778945,51.0157033" id="Fill-214" fill="#49B1BC"></path>
                <path d="M178.088286,57.8142088 L178.125648,57.8515714 C171.531143,78.4944286 160.060813,96.9889341 145.078396,111.971352 C144.181692,112.886736 143.228945,113.746077 142.31356,114.624099 L142.145429,114.754868 C139.324549,117.426297 136.391582,119.966956 133.346527,122.376846 L132.95422,122.675747 C127.910264,126.654868 122.567407,130.260363 116.963011,133.492231 C116.794879,133.585637 116.608066,133.679044 116.439934,133.791132 C113.058615,135.715308 109.602571,137.490033 106.03444,139.133989 L105.847626,139.227396 C103.49378,140.292231 101.08389,141.319703 98.6553187,142.253769 L98.5058681,142.309813 C92.9388352,144.476846 87.184989,146.270253 81.3003736,147.690033 C79.095978,148.231791 76.8542198,148.698824 74.6124615,149.128495 L59.9663077,134.484209 C66.2619121,134.015308 72.4080659,133.118604 78.4234505,131.810912 C85.3168571,130.297725 92.0234505,128.280143 98.5058681,125.758165 L98.6553187,125.702121 C101.08389,124.749374 103.49378,123.740582 105.847626,122.657066 L106.03444,122.563659 C109.602571,120.940253 113.058615,119.144978 116.439934,117.220802 C116.608066,117.127396 116.794879,117.033989 116.963011,116.921901 C122.567407,113.708714 127.910264,110.084538 132.95422,106.105418 L133.346527,105.806516 C136.391582,103.396626 139.324549,100.855967 142.145429,98.2032198 L142.31356,98.0537692 C143.228945,97.1757473 144.181692,96.3164066 145.078396,95.4197033 C160.060813,80.4372857 171.531143,61.9427802 178.125648,41.2812418 L178.088286,41.2438791 C180.628945,33.3603626 182.459714,25.1405824 183.487187,16.6966264 C183.823451,16.6779451 184.178396,16.6779451 184.514659,16.6779451 C184.514659,31.0251978 182.25422,44.8306923 178.088286,57.8142088" id="Fill-215" fill="#FEFEFE"></path>
                <path d="M169.038681,32.940967 C120.661538,39.6737143 80.3005495,71.4842637 61.5351648,114.811846 L56.7714286,110.04811 C71.213956,64.9607473 108.18989,29.9949231 154.461648,18.3639341 L169.038681,32.940967" id="Fill-216" fill="#B5D5EC"></path>
                <path d="M184.533714,16.0046703 C178.331516,16.0046703 172.230198,16.425 166.252176,17.2357692 C162.614923,17.7308242 159.026242,18.3715934 155.486132,19.1524725 L155.57767,19.4793956 L169.046901,32.9486264 C173.829319,32.2966484 178.686462,31.8464286 183.61833,31.696978 C183.769648,30.4322527 183.902286,29.1581868 184.016242,27.8785165 C184.231077,25.4237912 184.380527,22.9466484 184.460857,20.4545604 C184.473934,20.0828022 184.485143,19.7091758 184.494484,19.3374176 L184.494484,19.2981868 C184.494484,19.2626923 184.496352,19.2271978 184.496352,19.1917033 C184.522505,18.1324725 184.533714,17.0695055 184.533714,16.0046703" id="Fill-217" fill="#49B1BC"></path>
                <polygon id="Fill-218" fill="#B5D5EC" points="61.8783407 116.926571 54.530978 129.134813 50.5257033 125.11833 58.0505385 112.624264"></polygon>
                <path d="M110.030934,171.119769 C103.135659,178.015044 94.8803846,182.756363 86.1337912,185.31944 C85.5135714,185.491308 84.8914835,185.663176 84.2712637,185.835044 C85.9226923,183.761418 87.363022,181.581308 88.5903846,179.296582 C89.1321429,178.332626 89.6215934,177.342516 90.0699451,176.335593 C94.6151099,166.245813 95.2353297,154.844604 91.9735714,144.396143 C104.323791,140.340429 115.881923,134.515593 126.358407,127.237352 C127.111264,137.500868 125.050714,147.936253 120.187967,157.288121 C117.585659,162.26856 114.204341,166.944495 110.030934,171.119769" id="Stroke-272" stroke="#395590" stroke-width="7.11018" stroke-linecap="round" stroke-linejoin="round"></path>
                <path d="M56.4389011,108.862033 L56.0036264,108.744341 C42.2112088,104.569066 26.8234066,107.171374 15,116.564341 C15.382967,115.095989 15.8182418,113.631374 16.3207692,112.204121 C16.4795604,111.753901 16.6383516,111.307418 16.8102198,110.870275 C19.5302198,103.552802 23.8362637,96.6818132 29.7152747,90.8028022 C41.0903297,79.4314835 56.1343956,73.9485165 71.0215385,74.3576374 C71.8808791,74.3707143 72.7663736,74.4118132 73.6238462,74.4771978 C71.9612088,76.8553297 70.3882418,79.2988462 68.8956044,81.7946703 C65.0248352,88.2004945 61.6846154,94.9519231 58.9235165,101.992912 L58.8693407,102.097527 C58.01,104.329945 57.1917582,106.577308 56.4389011,108.862033" id="Stroke-273" stroke="#395590" stroke-width="7.11018" stroke-linecap="round" stroke-linejoin="round"></path>
                <path d="M144.917923,111.741758 C129.937374,126.722308 111.444736,138.187033 90.7831978,144.792747 L56.0415495,110.051099 C73.4394615,55.7725275 124.31056,16.4726374 184.374736,16.4595604 C184.374736,53.6578022 169.302648,87.357033 144.917923,111.741758" id="Stroke-274" stroke="#395590" stroke-width="7.11018" stroke-linecap="round" stroke-linejoin="round"></path>
                <polygon id="Stroke-275" stroke="#395590" stroke-width="7.11018" stroke-linecap="round" stroke-linejoin="round" points="76.0552198 151.198758 49.6360989 124.779637 57.5625824 111.570077 89.2647802 143.272275"></polygon>
                <path d="M36.2406593,139.53489 C21.757033,147.622033 13.6605495,164.01489 16.4496703,184.351374 C32.3736264,186.538956 45.9138462,182.066648 54.9201099,173.062253 C57.4103297,170.570165 59.5325275,167.715659 61.2848352,164.577198" id="Stroke-276" stroke="#395590" stroke-width="7.11018" stroke-linecap="round" stroke-linejoin="round"></path>
                <path d="M144.930813,84.6648681 C136.907187,92.6903626 123.895648,92.6903626 115.870154,84.6648681 C107.844659,76.6393736 107.844659,63.6278352 115.870154,55.6042088 C123.895648,47.5787143 136.907187,47.5787143 144.930813,55.6042088 C152.956308,63.6278352 152.956308,76.6393736 144.930813,84.6648681 Z" id="Stroke-277" stroke="#395590" stroke-width="7.11018" stroke-linecap="round" stroke-linejoin="round"></path>
                <path d="M151.734736,20.1778901 L180.38067,48.8238242" id="Stroke-278" stroke="#395590" stroke-width="7.11018"></path>
                <path d="M97.3508022,103.18478 L97.3508022,103.18478 C94.4757473,100.309725 89.7811319,100.427418 87.0536593,103.442582 L44.3761868,150.611044 C42.9732198,152.163462 43.0311319,154.543462 44.5106923,156.023022 C45.9921209,157.504451 48.3721209,157.562363 49.9245385,156.157527 L97.093,113.481923 C100.108165,110.754451 100.225857,106.059835 97.3508022,103.18478" id="Fill-535" fill="#7AC9D0"></path>
                <path d="M97.5004396,103.335165 L97.5004396,103.335165 C94.6253846,100.46011 89.9307692,100.577802 87.2032967,103.592967 L44.5258242,150.761429 C43.1228571,152.313846 43.1807692,154.693846 44.6603297,156.173407 C46.1417582,157.654835 48.5217582,157.712747 50.0741758,156.307912 L97.2426374,113.632308 C100.257802,110.904835 100.375495,106.21022 97.5004396,103.335165 Z" id="Stroke-537" stroke="#395590" stroke-width="7.11018" stroke-linecap="round" stroke-linejoin="round"></path>
            </g>
        </g>
    </g>
</svg>