<?xml version="1.0" encoding="UTF-8"?>
<svg width="360px" height="360px" viewBox="0 0 360 360" version="1.1" xmlns="http://www.w3.org/2000/svg" xmlns:xlink="http://www.w3.org/1999/xlink">
    <!-- Generator: Sketch 44 (41411) - http://www.bohemiancoding.com/sketch -->
    <title>about-culture-01</title>
    <desc>Created with Sketch.</desc>
    <defs>
        <path d="M1.03813366,40.6437941 C-0.252499907,26.3591408 4.47993569,11.6340437 15.2354405,0.579388119 L35.8177857,0.579388119 L35.8177857,40.6437941 L1.03813366,40.6437941 L1.03813366,40.6437941 Z" id="path-1"></path>
        <path d="M0.863142857,1.23783168 C0.960571429,1.32571287 1.05485714,1.41673267 1.14285714,1.51716832 C1.23085714,1.41673267 1.322,1.32571287 1.42257143,1.23783168 C1.322,1.1499505 1.23085714,1.05579208 1.14285714,0.95849505 C1.05485714,1.05579208 0.960571429,1.1499505 0.863142857,1.23783168 Z" id="path-3"></path>
    </defs>
    <g id="Assets" stroke="none" stroke-width="1" fill="none" fill-rule="evenodd">
        <g id="Comet" transform="translate(15.000000, 22.000000)">
            <g id="Page-1">
                <g id="Group-32" transform="translate(9.285714, 0.000000)">
                    <path d="M129.847629,185.225297 C149.754486,205.105277 149.754486,237.335703 129.847629,257.215683 C109.943914,277.095663 77.6667714,277.095663 57.7630571,257.215683 C37.8562,237.335703 37.8562,205.105277 57.7630571,185.225297 C77.6667714,165.345317 109.943914,165.345317 129.847629,185.225297" id="Fill-2" fill="#78D5DD"></path>
                    <path d="M94.0275429,177.224343 C69.2398286,177.224343 49.1318286,197.302055 49.1318286,222.059442 C49.1318286,235.379719 54.9838286,247.322145 64.2364,255.517065 C64.5506857,255.878006 64.8712571,256.235808 65.1981143,256.587333 C66.3766857,257.120897 67.5835429,257.610521 68.8092571,258.053065 C65.0221143,251.480808 62.8566857,243.857115 62.8566857,235.765768 C62.8566857,211.011521 82.9646857,190.930669 107.7524,190.930669 C116.715829,190.930669 125.107257,193.579659 132.131543,198.140065 C131.936686,197.490372 131.729257,196.843818 131.506114,196.206679 C130.261543,194.828828 128.932114,193.526303 127.527257,192.308521 C119.3244,183.068442 107.365829,177.224343 94.0275429,177.224343" id="Fill-4" fill="#48BBC7"></path>
                    <path d="M136.226057,249.46111 C134.393771,252.197981 132.2692,254.799892 129.846057,257.216625 C119.895771,267.156615 106.849771,272.125041 93.8037714,272.125041 C86.8674857,272.125041 79.9280571,270.718942 73.4537714,267.906744 C74.6669143,268.713367 75.9146286,269.463496 77.1969143,270.153991 C82.6937714,272.206645 88.4860571,273.232971 94.2783429,273.232971 C106.780629,273.232971 119.292343,268.456001 128.834057,258.927169 C131.7412,256.017674 134.2052,252.83512 136.226057,249.46111" id="Fill-6" fill="#9AE0E6"></path>
                    <path d="M128.732543,189.78382 C129.8074,191.84275 130.734543,193.989562 131.504543,196.205424 C132.494543,197.303939 133.431114,198.449533 134.304829,199.642206 C133.594543,199.121196 132.871686,198.619018 132.133114,198.13881 C133.465686,202.567394 134.179114,207.256483 134.179114,212.099364 C134.179114,239.050642 112.285971,260.914226 85.2982571,260.914226 C79.5216857,260.914226 73.9682571,259.903592 68.8108286,258.05181 C69.6562571,259.517543 70.5802571,260.929919 71.5796857,262.282661 C69.2696857,260.594087 67.1388286,258.682671 65.1996857,256.589216 C62.0725429,255.173701 59.1214,253.441186 56.3871143,251.429335 C58.5902571,254.461236 61.1736857,257.216939 63.9991143,259.65878 C66.7742571,262.791117 69.9548286,265.581345 73.4559714,267.907057 C79.9271143,270.719255 86.8665429,272.125354 93.8059714,272.125354 C106.848829,272.125354 119.894829,267.15379 129.848257,257.2138 C132.268257,254.797067 134.392829,252.198295 136.225114,249.461424 C147.457686,230.708206 144.993686,206.051255 128.836257,189.887394 L128.732543,189.78382" id="Fill-8" fill="#A8EFF3"></path>
                    <path d="M131.506114,196.206365 C131.729257,196.843504 131.936686,197.490058 132.131543,198.139751 C132.873257,198.619959 133.596114,199.118999 134.303257,199.643148 C133.429543,198.447336 132.496114,197.301742 131.506114,196.206365 M65.1981143,256.587019 C67.1404,258.680474 69.2712571,260.595029 71.5781143,262.283603 C70.5786857,260.927722 69.6546857,259.515346 68.8092571,258.052751 C67.5835429,257.610207 66.3766857,257.123722 65.1981143,256.587019" id="Fill-10" fill="#88E6EC"></path>
                    <path d="M93.8056571,314.717914 C69.8193714,314.717914 45.8330857,305.600241 27.5730857,287.364894 C9.8788,269.697637 0.135942857,246.205112 0.135942857,221.218607 C0.135942857,196.235241 9.8788,172.745854 27.5730857,155.075458 C30.0276571,152.624201 34.0065143,152.624201 36.4610857,155.075458 C38.9156571,157.526716 38.9156571,161.50334 36.4610857,163.951458 C21.1428,179.249062 12.7073714,199.58728 12.7073714,221.218607 C12.7073714,242.853072 21.1428,263.19129 36.4610857,278.488894 C68.0782286,310.060211 119.533086,310.060211 151.150229,278.488894 C153.6048,276.034498 157.583657,276.034498 160.038229,278.488894 C162.4928,280.937013 162.4928,284.913637 160.038229,287.364894 C141.778229,305.600241 117.791943,314.717914 93.8056571,314.717914" id="Fill-12" fill="#2D3666"></path>
                    <path d="M34.5914,163.221731 C32.9822571,163.221731 31.3762571,162.609701 30.1474,161.382503 C27.6928286,158.931246 27.6928286,154.95776 30.1474,152.506503 L91.9359714,90.8013545 C94.3905429,88.350097 98.3694,88.350097 100.823971,90.8013545 C103.278543,93.2526119 103.278543,97.226097 100.823971,99.6773545 L39.0354,161.382503 C37.8065429,162.609701 36.2005429,163.221731 34.5914,163.221731" id="Fill-14" fill="#2D3666"></path>
                    <path d="M122.125,137.51052 C120.515857,137.51052 118.909857,136.89849 117.681,135.671292 C115.226429,133.220035 115.226429,129.24655 117.681,126.795292 L174.947,69.6097475 C177.401571,67.1553515 181.380429,67.1553515 183.835,69.6097475 C186.289571,72.0578663 186.289571,76.0344901 183.835,78.4857475 L126.569,135.671292 C125.340143,136.89849 123.734143,137.51052 122.125,137.51052" id="Fill-16" fill="#2D3666"></path>
                    <path d="M163.316543,158.080053 C161.7074,158.080053 160.1014,157.468024 158.872543,156.240826 C156.417971,153.789568 156.417971,149.816083 158.872543,147.364826 L241.2594,65.0923406 C243.713971,62.6379446 247.692829,62.6379446 250.1474,65.0923406 C252.601971,67.5404594 252.601971,71.5170832 250.1474,73.9683406 L167.760543,156.240826 C166.531686,157.468024 164.925686,158.080053 163.316543,158.080053" id="Fill-18" fill="#2D3666"></path>
                    <path d="M266.297286,55.2383485 C264.688143,55.2383485 263.082143,54.6263188 261.853286,53.3991208 C259.398714,50.9478634 259.398714,46.9743782 261.853286,44.5231208 L269.578429,36.8084079 C272.033,34.3571505 276.011857,34.3571505 278.466429,36.8084079 C280.921,39.2596653 280.921,43.2331505 278.466429,45.6844079 L270.741286,53.3991208 C269.512429,54.6263188 267.906429,55.2383485 266.297286,55.2383485" id="Fill-20" fill="#2D3666"></path>
                    <path d="M183.9142,199.216296 C182.305057,199.216296 180.699057,198.604266 179.4702,197.377068 C177.015629,194.925811 177.015629,190.952326 179.4702,188.501068 L236.733057,131.312385 C239.187629,128.861128 243.166486,128.861128 245.621057,131.312385 C248.075629,133.763643 248.075629,137.740266 245.621057,140.188385 L188.3582,197.377068 C187.129343,198.604266 185.523343,199.216296 183.9142,199.216296" id="Fill-22" fill="#2D3666"></path>
                    <path d="M262.955171,120.280471 C261.346029,120.280471 259.740029,119.668442 258.511171,118.444382 C256.0566,115.989986 256.0566,112.016501 258.511171,109.565244 L267.223171,100.861867 C269.680886,98.4106099 273.6566,98.4106099 276.114314,100.861867 C278.568886,103.313125 278.568886,107.28661 276.114314,109.737867 L267.399171,118.441244 C266.170314,119.668442 264.564314,120.280471 262.955171,120.280471" id="Fill-24" fill="#2D3666"></path>
                    <path d="M158.1698,286.6314 C156.560657,286.6314 154.954657,286.01937 153.7258,284.792172 C151.271229,282.340915 151.271229,278.36743 153.7258,275.916172 L220.662371,209.069974 C223.116943,206.615578 227.0958,206.615578 229.550371,209.069974 C232.004943,211.518093 232.004943,215.494717 229.550371,217.945974 L162.6138,284.792172 C161.384943,286.01937 159.778943,286.6314 158.1698,286.6314" id="Fill-26" fill="#2D3666"></path>
                    <path d="M250.850143,194.074619 C249.241,194.074619 247.635,193.462589 246.406143,192.235391 C243.951571,189.784134 243.951571,185.810649 246.406143,183.359391 L278.548143,151.257649 C281.005857,148.806391 284.981571,148.806391 287.439286,151.257649 C289.893857,153.708906 289.893857,157.68553 287.439286,160.136787 L255.294143,192.235391 C254.065286,193.462589 252.459286,194.074619 250.850143,194.074619" id="Fill-28" fill="#2D3666"></path>
                    <path d="M121.333,76.5956743 C119.723857,76.5956743 118.117857,75.9836446 116.889,74.7564465 C114.434429,72.3051891 114.434429,68.331704 116.889,65.8804465 L180.456429,2.39570396 C182.914143,-0.0555534653 186.889857,-0.0555534653 189.347571,2.39570396 C191.802143,4.84696139 191.802143,8.82358515 189.347571,11.2748426 L125.777,74.7564465 C124.548143,75.9836446 122.942143,76.5956743 121.333,76.5956743" id="Fill-30" fill="#2D3666"></path>
                </g>
                <g id="Group-38" transform="translate(51.285714, 185.178218)">
                    <path d="M26.06,10.3316891 C31.7485714,16.0125802 31.7485714,25.2212733 26.06,30.8990257 C20.3714286,36.5799168 11.1502857,36.5799168 5.46485714,30.8990257 C-0.223714286,25.2212733 -0.223714286,16.0125802 5.46485714,10.3316891 C11.1502857,4.65079802 20.3714286,4.65079802 26.06,10.3316891" id="Fill-33" fill="#E8F3FF"></path>
                    <g id="Group-37" transform="translate(-0.000000, 0.000000)">
                        <mask id="mask-2" fill="white">
                            <use xlink:href="#path-1"></use>
                        </mask>
                        <g id="Clip-36"></g>
                        <path d="M15.7608571,11.5645366 C13.3408571,11.5645366 11.0654286,12.5061208 9.35257143,14.2166653 C7.63971429,15.9272099 6.69685714,18.1995663 6.69685714,20.616299 C6.69685714,23.0330317 7.63971429,25.3053881 9.35257143,27.0159327 C12.7814286,30.4401604 18.7497143,30.4338832 22.1722857,27.0159327 C23.8851429,25.3053881 24.828,23.0330317 24.828,20.616299 C24.828,18.1995663 23.8851429,15.9272099 22.1722857,14.2166653 C20.4594286,12.5061208 18.184,11.5645366 15.7608571,11.5645366 M15.7608571,40.6437941 C10.6222857,40.6437941 5.48371429,38.6915762 1.574,34.784002 C-2.21628571,30.9988337 -4.30314286,25.9676356 -4.30314286,20.616299 C-4.30314286,15.2649624 -2.21628571,10.2337644 1.574,6.44859604 C5.36114286,2.66342772 10.4022857,0.579388119 15.7608571,0.579388119 C21.1225714,0.579388119 26.1637143,2.66342772 29.9508571,6.44859604 C37.7734286,14.2606059 37.7734286,26.9719921 29.9508571,34.784002 C26.0411429,38.6915762 20.9025714,40.6437941 15.7608571,40.6437941" id="Fill-35" fill="#2D3666" mask="url(#mask-2)"></path>
                    </g>
                </g>
                <g id="Group-49" transform="translate(45.000000, 163.207921)">
                    <path d="M58.0728286,13.4235376 C46.6234,13.4235376 35.1959714,17.7705178 26.4996857,26.4550624 C9.07568571,43.8555376 9.07568571,72.1689733 26.4996857,89.5694485 C31.0819714,94.1455475 36.4594,97.5980228 42.4842571,99.8327158 C47.3179714,101.631142 52.4376857,102.572726 57.7082571,102.638637 C65.3296857,102.751627 72.8882571,100.827656 79.4568286,97.2025574 C83.2251143,95.1750129 86.6508286,92.6170426 89.6994,89.5725871 C107.091971,72.1721119 107.091971,43.852399 89.6994,26.4519238 C80.9465429,17.761102 69.5034,13.4235376 58.0728286,13.4235376 M58.0634,115.196231 C57.8999714,115.196231 57.7396857,115.196231 57.5762571,115.193092 C50.8316857,115.10835 44.2882571,113.899983 38.1031143,111.599379 C30.3748286,108.733825 23.4794,104.308379 17.6116857,98.4454485 C-4.71517143,76.1518743 -4.71517143,39.8726366 17.6116857,17.5790624 C39.8756857,-4.65487822 76.1505429,-4.71137327 98.4711143,17.4566564 C120.8734,39.8757752 120.8734,76.1487356 98.5936857,98.4423099 L98.5936857,98.4454485 C94.6776857,102.353023 90.2682571,105.645429 85.4785429,108.225369 C77.2128286,112.779498 67.7245429,115.196231 58.0634,115.196231" id="Fill-39" fill="#2D3666"></path>
                    <path d="M83.8360857,52.8702644 C86.6803714,55.7107099 86.6803714,60.3150564 83.8360857,63.155502 C80.9918,65.9959475 76.3812286,65.9959475 73.5369429,63.155502 C70.6926571,60.3150564 70.6926571,55.7107099 73.5369429,52.8702644 C76.3812286,50.0298188 80.9918,50.0298188 83.8360857,52.8702644" id="Fill-41" fill="#2D3666"></path>
                    <path d="M78.6871429,16.875699 C81.5314286,19.7161446 81.5314286,24.3204911 78.6871429,27.1609366 C75.8428571,29.9982436 71.2322857,29.9982436 68.388,27.1609366 C65.5437143,24.3204911 65.5437143,19.7161446 68.388,16.875699 C71.2322857,14.0352535 75.8428571,14.0352535 78.6871429,16.875699" id="Fill-43" fill="#2D3666"></path>
                    <path d="M82.4947143,102.698898 C74.7758571,106.95172 66.1832857,108.98868 57.6284286,108.916492 C52.4207143,103.207353 52.603,94.3721554 58.0998571,88.8827198 C63.7821429,83.1735812 72.9907143,83.1735812 78.673,88.8827198 C82.457,92.6270861 83.733,97.8999574 82.4947143,102.698898" id="Fill-45" fill="#E8F3FF"></path>
                    <path d="M68.3851714,90.0926554 C65.9746,90.0926554 63.7086,91.0373782 62.0020286,92.7542 C59.1231714,95.6291703 58.5668857,99.9447644 60.3866,103.365853 C66.3454571,103.067685 72.1597429,101.617646 77.4586,99.1098931 C77.4648857,96.7622099 76.5377429,94.5024079 74.7997429,92.7855861 C73.0617429,91.0373782 70.7988857,90.0926554 68.3883143,90.0926554 L68.3851714,90.0926554 Z M58.0640286,114.410636 L57.5800286,114.410636 C56.0494571,114.394943 54.5911714,113.74525 53.5603143,112.615349 C46.3443143,104.699764 46.6303143,92.5721604 54.2108857,84.9986851 C57.9854571,81.204101 63.0266,79.1075069 68.3851714,79.1075069 L68.3883143,79.1075069 C73.7500286,79.1075069 78.7880286,81.204101 82.5720286,85.0112396 C87.5597429,89.942002 89.5806,97.2581109 87.8206,104.072042 C87.4403143,105.534636 86.4786,106.777527 85.1523143,107.508824 C76.9526,112.028428 67.5931714,114.410636 58.0640286,114.410636 L58.0640286,114.410636 Z" id="Fill-47" fill="#2D3666"></path>
                </g>
                <g id="Group-52" transform="translate(313.142857, 189.316832)">
                    <mask id="mask-4" fill="white">
                        <use xlink:href="#path-3"></use>
                    </mask>
                    <g id="Clip-51"></g>
                    <polygon id="Fill-50" fill="#9AE0E6" mask="url(#mask-4)" points="0.863142857 1.51716832 1.42257143 1.51716832 1.42257143 0.95849505 0.863142857 0.95849505"></polygon>
                </g>
                <g id="Group-75" transform="translate(0.000000, 2.000000)" fill="#9AE0E6">
                    <path d="M314.286029,176.000208 C312.928314,176.000208 311.730886,176.860188 311.303457,178.14702 L309.442886,183.721198 L303.861171,185.579257 C302.575743,186.006109 301.7146,187.198782 301.7146,188.554663 C301.7146,189.910545 302.575743,191.103218 303.861171,191.533208 L309.442886,193.391267 L311.303457,198.962307 C311.730886,200.249139 312.928314,201.109119 314.286029,201.109119 C315.643743,201.109119 316.838029,200.249139 317.265457,198.962307 L319.126029,193.391267 L324.707743,191.533208 C325.996314,191.103218 326.857457,189.910545 326.857457,188.554663 C326.857457,187.198782 325.996314,186.006109 324.707743,185.579257 L319.126029,183.718059 L317.265457,178.14702 C316.838029,176.860188 315.643743,176.000208 314.286029,176.000208 M314.006314,188.554663 C314.103743,188.466782 314.198029,188.375762 314.286029,188.275327 C314.370886,188.375762 314.465171,188.466782 314.565743,188.554663 C314.465171,188.642545 314.370886,188.736703 314.286029,188.834 C314.198029,188.736703 314.103743,188.642545 314.006314,188.554663" id="Fill-53"></path>
                    <path d="M323.713971,97.5345475 C320.244257,97.5345475 317.428257,100.346746 317.428257,103.811775 C317.428257,107.279944 320.244257,110.089003 323.713971,110.089003 C327.186829,110.089003 329.999686,107.279944 329.999686,103.811775 C329.999686,100.346746 327.186829,97.5345475 323.713971,97.5345475" id="Fill-55"></path>
                    <path d="M229.428886,22.2084426 C225.956029,22.2084426 223.143171,25.0206406 223.143171,28.4856703 C223.143171,31.9507 225.956029,34.762898 229.428886,34.762898 C232.8986,34.762898 235.7146,31.9507 235.7146,28.4856703 C235.7146,25.0206406 232.8986,22.2084426 229.428886,22.2084426" id="Fill-57"></path>
                    <path d="M122.570171,13.301998 L122.409886,13.7853446 C122.098743,14.7206515 121.360171,15.4582257 120.4236,15.7689485 L119.9396,15.9321564 L120.4236,16.0922257 C121.360171,16.4029485 122.098743,17.1405228 122.409886,18.0789683 L122.570171,18.5591762 L122.7336,18.0789683 C123.044743,17.1405228 123.783314,16.4029485 124.719886,16.0922257 L125.203886,15.9321564 L124.719886,15.7689485 C123.783314,15.4582257 123.044743,14.7206515 122.7336,13.7853446 L122.570171,13.301998" id="Fill-59"></path>
                    <path d="M122.571743,0.238773267 C121.214029,0.238773267 120.0166,1.09875347 119.589171,2.38244653 L116.942886,10.3105851 L109.007171,12.953298 C107.7186,13.3832881 106.857457,14.5759614 106.857457,15.9318426 C106.857457,17.2845851 107.7186,18.480397 109.007171,18.9072485 L116.942886,21.5499614 L119.589171,29.4781 C120.0166,30.7649317 121.214029,31.6249119 122.571743,31.6249119 C123.929457,31.6249119 125.123743,30.7649317 125.551171,29.4781 L128.197457,21.5499614 L136.136314,18.9072485 C137.424886,18.480397 138.286029,17.2845851 138.286029,15.9318426 C138.286029,14.5759614 137.424886,13.3832881 136.136314,12.953298 L128.197457,10.3105851 L125.551171,2.38244653 C125.123743,1.09875347 123.929457,0.238773267 122.571743,0.238773267 M122.408314,13.7850307 L122.571743,13.3016842 L122.732029,13.7850307 C123.043171,14.7203376 123.784886,15.4579119 124.718314,15.7686347 L125.202314,15.9318426 L124.718314,16.0919119 C123.784886,16.4057733 123.043171,17.1402089 122.732029,18.0786545 L122.571743,18.562001 L122.408314,18.0786545 C122.097171,17.1402089 121.3586,16.4057733 120.422029,16.0919119 L119.938029,15.9318426 L120.422029,15.7686347 C121.3586,15.4579119 122.097171,14.7203376 122.408314,13.7850307" id="Fill-61"></path>
                    <path d="M12.5714286,125.503991 C12.4834286,125.601288 12.3922857,125.695447 12.2917143,125.783328 C12.3922857,125.871209 12.4834286,125.962229 12.5714286,126.062664 C12.6594286,125.962229 12.7505714,125.871209 12.8511429,125.783328 C12.7505714,125.695447 12.6594286,125.601288 12.5714286,125.503991" id="Fill-63"></path>
                    <path d="M12.5714286,113.228558 C11.2137143,113.228558 10.0194286,114.088539 9.592,115.372232 L7.73142857,120.94641 L2.14971429,122.804469 C0.861142857,123.234459 0,124.427133 0,125.783014 C0,127.138895 0.861142857,128.331568 2.14971429,128.761558 L7.72828571,130.616479 L9.592,136.190657 C10.0194286,137.477489 11.2137143,138.337469 12.5714286,138.337469 C13.9291429,138.337469 15.1234286,137.477489 15.5508571,136.190657 L17.4145714,130.616479 L22.9931429,128.761558 C24.2817143,128.331568 25.1428571,127.138895 25.1428571,125.783014 C25.1428571,124.427133 24.2817143,123.234459 22.9931429,122.804469 L17.4145714,120.94641 L15.5508571,115.372232 C15.1234286,114.088539 13.9291429,113.228558 12.5714286,113.228558 M12.2917143,125.783014 C12.3922857,125.695133 12.4834286,125.604113 12.5714286,125.503677 C12.6594286,125.604113 12.7505714,125.695133 12.8511429,125.783014 C12.7505714,125.870895 12.6594286,125.961915 12.5714286,126.06235 C12.4834286,125.961915 12.3922857,125.870895 12.2917143,125.783014" id="Fill-65"></path>
                    <path d="M223.142857,283.22279 L222.982571,283.706137 C222.668286,284.641444 221.929714,285.379018 220.993143,285.689741 L220.509143,285.852949 L220.993143,286.013018 C221.929714,286.326879 222.668286,287.061315 222.982571,287.99976 L223.142857,288.483107 L223.303143,287.99976 C223.614286,287.061315 224.356,286.326879 225.289429,286.013018 L225.773429,285.852949 L225.289429,285.689741 C224.356,285.379018 223.614286,284.641444 223.303143,283.706137 L223.142857,283.22279" id="Fill-67"></path>
                    <path d="M223.142857,270.159565 C221.785143,270.159565 220.590857,271.019546 220.160286,272.303239 L217.514,280.231377 L209.578286,282.87409 C208.289714,283.30408 207.428571,284.496753 207.428571,285.852635 C207.428571,287.208516 208.289714,288.401189 209.578286,288.828041 L217.514,291.470753 L220.160286,299.398892 C220.590857,300.685724 221.785143,301.545704 223.142857,301.545704 C224.500571,301.545704 225.694857,300.685724 226.122286,299.398892 L228.768571,291.473892 L236.707429,288.828041 C237.996,288.401189 238.857143,287.208516 238.857143,285.852635 C238.857143,284.496753 237.996,283.30408 236.707429,282.87409 L228.768571,280.231377 L226.122286,272.303239 C225.694857,271.019546 224.500571,270.159565 223.142857,270.159565 M222.982571,283.705823 L223.142857,283.222476 L223.303143,283.705823 C223.614286,284.64113 224.356,285.378704 225.289429,285.692565 L225.773429,285.852635 L225.289429,286.012704 C224.356,286.326565 223.614286,287.061001 223.303143,287.999447 L223.142857,288.482793 L222.982571,287.999447 C222.668286,287.061001 221.929714,286.326565 220.993143,286.012704 L220.509143,285.852635 L220.993143,285.692565 C221.929714,285.378704 222.668286,284.64113 222.982571,283.705823" id="Fill-69"></path>
                    <path d="M47.1425429,41.0404396 C43.6728286,41.0404396 40.8568286,43.849499 40.8568286,47.3176673 C40.8568286,50.782697 43.6728286,53.594895 47.1425429,53.594895 C50.6154,53.594895 53.4282571,50.782697 53.4282571,47.3176673 C53.4282571,43.849499 50.6154,41.0404396 47.1425429,41.0404396" id="Fill-71"></path>
                    <path d="M292.285086,241.911099 C288.815371,241.911099 285.999371,244.723297 285.999371,248.188327 C285.999371,251.656495 288.815371,254.465554 292.285086,254.465554 C295.757943,254.465554 298.5708,251.656495 298.5708,248.188327 C298.5708,244.723297 295.757943,241.911099 292.285086,241.911099" id="Fill-73"></path>
                </g>
            </g>
        </g>
    </g>
</svg>