<?xml version="1.0" encoding="UTF-8"?>
<svg width="220px" height="220px" viewBox="0 0 220 220" version="1.1" xmlns="http://www.w3.org/2000/svg" xmlns:xlink="http://www.w3.org/1999/xlink">
    <!-- Generator: Sketch 44 (41411) - http://www.bohemiancoding.com/sketch -->
    <title>about-culture-03</title>
    <desc>Created with Sketch.</desc>
    <defs></defs>
    <g id="Assets" stroke="none" stroke-width="1" fill="none" fill-rule="evenodd">
        <g id="Galaxy" transform="translate(0.611111, 11.611111)">
            <g id="Page-1">
                <g id="Group-50">
                    <path d="M125.671922,103.527072 C121.893033,109.60673 113.534276,112.131517 107.00168,109.169124 C100.469084,106.204931 98.234296,98.873684 102.013185,92.7922249 C105.792074,86.7125666 114.150831,84.1877797 120.683427,87.1519732 C127.216023,90.1161668 129.449003,97.4456126 125.671922,103.527072" id="Fill-2" fill="#FFDCA1"></path>
                    <path d="M125.671922,103.527072 L122.596377,101.632581 C121.612781,103.217326 120.168124,104.513936 118.455872,105.417961 C116.747235,106.320185 114.78366,106.810015 112.867094,106.808214 C111.342882,106.808214 109.853023,106.503871 108.500579,105.889783 C106.902235,105.164041 105.750488,104.135758 104.971205,102.954403 C104.195538,101.771246 103.792336,100.429616 103.790528,99.0141501 C103.794144,97.6202948 104.181074,96.1526047 105.08873,94.6903173 C106.072326,93.1037714 107.515175,91.8053609 109.227427,90.9031368 C110.937872,90.0009126 112.901447,89.5092815 114.818013,89.5110823 C116.342225,89.5110823 117.830276,89.8136246 119.184528,90.4277133 C120.781064,91.1552553 121.934619,92.1835387 122.712094,93.3648941 C123.489569,94.5480504 123.890963,95.8896811 123.892771,97.3051466 C123.890963,98.697201 123.504033,100.166692 122.596377,101.632581 L125.671922,103.527072 L128.747468,105.421562 C130.329538,102.876966 131.126902,100.064044 131.125094,97.3051466 C131.126902,94.5012284 130.306033,91.7603398 128.76374,89.4192391 C127.225064,87.072736 124.964963,85.1332241 122.182326,83.8744323 C119.822781,82.8029286 117.302316,82.3076958 114.818013,82.3076958 C111.686417,82.3094966 108.600023,83.0856615 105.844508,84.5353431 C103.092609,85.9868255 100.658932,88.1316338 98.9376394,90.8977342 C97.3537606,93.4423305 96.556397,96.255253 96.5582051,99.0141501 C96.556397,101.818068 97.3790737,104.558957 98.9213667,106.901858 C100.460043,109.246561 102.720144,111.186073 105.502781,112.446665 C107.862326,113.516368 110.382791,114.011601 112.867094,114.011601 C115.99869,114.0098 119.085084,113.233635 121.838791,111.783954 C124.592498,110.332471 127.026175,108.189464 128.747468,105.423363 L125.671922,103.527072" id="Fill-4" fill="#2D3666"></path>
                    <path d="M114.226771,93.3351802 C112.237882,93.3351802 110.248993,94.3328492 109.184033,96.0472552 C107.695983,98.4405804 108.57471,101.329138 111.147609,102.496087 C111.879882,102.827443 112.668205,102.985917 113.458336,102.985917 C115.447225,102.985917 117.436114,101.988248 118.501074,100.273842 C119.989124,97.8787162 119.110397,94.9919591 116.537498,93.8250105 C115.805225,93.4918538 115.016902,93.3351802 114.226771,93.3351802" id="Fill-6" fill="#FFC675"></path>
                    <path d="M103.177227,134.690723 C96.7079141,134.690723 90.2476414,133.406719 84.2665101,130.692843 C71.5159242,124.908524 62.3905404,114.814778 58.5682576,102.26828 C54.7459747,89.7217814 56.7023182,76.2766604 64.0756717,64.4126827 C82.5958434,34.6122725 123.715217,22.1846298 155.739944,36.7120596 C188.301672,51.4862055 204.438793,84.9711479 194.98253,118.140942 C194.43649,120.053441 192.434944,121.162763 190.516571,120.622509 C188.594581,120.078653 187.478995,118.086917 188.025035,116.174418 C196.481429,86.509071 181.973389,56.5303769 152.742146,43.2671414 C123.914106,30.1911939 86.8972677,41.3780533 70.2249545,68.2034649 C63.9617626,78.2846044 62.2784394,89.6389424 65.4895909,100.175696 C68.6989343,110.714251 76.432096,119.223251 87.2643081,124.137762 C105.140803,132.248775 128.090773,125.311914 138.427571,108.677493 C139.478066,106.984697 141.705621,106.464253 143.407025,107.510545 C145.103005,108.556836 145.629157,110.77728 144.576854,112.468275 C135.851056,126.511277 119.495157,134.690723 103.177227,134.690723" id="Fill-8" fill="#2D3666"></path>
                    <path d="M183.322398,139.073263 C182.673297,139.073263 182.016964,138.898581 181.423913,138.53481 C179.726125,137.488518 179.199974,135.269875 180.250469,133.577079 C181.004438,132.361508 181.727671,131.118924 182.400277,129.881742 C183.349519,128.13312 185.542721,127.481213 187.300176,128.424857 C189.05763,129.370302 189.712156,131.556529 188.761105,133.306952 C188.023408,134.666592 187.229661,136.033434 186.40156,137.366061 C185.718105,138.468179 184.533812,139.073263 183.322398,139.073263" id="Fill-10" fill="#2D3666"></path>
                    <path d="M67.6643505,69.0775958 C67.0152495,69.0775958 66.3571081,68.9029137 65.7640576,68.5373418 C64.0662697,67.4910499 63.5419263,65.2724069 64.5924212,63.579611 C84.8790879,30.9320623 126.117795,13.5863074 164.879431,21.3965793 C166.835775,21.7909647 168.101431,23.6908579 167.70727,25.6411748 C167.309492,27.5896909 165.400159,28.8556861 163.445623,28.4558981 C127.589573,21.2363039 89.4698051,37.2332247 70.7435121,67.3721941 C70.0582495,68.4725114 68.8757646,69.0775958 67.6643505,69.0775958" id="Fill-12" fill="#2D3666"></path>
                    <path d="M182.414922,34.4024738 C181.914084,34.4024738 181.404205,34.2962239 180.919639,34.0765206 C179.883609,33.6083005 178.83673,33.1616905 177.784427,32.7348898 C175.934761,31.9893393 175.039761,29.8895521 175.790114,28.047286 C176.53866,26.2014182 178.646882,25.3118 180.498357,26.0591513 C181.64468,26.5201681 182.783771,27.0099984 183.913821,27.5214388 C185.730942,28.3444257 186.535538,30.478429 185.709245,32.2900807 C185.10173,33.6155038 183.789064,34.4024738 182.414922,34.4024738" id="Fill-14" fill="#2D3666"></path>
                    <path d="M100.819852,165.415868 C90.9875081,165.415868 81.1696293,163.46375 72.078599,159.339811 C39.5150636,144.567466 23.3779424,111.082524 32.8360131,77.9109287 C33.3802455,75.9984296 35.3781747,74.8855063 37.3019727,75.429362 C39.2239626,75.9732177 40.3377404,77.9631532 39.7935081,79.8774532 C31.3353061,109.5428 45.8451545,139.523295 75.076397,152.782929 C103.902629,165.860677 140.921276,154.675618 157.591781,127.850207 C163.856781,117.769067 165.538296,106.412928 162.328953,95.8761748 C159.119609,85.3394211 151.386447,76.8304207 140.554235,71.9141094 C122.679548,63.8030961 99.7277707,70.7417582 89.3909727,87.3761786 C88.3404778,89.0671736 86.1111141,89.59122 84.4115182,88.5413264 C82.7137303,87.4950345 82.1893869,85.2763915 83.2398818,83.5853965 C95.4263465,63.9777782 122.484276,55.807337 143.552033,65.3572267 C156.302619,71.143347 165.428003,81.2388933 169.250286,93.7853918 C173.070761,106.33009 171.116225,119.77341 163.742872,131.640989 C150.480599,152.982823 125.621296,165.414067 100.819852,165.415868" id="Fill-16" fill="#2D3666"></path>
                    <path d="M42.2338747,68.0610179 C41.6534808,68.0610179 41.0658545,67.9223527 40.5180061,67.6288147 C38.7605515,66.6815694 38.1060263,64.4971424 39.0570768,62.7467195 C39.8020061,61.3708726 40.5975616,60.00403 41.4184303,58.6858103 C42.4689253,56.9930144 44.6982889,56.4707689 46.3960768,57.5188617 C48.0938646,58.5669544 48.6182081,60.7873983 47.5659051,62.4765925 C46.8209758,63.6777572 46.0977434,64.9221422 45.4179051,66.1719298 C44.7633798,67.3766962 43.5194202,68.0610179 42.2338747,68.0610179" id="Fill-18" fill="#2D3666"></path>
                    <path d="M81.6646818,176.512865 C75.4213788,176.512865 69.1527626,175.90778 62.940197,174.656192 C60.9820455,174.261807 59.7163889,172.361913 60.1123586,170.411597 C60.5065202,168.46128 62.4086212,167.195284 64.3740051,167.596873 C100.230056,174.814667 138.348015,158.817746 157.076116,128.680577 C158.126611,126.991383 160.354167,126.469138 162.053763,127.51543 C163.751551,128.561721 164.275894,130.780364 163.225399,132.47316 C146.189662,159.885648 114.374672,176.512865 81.6646818,176.512865" id="Fill-20" fill="#2D3666"></path>
                    <path d="M48.6751626,170.257444 C48.2231424,170.257444 47.7638899,170.171003 47.319102,169.99272 C46.1709707,169.529902 45.0300717,169.041873 43.9000212,168.528631 C42.0829,167.703844 41.2819202,165.568039 42.1118293,163.758189 C42.9417384,161.946537 45.0879303,161.150563 46.9032434,161.97535 C47.9374657,162.447172 48.9825364,162.891981 50.0330313,163.316981 C51.8845061,164.062532 52.777698,166.162319 52.0273444,168.004585 C51.4596071,169.405644 50.1053545,170.257444 48.6751626,170.257444" id="Fill-22" fill="#2D3666"></path>
                    <path d="M124.757937,185.779121 L124.665725,186.056452 C124.484917,186.593104 124.060018,187.016303 123.52121,187.194587 L123.242766,187.288231 L123.52121,187.380074 C124.060018,187.558358 124.484917,187.983358 124.665725,188.52001 L124.757937,188.795539 L124.850149,188.52001 C125.029149,187.983358 125.454048,187.558358 125.992857,187.380074 L126.273109,187.288231 L125.992857,187.194587 C125.454048,187.016303 125.029149,186.593104 124.850149,186.056452 L124.757937,185.779121" id="Fill-24" fill="#9AE0E6"></path>
                    <path d="M124.757937,178.283818 C123.976846,178.283818 123.289776,178.77725 123.042069,179.515597 L121.519665,184.062734 L116.954261,185.579047 C116.212947,185.825763 115.717533,186.510085 115.717533,187.288051 C115.717533,188.066016 116.212947,188.750338 116.954261,188.997054 L121.519665,190.513367 L123.042069,195.060505 C123.289776,195.798852 123.976846,196.292284 124.757937,196.292284 C125.539028,196.292284 126.226099,195.798852 126.471998,195.060505 L127.994402,190.513367 L132.561614,188.997054 C133.301119,188.750338 133.798341,188.066016 133.798341,187.288051 C133.798341,186.510085 133.302927,185.825763 132.561614,185.579047 L127.994402,184.062734 L126.471998,179.515597 C126.226099,178.77725 125.539028,178.283818 124.757937,178.283818 M124.665725,186.056272 L124.757937,185.778941 L124.850149,186.056272 C125.029149,186.592924 125.454048,187.016123 125.992857,187.194407 L126.273109,187.288051 L125.992857,187.379894 C125.454048,187.559979 125.029149,187.983178 124.850149,188.51983 L124.757937,188.79716 L124.665725,188.51983 C124.484917,187.983178 124.060018,187.559979 123.52121,187.379894 L123.242766,187.288051 L123.52121,187.194407 C124.060018,187.016123 124.484917,186.592924 124.665725,186.056272" id="Fill-26" fill="#9AE0E6"></path>
                    <path d="M7.23250404,91.6829034 C7.18187778,91.7387296 7.12944343,91.792755 7.07158485,91.8431787 C7.12944343,91.8936024 7.18187778,91.945827 7.23250404,92.0034541 C7.2831303,91.945827 7.33556465,91.8936024 7.39342323,91.8431787 C7.33556465,91.792755 7.2831303,91.7387296 7.23250404,91.6829034" id="Fill-28" fill="#9AE0E6"></path>
                    <path d="M7.23250404,84.6396121 C6.45141313,84.6396121 5.76434242,85.1330441 5.51663535,85.8713912 L4.44625152,89.0696948 L1.2351,90.135796 C0.495594949,90.3807112 0.000180808081,91.0650329 0.000180808081,91.8429986 C0.000180808081,92.6209644 0.495594949,93.3052861 1.2351,93.5502013 L4.44625152,94.6181033 L5.51663535,97.8146061 C5.76434242,98.5529532 6.45141313,99.0463852 7.23250404,99.0463852 C8.01359495,99.0463852 8.70066566,98.5529532 8.94656465,97.8146061 L10.0187566,94.6181033 L13.2281,93.5502013 C13.9694131,93.3052861 14.4648273,92.6209644 14.4648273,91.8429986 C14.4648273,91.0650329 13.9694131,90.3807112 13.2281,90.135796 L10.0169485,89.067894 L8.94656465,85.8713912 C8.70066566,85.1330441 8.01359495,84.6396121 7.23250404,84.6396121 M7.07158485,91.8429986 C7.12763535,91.7925749 7.18187778,91.7403504 7.23250404,91.6827233 C7.2831303,91.7403504 7.33556465,91.7925749 7.39342323,91.8429986 C7.33556465,91.8934224 7.2831303,91.9474477 7.23250404,92.003274 C7.18187778,91.9474477 7.12763535,91.8934224 7.07158485,91.8429986" id="Fill-30" fill="#9AE0E6"></path>
                    <path d="M9.04022323,122.457392 C7.05133434,122.457392 5.42406162,124.078154 5.42406162,126.059085 C5.42406162,128.040016 7.05133434,129.660778 9.04022323,129.660778 C11.0291121,129.660778 12.6563848,128.040016 12.6563848,126.059085 C12.6563848,124.078154 11.0291121,122.457392 9.04022323,122.457392" id="Fill-32" fill="#9AE0E6"></path>
                    <path d="M81.3634556,9.2966907 L81.2712434,9.57402109 C81.0904354,10.1106734 80.6655364,10.5338723 80.1285364,10.7121562 L79.8482838,10.8058002 L80.1285364,10.8976434 C80.6655364,11.0759272 81.0904354,11.4991261 81.2712434,12.0357784 L81.3634556,12.3131088 L81.4556677,12.0357784 C81.6364758,11.4991261 82.0613747,11.0759272 82.6001828,10.8976434 L82.8786273,10.8058002 L82.6001828,10.7121562 C82.0613747,10.5338723 81.6364758,10.1106734 81.4556677,9.57402109 L81.3634556,9.2966907" id="Fill-34" fill="#9AE0E6"></path>
                    <path d="M81.3634556,1.80048647 C80.5823646,1.80048647 79.8952939,2.29391845 79.6493949,3.03226558 L78.1251828,7.58120419 L73.5597788,9.09571622 C72.8184657,9.34243221 72.3230515,10.0267539 72.3230515,10.8047197 C72.3230515,11.5826854 72.8184657,12.2670072 73.5597788,12.5137231 L78.1269909,14.030036 L79.6493949,18.5771738 C79.8952939,19.3155209 80.5823646,19.8089529 81.3634556,19.8089529 C82.1445465,19.8089529 82.8316172,19.3155209 83.0793242,18.5771738 L84.6017283,14.030036 L89.1671323,12.5137231 C89.9084455,12.2670072 90.4038596,11.5826854 90.4038596,10.8047197 C90.4038596,10.0267539 89.9084455,9.34243221 89.1671323,9.09571622 L84.6017283,7.57940335 L83.0793242,3.03226558 C82.8316172,2.29391845 82.1445465,1.80048647 81.3634556,1.80048647 M81.2712434,9.57294058 L81.3634556,9.29741104 L81.4556677,9.57294058 C81.6364758,10.1095929 82.0613747,10.5345927 82.6001828,10.7128765 L82.8786273,10.8047197 L82.6001828,10.8983637 C82.0613747,11.0766475 81.6364758,11.4998465 81.4556677,12.0364988 L81.3634556,12.3138292 L81.2712434,12.0364988 C81.0904354,11.4998465 80.6655364,11.0766475 80.1285364,10.8983637 L79.8482838,10.8047197 L80.1285364,10.7128765 C80.6655364,10.5345927 81.0904354,10.1095929 81.2712434,9.57294058" id="Fill-36" fill="#9AE0E6"></path>
                    <path d="M139.222584,0 C137.233695,0 135.606422,1.62076198 135.606422,3.60169328 C135.606422,5.58262459 137.233695,7.20338657 139.222584,7.20338657 C141.211473,7.20338657 142.838745,5.58262459 142.838745,3.60169328 C142.838745,1.62076198 141.211473,0 139.222584,0" id="Fill-38" fill="#9AE0E6"></path>
                    <path d="M48.8183626,36.0165727 C46.8294737,36.0165727 45.202201,37.6373346 45.202201,39.6182659 C45.202201,41.5991973 46.8294737,43.2199592 48.8183626,43.2199592 C50.8072515,43.2199592 52.4345242,41.5991973 52.4345242,39.6182659 C52.4345242,37.6373346 50.8072515,36.0165727 48.8183626,36.0165727" id="Fill-40" fill="#9AE0E6"></path>
                    <path d="M168.151334,169.279944 C166.162445,169.279944 164.535173,170.900706 164.535173,172.881638 C164.535173,174.862569 166.162445,176.483331 168.151334,176.483331 C170.140223,176.483331 171.767496,174.862569 171.767496,172.881638 C171.767496,170.900706 170.140223,169.279944 168.151334,169.279944" id="Fill-42" fill="#9AE0E6"></path>
                    <path d="M215.161255,122.457392 C213.172366,122.457392 211.545093,124.078154 211.545093,126.059085 C211.545093,128.040016 213.172366,129.660778 215.161255,129.660778 C217.150143,129.660778 218.777416,128.040016 218.777416,126.059085 C218.777416,124.078154 217.150143,122.457392 215.161255,122.457392" id="Fill-44" fill="#9AE0E6"></path>
                    <path d="M209.737193,62.869177 C209.686567,62.9250033 209.634132,62.9790287 209.576274,63.0294524 C209.634132,63.0798761 209.686567,63.1321006 209.737193,63.1897277 C209.787819,63.1321006 209.842062,63.0798761 209.898112,63.0294524 C209.842062,62.9790287 209.787819,62.9250033 209.737193,62.869177" id="Fill-46" fill="#9AE0E6"></path>
                    <path d="M209.737193,55.826426 C208.956102,55.826426 208.269031,56.319858 208.023132,57.0564042 L206.952748,60.2547079 L203.741597,61.3208091 C203.000284,61.5675251 202.50487,62.2518468 202.50487,63.0298125 C202.50487,63.8077783 203.000284,64.4921 203.741597,64.738816 L206.95094,65.8031164 L208.023132,69.00142 C208.269031,69.7397671 208.956102,70.2331991 209.737193,70.2331991 C210.518284,70.2331991 211.205355,69.7397671 211.451254,69.00142 L212.523445,65.8031164 L215.732789,64.738816 C216.474102,64.4921 216.969516,63.8077783 216.969516,63.0298125 C216.969516,62.2518468 216.474102,61.5675251 215.732789,61.3208091 L212.523445,60.2547079 L211.451254,57.0564042 C211.205355,56.319858 210.518284,55.826426 209.737193,55.826426 M209.576274,63.0298125 C209.634132,62.9793888 209.686567,62.9253634 209.737193,62.8695372 C209.787819,62.9253634 209.842062,62.9793888 209.898112,63.0298125 C209.842062,63.0784354 209.787819,63.1324608 209.737193,63.1900879 C209.686567,63.1324608 209.634132,63.0784354 209.576274,63.0298125" id="Fill-48" fill="#9AE0E6"></path>
                </g>
            </g>
        </g>
    </g>
</svg>