<?xml version="1.0" encoding="UTF-8"?>
<svg width="120px" height="121px" viewBox="0 0 120 121" version="1.1" xmlns="http://www.w3.org/2000/svg" xmlns:xlink="http://www.w3.org/1999/xlink">
    <!-- Generator: Sketch 44.1 (41455) - http://www.bohemiancoding.com/sketch -->
    <title>hireing-culture-01</title>
    <desc>Created with Sketch.</desc>
    <defs>
        <polygon id="path-1" points="10.5354 10 0.5354 10 0.5354 -0.0004 10.5354 -0.0004"></polygon>
        <polygon id="path-3" points="4.535 0.0001 4.535 4.0001 0.5354 4.0001 0.5354 0.0001 4.535 0.0001"></polygon>
    </defs>
    <g id="Page" stroke="none" stroke-width="1" fill="none" fill-rule="evenodd">
        <g id="hireing" transform="translate(-255.000000, -1093.000000)">
            <g id="block" transform="translate(0.000000, 860.000000)">
                <rect id="bg" fill="#FFFFFF" x="0" y="0" width="1440" height="848"></rect>
                <g id="r1" transform="translate(135.000000, 233.000000)">
                    <g id="1">
                        <g id="hireing-culture-01" transform="translate(120.000000, 0.000000)">
                            <g transform="translate(5.000000, 8.000000)">
                                <path d="M85.7522,50.6671 L93.5312,42.8891 C95.4832,40.9361 95.4832,37.7711 93.5312,35.8181 L66.6612,8.9481 C64.7082,6.9951 61.5422,6.9951 59.5902,8.9481 L51.8122,16.7261 L85.7522,50.6671" id="Fill-1" fill="#F9D79E"></path>
                                <path d="M63.1253,9.4835 C62.3513,9.4855 61.5953,9.7725 61.0043,10.3625 L53.2263,18.1405 L53.2263,18.1405 L55.8133,20.7285 L62.2293,14.3135 C63.2043,13.3385 64.4843,12.8505 65.7653,12.8505 C66.1303,12.8505 66.4963,12.8905 66.8543,12.9705 C66.9613,12.7465 67.0723,12.5245 67.1893,12.3045 L65.2473,10.3625 C64.6553,9.7725 63.8993,9.4855 63.1253,9.4835" id="Fill-3" fill="#F7C074"></path>
                                <path d="M90.1741,35.2897 C90.0811,35.3387 89.9881,35.3877 89.8951,35.4347 C90.5511,37.2097 90.1671,39.2857 88.7421,40.7097 L82.2691,47.1837 L84.3381,49.2527 L84.3391,49.2527 L92.1161,41.4747 C92.7061,40.8837 92.9931,40.1277 92.9951,39.3537 C92.9931,38.5797 92.7061,37.8237 92.1161,37.2317 L90.1741,35.2897" id="Fill-5" fill="#FBEECA"></path>
                                <path d="M85.7522,50.6676 L93.5312,42.8896 C95.4832,40.9366 95.4832,37.7706 93.5312,35.8186 L66.6602,8.9476 C64.7082,6.9956 61.5422,6.9956 59.5902,8.9476 L51.8122,16.7266 L85.7522,50.6676" id="Stroke-7" stroke="#17317B" stroke-width="3" stroke-linecap="round" stroke-linejoin="round"></path>
                                <polygon id="Fill-9" fill="#E6F0F9" points="56.054 69.0519 33.427 46.4249 61.711 18.1399 84.339 40.7679"></polygon>
                                <path d="M33.427,46.4245 L27.77,52.0815 L0.9,78.9515 L9.385,87.4365 L32.013,64.8095 C33.574,63.2475 36.108,63.2475 37.669,64.8095 C39.232,66.3715 39.232,68.9045 37.669,70.4665 L15.042,93.0935 L23.528,101.5795 L50.398,74.7095 L56.054,69.0515 L33.427,46.4245 Z" id="Fill-11" fill="#E6F0F9"></path>
                                <polygon id="Fill-13" fill="#FFFFFF" points="85.47 41.4996 51.365 75.7426 24.494 102.6126 19.815 97.9226 46.684 71.0526 80.781 36.8106"></polygon>
                                <polygon id="Fill-15" fill="#B4D4EC" points="30.8802 56.8502 10.1952 77.5352 3.5052 74.8452 26.1912 52.1602 60.8152 16.8032 64.7972 22.1052"></polygon>
                                <path d="M10.7991,77.5372 L10.7991,77.5372 C8.4561,75.1942 4.6571,75.1942 2.3151,77.5372 L0.9001,78.9522 L9.3851,87.4362 L10.7991,86.0222 C13.1431,83.6792 13.1431,79.8802 10.7991,77.5372" id="Fill-17" fill="#E6F0F9"></path>
                                <path d="M12.0755,79.8024 C10.1655,79.4224 8.1155,79.9724 6.6455,81.4424 L5.2255,82.8624 L0.5355,78.1724 L1.9555,76.7624 C4.2955,74.4124 8.0955,74.4124 10.4355,76.7624 C11.2955,77.6224 11.8455,78.6924 12.0755,79.8024" id="Fill-19" fill="#B4D4EC"></path>
                                <path d="M24.9417,91.6793 L24.9417,91.6793 C22.5987,89.3363 18.7987,89.3363 16.4567,91.6793 L15.0427,93.0943 L23.5277,101.5793 L24.9417,100.1643 C27.2847,97.8213 27.2847,94.0223 24.9417,91.6793" id="Fill-21" fill="#E6F0F9"></path>
                                <path d="M47.5686,18.1403 L30.5986,35.1113 L27.0626,38.6463 C25.1106,40.5993 25.1106,43.7653 27.0626,45.7173 C29.0156,47.6703 32.1816,47.6703 34.1336,45.7173 L37.6696,42.1823 L61.7116,18.1403 C57.8056,14.2353 51.4736,14.2353 47.5686,18.1403" id="Fill-23" fill="#E6F0F9"></path>
                                <path d="M60.095,17.234 L58.315,19.014 C55.565,18.844 52.745,19.814 50.635,21.924 L33.665,38.894 L30.125,42.424 C29.074,43.484 28.585,44.884 28.675,46.264 C27.495,46.194 26.335,45.714 25.445,44.814 C23.485,42.854 23.485,39.694 25.445,37.744 L28.975,34.204 L45.945,17.234 C49.855,13.334 56.185,13.334 60.095,17.234" id="Fill-25" fill="#B4D4EC"></path>
                                <path d="M84.3382,40.7677 L60.2972,64.8097 L56.7612,68.3447 C54.8092,70.2977 54.8092,73.4637 56.7612,75.4157 C58.7142,77.3687 61.8802,77.3687 63.8322,75.4157 L67.3682,71.8807 L84.3382,54.9097 C88.2432,51.0047 88.2432,44.6727 84.3382,40.7677" id="Fill-27" fill="#E6F0F9"></path>
                                <path d="M84.9495,56.4889 L67.9695,73.4589 L64.4385,76.9889 C63.4595,77.9689 62.1785,78.4589 60.8985,78.4589 C59.6195,78.4589 58.3395,77.9689 57.3695,76.9889 C56.4785,76.0889 55.9885,74.9289 55.9195,73.7589 C56.0185,73.7689 56.1195,73.7689 56.2195,73.7689 C57.4995,73.7689 58.7785,73.2889 59.7495,72.3089 L80.2595,51.7989 C82.3585,49.6889 83.3295,46.8789 83.1595,44.1289 L84.9495,42.3389 C88.8485,46.2489 88.8485,52.5789 84.9495,56.4889" id="Fill-29" fill="#FFFFFF"></path>
                                <polygon id="Fill-31" fill="#F9D79E" points="60.2971 53.4957 48.9841 42.1827 56.0541 35.1107 67.3681 46.4247"></polygon>
                                <path d="M25.1692,100.5729 L23.7602,101.9829 L19.0692,97.3029 L20.4802,95.8829 C21.9592,94.4029 22.5102,92.3529 22.1192,90.4429 C23.2392,90.6629 24.3002,91.2129 25.1692,92.0829 C27.5102,94.4329 27.5102,98.2329 25.1692,100.5729" id="Fill-33" fill="#FFFFFF"></path>
                                <polyline id="Stroke-35" stroke="#17317B" stroke-width="3" stroke-linecap="round" stroke-linejoin="round" points="56.054 69.0524 33.427 46.4254 61.711 18.1404 84.338 40.7674 56.054 69.0524"></polyline>
                                <path d="M33.427,46.4249 L27.77,52.0819 L0.9,78.9519 L9.385,87.4369 L32.013,64.8099 C33.574,63.2479 36.108,63.2479 37.669,64.8099 C39.232,66.3719 39.232,68.9039 37.669,70.4669 L15.042,93.0939 L23.528,101.5789 L50.398,74.7089 L56.054,69.0519 L33.427,46.4249 Z" id="Stroke-37" stroke="#17317B" stroke-width="3" stroke-linecap="round" stroke-linejoin="round"></path>
                                <path d="M10.7991,77.5377 L10.7991,77.5377 C8.4561,75.1947 4.6571,75.1947 2.3141,77.5377 L0.9001,78.9517 L9.3851,87.4367 L10.7991,86.0227 C13.1431,83.6797 13.1431,79.8807 10.7991,77.5377 Z" id="Stroke-39" stroke="#17317B" stroke-width="3" stroke-linecap="round" stroke-linejoin="round"></path>
                                <path d="M24.9417,91.6798 L24.9417,91.6798 C22.5987,89.3368 18.7987,89.3368 16.4567,91.6798 L15.0427,93.0938 L23.5277,101.5788 L24.9417,100.1648 C27.2847,97.8218 27.2847,94.0228 24.9417,91.6798 Z" id="Stroke-41" stroke="#17317B" stroke-width="3" stroke-linecap="round" stroke-linejoin="round"></path>
                                <path d="M47.5686,18.1403 L30.5986,35.1113 L27.0626,38.6463 C25.1106,40.5993 25.1106,43.7653 27.0626,45.7173 L27.0626,45.7183 C29.0156,47.6703 32.1806,47.6703 34.1336,45.7183 L37.6696,42.1823 L61.7116,18.1403 C57.8056,14.2353 51.4736,14.2353 47.5686,18.1403 Z" id="Stroke-43" stroke="#17317B" stroke-width="3" stroke-linecap="round" stroke-linejoin="round"></path>
                                <path d="M84.3382,40.7677 L60.2972,64.8097 L56.7612,68.3447 C54.8092,70.2977 54.8092,73.4637 56.7612,75.4157 C58.7142,77.3687 61.8802,77.3687 63.8322,75.4157 L67.3682,71.8807 L84.3382,54.9097 C88.2432,51.0047 88.2432,44.6727 84.3382,40.7677 Z" id="Stroke-45" stroke="#17317B" stroke-width="3" stroke-linecap="round" stroke-linejoin="round"></path>
                                <polygon id="Stroke-47" stroke="#17317B" stroke-width="3" stroke-linecap="round" stroke-linejoin="round" points="60.2971 53.4957 48.9841 42.1827 56.0541 35.1107 67.3681 46.4247"></polygon>
                                <path d="M97.8626,83.0446 L103.1446,77.7626 C105.1506,75.7556 105.1506,72.5026 103.1446,70.4966 C101.1376,68.4896 97.8846,68.4896 95.8786,70.4966 L84.3636,82.0096 C82.3576,84.0166 79.1036,84.0166 77.0966,82.0096 C75.0916,80.0036 75.0916,76.7506 77.0966,74.7436 L92.6586,59.1826 C94.6646,57.1756 94.6646,53.9226 92.6586,51.9166 L87.8766,47.1346" id="Stroke-49" stroke="#17317B" stroke-width="3" stroke-linecap="round" stroke-linejoin="round"></path>
                                <path d="M30.5989,35.111 L37.6689,42.182" id="Stroke-51" stroke="#17317B" stroke-width="3" stroke-linecap="round" stroke-linejoin="round"></path>
                                <path d="M19.2854,60.5665 L27.7694,69.0515" id="Stroke-53" stroke="#17317B" stroke-width="3" stroke-linecap="round" stroke-linejoin="round"></path>
                                <path d="M15.0423,64.8092 L23.5273,73.2942" id="Stroke-55" stroke="#17317B" stroke-width="3" stroke-linecap="round" stroke-linejoin="round"></path>
                                <path d="M33.427,74.7086 L41.912,83.1936" id="Stroke-57" stroke="#17317B" stroke-width="3" stroke-linecap="round" stroke-linejoin="round"></path>
                                <path d="M29.1848,78.9513 L37.6688,87.4363" id="Stroke-59" stroke="#17317B" stroke-width="3" stroke-linecap="round" stroke-linejoin="round"></path>
                                <path d="M33.427,46.4249 L56.054,69.0519" id="Stroke-61" stroke="#17317B" stroke-width="3" stroke-linecap="round" stroke-linejoin="round"></path>
                                <path d="M41.8098,23.8996 L48.8808,30.9706" id="Stroke-63" stroke="#17317B" stroke-width="3" stroke-linecap="round" stroke-linejoin="round"></path>
                                <path d="M46.0667,19.6432 L53.1377,26.7142" id="Stroke-65" stroke="#17317B" stroke-width="3" stroke-linecap="round" stroke-linejoin="round"></path>
                                <path d="M60.2971,64.8097 L67.3681,71.8807" id="Stroke-67" stroke="#17317B" stroke-width="3" stroke-linecap="round" stroke-linejoin="round"></path>
                                <path d="M71.5091,53.5983 L78.5791,60.6693" id="Stroke-69" stroke="#17317B" stroke-width="3" stroke-linecap="round" stroke-linejoin="round"></path>
                                <path d="M75.7649,49.3419 L82.8359,56.4129" id="Stroke-71" stroke="#17317B" stroke-width="3" stroke-linecap="round" stroke-linejoin="round"></path>
                                <path d="M94.2386,32.2824 C87.5996,38.9214 76.8356,38.9214 70.1966,32.2824 C63.5576,25.6434 63.5576,14.8794 70.1966,8.2404 C76.8356,1.6014 87.5996,1.6014 94.2386,8.2404 C100.8776,14.8794 100.8776,25.6434 94.2386,32.2824" id="Fill-73" fill="#E6F0F9"></path>
                                <path d="M89.8655,27.9098 C85.5855,30.8698 79.6755,30.4398 75.8555,26.6298 C75.5055,26.2798 75.1755,25.9098 74.8855,25.5198 C71.9855,21.7298 71.8855,16.4998 74.5645,12.6098 C78.8555,9.6598 84.7645,10.0798 88.5855,13.8998 C89.2755,14.5898 89.8455,15.3398 90.3145,16.1398 C92.4455,19.7898 92.2955,24.3998 89.8655,27.9098" id="Fill-75" fill="#79C8D0"></path>
                                <path d="M80.8059,10.6754 C78.6219,10.6754 76.4399,11.3214 74.5649,12.6104 C71.8849,16.5004 71.9859,21.7294 74.8849,25.5204 C75.1749,25.9094 75.5049,26.2794 75.8559,26.6304 C76.0639,26.8384 76.2789,27.0354 76.4989,27.2234 C76.7939,27.4154 77.0959,27.5914 77.4039,27.7534 L77.3479,27.6454 C74.2009,21.4384 79.2849,14.7274 85.3849,14.7274 C86.6689,14.7274 87.9979,15.0254 89.3059,15.6874 L89.4129,15.7424 C88.9039,14.7734 88.2429,13.8534 87.4329,13.0434 C87.2179,12.8284 86.9959,12.6234 86.7689,12.4304 C84.9579,11.2594 82.8819,10.6754 80.8059,10.6754" id="Fill-77" fill="#48B1BB"></path>
                                <path d="M96.345,10.82 C89.745,6.39 80.725,7.09 74.885,12.93 C69.045,18.77 68.345,27.79 72.776,34.39 C71.866,33.79 70.995,33.08 70.196,32.28 C63.555,25.64 63.555,14.88 70.196,8.24 C76.835,1.6 87.595,1.6 94.236,8.24 C95.035,9.04 95.745,9.91 96.345,10.82" id="Fill-79" fill="#B4D4EC"></path>
                                <path d="M94.2386,32.2829 C87.5986,38.9219 76.8356,38.9219 70.1966,32.2829 C63.5576,25.6439 63.5576,14.8799 70.1966,8.2409 C76.8356,1.6019 87.5986,1.6019 94.2386,8.2409 C100.8776,14.8799 100.8776,25.6439 94.2386,32.2829" id="Stroke-81" stroke="#17317B" stroke-width="3" stroke-linecap="round" stroke-linejoin="round"></path>
                                <path d="M89.8655,27.9098 C85.5855,30.8698 79.6755,30.4398 75.8555,26.6298 C75.5055,26.2798 75.1755,25.9098 74.8855,25.5198 C71.9855,21.7298 71.8855,16.5008 74.5645,12.6098 C78.8555,9.6598 84.7645,10.0798 88.5855,13.8998 C89.2755,14.5898 89.8445,15.3398 90.3145,16.1398 C92.4455,19.7898 92.2955,24.3998 89.8655,27.9098" id="Stroke-83" stroke="#17317B" stroke-width="3" stroke-linecap="round" stroke-linejoin="round"></path>
                                <path d="M104.137,15.3131 L99.362,20.0881" id="Stroke-85" stroke="#17317B" stroke-width="3" stroke-linecap="round" stroke-linejoin="round"></path>
                                <path d="M83.6302,18.9479 C83.6712,18.9479 83.6922,18.9269 83.7012,18.9179 C83.7352,18.8839 83.7342,18.8099 83.7012,18.7769 C82.9252,18.0009 81.8972,17.5739 80.8042,17.5739 C80.7482,17.5739 80.7032,17.6189 80.7032,17.6749 C80.7022,17.7219 80.7552,17.7729 80.8042,17.7749 C81.8432,17.7749 82.8222,18.1799 83.5602,18.9179 C83.5602,18.9179 83.5962,18.9479 83.6302,18.9479" id="Fill-87" fill="#FFFFFF"></path>
                                <path d="M83.6302,18.9479 C83.6712,18.9479 83.6922,18.9269 83.7012,18.9179 C83.7352,18.8839 83.7342,18.8099 83.7012,18.7769 C82.9252,18.0009 81.8972,17.5739 80.8042,17.5739 C80.7482,17.5739 80.7032,17.6189 80.7032,17.6749 C80.7022,17.7219 80.7552,17.7729 80.8042,17.7749 C81.8432,17.7749 82.8222,18.1799 83.5602,18.9179 C83.5602,18.9179 83.5962,18.9479 83.6302,18.9479 Z" id="Stroke-89" stroke="#FFFFFF" stroke-width="3" stroke-linecap="round" stroke-linejoin="round"></path>
                                <path d="M87.5354,89.9996 C87.1034,89.9996 86.7234,90.2736 86.5874,90.6836 L85.9954,92.4586 L84.2194,93.0516 C83.8084,93.1876 83.5354,93.5676 83.5354,93.9996 C83.5354,94.4326 83.8084,94.8116 84.2194,94.9486 L85.9944,95.5406 L86.5874,97.3166 C86.7234,97.7266 87.1034,97.9996 87.5354,97.9996 C87.9674,97.9996 88.3474,97.7266 88.4834,97.3166 L89.0764,95.5406 L90.8514,94.9486 C91.2614,94.8116 91.5354,94.4326 91.5354,93.9996 C91.5354,93.5676 91.2614,93.1876 90.8514,93.0516 L89.0764,92.4586 L88.4834,90.6836 C88.3474,90.2736 87.9674,89.9996 87.5354,89.9996" id="Fill-91" fill="#9AE0E6"></path>
                                <path d="M43.5354,0.0001 C43.1034,0.0001 42.7234,0.2741 42.5874,0.6841 L41.9954,2.4591 L40.2194,3.0511 C39.8084,3.1881 39.5354,3.5681 39.5354,4.0001 C39.5354,4.4321 39.8084,4.8121 40.2194,4.9491 L41.9944,5.5401 L42.5874,7.3161 C42.7234,7.7261 43.1034,8.0001 43.5354,8.0001 C43.9674,8.0001 44.3474,7.7261 44.4834,7.3161 L45.0764,5.5401 L46.8514,4.9491 C47.2614,4.8121 47.5354,4.4321 47.5354,4.0001 C47.5354,3.5681 47.2614,3.1881 46.8514,3.0511 L45.0764,2.4591 L44.4834,0.6841 C44.3474,0.2741 43.9674,0.0001 43.5354,0.0001" id="Fill-93" fill="#9AE0E6"></path>
                                <path d="M6.5188,20.5788 C6.0868,20.5788 5.7068,20.8528 5.5708,21.2628 L4.7278,23.7888 L2.2028,24.6298 C1.7918,24.7668 1.5188,25.1468 1.5188,25.5788 C1.5188,26.0108 1.7918,26.3908 2.2028,26.5278 L4.7288,27.3698 L5.5708,29.8958 C5.7068,30.3058 6.0868,30.5788 6.5188,30.5788 C6.9508,30.5788 7.3308,30.3058 7.4678,29.8958 L8.3098,27.3698 L10.8348,26.5278 C11.2448,26.3908 11.5188,26.0108 11.5188,25.5788 C11.5188,25.1468 11.2448,24.7668 10.8348,24.6298 L8.3088,23.7878 L7.4678,21.2628 C7.3308,20.8528 6.9508,20.5788 6.5188,20.5788" id="Fill-95" fill="#9AE0E6"></path>
                                <g id="Group-99" transform="translate(43.000000, 96.000000)">
                                    <mask id="mask-2" fill="white">
                                        <use xlink:href="#path-1"></use>
                                    </mask>
                                    <g id="Clip-98"></g>
                                    <path d="M5.5354,-0.0004 C5.1034,-0.0004 4.7234,0.2736 4.5864,0.6836 L3.7444,3.2096 L1.2194,4.0516 C0.8084,4.1876 0.5354,4.5676 0.5354,5.0006 C0.5354,5.4316 0.8084,5.8126 1.2194,5.9486 L3.7444,6.7906 L4.5864,9.3156 C4.7234,9.7266 5.1034,10.0006 5.5354,10.0006 C5.9674,10.0006 6.3474,9.7256 6.4834,9.3156 L7.3264,6.7906 L9.8514,5.9486 C10.2614,5.8126 10.5354,5.4316 10.5354,5.0006 C10.5354,4.5676 10.2614,4.1876 9.8514,4.0516 L7.3254,3.2086 L6.4834,0.6836 C6.3474,0.2736 5.9674,-0.0004 5.5354,-0.0004" id="Fill-97" fill="#9AE0E6" mask="url(#mask-2)"></path>
                                </g>
                                <g id="Group-102" transform="translate(104.000000, 53.000000)">
                                    <mask id="mask-4" fill="white">
                                        <use xlink:href="#path-3"></use>
                                    </mask>
                                    <g id="Clip-101"></g>
                                    <path d="M2.5354,0.0001 C1.4314,0.0001 0.5354,0.8951 0.5354,2.0001 C0.5354,3.1041 1.4314,4.0001 2.5354,4.0001 C3.6394,4.0001 4.5354,3.1041 4.5354,2.0001 C4.5354,0.8951 3.6394,0.0001 2.5354,0.0001" id="Fill-100" fill="#47E3FF" mask="url(#mask-4)"></path>
                                </g>
                                <path d="M64.5354,85.0001 C63.4314,85.0001 62.5354,85.8961 62.5354,87.0001 C62.5354,88.1041 63.4314,89.0001 64.5354,89.0001 C65.6394,89.0001 66.5354,88.1041 66.5354,87.0001 C66.5354,85.8961 65.6394,85.0001 64.5354,85.0001" id="Fill-103" fill="#47E3FF"></path>
                                <path d="M6.5354,49.0001 C5.4314,49.0001 4.5354,49.8961 4.5354,51.0001 C4.5354,52.1041 5.4314,53.0001 6.5354,53.0001 C7.6394,53.0001 8.5354,52.1041 8.5354,51.0001 C8.5354,49.8961 7.6394,49.0001 6.5354,49.0001" id="Fill-105" fill="#47E3FF"></path>
                                <path d="M26.5354,21.0001 C25.4314,21.0001 24.5354,21.8951 24.5354,23.0001 C24.5354,24.1041 25.4314,25.0001 26.5354,25.0001 C27.6394,25.0001 28.5354,24.1041 28.5354,23.0001 C28.5354,21.8951 27.6394,21.0001 26.5354,21.0001" id="Fill-107" fill="#47E3FF"></path>
                            </g>
                        </g>
                    </g>
                </g>
            </g>
        </g>
    </g>
</svg>