<?xml version="1.0" encoding="UTF-8"?>
<svg width="220px" height="220px" viewBox="0 0 220 220" version="1.1" xmlns="http://www.w3.org/2000/svg" xmlns:xlink="http://www.w3.org/1999/xlink">
    <!-- Generator: Sketch 44 (41411) - http://www.bohemiancoding.com/sketch -->
    <title>about-culture-01</title>
    <desc>Created with Sketch.</desc>
    <defs>
        <path d="M0.634415017,24.8378741 C-0.154305499,16.1083638 2.73773848,7.10969339 9.31054695,0.354070517 L21.8886468,0.354070517 L21.8886468,24.8378741 L0.634415017,24.8378741 L0.634415017,24.8378741 Z" id="path-1"></path>
        <path d="M0.52747619,0.756452695 C0.587015873,0.810157866 0.644634921,0.865781078 0.698412698,0.927158416 C0.752190476,0.865781078 0.807888889,0.810157866 0.869349206,0.756452695 C0.807888889,0.702747525 0.752190476,0.645206271 0.698412698,0.585746975 C0.644634921,0.645206271 0.587015873,0.702747525 0.52747619,0.756452695 Z" id="path-3"></path>
    </defs>
    <g id="Assets" stroke="none" stroke-width="1" fill="none" fill-rule="evenodd">
        <g id="Comet" transform="translate(9.166667, 13.444444)">
            <g id="Page-1">
                <g id="Group-32" transform="translate(5.674603, 0.000000)">
                    <path d="M79.3513286,113.193237 C91.5166302,125.342114 91.5166302,145.038485 79.3513286,157.187362 C67.1879476,169.336239 47.463027,169.336239 35.299646,157.187362 C23.1343444,145.038485 23.1343444,125.342114 35.299646,113.193237 C47.463027,101.04436 67.1879476,101.04436 79.3513286,113.193237" id="Fill-2" fill="#78D5DD"></path>
                    <path d="M57.4612762,108.303765 C42.3132286,108.303765 30.0250063,120.573478 30.0250063,135.702992 C30.0250063,143.843161 33.6012286,151.141311 39.2555778,156.149318 C39.4476413,156.369893 39.643546,156.588549 39.8432921,156.80337 C40.5635302,157.129437 41.301054,157.428652 42.0501016,157.699095 C39.7357365,153.682716 38.412419,149.023792 38.412419,144.079081 C38.412419,128.951485 50.7006413,116.679853 65.8486889,116.679853 C71.3263397,116.679853 76.4544349,118.298681 80.747054,121.085595 C80.6279746,120.688561 80.5012127,120.293444 80.3648476,119.904082 C79.6042762,119.062061 78.7918476,118.266074 77.9333238,117.521874 C72.9204667,111.875159 65.6124508,108.303765 57.4612762,108.303765" id="Fill-4" fill="#48BBC7"></path>
                    <path d="M83.2492571,152.448456 C82.129527,154.120989 80.8311778,155.711045 79.3503683,157.187937 C73.2696381,163.262376 65.2970825,166.298636 57.324527,166.298636 C53.0856857,166.298636 48.8449238,165.439353 44.8884159,163.720788 C45.629781,164.213724 46.392273,164.672136 47.1758921,165.094106 C50.5350825,166.348505 54.0748127,166.975705 57.6145429,166.975705 C65.2548286,166.975705 72.9008762,164.056445 78.7319238,158.23327 C80.5085111,156.455245 82.0142889,154.510351 83.2492571,152.448456" id="Fill-6" fill="#9AE0E6"></path>
                    <path d="M78.6698873,115.979001 C79.3267444,117.237236 79.8933317,118.549177 80.3638873,119.903315 C80.9688873,120.574629 81.5412365,121.274714 82.075173,122.00357 C81.6411095,121.685175 81.1993635,121.378289 80.7480143,121.084828 C81.5623635,123.791185 81.9983476,126.65674 81.9983476,129.616278 C81.9983476,146.086503 68.6192048,159.447582 52.1267127,159.447582 C48.5965857,159.447582 45.2028238,158.829973 42.0510619,157.698328 C42.5677127,158.594054 43.1323794,159.457173 43.7431413,160.283849 C42.3314746,159.251942 41.0292841,158.083855 39.8442524,156.804521 C37.9332206,155.939484 36.1297444,154.880725 34.4587921,153.65126 C35.8051571,155.504088 37.383919,157.188129 39.1105698,158.680366 C40.8064905,160.594571 42.750173,162.299711 44.8897603,163.72098 C48.8443476,165.439545 53.0851095,166.298828 57.3258714,166.298828 C65.2965063,166.298828 73.2690619,163.26065 79.3517127,157.186211 C80.8306016,155.709319 82.1289508,154.12118 83.248681,152.448648 C90.1130302,140.988348 88.6072524,125.920212 78.7332683,116.042296 L78.6698873,115.979001" id="Fill-8" fill="#A8EFF3"></path>
                    <path d="M80.3648476,119.90389 C80.5012127,120.293252 80.6279746,120.688369 80.747054,121.085404 C81.2003238,121.378864 81.6420698,121.683833 82.0742127,122.004146 C81.5402762,121.273372 80.9698476,120.573287 80.3648476,119.90389 M39.8432921,156.803178 C41.0302444,158.082512 42.3324349,159.252518 43.742181,160.284424 C43.131419,159.45583 42.5667524,158.592711 42.0501016,157.698904 C41.301054,157.42846 40.5635302,157.131163 39.8432921,156.803178" id="Fill-10" fill="#88E6EC"></path>
                    <path d="M57.3256794,192.327614 C42.6673937,192.327614 28.0091079,186.755703 16.850219,175.61188 C6.03704444,164.815222 0.0830761905,150.458679 0.0830761905,135.189149 C0.0830761905,119.921536 6.03704444,105.566911 16.850219,94.7683357 C18.3502349,93.270345 20.7817587,93.270345 22.2817746,94.7683357 C23.7817905,96.2663263 23.7817905,98.6964853 22.2817746,100.192558 C12.9206,109.541094 7.76561587,121.970005 7.76561587,135.189149 C7.76561587,148.410211 12.9206,160.839122 22.2817746,170.187657 C41.6033619,189.48124 73.0479968,189.48124 92.3695841,170.187657 C93.8696,168.687749 96.3011238,168.687749 97.8011397,170.187657 C99.3011556,171.68373 99.3011556,174.113889 97.8011397,175.61188 C86.6422508,186.755703 71.9839651,192.327614 57.3256794,192.327614" id="Fill-12" fill="#2D3666"></path>
                    <path d="M21.1391889,99.7466132 C20.1558238,99.7466132 19.1743794,99.372595 18.4234111,98.6226407 C16.9233952,97.1246501 16.9233952,94.6964091 18.4234111,93.1984185 L56.1830937,55.4897166 C57.6831095,53.991726 60.1146333,53.991726 61.6146492,55.4897166 C63.1146651,56.9877073 63.1146651,59.4159482 61.6146492,60.9139388 L23.8549667,98.6226407 C23.1039984,99.372595 22.122554,99.7466132 21.1391889,99.7466132" id="Fill-14" fill="#2D3666"></path>
                    <path d="M74.6319444,84.0342065 C73.6485794,84.0342065 72.6671349,83.6601884 71.9161667,82.910234 C70.4161508,81.4122434 70.4161508,78.9840025 71.9161667,77.4860118 L106.912056,42.5392902 C108.412071,41.0393815 110.843595,41.0393815 112.343611,42.5392902 C113.843627,44.0353628 113.843627,46.4655217 112.343611,47.9635124 L77.3477222,82.910234 C76.596754,83.6601884 75.6153095,84.0342065 74.6319444,84.0342065" id="Fill-16" fill="#2D3666"></path>
                    <path d="M99.804554,96.6044771 C98.8211889,96.6044771 97.8397444,96.230459 97.0887762,95.4805046 C95.5887603,93.982514 95.5887603,91.554273 97.0887762,90.0562824 L147.4363,39.7786526 C148.936316,38.2787439 151.36784,38.2787439 152.867856,39.7786526 C154.367871,41.2747252 154.367871,43.7048842 152.867856,45.2028748 L102.520332,95.4805046 C101.769363,96.230459 100.787919,96.6044771 99.804554,96.6044771" id="Fill-18" fill="#2D3666"></path>
                    <path d="M162.73723,33.7567685 C161.753865,33.7567685 160.772421,33.3827504 160.021452,32.632796 C158.521437,31.1348054 158.521437,28.7065645 160.021452,27.2085738 L164.742373,22.4940271 C166.242389,20.9960364 168.673913,20.9960364 170.173929,22.4940271 C171.673944,23.9920177 171.673944,26.4202586 170.173929,27.9182493 L165.453008,32.632796 C164.70204,33.3827504 163.720595,33.7567685 162.73723,33.7567685" id="Fill-20" fill="#2D3666"></path>
                    <path d="M112.392011,121.743292 C111.408646,121.743292 110.427202,121.369274 109.676233,120.61932 C108.176217,119.121329 108.176217,116.693088 109.676233,115.195097 L144.670202,80.2464576 C146.170217,78.7484669 148.601741,78.7484669 150.101757,80.2464576 C151.601773,81.7444482 151.601773,84.1746072 150.101757,85.6706798 L115.107789,120.61932 C114.356821,121.369274 113.375376,121.743292 112.392011,121.743292" id="Fill-22" fill="#2D3666"></path>
                    <path d="M160.694827,73.5047325 C159.711462,73.5047325 158.730017,73.1307143 157.979049,72.382678 C156.479033,70.8827693 156.479033,68.4545284 157.979049,66.9565377 L163.303049,61.6378078 C164.804986,60.1398172 167.234589,60.1398172 168.736525,61.6378078 C170.236541,63.1357985 170.236541,65.5640394 168.736525,67.06203 L163.410605,72.38076 C162.659637,73.1307143 161.678192,73.5047325 160.694827,73.5047325" id="Fill-24" fill="#2D3666"></path>
                    <path d="M96.6593222,175.163633 C95.6759571,175.163633 94.6945127,174.789615 93.9435444,174.039661 C92.4435286,172.54167 92.4435286,170.113429 93.9435444,168.615439 L134.849227,127.764984 C136.349243,126.265076 138.780767,126.265076 140.280783,127.764984 C141.780798,129.261057 141.780798,131.691216 140.280783,133.189206 L99.3751,174.039661 C98.6241317,174.789615 97.6426873,175.163633 96.6593222,175.163633" id="Fill-26" fill="#2D3666"></path>
                    <path d="M153.29731,118.601156 C152.313944,118.601156 151.3325,118.227138 150.581532,117.477183 C149.081516,115.979193 149.081516,113.550952 150.581532,112.052961 L170.223865,92.4352296 C171.725802,90.937239 174.155405,90.937239 175.657341,92.4352296 C177.157357,93.9332203 177.157357,96.3633793 175.657341,97.8613699 L156.013087,117.477183 C155.262119,118.227138 154.280675,118.601156 153.29731,118.601156" id="Fill-28" fill="#2D3666"></path>
                    <path d="M74.1479444,46.8084676 C73.1645794,46.8084676 72.1831349,46.4344494 71.4321667,45.6844951 C69.9321508,44.1865045 69.9321508,41.7582635 71.4321667,40.2602729 L110.278929,1.46404131 C111.780865,-0.0339493399 114.210468,-0.0339493399 115.712405,1.46404131 C117.212421,2.96203196 117.212421,5.39219092 115.712405,6.89018157 L76.8637222,45.6844951 C76.112754,46.4344494 75.1313095,46.8084676 74.1479444,46.8084676" id="Fill-30" fill="#2D3666"></path>
                </g>
                <g id="Group-38" transform="translate(31.341270, 113.164466)">
                    <path d="M15.9255556,6.31381001 C19.4019048,9.78546568 19.4019048,15.4130003 15.9255556,18.882738 C12.4492063,22.3543936 6.81406349,22.3543936 3.33963492,18.882738 C-0.136714286,15.4130003 -0.136714286,9.78546568 3.33963492,6.31381001 C6.81406349,2.84215435 12.4492063,2.84215435 15.9255556,6.31381001" id="Fill-33" fill="#E8F3FF"></path>
                    <g id="Group-37" transform="translate(-0.000000, 0.000000)">
                        <mask id="mask-2" fill="white">
                            <use xlink:href="#path-1"></use>
                        </mask>
                        <g id="Clip-36"></g>
                        <path d="M9.63163492,7.06721683 C8.15274603,7.06721683 6.76220635,7.64262937 5.71546032,8.68796216 C4.66871429,9.73329494 4.09252381,11.1219572 4.09252381,12.5988494 C4.09252381,14.0757416 4.66871429,15.4644039 5.71546032,16.5097366 C7.81087302,18.6023202 11.4581587,18.5984842 13.5497302,16.5097366 C14.5964762,15.4644039 15.1726667,14.0757416 15.1726667,12.5988494 C15.1726667,11.1219572 14.5964762,9.73329494 13.5497302,8.68796216 C12.5029841,7.64262937 11.1124444,7.06721683 9.63163492,7.06721683 M9.63163492,24.8378741 C6.49139683,24.8378741 3.35115873,23.6448521 0.961888889,21.2568901 C-1.35439683,18.9437317 -2.62969841,15.8691107 -2.62969841,12.5988494 C-2.62969841,9.32858812 -1.35439683,6.25396711 0.961888889,3.94080869 C3.27625397,1.62765028 6.35695238,0.354070517 9.63163492,0.354070517 C12.9082381,0.354070517 15.9889365,1.62765028 18.3033016,3.94080869 C23.0837619,8.71481474 23.0837619,16.482884 18.3033016,21.2568901 C15.9140317,23.6448521 12.7737937,24.8378741 9.63163492,24.8378741" id="Fill-35" fill="#2D3666" mask="url(#mask-2)"></path>
                    </g>
                </g>
                <g id="Group-49" transform="translate(27.500000, 99.738174)">
                    <path d="M35.4889508,8.20327299 C28.4920778,8.20327299 21.5086492,10.8597609 16.1942524,16.1669826 C5.54625238,26.8006063 5.54625238,44.1032614 16.1942524,54.7368852 C18.9945381,57.5333902 22.2807444,59.6432361 25.9626016,61.0088819 C28.9165381,62.1079199 32.0452524,62.6833324 35.2661571,62.7236113 C39.9236968,62.7926608 44.5428238,61.6169012 48.5569508,59.4015629 C50.8597921,58.1625079 52.9532841,56.5993038 54.8163,54.7388032 C65.4450937,44.1051795 65.4450937,26.7986883 54.8163,16.1650645 C49.4673317,10.8540068 42.4743,8.20327299 35.4889508,8.20327299 M35.4831889,70.3976965 C35.3833159,70.3976965 35.2853635,70.3976965 35.1854905,70.3957785 C31.0638079,70.3439914 27.065046,69.6055453 23.2852365,68.1996206 C18.5623952,66.4484485 14.3485222,63.7440095 10.7626968,60.1611074 C-2.88149365,46.5372565 -2.88149365,24.3666113 10.7626968,10.7427603 C24.3684746,-2.8446478 46.5364429,-2.87917255 60.1767921,10.6679567 C73.8670778,24.3685293 73.8670778,46.5353384 60.2516968,60.1591894 L60.2516968,60.1611074 C57.8585857,62.5490695 55.1639349,64.5610953 52.2368873,66.1377257 C47.1856175,68.9208043 41.3872206,70.3976965 35.4831889,70.3976965" id="Fill-39" fill="#2D3666"></path>
                    <path d="M51.2331635,32.309606 C52.9713381,34.0454338 52.9713381,36.8592012 51.2331635,38.595029 C49.4949889,40.3308568 46.6774175,40.3308568 44.9392429,38.595029 C43.2010683,36.8592012 43.2010683,34.0454338 44.9392429,32.309606 C46.6774175,30.5737782 49.4949889,30.5737782 51.2331635,32.309606" id="Fill-41" fill="#2D3666"></path>
                    <path d="M48.0865873,10.3129272 C49.8247619,12.048755 49.8247619,14.8625223 48.0865873,16.5983502 C46.3484127,18.33226 43.5308413,18.33226 41.7926667,16.5983502 C40.0544921,14.8625223 40.0544921,12.048755 41.7926667,10.3129272 C43.5308413,8.57709934 46.3484127,8.57709934 48.0865873,10.3129272" id="Fill-43" fill="#2D3666"></path>
                    <path d="M50.4134365,62.7604377 C45.6963571,65.3593843 40.4453413,66.6041935 35.217373,66.5600785 C32.034881,63.0711605 32.1462778,57.6718728 35.5054683,54.3172177 C38.9779762,50.8282996 44.6054365,50.8282996 48.0779444,54.3172177 C50.3903889,56.6054415 51.1701667,59.8277518 50.4134365,62.7604377" id="Fill-45" fill="#E8F3FF"></path>
                    <path d="M41.7909381,55.0566228 C40.3178111,55.0566228 38.9330333,55.6339534 37.8901286,56.6831222 C36.130827,58.4400485 35.7908746,61.077356 36.9029222,63.1680216 C40.544446,62.9858076 44.0976206,62.0996723 47.3358111,60.5671569 C47.3396524,59.1324616 46.7730651,57.7514715 45.710954,56.7023026 C44.6488429,55.6339534 43.2659857,55.0566228 41.7928587,55.0566228 L41.7909381,55.0566228 Z M35.483573,69.9176107 L35.1877952,69.9176107 C34.252446,69.9080205 33.3612714,69.5109858 32.7313032,68.8204908 C28.3215254,63.9831893 28.4963032,56.5718758 33.1288746,51.9436409 C35.4355571,49.6247284 38.5162556,48.3434765 41.7909381,48.3434765 L41.7928587,48.3434765 C45.0694619,48.3434765 48.1482397,49.6247284 50.4606841,51.9513131 C53.5087317,54.9645568 54.7437,59.4355122 53.6681444,63.599581 C53.4357476,64.4933884 52.8480333,65.252933 52.0375254,65.6998367 C47.0265889,68.4618169 41.3069381,69.9176107 35.483573,69.9176107 L35.483573,69.9176107 Z" id="Fill-47" fill="#2D3666"></path>
                </g>
                <g id="Group-52" transform="translate(191.365079, 115.693619)">
                    <mask id="mask-4" fill="white">
                        <use xlink:href="#path-3"></use>
                    </mask>
                    <g id="Clip-51"></g>
                    <polygon id="Fill-50" fill="#9AE0E6" mask="url(#mask-4)" points="0.52747619 0.927158416 0.869349206 0.927158416 0.869349206 0.585746975 0.52747619 0.585746975"></polygon>
                </g>
                <g id="Group-75" transform="translate(0.000000, 1.222222)" fill="#9AE0E6">
                    <path d="M192.063684,107.555683 C191.23397,107.555683 190.502208,108.081226 190.241002,108.867623 L189.103986,112.274065 L185.692938,113.409546 C184.907398,113.6704 184.381144,114.399256 184.381144,115.22785 C184.381144,116.056444 184.907398,116.7853 185.692938,117.048072 L189.103986,118.183552 L190.241002,121.588076 C190.502208,122.374474 191.23397,122.900017 192.063684,122.900017 C192.893398,122.900017 193.62324,122.374474 193.884446,121.588076 L195.021462,118.183552 L198.43251,117.048072 C199.21997,116.7853 199.746224,116.056444 199.746224,115.22785 C199.746224,114.399256 199.21997,113.6704 198.43251,113.409546 L195.021462,112.272147 L193.884446,108.867623 C193.62324,108.081226 192.893398,107.555683 192.063684,107.555683 M191.892748,115.22785 C191.952287,115.174145 192.009906,115.118521 192.063684,115.057144 C192.115541,115.118521 192.17316,115.174145 192.234621,115.22785 C192.17316,115.281555 192.115541,115.339096 192.063684,115.398556 C192.009906,115.339096 191.952287,115.281555 191.892748,115.22785" id="Fill-53"></path>
                    <path d="M197.825205,59.6044457 C195.704824,59.6044457 193.983935,61.3230112 193.983935,63.4405293 C193.983935,65.5599655 195.704824,67.2766129 197.825205,67.2766129 C199.947506,67.2766129 201.666475,65.5599655 201.666475,63.4405293 C201.666475,61.3230112 199.947506,59.6044457 197.825205,59.6044457" id="Fill-55"></path>
                    <path d="M140.206541,13.571826 C138.08424,13.571826 136.365271,15.2903915 136.365271,17.4079096 C136.365271,19.5254278 138.08424,21.2439932 140.206541,21.2439932 C142.326922,21.2439932 144.047811,19.5254278 144.047811,17.4079096 C144.047811,15.2903915 142.326922,13.571826 140.206541,13.571826" id="Fill-57"></path>
                    <path d="M74.9039937,8.12899879 L74.8060413,8.42437723 C74.6158984,8.99595369 74.1645492,9.44669351 73.5922,9.63657965 L73.2964222,9.73631782 L73.5922,9.83413795 C74.1645492,10.0240241 74.6158984,10.4747639 74.8060413,11.0482584 L74.9039937,11.3417188 L75.0038667,11.0482584 C75.1940095,10.4747639 75.6453587,10.0240241 76.2177079,9.83413795 L76.5134857,9.73631782 L76.2177079,9.63657965 C75.6453587,9.44669351 75.1940095,8.99595369 75.0038667,8.42437723 L74.9039937,8.12899879" id="Fill-59"></path>
                    <path d="M74.904954,0.145916997 C74.0752397,0.145916997 73.3434778,0.671460451 73.0822714,1.45593955 L71.4650968,6.30091315 L66.6154937,7.91590435 C65.8280333,8.17867607 65.3017794,8.90753196 65.3017794,9.73612602 C65.3017794,10.562802 65.8280333,11.293576 66.6154937,11.5544296 L71.4650968,13.1694208 L73.0822714,18.0143944 C73.3434778,18.8007916 74.0752397,19.326335 74.904954,19.326335 C75.7346683,19.326335 76.4645095,18.8007916 76.7257159,18.0143944 L78.3428905,13.1694208 L83.1944143,11.5544296 C83.9818746,11.293576 84.5081286,10.562802 84.5081286,9.73612602 C84.5081286,8.90753196 83.9818746,8.17867607 83.1944143,7.91590435 L78.3428905,6.30091315 L76.7257159,1.45593955 C76.4645095,0.671460451 75.7346683,0.145916997 74.904954,0.145916997 M74.805081,8.42418542 L74.904954,8.12880699 L75.0029063,8.42418542 C75.1930492,8.99576188 75.646319,9.44650171 76.2167476,9.63638784 L76.5125254,9.73612602 L76.2167476,9.83394615 C75.646319,10.0257503 75.1930492,10.4745721 75.0029063,11.0480666 L74.904954,11.343445 L74.805081,11.0480666 C74.6149381,10.4745721 74.1635889,10.0257503 73.5912397,9.83394615 L73.2954619,9.73612602 L73.5912397,9.63638784 C74.1635889,9.44650171 74.6149381,8.99576188 74.805081,8.42418542" id="Fill-61"></path>
                    <path d="M7.68253968,76.6968834 C7.6287619,76.7563427 7.57306349,76.813884 7.51160317,76.8675892 C7.57306349,76.9212943 7.6287619,76.9769175 7.68253968,77.0382949 C7.73631746,76.9769175 7.79201587,76.9212943 7.85347619,76.8675892 C7.79201587,76.813884 7.73631746,76.7563427 7.68253968,76.6968834" id="Fill-63"></path>
                    <path d="M7.68253968,69.1952301 C6.8528254,69.1952301 6.12298413,69.7207736 5.86177778,70.5052527 L4.7247619,73.9116949 L1.31371429,75.0471757 C0.526253968,75.3099474 0,76.0388033 0,76.8673974 C0,77.6959914 0.526253968,78.4248473 1.31371429,78.687619 L4.72284127,79.8211817 L5.86177778,83.227624 C6.12298413,84.0140211 6.8528254,84.5395646 7.68253968,84.5395646 C8.51225397,84.5395646 9.24209524,84.0140211 9.50330159,83.227624 L10.6422381,79.8211817 L14.0513651,78.687619 C14.8388254,78.4248473 15.3650794,77.6959914 15.3650794,76.8673974 C15.3650794,76.0388033 14.8388254,75.3099474 14.0513651,75.0471757 L10.6422381,73.9116949 L9.50330159,70.5052527 C9.24209524,69.7207736 8.51225397,69.1952301 7.68253968,69.1952301 M7.51160317,76.8673974 C7.57306349,76.8136922 7.6287619,76.758069 7.68253968,76.6966916 C7.73631746,76.758069 7.79201587,76.8136922 7.85347619,76.8673974 C7.79201587,76.9211025 7.73631746,76.9767257 7.68253968,77.0381031 C7.6287619,76.9767257 7.57306349,76.9211025 7.51160317,76.8673974" id="Fill-65"></path>
                    <path d="M136.365079,173.080594 L136.267127,173.375972 C136.075063,173.947549 135.623714,174.398289 135.051365,174.588175 L134.755587,174.687913 L135.051365,174.785733 C135.623714,174.977537 136.075063,175.426359 136.267127,175.999854 L136.365079,176.295232 L136.463032,175.999854 C136.653175,175.426359 137.106444,174.977537 137.676873,174.785733 L137.972651,174.687913 L137.676873,174.588175 C137.106444,174.398289 136.653175,173.947549 136.463032,173.375972 L136.365079,173.080594" id="Fill-67"></path>
                    <path d="M136.365079,165.097512 C135.535365,165.097512 134.805524,165.623056 134.542397,166.407535 L132.925222,171.252508 L128.075619,172.8675 C127.288159,173.130271 126.761905,173.859127 126.761905,174.687721 C126.761905,175.516315 127.288159,176.245171 128.075619,176.506025 L132.925222,178.121016 L134.542397,182.96599 C134.805524,183.752387 135.535365,184.27793 136.365079,184.27793 C137.194794,184.27793 137.924635,183.752387 138.185841,182.96599 L139.803016,178.122934 L144.65454,176.506025 C145.442,176.245171 145.968254,175.516315 145.968254,174.687721 C145.968254,173.859127 145.442,173.130271 144.65454,172.8675 L139.803016,171.252508 L138.185841,166.407535 C137.924635,165.623056 137.194794,165.097512 136.365079,165.097512 M136.267127,173.375781 L136.365079,173.080402 L136.463032,173.375781 C136.653175,173.947357 137.106444,174.398097 137.676873,174.589901 L137.972651,174.687721 L137.676873,174.785541 C137.106444,174.977345 136.653175,175.426167 136.463032,175.999662 L136.365079,176.29504 L136.267127,175.999662 C136.075063,175.426167 135.623714,174.977345 135.051365,174.785541 L134.755587,174.687721 L135.051365,174.589901 C135.623714,174.398097 136.075063,173.947357 136.267127,173.375781" id="Fill-69"></path>
                    <path d="M28.8093317,25.0802686 C26.6889508,25.0802686 24.9680619,26.7969161 24.9680619,28.9163523 C24.9680619,31.0338704 26.6889508,32.7524359 28.8093317,32.7524359 C30.9316333,32.7524359 32.6506016,31.0338704 32.6506016,28.9163523 C32.6506016,26.7969161 30.9316333,25.0802686 28.8093317,25.0802686" id="Fill-71"></path>
                    <path d="M178.618663,147.834561 C176.498283,147.834561 174.777394,149.553126 174.777394,151.670644 C174.777394,153.79008 176.498283,155.506728 178.618663,155.506728 C180.740965,155.506728 182.459933,153.79008 182.459933,151.670644 C182.459933,149.553126 180.740965,147.834561 178.618663,147.834561" id="Fill-73"></path>
                </g>
            </g>
        </g>
    </g>
</svg>