<svg height="70" viewBox="0 0 62 70" width="62" xmlns="http://www.w3.org/2000/svg"><g fill="none" transform="translate(8 9)"><g fill="#ffe1cf" transform="translate(10.387097 13.371429)"><path d="m12.2335025 4.93245077v-1.09592274h1.3537081v1.12779502c.8761239.14335922 1.6641881.52055272 2.2862062 1.05825827v2.66560691h-.09593c-.4240692-.75864972-1.437079-1.29296755-2.6203043-1.29296755-1.5650747 0-2.8335415.93403651-2.8335415 2.0861508 0 1.14558832 1.2548388 2.07527412 2.8081561 2.08533502v.000272h.0157657c.0032065 0 .0064131.0002719.0096197.0002719.003741 0 .0077492 0 .0114902-.0002719h2.331499l.8786009-.0000273v3.3437691c-.2340798-.3502297-.530955-.6689169-.8786009-.9462728v-1.6320543c-.7468118.5186236-1.6746468.8280132-2.6813233.8325926 2.1504232.3026524 3.7854799 1.8196991 3.7854799 3.6455947 0 1.6014233-1.257412 2.9653315-3.0171177 3.4808948v1.1291395h-1.3537081v-.912594c-.067766.0024104-.1359167.0036283-.204419.0036283-1.1418072 0-2.18527935-.3390811-2.98665532-.8986872v-2.0752741h.00133607c.20299964.2586525.47934154.4808122.80752191.6502652v-4.6324965c.64746044-.2838818 1.38924764-.4454008 2.17779734-.4454008.010929 0 .0218491.000031.0327601.0000929-2.13278944-.3222942-3.75967945-2.0251419-3.75967945-4.07716903 0-2.10724289 1.71480285-3.84597408 3.93133835-4.1005288zm-1.8769139 9.67123233v3.7898328c.318676.098437.6676768.1527138 1.0335852.1527138 1.5041499 0 2.7234491-.9166338 2.7234491-2.0475386 0-1.1311766-1.2192992-2.0478104-2.7234491-2.0478104-.3659735 0-.7149507.0543414-1.0335852.1528024z"/><path d="m23.801769 12.5851811-11.2715956 11.321078-11.27132429-11.321078 11.27132429-11.32080562zm-23.801769 0 12.5301734 12.5851811 12.5304447-12.5851811-12.5304447-12.5851811z"/></g><path d="m22.621426 9.75773781v-.75278272h1v.75278272zm0 1.50556539v-.7527827h1v.7527827zm0-3.01113083v-.75278272h1v.75278272zm0-1.50556544v-.75278272h1v.75278272zm0-2.25834816h1v.75278272h-1zm0 42.76277103v-.7527827h1v.7527827zm0-3.0110293v-.7527828h1v.7527828zm0 1.5055654v-.7527827h1v.7527827zm0-3.0111309v-.7527827h1v.7527827zm0-2.2583481h1v.7527827h-1zm-20.15268673-26.5097158 19.17417003-12.18515642.3830023.59745264-19.17417002 12.18515638zm21.59575613-11.58650704.3829311-.59752352 19.1766169 12.18300076-.3829311.5975235zm-.0011689 47.27062944 19.174342-12.1852656.3830023.5974526-19.174342 12.1852657zm-21.59558355-11.5859249.38293112-.5975235 19.17644483 12.1828915-.3829311.5975235zm-1.20974956-21.8486619h.7117982v19.5678819h-.7117982zm42.77215581 0h.7117982v19.5678819h-.7117982zm-38.89439591 18.2750904.67395396-.3413523.34304634.6709232-.67385195.3413522zm-1.3477039.6827044.67385195-.3413522.34304634.6709232-.67385195.3413522zm6.06476956-3.0720685.34304635.6709232-.67385196.3413522-.34304634-.6709232zm-2.02155585 1.0240567.67385195-.3413522.34304634.6709232-.67385195.3413522zm-1.3477039.6827045.67415797-.3413523.34284232.6709232-.67415797.3413522zm31.7084779-16.141055.674056-.3413522.3428423.6709232-.674056.3413522zm-1.3477039.6826029.673954-.3413522.3430463.6709231-.673852.3413523zm-1.3477039.6827044.673852-.3413522.3430463.6709232-.673852.3413522zm6.0646676-3.0720685.3430463.6709232-.673852.3413523-.3430463-.6709232zm-2.0215559 1.0240567.673954-.3413522.3430463.6709232-.6738519.3413522zm-33.05597779.8797361.34263831-.6709232.67385196.3412507-.34263832.6709232zm-2.69571382-1.3653073.34304634-.6709232.67364794.3413522-.34263832.6709232zm1.3477039.6826029.34304634-.6709232.67385195.3413522-.34304634.6709232zm2.69571382 1.3653073.34253631-.6709232.67415797.3413523-.34304634.6709232zm1.69034222.0117813.67415797.3413522-.34263832.6709232-.67405596-.3413522zm28.67022777 15.4466708.3428423-.6709232.674056.3413522-.3428423.6709232zm-2.6954078-1.3654089.3430463-.6709232.673852.3413522-.3430463.6709232zm1.3477039.6827044.3430463-.6709232.673852.3413523-.3430463.6709232zm2.6956118 1.365409.3426383-.6709232.673852.3412506-.3426383.6709232zm1.6906483.0116797.6738519.3413522-.3430463.6709232-.673852-.3413523z" fill="#eb3b00"/><path d="m22.9994604 0c.8896967 0 1.6132256.72058735 1.6132256 1.6064172 0 .88582986-.7235289 1.6064172-1.6132256 1.6064172-.8896968 0-1.6135317-.72058734-1.6135317-1.6064172 0-.88582985.7238349-1.6064172 1.6135317-1.6064172zm0 2.50412989c.4971775 0 .9015294-.4026961.9015294-.89771269 0-.49491503-.4043519-.89761113-.9015294-.89761113s-.9017335.40259454-.9017335.89761113.404556.89771269.9017335.89771269zm0 46.28303571c.8896967 0 1.6132256.7206889 1.6132256 1.6064172 0 .8858299-.7235289 1.6064172-1.6132256 1.6064172-.8896968 0-1.6135317-.7205873-1.6135317-1.6064172s.7238349-1.6064172 1.6135317-1.6064172zm0 2.5041299c.4971775 0 .9015294-.4026961.9015294-.8977127 0-.494915-.4043519-.8976111-.9015294-.8976111s-.9017335.4025945-.9017335.8976111.404556.8977127.9017335.8977127zm22.7285795-37.2150102c.2392042.3568913.3245832.7851812.2403262 1.2059555-.084359.4207742-.3282554.7837593-.6866027 1.0220254-.2662357.1769222-.5756201.2704615-.894593.2704615-.5410401 0-1.0431138-.2672115-1.3431136-.7146967-.2392042-.3567898-.3245833-.7851812-.2404283-1.2059555.084461-.4207743.3283575-.7837593.6867047-1.0220254.2663378-.1769223.5756202-.2704615.8945931-.2704615.54104 0 1.0431138.2672115 1.3431136.7146967zm-.4578031 1.0673224c.0470247-.2351176-.0007141-.4743994-.134444-.6737669-.1674939-.2500474-.4484186-.3993446-.7508665-.3993446-.1778986 0-.3503908.0523048-.4993196.1512269-.2002379.1331487-.336416.3359694-.3836448.571087-.0470248.2351177.0007141.4743994.134342.673767.1675959.2500473.4484186.3993445.7508665.3993445.1780006 0 .3504928-.0523048.4994216-.1512268.2003399-.1331487.336416-.3359695.3836448-.5710871zm-42.31425074 20.996666c.23920418.3568913.32458324.7852828.24022424 1.2061586-.084359.4207743-.32825546.7837594-.68660271 1.0220255-.26623578.1769222-.57562012.2704614-.89459303.2704614-.54114209 0-1.04301184-.2671099-1.34301163-.7146967-.23920418-.3567898-.32458324-.7851812-.24042825-1.2059555.08415499-.4208758.32805145-.7838609.68639869-1.022127.26633779-.1769222.57572214-.2703599.89469505-.2703599.54104007 0 1.04331785.2670084 1.34331764.7144936zm-.45780314 1.0675255c.04702478-.2351176-.00071405-.4745009-.13423996-.6738685-.16759594-.2500473-.44841859-.3993445-.75117254-.3993445-.17800055 0-.35049278.0524064-.49942161.1512269-.20033987.1330471-.33641594.3358678-.38344073.5709854-.04702479.2351177.00051003.474501.13434197.6739701.16759593.2501489.44811256.3993445.75086651.3993445.17800056 0 .35049278-.0523047.49942161-.1512268.20023787-.1331487.33641595-.3359694.38364475-.5710871zm43.46936718-.4856728c.084155.4208758-.0012241.8491657-.2406323 1.2059555-.2999998.4472821-.8020735.714392-1.3428076.714392-.3191769 0-.6285612-.0936408-.894899-.2706646-.7398499-.4918681-.9399858-1.4914482-.4459705-2.2280825.2999998-.4472821.8020736-.714392 1.3430116-.714392.319177 0 .6285613.0936408.8948991.2706646.3583472.2383677.6022437.6013528.6863987 1.022127zm-.8328794.8122985c.133934-.1993676.1815708-.4386493.134546-.673767-.0470248-.2352192-.1833049-.4380399-.3834407-.5711886-.1489289-.0989221-.3216251-.1512268-.4996257-.1512268-.3024479 0-.5832705.1491956-.7508665.3992429-.2761304.4115321-.1643317.9701269.2490988 1.2449556.1489288.098922.3217271.1512268.4996256.1512268.3024479 0 .5830666-.1491956.7506625-.3992429zm-42.62118688-23.9062342c.73974786.4918681.93988373 1.4914482.44597044 2.228184-.30010179.4472821-.80217555.714392-1.34311362.714392-.31897292 0-.62856127-.0936408-.89459304-.2706646-.73984987-.4919697-.93988373-1.4915497-.44597044-2.228184.30010179-.4472821.80217556-.714392 1.34311363-.714392.3188709 0 .62856126.0936408.89459303.2706646zm-.14627667 1.8344254c.27623238-.4116336.16443375-.9701269-.24909877-1.2450571-.14882682-.098922-.32162506-.1512268-.4993196-.1512268-.30265194 0-.58327058.1491956-.75086652.3992429-.27613037.4116336-.16433174.9701269.24909877 1.2450571.14882683.0989221.32162507.1512269.49931961.1512269.30265194 0 .58327058-.1492972.75086651-.399243z" fill="#ffe1cf"/></g></svg>