<?xml version="1.0" encoding="UTF-8"?>
<svg width="62px" height="70px" viewBox="0 0 62 70" version="1.1" xmlns="http://www.w3.org/2000/svg" xmlns:xlink="http://www.w3.org/1999/xlink">
    <!-- Generator: Sketch 52.4 (67378) - http://www.bohemiancoding.com/sketch -->
    <title>feature/icon 1</title>
    <desc>Created with Sketch.</desc>
    <g id="feature/icon-1" stroke="none" stroke-width="1" fill="none" fill-rule="evenodd">
        <g id="icon" transform="translate(1.000000, 8.000000)">
            <g id="INTERNET-OF-THINGS">
                <path d="M18.5859375,19.2982246 L17.8359375,19.2982246 L17.8359375,12.4890244 L12.4453125,12.4890244 L12.4453125,11.1682927 L13.1953125,11.1682927 L13.1953125,11.7707317 L18.5859375,11.7707317 L18.5859375,19.2982246 Z M13.46875,10.4268293 L12.46875,10.4268293 L12.46875,9.70853659 L13.46875,9.70853659 L13.46875,10.4268293 Z M13.46875,8.96707317 L12.46875,8.96707317 L12.46875,8.24878049 L13.46875,8.24878049 L13.46875,8.96707317 Z M13.46875,7.50731707 L12.46875,7.50731707 L12.46875,6.78902439 L13.46875,6.78902439 L13.46875,7.50731707 Z M13.46875,6.07073171 L12.46875,6.07073171 L12.46875,5.32926829 L13.46875,5.32926829 L13.46875,6.07073171 Z M13.46875,4.61097561 L12.46875,4.61097561 L12.46875,3.89268293 L13.46875,3.89268293 L13.46875,4.61097561 Z M47.4140625,19.3012195 L43.5,19.3012195 L43.5,18.5829268 L46.6640625,18.5829268 L46.6640625,17.7256098 L47.4140625,17.7256098 L47.4140625,19.3012195 Z M47.6875,16.9146341 L46.6875,16.9146341 L46.6875,16.1963415 L47.6875,16.1963415 L47.6875,16.9146341 Z M47.6875,15.454878 L46.6875,15.454878 L46.6875,14.7365854 L47.6875,14.7365854 L47.6875,15.454878 Z M47.6875,13.995122 L46.6875,13.995122 L46.6875,13.2768293 L47.6875,13.2768293 L47.6875,13.995122 Z M47.6875,12.5353659 L46.6875,12.5353659 L46.6875,11.8170732 L47.6875,11.8170732 L47.6875,12.5353659 Z M47.6875,11.0756098 L46.6875,11.0756098 L46.6875,10.3573171 L47.6875,10.3573171 L47.6875,11.0756098 Z M47.6875,9.61585366 L46.6875,9.61585366 L46.6875,8.89756098 L47.6875,8.89756098 L47.6875,9.61585366 Z M29.2421875,42.5182927 L28.2421875,42.5182927 L28.2421875,41.8 L29.2421875,41.8 L29.2421875,42.5182927 Z M29.2421875,41.0585366 L28.2421875,41.0585366 L28.2421875,40.3402439 L29.2421875,40.3402439 L29.2421875,41.0585366 Z M29.2421875,39.5987805 L28.2421875,39.5987805 L28.2421875,38.8804878 L29.2421875,38.8804878 L29.2421875,39.5987805 Z M29.2421875,38.1621951 L28.2421875,38.1621951 L28.2421875,37.4439024 L29.2421875,37.4439024 L29.2421875,38.1621951 Z M43.2578125,53.1073171 L42.2578125,53.1073171 L42.2578125,52.3658537 L43.2578125,52.3658537 L43.2578125,53.1073171 Z M43.2578125,51.647561 L42.2578125,51.647561 L42.2578125,50.9292683 L43.2578125,50.9292683 L43.2578125,51.647561 Z M43.2578125,50.1878049 L42.2578125,50.1878049 L42.2578125,49.4695122 L43.2578125,49.4695122 L43.2578125,50.1878049 Z M43.2578125,48.7280488 L42.2578125,48.7280488 L42.2578125,48.0097561 L43.2578125,48.0097561 L43.2578125,48.7280488 Z M43.2578125,47.2682927 L42.2578125,47.2682927 L42.2578125,46.55 L43.2578125,46.55 L43.2578125,47.2682927 Z M43.2578125,45.8085366 L42.2578125,45.8085366 L42.2578125,45.0902439 L43.2578125,45.0902439 L43.2578125,45.8085366 Z M43.2578125,44.3487805 L42.2578125,44.3487805 L42.2578125,43.6304878 L43.2578125,43.6304878 L43.2578125,44.3487805 Z M43.2578125,42.9121951 L42.2578125,42.9121951 L42.2578125,42.1707317 L43.2578125,42.1707317 L43.2578125,42.9121951 Z M17.109375,42.6804878 L16.3828125,42.6804878 L16.3828125,42.0085366 L12.4453125,42.0085366 L12.4453125,36.1463415 L13.1953125,36.1463415 L13.1953125,41.2902439 L17.109375,41.2902439 L17.109375,42.6804878 Z M43.0078125,41.2207317 L42.2578125,41.2207317 L42.2578125,39.645122 L46.6640625,39.645122 L46.6640625,36.8182927 L47.4140625,36.8182927 L47.4140625,40.3865854 L43.0078125,40.3865854 L43.0078125,41.2207317 Z M8.953125,26.6731707 L8.2265625,26.6731707 L8.2265625,25.6731707 L8.953125,25.6731707 L8.953125,26.6731707 Z M7.4765625,26.6731707 L6.75,26.6731707 L6.75,25.6731707 L7.4765625,25.6731707 L7.4765625,26.6731707 Z M6.0234375,26.6731707 L5.296875,26.6731707 L5.296875,25.6731707 L6.0234375,25.6731707 L6.0234375,26.6731707 Z M4.546875,26.6731707 L3.8203125,26.6731707 L3.8203125,25.6731707 L4.546875,25.6731707 L4.546875,26.6731707 Z M55.8984375,31.6780488 L55.171875,31.6780488 L55.171875,30.6780488 L55.8984375,30.6780488 L55.8984375,31.6780488 Z M54.421875,31.6780488 L53.6953125,31.6780488 L53.6953125,30.6780488 L54.421875,30.6780488 L54.421875,31.6780488 Z M52.9453125,31.6780488 L52.21875,31.6780488 L52.21875,30.6780488 L52.9453125,30.6780488 L52.9453125,31.6780488 Z M51.46875,31.6780488 L50.7421875,31.6780488 L50.7421875,30.6780488 L51.46875,30.6780488 L51.46875,31.6780488 Z M17.3828125,45.5073171 L16.3828125,45.5073171 L16.3828125,44.7890244 L17.3828125,44.7890244 L17.3828125,45.5073171 Z M17.3828125,44.047561 L16.3828125,44.047561 L16.3828125,43.3292683 L17.3828125,43.3292683 L17.3828125,44.047561 Z" id="Combined-Shape" fill="#D94A1E"></path>
                <g id="Group-11" fill="#FFE1CF" fill-rule="nonzero">
                    <path d="M12.8203125,3.26707317 C11.9296875,3.26707317 11.203125,2.54878049 11.203125,1.66829268 C11.203125,0.787804878 11.9296875,0.0695121951 12.8203125,0.0695121951 C13.7109375,0.0695121951 14.4375,0.787804878 14.4375,1.66829268 C14.4375,2.54878049 13.7109375,3.26707317 12.8203125,3.26707317 Z M12.8203125,0.764634146 C12.328125,0.764634146 11.9296875,1.15853659 11.9296875,1.64512195 C11.9296875,2.13170732 12.328125,2.52560976 12.8203125,2.52560976 C13.3125,2.52560976 13.7109375,2.13170732 13.7109375,1.64512195 C13.7109375,1.15853659 13.3125,0.764634146 12.8203125,0.764634146 Z" id="Shape"></path>
                    <path d="M1.6171875,27.6195122 C0.7265625,27.6195122 -1.07469589e-13,26.9012195 -1.07469589e-13,26.0207317 C-1.07469589e-13,25.1402439 0.7265625,24.4219512 1.6171875,24.4219512 C2.5078125,24.4219512 3.234375,25.1402439 3.234375,26.0207317 C3.2578125,26.9012195 2.53125,27.6195122 1.6171875,27.6195122 Z M1.6171875,25.1402439 C1.125,25.1402439 0.7265625,25.5341463 0.7265625,26.0207317 C0.7265625,26.5073171 1.125,26.9012195 1.6171875,26.9012195 C2.109375,26.9012195 2.5078125,26.5073171 2.5078125,26.0207317 C2.53125,25.5341463 2.109375,25.1402439 1.6171875,25.1402439 Z" id="Shape"></path>
                    <path d="M16.7578125,49.2841463 C15.8671875,49.2841463 15.140625,48.5658537 15.140625,47.6853659 C15.140625,46.804878 15.8671875,46.0865854 16.7578125,46.0865854 C17.6484375,46.0865854 18.375,46.804878 18.375,47.6853659 C18.375,48.5426829 17.6484375,49.2841463 16.7578125,49.2841463 Z M16.7578125,46.7817073 C16.265625,46.7817073 15.8671875,47.1756098 15.8671875,47.6621951 C15.8671875,48.1487805 16.265625,48.5426829 16.7578125,48.5426829 C17.25,48.5426829 17.6484375,48.1487805 17.6484375,47.6621951 C17.6484375,47.1756098 17.25,46.7817073 16.7578125,46.7817073 Z" id="Shape"></path>
                    <path d="M28.6171875,46.4109756 C27.7265625,46.4109756 27,45.6926829 27,44.8121951 C27,43.9317073 27.7265625,43.2134146 28.6171875,43.2134146 C29.5078125,43.2134146 30.234375,43.9317073 30.234375,44.8121951 C30.234375,45.6926829 29.5078125,46.4109756 28.6171875,46.4109756 Z M28.6171875,43.9085366 C28.125,43.9085366 27.7265625,44.302439 27.7265625,44.7890244 C27.7265625,45.2756098 28.125,45.6695122 28.6171875,45.6695122 C29.109375,45.6695122 29.5078125,45.2756098 29.5078125,44.7890244 C29.5078125,44.302439 29.109375,43.9085366 28.6171875,43.9085366 Z" id="Shape"></path>
                    <path d="M42.609375,56.9536585 C41.71875,56.9536585 40.9921875,56.2353659 40.9921875,55.354878 C40.9921875,54.4743902 41.71875,53.7560976 42.609375,53.7560976 C43.5,53.7560976 44.2265625,54.4743902 44.2265625,55.354878 C44.2265625,56.2353659 43.5,56.9536585 42.609375,56.9536585 Z M42.609375,54.4743902 C42.1171875,54.4743902 41.71875,54.8682927 41.71875,55.354878 C41.71875,55.8414634 42.1171875,56.2353659 42.609375,56.2353659 C43.1015625,56.2353659 43.5,55.8414634 43.5,55.354878 C43.5,54.8682927 43.1015625,54.4743902 42.609375,54.4743902 Z" id="Shape"></path>
                    <path d="M58.3828125,32.6243902 C57.4921875,32.6243902 56.765625,31.9060976 56.765625,31.0256098 C56.765625,30.145122 57.4921875,29.4268293 58.3828125,29.4268293 C59.2734375,29.4268293 60,30.145122 60,31.0256098 C60,31.9060976 59.2734375,32.6243902 58.3828125,32.6243902 Z M58.3828125,30.145122 C57.890625,30.145122 57.4921875,30.5390244 57.4921875,31.0256098 C57.4921875,31.5121951 57.890625,31.9060976 58.3828125,31.9060976 C58.875,31.9060976 59.2734375,31.5121951 59.2734375,31.0256098 C59.2734375,30.5390244 58.875,30.145122 58.3828125,30.145122 Z" id="Shape"></path>
                    <path d="M47.0390625,8.06341463 C46.1484375,8.06341463 45.421875,7.34512195 45.421875,6.46463415 C45.421875,5.58414634 46.1484375,4.86585366 47.0390625,4.86585366 C47.9296875,4.86585366 48.65625,5.58414634 48.65625,6.46463415 C48.6796875,7.34512195 47.9296875,8.06341463 47.0390625,8.06341463 Z M47.0390625,5.56097561 C46.546875,5.56097561 46.1484375,5.95487805 46.1484375,6.44146341 C46.1484375,6.92804878 46.546875,7.32195122 47.0390625,7.32195122 C47.53125,7.32195122 47.9296875,6.92804878 47.9296875,6.44146341 C47.9296875,5.95487805 47.53125,5.56097561 47.0390625,5.56097561 Z" id="Shape"></path>
                </g>
                <path d="M44.71875,25.8585366 L43.546875,25.8121951 L43.546875,24.6536585 C43.546875,24.6073171 43.546875,24.4914634 43.546875,24.4914634 C43.546875,18.0268293 38.2265625,12.7670732 31.6875,12.7670732 C26.953125,12.7670732 22.6640625,15.547561 20.7890625,19.8573171 L20.390625,20.7841463 L19.40625,20.5756098 C18.84375,20.4597561 18.28125,20.3902439 17.6953125,20.3902439 C13.2890625,20.3902439 9.6796875,23.9353659 9.6796875,28.3146341 C9.6796875,32.6707317 13.265625,36.2390244 17.6953125,36.2390244 L44.484375,36.2390244 C47.3671875,36.2390244 49.7109375,33.9219512 49.7109375,31.0487805 C49.7109375,28.245122 47.5078125,25.9743902 44.71875,25.8585366 Z" id="Path-2" fill="#D94A1E" fill-rule="nonzero"></path>
                <g id="Group-12" transform="translate(8.372093, 11.121951)" fill="#FFE1CF">
                    <path d="M1.65915698,13.4158537 L1.00290698,13.0914634 C2.29196948,10.4963415 4.77634448,8.59634146 7.63571948,7.99390244 L7.77634448,8.71219512 C5.15134448,9.24512195 2.85446948,11.0060976 1.65915698,13.4158537 Z" id="Path" fill-rule="nonzero"></path>
                    <path d="M3.32321948,24.352439 C1.23728198,22.5682927 0.0419694767,19.9731707 0.0419694767,17.2390244 L0.768531977,17.2390244 C0.768531977,19.7646341 1.87009448,22.1512195 3.81540698,23.8195122 L3.32321948,24.352439 Z" id="Path" fill-rule="nonzero"></path>
                    <path d="M40.2607195,25.302439 L39.815407,24.7231707 C40.846657,23.9585366 41.596657,22.8695122 41.971657,21.6646341 L42.674782,21.8731707 C42.252907,23.2402439 41.409157,24.445122 40.2607195,25.302439 Z" id="Path" fill-rule="nonzero"></path>
                    <path d="M42.018532,18.4207317 C41.3388445,15.8719512 39.0888445,14.1109756 36.440407,13.995122 L36.0888445,13.9719512 L36.0888445,13.4621951 C36.0888445,12.5585366 35.9950945,11.6317073 35.784157,10.7280488 L36.5107195,10.5658537 C36.6982195,11.4463415 36.815407,12.35 36.8388445,13.2768293 C39.6513445,13.5317073 41.9950945,15.5012195 42.7450945,18.2353659 L42.018532,18.4207317 Z" id="Path" fill-rule="nonzero"></path>
                    <path d="M11.924782,8.36463415 L11.2450945,8.06341463 C13.4013445,3.31341463 18.1825945,0.231707317 23.456032,0.231707317 C27.721657,0.231707317 31.7763445,2.27073171 34.284157,5.7 L33.6982195,6.11707317 C31.331032,2.87317073 27.5107195,0.95 23.4794695,0.95 C18.487282,0.973170732 13.9638445,3.8695122 11.924782,8.36463415 Z" id="Path" fill-rule="nonzero"></path>
                    <path d="M18.4169695,26.6695122 L9.55759448,26.6695122 C8.38571948,26.6695122 7.23728198,26.4609756 6.13571948,26.0439024 L6.39353198,25.3719512 C7.40134448,25.7658537 8.45603198,25.9512195 9.55759448,25.9512195 L18.393532,25.9512195 L18.393532,26.6695122 L18.4169695,26.6695122 Z" id="Path"></path>
                    <path d="M36.159157,26.6695122 L22.143532,26.6695122 L22.143532,25.9512195 L36.159157,25.9512195 C36.5107195,25.9512195 36.8857195,25.9280488 37.2607195,25.8585366 L37.4013445,26.5768293 C36.9794695,26.6231707 36.581032,26.6695122 36.159157,26.6695122 Z" id="Path"></path>
                </g>
            </g>
            <g id="Group-7" transform="translate(23.333333, 18.558140)" fill="#FFE1CF">
                <path d="M7.056,11.8000912 C3.22734146,11.8000912 0.112682927,9.16608012 0.112682927,5.92813741 C0.112682927,2.6901947 3.2275122,0.0561836358 7.056,0.0561836358 C10.8844878,0.0561836358 13.9993171,2.69036444 13.9993171,5.92813741 C13.9993171,9.16591038 10.8844878,11.8000912 7.056,11.8000912 Z M7.056,0.588145916 C3.52253659,0.588145916 0.647756098,2.98367357 0.647756098,5.92813741 C0.647756098,8.87260125 3.52253659,11.2679592 7.056,11.2679592 C10.5894634,11.2679592 13.4642439,8.87243151 13.4642439,5.92813741 C13.4642439,2.98384331 10.5892927,0.588145916 7.056,0.588145916 Z" id="Shape" fill-rule="nonzero"></path>
                <path d="M7.056,10.6818501 C3.88636585,10.6818501 1.30763415,8.54941804 1.30763415,5.92813741 C1.30763415,3.30685678 3.88636585,1.1744247 7.056,1.1744247 C10.2256341,1.1744247 12.8041951,3.30702652 12.8041951,5.92813741 C12.8041951,8.5492483 10.2254634,10.6818501 7.056,10.6818501 Z M7.056,1.70638698 C4.18139024,1.70638698 1.84287805,3.60016591 1.84287805,5.92813741 C1.84287805,8.25593917 4.18156098,10.1497181 7.056,10.1497181 C9.93043902,10.1497181 12.2689512,8.25593917 12.2689512,5.92813741 C12.2689512,3.60033565 9.93043902,1.70638698 7.056,1.70638698 Z" id="Shape" fill-rule="nonzero"></path>
                <path d="M7.056,13.8245692 C3.227,13.8245692 0.111829268,11.1905581 0.111829268,7.95295491 L0.111829268,5.92813741 L0.646902439,5.92813741 C0.646902439,8.87243151 3.52202439,11.2677894 7.056,11.2677894 C10.5898049,11.2677894 13.4649268,8.87243151 13.4649268,5.92813741 L14,5.92813741 L14,7.95295491 C14,11.1905581 10.8848293,13.8245692 7.056,13.8245692 Z M0.653731707,8.20230162 C0.810634146,11.0313429 3.6222439,13.2924372 7.05582927,13.2924372 C10.4894146,13.2924372 13.3010244,11.0313429 13.4579268,8.20230162 C12.4048537,10.3138558 9.93180488,11.7997517 7.05582927,11.7997517 C4.17985366,11.7997517 1.70680488,10.3140255 0.653731707,8.20230162 Z" id="Shape" fill-rule="nonzero"></path>
                <path d="M9.00592683,4.72672419 L9.00592683,4.70313046 C9.00592683,3.98852893 8.35202439,3.39647901 7.50195122,3.29175 L7.50195122,2.48599858 L6.96687805,2.48599858 L6.96687805,3.29175 C6.11697561,3.39630927 5.46290244,3.98835919 5.46290244,4.70313046 C5.46290244,5.48783423 6.25390244,6.12622292 7.22621951,6.12622292 L7.35478049,6.12622292 C7.97009756,6.12622292 8.47068293,6.4870882 8.47068293,6.93061642 C8.47068293,7.42540584 7.91597561,7.82802694 7.23441463,7.82802694 C6.55268293,7.82802694 5.99814634,7.42540584 5.99814634,6.93061642 L5.46307317,6.93061642 C5.46307317,7.64521795 6.11697561,8.23726787 6.96704878,8.34199688 L6.96704878,9.1477483 L7.50212195,9.1477483 L7.50212195,8.34199688 C8.35202439,8.23743761 9.00609756,7.64538769 9.00609756,6.93061642 C9.00609756,6.19377907 8.26546341,5.59426064 7.35495122,5.59426064 L7.22639024,5.59426064 C6.54926829,5.59426064 5.99831707,5.1945251 5.99831707,4.7033002 C5.99831707,4.20851078 6.55302439,3.80588968 7.23458537,3.80588968 C7.91631707,3.80588968 8.47085366,4.20851078 8.47085366,4.7033002 L8.47085366,4.72689393 L9.00592683,4.72689393 L9.00592683,4.72672419 Z" id="Path"></path>
            </g>
        </g>
    </g>
</svg>