<?xml version="1.0" encoding="UTF-8"?>
<svg width="62px" height="70px" viewBox="0 0 62 70" version="1.1" xmlns="http://www.w3.org/2000/svg" xmlns:xlink="http://www.w3.org/1999/xlink">
    <!-- Generator: Sketch 52.4 (67378) - http://www.bohemiancoding.com/sketch -->
    <title>feature/icon 4</title>
    <desc>Created with Sketch.</desc>
    <g id="feature/icon-4" stroke="none" stroke-width="1" fill="none" fill-rule="evenodd">
        <g id="icon" transform="translate(6.000000, 9.000000)">
            <path d="M43.5427575,34.810889 L45.3866045,33.88125 L45.67116,34.4296875 L42.7239779,35.9328125 L41.8703113,32.8046875 L42.4597477,32.6421875 L42.9879238,34.5136239 C47.0860515,25.0642673 42.9901092,13.9501749 33.6182014,9.465625 C28.9636862,7.2515625 23.74006,6.9671875 18.8822909,8.6734375 C14.0245218,10.3796875 10.1220461,13.89375 7.90657821,18.525 C5.69111028,23.1765625 5.40655476,28.396875 7.11388785,33.2515625 C8.82122093,38.10625 12.3375141,42.00625 16.9717039,44.2203125 L16.6871483,44.809375 C11.8903554,42.5140625 8.2724353,38.4921875 6.50412603,33.475 C4.73581677,28.4578125 5.02037228,23.0546875 7.31714179,18.2609375 C9.61391129,13.4671875 13.6383393,9.8515625 18.6587116,8.084375 C23.6790838,6.3171875 29.0856386,6.6015625 33.8824315,8.896875 C43.570181,13.528936 47.8065445,25.0487343 43.5427575,34.810889 Z M26.0057498,2.30733472 L27.4799325,3.696875 L27.0327738,4.14375 L24.7156789,1.9703125 L27.2766785,-9.05941988e-14 L27.662861,0.5078125 L26.0984423,1.70052951 C32.7756658,1.92378106 38.9411047,4.70254643 43.557319,9.6078125 C47.9679295,14.3 50.4069767,20.4140625 50.4069767,26.853125 C50.3866514,40.70625 39.0857324,52 25.2034884,52 C11.3212444,52 0.0203253938,40.70625 0.0203253938,26.8328125 L0.650412603,26.8328125 C0.650412603,40.3609375 11.6667761,51.3703125 25.2034884,51.3703125 C38.7402007,51.3703125 49.7565641,40.3609375 49.7565641,26.8328125 C49.7565641,20.55625 47.3784931,14.584375 43.089835,10.0140625 C38.5743688,5.22796981 32.5361573,2.50849103 26.0057498,2.30733472 Z M25.2034884,42.0671875 C16.8294261,42.0671875 10.0204192,35.2625 10.0204192,26.89375 C10.0204192,18.525 16.8294261,11.7203125 25.2034884,11.7203125 C33.5775506,11.7203125 40.3865576,18.525 40.3865576,26.89375 C40.3865576,35.2625 33.5775506,42.0671875 25.2034884,42.0671875 Z M25.2034884,12.35 C17.1749578,12.35 10.6505064,18.8703125 10.6505064,26.89375 C10.6505064,34.9171875 17.1749578,41.4375 25.2034884,41.4375 C33.2320189,41.4375 39.7564704,34.9171875 39.7564704,26.89375 C39.7564704,18.8703125 33.2320189,12.35 25.2034884,12.35 Z" id="Combined-Shape" fill="#FFE1CF" fill-rule="nonzero"></path>
            <path d="M25.4677185,40.584375 L25.4473931,39.9546875 C25.650647,39.9546875 25.853901,39.934375 26.0571549,39.934375 L26.0978057,40.5640625 C25.8945518,40.584375 25.6912978,40.584375 25.4677185,40.584375 Z M24.8173059,40.584375 C24.5937266,40.584375 24.3904726,40.5640625 24.1668933,40.54375 L24.2075441,39.9140625 C24.410798,39.934375 24.614052,39.934375 24.8173059,39.9546875 L24.8173059,40.584375 Z M26.7482183,40.503125 L26.6872421,39.8734375 C26.8904961,39.853125 27.09375,39.8328125 27.2970039,39.7921875 L27.3986309,40.421875 C27.1750516,40.4625 26.9717976,40.4828125 26.7482183,40.503125 Z M23.5368061,40.503125 C23.3335521,40.4828125 23.1099728,40.4421875 22.9067189,40.4015625 L23.0083458,39.771875 C23.2115998,39.8125 23.4148537,39.8328125 23.6181077,39.853125 L23.5368061,40.503125 Z M28.0287181,40.3 L27.9067658,39.690625 C28.1100197,39.65 28.3132736,39.609375 28.4962022,39.5484375 L28.6588053,40.1578125 C28.4555514,40.21875 28.2319721,40.259375 28.0287181,40.3 Z M22.2766317,40.2796875 C22.0733777,40.2390625 21.8497984,40.178125 21.6465444,40.1171875 L21.8091476,39.5078125 C22.0124015,39.56875 22.2156555,39.609375 22.398584,39.65 L22.2766317,40.2796875 Z M29.2685671,39.975 L29.0856386,39.365625 C29.2888925,39.3046875 29.4718211,39.24375 29.675075,39.1625 L29.8986544,39.7515625 C29.6954004,39.853125 29.4718211,39.9140625 29.2685671,39.975 Z M21.0164572,39.9546875 C20.8132033,39.89375 20.6099494,39.8125 20.4066954,39.7515625 L20.6302748,39.1625 C20.8132033,39.24375 21.0164572,39.3046875 21.2197112,39.365625 L21.0164572,39.9546875 Z M30.4880908,39.5484375 L30.244186,38.959375 C30.4271146,38.878125 30.6303685,38.796875 30.8132971,38.715625 L31.0775272,39.284375 C30.8742733,39.365625 30.6913447,39.4671875 30.4880908,39.5484375 Z M19.817259,39.4875 C19.6140051,39.40625 19.4310765,39.3046875 19.2278226,39.2234375 L19.5123781,38.6546875 C19.6953066,38.7359375 19.8782352,38.8375 20.0814891,38.91875 L19.817259,39.4875 Z M31.6466382,39 L31.3417573,38.4515625 C31.5246859,38.35 31.7076144,38.2484375 31.8702176,38.146875 L32.1954239,38.6953125 C32.0328207,38.7765625 31.8295668,38.8984375 31.6466382,39 Z M18.6587116,38.9390625 C18.475783,38.8375 18.2928545,38.7359375 18.0896005,38.6140625 L18.4148068,38.0859375 C18.5977354,38.1875 18.7603385,38.2890625 18.9432671,38.390625 L18.6587116,38.9390625 Z M32.7645349,38.3296875 L32.4190032,37.8015625 C32.5816063,37.6796875 32.7645349,37.578125 32.927138,37.45625 L33.2929951,37.9640625 C33.1100666,38.0859375 32.927138,38.2078125 32.7645349,38.3296875 Z M17.5408149,38.26875 C17.3578863,38.146875 17.1952832,38.025 17.0123547,37.903125 L17.3985371,37.3953125 C17.5611403,37.5171875 17.7237434,37.6390625 17.906672,37.7609375 L17.5408149,38.26875 Z M33.80113,37.578125 L33.4149475,37.090625 C33.5775506,36.96875 33.7401538,36.8265625 33.8824315,36.684375 L34.3092648,37.1515625 C34.1263363,37.29375 33.9637331,37.4359375 33.80113,37.578125 Z M16.5042198,37.496875 C16.3416167,37.3546875 16.1790135,37.2125 16.0164104,37.0703125 L16.4432436,36.603125 C16.5855214,36.7453125 16.7481245,36.8671875 16.9107277,37.009375 L16.5042198,37.496875 Z M34.7564235,36.725 L34.3092648,36.278125 C34.4515426,36.1359375 34.5938203,35.99375 34.7360981,35.83125 L35.2035821,36.2578125 C35.0613044,36.4203125 34.9190266,36.5625 34.7564235,36.725 Z M15.5489263,36.6234375 C15.4066485,36.48125 15.2440454,36.31875 15.1017676,36.15625 L15.5692517,35.7296875 C15.7115294,35.871875 15.8538072,36.034375 15.996085,36.1765625 L15.5489263,36.6234375 Z M35.6507408,35.790625 L35.1629314,35.384375 C35.3052091,35.221875 35.4271615,35.059375 35.5491138,34.9171875 L36.0369233,35.303125 C35.9149709,35.4453125 35.7726932,35.628125 35.6507408,35.790625 Z M14.6749344,35.6890625 C14.5326566,35.5265625 14.4107042,35.3640625 14.2684265,35.18125 L14.7765613,34.7953125 C14.8985137,34.9578125 15.0204661,35.1203125 15.1627438,35.2828125 L14.6749344,35.6890625 Z M36.4231058,34.7546875 L35.9149709,34.3890625 C36.0369233,34.2265625 36.1385503,34.04375 36.2605026,33.88125 L36.7889629,34.2265625 C36.6670105,34.409375 36.5653835,34.5921875 36.4231058,34.7546875 Z M13.9025694,34.653125 C13.780617,34.4703125 13.6586647,34.2875 13.5570377,34.1046875 L14.0854979,33.7796875 C14.1871249,33.9625 14.3090773,34.125 14.4310296,34.2875 L13.9025694,34.653125 Z M37.1141692,33.678125 L36.5653835,33.3734375 C36.6670105,33.190625 36.7686375,33.0078125 36.849939,32.825 L37.4190501,33.109375 C37.3377485,33.2921875 37.2361215,33.4953125 37.1141692,33.678125 Z M13.2318314,33.55625 C13.1302044,33.3734375 13.0285775,33.1703125 12.9269505,32.9875 L13.4960615,32.703125 C13.5773631,32.8859375 13.6789901,33.06875 13.780617,33.2515625 L13.2318314,33.55625 Z M37.7036056,32.5203125 L37.1344946,32.25625 C37.2157961,32.0734375 37.2970977,31.8703125 37.3783993,31.6875 L37.9678357,31.9109375 C37.8865341,32.134375 37.8052326,32.3375 37.7036056,32.5203125 Z M12.642395,32.41875 C12.5610934,32.215625 12.4797918,32.0328125 12.3984902,31.8296875 L12.9879267,31.60625 C13.0692282,31.7890625 13.1302044,31.9921875 13.2318314,32.175 L12.642395,32.41875 Z M38.191415,31.321875 L37.6019786,31.11875 C37.6629548,30.915625 37.723931,30.7328125 37.7849072,30.5296875 L38.394669,30.7125 C38.3133674,30.915625 38.2523912,31.11875 38.191415,31.321875 Z M12.1952363,31.2 C12.1342601,30.996875 12.0732839,30.79375 12.0123078,30.590625 L12.6220696,30.428125 C12.6830458,30.63125 12.7440219,30.8140625 12.8049981,31.0171875 L12.1952363,31.2 Z M38.5369467,30.0828125 L37.9271849,29.940625 C37.9678357,29.7375 38.0084865,29.534375 38.0491373,29.33125 L38.6588991,29.453125 C38.6385737,29.65625 38.5979229,29.8796875 38.5369467,30.0828125 Z M11.8497046,29.9609375 C11.8090538,29.7578125 11.7480776,29.534375 11.7277523,29.33125 L12.3578395,29.2296875 C12.3984902,29.4328125 12.439141,29.6359375 12.4797918,29.8390625 L11.8497046,29.9609375 Z M38.7808515,28.8234375 L38.1507643,28.7421875 C38.1710896,28.5390625 38.2117404,28.3359375 38.2320658,28.1328125 L38.862153,28.19375 C38.8418276,28.396875 38.8215023,28.6 38.7808515,28.8234375 Z M11.6057999,28.7015625 C11.5854745,28.4984375 11.5448237,28.275 11.5448237,28.0515625 L12.1749109,27.990625 C12.1952363,28.19375 12.2155617,28.396875 12.2358871,28.6 L11.6057999,28.7015625 Z M38.9028038,27.625 L38.2727166,27.6046875 C38.2727166,27.4015625 38.293042,27.1984375 38.293042,26.9953125 L38.9231292,26.9953125 C38.9231292,27.178125 38.9028038,27.4015625 38.9028038,27.625 Z M11.5041729,27.421875 C11.5041729,27.2390625 11.5041729,27.0765625 11.5041729,26.89375 L11.5041729,26.771875 L12.1342601,26.771875 L12.1342601,26.89375 C12.1342601,27.05625 12.1342601,27.21875 12.1342601,27.4015625 L11.5041729,27.421875 Z M38.293042,26.446875 C38.293042,26.24375 38.2727166,26.040625 38.2523912,25.8375 L38.8824784,25.796875 C38.9028038,26 38.9028038,26.2234375 38.9231292,26.446875 L38.293042,26.446875 Z M12.1342601,26.1625 L11.5041729,26.121875 C11.5244983,25.8984375 11.5244983,25.6953125 11.5448237,25.471875 L12.1749109,25.5328125 C12.1749109,25.75625 12.1545855,25.959375 12.1342601,26.1625 Z M38.191415,25.2890625 C38.1710896,25.0859375 38.1304389,24.8828125 38.1101135,24.6796875 L38.7402007,24.578125 C38.7808515,24.78125 38.8011769,25.0046875 38.8418276,25.2078125 L38.191415,25.2890625 Z M12.2765379,24.94375 L11.6464507,24.8421875 C11.6871015,24.6390625 11.7074269,24.415625 11.7480776,24.2125 L12.3578395,24.334375 C12.3375141,24.5375 12.2968633,24.740625 12.2765379,24.94375 Z M37.9881611,24.0703125 C37.9475103,23.8671875 37.8865341,23.6640625 37.8458833,23.48125 L38.4556452,23.31875 C38.5166213,23.521875 38.5572721,23.725 38.6182483,23.9484375 L37.9881611,24.0703125 Z M12.5001172,23.725 L11.8903554,23.5828125 C11.9513316,23.3796875 11.9919824,23.15625 12.0529586,22.953125 L12.6627204,23.1359375 C12.6017442,23.3390625 12.5610934,23.5421875 12.5001172,23.725 Z M37.6629548,22.8921875 C37.6019786,22.709375 37.5410024,22.50625 37.4597009,22.303125 L38.0491373,22.0796875 C38.1304389,22.2828125 38.191415,22.4859375 38.2523912,22.6890625 L37.6629548,22.8921875 Z M12.8659743,22.5671875 L12.2765379,22.3640625 C12.3578395,22.1609375 12.4188156,21.9578125 12.5001172,21.7546875 L13.0895536,21.9984375 C13.0082521,22.1609375 12.9269505,22.3640625 12.8659743,22.5671875 Z M37.2361215,21.734375 C37.15482,21.5515625 37.0735184,21.36875 36.9718914,21.1859375 L37.5410024,20.9015625 C37.6426294,21.084375 37.723931,21.2875 37.8052326,21.490625 L37.2361215,21.734375 Z M13.3334584,21.409375 L12.7643473,21.1453125 C12.8456489,20.9421875 12.9472759,20.759375 13.0489029,20.55625 L13.5976885,20.840625 C13.4960615,21.04375 13.4147599,21.2265625 13.3334584,21.409375 Z M36.6873359,20.6375 C36.5857089,20.4546875 36.484082,20.271875 36.382455,20.109375 L36.9109152,19.784375 C37.0125422,19.9671875 37.1344946,20.15 37.2361215,20.3328125 L36.6873359,20.6375 Z M13.9025694,20.3328125 L13.3537838,20.0078125 C13.4554107,19.825 13.5773631,19.6421875 13.6993155,19.459375 L14.2277757,19.8046875 C14.1058233,19.9671875 14.0041964,20.15 13.9025694,20.3328125 Z M36.0572487,19.58125 C35.9352963,19.41875 35.8336694,19.2359375 35.6913916,19.0734375 L36.1995264,18.6875 C36.3214788,18.85 36.4434312,19.0328125 36.5653835,19.215625 L36.0572487,19.58125 Z M14.552982,19.296875 L14.0448471,18.93125 C14.1667995,18.7484375 14.3090773,18.5859375 14.4310296,18.4234375 L14.9188391,18.809375 C14.7968867,18.9515625 14.6749344,19.134375 14.552982,19.296875 Z M35.3255345,18.60625 C35.2035821,18.44375 35.0613044,18.3015625 34.9190266,18.1390625 L35.3865107,17.7125 C35.5287884,17.875 35.6710662,18.0375 35.813344,18.2 L35.3255345,18.60625 Z M15.325347,18.321875 L14.8578629,17.915625 C15.0001407,17.753125 15.1424184,17.590625 15.2846962,17.4484375 L15.7318548,17.875 C15.5895771,18.0171875 15.4676247,18.1796875 15.325347,18.321875 Z M34.4921934,17.6921875 C34.3499156,17.55 34.2076378,17.4078125 34.0450347,17.265625 L34.471868,16.7984375 C34.6344711,16.940625 34.7767489,17.103125 34.939352,17.2453125 L34.4921934,17.6921875 Z M16.1790135,17.428125 L15.7521802,16.98125 C15.9147834,16.8390625 16.0773865,16.696875 16.2196643,16.5546875 L16.6261722,17.021875 C16.4838944,17.1640625 16.3212913,17.2859375 16.1790135,17.428125 Z M33.597876,16.859375 C33.4352729,16.7375 33.2726697,16.5953125 33.1100666,16.4734375 L33.4962491,15.965625 C33.6588522,16.0875 33.8417808,16.2296875 34.0043839,16.371875 L33.597876,16.859375 Z M17.0936562,16.6359375 L16.7074737,16.1484375 C16.8700769,16.00625 17.0530054,15.884375 17.2156086,15.7625 L17.5814657,16.2703125 C17.4188625,16.371875 17.2562594,16.5140625 17.0936562,16.6359375 Z M32.6019317,16.1078125 C32.4393286,15.9859375 32.2564,15.884375 32.0937969,15.7625 L32.4190032,15.234375 C32.6019317,15.35625 32.7848603,15.4578125 32.9677888,15.5796875 L32.6019317,16.1078125 Z M18.0896005,15.9046875 L17.7440688,15.3765625 C17.9269974,15.2546875 18.1099259,15.153125 18.2928545,15.03125 L18.6180608,15.5796875 C18.4554576,15.7015625 18.2725291,15.803125 18.0896005,15.9046875 Z M31.5653366,15.4578125 C31.3824081,15.35625 31.1994796,15.2546875 31.016551,15.1734375 L31.3011065,14.6046875 C31.4840351,14.70625 31.687289,14.8078125 31.8702176,14.909375 L31.5653366,15.4578125 Z M19.1668464,15.2953125 L18.8822909,14.746875 C19.0652194,14.6453125 19.2684734,14.54375 19.4514019,14.4625 L19.715632,15.03125 C19.5327035,15.1125 19.3497749,15.19375 19.1668464,15.2953125 Z M30.4677654,14.909375 C30.2848368,14.828125 30.0815829,14.746875 29.8986544,14.665625 L30.1222337,14.0765625 C30.3254876,14.1578125 30.5287416,14.2390625 30.7116701,14.3203125 L30.4677654,14.909375 Z M20.2644177,14.7875 L20.0205129,14.1984375 C20.2237669,14.1171875 20.4270208,14.0359375 20.6302748,13.975 L20.8335287,14.5640625 C20.6506002,14.625 20.4676716,14.70625 20.2644177,14.7875 Z M29.3092179,14.4828125 C29.105964,14.421875 28.9230354,14.3609375 28.7197815,14.3 L28.8823847,13.690625 C29.0856386,13.7515625 29.2888925,13.8125 29.4921465,13.8734375 L29.3092179,14.4828125 Z M21.4432905,14.38125 L21.260362,13.771875 C21.4636159,13.7109375 21.6668698,13.65 21.8904492,13.609375 L22.0530523,14.21875 C21.829473,14.259375 21.6262191,14.3203125 21.4432905,14.38125 Z M28.1303451,14.1375 C27.9270911,14.096875 27.7238372,14.05625 27.5205833,14.015625 L27.6222102,13.3859375 C27.8254642,13.4265625 28.0490435,13.4671875 28.2522974,13.5078125 L28.1303451,14.1375 Z M22.6221634,14.0765625 L22.500211,13.4671875 C22.7034649,13.4265625 22.9270443,13.3859375 23.1302982,13.365625 L23.2319252,13.9953125 C23.0286712,13.9953125 22.8254173,14.0359375 22.6221634,14.0765625 Z M26.9108215,13.934375 C26.7075675,13.9140625 26.5043136,13.89375 26.3010596,13.8734375 L26.3620358,13.24375 C26.5856152,13.2640625 26.7888691,13.284375 27.0124484,13.3046875 L26.9108215,13.934375 Z M23.841687,13.89375 L23.7807108,13.2640625 C23.9839647,13.24375 24.2075441,13.2234375 24.4311234,13.203125 L24.4717742,13.8328125 C24.2481949,13.853125 24.0449409,13.8734375 23.841687,13.89375 Z M25.6912978,13.8328125 C25.5286947,13.8328125 25.3660915,13.8328125 25.2034884,13.8328125 L25.0612106,13.8328125 L25.0612106,13.203125 L25.2034884,13.203125 C25.3660915,13.203125 25.5490201,13.203125 25.7116232,13.203125 L25.6912978,13.8328125 Z" id="Shape" fill="#FFE1CF" fill-rule="nonzero"></path>
            <path d="M25.2034884,39.284375 C18.374156,39.284375 12.8049981,33.7390625 12.8049981,26.89375 C12.8049981,20.06875 18.3538306,14.503125 25.2034884,14.503125 C32.0328207,14.503125 37.6019786,20.0484375 37.6019786,26.89375 C37.6019786,33.71875 32.0328207,39.284375 25.2034884,39.284375 Z" id="Path" fill="#D94A1E"></path>
            <g id="Group-6" transform="translate(22.950000, 21.560976)">
                <path d="M1.2383142,4.32790528 C0.504316523,3.954094 0,3.17876916 0,2.28292683 C0,1.02210116 0.998964652,0 2.23125,0 C3.46353535,0 4.4625,1.02210116 4.4625,2.28292683 C4.4625,3.18832058 3.94737216,3.97061324 3.20063029,4.33972468 L3.825,10.5862289 L0.668107652,10.5862289 L1.2383142,4.32790528 Z" id="Combined-Shape" fill="#FFE1CF"></path>
                <path d="M1.64070552,3.96345711 C0.972987651,3.71471484 0.495833333,3.0561882 0.495833333,2.28292683 C0.495833333,1.29619369 1.27280584,0.496288441 2.23125,0.496288441 C3.18969416,0.496288441 3.96666667,1.29619369 3.96666667,2.28292683 C3.96666667,3.07317805 3.46831424,3.74359732 2.77750889,3.97925636 L3.36256044,10.1670606 L1.1206309,10.1670606 L1.64070552,3.96345711 Z" id="Combined-Shape-Copy" fill="#050510"></path>
            </g>
        </g>
    </g>
</svg>