<?xml version="1.0" encoding="UTF-8"?>
<svg width="62px" height="70px" viewBox="0 0 62 70" version="1.1" xmlns="http://www.w3.org/2000/svg" xmlns:xlink="http://www.w3.org/1999/xlink">
    <!-- Generator: Sketch 52.4 (67378) - http://www.bohemiancoding.com/sketch -->
    <title>feature/icon 3</title>
    <desc>Created with Sketch.</desc>
    <g id="feature/icon-3" stroke="none" stroke-width="1" fill="none" fill-rule="evenodd">
        <g id="icon" transform="translate(-5.000000, -9.000000)">
            <g id="Group-9" transform="translate(39.904046, 39.431372) rotate(44.000000) translate(-39.904046, -39.431372) translate(18.404046, 5.431372)">
                <path d="M15.9284289,41.7328363 C7.38539916,47.7545934 7.92027218,56.6820412 7.94723445,57.0591717 L8.03759447,58.324188 L8.92534522,57.4272835 C12.370321,53.9469704 16.2000555,53.7029122 16.2370375,53.7010717 L16.7806551,53.6741995 L16.8354905,41.0934261 L15.9284289,41.7328363 Z M15.6373093,52.6031782 C14.5127279,52.7712212 11.8257925,53.3957229 9.12209688,55.6758075 C9.30773571,53.1857152 10.3430502,47.6165515 15.6775706,43.3639398 L15.6373093,52.6031782 Z" id="Shape" fill="#FFE1CF" fill-rule="nonzero"></path>
                <path d="M10.7715316,53.0353415 C12.1677396,52.2545763 13.4511798,51.8242536 14.4114372,51.5875577 L14.4347559,46.2101803 C12.3102024,48.5451136 11.2737948,51.0418319 10.7715316,53.0353415 Z" id="Path" fill="#D94A1E"></path>
                <path d="M27.9661689,41.7328363 L27.0591073,41.0936102 L27.1113922,53.1246086 L27.1152179,53.6719909 L27.6561028,53.7010717 C27.6941779,53.7030963 31.5239124,53.9471544 34.9688882,57.4274676 L35.8566389,58.324188 L35.946999,57.0593558 C35.9737791,56.6822252 36.5091986,47.7545934 27.9661689,41.7328363 Z M28.2567419,52.6031782 L28.2162985,43.3639398 C33.5517297,47.6167356 34.5864977,53.1864514 34.7717722,55.6758075 C32.0682587,53.3957229 29.3813234,52.7712212 28.2567419,52.6031782 Z" id="Shape" fill="#FFE1CF" fill-rule="nonzero"></path>
                <path d="M29.4592953,46.2166223 L29.4829784,51.5875577 C30.4397744,51.8235174 31.7170206,52.2518155 33.1079455,53.027059 C32.6014921,51.0357581 31.5661776,48.5423527 29.4592953,46.2166223 Z" id="Path" fill="#D94A1E"></path>
                <path d="M23.3647306,40.7402228 L20.4356814,40.7402228 L19.1620788,47.4284464 L21.900206,58.5336436 L24.6379689,47.4284464 L23.3647306,40.7402228 Z M20.3367591,47.3964207 L21.3839151,41.899775 L22.4164969,41.899775 L23.4632886,47.3964207 L21.900206,53.7365945 L20.3367591,47.3964207 Z" id="Shape" fill="#FFE1CF" fill-rule="nonzero"></path>
                <path d="M21.8610379,55.1105718 L21.8477389,55.1105718 C20.0219564,55.1105718 18.5417646,56.6060261 18.5417646,58.4506344 C18.5417646,59.5615958 18.8177634,60.6548879 19.3446206,61.6302002 L21.8608557,66.288103 L24.3690749,61.626335 C24.8924708,60.6535995 25.1666478,59.5638045 25.1666478,58.4567082 L25.1666478,58.4508184 C25.1670122,56.605842 23.6868203,55.1105718 21.8610379,55.1105718 Z" id="Path" fill="#D94A1E"></path>
                <path d="M21.8477389,54.5307957 C19.708429,54.5307957 17.9679056,56.2892659 17.9679056,58.4506344 C17.9679056,59.6549122 18.2697736,60.8505393 18.8410821,61.9079405 L21.8623131,67.4999271 L24.8738887,61.9031551 C25.4410071,60.8486988 25.7410534,59.6569368 25.7410534,58.4567082 L25.7410534,58.4508184 C25.7408712,56.2892659 24.0003478,54.5307957 21.8477389,54.5307957 Z M24.5931532,58.4565242 C24.5931532,59.4638621 24.341384,60.464206 23.8653543,61.3493308 L21.8599448,65.0759108 L19.8481591,61.3522757 C19.3688502,60.4647582 19.1156236,59.4614694 19.1156236,58.4504503 C19.1156236,56.928308 20.3413135,55.6901639 21.86122,55.6901639 C23.3676454,55.6901639 24.5933354,56.928308 24.5933354,58.4504503 L24.5933354,58.4565242 L24.5931532,58.4565242 Z" id="Shape" fill="#FFE1CF" fill-rule="nonzero"></path>
                <rect id="Rectangle" fill="#FFE1CF" x="38.7918822" y="42.9139231" width="1.14771799" height="15.3175007"></rect>
                <rect id="Rectangle" fill="#FFE1CF" x="41.6659138" y="54.258577" width="1.14771799" height="8.1903038"></rect>
                <rect id="Rectangle" fill="#FFE1CF" x="0.326569169" y="49.5498748" width="1.14771799" height="4.10352645"></rect>
                <rect id="Rectangle" fill="#FFE1CF" x="4.59753751" y="42.9744775" width="1.14771799" height="19.8747249"></rect>
                <path d="M22.5387381,0.697019721 L22.0714529,0.0334981751 L21.6041677,0.697019721 C21.4700851,0.886965417 8.26968852,19.9818455 13.1514979,44.4587044 L13.3620951,45.5155534 L14.1186781,44.7552185 C14.6018127,44.2698631 15.1235689,43.8038335 15.6792102,43.3622834 L15.6309332,53.7027283 L21.8923725,53.7027283 L20.3382166,47.3975251 L21.3835508,41.9014316 L22.416497,41.9014316 L23.4651105,47.3977091 L21.9109546,53.7027283 L28.2625717,53.7027283 L28.2177561,43.3622834 C28.3556644,43.4714285 28.4871965,43.5785491 28.6103485,43.6823566 L28.6936036,43.7541384 C28.7415163,43.7949988 28.7888824,43.8354911 28.8479079,43.8890514 C28.9286125,43.9586245 29.0093171,44.0307744 29.0876534,44.1010838 L29.1280968,44.1373428 C29.3884284,44.3694373 29.6582332,44.6295083 29.9768616,44.9558394 L30.7310763,45.727954 L30.9475031,44.6652151 C35.9446309,20.0898863 22.6737316,0.888069753 22.5387381,0.697019721 Z M30.0245921,43.3911802 C29.9790477,43.3493995 29.9338677,43.3085391 29.8885056,43.2684149 L29.8493374,43.2332602 C29.7649892,43.1577973 29.6786371,43.0803097 29.6046731,43.0171786 C29.5498377,42.9671153 29.4933626,42.9185246 29.4361589,42.8697498 L29.3529038,42.7977839 C29.0532219,42.5454433 28.720748,42.2838998 28.3676881,42.0230926 C28.2365203,41.9246227 28.1013447,41.8261528 27.9663512,41.731364 L27.0603827,41.0963711 L27.1097527,52.5431761 L23.3793049,52.5431761 L24.6397907,47.4297349 L23.364002,40.7420635 L20.4353171,40.7420635 L19.1635363,47.4299189 L20.4240221,52.5431761 L16.7837521,52.5431761 L16.8371301,41.0936103 L15.9300685,41.7319161 C15.2773267,42.1911356 14.658652,42.682749 14.0815139,43.2003142 C10.3344879,22.3480683 19.8159138,5.67904502 22.0718173,2.08627371 C24.3342791,5.68714348 33.8663504,22.4347586 30.0245921,43.3911802 Z" id="Shape" fill="#FFE1CF" fill-rule="nonzero"></path>
                <path d="M18.0190974,51.3000624 L18.8490979,51.3000624 L18.037133,47.9969951 L18.0190974,51.3000624 Z M22.0678093,4.5040321 C19.0367407,9.89594989 12.5703518,23.7932752 14.9590627,40.9025601 C15.0492405,40.8368522 15.1357748,40.7750094 15.2261348,40.7129826 L18.0768477,38.7041964 L18.0407765,46.7430222 L19.4193134,39.4989498 L24.3809165,39.4989498 L25.8567361,47.2386847 L25.8206649,38.7150557 L28.6677342,40.7091174 C28.8156623,40.8112684 28.9599469,40.9205976 29.0900216,41.0155705 C29.1117007,41.033792 29.1333798,41.0483324 29.155059,41.066738 C31.6013379,23.9171448 25.1061649,9.92134961 22.0678093,4.5040321 Z M21.9486652,26.6877384 C19.6104175,26.6877384 17.7195977,24.773741 17.7195977,22.4150646 C17.7195977,20.0562041 19.6104175,18.1422067 21.9486652,18.1422067 C24.2834515,18.1422067 26.1742714,20.0562041 26.1742714,22.4150646 C26.1742714,24.7739251 24.2834515,26.6877384 21.9486652,26.6877384 Z M24.9545933,51.3000624 L25.8747716,51.3000624 L25.8567361,47.6323803 L24.9545933,51.3000624 Z" id="Shape" fill="#D94A1E" fill-rule="nonzero"></path>
                <path d="M21.9470256,17.5633509 C19.2988941,17.5633509 17.1448278,19.739812 17.1448278,22.4150646 C17.1448278,25.0903172 19.2990763,27.2667783 21.9470256,27.2667783 C24.594975,27.2667783 26.7492234,25.0903172 26.7492234,22.4150646 C26.7492234,19.739996 24.5951572,17.5633509 21.9470256,17.5633509 Z M21.9470256,26.1072261 C19.9317786,26.1072261 18.2925458,24.450907 18.2925458,22.4150646 C18.2925458,20.3792222 19.9319607,18.7229031 21.9470256,18.7229031 C23.9620905,18.7229031 25.6015054,20.3792222 25.6015054,22.4150646 C25.6015054,24.451091 23.9622727,26.1072261 21.9470256,26.1072261 Z" id="Shape" fill="#FFE1CF" fill-rule="nonzero"></path>
                <path d="M27.9135196,13.0193786 L16.2270178,13.0193786 C15.8985518,13.9407625 15.5777373,14.9090806 15.2724079,15.9164186 L28.8679473,15.9164186 C28.5628,14.9090806 28.2419855,13.9407625 27.9135196,13.0193786 Z" id="Path" fill="#D94A1E"></path>
                <path d="M31.3490221,29.046967 L12.7913331,29.046967 C12.7217413,29.9957752 12.6714603,30.9600441 12.6483238,31.944007 L31.4920314,31.944007 C31.4688949,30.9600441 31.4186139,29.9957752 31.3490221,29.046967 Z" id="Path" fill="#D94A1E"></path>
                <path d="M29.4166658,15.7467191 C29.1204452,14.7690141 28.7961694,13.7852353 28.4531292,12.822991 L28.3164961,12.4396025 L15.8236769,12.4396025 L15.6868616,12.822991 C15.3461898,13.7784252 15.0222782,14.762204 14.723325,15.7467191 L14.4961497,16.4963788 L29.6436589,16.4963788 L29.4166658,15.7467191 Z M16.0535848,15.3366425 C16.2384949,14.7526331 16.4319674,14.1713846 16.6314517,13.5991547 L27.5087213,13.5991547 C27.7092986,14.1739613 27.9025889,14.7550258 28.0871347,15.3366425 L16.0535848,15.3366425 Z" id="Shape" fill="#FFE1CF" fill-rule="nonzero"></path>
                <path d="M32.0658904,31.9302028 C32.0434826,30.9848917 31.9961164,30.027985 31.9212415,29.004266 L31.8820733,28.4671909 L12.2580997,28.4671909 L12.2189315,29.004266 C12.1442387,30.0228314 12.0970548,30.9801062 12.074647,31.9302028 L12.0608015,32.5237831 L32.0797359,32.5237831 L32.0658904,31.9302028 Z M13.2394896,31.3642309 C13.2589826,30.7960503 13.2877666,30.2208756 13.3262061,29.6267431 L30.8139669,29.6267431 C30.8524063,30.2227161 30.8815547,30.7978909 30.9010477,31.3642309 L13.2394896,31.3642309 Z" id="Shape" fill="#FFE1CF" fill-rule="nonzero"></path>
            </g>
        </g>
    </g>
</svg>