<?xml version="1.0" encoding="UTF-8"?>
<svg width="1440px" height="593px" viewBox="0 0 1440 593" version="1.1" xmlns="http://www.w3.org/2000/svg" xmlns:xlink="http://www.w3.org/1999/xlink">
    <!-- Generator: Sketch 44 (41411) - http://www.bohemiancoding.com/sketch -->
    <title>float-wave</title>
    <desc>Created with Sketch.</desc>
    <defs>
        <rect id="path-1" x="0" y="0" width="1440" height="600"></rect>
    </defs>
    <g id="Page" stroke="none" stroke-width="1" fill="none" fill-rule="evenodd">
        <g id="float-wave" transform="translate(0.000000, -7.000000)">
            <mask id="mask-2" fill="white">
                <use xlink:href="#path-1"></use>
            </mask>
            <g id="Mask"></g>
            <rect id="Mask" fill="#FFFFFF" mask="url(#mask-2)" x="0" y="415" width="1440" height="369"></rect>
            <g id="hero-bg" mask="url(#mask-2)">
                <g transform="translate(-47.000000, 0.000000)" id="Shape">
                    <path d="M1495,0 C1495,0 1449.611,50.431 1341,98 C1276.45,126.272 1213.763,194.335 1129,243 C967.459,335.746 763,323 722,322 C681,321 558,300 489,330 C420,360 290.004,400.004 178,399 C65.996,397.996 4,399 4,399 L0,411 C0,411 86.996,412 182,412 C277.004,412 340.996,396 432,420 C523.004,444 638,433 730,432 C822,431 1002.584,417.811 1174,497 C1295.492,555.64 1467.996,512 1509,514" fill="#4CE2FF"></path>
                    <path d="M41.0411668,421.839941 C43.5431668,421.339941 224.041167,420.839941 271.041167,421.839941 C318.041167,422.839941 410.541167,432.839941 470.041167,472.839941 C529.541167,512.839941 655.041167,502.839941 721.041167,502.839941 C787.041167,502.839941 869.204167,501.677941 953.041167,503.839941 C1050.04717,506.341941 1127.44917,574.777941 1252.04117,570.839941 C1398.67117,566.205941 1512.04117,600.839941 1512.04117,600.839941 C1512.04117,600.839941 1532.04117,442.173941 1532.04117,431.839941 C1532.04117,418.839941 1533.55517,381.341941 1499.04117,370.839941 C1464.52717,360.337941 1392.55317,348.341941 1349.04117,354.839941 C1305.52917,361.337941 1225.58017,388.341941 1123.04117,388.839941 C1020.50217,389.337941 366.041167,405.839941 366.041167,405.839941 L91.0411668,409.839941 L39.0411668,410.839941 C39.0411668,410.839941 38.5391668,422.339941 41.0411668,421.839941 L41.0411668,421.839941 Z" fill="#CE6EE8"></path>
                    <path d="M1519,203 C1519,203 1336.992,203 1213,302 C1112.179,382.499 1022,370 914,374 C806,378 604,360 514,382 C424,404 400,393 309,400 C218,407 34,408 34,408 L38,416 C38,416 248,409 328,415 C408,421 451.996,458 540,459 C628.004,460 972.124,434.601 1047,458 C1223,513 1261.358,518.087 1339,520 C1422.952,522.069 1473.856,513.733 1514,511 C1518.116,510.72 1519,203 1519,203 L1519,203 Z" fill="#4CA6FF"></path>
                </g>
            </g>
        </g>
    </g>
</svg>