<?xml version="1.0" encoding="UTF-8"?>
<svg width="220px" height="220px" viewBox="0 0 220 220" version="1.1" xmlns="http://www.w3.org/2000/svg" xmlns:xlink="http://www.w3.org/1999/xlink">
    <!-- Generator: Sketch 44 (41411) - http://www.bohemiancoding.com/sketch -->
    <title>about-culture-01</title>
    <desc>Created with Sketch.</desc>
    <defs>
        <path d="M17.9451848,12.0185446 C12.6414472,14.8373265 6.66722356,15.9527756 0.832999048,15.3648918 L0.832999048,1.76895489 L17.9451848,1.76895489 L17.9451848,12.0185446 L17.9451848,12.0185446 Z" id="path-1"></path>
        <path d="M1.61020007,18.7981873 C1.61060403,12.8184397 3.39786589,6.83878997 6.97198565,1.72480475 L18.4201152,1.72480475 L18.4201152,18.7981873 L1.61020007,18.7981873 L1.61020007,18.7981873 Z" id="path-3"></path>
        <path d="M0.832999048,15.3648918 C6.66722356,15.9527756 12.6414472,14.8373265 17.9451848,12.0185446 L17.9451848,1.76895489 L0.832999048,1.76895489 L0.832999048,15.3648918 L0.832999048,15.3648918 Z" id="path-5"></path>
        <path d="M6.97198565,1.72480475 C3.39786589,6.83878997 1.61060403,12.8184397 1.61020007,18.7981873 L18.4201152,18.7981873 L18.4201152,1.72480475 L6.97198565,1.72480475 L6.97198565,1.72480475 Z" id="path-7"></path>
    </defs>
    <g id="______Slice" stroke="none" stroke-width="1" fill="none" fill-rule="evenodd">
        <g id="about" transform="translate(-731.000000, -5899.000000)">
            <g id="Comet" transform="translate(744.000000, 5919.000000)">
                <path d="M39.9494038,106.949508 C51.6503752,95.2750696 70.6254229,95.2750696 82.3282419,106.949508 C94.0292133,118.62579 94.0292133,137.555967 82.3282419,149.232249 C70.6254229,160.908531 51.6503752,160.908531 39.9494038,149.232249 C28.2465848,137.555967 28.2465848,118.62579 39.9494038,106.949508" id="Fill-500" fill="#7AC9D0"></path>
                <path d="M82.3273181,106.949508 C79.2972229,103.928127 75.775661,101.703108 72.0249943,100.246799 C61.2829371,96.0732745 48.6212038,98.2964504 39.94848,106.949508 C29.7348419,117.139986 28.439661,132.855222 36.053699,144.450393 C37.1659657,146.140818 38.459299,147.746445 39.94848,149.232249 C43.0635657,152.340271 46.7015276,154.594785 50.5722895,156.047408 C50.409699,155.89256 50.2323276,155.756146 50.0715848,155.595768 C48.52328,154.050974 47.2410324,152.349488 46.1620229,150.559518 C40.1129181,140.522045 41.398861,127.319403 50.0715848,118.664502 C59.0214514,109.73493 72.8379467,108.625186 82.9998514,115.333425 C84.4446895,116.286478 85.8156229,117.396223 87.0849371,118.664502 C88.472499,120.048918 89.6549752,121.555 90.6656229,123.142192 C89.6734514,117.213723 86.9094133,111.523057 82.3273181,106.949508" id="Fill-501" fill="#49B1BC"></path>
                <path d="M24.6019714,91.6366929 C44.779819,71.5046 77.4956095,71.5046 97.6753048,91.6366929 C117.853152,111.768786 117.853152,144.410391 97.6753048,164.544327 C77.4956095,184.678263 44.779819,184.678263 24.6019714,164.544327 C4.42227619,144.410391 4.42227619,111.768786 24.6019714,91.6366929 Z" id="Stroke-502" stroke="#395590" stroke-width="6.84"></path>
                <path d="M138.023055,123.857074 L97.6747505,164.545249" id="Stroke-503" stroke="#395590" stroke-width="6.84"></path>
                <path d="M138.023055,123.857074 L98.1920838,163.597726" id="Stroke-504" stroke="#395590" stroke-width="6.84" stroke-linecap="round" stroke-linejoin="round"></path>
                <path d="M60.8361829,55.4837235 L25.3341829,90.9052201" id="Stroke-505" stroke="#395590" stroke-width="6.84" stroke-linecap="round" stroke-linejoin="round"></path>
                <path d="M113.215444,3.22323637 L77.7134438,38.644733" id="Stroke-506" stroke="#395590" stroke-width="6.84" stroke-linecap="round" stroke-linejoin="round"></path>
                <path d="M171.44981,90.5051959 L152.831352,109.081434" id="Stroke-507" stroke="#395590" stroke-width="6.84" stroke-linecap="round" stroke-linejoin="round"></path>
                <path d="M146.64035,78.9065222 L111.956846,113.513223" id="Stroke-508" stroke="#395590" stroke-width="6.84" stroke-linecap="round" stroke-linejoin="round"></path>
                <path d="M110.371773,42.7201868 L75.2392971,77.7729975" id="Stroke-509" stroke="#395590" stroke-width="6.84" stroke-linecap="round" stroke-linejoin="round"></path>
                <path d="M149.352286,40.014401 L97.644819,91.6064606" id="Stroke-510" stroke="#395590" stroke-width="6.84" stroke-linecap="round" stroke-linejoin="round"></path>
                <path d="M165.12929,60.4613516 L160.116699,65.4607323" id="Stroke-511" stroke="#395590" stroke-width="6.84" stroke-linecap="round" stroke-linejoin="round"></path>
                <path d="M165.870739,23.5334045 L162.009215,27.386172" id="Stroke-512" stroke="#395590" stroke-width="6.84" stroke-linecap="round" stroke-linejoin="round"></path>
                <path d="M190.295893,60.8412825 L190.258941,60.878151" id="Stroke-513" stroke="#99D4DB" stroke-width="6.84" stroke-linecap="round" stroke-linejoin="round"></path>
                <path d="M134.921457,16.7401827 L134.884505,16.7770513" id="Stroke-514" stroke="#99D4DB" stroke-width="6.84" stroke-linecap="round" stroke-linejoin="round"></path>
                <path d="M69.6862781,125.596166 C68.0141829,127.264469 68.0141829,129.96878 69.6862781,131.63524 C71.3565257,133.305387 74.0688305,133.305387 75.7390781,131.63524 C77.413021,129.96878 77.413021,127.264469 75.7390781,125.596166 C74.0688305,123.927862 71.3565257,123.927862 69.6862781,125.596166" id="Fill-515" fill="#395590"></path>
                <path d="M66.6587695,104.455164 C64.9885219,106.123467 64.9885219,108.827778 66.6587695,110.494239 C68.3308648,112.162542 71.0413219,112.162542 72.7115695,110.494239 C74.3855124,108.827778 74.3855124,106.123467 72.7115695,104.455164 C71.0413219,102.78686 68.3308648,102.78686 66.6587695,104.455164" id="Fill-516" fill="#395590"></path>
                <path d="M90.6650686,123.141455 C89.6728971,117.212986 86.9107067,111.522319 82.3267638,106.948771 C79.2985162,103.92739 75.7751067,101.704214 72.02444,100.246061 C73.3621162,101.184367 74.6499067,102.222218 75.8453162,103.414917 C79.3003638,106.860286 81.6800971,110.971134 83.0011448,115.332688 C85.9517924,125.088116 83.572059,136.106294 75.8453162,143.815516 C67.8155638,151.828904 56.2125162,154.053923 46.1614686,150.558781 C42.4994876,149.284971 39.0518305,147.251669 36.0531448,144.451499 C37.1654114,146.141924 38.4587448,147.745708 39.9479257,149.231512 C43.0630114,152.339534 46.7009733,154.594048 50.5735829,156.048514 C61.2454305,160.052443 73.7408781,157.799772 82.3267638,149.231512 C89.44564,142.128778 92.2059829,132.345698 90.6650686,123.141455" id="Fill-517" fill="#ABDBE2"></path>
                <path d="M39.9494038,106.949508 C51.6503752,95.2750696 70.6254229,95.2750696 82.3282419,106.949508 C94.0292133,118.62579 94.0292133,137.555967 82.3282419,149.232249 C70.6254229,160.908531 51.6503752,160.908531 39.9494038,149.232249 C28.2465848,137.555967 28.2465848,118.62579 39.9494038,106.949508 Z" id="Stroke-518" stroke="#395590" stroke-width="6.84"></path>
                <g id="Group-522" transform="translate(57.276375, 142.472578)">
                    <mask id="mask-2" fill="white">
                        <use xlink:href="#path-1"></use>
                    </mask>
                    <g id="Clip-521"></g>
                    <path d="M3.33975619,16.3412646 C6.68209905,19.6760284 12.0974705,19.6760284 15.4398133,16.3412646 C18.7803086,13.0083442 18.7803086,7.60340905 15.4398133,4.2686452 C12.0974705,0.935724781 6.68209905,0.935724781 3.33975619,4.2686452 C-0.00258666667,7.60340905 -0.00258666667,13.0083442 3.33975619,16.3412646" id="Fill-520" fill="#FEFEFE" mask="url(#mask-2)"></path>
                </g>
                <g id="Group-525" transform="translate(29.562090, 109.290848)">
                    <mask id="mask-4" fill="white">
                        <use xlink:href="#path-3"></use>
                    </mask>
                    <g id="Clip-524"></g>
                    <path d="M3.81422476,4.22587764 C0.473729524,7.55879806 0.473729524,12.9637332 3.81422476,16.298497 C7.15656762,19.6314174 12.5737867,19.6314174 15.9161295,16.298497 C19.2547771,12.9637332 19.2547771,7.55879806 15.9161295,4.22587764 C12.5737867,0.891113789 7.15656762,0.891113789 3.81422476,4.22587764" id="Fill-523" fill="#FEFEFE" mask="url(#mask-4)"></path>
                </g>
                <g id="Group-528" transform="translate(57.276375, 142.472578)">
                    <mask id="mask-6" fill="white">
                        <use xlink:href="#path-5"></use>
                    </mask>
                    <g id="Clip-527"></g>
                    <path d="M3.33975619,16.3412646 C6.68209905,19.6760284 12.0974705,19.6760284 15.4398133,16.3412646 C18.7803086,13.0083442 18.7803086,7.60340905 15.4398133,4.2686452 C12.0974705,0.935724781 6.68209905,0.935724781 3.33975619,4.2686452 C-0.00258666667,7.60340905 -0.00258666667,13.0083442 3.33975619,16.3412646 Z" id="Stroke-526" stroke="#395590" stroke-width="6.3" stroke-linecap="round" stroke-linejoin="round" mask="url(#mask-6)"></path>
                </g>
                <g id="Group-531" transform="translate(29.562090, 109.290848)">
                    <mask id="mask-8" fill="white">
                        <use xlink:href="#path-7"></use>
                    </mask>
                    <g id="Clip-530"></g>
                    <path d="M3.81422476,4.22587764 C0.473729524,7.55879806 0.473729524,12.9637332 3.81422476,16.298497 C7.15656762,19.6314174 12.5737867,19.6314174 15.9161295,16.298497 C19.2547771,12.9637332 19.2547771,7.55879806 15.9161295,4.22587764 C12.5737867,0.891113789 7.15656762,0.891113789 3.81422476,4.22587764 Z" id="Stroke-529" stroke="#395590" stroke-width="6.3" stroke-linecap="round" stroke-linejoin="round" mask="url(#mask-8)"></path>
                </g>
                <path d="M39.9494038,106.949508 C51.6503752,95.2750696 70.6254229,95.2750696 82.3282419,106.949508 C94.0292133,118.62579 94.0292133,137.555967 82.3282419,149.232249 C70.6254229,160.908531 51.6503752,160.908531 39.9494038,149.232249 C28.2465848,137.555967 28.2465848,118.62579 39.9494038,106.949508 Z" id="Stroke-533" stroke="#395590" stroke-width="6.84"></path>
                <path d="M184.761905,103.231127 C183.963733,103.231127 183.261638,103.736226 183.008514,104.492032 L181.914724,107.765963 L178.6352,108.857273 C177.877676,109.10798 177.371429,109.808483 177.371429,110.604844 C177.371429,111.401206 177.877676,112.101709 178.6352,112.354259 L181.914724,113.445569 L183.008514,116.717656 C183.261638,117.475306 183.963733,117.978562 184.761905,117.978562 C185.560076,117.978562 186.262171,117.475306 186.513448,116.717656 L187.607238,113.445569 L190.88861,112.354259 C191.646133,112.101709 192.152381,111.401206 192.152381,110.604844 C192.152381,109.808483 191.646133,109.10798 190.88861,108.857273 L187.607238,107.76412 L186.513448,104.492032 C186.262171,103.736226 185.560076,103.231127 184.761905,103.231127" id="Fill-664" fill="#99D4DB"></path>
                <path d="M190.304762,57.1453908 C188.26499,57.1453908 186.609524,58.7971036 186.609524,60.8322496 C186.609524,62.8692392 188.26499,64.5191085 190.304762,64.5191085 C192.344533,64.5191085 194,62.8692392 194,60.8322496 C194,58.7971036 192.344533,57.1453908 190.304762,57.1453908" id="Fill-665" fill="#99D4DB"></path>
                <path d="M134.87619,12.9030843 C132.836419,12.9030843 131.180952,14.5547971 131.180952,16.5899432 C131.180952,18.6250893 132.836419,20.2768021 134.87619,20.2768021 C136.915962,20.2768021 138.571429,18.6250893 138.571429,16.5899432 C138.571429,14.5547971 136.915962,12.9030843 134.87619,12.9030843" id="Fill-666" fill="#99D4DB"></path>
                <path d="M72.0571429,0 C71.2589714,0 70.5568762,0.505099665 70.3037524,1.2590623 L68.7499048,5.91556506 L64.082819,7.46773264 C63.3252952,7.71843905 62.8190476,8.42078566 62.8190476,9.21714718 C62.8190476,10.0116653 63.3252952,10.7140119 64.082819,10.9647183 L68.7480571,12.5168859 L70.3037524,17.1733886 C70.5568762,17.9291947 71.2589714,18.4342944 72.0571429,18.4342944 C72.8553143,18.4342944 73.5574095,17.9291947 73.8086857,17.1733886 L75.3662286,12.5168859 L80.0314667,10.9647183 C80.7889905,10.7140119 81.2952381,10.0116653 81.2952381,9.21714718 C81.2952381,8.42078566 80.7889905,7.71843905 80.0314667,7.46773264 L75.3662286,5.91556506 L73.8086857,1.26090573 C73.5574095,0.505099665 72.8553143,0 72.0571429,0" id="Fill-667" fill="#99D4DB"></path>
                <path d="M7.39047619,66.3634597 C6.59230476,66.3634597 5.89020952,66.8667159 5.63893333,67.622522 L4.54329524,70.8964527 L1.26377143,71.9877629 C0.506247619,72.2403127 0,72.9408159 0,73.7371774 C0,74.5335389 0.506247619,75.2340421 1.26377143,75.4847485 L4.54329524,76.5760587 L5.63893333,79.8499894 C5.89020952,80.6057955 6.59230476,81.1108952 7.39047619,81.1108952 C8.18864762,81.1108952 8.89074286,80.6057955 9.14386667,79.8499894 L10.2376571,76.5760587 L13.517181,75.4847485 C14.2747048,75.2340421 14.7809524,74.5335389 14.7809524,73.7371774 C14.7809524,72.9408159 14.2747048,72.2403127 13.517181,71.9877629 L10.2376571,70.8964527 L9.14386667,67.622522 C8.89074286,66.8667159 8.18864762,66.3634597 7.39047619,66.3634597" id="Fill-668" fill="#99D4DB"></path>
                <path d="M131.180952,158.534931 C130.382781,158.534931 129.680686,159.040031 129.427562,159.793994 L127.871867,164.450496 L123.206629,166.002664 C122.449105,166.25337 121.942857,166.955717 121.942857,167.752079 C121.942857,168.54844 122.449105,169.248943 123.206629,169.49965 L127.871867,171.051817 L129.427562,175.70832 C129.680686,176.464126 130.382781,176.969226 131.180952,176.969226 C131.979124,176.969226 132.681219,176.464126 132.932495,175.70832 L134.48819,171.053661 L139.155276,169.49965 C139.914648,169.248943 140.419048,168.54844 140.419048,167.752079 C140.419048,166.955717 139.914648,166.25337 139.155276,166.002664 L134.48819,164.450496 L132.932495,159.793994 C132.681219,159.040031 131.979124,158.534931 131.180952,158.534931" id="Fill-669" fill="#99D4DB"></path>
                <path d="M27.7142857,23.9645827 C25.6745143,23.9645827 24.0190476,25.614452 24.0190476,27.6514415 C24.0190476,29.6865876 25.6745143,31.3383004 27.7142857,31.3383004 C29.7540571,31.3383004 31.4095238,29.6865876 31.4095238,27.6514415 C31.4095238,25.614452 29.7540571,23.9645827 27.7142857,23.9645827" id="Fill-670" fill="#99D4DB"></path>
                <path d="M171.828571,141.943145 C169.7888,141.943145 168.133333,143.594858 168.133333,145.630004 C168.133333,147.666993 169.7888,149.316863 171.828571,149.316863 C173.868343,149.316863 175.52381,147.666993 175.52381,145.630004 C175.52381,143.594858 173.868343,141.943145 171.828571,141.943145" id="Fill-671" fill="#99D4DB"></path>
            </g>
        </g>
    </g>
</svg>