<?xml version="1.0" encoding="UTF-8"?>
<svg width="120px" height="120px" viewBox="0 0 120 120" version="1.1" xmlns="http://www.w3.org/2000/svg" xmlns:xlink="http://www.w3.org/1999/xlink">
    <!-- Generator: Sketch 44 (41411) - http://www.bohemiancoding.com/sketch -->
    <title>home-02</title>
    <desc>Created with Sketch.</desc>
    <defs>
        <rect id="path-1" x="0" y="0" width="260" height="276" rx="3"></rect>
        <filter x="-10.8%" y="-7.2%" width="121.5%" height="120.3%" filterUnits="objectBoundingBox" id="filter-2">
            <feOffset dx="0" dy="8" in="SourceAlpha" result="shadowOffsetOuter1"></feOffset>
            <feGaussianBlur stdDeviation="8" in="shadowOffsetOuter1" result="shadowBlurOuter1"></feGaussianBlur>
            <feColorMatrix values="0 0 0 0 0   0 0 0 0 0.0274509804   0 0 0 0 0.2  0 0 0 0.1 0" type="matrix" in="shadowBlurOuter1"></feColorMatrix>
        </filter>
    </defs>
    <g id="_____Page" stroke="none" stroke-width="1" fill="none" fill-rule="evenodd">
        <g id="home" transform="translate(-520.000000, -3927.000000)">
            <g id="section-5" transform="translate(-2.000000, 3627.000000)">
                <rect id="background" fill="#4C6AFF" x="0" y="0" width="1440" height="672"></rect>
                <g id="Group" transform="translate(172.000000, 244.000000)">
                    <g id="n2" transform="translate(280.000000, 0.000000)">
                        <g id="Rectangle">
                            <use fill="black" fill-opacity="1" filter="url(#filter-2)" xlink:href="#path-1"></use>
                            <use fill="#FFFFFF" fill-rule="evenodd" xlink:href="#path-1"></use>
                        </g>
                        <g id="Galaxy" transform="translate(70.000000, 56.000000)">
                            <rect id="Rectangle-14-Copy-4" x="0" y="0" width="119.008264" height="120"></rect>
                            <g id="Group-37" transform="translate(0.500000, 6.000000)">
                                <path d="M68.3397331,56.6760308 C66.2842785,60.0238975 61.7376917,61.4142142 58.1844107,59.7829225 C54.6311298,58.1496475 53.4155595,54.1125725 55.471014,50.7647058 C57.5264686,47.4168392 62.0730554,46.0265225 65.6263364,47.6578142 C69.1796174,49.2910892 70.3942041,53.3271725 68.3397331,56.6760308" id="Fill-67" fill="#F9D79E"></path>
                                <path d="M62.1142628,51.0630983 C61.0324446,51.06409 59.9506264,51.6134733 59.371362,52.5565483 C58.5619653,53.875465 59.0399322,55.4651067 60.4394116,56.1077067 C60.8377174,56.2901733 61.2665107,56.37744 61.6962876,56.37744 C62.7781058,56.37744 63.859924,55.8280567 64.4391884,54.8849817 C65.2495686,53.5650733 64.7706182,51.9754317 63.3711388,51.3328317 C62.9738165,51.150365 62.5440397,51.0630983 62.1142628,51.0630983" id="Fill-68" fill="#F6C174"></path>
                                <path d="M69.0437017,51.6024658 C70.2297678,55.0861908 68.0071231,59.0121992 64.0811066,60.3717742 C60.1531231,61.7303575 56.008776,60.0088242 54.8236934,56.5250992 C53.6366438,53.0413742 55.8592884,49.1153658 59.7862884,47.7557908 C63.7132884,46.3972075 67.8576355,48.1187408 69.0437017,51.6024658 Z" id="Stroke-322" stroke="#395590" stroke-width="4"></path>
                                <path d="M46.9280926,46.8920492 C51.1845554,40.2012742 58.6884397,35.7576158 67.2367702,35.7576158 C80.5008446,35.7576158 92.1067868,46.0035158 91.2541174,59.9919658 C90.449638,73.1632825 72.7766628,98.1750992 34.7114149,94.3185075" id="Stroke-323" stroke="#395590" stroke-width="4" stroke-linecap="round"></path>
                                <path d="M101.347973,71.6585275 C100.480551,73.3324608 99.8226091,74.2457858 99.8226091,74.2457858" id="Stroke-433" stroke="#395590" stroke-width="4" stroke-linecap="round"></path>
                                <path d="M77.0411901,60.76378 C77.0411901,60.76378 73.1987686,67.08863 65.3683719,69.96248 C52.36,74.737355 38.9051322,69.1602217 34.7716033,57.7064717 C29.6034628,43.38978 38.3484876,27.0371967 54.3033388,21.1823967 C74.2471488,13.862905 96.6732397,23.60603 103.096289,41.4004967 C106.38305,50.50598 105.733959,58.4750133 104.182041,64.2841967" id="Stroke-434" stroke="#395590" stroke-width="4" stroke-linecap="round"></path>
                                <path d="M77.0411901,60.76378 C77.0411901,60.76378 73.1987686,67.08863 65.3683719,69.96248 C52.36,74.737355 38.9061157,69.1602217 34.7716033,57.7064717 C31.9401901,49.86338 33.284595,41.40843 37.7023471,34.4042883 C41.3490579,28.6228717 47.6580248,22.9207883 54.8993223,18.4989467" id="Stroke-435" stroke="#395590" stroke-width="4" stroke-linecap="round"></path>
                                <path d="M64.1844694,59.9899825 C60.2918909,61.4189742 56.1239405,59.7737992 54.8749322,56.3148658 C53.6269074,52.8569242 55.7708744,48.8952158 59.6634529,47.4662242 C63.5570149,46.0372325 67.7249653,47.6824075 68.9739736,51.1413408 C70.2219983,54.5992825 68.0780314,58.5619825 64.1844694,59.9899825 Z" id="Stroke-436" stroke="#17317B" stroke-width="4" stroke-linecap="round"></path>
                                <path d="M101.329779,71.6527758 C100.462357,73.3267092 99.8044149,74.2400342 99.8044149,74.2400342" id="Stroke-437" stroke="#17317B" stroke-width="4" stroke-linecap="round"></path>
                                <path d="M77.0228975,60.7579292 C77.0228975,60.7579292 73.180476,67.0827792 65.3500793,69.9566292 C52.3417074,74.7315042 38.8868397,69.1543708 34.7533107,57.7006208 C29.5851702,43.3839292 38.330195,27.0313458 54.2850463,21.1765458 C74.2288562,13.8570542 96.6549471,23.6001792 103.077997,41.3946458 C106.364757,50.5001292 105.715666,58.4691625 104.163749,64.2783458" id="Stroke-438" stroke="#17317B" stroke-width="4" stroke-linecap="round"></path>
                                <path d="M97.1134413,15.6807292 C97.8126893,15.9722792 98.4775157,16.2806875 99.1039868,16.6069458" id="Stroke-439" stroke="#17317B" stroke-width="4" stroke-linecap="round"></path>
                                <path d="M77.0228975,60.7579292 C77.0228975,60.7579292 73.180476,67.0827792 65.3500793,69.9566292 C52.3417074,74.7315042 38.8878231,69.1543708 34.7533107,57.7006208 C31.9218975,49.8575292 33.2663025,41.4025792 37.6840545,34.3984375 C41.3307653,28.6170208 47.6397322,22.9149375 54.8810298,18.4930958 C64.8435917,12.4102125 78.8019967,11.3927625 89.5110132,13.4613792" id="Stroke-440" stroke="#17317B" stroke-width="4" stroke-linecap="round"></path>
                                <path d="M22.5190289,35.8045217 C23.3854669,34.1295967 24.0443926,33.2162717 24.0443926,33.2162717" id="Stroke-441" stroke="#17317B" stroke-width="4" stroke-linecap="round"></path>
                                <path d="M46.8258116,46.6993683 C46.8258116,46.6993683 50.6682331,40.3735267 58.4986298,37.4996767 C71.5070017,32.7248017 84.960886,38.301935 89.0953983,49.755685 C94.2635388,64.0723767 85.518514,80.42496 69.5636628,86.2807517 C49.6198529,93.6002433 27.193762,83.8561267 20.7707124,66.06166 C17.4839521,56.9561767 18.133043,48.9871433 19.6849603,43.1789517" id="Stroke-442" stroke="#17317B" stroke-width="4" stroke-linecap="round"></path>
                                <path d="M26.7352678,91.7756758 C26.0360198,91.4841258 25.3702099,91.1757175 24.7447223,90.8504508" id="Stroke-443" stroke="#17317B" stroke-width="4" stroke-linecap="round"></path>
                                <path d="M46.8258116,46.6993683 C46.8258116,46.6993683 50.6682331,40.3735267 58.4986298,37.4996767 C71.5070017,32.7248017 84.960886,38.301935 89.0953983,49.755685 C91.9268116,57.5987767 90.5824066,66.0537267 86.1646545,73.0578683 C82.5179438,78.839285 76.2089769,84.5413683 68.9676793,88.96321 C59.0051174,95.0460933 45.0457289,96.0635433 34.3376959,93.9949267" id="Stroke-444" stroke="#17317B" stroke-width="4" stroke-linecap="round"></path>
                                <path d="M67.8595041,98.175 C67.4346446,98.175 67.0609256,98.445725 66.9261901,98.8533 L66.0981074,101.357258 L63.614843,102.192242 C63.2116198,102.327108 62.9421488,102.704933 62.9421488,103.133333 C62.9421488,103.561733 63.2116198,103.938567 63.614843,104.074425 L66.0981074,104.909408 L66.9261901,107.413367 C67.0609256,107.81995 67.4346446,108.091667 67.8595041,108.091667 C68.2843636,108.091667 68.6580826,107.81995 68.7928182,107.413367 L69.6209008,104.909408 L72.1041653,104.074425 C72.5073884,103.938567 72.7768595,103.561733 72.7768595,103.133333 C72.7768595,102.704933 72.5073884,102.327108 72.1041653,102.192242 L69.6209008,101.357258 L68.7928182,98.8533 C68.6580826,98.445725 68.2843636,98.175 67.8595041,98.175" id="Fill-778" fill="#99D4DB"></path>
                                <path d="M3.9338843,46.6083333 C3.50902479,46.6083333 3.13530579,46.88005 3.00057025,47.2866333 L2.41835537,49.0478333 L0.672694215,49.6349 C0.269471074,49.7697667 0,50.1466 0,50.575 C0,51.0034 0.269471074,51.3802333 0.672694215,51.5151 L2.41835537,52.1031583 L3.00057025,53.8633667 C3.13530579,54.26995 3.50902479,54.5416667 3.9338843,54.5416667 C4.3587438,54.5416667 4.73246281,54.26995 4.86719835,53.8633667 L5.44941322,52.1031583 L7.19507438,51.5151 C7.59829752,51.3802333 7.8677686,51.0034 7.8677686,50.575 C7.8677686,50.1466 7.59829752,49.7697667 7.19507438,49.6349 L5.44842975,49.0468417 L4.86719835,47.2866333 C4.73246281,46.88005 4.3587438,46.6083333 3.9338843,46.6083333" id="Fill-779" fill="#99D4DB"></path>
                                <path d="M4.91735537,67.4333333 C3.83553719,67.4333333 2.95041322,68.3258333 2.95041322,69.4166667 C2.95041322,70.5075 3.83553719,71.4 4.91735537,71.4 C5.99917355,71.4 6.88429752,70.5075 6.88429752,69.4166667 C6.88429752,68.3258333 5.99917355,67.4333333 4.91735537,67.4333333" id="Fill-780" fill="#99D4DB"></path>
                                <path d="M44.2561983,0.991666667 C43.8313388,0.991666667 43.4576198,1.26338333 43.3228843,1.66996667 L42.4948017,4.173925 L40.0115372,5.00890833 C39.608314,5.143775 39.338843,5.5216 39.338843,5.95 C39.338843,6.3784 39.608314,6.75523333 40.0115372,6.8901 L42.4948017,7.72508333 L43.3228843,10.2300333 C43.4576198,10.6366167 43.8313388,10.9083333 44.2561983,10.9083333 C44.6810579,10.9083333 45.0547769,10.6366167 45.1895124,10.2300333 L46.017595,7.72508333 L48.5008595,6.8901 C48.9040826,6.75523333 49.1735537,6.3784 49.1735537,5.95 C49.1735537,5.5216 48.9040826,5.143775 48.5008595,5.00890833 L46.017595,4.173925 L45.1895124,1.66996667 C45.0547769,1.26338333 44.6810579,0.991666667 44.2561983,0.991666667" id="Fill-781" fill="#99D4DB"></path>
                                <path d="M75.7272727,0 C74.6454545,0 73.7603306,0.891508333 73.7603306,1.98333333 C73.7603306,3.07416667 74.6454545,3.96666667 75.7272727,3.96666667 C76.8090909,3.96666667 77.6942149,3.07416667 77.6942149,1.98333333 C77.6942149,0.891508333 76.8090909,0 75.7272727,0" id="Fill-782" fill="#99D4DB"></path>
                                <path d="M26.553719,19.8333333 C25.4719008,19.8333333 24.5867769,20.7258333 24.5867769,21.8166667 C24.5867769,22.9075 25.4719008,23.8 26.553719,23.8 C27.6355372,23.8 28.5206612,22.9075 28.5206612,21.8166667 C28.5206612,20.7258333 27.6355372,19.8333333 26.553719,19.8333333" id="Fill-783" fill="#99D4DB"></path>
                                <path d="M91.4628099,93.2166667 C90.3809917,93.2166667 89.4958678,94.1091667 89.4958678,95.2 C89.4958678,96.2908333 90.3809917,97.1833333 91.4628099,97.1833333 C92.5446281,97.1833333 93.4297521,96.2908333 93.4297521,95.2 C93.4297521,94.1091667 92.5446281,93.2166667 91.4628099,93.2166667" id="Fill-784" fill="#99D4DB"></path>
                                <path d="M117.033058,67.4333333 C115.95124,67.4333333 115.066116,68.3258333 115.066116,69.4166667 C115.066116,70.5075 115.95124,71.4 117.033058,71.4 C118.114876,71.4 119,70.5075 119,69.4166667 C119,68.3258333 118.114876,67.4333333 117.033058,67.4333333" id="Fill-785" fill="#99D4DB"></path>
                                <path d="M114.082645,30.7416667 C113.657785,30.7416667 113.284066,31.0123917 113.149331,31.4199667 L112.567116,33.180175 L110.821455,33.7672417 C110.417248,33.9031 110.14876,34.2799333 110.14876,34.7083333 C110.14876,35.1367333 110.418231,35.5135667 110.821455,35.649425 L112.567116,36.2355 L113.149331,37.9967 C113.284066,38.4032833 113.657785,38.675 114.082645,38.675 C114.507504,38.675 114.881223,38.4032833 115.014975,37.9967 L115.598174,36.2355 L117.343835,35.649425 C117.747058,35.5135667 118.016529,35.1367333 118.016529,34.7083333 C118.016529,34.2799333 117.747058,33.9031 117.343835,33.7672417 L115.598174,33.1811667 L115.014975,31.4199667 C114.881223,31.0123917 114.507504,30.7416667 114.082645,30.7416667" id="Fill-786" fill="#99D4DB"></path>
                            </g>
                        </g>
                    </g>
                </g>
            </g>
        </g>
    </g>
</svg>