<?xml version="1.0" encoding="UTF-8"?>
<svg width="120px" height="120px" viewBox="0 0 120 120" version="1.1" xmlns="http://www.w3.org/2000/svg" xmlns:xlink="http://www.w3.org/1999/xlink">
    <!-- Generator: Sketch 44.1 (41455) - http://www.bohemiancoding.com/sketch -->
    <title>hireing-culture-01</title>
    <desc>Created with Sketch.</desc>
    <defs></defs>
    <g id="Page" stroke="none" stroke-width="1" fill="none" fill-rule="evenodd">
        <g id="hireing" transform="translate(-255.000000, -1079.000000)">
            <g id="block" transform="translate(0.000000, 860.000000)">
                <rect id="bg" fill="#FFFFFF" x="0" y="0" width="1440" height="848"></rect>
                <g id="r1" transform="translate(135.000000, 219.000000)">
                    <g id="1">
                        <g id="hireing-culture-01" transform="translate(125.000000, 7.000000)">
                            <g id="Page-1">
                                <g id="Group-134">
                                    <path d="M100.6525,84.1058 L105.6025,79.1558 C106.9655,77.7948 107.6545,75.9908 107.6525,74.2058 C107.6545,72.4218 106.9655,70.6178 105.6025,69.2568 C104.2405,67.8938 102.4375,67.2048 100.6525,67.2068 C98.8675,67.2048 97.0645,67.8938 95.7025,69.2568 L84.3885,80.5698 C83.7985,81.1598 83.0425,81.4468 82.2675,81.4488 C81.4935,81.4468 80.7365,81.1598 80.1465,80.5698 C79.5565,79.9788 79.2705,79.2238 79.2675,78.4488 C79.2705,77.6738 79.5565,76.9188 80.1465,76.3278 L95.7035,60.7718 C97.0655,59.4098 97.7555,57.6058 97.7525,55.8218 C97.7555,54.0368 97.0655,52.2338 95.7035,50.8718 L90.7525,45.9228 C89.9725,45.1408 88.7055,45.1408 87.9245,45.9228 C87.1435,46.7028 87.1435,47.9698 87.9245,48.7508 L92.8745,53.7008 C93.4635,54.2908 93.7505,55.0468 93.7535,55.8218 C93.7505,56.5958 93.4645,57.3518 92.8745,57.9428 L77.3175,73.4988 C75.9545,74.8608 75.2655,76.6648 75.2675,78.4488 C75.2655,80.2338 75.9545,82.0368 77.3175,83.3988 C78.6795,84.7618 80.4825,85.4508 82.2675,85.4488 C84.0525,85.4508 85.8555,84.7618 87.2175,83.3988 L98.5315,72.0848 C99.1215,71.4958 99.8775,71.2088 100.6525,71.2068 C101.4265,71.2088 102.1825,71.4958 102.7745,72.0848 C103.3635,72.6758 103.6505,73.4318 103.6525,74.2058 C103.6505,74.9808 103.3635,75.7368 102.7745,76.3278 L97.8245,81.2778 C97.0425,82.0588 97.0425,83.3248 97.8245,84.1058 C98.6055,84.8868 99.8715,84.8868 100.6525,84.1058" id="Fill-2" fill="#060C6A"></path>
                                    <path d="M88.9999,93.9109 C88.9719,93.9419 88.9429,93.9719 88.9109,93.9999 C88.9429,94.0279 88.9719,94.0569 88.9999,94.0889 C89.0279,94.0569 89.0569,94.0279 89.0889,93.9999 C89.0569,93.9719 89.0279,93.9419 88.9999,93.9109" id="Fill-4" fill="#9AE0E6"></path>
                                    <path d="M89,89.9998 C88.568,89.9998 88.188,90.2738 88.052,90.6838 L87.46,92.4588 L85.684,93.0518 C85.274,93.1878 85,93.5678 85,93.9998 C85,94.4318 85.274,94.8118 85.684,94.9488 L87.459,95.5408 L88.052,97.3168 C88.188,97.7258 88.568,97.9998 89,97.9998 C89.432,97.9998 89.812,97.7258 89.948,97.3168 L90.541,95.5408 L92.316,94.9488 C92.726,94.8118 93,94.4318 93,93.9998 C93,93.5678 92.726,93.1878 92.316,93.0518 L90.541,92.4588 L89.948,90.6838 C89.812,90.2738 89.432,89.9998 89,89.9998 M88.911,93.9998 C88.943,93.9718 88.972,93.9428 89,93.9108 C89.028,93.9428 89.057,93.9718 89.089,93.9998 C89.057,94.0278 89.028,94.0568 89,94.0888 C88.972,94.0568 88.943,94.0278 88.911,93.9998" id="Fill-6" fill="#9AE0E6"></path>
                                    <path d="M44.9999,3.9111 C44.9719,3.9421 44.9429,3.9721 44.9109,4.0001 C44.9429,4.0281 44.9719,4.0571 44.9999,4.0891 C45.0279,4.0571 45.0569,4.0281 45.0889,4.0001 C45.0569,3.9721 45.0279,3.9421 44.9999,3.9111" id="Fill-8" fill="#9AE0E6"></path>
                                    <path d="M45,0.0002 C44.568,0.0002 44.188,0.2742 44.052,0.6832 L43.46,2.4592 L41.684,3.0512 C41.274,3.1872 41,3.5682 41,4.0002 C41,4.4322 41.274,4.8122 41.684,4.9492 L43.459,5.5402 L44.052,7.3162 C44.188,7.7262 44.568,8.0002 45,8.0002 C45.432,8.0002 45.812,7.7262 45.948,7.3162 L46.541,5.5402 L48.316,4.9492 C48.726,4.8122 49,4.4322 49,4.0002 C49,3.5682 48.726,3.1872 48.316,3.0512 L46.541,2.4592 L45.948,0.6832 C45.812,0.2742 45.432,0.0002 45,0.0002 M44.911,4.0002 C44.943,3.9722 44.972,3.9422 45,3.9112 C45.028,3.9422 45.057,3.9722 45.089,4.0002 C45.057,4.0282 45.028,4.0572 45,4.0892 C44.972,4.0572 44.943,4.0282 44.911,4.0002" id="Fill-10" fill="#9AE0E6"></path>
                                    <path d="M7.9834,24.7413 L7.9324,24.8953 C7.8324,25.1933 7.5974,25.4283 7.3004,25.5273 L7.1454,25.5793 L7.3004,25.6303 C7.5974,25.7293 7.8324,25.9643 7.9324,26.2623 L7.9834,26.4163 L8.0344,26.2623 C8.1344,25.9643 8.3694,25.7293 8.6674,25.6303 L8.8214,25.5793 L8.6674,25.5273 C8.3694,25.4283 8.1344,25.1933 8.0344,24.8953 L7.9834,24.7413" id="Fill-12" fill="#9AE0E6"></path>
                                    <path d="M7.9834,20.5787 C7.5514,20.5787 7.1714,20.8527 7.0354,21.2627 L6.1924,23.7887 L3.6674,24.6297 C3.2574,24.7667 2.9834,25.1467 2.9834,25.5787 C2.9834,26.0107 3.2574,26.3907 3.6674,26.5277 L6.1934,27.3697 L7.0354,29.8957 C7.1714,30.3047 7.5514,30.5787 7.9834,30.5787 C8.4154,30.5787 8.7954,30.3047 8.9324,29.8957 L9.7744,27.3697 L12.2994,26.5277 C12.7094,26.3907 12.9834,26.0107 12.9834,25.5787 C12.9834,25.1467 12.7094,24.7667 12.2994,24.6297 L9.7734,23.7877 L8.9324,21.2627 C8.7954,20.8527 8.4154,20.5787 7.9834,20.5787 M7.9324,24.8947 L7.9834,24.7417 L8.0344,24.8947 C8.1344,25.1927 8.3694,25.4287 8.6674,25.5277 L8.8214,25.5787 L8.6674,25.6307 C8.3694,25.7297 8.1344,25.9647 8.0344,26.2627 L7.9834,26.4167 L7.9324,26.2627 C7.8324,25.9647 7.5974,25.7297 7.3004,25.6307 L7.1454,25.5787 L7.3004,25.5277 C7.5974,25.4287 7.8324,25.1927 7.9324,24.8947" id="Fill-14" fill="#9AE0E6"></path>
                                    <path d="M49.9998,100.1624 L49.9488,100.3164 C49.8488,100.6144 49.6148,100.8494 49.3168,100.9484 L49.1628,101.0004 L49.3168,101.0514 C49.6148,101.1504 49.8488,101.3854 49.9488,101.6834 L49.9998,101.8374 L50.0508,101.6834 C50.1508,101.3854 50.3858,101.1504 50.6838,101.0514 L50.8378,101.0004 L50.6838,100.9484 C50.3858,100.8494 50.1508,100.6144 50.0508,100.3164 L49.9998,100.1624" id="Fill-16" fill="#9AE0E6"></path>
                                    <path d="M49.9998,95.9998 C49.5678,95.9998 49.1878,96.2738 49.0518,96.6838 L48.2098,99.2098 L45.6838,100.0508 C45.2738,100.1878 44.9998,100.5678 44.9998,100.9998 C44.9998,101.4318 45.2738,101.8118 45.6838,101.9488 L48.2098,102.7908 L49.0518,105.3158 C49.1878,105.7258 49.5678,105.9998 49.9998,105.9998 C50.4318,105.9998 50.8118,105.7258 50.9488,105.3158 L51.7908,102.7908 L54.3158,101.9488 C54.7258,101.8118 54.9998,101.4318 54.9998,100.9998 C54.9998,100.5678 54.7258,100.1878 54.3158,100.0508 L51.7898,99.2088 L50.9488,96.6838 C50.8118,96.2738 50.4318,95.9998 49.9998,95.9998 M49.9488,100.3158 L49.9998,100.1628 L50.0508,100.3158 C50.1508,100.6138 50.3858,100.8498 50.6838,100.9488 L50.8378,100.9998 L50.6838,101.0518 C50.3858,101.1508 50.1508,101.3858 50.0508,101.6838 L49.9998,101.8378 L49.9488,101.6838 C49.8488,101.3858 49.6148,101.1508 49.3168,101.0518 L49.1628,100.9998 L49.3168,100.9488 C49.6148,100.8498 49.8488,100.6138 49.9488,100.3158" id="Fill-18" fill="#9AE0E6"></path>
                                    <path d="M108,53.0001 C106.896,53.0001 106,53.8951 106,55.0001 C106,56.1041 106.896,57.0001 108,57.0001 C109.105,57.0001 110,56.1041 110,55.0001 C110,53.8951 109.105,53.0001 108,53.0001" id="Fill-20" fill="#47E3FF"></path>
                                    <path d="M66,84.9999 C64.896,84.9999 64,85.8959 64,86.9999 C64,88.1039 64.896,88.9999 66,88.9999 C67.105,88.9999 68,88.1039 68,86.9999 C68,85.8959 67.105,84.9999 66,84.9999" id="Fill-22" fill="#47E3FF"></path>
                                    <path d="M7.9998,49 C6.8958,49 5.9998,49.896 5.9998,51 C5.9998,52.104 6.8958,53 7.9998,53 C9.1048,53 9.9998,52.104 9.9998,51 C9.9998,49.896 9.1048,49 7.9998,49" id="Fill-24" fill="#47E3FF"></path>
                                    <path d="M28,21.0002 C26.895,21.0002 26,21.8952 26,23.0002 C26,24.1042 26.895,25.0002 28,25.0002 C29.105,25.0002 30,24.1042 30,23.0002 C30,21.8952 29.105,21.0002 28,21.0002" id="Fill-26" fill="#47E3FF"></path>
                                    <path d="M87.2173,50.6673 L94.9963,42.8893 C96.9483,40.9363 96.9483,37.7703 94.9963,35.8183 L68.1253,8.9473 C66.1723,6.9953 63.0073,6.9953 61.0543,8.9473 L53.2763,16.7263 L87.2173,50.6673" id="Fill-28" fill="#FFDCA1"></path>
                                    <path d="M51.3571,17.2905 L51.2341,17.4135 L51.5391,17.7175 C51.4611,17.5815 51.4001,17.4385 51.3571,17.2905 M54.6911,18.1405 C54.3001,18.5305 53.7881,18.7265 53.2761,18.7265 C52.9341,18.7265 52.5911,18.6385 52.2841,18.4635 L55.9141,22.0935 L57.2791,20.7285 L54.6911,18.1405" id="Fill-30" fill="#FFE5B9"></path>
                                    <path d="M64.5901,9.4835 C63.8151,9.4855 63.0601,9.7725 62.4681,10.3625 L54.6911,18.1405 L54.6911,18.1405 L57.2791,20.7285 L63.6941,14.3135 C64.6691,13.3385 65.9491,12.8505 67.2291,12.8505 C67.5951,12.8505 67.9611,12.8905 68.3201,12.9705 C68.4261,12.7465 68.5371,12.5245 68.6541,12.3045 L66.7111,10.3625 C66.1201,9.7725 65.3641,9.4855 64.5901,9.4835" id="Fill-32" fill="#FFC675"></path>
                                    <path d="M83.7339,47.1838 L82.4279,48.4898 L85.3689,51.4308 C85.0689,50.7068 85.2139,49.8418 85.8029,49.2528 L83.7339,47.1838" id="Fill-34" fill="#FFE5B9"></path>
                                    <path d="M91.639,35.2897 C91.546,35.3387 91.453,35.3877 91.359,35.4347 C92.016,37.2097 91.632,39.2857 90.207,40.7097 L83.734,47.1837 L85.803,49.2527 L85.803,49.2527 L93.581,41.4747 C94.171,40.8837 94.458,40.1277 94.46,39.3537 C94.458,38.5787 94.171,37.8237 93.581,37.2317 L91.639,35.2897" id="Fill-36" fill="#FFF2CD"></path>
                                    <path d="M86.4536,52.5162 L87.1076,53.1702 L87.6606,52.6182 C87.5146,52.6512 87.3666,52.6672 87.2176,52.6672 C86.9576,52.6672 86.6976,52.6172 86.4536,52.5162" id="Fill-38" fill="#FFE5B9"></path>
                                    <path d="M88.6318,52.0813 L96.4098,44.3033 C97.7728,42.9413 98.4618,41.1383 98.4598,39.3533 C98.4618,37.5683 97.7728,35.7653 96.4098,34.4033 L69.5398,7.5333 C68.1778,6.1703 66.3748,5.4813 64.5898,5.4833 C62.8048,5.4813 61.0018,6.1703 59.6398,7.5333 L51.8618,15.3123 C51.0808,16.0933 51.0808,17.3593 51.8618,18.1403 C52.6428,18.9213 53.9098,18.9213 54.6908,18.1403 L62.4688,10.3623 C63.0598,9.7723 63.8148,9.4853 64.5898,9.4833 C65.3638,9.4853 66.1208,9.7723 66.7118,10.3623 L93.5818,37.2323 C94.1708,37.8233 94.4578,38.5793 94.4598,39.3533 C94.4578,40.1283 94.1708,40.8843 93.5818,41.4743 L85.8038,49.2523 C85.0218,50.0343 85.0218,51.3003 85.8038,52.0813 C86.5838,52.8623 87.8508,52.8623 88.6318,52.0813" id="Fill-40" fill="#060C6A"></path>
                                    <polygon id="Fill-42" fill="#E8F3FF" points="57.5189 69.0521 34.8919 46.4251 63.1759 18.1401 85.8029 40.7681"></polygon>
                                    <path d="M57.5189,69.0521 L58.9339,67.6381 L37.7199,46.4251 L63.1759,20.9691 L82.9749,40.7681 L56.1049,67.6381 L57.5189,69.0521 L58.9339,67.6381 L57.5189,69.0521 L58.9339,70.4661 L87.2169,42.1821 C87.5899,41.8091 87.8029,41.2941 87.8029,40.7681 C87.8029,40.2411 87.5899,39.7261 87.2169,39.3541 L64.5899,16.7261 C64.2179,16.3541 63.7029,16.1401 63.1759,16.1401 C62.6489,16.1401 62.1339,16.3541 61.7619,16.7261 L33.4769,45.0101 C32.6959,45.7921 32.6959,47.0581 33.4769,47.8391 L56.1049,70.4661 C56.4769,70.8391 56.9929,71.0521 57.5189,71.0521 C58.0459,71.0521 58.5609,70.8391 58.9339,70.4661 L57.5189,69.0521" id="Fill-44" fill="#2D3666"></path>
                                    <path d="M34.8916,46.4246 L29.2346,52.0816 L2.3646,78.9516 L10.8496,87.4366 L33.4776,64.8096 C35.0396,63.2476 37.5726,63.2476 39.1346,64.8096 C40.6966,66.3716 40.6966,68.9046 39.1346,70.4666 L16.5066,93.0936 L24.9916,101.5786 L51.8626,74.7086 L57.5186,69.0516 L34.8916,46.4246 Z" id="Fill-46" fill="#E8F3FF"></path>
                                    <polygon id="Fill-48" fill="#FFFFFF" points="86.9348 41.4998 52.8298 75.7428 25.9598 102.6128 21.2788 97.9228 48.1488 71.0528 82.2448 36.8098"></polygon>
                                    <polygon id="Fill-50" fill="#4DA1FF" points="32.345 56.85 11.66 77.535 4.97 74.845 27.655 52.16 62.279 16.803 66.262 22.105"></polygon>
                                    <path d="M95.703,32.2825 C89.064,38.9215 78.3,38.9215 71.661,32.2825 C65.022,25.6435 65.022,14.8795 71.661,8.2405 C78.3,1.6015 89.064,1.6015 95.703,8.2405 C102.342,14.8795 102.342,25.6435 95.703,32.2825" id="Fill-52" fill="#E8F3FF"></path>
                                    <path d="M94.4402,7.8701 C98.8702,14.4701 98.1702,23.4901 92.3302,29.3301 C89.0122,32.6471 84.6652,34.3071 80.3192,34.3071 C77.0262,34.3071 73.7342,33.3551 70.8902,31.4501 C71.1302,31.7301 71.3902,32.0101 71.6602,32.2801 C74.9802,35.6001 79.3302,37.2601 83.6802,37.2601 C88.0302,37.2601 92.3802,35.6001 95.7002,32.2801 C101.5102,26.4701 102.2402,17.5101 97.8802,10.9101 C97.6102,10.5901 97.3202,10.2801 97.0202,9.9801 C96.2202,9.1801 95.3502,8.4701 94.4402,7.8701" id="Fill-54" fill="#F3F9FF"></path>
                                    <path d="M12.2642,77.5374 L12.2642,77.5374 C9.9212,75.1944 6.1222,75.1944 3.7792,77.5374 L2.3652,78.9514 L10.8502,87.4364 L12.2642,86.0224 C14.6072,83.6794 14.6072,79.8804 12.2642,77.5374" id="Fill-56" fill="#E8F3FF"></path>
                                    <path d="M13.5399,79.8026 C11.6299,79.4226 9.5799,79.9726 8.1099,81.4426 L6.6899,82.8626 L1.9999,78.1726 L3.4199,76.7626 C5.7599,74.4126 9.5599,74.4126 11.8999,76.7626 C12.7599,77.6226 13.3099,78.6926 13.5399,79.8026" id="Fill-58" fill="#4DA1FF"></path>
                                    <path d="M26.4064,91.6794 L26.4064,91.6794 C24.0634,89.3364 20.2644,89.3364 17.9214,91.6794 L16.5064,93.0934 L24.9924,101.5794 L26.4064,100.1644 C28.7494,97.8214 28.7494,94.0224 26.4064,91.6794" id="Fill-60" fill="#E8F3FF"></path>
                                    <path d="M91.3302,27.9098 C87.0502,30.8698 81.1402,30.4398 77.3202,26.6298 C76.9702,26.2798 76.6402,25.9098 76.3502,25.5198 C73.4502,21.7298 73.3502,16.4998 76.0302,12.6098 C80.3202,9.6598 86.2302,10.0798 90.0502,13.8998 C90.7402,14.5898 91.3102,15.3398 91.7802,16.1398 C93.9102,19.7898 93.7602,24.3998 91.3302,27.9098" id="Fill-62" fill="#47E3FF"></path>
                                    <path d="M81.1183,9.8188 C78.9353,9.8188 76.7523,10.4648 74.8783,11.7528 C71.9273,16.0428 72.3483,21.9528 76.1673,25.7738 C76.7213,26.3268 77.3263,26.8098 77.9633,27.2238 C77.7433,27.0358 77.5283,26.8378 77.3203,26.6298 C76.9703,26.2798 76.6403,25.9098 76.3493,25.5198 C73.4503,21.7298 73.3503,16.4998 76.0293,12.6098 C77.9043,11.3208 80.0873,10.6758 82.2703,10.6758 C84.3473,10.6758 86.4233,11.2598 88.2333,12.4308 C86.1843,10.6878 83.6513,9.8188 81.1183,9.8188" id="Fill-64" fill="#8CD5E6"></path>
                                    <path d="M82.2703,10.6756 C80.0873,10.6756 77.9043,11.3216 76.0303,12.6096 C73.3503,16.5006 73.4503,21.7296 76.3493,25.5196 C76.6403,25.9096 76.9703,26.2796 77.3203,26.6296 C77.5283,26.8376 77.7433,27.0356 77.9633,27.2236 C78.2593,27.4146 78.5613,27.5916 78.8683,27.7526 L78.8123,27.6456 C75.6653,21.4386 80.7493,14.7276 86.8493,14.7276 C88.1333,14.7276 89.4633,15.0246 90.7703,15.6876 L90.8783,15.7426 C90.3683,14.7726 89.7083,13.8536 88.8983,13.0436 C88.6833,12.8286 88.4613,12.6236 88.2333,12.4306 C86.4233,11.2596 84.3473,10.6756 82.2703,10.6756" id="Fill-66" fill="#4DA1FF"></path>
                                    <path d="M24.9922,75.0449 C24.5442,75.0449 24.0962,74.8739 23.7552,74.5319 L15.2692,66.0469 C14.5862,65.3629 14.5862,64.2559 15.2692,63.5719 C15.9532,62.8889 17.0602,62.8889 17.7442,63.5719 L26.2292,72.0579 C26.9132,72.7409 26.9132,73.8489 26.2292,74.5319 C25.8882,74.8739 25.4402,75.0449 24.9922,75.0449" id="Fill-68" fill="#2D3666"></path>
                                    <path d="M29.2344,70.8018 C28.7864,70.8018 28.3384,70.6308 27.9974,70.2888 L19.5124,61.8038 C18.8294,61.1198 18.8294,60.0128 19.5124,59.3288 C20.1964,58.6458 21.3034,58.6458 21.9874,59.3288 L30.4714,67.8148 C31.1554,68.4978 31.1554,69.6058 30.4714,70.2888 C30.1304,70.6308 29.6824,70.8018 29.2344,70.8018" id="Fill-70" fill="#2D3666"></path>
                                    <path d="M39.1348,89.1865 C38.6868,89.1865 38.2388,89.0155 37.8978,88.6735 L29.4108,80.1885 C28.7278,79.5045 28.7278,78.3975 29.4108,77.7135 C30.0948,77.0305 31.2018,77.0305 31.8858,77.7135 L40.3718,86.1995 C41.0558,86.8825 41.0558,87.9905 40.3718,88.6735 C40.0308,89.0155 39.5828,89.1865 39.1348,89.1865" id="Fill-72" fill="#2D3666"></path>
                                    <path d="M43.377,84.9443 C42.929,84.9443 42.481,84.7733 42.14,84.4313 L33.654,75.9463 C32.971,75.2623 32.971,74.1553 33.654,73.4713 C34.338,72.7883 35.445,72.7883 36.129,73.4713 L44.614,81.9573 C45.298,82.6403 45.298,83.7483 44.614,84.4313 C44.273,84.7733 43.825,84.9443 43.377,84.9443" id="Fill-74" fill="#2D3666"></path>
                                    <path d="M49.0337,18.1403 L32.0637,35.1113 L28.5277,38.6463 C26.5747,40.5993 26.5747,43.7653 28.5277,45.7173 L28.5277,45.7173 C30.4807,47.6703 33.6457,47.6703 35.5987,45.7173 L39.1347,42.1823 L63.1757,18.1403 C59.2707,14.2353 52.9387,14.2353 49.0337,18.1403" id="Fill-76" fill="#E8F3FF"></path>
                                    <path d="M61.5596,17.2338 L59.7796,19.0138 C57.0296,18.8438 54.2096,19.8138 52.0996,21.9238 L35.1296,38.8938 L31.5896,42.4238 C30.5396,43.4838 30.0496,44.8838 30.1396,46.2638 C28.9596,46.1938 27.7996,45.7138 26.9096,44.8138 C24.9496,42.8538 24.9496,39.6938 26.9096,37.7438 L30.4396,34.2038 L47.4096,17.2338 C51.3196,13.3338 57.6496,13.3338 61.5596,17.2338" id="Fill-78" fill="#4DA1FF"></path>
                                    <path d="M54.6904,28.3755 C54.2424,28.3755 53.7944,28.2045 53.4534,27.8625 L46.3814,20.7925 C45.6984,20.1085 45.6984,19.0005 46.3814,18.3175 C47.0654,17.6335 48.1724,17.6335 48.8564,18.3175 L55.9274,25.3885 C56.6114,26.0715 56.6114,27.1795 55.9274,27.8625 C55.5864,28.2045 55.1384,28.3755 54.6904,28.3755" id="Fill-80" fill="#060C6A"></path>
                                    <path d="M85.8032,40.7678 L61.7612,64.8098 L58.2262,68.3448 C56.2732,70.2978 56.2732,73.4638 58.2262,75.4158 L58.2262,75.4158 C60.1782,77.3688 63.3442,77.3688 65.2972,75.4158 L68.8332,71.8808 L85.8032,54.9098 C89.7082,51.0048 89.7082,44.6728 85.8032,40.7678" id="Fill-82" fill="#E8F3FF"></path>
                                    <path d="M86.4137,56.4887 L69.4337,73.4587 L65.9037,76.9887 C64.9237,77.9687 63.6437,78.4587 62.3637,78.4587 C61.0837,78.4587 59.8037,77.9687 58.8337,76.9887 C57.9437,76.0887 57.4537,74.9287 57.3837,73.7587 C57.4837,73.7687 57.5837,73.7687 57.6837,73.7687 C58.9637,73.7687 60.2437,73.2887 61.2137,72.3087 L81.7237,51.7987 C83.8237,49.6887 84.7937,46.8787 84.6237,44.1287 L86.4137,42.3387 C90.3137,46.2487 90.3137,52.5787 86.4137,56.4887" id="Fill-84" fill="#FFFFFF"></path>
                                    <path d="M84.3887,58.0742 C83.9407,58.0742 83.4927,57.9032 83.1517,57.5612 L76.0807,50.4902 C75.3977,49.8062 75.3977,48.6992 76.0807,48.0152 C76.7647,47.3322 77.8717,47.3322 78.5557,48.0152 L85.6257,55.0872 C86.3097,55.7702 86.3097,56.8782 85.6257,57.5612 C85.2847,57.9032 84.8367,58.0742 84.3887,58.0742" id="Fill-86" fill="#060C6A"></path>
                                    <polygon id="Fill-88" fill="#FFDCA1" points="61.7617 53.4957 50.4477 42.1817 57.5187 35.1107 68.8327 46.4247"></polygon>
                                    <path d="M53.2764,42.1821 L61.7614,50.6671 L66.0054,46.4251 L57.5194,37.9391 L53.2764,42.1821 Z M61.7614,55.4961 C61.2504,55.4961 60.7384,55.3011 60.3474,54.9101 L49.0344,43.5961 C48.2534,42.8151 48.2534,41.5491 49.0344,40.7681 L56.1054,33.6971 C56.4804,33.3221 56.9894,33.1111 57.5194,33.1111 C58.0494,33.1111 58.5584,33.3221 58.9334,33.6971 L70.2474,45.0111 C70.6224,45.3861 70.8334,45.8941 70.8334,46.4251 C70.8334,46.9551 70.6224,47.4641 70.2474,47.8391 L63.1754,54.9101 C62.7854,55.3011 62.2734,55.4961 61.7614,55.4961 L61.7614,55.4961 Z" id="Fill-90" fill="#060C6A"></path>
                                    <path d="M32.0632,35.1109 L39.1342,42.1819" id="Fill-92" fill="#E8F3FF"></path>
                                    <path d="M39.1348,43.9321 C38.6868,43.9321 38.2388,43.7611 37.8978,43.4191 L30.8258,36.3481 C30.1428,35.6651 30.1428,34.5571 30.8258,33.8731 C31.5098,33.1901 32.6168,33.1901 33.3008,33.8731 L40.3718,40.9451 C41.0558,41.6281 41.0558,42.7361 40.3718,43.4191 C40.0308,43.7611 39.5828,43.9321 39.1348,43.9321" id="Fill-94" fill="#060C6A"></path>
                                    <path d="M68.8328,71.8805 L61.7618,64.8095" id="Fill-96" fill="#E8F3FF"></path>
                                    <path d="M68.833,73.6309 C68.385,73.6309 67.937,73.4599 67.596,73.1179 L60.524,66.0469 C59.841,65.3629 59.841,64.2559 60.524,63.5719 C61.208,62.8889 62.315,62.8889 62.999,63.5719 L70.07,70.6439 C70.754,71.3269 70.754,72.4349 70.07,73.1179 C69.729,73.4599 69.281,73.6309 68.833,73.6309" id="Fill-98" fill="#060C6A"></path>
                                    <path d="M50.4482,32.6182 C50.0002,32.6182 49.5522,32.4472 49.2112,32.1052 L42.1392,25.0352 C41.4562,24.3512 41.4562,23.2432 42.1392,22.5602 C42.8232,21.8762 43.9302,21.8762 44.6142,22.5602 L51.6852,29.6312 C52.3692,30.3142 52.3692,31.4222 51.6852,32.1052 C51.3442,32.4472 50.8962,32.6182 50.4482,32.6182" id="Fill-100" fill="#060C6A"></path>
                                    <path d="M80.1465,62.3164 C79.6985,62.3164 79.2505,62.1454 78.9095,61.8034 L71.9565,54.8504 C71.2725,54.1674 71.2725,53.0594 71.9565,52.3764 C72.6395,51.6924 73.7475,51.6924 74.4305,52.3764 L81.3835,59.3294 C82.0675,60.0124 82.0675,61.1204 81.3835,61.8034 C81.0425,62.1454 80.5945,62.3164 80.1465,62.3164" id="Fill-102" fill="#060C6A"></path>
                                    <path d="M101.3594,21.5547 C100.8474,21.5547 100.3364,21.3597 99.9454,20.9687 C99.1644,20.1877 99.1644,18.9217 99.9454,18.1407 L104.1884,13.8977 C104.9694,13.1167 106.2354,13.1167 107.0164,13.8977 C107.7974,14.6797 107.7974,15.9457 107.0164,16.7257 L102.7734,20.9687 C102.3824,21.3597 101.8714,21.5547 101.3594,21.5547" id="Fill-104" fill="#060C6A"></path>
                                    <path d="M85.0957,20.8477 C84.5837,20.8477 84.0727,20.6527 83.6817,20.2617 C83.2967,19.8767 82.8077,19.6737 82.2677,19.6737 C81.1627,19.6737 80.2677,18.7787 80.2677,17.6737 C80.2677,16.5697 81.1627,15.6737 82.2677,15.6737 C83.8677,15.6737 85.3747,16.2987 86.5097,17.4337 C87.2907,18.2147 87.2907,19.4807 86.5097,20.2617 C86.1187,20.6527 85.6077,20.8477 85.0957,20.8477" id="Fill-106" fill="#FFFFFF"></path>
                                    <path d="M97.8101,10.82 C91.2101,6.39 82.1901,7.09 76.3501,12.93 C70.5101,18.77 69.8101,27.79 74.2401,34.39 C73.3301,33.79 72.4601,33.08 71.6601,32.28 C65.0201,25.64 65.0201,14.88 71.6601,8.24 C78.3001,1.6 89.0601,1.6 95.7001,8.24 C96.5001,9.04 97.2101,9.91 97.8101,10.82" id="Fill-108" fill="#4DA1FF"></path>
                                    <path d="M72.2842,30.0181 C72.3282,30.0601 72.3692,30.1031 72.4072,30.1471 C72.6142,30.3891 72.8392,30.6311 73.0732,30.8641 C75.9082,33.6991 79.6752,35.2601 83.6802,35.2601 C87.6852,35.2601 91.4522,33.6991 94.2862,30.8661 C99.3042,25.8481 100.1132,17.9181 96.2112,12.0131 C95.6692,11.1811 95.0222,10.3911 94.2862,9.6551 C91.4522,6.8211 87.6852,5.2601 83.6802,5.2601 C79.6752,5.2601 75.9082,6.8211 73.0742,9.6541 C67.5442,15.1841 67.2082,24.1011 72.2842,30.0181 M83.6802,39.2601 C78.6052,39.2601 73.8352,37.2831 70.2462,33.6941 C69.9782,33.4271 69.7202,33.1511 69.4772,32.8741 C69.4372,32.8361 69.3992,32.7971 69.3642,32.7561 C62.8122,25.2621 63.2002,13.8721 70.2462,6.8261 C73.8352,3.2371 78.6052,1.2601 83.6802,1.2601 C88.7552,1.2601 93.5252,3.2371 97.1142,6.8261 C98.0462,7.7571 98.8672,8.7641 99.5552,9.8171 C104.4932,17.2921 103.4702,27.3381 97.1142,33.6941 C93.5252,37.2831 88.7552,39.2601 83.6802,39.2601" id="Fill-110" fill="#060C6A"></path>
                                    <path d="M77.4727,14.0542 C75.4697,17.2292 75.6417,21.3032 77.9387,24.3042 C78.1647,24.6102 78.4277,24.9092 78.7337,25.2152 C81.7247,28.2002 86.3597,28.6992 89.8877,26.4672 C91.6657,23.6572 91.7407,20.0392 90.0527,17.1482 C89.6607,16.4792 89.1827,15.8612 88.6357,15.3142 C85.6517,12.3302 81.0127,11.8272 77.4727,14.0542 M85.1067,31.8532 C81.7567,31.8532 78.4277,30.5602 75.9087,28.0462 C75.4567,27.5952 75.0767,27.1592 74.7437,26.7132 C71.3327,22.2542 71.1817,16.1212 74.3837,11.4752 C74.5217,11.2742 74.6967,11.1002 74.8977,10.9622 C80.0637,7.4092 87.0297,8.0512 91.4637,12.4862 C92.2507,13.2722 92.9377,14.1612 93.5047,15.1282 C96.0357,19.4652 95.8267,24.9282 92.9747,29.0482 C92.8377,29.2462 92.6657,29.4182 92.4677,29.5552 C90.2377,31.0972 87.6657,31.8532 85.1067,31.8532" id="Fill-112" fill="#060C6A"></path>
                                    <path d="M50.4473,19.5542 L29.9413,40.0612 C28.7723,41.2302 28.7723,43.1332 29.9413,44.3032 C31.1113,45.4732 33.0143,45.4722 34.1843,44.3042 L60.1683,18.3192 C57.1033,16.5122 53.0783,16.9242 50.4473,19.5542 Z M32.0633,49.1792 C30.2703,49.1792 28.4783,48.4962 27.1133,47.1322 C24.3853,44.4022 24.3853,39.9612 27.1133,37.2322 L47.6193,16.7262 L47.6193,16.7252 C52.3003,12.0482 59.9113,12.0482 64.5903,16.7262 C64.9653,17.1012 65.1763,17.6092 65.1763,18.1402 C65.1763,18.6702 64.9653,19.1792 64.5903,19.5542 L37.0123,47.1322 C35.6483,48.4962 33.8553,49.1792 32.0633,49.1792 L32.0633,49.1792 Z" id="Fill-114" fill="#060C6A"></path>
                                    <path d="M85.626,43.7729 L59.641,69.7589 C58.471,70.9289 58.471,72.8319 59.641,74.0019 C60.811,75.1719 62.713,75.1719 63.883,74.0019 L84.389,53.4959 C85.9,51.9849 86.732,49.9759 86.732,47.8389 C86.732,46.3859 86.348,44.9919 85.626,43.7729 M61.762,78.8769 C59.969,78.8769 58.177,78.1949 56.813,76.8299 C54.083,74.1009 54.083,69.6599 56.813,66.9309 L84.389,39.3539 C85.17,38.5719 86.436,38.5729 87.217,39.3529 C89.483,41.6199 90.732,44.6329 90.732,47.8389 C90.732,51.0439 89.483,54.0579 87.217,56.3239 L66.711,76.8299 C65.347,78.1939 63.554,78.8769 61.762,78.8769" id="Fill-116" fill="#060C6A"></path>
                                    <path d="M19.335,93.0937 L24.992,98.7507 L54.691,69.0517 L34.892,49.2527 L5.193,78.9507 L10.85,84.6087 L32.064,63.3957 C33.196,62.2617 34.703,61.6377 36.306,61.6377 C37.908,61.6377 39.416,62.2617 40.549,63.3957 C42.889,65.7347 42.889,69.5407 40.549,71.8797 L19.335,93.0937 Z M24.992,103.5787 C24.481,103.5787 23.969,103.3837 23.578,102.9927 L15.093,94.5077 C14.312,93.7267 14.312,92.4607 15.093,91.6797 L37.721,69.0517 C38.5,68.2727 38.5,67.0027 37.721,66.2237 C36.965,65.4677 35.647,65.4677 34.893,66.2237 L12.264,88.8507 C11.889,89.2257 11.38,89.4367 10.85,89.4367 C10.319,89.4367 9.811,89.2257 9.436,88.8507 L0.951,80.3647 C0.17,79.5837 0.17,78.3187 0.951,77.5367 L33.478,45.0107 C34.259,44.2297 35.524,44.2297 36.306,45.0107 L58.934,67.6377 C59.309,68.0127 59.52,68.5217 59.52,69.0517 C59.52,69.5817 59.309,70.0907 58.934,70.4657 L26.406,102.9927 C26.016,103.3837 25.504,103.5787 24.992,103.5787 L24.992,103.5787 Z" id="Fill-118" fill="#060C6A"></path>
                                    <path d="M26.6342,100.5727 L25.2242,101.9827 L20.5342,97.3027 L21.9442,95.8827 C23.4242,94.4027 23.9742,92.3527 23.5842,90.4427 C24.7042,90.6627 25.7642,91.2127 26.6342,92.0827 C28.9742,94.4327 28.9742,98.2327 26.6342,100.5727" id="Fill-120" fill="#FFFFFF"></path>
                                    <path d="M5.1934,78.9512 L10.8494,84.6082 C11.6054,83.8522 12.0214,82.8482 12.0214,81.7802 C12.0214,80.7122 11.6054,79.7072 10.8494,78.9512 C9.2894,77.3922 6.7544,77.3922 5.1934,78.9512 M10.8494,89.4362 L10.8494,89.4362 C10.3194,89.4362 9.8104,89.2252 9.4354,88.8502 L0.9514,80.3652 C0.1704,79.5842 0.1704,78.3182 0.9514,77.5372 L2.3654,76.1232 C5.4844,73.0042 10.5584,73.0042 13.6774,76.1232 C15.1894,77.6342 16.0214,79.6432 16.0214,81.7802 C16.0214,83.9172 15.1894,85.9262 13.6774,87.4362 L12.2634,88.8502 C11.8884,89.2252 11.3804,89.4362 10.8494,89.4362" id="Fill-122" fill="#2D3666"></path>
                                    <path d="M19.335,93.0937 L24.992,98.7507 C25.748,97.9947 26.164,96.9897 26.164,95.9217 C26.164,94.8537 25.748,93.8497 24.992,93.0937 C24.236,92.3377 23.232,91.9217 22.164,91.9217 C21.095,91.9217 20.091,92.3377 19.335,93.0937 M24.992,103.5787 C24.481,103.5787 23.969,103.3837 23.578,102.9927 L15.093,94.5077 C14.312,93.7267 14.312,92.4607 15.093,91.6797 L16.507,90.2657 C18.018,88.7537 20.026,87.9217 22.164,87.9217 C24.301,87.9217 26.31,88.7537 27.82,90.2657 C29.332,91.7767 30.164,93.7847 30.164,95.9217 C30.164,98.0587 29.332,100.0687 27.82,101.5787 L26.406,102.9927 C26.016,103.3837 25.504,103.5787 24.992,103.5787" id="Fill-124" fill="#2D3666"></path>
                                    <path d="M82.557,37.5214 L85.803,40.7674" id="Fill-126" fill="#E8F3FF"></path>
                                    <path d="M85.8037,42.7676 C85.2917,42.7676 84.7807,42.5726 84.3897,42.1826 L81.1427,38.9356 C80.3617,38.1546 80.3617,36.8886 81.1427,36.1076 C81.9237,35.3266 83.1897,35.3266 83.9707,36.1066 L87.2177,39.3526 C87.9987,40.1346 87.9987,41.4006 87.2177,42.1816 C86.8267,42.5726 86.3157,42.7676 85.8037,42.7676" id="Fill-128" fill="#060C6A"></path>
                                    <path d="M63.1759,18.1404 L66.2179,21.1824" id="Fill-130" fill="#E8F3FF"></path>
                                    <path d="M66.2178,23.1816 C65.7058,23.1816 65.1948,22.9866 64.8038,22.5966 L61.7618,19.5556 C60.9808,18.7736 60.9808,17.5076 61.7618,16.7266 C62.5408,15.9456 63.8088,15.9456 64.5898,16.7256 L67.6318,19.7666 C68.4128,20.5486 68.4128,21.8146 67.6318,22.5956 C67.2418,22.9866 66.7298,23.1816 66.2178,23.1816" id="Fill-132" fill="#060C6A"></path>
                                </g>
                            </g>
                        </g>
                    </g>
                </g>
            </g>
        </g>
    </g>
</svg>