<?xml version="1.0" encoding="UTF-8"?>
<svg width="2560px" height="593px" viewBox="0 0 2560 593" version="1.1" xmlns="http://www.w3.org/2000/svg" xmlns:xlink="http://www.w3.org/1999/xlink">
    <!-- Generator: Sketch 44.1 (41455) - http://www.bohemiancoding.com/sketch -->
    <title>hireing-hero-space</title>
    <desc>Created with Sketch.</desc>
    <defs>
        <rect id="path-1" x="0" y="0" width="2560" height="600"></rect>
    </defs>
    <g id="Page" stroke="none" stroke-width="1" fill="none" fill-rule="evenodd">
        <g id="hireing-hero-space" transform="translate(0.000000, -7.000000)">
            <mask id="mask-2" fill="white">
                <use xlink:href="#path-1"></use>
            </mask>
            <g id="Mask"></g>
            <rect id="Mask" fill="#FFFFFF" mask="url(#mask-2)" x="0" y="415" width="2560" height="369"></rect>
            <g id="hero-bg" mask="url(#mask-2)">
                <g transform="translate(-83.555556, 0.000000)" id="Shape">
                    <path d="M2657.77778,0 C2657.77778,0 2577.08622,50.431 2384,98 C2269.24444,126.272 2157.80089,194.335 2007.11111,243 C1719.92711,335.746 1356.44444,323 1283.55556,322 C1210.66667,321 992,300 869.333333,330 C746.666667,360 515.562667,400.004 316.444444,399 C117.326222,397.996 7.11111111,399 7.11111111,399 L0,411 C0,411 154.659556,412 323.555556,412 C492.451556,412 606.215111,396 768,420 C929.784889,444 1134.22222,433 1297.77778,432 C1461.33333,431 1782.37156,417.811 2087.11111,497 C2303.09689,555.64 2609.77067,512 2682.66667,514" fill="#4CE2FF"></path>
                    <path d="M72.9620743,421.839941 C77.4100743,421.339941 398.295408,420.839941 481.850963,421.839941 C565.406519,422.839941 729.850963,432.839941 835.628741,472.839941 C941.406519,512.839941 1164.51763,502.839941 1281.85096,502.839941 C1399.1843,502.839941 1545.25185,501.677941 1694.29541,503.839941 C1866.75052,506.341941 2004.35407,574.777941 2225.85096,570.839941 C2486.52652,566.205941 2688.07319,600.839941 2688.07319,600.839941 C2688.07319,600.839941 2723.62874,442.173941 2723.62874,431.839941 C2723.62874,418.839941 2726.3203,381.341941 2664.96207,370.839941 C2603.60385,360.337941 2475.65007,348.341941 2398.29541,354.839941 C2320.94074,361.337941 2178.80919,388.341941 1996.51763,388.839941 C1814.22607,389.337941 650.739852,405.839941 650.739852,405.839941 L161.850963,409.839941 L69.4065188,410.839941 C69.4065188,410.839941 68.5140743,422.339941 72.9620743,421.839941 L72.9620743,421.839941 Z" fill="#CE6EE8"></path>
                    <path d="M2700.44444,203 C2700.44444,203 2376.87467,203 2156.44444,302 C1977.20711,382.499 1816.88889,370 1624.88889,374 C1432.88889,378 1073.77778,360 913.777778,382 C753.777778,404 711.111111,393 549.333333,400 C387.555556,407 60.4444444,408 60.4444444,408 L67.5555556,416 C67.5555556,416 440.888889,409 583.111111,415 C725.333333,421 803.548444,458 960,459 C1116.45156,460 1728.22044,434.601 1861.33333,458 C2174.22222,513 2242.41422,518.087 2380.44444,520 C2529.69244,522.069 2620.18844,513.733 2691.55556,511 C2698.87289,510.72 2700.44444,203 2700.44444,203 L2700.44444,203 Z" fill="#4CA6FF"></path>
                </g>
            </g>
        </g>
    </g>
</svg>