<?xml version="1.0" encoding="UTF-8"?>
<svg width="120px" height="120px" viewBox="0 0 120 120" version="1.1" xmlns="http://www.w3.org/2000/svg" xmlns:xlink="http://www.w3.org/1999/xlink">
    <!-- Generator: Sketch 44.1 (41455) - http://www.bohemiancoding.com/sketch -->
    <title>hireing-culture-05</title>
    <desc>Created with Sketch.</desc>
    <defs></defs>
    <g id="Page" stroke="none" stroke-width="1" fill="none" fill-rule="evenodd">
        <g id="hireing" transform="translate(-661.000000, -1384.000000)">
            <g id="block" transform="translate(0.000000, 860.000000)">
                <rect id="bg" fill="#FFFFFF" x="0" y="0" width="1440" height="848"></rect>
                <g id="r2" transform="translate(545.000000, 524.000000)">
                    <g id="1">
                        <g id="Earth" transform="translate(116.000000, 0.000000)">
                            <g id="hireing-culture-05" transform="translate(4.000000, 9.000000)">
                                <polyline id="Fill-1" fill="#F9D79E" points="32.1435 91.7717 42.6945 66.7117 59.5775 66.7117 70.1285 91.7717"></polyline>
                                <g id="Group-80" transform="translate(0.000000, 0.433000)">
                                    <path d="M70.1283,91.7245 C70.1283,94.6385 61.6253,96.9995 51.1363,96.9995 C40.6473,96.9995 32.1433,94.6385 32.1433,91.7245 C32.1433,88.8105 40.6473,86.4485 51.1363,86.4485 C61.6253,86.4485 70.1283,88.8105 70.1283,91.7245" id="Fill-2" fill="#F9D79E"></path>
                                    <path d="M61.6874,66.2791 L40.5844,66.2791 C35.9224,66.2791 32.1434,62.5001 32.1434,57.8381 L70.1284,57.8381 C70.1284,62.5001 66.3494,66.2791 61.6874,66.2791" id="Fill-4" fill="#E6F0F9"></path>
                                    <path d="M61.8139,57.8382 C61.8139,62.5002 59.6889,66.2792 57.0679,66.2792 L61.6879,66.2792 C66.3489,66.2792 70.1279,62.5002 70.1279,57.8382 L61.8139,57.8382 Z" id="Fill-6" fill="#FFFFFF"></path>
                                    <path d="M40.4579,57.8382 L32.1439,57.8382 C32.1439,62.5002 35.9229,66.2792 40.5839,66.2792 L45.2039,66.2792 C42.5829,66.2792 40.4579,62.5002 40.4579,57.8382" id="Fill-8" fill="#B4D4EC"></path>
                                    <path d="M96.7812,38.6903 C94.1012,32.4863 85.3962,27.9483 75.0872,27.9483 L27.1842,27.9483 C16.8332,27.9483 8.1172,32.5173 5.4692,38.7533 C4.9212,40.0093 4.6362,41.3493 4.6362,42.7203 C4.6362,44.0923 4.9212,45.4323 5.4692,46.6883 C8.1172,52.9233 16.8332,57.4933 27.1842,57.4933 L75.0872,57.4933 C85.3962,57.4933 94.1012,52.9553 96.7812,46.7513 C97.3412,45.4753 97.6352,44.1243 97.6352,42.7203 C97.6352,41.3173 97.3412,39.9673 96.7812,38.6903" id="Fill-10" fill="#E6F0F9"></path>
                                    <path d="M75.0873,57.493 C85.3963,57.493 94.1013,52.955 96.7813,46.751 C97.3403,45.475 97.6353,44.124 97.6353,42.721 C97.6353,41.317 97.3403,39.967 96.7813,38.69 C94.1013,32.486 85.3963,27.949 75.0873,27.949 L69.1033,27.949 C76.8363,27.949 83.3653,32.486 85.3763,38.69 C85.7953,39.967 86.0173,41.317 86.0173,42.72 C86.0173,44.123 85.7953,45.474 85.3763,46.751 C83.3653,52.955 76.8363,57.493 69.1033,57.493 L75.0873,57.493 Z" id="Fill-12" fill="#FFFFFF"></path>
                                    <path d="M33.1703,57.4925 C25.4063,57.4925 18.8683,52.9235 16.8823,46.6875 C16.4703,45.4315 16.2563,44.0925 16.2563,42.7205 C16.2563,41.3485 16.4703,40.0085 16.8823,38.7535 C18.8683,32.5175 25.4063,27.9485 33.1703,27.9485 L27.1843,27.9485 C16.8333,27.9485 8.1173,32.5175 5.4693,38.7535 C4.9203,40.0095 4.6363,41.3485 4.6363,42.7205 C4.6363,44.0925 4.9203,45.4315 5.4693,46.6885 C8.1173,52.9235 16.8333,57.4925 27.1843,57.4925 L33.1703,57.4925 Z" id="Fill-14" fill="#B1CFE5"></path>
                                    <polyline id="Stroke-16" stroke="#17317B" stroke-width="3" stroke-linecap="round" points="32.1435 91.3387 42.6945 66.2787 59.5775 66.2787 70.1285 91.3387"></polyline>
                                    <path d="M55.3573,42.721 C55.3573,45.052 53.4673,46.942 51.1363,46.942 C48.8063,46.942 46.9163,45.052 46.9163,42.721 C46.9163,40.39 48.8063,38.5 51.1363,38.5 C53.4673,38.5 55.3573,40.39 55.3573,42.721" id="Fill-18" fill="#79C8D0"></path>
                                    <path d="M99.6371,42.721 C99.6371,45.052 97.7471,46.942 95.4161,46.942 C93.0851,46.942 91.1961,45.052 91.1961,42.721 C91.1961,40.39 93.0851,38.5 95.4161,38.5 C97.7471,38.5 99.6371,40.39 99.6371,42.721" id="Fill-20" fill="#79C8D0"></path>
                                    <path d="M33.2177,42.721 C33.2177,45.052 31.3277,46.942 28.9967,46.942 C26.6657,46.942 24.7767,45.052 24.7767,42.721 C24.7767,40.39 26.6657,38.5 28.9967,38.5 C31.3277,38.5 33.2177,40.39 33.2177,42.721" id="Fill-22" fill="#79C8D0"></path>
                                    <path d="M11.0775,42.721 C11.0775,45.052 9.1875,46.942 6.8575,46.942 C4.5265,46.942 2.6365,45.052 2.6365,42.721 C2.6365,40.39 4.5265,38.5 6.8575,38.5 C9.1875,38.5 11.0775,40.39 11.0775,42.721" id="Fill-24" fill="#79C8D0"></path>
                                    <path d="M77.497,42.721 C77.497,45.052 75.607,46.942 73.277,46.942 C70.946,46.942 69.056,45.052 69.056,42.721 C69.056,40.39 70.946,38.5 73.277,38.5 C75.607,38.5 77.497,40.39 77.497,42.721" id="Fill-26" fill="#79C8D0"></path>
                                    <path d="M70.1283,91.7245 C70.1283,94.6385 61.6253,96.9995 51.1363,96.9995 C40.6473,96.9995 32.1433,94.6385 32.1433,91.7245 C32.1433,88.8105 40.6473,86.4485 51.1363,86.4485 C61.6253,86.4485 70.1283,88.8105 70.1283,91.7245 Z" id="Stroke-28" stroke="#17317B" stroke-width="3" stroke-linecap="round"></path>
                                    <path d="M61.6874,66.2791 L40.5844,66.2791 C35.9224,66.2791 32.1434,62.5001 32.1434,57.8381 L70.1284,57.8381 C70.1284,62.5001 66.3494,66.2791 61.6874,66.2791 Z" id="Stroke-30" stroke="#17317B" stroke-width="3" stroke-linecap="round"></path>
                                    <path d="M10.871,42 L24.57,42" id="Stroke-32" stroke="#17317B" stroke-width="3"></path>
                                    <path d="M33.0312,42 L46.7092,42" id="Stroke-34" stroke="#17317B" stroke-width="3"></path>
                                    <path d="M55.1508,42 L68.8498,42" id="Stroke-36" stroke="#17317B" stroke-width="3"></path>
                                    <path d="M77.2904,42 L90.9894,42" id="Stroke-38" stroke="#17317B" stroke-width="3"></path>
                                    <path d="M55.3573,42.721 C55.3573,45.052 53.4673,46.942 51.1363,46.942 C48.8063,46.942 46.9163,45.052 46.9163,42.721 C46.9163,40.39 48.8063,38.5 51.1363,38.5 C53.4673,38.5 55.3573,40.39 55.3573,42.721 Z" id="Stroke-40" stroke="#17317B" stroke-width="3" stroke-linecap="round"></path>
                                    <path d="M95.4164,46.9417 C93.0854,46.9417 91.1954,45.0517 91.1954,42.7207 C91.1954,40.3897 93.0854,38.5007 95.4164,38.5007" id="Stroke-42" stroke="#17317B" stroke-width="3" stroke-linecap="round"></path>
                                    <path d="M33.2177,42.721 C33.2177,45.052 31.3277,46.942 28.9967,46.942 C26.6657,46.942 24.7767,45.052 24.7767,42.721 C24.7767,40.39 26.6657,38.5 28.9967,38.5 C31.3277,38.5 33.2177,40.39 33.2177,42.721 Z" id="Stroke-44" stroke="#17317B" stroke-width="3" stroke-linecap="round"></path>
                                    <path d="M6.8573,38.5003 C9.1883,38.5003 11.0773,40.3903 11.0773,42.7213 C11.0773,45.0523 9.1883,46.9413 6.8573,46.9413" id="Stroke-46" stroke="#17317B" stroke-width="3" stroke-linecap="round"></path>
                                    <path d="M77.497,42.721 C77.497,45.052 75.607,46.942 73.277,46.942 C70.946,46.942 69.056,45.052 69.056,42.721 C69.056,40.39 70.946,38.5 73.277,38.5 C75.607,38.5 77.497,40.39 77.497,42.721 Z" id="Stroke-48" stroke="#17317B" stroke-width="3" stroke-linecap="round"></path>
                                    <path d="M96.7812,38.6903 C94.1012,32.4863 85.3962,27.9483 75.0872,27.9483 L27.1842,27.9483 C16.8332,27.9483 8.1172,32.5173 5.4692,38.7533 C4.9212,40.0093 4.6362,41.3493 4.6362,42.7203 C4.6362,44.0923 4.9212,45.4323 5.4692,46.6883 C8.1172,52.9233 16.8332,57.4933 27.1842,57.4933 L75.0872,57.4933 C85.3962,57.4933 94.1012,52.9553 96.7812,46.7513 C97.3412,45.4753 97.6352,44.1243 97.6352,42.7203 C97.6352,41.3173 97.3412,39.9673 96.7812,38.6903" id="Stroke-50" stroke="#17317B" stroke-width="3" stroke-linecap="round"></path>
                                    <path d="M67.4408,30.0628 C70.0308,29.4578 72.5688,28.7268 75.0318,27.8518 C73.9168,15.6308 63.6468,6.0578 51.1358,6.0578 C38.6248,6.0578 28.3548,15.6308 27.2398,27.8508 C29.6938,28.7228 32.2228,29.4518 34.8028,30.0558 C40.0348,31.2798 45.5008,31.9468 51.1368,31.9468 C56.7628,31.9468 62.2188,31.2828 67.4408,30.0628" id="Fill-52" fill="#79C8D0"></path>
                                    <path d="M75.0321,27.8514 C74.6451,23.6094 73.1351,19.7024 70.8311,16.3874 C67.9961,12.3094 63.9381,9.1604 59.1771,7.4644 C62.3871,8.8324 65.0841,11.1544 66.9421,14.0664 C68.6461,16.7364 69.6461,19.8984 69.6461,23.3004 C69.6461,25.6104 69.1831,27.8104 68.3581,29.8234 C70.6281,29.2634 72.8631,28.6224 75.0321,27.8514" id="Fill-54" fill="#AADAE1"></path>
                                    <path d="M59.1767,7.4647 C56.9687,6.6777 54.6137,6.2107 52.1597,6.1067 C51.8187,6.0917 51.4817,6.0577 51.1357,6.0577 C38.6247,6.0577 28.3547,15.6307 27.2397,27.8507 C29.2577,28.5677 31.3357,29.1657 33.4417,29.6997 C33.8877,27.9767 34.5087,26.3257 35.3047,24.7767 C39.2857,17.0327 47.3447,11.7307 56.6517,11.7307 C60.3387,11.7307 63.8217,12.5807 66.9427,14.0667 C65.0847,11.1547 62.3867,8.8327 59.1767,7.4647" id="Fill-56" fill="#48B1BB"></path>
                                    <path d="M51,0.5667 L51,5.4487" id="Stroke-58" stroke="#17317B" stroke-width="3" stroke-linecap="round"></path>
                                    <path d="M37.0956,22.6888 C38.9836,19.1298 42.1856,16.3748 46.0546,15.0688" id="Stroke-60" stroke="#17317B" stroke-width="3" stroke-linecap="round"></path>
                                    <path d="M52.9926,14.346 C53.9816,14.461 54.9436,14.667 55.8686,14.955" id="Stroke-62" stroke="#17317B" stroke-width="3" stroke-linecap="round"></path>
                                    <path d="M67.4408,30.0628 C70.0308,29.4578 72.5688,28.7268 75.0318,27.8518 C73.9168,15.6308 63.6468,6.0578 51.1358,6.0578 C38.6248,6.0578 28.3548,15.6308 27.2398,27.8508 C29.6938,28.7228 32.2228,29.4518 34.8028,30.0558 C40.0348,31.2798 45.5008,31.9468 51.1368,31.9468 C56.7628,31.9468 62.2188,31.2828 67.4408,30.0628 Z" id="Stroke-64" stroke="#17317B" stroke-width="3" stroke-linecap="round"></path>
                                    <path d="M5.0004,16.4486 C4.5684,16.4486 4.1874,16.7226 4.0514,17.1326 L3.2094,19.6576 L0.6844,20.5006 C0.2744,20.6366 0.0004,21.0166 0.0004,21.4486 C0.0004,21.8806 0.2744,22.2606 0.6844,22.3976 L3.2094,23.2396 L4.0514,25.7646 C4.1874,26.1746 4.5684,26.4486 5.0004,26.4486 C5.4324,26.4486 5.8124,26.1746 5.9484,25.7646 L6.7904,23.2396 L9.3164,22.3976 C9.7264,22.2606 10.0004,21.8806 10.0004,21.4486 C10.0004,21.0166 9.7264,20.6366 9.3164,20.5006 L6.7904,19.6576 L5.9484,17.1326 C5.8124,16.7226 5.4324,16.4486 5.0004,16.4486" id="Fill-66" fill="#9AE0E6"></path>
                                    <path d="M20.0004,78.4486 C19.5674,78.4486 19.1884,78.7226 19.0514,79.1326 L18.4594,80.9076 L16.6844,81.5006 C16.2734,81.6366 16.0004,82.0166 16.0004,82.4486 C16.0004,82.8806 16.2734,83.2606 16.6844,83.3976 L18.4594,83.9896 L19.0514,85.7646 C19.1884,86.1746 19.5674,86.4486 20.0004,86.4486 C20.4324,86.4486 20.8124,86.1746 20.9484,85.7646 L21.5404,83.9896 L23.3164,83.3976 C23.7264,83.2606 24.0004,82.8806 24.0004,82.4486 C24.0004,82.0166 23.7264,81.6366 23.3164,81.5006 L21.5404,80.9076 L20.9484,79.1326 C20.8124,78.7226 20.4324,78.4486 20.0004,78.4486" id="Fill-68" fill="#9AE0E6"></path>
                                    <path d="M87.9999,12.4486 C87.5679,12.4486 87.1879,12.7226 87.0519,13.1326 L86.4599,14.9076 L84.6839,15.4996 C84.2739,15.6366 83.9999,16.0166 83.9999,16.4486 C83.9999,16.8806 84.2739,17.2606 84.6839,17.3976 L86.4589,17.9896 L87.0519,19.7646 C87.1879,20.1746 87.5679,20.4486 87.9999,20.4486 C88.4319,20.4486 88.8119,20.1746 88.9489,19.7646 L89.5409,17.9896 L91.3159,17.3976 C91.7259,17.2606 91.9999,16.8806 91.9999,16.4486 C91.9999,16.0166 91.7259,15.6366 91.3159,15.4996 L89.5409,14.9076 L88.9489,13.1326 C88.8119,12.7226 88.4319,12.4486 87.9999,12.4486" id="Fill-70" fill="#9AE0E6"></path>
                                    <path d="M85.0004,72.4486 C84.5674,72.4486 84.1884,72.7226 84.0514,73.1326 L83.2094,75.6576 L80.6844,76.4996 C80.2744,76.6356 80.0004,77.0166 80.0004,77.4486 C80.0004,77.8806 80.2744,78.2606 80.6844,78.3976 L83.2094,79.2396 L84.0514,81.7646 C84.1884,82.1746 84.5674,82.4486 85.0004,82.4486 C85.4324,82.4486 85.8124,82.1746 85.9484,81.7646 L86.7904,79.2396 L89.3154,78.3976 C89.7254,78.2606 90.0004,77.8806 90.0004,77.4486 C90.0004,77.0166 89.7254,76.6356 89.3154,76.4996 L86.7904,75.6576 L85.9484,73.1326 C85.8124,72.7226 85.4324,72.4486 85.0004,72.4486" id="Fill-72" fill="#9AE0E6"></path>
                                    <path d="M20.9999,3.4486 C19.8959,3.4486 18.9999,4.3446 18.9999,5.4486 C18.9999,6.5526 19.8959,7.4486 20.9999,7.4486 C22.1049,7.4486 22.9999,6.5526 22.9999,5.4486 C22.9999,4.3446 22.1049,3.4486 20.9999,3.4486" id="Fill-74" fill="#47E3FF"></path>
                                    <path d="M3.0004,65.4486 C1.8954,65.4486 1.0004,66.3446 1.0004,67.4486 C1.0004,68.5526 1.8954,69.4486 3.0004,69.4486 C4.1044,69.4486 5.0004,68.5526 5.0004,67.4486 C5.0004,66.3446 4.1044,65.4486 3.0004,65.4486" id="Fill-76" fill="#47E3FF"></path>
                                    <path d="M98.9999,59.4486 C97.8959,59.4486 96.9999,60.3446 96.9999,61.4486 C96.9999,62.5526 97.8959,63.4486 98.9999,63.4486 C100.1049,63.4486 100.9999,62.5526 100.9999,61.4486 C100.9999,60.3446 100.1049,59.4486 98.9999,59.4486" id="Fill-78" fill="#47E3FF"></path>
                                </g>
                            </g>
                        </g>
                    </g>
                </g>
            </g>
        </g>
    </g>
</svg>