<?xml version="1.0" encoding="UTF-8"?>
<svg width="120px" height="120px" viewBox="0 0 120 120" version="1.1" xmlns="http://www.w3.org/2000/svg" xmlns:xlink="http://www.w3.org/1999/xlink">
    <!-- Generator: Sketch 44.1 (41455) - http://www.bohemiancoding.com/sketch -->
    <title>hireing-culture-03</title>
    <desc>Created with Sketch.</desc>
    <defs></defs>
    <g id="Page" stroke="none" stroke-width="1" fill="none" fill-rule="evenodd">
        <g id="hireing" transform="translate(-1070.000000, -1079.000000)">
            <g id="block" transform="translate(0.000000, 860.000000)">
                <rect id="bg" fill="#FFFFFF" x="0" y="0" width="1440" height="848"></rect>
                <g id="r1" transform="translate(135.000000, 219.000000)">
                    <g id="3" transform="translate(820.000000, 0.000000)">
                        <g id="hireing-culture-03" transform="translate(118.000000, 7.000000)">
                            <g id="Rocket" transform="translate(0.500000, 0.000000)">
                                <g id="Page-1">
                                    <g id="Group-94">
                                        <path d="M28.9013,92.5214 C28.1213,93.8024 27.1713,95.0194 26.0593,96.1324 C21.3353,100.8554 14.7713,102.6094 8.6733,101.4034 C7.4673,95.3054 9.2203,88.7414 13.9443,84.0174 C15.0513,82.9114 16.2563,81.9614 17.5383,81.1814 C15.6433,85.0944 15.0643,89.4934 15.7933,93.7024 C15.8443,93.9974 16.0803,94.2324 16.3743,94.2834 C20.5843,95.0114 24.9883,94.4274 28.9013,92.5214" id="Fill-2" fill="#FFDCA1"></path>
                                        <path d="M29.5612,91.6483 C25.7212,93.5193 21.4002,94.0923 17.2692,93.3783 C16.9802,93.3283 16.7492,93.0963 16.6982,92.8073 C15.9842,88.6773 16.5512,84.3613 18.4112,80.5213 C17.1532,81.2863 15.9702,82.2183 14.8852,83.3043 C14.5802,83.6093 14.2892,83.9223 14.0102,84.2423 C13.6932,84.5203 13.3802,84.8083 13.0782,85.1113 C8.4432,89.7463 6.7222,96.1873 7.9052,102.1713 C13.8892,103.3543 20.3302,101.6343 24.9652,96.9993 C25.2672,96.6973 25.5532,96.3863 25.8312,96.0703 C26.1522,95.7893 26.4662,95.4983 26.7722,95.1923 C27.8642,94.1003 28.7952,92.9063 29.5612,91.6483" id="Fill-4" fill="#FFDCA1"></path>
                                        <path d="M13.5512,84.3327 C12.1792,85.1697 10.8882,86.1887 9.6982,87.3787 C9.4652,87.6107 9.2442,87.8427 9.0222,88.0747 C6.7722,92.7247 6.1472,97.9597 7.1362,102.9427 C8.6532,103.2407 10.1942,103.3897 11.7362,103.3897 C15.2572,103.3897 18.7792,102.6117 22.0142,101.0467 C22.2462,100.8247 22.4782,100.6027 22.6992,100.3807 C23.8902,99.1807 24.9092,97.8787 25.7462,96.5077 C25.6962,96.5317 25.6472,96.5557 25.5972,96.5797 C25.0272,97.1127 24.4322,97.6057 23.8172,98.0577 C20.3012,101.0427 15.9522,102.5327 11.6002,102.5327 C10.3622,102.5327 9.1242,102.4117 7.9052,102.1707 C6.8172,96.6667 8.1862,90.7747 12.0202,86.2587 C12.4622,85.6567 12.9432,85.0747 13.4642,84.5157 C13.4922,84.4547 13.5222,84.3937 13.5512,84.3327" id="Fill-6" fill="#FFE5B9"></path>
                                        <path d="M13.4638,84.5157 C12.9428,85.0747 12.4618,85.6567 12.0208,86.2577 C12.3538,85.8647 12.7068,85.4817 13.0778,85.1107 C13.1458,85.0437 13.2138,84.9767 13.2828,84.9097 C13.3418,84.7787 13.4018,84.6467 13.4638,84.5157 M25.5968,96.5797 C25.4628,96.6437 25.3278,96.7057 25.1928,96.7667 C25.1178,96.8447 25.0418,96.9217 24.9658,96.9987 C24.5938,97.3707 24.2108,97.7237 23.8168,98.0577 C24.4318,97.6057 25.0268,97.1127 25.5968,96.5797" id="Fill-8" fill="#FFC675"></path>
                                        <path d="M13.2825,84.9101 C13.2135,84.9761 13.1455,85.0431 13.0785,85.1111 C12.7065,85.4821 12.3545,85.8651 12.0205,86.2581 C8.1855,90.7751 6.8175,96.6661 7.9055,102.1711 C9.1245,102.4121 10.3625,102.5321 11.6005,102.5321 C15.9515,102.5321 20.3005,101.0421 23.8175,98.0571 C24.2105,97.7231 24.5935,97.3701 24.9655,96.9991 C25.0425,96.9221 25.1185,96.8451 25.1935,96.7671 C22.3105,98.0671 19.1965,98.7161 16.0885,98.7161 C14.8225,98.7161 13.5575,98.6091 12.3105,98.3941 C11.9875,98.3441 11.7355,98.0811 11.6855,97.7681 C10.9335,93.4551 11.4695,88.9591 13.2825,84.9101" id="Fill-10" fill="#FFC675"></path>
                                        <path d="M11.585,105.3945 C9.973,105.3945 8.349,105.2375 6.732,104.9175 C5.938,104.7605 5.316,104.1395 5.159,103.3435 C3.546,95.1895 6.084,86.8205 11.947,80.9575 C13.361,79.5425 14.919,78.3145 16.577,77.3045 C17.519,76.7285 18.75,77.0275 19.325,77.9725 C19.899,78.9155 19.6,80.1465 18.657,80.7205 C17.271,81.5655 15.965,82.5955 14.775,83.7855 C10.181,88.3795 8.022,94.8105 8.86,101.2155 C15.266,102.0565 21.697,99.8955 26.292,95.3005 C27.471,94.1225 28.504,92.8095 29.363,91.3995 C29.938,90.4555 31.168,90.1545 32.112,90.7315 C33.055,91.3055 33.354,92.5365 32.779,93.4795 C31.755,95.1625 30.524,96.7255 29.12,98.1285 C24.419,102.8315 18.106,105.3945 11.585,105.3945" id="Fill-12" fill="#2D3666"></path>
                                        <path d="M57.3846,95.6843 C53.6936,99.3753 49.2746,101.9133 44.5926,103.2853 C44.2606,103.3773 43.9286,103.4693 43.5966,103.5613 C44.4796,102.4513 45.2506,101.2843 45.9086,100.0613 C46.1986,99.5453 46.4606,99.0143 46.6996,98.4773 C49.1326,93.0743 49.4646,86.9723 47.7186,81.3793 C54.3296,79.2083 60.5176,76.0903 66.1246,72.1943 C66.5276,77.6883 65.4246,83.2743 62.8226,88.2803 C61.4296,90.9463 59.6186,93.4493 57.3846,95.6843" id="Fill-14" fill="#4DA1FF"></path>
                                        <path d="M28.6973,62.358 L28.4643,62.294 C21.0813,60.06 12.8443,61.453 6.5153,66.481 C6.7203,65.696 6.9543,64.911 7.2223,64.147 C7.3073,63.906 7.3923,63.666 7.4843,63.433 C8.9403,59.516 11.2453,55.839 14.3923,52.692 C20.4813,46.604 28.5343,43.669 36.5033,43.888 C36.9633,43.895 37.4373,43.917 37.8963,43.952 C37.0063,45.225 36.1643,46.533 35.3653,47.869 C33.2933,51.299 31.5043,54.912 30.0263,58.681 L29.9983,58.737 C29.5383,59.932 29.1003,61.135 28.6973,62.358" id="Fill-16" fill="#47E3FF"></path>
                                        <path d="M64.4523,84.5417 C63.9973,85.8157 63.4543,87.0657 62.8223,88.2807 C61.4293,90.9467 59.6193,93.4497 57.3843,95.6847 C53.9183,99.1507 49.8103,101.5997 45.4453,103.0217 C45.3313,103.2737 45.2123,103.5227 45.0883,103.7717 C49.7693,102.3997 54.1883,99.8617 57.8793,96.1707 C60.1143,93.9357 61.9243,91.4327 63.3173,88.7667 C63.8003,87.3817 64.1783,85.9697 64.4523,84.5417 M48.1363,94.2907 C47.7553,94.4807 47.3703,94.6617 46.9833,94.8337 C46.8633,94.8977 46.7423,94.9467 46.6153,95.0037 C46.4953,95.4767 46.3543,95.9577 46.1913,96.4177 C45.8373,97.5207 45.3993,98.5957 44.8763,99.6417 C45.1893,99.5497 45.4983,99.4397 45.8103,99.3367 C45.5883,99.8817 45.3463,100.4197 45.0813,100.9497 C45.2153,100.9107 45.3483,100.8637 45.4823,100.8187 C45.6293,100.5687 45.7713,100.3167 45.9083,100.0607 C46.1983,99.5447 46.4603,99.0147 46.7003,98.4767 C47.3113,97.1197 47.7903,95.7177 48.1363,94.2907" id="Fill-18" fill="#9AE0E6"></path>
                                        <path d="M64.7622,73.4712 C64.5282,73.6262 64.2932,73.7792 64.0572,73.9312 C62.8612,79.3342 60.1602,84.4562 55.9702,88.6462 C53.6152,91.0012 50.9632,92.8852 48.1362,94.2912 C47.7902,95.7172 47.3112,97.1192 46.7002,98.4772 C46.4602,99.0152 46.1982,99.5452 45.9082,100.0612 C45.7712,100.3162 45.6292,100.5692 45.4822,100.8192 C45.5352,100.8012 45.5892,100.7832 45.6432,100.7662 C45.4122,101.3402 45.1612,101.9062 44.8832,102.4632 C45.1972,102.3712 45.5062,102.2602 45.8172,102.1582 C45.6992,102.4482 45.5752,102.7362 45.4452,103.0212 C49.8102,101.6002 53.9182,99.1502 57.3842,95.6842 C59.6192,93.4492 61.4292,90.9462 62.8222,88.2802 C63.4542,87.0652 63.9972,85.8152 64.4522,84.5412 C64.9062,82.1722 65.0732,79.7592 64.9562,77.3552 C65.0092,76.1772 65.0002,74.9962 64.9152,73.8182 L64.7762,73.9112 C64.7722,73.7642 64.7672,73.6182 64.7622,73.4712" id="Fill-20" fill="#47E3FF"></path>
                                        <path d="M36.5363,43.58 C33.0643,43.58 29.5903,44.178 26.2823,45.374 C29.3283,44.376 32.5023,43.877 35.6733,43.877 C35.9503,43.877 36.2273,43.881 36.5033,43.888 C36.7223,43.892 36.9443,43.898 37.1663,43.908 C37.2323,43.802 37.2993,43.697 37.3663,43.591 C37.0903,43.584 36.8123,43.58 36.5363,43.58" id="Fill-22" fill="#9AE0E6"></path>
                                        <path d="M35.6735,43.8768 C32.5025,43.8768 29.3285,44.3758 26.2825,45.3738 C22.2575,46.8288 18.4805,49.1688 15.2555,52.3948 C12.1085,55.5418 9.8035,59.2188 8.3465,63.1358 C8.4985,63.0248 8.6535,62.9228 8.8075,62.8168 C8.4085,63.6458 8.0425,64.4868 7.7245,65.3418 C9.0535,64.3668 10.4615,63.5528 11.9105,62.8818 C12.7805,61.6998 13.7565,60.5698 14.8305,59.4938 C20.0925,54.2328 26.8155,51.3238 33.6945,50.7738 C34.6145,49.0728 35.6015,47.4118 36.6515,45.7958 C36.5895,45.7948 36.5275,45.7948 36.4665,45.7948 L36.2755,45.7948 C36.2165,45.7958 36.1565,45.7958 36.0965,45.7958 L36.0225,45.7958 C36.3955,45.1598 36.7755,44.5298 37.1655,43.9078 C36.9435,43.8988 36.7225,43.8918 36.5035,43.8878 C36.2265,43.8808 35.9505,43.8768 35.6735,43.8768" id="Fill-24" fill="#4DA1FF"></path>
                                        <path d="M43.5928,105.5576 C42.9258,105.5576 42.2888,105.2236 41.9138,104.6446 C41.4468,103.9236 41.4928,102.9846 42.0278,102.3126 C46.8908,96.2016 48.1548,87.8736 45.3248,80.5806 C44.9258,79.5506 45.4358,78.3926 46.4658,77.9936 C47.4958,77.5926 48.6548,78.1046 49.0538,79.1336 C51.6618,85.8556 51.3248,93.3206 48.3228,99.7056 C51.1408,98.3416 53.7298,96.5066 55.9688,94.2676 C62.3518,87.8836 65.2948,78.7486 63.8398,69.8296 C63.6618,68.7396 64.4018,67.7116 65.4918,67.5346 C66.5808,67.3576 67.6108,68.0966 67.7878,69.1856 C69.4488,79.3706 66.0878,89.8046 58.7978,97.0956 C54.7248,101.1676 49.6388,104.0726 44.0898,105.4956 C43.9248,105.5366 43.7578,105.5576 43.5928,105.5576" id="Fill-26" fill="#2D3666"></path>
                                        <path d="M6.519,68.4844 C6.142,68.4844 5.764,68.3784 5.432,68.1634 C4.71,67.6964 4.368,66.8204 4.582,65.9884 C6.004,60.4384 8.908,55.3514 12.981,51.2794 C20.271,43.9884 30.706,40.6294 40.891,42.2884 C41.981,42.4664 42.721,43.4944 42.543,44.5844 C42.365,45.6754 41.334,46.4154 40.247,46.2364 C31.327,44.7814 22.192,47.7244 15.809,54.1074 C13.57,56.3464 11.734,58.9354 10.37,61.7554 C16.755,58.7504 24.22,58.4134 30.942,61.0224 C31.972,61.4224 32.483,62.5804 32.083,63.6104 C31.684,64.6404 30.525,65.1544 29.495,64.7514 C22.204,61.9224 13.876,63.1854 7.765,68.0484 C7.402,68.3384 6.961,68.4844 6.519,68.4844" id="Fill-28" fill="#2D3666"></path>
                                        <path d="M76.0595,63.8997 C68.0405,71.9187 58.1415,78.0557 47.0815,81.5917 L28.4845,62.9947 C37.7975,33.9397 65.0285,12.9027 97.1805,12.8957 C97.1805,32.8077 89.1125,50.8467 76.0595,63.8997" id="Fill-30" fill="#E8F3FF"></path>
                                        <path d="M93.7301,35.2785 L93.7501,35.2985 C90.2201,46.3485 84.0801,56.2485 76.0601,64.2685 C75.5801,64.7585 75.0701,65.2185 74.5801,65.6885 L74.4901,65.7585 C72.9801,67.1885 71.4101,68.5485 69.7801,69.8385 L69.5701,69.9985 C66.8701,72.1285 64.0101,74.0585 61.0101,75.7885 C60.9201,75.8385 60.8201,75.8885 60.7301,75.9485 C58.9201,76.9785 57.0701,77.9285 55.1601,78.8085 L55.0601,78.8585 C53.8001,79.4285 52.5101,79.9785 51.2101,80.4785 L51.1301,80.5085 C48.1501,81.6685 45.0701,82.6285 41.9201,83.3885 C40.7401,83.6785 39.5401,83.9285 38.3401,84.1585 L30.5001,76.3185 C33.8701,76.0685 37.1601,75.5885 40.3801,74.8885 C44.0701,74.0785 47.6601,72.9985 51.1301,71.6485 L51.2101,71.6185 C52.5101,71.1085 53.8001,70.5685 55.0601,69.9885 L55.1601,69.9385 C57.0701,69.0685 58.9201,68.1085 60.7301,67.0785 C60.8201,67.0285 60.9201,66.9785 61.0101,66.9185 C64.0101,65.1985 66.8701,63.2585 69.5701,61.1285 L69.7801,60.9685 C71.4101,59.6785 72.9801,58.3185 74.4901,56.8985 L74.5801,56.8185 C75.0701,56.3485 75.5801,55.8885 76.0601,55.4085 C84.0801,47.3885 90.2201,37.4885 93.7501,26.4285 L93.7301,26.4085 C95.0901,22.1885 96.0701,17.7885 96.6201,13.2685 C96.8001,13.2585 96.9901,13.2585 97.1701,13.2585 C97.1701,20.9385 95.9601,28.3285 93.7301,35.2785" id="Fill-32" fill="#FFFFFF"></path>
                                        <path d="M88.8856,21.9638 C62.9896,25.5678 41.3846,42.5958 31.3396,65.7888 L28.7896,63.2388 C36.5206,39.1038 56.3136,20.3868 81.0826,14.1608 L88.8856,21.9638" id="Fill-34" fill="#49ADFF"></path>
                                        <path d="M95.1584,29.8947 L94.1254,29.6407 L80.4364,15.9507 L80.1814,14.9187 C85.6334,13.5957 91.3254,12.8957 97.1804,12.8957 C97.1804,18.7507 96.4804,24.4437 95.1584,29.8947" id="Fill-36" fill="#49ADFF"></path>
                                        <path d="M84.7297,13.9689 C84.7187,13.9709 84.7077,13.9729 84.6967,13.9749 C84.7077,13.9729 84.7187,13.9709 84.7297,13.9689 M84.6267,13.9869 C83.6207,14.1639 82.6217,14.3609 81.6297,14.5779 L81.6297,14.5789 C82.6227,14.3609 83.6197,14.1639 84.6267,13.9869 M97.1547,14.8249 C97.1507,14.9869 97.1457,15.1499 97.1407,15.3119 C97.1407,15.3259 97.1397,15.3399 97.1397,15.3539 C97.1457,15.1779 97.1507,15.0019 97.1547,14.8249" id="Fill-38" fill="#9AE0E6"></path>
                                        <path d="M87.394,13.5567 C86.501,13.6777 85.613,13.8157 84.73,13.9687 C84.719,13.9707 84.708,13.9727 84.697,13.9747 C84.673,13.9787 84.65,13.9827 84.627,13.9867 C83.62,14.1637 82.622,14.3607 81.63,14.5797 L81.631,14.5827 C83.526,14.1647 85.447,13.8217 87.394,13.5567 M97.161,14.6037 C97.16,14.6227 97.16,14.6427 97.159,14.6617 C97.16,14.6427 97.16,14.6227 97.161,14.6037 M97.159,14.6817 C97.154,14.8817 97.148,15.0807 97.142,15.2807 C97.141,15.2907 97.141,15.3017 97.141,15.3117 C97.146,15.1507 97.151,14.9867 97.155,14.8257 C97.156,14.7777 97.158,14.7297 97.159,14.6817" id="Fill-40" fill="#8CD5E6"></path>
                                        <path d="M97.1417,15.2804 C97.0977,16.6144 97.0187,17.9394 96.9027,19.2544 C97.0177,17.9644 97.0967,16.6634 97.1397,15.3534 C97.1397,15.3394 97.1407,15.3264 97.1407,15.3124 C97.1407,15.3014 97.1417,15.2904 97.1417,15.2804" id="Fill-42" fill="#9AE0E6"></path>
                                        <path d="M97.18,12.8983 C93.86,12.8983 90.594,13.1223 87.394,13.5563 C85.447,13.8223 83.526,14.1653 81.631,14.5823 L81.68,14.7583 L88.89,21.9683 C91.45,21.6183 94.05,21.3783 96.69,21.2983 C96.771,20.6203 96.842,19.9393 96.903,19.2543 C97.018,17.9393 97.098,16.6143 97.142,15.2803 C97.148,15.0813 97.154,14.8813 97.159,14.6823 L97.159,14.6613 C97.16,14.6423 97.16,14.6233 97.161,14.6043 C97.174,14.0363 97.18,13.4683 97.18,12.8983" id="Fill-44" fill="#4DA1FF"></path>
                                        <polygon id="Fill-46" fill="#E8F3FF" points="39.1978 85.0208 25.0558 70.8788 29.2988 63.8078 46.2688 80.7778"></polygon>
                                        <path d="M75.9672,49.6652 C71.6722,53.9612 64.7072,53.9612 60.4112,49.6652 C56.1152,45.3702 56.1152,38.4052 60.4112,34.1092 C64.7072,29.8132 71.6722,29.8132 75.9672,34.1092 C80.2632,38.4052 80.2632,45.3702 75.9672,49.6652" id="Fill-48" fill="#47E3FF"></path>
                                        <path d="M67.335,31.6393 C64.932,31.6393 62.53,32.5573 60.695,34.3923 C57.033,38.0623 57.033,44.0023 60.695,47.6733 C61.275,48.2533 61.915,48.7403 62.598,49.1403 C60.481,45.5483 60.968,40.8363 64.057,37.7553 C65.888,35.9193 68.29,35.0023 70.694,35.0033 C72.337,35.0033 73.981,35.4313 75.443,36.2873 C75.042,35.6133 74.556,34.9723 73.975,34.3923 C72.14,32.5573 69.738,31.6393 67.335,31.6393" id="Fill-50" fill="#4DA1FF"></path>
                                        <path d="M94.1299,31.6387 C93.6179,31.6387 93.1059,31.4437 92.7159,31.0527 L78.4459,16.7827 C77.6649,16.0017 77.6649,14.7357 78.4459,13.9547 C79.2259,13.1737 80.4929,13.1737 81.2739,13.9547 L95.5439,28.2247 C96.3249,29.0057 96.3249,30.2717 95.5439,31.0527 C95.1529,31.4437 94.6419,31.6387 94.1299,31.6387" id="Fill-52" fill="#2D3666"></path>
                                        <path d="M30.7754,62.4551 L47.6244,79.3051 C57.7274,75.8801 67.0484,70.0821 74.6464,62.4841 C85.7744,51.3561 92.8974,36.6481 94.7034,21.0681 C94.9424,19.0721 95.0924,17.0161 95.1514,14.9271 C90.7354,15.0541 86.3404,15.5921 82.0584,16.5321 C58.1774,21.7831 38.6314,39.3251 30.7754,62.4551 M47.0804,83.5891 C46.5584,83.5891 46.0464,83.3841 45.6664,83.0031 L27.0764,64.4121 C26.5464,63.8831 26.3574,63.1011 26.5854,62.3881 C34.6084,37.3361 55.5354,18.2681 81.2004,12.6251 C86.4194,11.4791 91.7954,10.8981 97.1804,10.8981 C98.2844,10.8981 99.1804,11.7941 99.1804,12.8981 C99.1804,15.8411 99.0104,18.7471 98.6754,21.5371 C96.7674,38.0001 89.2374,53.5501 77.4744,65.3121 C69.1404,73.6471 58.8394,79.9341 47.6884,83.4941 C47.4884,83.5581 47.2834,83.5891 47.0804,83.5891" id="Fill-54" fill="#2D3666"></path>
                                        <path d="M70.3105,41.7661 C69.7985,41.7661 69.2865,41.5711 68.8965,41.1801 C68.5055,40.7901 67.8725,40.7891 67.4815,41.1801 C66.7015,41.9611 65.4345,41.9611 64.6535,41.1801 C63.8725,40.3991 63.8725,39.1331 64.6535,38.3521 C66.6035,36.4021 69.7755,36.4021 71.7245,38.3521 C72.5055,39.1331 72.5055,40.3991 71.7245,41.1801 C71.3345,41.5711 70.8225,41.7661 70.3105,41.7661" id="Fill-56" fill="#FFFFFF"></path>
                                        <polygon id="Fill-58" fill="#B8DAF2" points="31.5233 66.921 27.5903 73.456 25.4463 71.306 29.4743 64.618"></polygon>
                                        <path d="M27.5781,70.5684 L39.5111,82.5014 L43.0441,80.3814 L29.6971,67.0344 L27.5781,70.5684 Z M39.2011,87.0184 C38.6831,87.0184 38.1711,86.8184 37.7861,86.4324 L23.6461,72.2934 C22.9971,71.6444 22.8731,70.6374 23.3451,69.8504 L27.5841,62.7804 C27.9011,62.2524 28.4441,61.8994 29.0551,61.8234 C29.6691,61.7494 30.2791,61.9594 30.7141,62.3944 L47.6841,79.3644 C48.1201,79.7994 48.3301,80.4114 48.2551,81.0224 C48.1801,81.6334 47.8271,82.1764 47.2991,82.4934 L40.2281,86.7344 C39.9091,86.9254 39.5541,87.0184 39.2011,87.0184 L39.2011,87.0184 Z" id="Fill-60" fill="#2D3666"></path>
                                        <path d="M50.5115,59.565 L50.5115,59.565 C48.9725,58.026 46.4595,58.089 44.9995,59.703 L22.1545,84.952 C21.4035,85.783 21.4355,87.057 22.2275,87.849 C23.0195,88.641 24.2935,88.673 25.1245,87.922 L50.3735,65.077 C51.9875,63.617 52.0505,61.104 50.5115,59.565" id="Fill-62" fill="#78D5DD"></path>
                                        <path d="M47.8223,60.4502 C47.8063,60.4502 47.7913,60.4512 47.7753,60.4512 C47.2773,60.4642 46.8183,60.6752 46.4833,61.0452 L23.6373,86.2942 C23.6013,86.3342 23.6033,86.3972 23.6423,86.4362 C23.6793,86.4742 23.7413,86.4752 23.7823,86.4392 L49.0323,63.5942 C49.4023,63.2592 49.6133,62.8002 49.6253,62.3012 C49.6373,61.8022 49.4503,61.3322 49.0973,60.9792 C48.7553,60.6372 48.3043,60.4502 47.8223,60.4502 M23.7153,90.4672 C22.6633,90.4672 21.6133,90.0632 20.8133,89.2642 C19.2663,87.7162 19.2043,85.2322 20.6713,83.6102 L43.5163,58.3612 C44.5773,57.1872 46.0933,56.4922 47.6753,56.4522 C49.2753,56.4172 50.8063,57.0312 51.9263,58.1512 C53.0443,59.2692 53.6633,60.8182 53.6243,62.3992 C53.5853,63.9812 52.8893,65.4982 51.7163,66.5602 L26.4663,89.4052 C25.6823,90.1142 24.6973,90.4672 23.7153,90.4672" id="Fill-64" fill="#2D3666"></path>
                                        <path d="M68.1895,32.8872 C65.7855,32.8872 63.5255,33.8242 61.8255,35.5232 C60.1255,37.2232 59.1895,39.4832 59.1895,41.8872 C59.1895,44.2912 60.1255,46.5512 61.8255,48.2512 C65.3355,51.7602 71.0445,51.7602 74.5535,48.2512 C76.2525,46.5512 77.1895,44.2912 77.1895,41.8872 C77.1895,39.4832 76.2525,37.2232 74.5535,35.5232 C72.8535,33.8242 70.5935,32.8872 68.1895,32.8872 M68.1895,54.8812 C64.8605,54.8812 61.5315,53.6142 58.9975,51.0792 C56.5415,48.6242 55.1895,45.3602 55.1895,41.8872 C55.1895,38.4152 56.5415,35.1502 58.9975,32.6952 C61.4525,30.2402 64.7165,28.8872 68.1895,28.8872 C71.6615,28.8872 74.9265,30.2402 77.3815,32.6952 C79.8365,35.1502 81.1895,38.4152 81.1895,41.8872 C81.1895,45.3602 79.8365,48.6242 77.3815,51.0792 C74.8475,53.6142 71.5185,54.8812 68.1895,54.8812" id="Fill-66" fill="#2D3666"></path>
                                        <path d="M91.9998,74.1624 L91.9488,74.3164 C91.8498,74.6144 91.6138,74.8494 91.3168,74.9484 L91.1628,75.0004 L91.3168,75.0514 C91.6138,75.1514 91.8498,75.3864 91.9488,75.6844 L91.9998,75.8384 L92.0518,75.6844 C92.1508,75.3864 92.3858,75.1514 92.6838,75.0514 L92.8378,75.0004 L92.6838,74.9484 C92.3858,74.8494 92.1508,74.6144 92.0518,74.3164 L91.9998,74.1624" id="Fill-68" fill="#9AE0E6"></path>
                                        <path d="M92.0003,70.0004 C91.5683,70.0004 91.1873,70.2744 91.0513,70.6834 L90.2093,73.2094 L87.6843,74.0514 C87.2733,74.1884 87.0003,74.5684 87.0003,75.0004 C87.0003,75.4324 87.2743,75.8124 87.6843,75.9484 L90.2093,76.7914 L91.0513,79.3164 C91.1873,79.7264 91.5683,80.0004 92.0003,80.0004 C92.4323,80.0004 92.8123,79.7264 92.9483,79.3164 L93.7903,76.7914 L96.3163,75.9484 C96.7263,75.8124 97.0003,75.4324 97.0003,75.0004 C97.0003,74.5684 96.7263,74.1884 96.3163,74.0514 L93.7903,73.2094 L92.9483,70.6834 C92.8123,70.2744 92.4323,70.0004 92.0003,70.0004 M91.9483,74.3164 L92.0003,74.1624 L92.0513,74.3164 C92.1503,74.6144 92.3863,74.8494 92.6833,74.9494 L92.8373,75.0004 L92.6833,75.0514 C92.3863,75.1514 92.1503,75.3864 92.0513,75.6844 L92.0003,75.8384 L91.9483,75.6844 C91.8493,75.3864 91.6143,75.1514 91.3163,75.0514 L91.1623,75.0004 L91.3163,74.9494 C91.6143,74.8494 91.8493,74.6144 91.9483,74.3164" id="Fill-70" fill="#9AE0E6"></path>
                                        <path d="M98.9999,54.0004 C97.8959,54.0004 96.9999,54.8954 96.9999,56.0004 C96.9999,57.1044 97.8959,58.0004 98.9999,58.0004 C100.1049,58.0004 100.9999,57.1044 100.9999,56.0004 C100.9999,54.8954 100.1049,54.0004 98.9999,54.0004" id="Fill-72" fill="#47E3FF"></path>
                                        <path d="M75,91.9999 C73.896,91.9999 73,92.8949 73,93.9999 C73,95.1039 73.896,95.9999 75,95.9999 C76.104,95.9999 77,95.1039 77,93.9999 C77,92.8949 76.104,91.9999 75,91.9999" id="Fill-74" fill="#47E3FF"></path>
                                        <path d="M108.9998,37.1394 C108.9718,37.1704 108.9428,37.2004 108.9108,37.2284 C108.9428,37.2564 108.9718,37.2854 108.9998,37.3174 C109.0278,37.2854 109.0568,37.2564 109.0888,37.2284 C109.0568,37.2004 109.0278,37.1704 108.9998,37.1394" id="Fill-76" fill="#9AE0E6"></path>
                                        <path d="M109.0001,33.2288 C108.5681,33.2288 108.1871,33.5028 108.0511,33.9118 L107.4591,35.6878 L105.6831,36.2798 C105.2741,36.4158 105.0001,36.7968 105.0001,37.2288 C105.0001,37.6608 105.2741,38.0408 105.6831,38.1768 L107.4591,38.7688 L108.0511,40.5448 C108.1871,40.9548 108.5681,41.2288 109.0001,41.2288 C109.4321,41.2288 109.8121,40.9548 109.9481,40.5448 L110.5401,38.7688 L112.3161,38.1768 C112.7261,38.0408 113.0001,37.6608 113.0001,37.2288 C113.0001,36.7968 112.7261,36.4158 112.3161,36.2798 L110.5401,35.6878 L109.9481,33.9118 C109.8121,33.5028 109.4321,33.2288 109.0001,33.2288 M108.9111,37.2288 C108.9421,37.2008 108.9721,37.1708 109.0001,37.1398 C109.0281,37.1708 109.0571,37.2008 109.0891,37.2288 C109.0571,37.2558 109.0281,37.2858 109.0001,37.3178 C108.9721,37.2858 108.9421,37.2558 108.9111,37.2288" id="Fill-78" fill="#9AE0E6"></path>
                                        <path d="M31,9.9999 C29.895,9.9999 29,10.8949 29,11.9999 C29,13.1039 29.895,13.9999 31,13.9999 C32.104,13.9999 33,13.1039 33,11.9999 C33,10.8949 32.104,9.9999 31,9.9999" id="Fill-80" fill="#47E3FF"></path>
                                        <path d="M23.0002,31.1396 C22.9722,31.1706 22.9432,31.2006 22.9112,31.2286 C22.9432,31.2566 22.9722,31.2856 23.0002,31.3176 C23.0282,31.2856 23.0572,31.2566 23.0892,31.2286 C23.0572,31.2006 23.0282,31.1706 23.0002,31.1396" id="Fill-82" fill="#9AE0E6"></path>
                                        <path d="M23.0005,27.2286 C22.5685,27.2286 22.1875,27.5026 22.0515,27.9116 L21.4595,29.6876 L19.6835,30.2796 C19.2745,30.4156 19.0005,30.7966 19.0005,31.2286 C19.0005,31.6606 19.2745,32.0406 19.6835,32.1776 L21.4595,32.7686 L22.0515,34.5446 C22.1875,34.9546 22.5685,35.2286 23.0005,35.2286 C23.4325,35.2286 23.8125,34.9546 23.9485,34.5446 L24.5405,32.7686 L26.3165,32.1776 C26.7265,32.0406 27.0005,31.6606 27.0005,31.2286 C27.0005,30.7966 26.7265,30.4156 26.3165,30.2796 L24.5405,29.6876 L23.9485,27.9116 C23.8125,27.5026 23.4325,27.2286 23.0005,27.2286 M22.9115,31.2286 C22.9425,31.2006 22.9725,31.1706 23.0005,31.1396 C23.0275,31.1706 23.0575,31.2006 23.0895,31.2286 C23.0575,31.2566 23.0275,31.2856 23.0005,31.3176 C22.9725,31.2856 22.9425,31.2566 22.9115,31.2286" id="Fill-84" fill="#9AE0E6"></path>
                                        <path d="M2.0002,76.2285 C0.8952,76.2285 0.0002,77.1245 0.0002,78.2285 C0.0002,79.3325 0.8952,80.2285 2.0002,80.2285 C3.1042,80.2285 4.0002,79.3325 4.0002,78.2285 C4.0002,77.1245 3.1042,76.2285 2.0002,76.2285" id="Fill-86" fill="#47E3FF"></path>
                                        <path d="M60.0002,4.1625 L59.9492,4.3165 C59.8492,4.6145 59.6142,4.8495 59.3172,4.9485 L59.1622,5.0005 L59.3172,5.0515 C59.6142,5.1505 59.8492,5.3855 59.9492,5.6835 L60.0002,5.8375 L60.0512,5.6835 C60.1512,5.3855 60.3862,5.1505 60.6842,5.0515 L60.8382,5.0005 L60.6842,4.9485 C60.3862,4.8495 60.1512,4.6145 60.0512,4.3165 L60.0002,4.1625" id="Fill-88" fill="#9AE0E6"></path>
                                        <path d="M60.0002,-0.0001 C59.5682,-0.0001 59.1882,0.2739 59.0522,0.6839 L58.2092,3.2099 L55.6842,4.0509 C55.2742,4.1879 55.0002,4.5679 55.0002,4.9999 C55.0002,5.4319 55.2742,5.8119 55.6842,5.9489 L58.2102,6.7909 L59.0522,9.3159 C59.1882,9.7259 59.5682,9.9999 60.0002,9.9999 C60.4322,9.9999 60.8122,9.7259 60.9492,9.3159 L61.7912,6.7909 L64.3162,5.9489 C64.7262,5.8119 65.0002,5.4319 65.0002,4.9999 C65.0002,4.5679 64.7262,4.1879 64.3162,4.0509 L61.7902,3.2089 L60.9492,0.6839 C60.8122,0.2739 60.4322,-0.0001 60.0002,-0.0001 M59.9492,4.3159 L60.0002,4.1629 L60.0512,4.3159 C60.1512,4.6139 60.3862,4.8499 60.6842,4.9489 L60.8382,4.9999 L60.6842,5.0519 C60.3862,5.1509 60.1512,5.3859 60.0512,5.6839 L60.0002,5.8379 L59.9492,5.6839 C59.8492,5.3859 59.6142,5.1509 59.3172,5.0519 L59.1622,4.9999 L59.3172,4.9489 C59.6142,4.8499 59.8492,4.6139 59.9492,4.3159" id="Fill-90" fill="#9AE0E6"></path>
                                        <path d="M91.9998,0.2286 C90.8958,0.2286 89.9998,1.1236 89.9998,2.2286 C89.9998,3.3326 90.8958,4.2286 91.9998,4.2286 C93.1048,4.2286 93.9998,3.3326 93.9998,2.2286 C93.9998,1.1236 93.1048,0.2286 91.9998,0.2286" id="Fill-92" fill="#47E3FF"></path>
                                    </g>
                                </g>
                            </g>
                        </g>
                    </g>
                </g>
            </g>
        </g>
    </g>
</svg>