<?xml version="1.0" encoding="UTF-8"?>
<svg width="120px" height="120px" viewBox="0 0 120 120" version="1.1" xmlns="http://www.w3.org/2000/svg" xmlns:xlink="http://www.w3.org/1999/xlink">
    <!-- Generator: Sketch 44.1 (41455) - http://www.bohemiancoding.com/sketch -->
    <title>hireing-culture-02</title>
    <desc>Created with Sketch.</desc>
    <defs></defs>
    <g id="Page" stroke="none" stroke-width="1" fill="none" fill-rule="evenodd">
        <g id="hireing" transform="translate(-660.000000, -1079.000000)">
            <g id="block" transform="translate(0.000000, 860.000000)">
                <rect id="bg" fill="#FFFFFF" x="0" y="0" width="1440" height="848"></rect>
                <g id="r1" transform="translate(135.000000, 219.000000)">
                    <g id="2" transform="translate(410.000000, 0.000000)">
                        <g id="hireing-culture-02" transform="translate(124.000000, 8.000000)">
                            <g id="Plasma-gun">
                                <g id="Page-1">
                                    <g id="Group-122">
                                        <path d="M96.5197,5.0566 C98.9677,7.5046 98.9677,11.4806 96.5197,13.9286 L87.6467,5.0566 C90.0957,2.6076 94.0717,2.6076 96.5197,5.0566" id="Fill-2" fill="#FFDCA1"></path>
                                        <path d="M88.3376,5.7473 C88.2166,5.8513 88.0986,5.9603 87.9846,6.0753 L90.7466,8.8373 C90.8616,8.7223 90.9786,8.6133 91.0996,8.5093 L88.3376,5.7473" id="Fill-4" fill="#FFEBCE"></path>
                                        <path d="M92.4207,4.2383 C90.9647,4.2383 89.5097,4.7413 88.3377,5.7473 L91.0997,8.5093 C92.2717,7.5033 93.7277,7.0003 95.1827,7.0003 C95.3177,7.0003 95.4517,7.0043 95.5857,7.0133 C95.5487,6.2653 95.3777,5.5223 95.0727,4.8243 C94.2347,4.4333 93.3277,4.2383 92.4207,4.2383 M97.1307,6.3663 C97.4147,6.7503 97.6497,7.1603 97.8357,7.5863 C97.8967,7.6153 97.9577,7.6443 98.0187,7.6753 C97.7827,7.2133 97.4877,6.7713 97.1307,6.3663" id="Fill-6" fill="#FFCA82"></path>
                                        <path d="M81.725,2.0953 C85,5.3593 85,10.6643 81.725,13.9293 L75.803,19.8513 L68.406,27.2483 L59.533,36.1213 L62.494,39.0823 L65.455,42.0433 L66.93,40.5673 L74.328,33.1703 L81.725,25.7733 L87.647,19.8513 C90.911,16.5763 96.216,16.5763 99.481,19.8513 L81.725,2.0953 Z" id="Fill-8" fill="#E8F3FF"></path>
                                        <path d="M84.0682,16.8475 L78.1462,22.7695 L61.8762,39.0395 L59.1142,36.2775 L67.9862,27.4045 L75.3842,20.0075 L81.3062,14.0855 C84.5812,10.8205 84.5812,5.5165 81.3062,2.2515 L84.0682,5.0135 C87.3432,8.2785 87.3432,13.5835 84.0682,16.8475" id="Fill-10" fill="#4DA1FF"></path>
                                        <path d="M66.1666,63.4814 L55.8086,73.8394 L54.3956,75.2524 L50.6706,65.7104 L59.5326,56.8374 C59.5326,60.5104 62.4946,63.4814 66.1666,63.4814" id="Fill-12" fill="#4DA1FF"></path>
                                        <path d="M43.2528,87.9124 L40.2918,84.9514 C37.8438,82.5034 33.8778,82.5034 31.4188,84.9514 L37.3408,79.0394 L37.3518,79.0194 L50.6498,65.7204 L62.7248,96.5654 C63.4778,98.5014 63.0278,100.6984 61.5528,102.1734 L55.0028,108.7234 C53.6528,110.0624 51.3718,109.5704 50.7128,107.7924 L43.2528,87.9124 Z" id="Fill-14" fill="#4DA1FF"></path>
                                        <path d="M62.222,102.2153 L55.327,109.1003 C53.915,110.5123 51.508,109.9893 50.818,108.1273 L49.656,105.0093 C49.991,104.8733 50.326,104.6633 50.608,104.3813 L57.503,97.4963 C59.052,95.9373 59.523,93.6253 58.727,91.5953 L58.34,90.6123 L60.747,89.3983 L63.457,96.3143 C64.241,98.3543 63.771,100.6563 62.222,102.2153" id="Fill-16" fill="#FFFFFF"></path>
                                        <path d="M62.494,39.0816 C66.575,43.1726 66.575,49.7956 62.494,53.8866 L59.533,56.8376 L50.671,65.7096 L50.65,65.7206 L37.351,79.0186 L37.341,79.0396 L31.419,84.9516 C29.787,86.5946 27.129,86.5946 25.497,84.9516 L16.625,76.0786 C14.982,74.4466 14.982,71.7886 16.625,70.1566 L19.575,67.1956 L21.061,65.7206 L22.536,64.2346 L41.861,44.9206 L47.689,39.0816 C51.78,35.0006 58.403,35.0006 62.494,39.0816" id="Fill-18" fill="#E8F3FF"></path>
                                        <path d="M64.8037,41.9486 C60.7337,39.1656 55.1357,39.5836 51.5157,43.1936 L45.6877,49.0316 L26.3627,68.3466 L24.8877,69.8326 L23.4017,71.3076 L20.4517,74.2686 C18.8087,75.9006 18.8087,78.5586 20.4517,80.1906 L17.6887,77.4286 C16.0467,75.7966 16.0467,73.1386 17.6887,71.5066 L20.6397,68.5456 L22.1257,67.0706 L23.6007,65.5846 L42.9257,46.2706 L48.7537,40.4316 C52.8447,36.3506 59.4677,36.3506 63.5587,40.4316 C64.0297,40.9026 64.4477,41.4146 64.8037,41.9486" id="Fill-20" fill="#4DA1FF"></path>
                                        <path d="M99.8265,20.3329 C96.5615,17.0579 91.2575,17.0579 87.9925,20.3329 L82.0705,26.2549 L74.6735,33.6519 L67.2765,41.0499 L65.8005,42.5249 L63.0385,39.7629 L79.3085,23.4929 L85.2305,17.5709 C88.4945,14.2959 93.7995,14.2959 97.0645,17.5709 L99.8265,20.3329 Z" id="Fill-22" fill="#FFFFFF"></path>
                                        <path d="M98.3488,9.7894 C98.2778,11.2954 97.6678,12.7804 96.5198,13.9284 L94.0478,11.4574 C93.9558,11.5634 93.8588,11.6674 93.7568,11.7684 L96.5198,14.5304 C97.8218,13.2294 98.4308,11.4954 98.3488,9.7894" id="Fill-24" fill="#FFEDD0"></path>
                                        <path d="M94.9189,4.4967 C94.9739,4.6047 95.0249,4.7137 95.0729,4.8237 C95.7189,5.1247 96.3239,5.5417 96.8569,6.0747 C96.9519,6.1697 97.0429,6.2667 97.1309,6.3667 C96.9469,6.1187 96.7439,5.8817 96.5199,5.6577 C96.0379,5.1767 95.4939,4.7897 94.9189,4.4967 M95.5859,7.0127 C95.6659,8.5907 95.1529,10.1937 94.0479,11.4577 L96.5199,13.9287 C97.6679,12.7797 98.2779,11.2947 98.3489,9.7897 C98.3119,9.0367 98.1409,8.2897 97.8359,7.5867 C97.1219,7.2537 96.3579,7.0627 95.5859,7.0127" id="Fill-26" fill="#FFECBF"></path>
                                        <path d="M95.0731,4.8242 C95.3771,5.5222 95.5481,6.2652 95.5861,7.0132 C96.3571,7.0622 97.1211,7.2542 97.8351,7.5872 C97.6501,7.1602 97.4151,6.7512 97.1301,6.3662 C97.0431,6.2672 96.9521,6.1692 96.8571,6.0752 C96.3241,5.5422 95.7191,5.1252 95.0731,4.8242" id="Fill-28" fill="#FFE1AA"></path>
                                        <path d="M61.521,53.05 L58.56,56.001 L49.698,64.873 L49.677,64.884 L36.378,78.182 L36.368,78.203 L30.446,84.114 C28.814,85.757 26.156,85.757 24.524,84.114 L21.762,81.352 C23.394,82.995 26.052,82.995 27.684,81.352 L33.606,75.44 L33.616,75.42 L46.915,62.121 L46.935,62.111 L55.798,53.238 L58.759,50.288 C62.368,46.667 62.787,41.07 60.004,37 C60.538,37.355 61.05,37.774 61.521,38.245 C65.602,42.336 65.602,48.959 61.521,53.05" id="Fill-30" fill="#FFFFFF"></path>
                                        <path d="M47.6891,39.0818 L41.8611,44.9198 L22.5361,64.2348 L21.0611,65.7208 L19.5751,67.1958 L16.6561,64.2768 C13.3911,61.0018 8.1291,61.0438 4.8541,64.3188 L32.9681,36.2048 C36.2421,32.9298 41.5051,32.8878 44.7701,36.1628 L47.6891,39.0818 Z" id="Fill-32" fill="#E8F3FF"></path>
                                        <path d="M45.6619,39.0818 L45.4109,39.3328 C42.2509,37.6378 38.2439,38.1508 35.5649,40.8288 L13.2369,63.1568 C10.0039,61.0648 5.6729,61.4728 2.8269,64.3188 L30.9409,36.2048 C34.2149,32.9298 39.4779,32.8878 42.7429,36.1628 L45.6619,39.0818 Z" id="Fill-34" fill="#4DA1FF"></path>
                                        <polygon id="Fill-36" fill="#47E3FF" points="25.4969 84.9515 18.0999 89.3985 12.1779 83.4755 16.6249 76.0785"></polygon>
                                        <path d="M32.9678,38.2046 C32.4558,38.2046 31.9448,38.0096 31.5538,37.6196 C30.7728,36.8376 30.7728,35.5716 31.5538,34.7906 C33.5288,32.8146 36.1428,31.7276 38.9128,31.7276 L38.9218,31.7276 C41.6658,31.7296 44.2448,32.8036 46.1868,34.7506 C46.9658,35.5336 46.9638,36.7996 46.1818,37.5796 C45.3998,38.3586 44.1328,38.3566 43.3528,37.5746 C42.1668,36.3846 40.5928,35.7286 38.9188,35.7276 L38.9138,35.7276 C37.2108,35.7276 35.6018,36.3986 34.3818,37.6186 C33.9908,38.0096 33.4798,38.2046 32.9678,38.2046" id="Fill-38" fill="#2D3666"></path>
                                        <path d="M19.5752,69.1953 C19.0632,69.1953 18.5522,69.0003 18.1612,68.6093 L15.2422,65.6903 C14.0542,64.4993 12.4782,63.8423 10.8042,63.8413 L10.8002,63.8413 C9.0962,63.8413 7.4872,64.5123 6.2672,65.7323 C5.4862,66.5133 4.2212,66.5133 3.4392,65.7323 C2.6582,64.9513 2.6582,63.6843 3.4392,62.9043 C5.4152,60.9283 8.0292,59.8413 10.8002,59.8413 L10.8082,59.8413 C13.5522,59.8433 16.1312,60.9173 18.0722,62.8643 L20.9892,65.7813 C21.7702,66.5623 21.7702,67.8283 20.9892,68.6093 C20.5982,69.0003 20.0872,69.1953 19.5752,69.1953" id="Fill-40" fill="#2D3666"></path>
                                        <path d="M4.8535,66.3184 C4.3415,66.3184 3.8305,66.1234 3.4395,65.7324 C2.6585,64.9514 2.6585,63.6854 3.4395,62.9044 L31.5535,34.7904 C32.3345,34.0094 33.6005,34.0094 34.3815,34.7904 C35.1635,35.5714 35.1635,36.8384 34.3815,37.6184 L6.2675,65.7324 C5.8765,66.1234 5.3655,66.3184 4.8535,66.3184" id="Fill-42" fill="#2D3666"></path>
                                        <path d="M43.2949,36.6875 C42.7829,36.6875 42.2729,36.4925 41.8819,36.1035 C41.1009,35.3225 41.0989,34.0565 41.8799,33.2745 L47.7909,27.3525 C48.5699,26.5705 49.8359,26.5695 50.6189,27.3505 C51.3999,28.1305 51.4019,29.3965 50.6209,30.1785 L44.7099,36.1005 C44.3189,36.4915 43.8079,36.6875 43.2949,36.6875" id="Fill-44" fill="#2D3666"></path>
                                        <path d="M81.7246,15.9287 C81.2116,15.9287 80.6986,15.7327 80.3076,15.3407 C79.5286,14.5577 79.5306,13.2917 80.3126,12.5117 C81.5176,11.3117 82.1806,9.7137 82.1816,8.0117 C82.1816,6.3107 81.5176,4.7127 80.3126,3.5117 C79.5306,2.7317 79.5286,1.4657 80.3076,0.6827 C81.0886,-0.0993 82.3536,-0.1013 83.1366,0.6787 C85.0996,2.6357 86.1816,5.2407 86.1816,8.0127 C86.1806,10.7847 85.0996,13.3887 83.1366,15.3457 C82.7456,15.7347 82.2356,15.9287 81.7246,15.9287" id="Fill-46" fill="#2D3666"></path>
                                        <path d="M59.5332,38.1211 C59.0212,38.1211 58.5102,37.9261 58.1192,37.5351 C57.3382,36.7541 57.3382,35.4881 58.1192,34.7071 L80.3102,12.5151 C81.0922,11.7331 82.3572,11.7331 83.1382,12.5151 C83.9202,13.2951 83.9202,14.5621 83.1382,15.3431 L60.9472,37.5351 C60.5562,37.9261 60.0452,38.1211 59.5332,38.1211" id="Fill-48" fill="#2D3666"></path>
                                        <path d="M65.4551,44.043 C64.9431,44.043 64.4321,43.848 64.0411,43.457 C63.2601,42.676 63.2601,41.41 64.0411,40.629 L86.2331,18.437 C87.0151,17.656 88.2801,17.656 89.0611,18.437 C89.8431,19.218 89.8431,20.484 89.0611,21.266 L66.8691,43.457 C66.4781,43.848 65.9671,44.043 65.4551,44.043" id="Fill-50" fill="#2D3666"></path>
                                        <path d="M87.6475,21.8511 C87.1365,21.8511 86.6265,21.6571 86.2355,21.2681 C85.4535,20.4881 85.4515,19.2221 86.2305,18.4391 C88.1875,16.4761 90.7915,15.3951 93.5625,15.3951 C96.3355,15.3941 98.9395,16.4761 100.8965,18.4391 C101.6765,19.2211 101.6745,20.4881 100.8925,21.2681 C100.1105,22.0471 98.8445,22.0451 98.0645,21.2631 C96.8635,20.0581 95.2645,19.3941 93.5635,19.3951 C91.8625,19.3951 90.2645,20.0591 89.0645,21.2631 C88.6735,21.6551 88.1605,21.8511 87.6475,21.8511" id="Fill-52" fill="#2D3666"></path>
                                        <path d="M78.7637,39.6064 C78.2517,39.6064 77.7407,39.4114 77.3497,39.0204 L62.5557,24.2264 C61.7747,23.4444 61.7747,22.1784 62.5557,21.3984 C63.3367,20.6164 64.6027,20.6164 65.3837,21.3984 L80.1777,36.1924 C80.9587,36.9734 80.9587,38.2394 80.1777,39.0204 C79.7867,39.4114 79.2757,39.6064 78.7637,39.6064" id="Fill-54" fill="#2D3666"></path>
                                        <path d="M86.1611,32.2095 C85.6491,32.2095 85.1381,32.0145 84.7471,31.6235 L69.9531,16.8285 C69.1721,16.0475 69.1721,14.7815 69.9531,14.0005 C70.7341,13.2195 72.0001,13.2195 72.7811,14.0005 L87.5751,28.7955 C88.3561,29.5765 88.3561,30.8425 87.5751,31.6235 C87.1841,32.0145 86.6731,32.2095 86.1611,32.2095" id="Fill-56" fill="#2D3666"></path>
                                        <path d="M99.4805,21.8511 C98.9685,21.8511 98.4575,21.6561 98.0665,21.2651 L80.3105,3.5091 C79.5295,2.7281 79.5295,1.4621 80.3105,0.6811 C81.0915,-0.0999 82.3575,-0.0999 83.1385,0.6811 L100.8945,18.4371 C101.6755,19.2181 101.6755,20.4841 100.8945,21.2651 C100.5035,21.6561 99.9925,21.8511 99.4805,21.8511" id="Fill-58" fill="#2D3666"></path>
                                        <path d="M37.3516,81.0186 C36.8396,81.0186 36.3286,80.8236 35.9376,80.4326 C35.1566,79.6516 35.1566,78.3856 35.9376,77.6046 L49.2366,64.3066 C49.2756,64.2676 49.3156,64.2306 49.3576,64.1946 L61.0816,52.4706 C61.8646,51.6896 63.1306,51.6926 63.9116,52.4756 C64.6906,53.2576 64.6886,54.5236 63.9066,55.3036 L52.0856,67.1226 C52.0466,67.1636 52.0046,67.2016 51.9626,67.2366 L38.7656,80.4326 C38.3746,80.8236 37.8636,81.0186 37.3516,81.0186" id="Fill-60" fill="#2D3666"></path>
                                        <path d="M28.458,88.1826 C26.801,88.1826 25.246,87.5366 24.078,86.3606 C23.3,85.5776 23.304,84.3106 24.088,83.5326 C24.87,82.7526 26.138,82.7566 26.916,83.5416 C27.738,84.3686 29.178,84.3686 30,83.5416 L35.887,77.6646 C36.479,77.0386 37.433,76.8376 38.24,77.2406 C39.229,77.7346 39.635,78.9246 39.141,79.9126 C39.044,80.1056 38.906,80.3036 38.754,80.4546 L32.832,86.3666 C31.67,87.5366 30.115,88.1826 28.458,88.1826" id="Fill-62" fill="#2D3666"></path>
                                        <path d="M46.2734,37.6686 L40.4454,43.5076 L40.4474,43.5056 L21.1224,62.8206 L21.1174,62.8256 L19.6414,64.3116 L19.6514,64.3006 L18.1654,65.7766 L18.1584,65.7836 L15.2074,68.7456 L15.2144,68.7376 C14.0034,69.9396 13.3904,71.5386 13.3924,73.1176 C13.3904,74.6966 14.0034,76.2956 15.2144,77.4976 C15.9984,78.2766 17.2654,78.2716 18.0434,77.4886 C18.8214,76.7046 18.8184,75.4386 18.0344,74.6596 C17.6024,74.2296 17.3944,73.6836 17.3924,73.1176 C17.3944,72.5526 17.6024,72.0056 18.0344,71.5756 L18.0414,71.5686 L20.9924,68.6076 L20.9844,68.6146 L22.4704,67.1396 L22.4804,67.1296 L23.9554,65.6436 L23.9504,65.6496 L43.2754,46.3346 L43.2764,46.3336 L49.1044,40.4946 C49.8844,39.7136 49.8834,38.4466 49.1014,37.6666 C48.3204,36.8866 47.0534,36.8876 46.2734,37.6686 L46.2734,37.6686" id="Fill-64" fill="#2D3666"></path>
                                        <path d="M62.4941,55.8867 C61.9831,55.8867 61.4721,55.6917 61.0821,55.3027 C60.3001,54.5227 60.2981,53.2567 61.0781,52.4747 C64.3721,49.1717 64.3721,43.7977 61.0781,40.4947 C57.7771,37.2037 52.4041,37.2017 49.1011,40.4977 C48.3211,41.2777 47.0541,41.2757 46.2731,40.4947 C45.4931,39.7127 45.4951,38.4467 46.2771,37.6657 C51.1371,32.8177 59.0471,32.8177 63.9061,37.6657 C68.7581,42.5307 68.7581,50.4387 63.9101,55.2997 C63.5191,55.6907 63.0071,55.8867 62.4941,55.8867" id="Fill-66" fill="#2D3666"></path>
                                        <path d="M47.6895,41.082 C47.1775,41.082 46.6665,40.887 46.2755,40.497 L43.3555,37.577 C42.5745,36.796 42.5745,35.53 43.3555,34.749 C44.1365,33.967 45.4025,33.968 46.1835,34.748 L49.1035,37.667 C49.8845,38.449 49.8845,39.715 49.1035,40.496 C48.7125,40.887 48.2015,41.082 47.6895,41.082" id="Fill-68" fill="#2D3666"></path>
                                        <path d="M66.167,65.4814 C61.406,65.4814 57.533,61.6034 57.533,56.8374 C57.533,55.7324 58.429,54.8374 59.533,54.8374 C60.638,54.8374 61.533,55.7324 61.533,56.8374 C61.533,59.3984 63.612,61.4814 66.167,61.4814 C67.271,61.4814 68.167,62.3774 68.167,63.4814 C68.167,64.5854 67.271,65.4814 66.167,65.4814" id="Fill-70" fill="#2D3666"></path>
                                        <path d="M55.8086,75.8398 C55.2966,75.8398 54.7856,75.6448 54.3946,75.2538 C53.6136,74.4728 53.6136,73.2068 54.3946,72.4258 L64.7526,62.0678 C65.5346,61.2858 66.7996,61.2858 67.5806,62.0678 C68.3626,62.8488 68.3626,64.1138 67.5806,64.8958 L57.2226,75.2538 C56.8316,75.6448 56.3206,75.8398 55.8086,75.8398" id="Fill-72" fill="#2D3666"></path>
                                        <path d="M34.3799,72.1572 C33.8679,72.1572 33.3569,71.9622 32.9659,71.5712 L30.0049,68.6092 C29.2239,67.8282 29.2239,66.5612 30.0049,65.7812 C30.7859,65.0002 32.0519,65.0002 32.8329,65.7812 L35.7939,68.7432 C36.5749,69.5242 36.5749,70.7912 35.7939,71.5712 C35.4029,71.9622 34.8919,72.1572 34.3799,72.1572" id="Fill-74" fill="#2D3666"></path>
                                        <path d="M40.292,66.2344 C39.78,66.2344 39.269,66.0394 38.878,65.6484 L35.927,62.6984 C35.146,61.9184 35.146,60.6514 35.927,59.8704 C36.706,59.0884 37.974,59.0884 38.755,59.8704 L41.706,62.8204 C42.487,63.6004 42.487,64.8674 41.706,65.6484 C41.316,66.0394 40.804,66.2344 40.292,66.2344" id="Fill-76" fill="#2D3666"></path>
                                        <path d="M46.2139,60.3232 C45.7019,60.3232 45.1909,60.1282 44.7999,59.7372 L41.8389,56.7762 C41.0579,55.9952 41.0579,54.7292 41.8389,53.9482 C42.6199,53.1672 43.8859,53.1672 44.6669,53.9482 L47.6279,56.9092 C48.4089,57.6902 48.4089,58.9562 47.6279,59.7372 C47.2369,60.1282 46.7259,60.3232 46.2139,60.3232" id="Fill-78" fill="#2D3666"></path>
                                        <path d="M16.6248,76.0787 L14.9108,75.0477 L10.4638,82.4457 C9.9908,83.2327 10.1148,84.2417 10.7638,84.8907 L16.6858,90.8117 C17.3348,91.4617 18.3438,91.5847 19.1298,91.1117 L26.5278,86.6657 C27.0538,86.3487 27.4068,85.8047 27.4818,85.1947 C27.5568,84.5857 27.3458,83.9717 26.9118,83.5367 L18.0388,74.6647 C17.6048,74.2307 16.9908,74.0187 16.3808,74.0937 C15.7708,74.1687 15.2268,74.5217 14.9108,75.0477 L16.6248,76.0787 L15.2098,77.4937 L22.2728,84.5557 L18.4088,86.8787 L14.6968,83.1667 L18.3388,77.1097 L16.6248,76.0787 L15.2098,77.4937 L16.6248,76.0787" id="Fill-80" fill="#2D3666"></path>
                                        <path d="M96.5195,15.9287 C96.0075,15.9287 95.4965,15.7337 95.1055,15.3427 C94.3245,14.5617 94.3245,13.2957 95.1055,12.5147 C96.7715,10.8477 96.7715,8.1367 95.1055,6.4707 C94.2985,5.6637 93.2255,5.2207 92.0835,5.2207 C90.9415,5.2207 89.8685,5.6637 89.0615,6.4707 C88.2805,7.2517 87.0145,7.2517 86.2335,6.4707 C85.4525,5.6897 85.4525,4.4237 86.2335,3.6427 C87.7945,2.0807 89.8735,1.2207 92.0835,1.2207 C94.2935,1.2207 96.3725,2.0807 97.9335,3.6427 C101.1595,6.8677 101.1595,12.1167 97.9335,15.3427 C97.5425,15.7337 97.0315,15.9287 96.5195,15.9287" id="Fill-82" fill="#2D3666"></path>
                                        <path d="M53.1602,111.4873 C52.8272,111.4873 52.4912,111.4513 52.1582,111.3783 C50.6242,111.0393 49.3832,109.9593 48.8382,108.4873 L41.3812,88.6153 C40.9922,87.5813 41.5152,86.4273 42.5502,86.0403 C43.5852,85.6513 44.7372,86.1753 45.1252,87.2093 L52.5852,107.0893 C52.6812,107.3483 52.8752,107.4393 53.0202,107.4713 C53.1442,107.4983 53.3842,107.5123 53.5952,107.3033 L60.1392,100.7593 C61.0442,99.8533 61.3282,98.4913 60.8602,97.2903 L48.7882,66.4503 C48.3862,65.4213 48.8922,64.2603 49.9212,63.8583 C50.9552,63.4563 52.1112,63.9633 52.5132,64.9913 L64.5872,95.8363 C65.6312,98.5183 64.9942,101.5593 62.9682,103.5883 L56.4172,110.1373 C55.5332,111.0143 54.3662,111.4873 53.1602,111.4873" id="Fill-84" fill="#2D3666"></path>
                                        <path d="M31.4189,86.9512 C30.9049,86.9512 30.3929,86.7552 30.0019,86.3622 C29.2229,85.5792 29.2249,84.3132 30.0079,83.5342 C33.2399,80.3162 38.4869,80.3182 41.7059,83.5372 C42.4869,84.3182 42.4869,85.5842 41.7059,86.3652 C40.9249,87.1462 39.6589,87.1462 38.8779,86.3652 C37.2149,84.7032 34.5029,84.7022 32.8299,86.3682 C32.4399,86.7572 31.9299,86.9512 31.4189,86.9512" id="Fill-86" fill="#2D3666"></path>
                                        <path d="M43.2529,89.9121 C42.7409,89.9121 42.2299,89.7171 41.8389,89.3261 L38.8779,86.3651 C38.0969,85.5841 38.0969,84.3181 38.8779,83.5371 C39.6589,82.7561 40.9249,82.7561 41.7059,83.5371 L44.6669,86.4981 C45.4479,87.2791 45.4479,88.5451 44.6669,89.3261 C44.2759,89.7171 43.7649,89.9121 43.2529,89.9121" id="Fill-88" fill="#2D3666"></path>
                                        <path d="M43.2695,89.9033 C42.5205,89.9033 41.7995,89.4853 41.4575,88.7673 C41.0565,87.9253 41.2885,86.9493 41.9675,86.3793 L46.2735,82.0633 C47.0525,81.2833 48.3195,81.2793 49.1025,82.0603 C49.8835,82.8413 49.8855,84.1073 49.1055,84.8893 L44.6895,89.3153 C44.5275,89.4763 44.3395,89.6093 44.1335,89.7083 C43.8545,89.8413 43.5595,89.9033 43.2695,89.9033" id="Fill-90" fill="#2D3666"></path>
                                        <path d="M46.5801,98.4189 C46.0571,98.4189 45.5331,98.2149 45.1421,97.8079 C44.3741,97.0139 44.3961,95.7469 45.1911,94.9809 L45.4741,94.7079 L49.8851,90.2969 C50.6661,89.5159 51.9321,89.5159 52.7131,90.2969 C53.4941,91.0779 53.4941,92.3449 52.7131,93.1249 L47.9691,97.8569 C47.5811,98.2319 47.0801,98.4189 46.5801,98.4189" id="Fill-92" fill="#2D3666"></path>
                                        <polygon id="Fill-94" fill="#49ADFF" points="17.0199 79.3029 14.6969 83.1669 16.3119 84.7819 18.6349 80.9179"></polygon>
                                        <polygon id="Fill-96" fill="#2D3253" points="16.7186 76.7484 12.2716 84.1464 15.0346 86.9084 16.3126 84.7824 14.6966 83.1664 17.0196 79.3034 18.6356 80.9184 19.4806 79.5104"></polygon>
                                        <path d="M97.9998,37.1205 C96.8998,37.1205 95.9998,38.0205 95.9998,39.1205 C95.9998,40.2205 96.8998,41.1205 97.9998,41.1205 C99.0998,41.1205 99.9998,40.2205 99.9998,39.1205 C99.9998,38.0205 99.0998,37.1205 97.9998,37.1205" id="Fill-98" fill="#47E3FF"></path>
                                        <path d="M72,83.4805 C70.9,83.4805 70,84.3805 70,85.4805 C70,86.5805 70.9,87.4805 72,87.4805 C73.1,87.4805 74,86.5805 74,85.4805 C74,84.3805 73.1,83.4805 72,83.4805" id="Fill-100" fill="#47E3FF"></path>
                                        <path d="M40.0001,17.4802 C38.9001,17.4802 38.0001,18.3802 38.0001,19.4802 C38.0001,20.5802 38.9001,21.4802 40.0001,21.4802 C41.1001,21.4802 42.0001,20.5802 42.0001,19.4802 C42.0001,18.3802 41.1001,17.4802 40.0001,17.4802" id="Fill-102" fill="#47E3FF"></path>
                                        <path d="M2.0001,47.1202 C0.9001,47.1202 0.0001,48.0202 0.0001,49.1202 C0.0001,50.2202 0.9001,51.1202 2.0001,51.1202 C3.1001,51.1202 4.0001,50.2202 4.0001,49.1202 C4.0001,48.0202 3.1001,47.1202 2.0001,47.1202" id="Fill-104" fill="#47E3FF"></path>
                                        <path d="M17,25.4485276 C17,27.2771964 15.5178876,28.7588221 13.6897055,28.7588221 C12.5799465,28.7588221 11.6006328,28.2112436 11,27.3740569 C10.3993672,28.2112436 9.4195668,28.7588221 8.31029448,28.7588221 C6.48211244,28.7588221 5,27.2771964 5,25.4485276 C5,25.1900706 5.03261134,24.9379411 5.08907277,24.6965198 C5.5490387,21.8408372 8.72402044,18.8269652 11,18 C13.2754928,18.8269652 16.451448,21.8408372 16.909467,24.6955464 C16.9673887,24.9379411 17,25.1900706 17,25.4485276" id="path22" fill-opacity="0.5" fill="#FF566D" fill-rule="nonzero" transform="translate(11.000000, 23.379411) rotate(-180.000000) translate(-11.000000, -23.379411) "></path>
                                        <path d="M66.5025644,7.89834279 C66.5025644,9.3464297 65.3289087,10.5197 63.8812072,10.5197 C63.0024108,10.5197 62.2269115,10.0860833 61.7512822,9.42313166 C61.2756529,10.0860833 60.4997682,10.5197 59.6213572,10.5197 C58.1736557,10.5197 57,9.3464297 57,7.89834279 C57,7.69367573 57.0258243,7.49401935 57.070535,7.30284259 C57.434773,5.04148356 59.9489787,2.65485751 61.7512822,2 C63.5532003,2.65485751 66.0681769,5.04148356 66.4308731,7.30207172 C66.4767401,7.49401935 66.5025644,7.69367573 66.5025644,7.89834279" id="path22" fill-opacity="0.5" fill="#FF566D" fill-rule="nonzero" transform="translate(61.751282, 6.259850) rotate(-180.000000) translate(-61.751282, -6.259850) "></path>
                                        <path d="M89.7331803,59.2829098 C89.7331803,61.0709182 88.2840226,62.5196 86.4964902,62.5196 C85.4114066,62.5196 84.4538679,61.9841969 83.8665902,61.1656251 C83.2793125,61.9841969 82.3212979,62.5196 81.2366902,62.5196 C79.4491577,62.5196 78,61.0709182 78,59.2829098 C78,59.0301996 78.0318862,58.7836762 78.0870922,58.5476229 C78.5368308,55.7554363 81.641217,52.8085777 83.8665902,52 C86.0914875,52.8085777 89.1968254,55.7554363 89.6446604,58.5466711 C89.7012941,58.7836762 89.7331803,59.0301996 89.7331803,59.2829098" id="path22" fill-opacity="0.5" fill="#FF566D" fill-rule="nonzero" transform="translate(83.866590, 57.259800) rotate(-180.000000) translate(-83.866590, -57.259800) "></path>
                                        <path d="M30,104.243742 C30,105.615244 28.8884157,106.726463 27.5172791,106.726463 C26.6849598,106.726463 25.9504746,106.315779 25.5,105.687889 C25.0495254,106.315779 24.3146751,106.726463 23.4827209,106.726463 C22.1115843,106.726463 21,105.615244 21,104.243742 C21,104.049899 21.0244585,103.860802 21.0668046,103.679736 C21.411779,101.537974 23.7930153,99.2775703 25.5,98.6573464 C27.2066196,99.2775703 29.588586,101.537974 29.9321003,103.679006 C29.9755415,103.860802 30,104.049899 30,104.243742" id="path22" fill-opacity="0.5" fill="#FF566D" fill-rule="nonzero" transform="translate(25.500000, 102.691905) rotate(-180.000000) translate(-25.500000, -102.691905) "></path>
                                    </g>
                                </g>
                            </g>
                        </g>
                    </g>
                </g>
            </g>
        </g>
    </g>
</svg>