<?xml version="1.0" encoding="UTF-8"?>
<svg width="120px" height="120px" viewBox="0 0 120 120" version="1.1" xmlns="http://www.w3.org/2000/svg" xmlns:xlink="http://www.w3.org/1999/xlink">
    <!-- Generator: Sketch 44.1 (41455) - http://www.bohemiancoding.com/sketch -->
    <title>hireing-culture-04</title>
    <desc>Created with Sketch.</desc>
    <defs>
        <polygon id="path-1" points="4 0.0001 4 4.0001 0.0001 4.0001 0.0001 0.0001 4 0.0001"></polygon>
        <polygon id="path-3" points="4.0001 4 0.0001 4 0.0001 0.0002 4.0001 0.0002 4.0001 4"></polygon>
    </defs>
    <g id="Page" stroke="none" stroke-width="1" fill="none" fill-rule="evenodd">
        <g id="hireing" transform="translate(-251.000000, -1384.000000)">
            <g id="block" transform="translate(0.000000, 860.000000)">
                <rect id="bg" fill="#FFFFFF" x="0" y="0" width="1440" height="848"></rect>
                <g id="r2" transform="translate(135.000000, 524.000000)">
                    <g id="1">
                        <g id="Earth" transform="translate(116.000000, 0.000000)">
                            <g id="hireing-culture-04" transform="translate(4.000000, 9.000000)">
                                <path d="M56.0001,96.4596 C47.7701,96.4596 41.0991,89.7886 41.0991,81.5586 L70.9011,81.5586 C70.9011,89.7886 64.2291,96.4596 56.0001,96.4596" id="Fill-1" fill="#F9D79E"></path>
                                <path d="M44.9864,81.5582 L43.0854,81.5582 C43.2034,85.2042 43.9324,88.9992 46.4594,91.1682 C47.9344,92.8882 50.9844,93.4172 53.2084,94.1602 C53.2354,94.1592 53.2614,94.1582 53.2894,94.1572 C50.8444,91.7802 49.3284,88.4452 49.3284,84.7682 L47.9404,83.9172 C47.9324,83.7282 47.9114,83.5422 47.9114,83.3512 L44.9864,81.5582" id="Fill-3" fill="#F7C074"></path>
                                <path d="M70.8018,83.2897 L66.2938,83.2897 C65.6908,85.8927 64.3538,88.2247 62.5348,90.0537 C60.1378,92.4417 56.8888,93.9787 53.2888,94.1567 C53.3058,94.1727 53.3228,94.1887 53.3388,94.2047 C53.2948,94.1897 53.2518,94.1757 53.2078,94.1607 C53.0008,94.1697 52.7938,94.1737 52.5848,94.1737 C50.9878,94.1737 49.4488,93.9027 48.0118,93.4107 C48.8738,94.2447 49.8438,94.9697 50.8988,95.5637 C52.4898,96.1437 54.2078,96.4597 55.9998,96.4597 C63.6448,96.4597 69.9448,90.7037 70.8018,83.2897" id="Fill-5" fill="#FBEEC9"></path>
                                <path d="M56.0001,96.4596 C47.7701,96.4596 41.0991,89.7886 41.0991,81.5586 L70.9011,81.5586 C70.9011,89.7886 64.2291,96.4596 56.0001,96.4596" id="Stroke-7" stroke="#17317B" stroke-width="3" stroke-linecap="round" stroke-linejoin="round"></path>
                                <path d="M12.9932,71.257 L12.9932,55.462 C12.9932,45.972 20.6862,38.278 30.1772,38.278 L30.1772,46.87 C25.4312,46.87 21.5852,50.717 21.5852,55.462 L21.5852,71.257" id="Fill-9" fill="#E6F0F9"></path>
                                <path d="M90.4776,71.257 L90.4776,55.462 C90.4776,50.717 86.6306,46.87 81.8856,46.87 L81.8856,38.278 C91.3756,38.278 99.0696,45.972 99.0696,55.462 L99.0696,71.257" id="Fill-11" fill="#E6F0F9"></path>
                                <path d="M77.5762,36.1495 L56.0012,36.1495 L34.4252,36.1495 C31.1992,36.1495 28.7092,38.9915 29.1452,42.1955 L32.3762,65.8635 C32.7052,68.2715 33.5322,70.5855 34.8052,72.6555 L36.0392,74.6615 C38.4932,78.6525 42.4472,81.4905 47.0142,82.5395 C48.2982,82.8345 49.6092,82.9825 50.9262,82.9825 L56.0012,82.9825 L61.0752,82.9825 C62.3912,82.9825 63.7042,82.8345 64.9872,82.5395 C69.5542,81.4905 73.5082,78.6525 75.9622,74.6615 L77.1952,72.6555 C78.4692,70.5855 79.2962,68.2715 79.6252,65.8635 L82.8552,42.1955 C83.2922,38.9915 80.8022,36.1495 77.5762,36.1495" id="Fill-13" fill="#E6F0F9"></path>
                                <path d="M65.5792,65.9528 L46.4212,65.9528 C43.4812,65.9528 41.0992,63.5698 41.0992,60.6308 L41.0992,52.1158 C41.0992,49.1768 43.4812,46.7938 46.4212,46.7938 L65.5792,46.7938 C68.5182,46.7938 70.9012,49.1768 70.9012,52.1158 L70.9012,60.6308 C70.9012,63.5698 68.5182,65.9528 65.5792,65.9528" id="Fill-15" fill="#48B1BB"></path>
                                <path d="M75.1593,23.3771 L75.1593,36.1491 L36.8413,36.1491 L36.8413,23.3771 C36.8413,12.7971 45.4203,4.2181 56.0003,4.2181 C64.0253,4.2181 70.9013,9.1571 73.7433,16.1601 C74.6593,18.3851 75.1593,20.8221 75.1593,23.3771" id="Fill-17" fill="#E6F0F9"></path>
                                <path d="M62.3868,25.506 L49.6138,25.506 C47.2628,25.506 45.3568,23.6 45.3568,21.248 C45.3568,18.897 47.2628,16.991 49.6138,16.991 L62.3868,16.991 C64.7378,16.991 66.6438,18.897 66.6438,21.248 C66.6438,23.6 64.7378,25.506 62.3868,25.506" id="Fill-19" fill="#48B1BB"></path>
                                <path d="M70.6671,12.5841 C67.8571,10.9561 64.6011,10.0291 61.1311,10.0291 C50.5501,10.0291 41.9721,18.6081 41.9721,29.1881 L41.9721,34.8941 L36.8411,34.8941 L36.8411,23.3771 C36.8411,12.7971 45.4201,4.2181 56.0001,4.2181 C59.3741,4.2181 62.5461,5.0911 65.3031,6.6341 C67.4841,8.1991 69.3151,10.2311 70.6671,12.5841" id="Fill-21" fill="#B4D4EC"></path>
                                <path d="M41.3507,80.8434 C41.4247,81.4184 36.7427,77.5304 36.1677,73.3264 L34.1227,72.6014 L29.9717,42.1954 C29.5367,38.9914 32.0267,36.1494 35.2517,36.1494 L44.7357,36.1494 L44.1147,38.2784 L41.6877,38.2784 C38.4627,38.2784 35.9827,41.1204 36.4187,44.3134 L41.3507,80.8434 Z" id="Fill-23" fill="#B4D4EC"></path>
                                <path d="M82.8546,42.1954 L78.5436,73.7764 C77.8206,79.0554 69.3086,82.7374 63.9866,82.7374 L64.3446,82.9834 C64.4086,82.6314 64.4616,82.2804 64.5046,81.9294 C68.5386,80.8324 71.6576,77.4164 72.2526,73.0944 L77.3086,36.1494 L77.5756,36.1494 C80.7996,36.1494 83.2916,38.9914 82.8546,42.1954" id="Fill-25" fill="#FFFFFF"></path>
                                <path d="M73.0303,21.2482 L73.0303,36.1492 C72.7743,36.1072 72.5093,36.1492 72.2423,36.1492 L69.8263,36.1492 L69.8263,20.1412 C69.8263,16.6712 68.9003,13.4142 67.2713,10.6042 C68.8893,11.5302 70.3583,12.6902 71.6143,14.0322 C72.5303,16.2562 73.0303,18.6932 73.0303,21.2482" id="Fill-27" fill="#FFFFFF"></path>
                                <path d="M75.1593,23.3771 L75.1593,36.1491 L36.8413,36.1491 L36.8413,23.3771 C36.8413,12.7971 45.4203,4.2181 56.0003,4.2181 C64.0253,4.2181 70.9013,9.1571 73.7433,16.1601 C74.6593,18.3851 75.1593,20.8221 75.1593,23.3771 Z" id="Stroke-29" stroke="#17317B" stroke-width="3" stroke-linecap="round" stroke-linejoin="round"></path>
                                <path d="M65.5792,65.9528 L46.4212,65.9528 C43.4812,65.9528 41.0992,63.5698 41.0992,60.6308 L41.0992,52.1158 C41.0992,49.1768 43.4812,46.7938 46.4212,46.7938 L65.5792,46.7938 C68.5182,46.7938 70.9012,49.1768 70.9012,52.1158 L70.9012,60.6308 C70.9012,63.5698 68.5182,65.9528 65.5792,65.9528 Z" id="Stroke-31" stroke="#17317B" stroke-width="3" stroke-linecap="round" stroke-linejoin="round"></path>
                                <path d="M77.5762,36.1495 L56.0012,36.1495 L34.4252,36.1495 C31.1992,36.1495 28.7092,38.9915 29.1452,42.1955 L32.3762,65.8635 C32.7052,68.2715 33.5322,70.5855 34.8052,72.6555 L36.0392,74.6615 C38.4932,78.6525 42.4472,81.4905 47.0142,82.5395 C48.2982,82.8345 49.6092,82.9825 50.9262,82.9825 L56.0012,82.9825 L61.0752,82.9825 C62.3912,82.9825 63.7042,82.8345 64.9872,82.5395 C69.5542,81.4905 73.5082,78.6525 75.9622,74.6615 L77.1952,72.6555 C78.4692,70.5855 79.2962,68.2715 79.6252,65.8635 L82.8552,42.1955 C83.2922,38.9915 80.8022,36.1495 77.5762,36.1495 Z" id="Stroke-33" stroke="#17317B" stroke-width="3" stroke-linecap="round" stroke-linejoin="round"></path>
                                <path d="M34.8409,0.0001 L43.5759,8.7361" id="Stroke-35" stroke="#17317B" stroke-width="3" stroke-linecap="round" stroke-linejoin="round"></path>
                                <path d="M77.088,0.0001 L68.352,8.7361" id="Stroke-37" stroke="#17317B" stroke-width="3" stroke-linecap="round" stroke-linejoin="round"></path>
                                <polyline id="Stroke-39" stroke="#17317B" stroke-width="3" stroke-linecap="round" stroke-linejoin="round" points="47.3516 59.566 53.8556 53.062 60.3776 59.584 64.6786 55.283"></polyline>
                                <path d="M26.2286,79.0348 C26.2286,74.1608 22.2786,70.2098 17.4046,70.2098 C12.5306,70.2098 8.5806,74.1608 8.5806,79.0348" id="Stroke-41" stroke="#17317B" stroke-width="3" stroke-linecap="round" stroke-linejoin="round"></path>
                                <path d="M30.1768,38.2784 C20.6868,38.2784 12.9928,45.9714 12.9928,55.4624" id="Stroke-43" stroke="#17317B" stroke-width="3" stroke-linejoin="round"></path>
                                <path d="M21.585,55.462 C21.585,50.717 25.432,46.87 30.177,46.87" id="Stroke-45" stroke="#17317B" stroke-width="3" stroke-linejoin="round"></path>
                                <path d="M21,55.462 L21,71.257" id="Stroke-47" stroke="#17317B" stroke-width="3" stroke-linejoin="round"></path>
                                <path d="M12,55.462 L12,71.257" id="Stroke-49" stroke="#17317B" stroke-width="3" stroke-linejoin="round"></path>
                                <path d="M20.1973,41.6876 L25.2653,48.4126" id="Stroke-51" stroke="#17317B" stroke-width="3" stroke-linejoin="round"></path>
                                <path d="M22.3175,51.9869 L14.5475,48.3109" id="Stroke-53" stroke="#17317B" stroke-width="3" stroke-linejoin="round"></path>
                                <path d="M12.9932,56 L21.5792,56" id="Stroke-55" stroke="#17317B" stroke-width="3" stroke-linejoin="round"></path>
                                <path d="M12.9932,63 L21.5792,63" id="Stroke-57" stroke="#17317B" stroke-width="3" stroke-linejoin="round"></path>
                                <path d="M85.8341,79.0348 C85.8341,74.1608 89.7851,70.2098 94.6581,70.2098 C99.5321,70.2098 103.4831,74.1608 103.4831,79.0348" id="Stroke-59" stroke="#17317B" stroke-width="3" stroke-linecap="round" stroke-linejoin="round"></path>
                                <path d="M81.8858,38.2784 C91.3758,38.2784 99.0698,45.9714 99.0698,55.4624" id="Stroke-61" stroke="#17317B" stroke-width="3" stroke-linejoin="round"></path>
                                <path d="M90.4776,55.462 C90.4776,50.717 86.6306,46.87 81.8856,46.87" id="Stroke-63" stroke="#17317B" stroke-width="3" stroke-linejoin="round"></path>
                                <path d="M90,55.462 L90,71.257" id="Stroke-65" stroke="#17317B" stroke-width="3" stroke-linejoin="round"></path>
                                <path d="M99,55.462 L99,71.257" id="Stroke-67" stroke="#17317B" stroke-width="3" stroke-linejoin="round"></path>
                                <path d="M91.8663,41.6876 L86.7983,48.4126" id="Stroke-69" stroke="#17317B" stroke-width="3" stroke-linejoin="round"></path>
                                <path d="M89.7462,51.9869 L97.5162,48.3109" id="Stroke-71" stroke="#17317B" stroke-width="3" stroke-linejoin="round"></path>
                                <path d="M99.0694,56 L90.4844,56" id="Stroke-73" stroke="#17317B" stroke-width="3" stroke-linejoin="round"></path>
                                <path d="M99.0694,63 L90.4844,63" id="Stroke-75" stroke="#17317B" stroke-width="3" stroke-linejoin="round"></path>
                                <path d="M62.3868,25.506 L49.6138,25.506 C47.2628,25.506 45.3568,23.6 45.3568,21.248 C45.3568,18.897 47.2628,16.991 49.6138,16.991 L62.3868,16.991 C64.7378,16.991 66.6438,18.897 66.6438,21.248 C66.6438,23.6 64.7378,25.506 62.3868,25.506 Z" id="Stroke-77" stroke="#17317B" stroke-width="3" stroke-linecap="round" stroke-linejoin="round"></path>
                                <path d="M100.0001,7.5196 C98.8961,7.5196 98.0001,8.4156 98.0001,9.5196 C98.0001,10.6246 98.8961,11.5196 100.0001,11.5196 C101.1041,11.5196 102.0001,10.6246 102.0001,9.5196 C102.0001,8.4156 101.1041,7.5196 100.0001,7.5196" id="Fill-79" fill="#47E3FF"></path>
                                <g id="Group-83" transform="translate(104.000000, 41.520000)">
                                    <mask id="mask-2" fill="white">
                                        <use xlink:href="#path-1"></use>
                                    </mask>
                                    <g id="Clip-82"></g>
                                    <path d="M2.0001,0.0001 C0.8961,0.0001 0.0001,0.8961 0.0001,2.0001 C0.0001,3.1041 0.8961,4.0001 2.0001,4.0001 C3.1041,4.0001 4.0001,3.1041 4.0001,2.0001 C4.0001,0.8961 3.1041,0.0001 2.0001,0.0001" id="Fill-81" fill="#47E3FF" mask="url(#mask-2)"></path>
                                </g>
                                <path d="M2.0001,45.5196 C0.8961,45.5196 0.0001,46.4156 0.0001,47.5196 C0.0001,48.6246 0.8961,49.5196 2.0001,49.5196 C3.1041,49.5196 4.0001,48.6246 4.0001,47.5196 C4.0001,46.4156 3.1041,45.5196 2.0001,45.5196" id="Fill-84" fill="#47E3FF"></path>
                                <path d="M10.0001,1.5201 C8.8961,1.5201 8.0001,2.4161 8.0001,3.5201 C8.0001,4.6241 8.8961,5.5201 10.0001,5.5201 C11.1041,5.5201 12.0001,4.6241 12.0001,3.5201 C12.0001,2.4161 11.1041,1.5201 10.0001,1.5201" id="Fill-86" fill="#47E3FF"></path>
                                <g id="Group-90" transform="translate(34.000000, 95.520000)">
                                    <mask id="mask-4" fill="white">
                                        <use xlink:href="#path-3"></use>
                                    </mask>
                                    <g id="Clip-89"></g>
                                    <path d="M2.0001,0.0002 C0.8961,0.0002 0.0001,0.8962 0.0001,2.0002 C0.0001,3.1042 0.8961,4.0002 2.0001,4.0002 C3.1041,4.0002 4.0001,3.1042 4.0001,2.0002 C4.0001,0.8962 3.1041,0.0002 2.0001,0.0002" id="Fill-88" fill="#47E3FF" mask="url(#mask-4)"></path>
                                </g>
                                <path d="M89.0001,18.5201 C88.5681,18.5201 88.1881,18.7941 88.0521,19.2041 L87.4591,20.9791 L85.6841,21.5711 C85.2741,21.7081 85.0001,22.0881 85.0001,22.5201 C85.0001,22.9521 85.2741,23.3321 85.6841,23.4691 L87.4601,24.0611 L88.0521,25.8361 C88.1881,26.2461 88.5681,26.5201 89.0001,26.5201 C89.4321,26.5201 89.8121,26.2461 89.9491,25.8361 L90.5401,24.0611 L92.3151,23.4691 C92.7261,23.3321 93.0001,22.9521 93.0001,22.5201 C93.0001,22.0881 92.7261,21.7081 92.3151,21.5711 L90.5401,20.9791 L89.9491,19.2041 C89.8121,18.7941 89.4321,18.5201 89.0001,18.5201" id="Fill-91" fill="#9AE0E6"></path>
                                <path d="M20.0001,14.5201 C19.5681,14.5201 19.1881,14.7941 19.0511,15.2041 L18.2101,17.7291 L15.6841,18.5711 C15.2731,18.7081 15.0001,19.0881 15.0001,19.5201 C15.0001,19.9521 15.2731,20.3321 15.6841,20.4681 L18.2091,21.3101 L19.0511,23.8361 C19.1881,24.2461 19.5681,24.5201 20.0001,24.5201 C20.4321,24.5201 20.8121,24.2461 20.9481,23.8361 L21.7901,21.3111 L24.3161,20.4681 C24.7261,20.3321 25.0001,19.9521 25.0001,19.5201 C25.0001,19.0881 24.7261,18.7081 24.3161,18.5711 L21.7901,17.7291 L20.9481,15.2041 C20.8121,14.7941 20.4321,14.5201 20.0001,14.5201" id="Fill-93" fill="#9AE0E6"></path>
                                <path d="M17.0001,86.5201 C16.5681,86.5201 16.1881,86.7941 16.0521,87.2041 L15.4591,88.9791 L13.6841,89.5711 C13.2731,89.7081 13.0001,90.0881 13.0001,90.5201 C13.0001,90.9521 13.2731,91.3321 13.6841,91.4681 L15.4591,92.0611 L16.0521,93.8361 C16.1881,94.2461 16.5681,94.5201 17.0001,94.5201 C17.4321,94.5201 17.8121,94.2461 17.9481,93.8361 L18.5411,92.0611 L20.3161,91.4681 C20.7261,91.3321 21.0001,90.9521 21.0001,90.5201 C21.0001,90.0881 20.7261,89.7081 20.3161,89.5711 L18.5411,88.9791 L17.9481,87.2041 C17.8121,86.7941 17.4321,86.5201 17.0001,86.5201" id="Fill-95" fill="#9AE0E6"></path>
                                <path d="M92.0001,82.5201 C91.5671,82.5201 91.1881,82.7931 91.0511,83.2041 L90.2101,85.7291 L87.6841,86.5711 C87.2741,86.7071 87.0001,87.0881 87.0001,87.5201 C87.0001,87.9521 87.2741,88.3321 87.6841,88.4691 L90.2091,89.3111 L91.0511,91.8361 C91.1881,92.2461 91.5671,92.5201 92.0001,92.5201 C92.4321,92.5201 92.8121,92.2461 92.9481,91.8361 L93.7901,89.3111 L96.3161,88.4691 C96.7261,88.3321 97.0001,87.9521 97.0001,87.5201 C97.0001,87.0881 96.7261,86.7071 96.3161,86.5711 L93.7901,85.7291 L92.9481,83.2041 C92.8121,82.7931 92.4321,82.5201 92.0001,82.5201" id="Fill-97" fill="#9AE0E6"></path>
                            </g>
                        </g>
                    </g>
                </g>
            </g>
        </g>
    </g>
</svg>