<?xml version="1.0" encoding="UTF-8"?>
<svg width="120px" height="120px" viewBox="0 0 120 120" version="1.1" xmlns="http://www.w3.org/2000/svg" xmlns:xlink="http://www.w3.org/1999/xlink">
    <!-- Generator: Sketch 44.1 (41455) - http://www.bohemiancoding.com/sketch -->
    <title>hireing-culture-06</title>
    <desc>Created with Sketch.</desc>
    <defs>
        <polygon id="path-1" points="3.9997 4 -0.0003 4 -0.0003 0.0001 3.9997 0.0001"></polygon>
    </defs>
    <g id="Page" stroke="none" stroke-width="1" fill="none" fill-rule="evenodd">
        <g id="hireing" transform="translate(-1071.000000, -1384.000000)">
            <g id="block" transform="translate(0.000000, 860.000000)">
                <rect id="bg" fill="#FFFFFF" x="0" y="0" width="1440" height="848"></rect>
                <g id="r2" transform="translate(955.000000, 524.000000)">
                    <g id="1">
                        <g id="Earth" transform="translate(116.000000, 0.000000)">
                            <g id="hireing-culture-06" transform="translate(4.000000, 9.000000)">
                                <path d="M84.0217,52.0001 C84.0217,66.3711 72.3717,78.0211 57.9997,78.0211 C43.6277,78.0211 31.9777,66.3711 31.9777,52.0001 C31.9777,37.6281 43.6277,25.9781 57.9997,25.9781 C72.3717,25.9781 84.0217,37.6281 84.0217,52.0001 Z" id="Stroke-1" stroke="#17317B" stroke-width="3"></path>
                                <path d="M100.0266,52.0001 C100.0266,75.2111 81.2106,94.0261 57.9996,94.0261 C34.7896,94.0261 15.9726,75.2111 15.9726,52.0001 C15.9726,28.7891 34.7896,9.9731 57.9996,9.9731 C81.2106,9.9731 100.0266,28.7891 100.0266,52.0001 Z" id="Stroke-3" stroke="#17317B" stroke-width="3"></path>
                                <path d="M65.071,44.9288 C68.976,48.8338 68.976,55.1658 65.071,59.0718 C61.166,62.9758 54.834,62.9758 50.928,59.0718 C47.024,55.1658 47.024,48.8338 50.928,44.9288 C54.834,41.0238 61.166,41.0238 65.071,44.9288" id="Fill-5" fill="#F9D79E"></path>
                                <path d="M42.4343,30.7774 C43.9963,32.3394 43.9963,34.8724 42.4343,36.4344 C40.8723,37.9964 38.3393,37.9964 36.7773,36.4344 C35.2153,34.8724 35.2153,32.3394 36.7773,30.7774 C38.3393,29.2154 40.8723,29.2154 42.4343,30.7774" id="Fill-7" fill="#79C8D0"></path>
                                <path d="M38.3264,35.0294 C38.3264,33.5364 39.5364,32.3264 41.0294,32.3264 C42.1894,32.3264 43.1714,33.0624 43.5544,34.0904 C43.5734,33.9294 43.6024,33.7714 43.6024,33.6064 C43.6024,31.3984 41.8134,29.6094 39.6064,29.6094 C37.3984,29.6094 35.6094,31.3984 35.6094,33.6064 C35.6094,35.8134 37.3984,37.6024 39.6064,37.6024 C39.7714,37.6024 39.9294,37.5734 40.0904,37.5534 C39.0624,37.1724 38.3264,36.1894 38.3264,35.0294" id="Fill-9" fill="#48B1BB"></path>
                                <path d="M104.2419,47.7579 C106.5849,50.0999 106.5849,53.8999 104.2419,56.2419 C101.8989,58.5859 98.0999,58.5859 95.7569,56.2419 C93.4139,53.8999 93.4139,50.0999 95.7569,47.7579 C98.0999,45.4139 101.8989,45.4139 104.2419,47.7579" id="Fill-11" fill="#79C8D0"></path>
                                <path d="M98.0803,54.1339 C98.0803,51.8959 99.8953,50.0799 102.1343,50.0799 C103.8753,50.0799 105.3483,51.1839 105.9213,52.7259 C105.9513,52.4859 105.9953,52.2479 105.9953,51.9999 C105.9953,48.6889 103.3103,46.0049 99.9993,46.0049 C96.6883,46.0049 94.0043,48.6889 94.0043,51.9999 C94.0043,55.3109 96.6883,57.9949 99.9993,57.9949 C100.2483,57.9949 100.4843,57.9509 100.7253,57.9219 C99.1843,57.3479 98.0803,55.8759 98.0803,54.1339" id="Fill-13" fill="#48B1BB"></path>
                                <path d="M55.9568,49.9571 C59.1198,46.7941 64.0548,46.5011 67.5588,49.0581 C66.3018,44.9711 62.4988,42.0001 57.9998,42.0001 C52.4768,42.0001 47.9998,46.4771 47.9998,52.0001 C47.9998,56.4981 50.9708,60.3021 55.0578,61.5591 C52.5008,58.0551 52.7938,53.1201 55.9568,49.9571" id="Fill-15" fill="#F8C781"></path>
                                <path d="M43.6028,33.6065 C43.6028,35.8135 41.8128,37.6025 39.6058,37.6025 C37.3988,37.6025 35.6088,35.8135 35.6088,33.6065 C35.6088,31.3985 37.3988,29.6095 39.6058,29.6095 C41.8128,29.6095 43.6028,31.3985 43.6028,33.6065 Z" id="Stroke-17" stroke="#17317B" stroke-width="3"></path>
                                <path d="M105.9948,52.0001 C105.9948,55.3111 103.3108,57.9951 99.9998,57.9951 C96.6888,57.9951 94.0038,55.3111 94.0038,52.0001 C94.0038,48.6881 96.6888,46.0051 99.9998,46.0051 C103.3108,46.0051 105.9948,48.6881 105.9948,52.0001 Z" id="Stroke-19" stroke="#17317B" stroke-width="3"></path>
                                <path d="M67.9997,52.0001 C67.9997,57.5221 63.5227,62.0001 57.9997,62.0001 C52.4767,62.0001 47.9997,57.5221 47.9997,52.0001 C47.9997,46.4771 52.4767,42.0001 57.9997,42.0001 C63.5227,42.0001 67.9997,46.4771 67.9997,52.0001 Z" id="Stroke-21" stroke="#17317B" stroke-width="3"></path>
                                <path d="M107.9997,73.0001 C107.5677,73.0001 107.1877,73.2731 107.0517,73.6841 L106.2087,76.2091 L103.6837,77.0511 C103.2737,77.1871 102.9997,77.5671 102.9997,78.0001 C102.9997,78.4321 103.2737,78.8121 103.6837,78.9481 L106.2087,79.7901 L107.0517,82.3151 C107.1877,82.7261 107.5677,83.0001 107.9997,83.0001 C108.4317,83.0001 108.8117,82.7261 108.9487,82.3151 L109.7907,79.7901 L112.3157,78.9481 C112.7257,78.8121 112.9997,78.4321 112.9997,78.0001 C112.9997,77.5671 112.7257,77.1871 112.3157,77.0511 L109.7907,76.2091 L108.9487,73.6841 C108.8117,73.2731 108.4317,73.0001 107.9997,73.0001" id="Fill-23" fill="#9AE0E6"></path>
                                <path d="M14.9997,87.0001 C14.5677,87.0001 14.1877,87.2731 14.0507,87.6841 L13.4587,89.4591 L11.6837,90.0511 C11.2737,90.1881 10.9997,90.5671 10.9997,91.0001 C10.9997,91.4321 11.2737,91.8121 11.6837,91.9481 L13.4587,92.5401 L14.0507,94.3161 C14.1877,94.7261 14.5677,94.9991 14.9997,94.9991 C15.4317,94.9991 15.8117,94.7261 15.9487,94.3161 L16.5407,92.5411 L18.3157,91.9481 C18.7257,91.8121 18.9997,91.4321 18.9997,91.0001 C18.9997,90.5671 18.7257,90.1881 18.3157,90.0511 L16.5407,89.4591 L15.9487,87.6841 C15.8117,87.2731 15.4317,87.0001 14.9997,87.0001" id="Fill-25" fill="#9AE0E6"></path>
                                <path d="M90.9997,5.0001 C90.5677,5.0001 90.1877,5.2731 90.0507,5.6841 L89.4587,7.4591 L87.6837,8.0511 C87.2737,8.1881 86.9997,8.5671 86.9997,9.0001 C86.9997,9.4321 87.2737,9.8121 87.6837,9.9481 L89.4587,10.5401 L90.0507,12.3161 C90.1877,12.7261 90.5677,12.9991 90.9997,12.9991 C91.4317,12.9991 91.8117,12.7261 91.9487,12.3161 L92.5397,10.5401 L94.3157,9.9481 C94.7257,9.8121 94.9997,9.4321 94.9997,9.0001 C94.9997,8.5671 94.7257,8.1881 94.3157,8.0511 L92.5397,7.4591 L91.9487,5.6841 C91.8117,5.2731 91.4317,5.0001 90.9997,5.0001" id="Fill-27" fill="#9AE0E6"></path>
                                <path d="M11.9997,15.0001 C11.5677,15.0001 11.1877,15.2731 11.0507,15.6841 L10.2087,18.2091 L7.6837,19.0511 C7.2737,19.1871 6.9997,19.5681 6.9997,20.0001 C6.9997,20.4321 7.2737,20.8121 7.6837,20.9481 L10.2087,21.7901 L11.0507,24.3161 C11.1877,24.7261 11.5677,25.0001 11.9997,25.0001 C12.4317,25.0001 12.8117,24.7261 12.9487,24.3161 L13.7907,21.7901 L16.3157,20.9481 C16.7257,20.8121 16.9997,20.4321 16.9997,20.0001 C16.9997,19.5681 16.7257,19.1871 16.3157,19.0511 L13.7907,18.2091 L12.9487,15.6841 C12.8117,15.2731 12.4317,15.0001 11.9997,15.0001" id="Fill-29" fill="#9AE0E6"></path>
                                <path d="M2.0002,52.0001 C0.8992,52.0001 0.0002,52.9001 0.0002,54.0001 C0.0002,55.1001 0.8992,56.0001 2.0002,56.0001 C3.1002,56.0001 4.0002,55.1001 4.0002,54.0001 C4.0002,52.9001 3.1002,52.0001 2.0002,52.0001" id="Fill-31" fill="#47E3FF"></path>
                                <path d="M35.9997,0.0001 C34.8997,0.0001 33.9997,0.8991 33.9997,2.0001 C33.9997,3.1001 34.8997,4.0001 35.9997,4.0001 C37.0997,4.0001 37.9997,3.1001 37.9997,2.0001 C37.9997,0.8991 37.0997,0.0001 35.9997,0.0001" id="Fill-33" fill="#47E3FF"></path>
                                <path d="M107.9997,30.0001 C106.8997,30.0001 105.9997,30.8991 105.9997,32.0001 C105.9997,33.1001 106.8997,34.0001 107.9997,34.0001 C109.0997,34.0001 109.9997,33.1001 109.9997,32.0001 C109.9997,30.8991 109.0997,30.0001 107.9997,30.0001" id="Fill-35" fill="#47E3FF"></path>
                                <path d="M89.9997,98.0001 C88.8997,98.0001 87.9997,98.9001 87.9997,100.0001 C87.9997,101.1001 88.8997,102.0001 89.9997,102.0001 C91.0997,102.0001 91.9997,101.1001 91.9997,100.0001 C91.9997,98.9001 91.0997,98.0001 89.9997,98.0001" id="Fill-37" fill="#47E3FF"></path>
                                <g id="Group-41" transform="translate(50.000000, 106.000000)">
                                    <mask id="mask-2" fill="white">
                                        <use xlink:href="#path-1"></use>
                                    </mask>
                                    <g id="Clip-40"></g>
                                    <path d="M1.9997,0.0001 C0.8997,0.0001 -0.0003,0.8991 -0.0003,2.0001 C-0.0003,3.1001 0.8997,4.0001 1.9997,4.0001 C3.0997,4.0001 3.9997,3.1001 3.9997,2.0001 C3.9997,0.8991 3.0997,0.0001 1.9997,0.0001" id="Fill-39" fill="#47E3FF" mask="url(#mask-2)"></path>
                                </g>
                            </g>
                        </g>
                    </g>
                </g>
            </g>
        </g>
    </g>
</svg>