<?xml version="1.0" encoding="UTF-8"?>
<svg width="120px" height="120px" viewBox="0 0 120 120" version="1.1" xmlns="http://www.w3.org/2000/svg" xmlns:xlink="http://www.w3.org/1999/xlink">
    <!-- Generator: Sketch 44.1 (41455) - http://www.bohemiancoding.com/sketch -->
    <title>hireing-culture-04</title>
    <desc>Created with Sketch.</desc>
    <defs></defs>
    <g id="Page" stroke="none" stroke-width="1" fill="none" fill-rule="evenodd">
        <g id="hireing" transform="translate(-251.000000, -1388.000000)">
            <g id="block" transform="translate(0.000000, 860.000000)">
                <rect id="bg" fill="#FFFFFF" x="0" y="0" width="1440" height="848"></rect>
                <g id="r2" transform="translate(135.000000, 528.000000)">
                    <g id="1">
                        <g id="hireing-culture-04" transform="translate(120.000000, 5.000000)">
                            <g id="Earth">
                                <g id="Group-22">
                                    <g id="Page-1">
                                        <g id="Group-104">
                                            <path d="M18.3955,93.9346 C18.0695,93.6066 17.8185,93.2066 17.6295,92.6556 C17.4415,92.1076 17.3295,91.4076 17.3295,90.5606 C17.3225,88.6176 17.9405,85.9336 19.2065,82.8086 C21.0965,78.1126 24.3985,72.4156 28.8365,66.3136 C33.2725,60.2086 38.8425,53.6876 45.2655,47.2656 C53.8275,38.7016 62.5695,31.6546 70.2585,26.7876 C74.1005,24.3546 77.6795,22.4666 80.8085,21.2066 C83.9335,19.9406 86.6175,19.3226 88.5605,19.3296 C89.4085,19.3296 90.1085,19.4416 90.6565,19.6286 C91.2065,19.8186 91.6065,20.0696 91.9345,20.3946 C92.7155,21.1766 93.9815,21.1766 94.7635,20.3956 C95.5435,19.6146 95.5435,18.3486 94.7635,17.5666 C93.9725,16.7736 92.9985,16.1996 91.9455,15.8426 C90.8895,15.4836 89.7545,15.3306 88.5605,15.3296 C85.8245,15.3366 82.7435,16.1196 79.3135,17.4966 C74.1765,19.5696 68.2615,23.0256 61.9625,27.6006 C55.6665,32.1766 48.9995,37.8746 42.4365,44.4366 C33.6875,53.1886 26.4735,62.1206 21.4085,70.1186 C18.8755,74.1196 16.8785,77.8866 15.4965,81.3126 C14.1195,84.7436 13.3365,87.8236 13.3295,90.5606 C13.3305,91.7546 13.4835,92.8896 13.8425,93.9456 C14.1995,94.9986 14.7745,95.9726 15.5675,96.7626 C16.3475,97.5436 17.6145,97.5436 18.3955,96.7626 C19.1765,95.9816 19.1765,94.7156 18.3955,93.9346" id="Fill-2" fill="#2D3666"></path>
                                            <path d="M55.165,21.3302 C74.956,21.3302 91,37.3742 91,57.1652 C91,76.9562 74.956,93.0002 55.165,93.0002 C35.374,93.0002 19.33,76.9562 19.33,57.1652 C19.33,37.3742 35.374,21.3302 55.165,21.3302" id="Fill-4" fill="#49ADFF"></path>
                                            <path d="M56.0217,22.192 C44.0497,22.192 33.4387,28.066 26.9417,37.092 C28.7347,37.284 31.7677,37.877 33.1057,39.71 C33.4417,39.968 33.7377,40.261 33.9787,40.596 C34.6927,41.14 35.2417,41.838 35.4427,42.753 C35.5297,43.139 35.6267,43.491 35.7357,43.813 C35.7367,43.811 35.7387,43.809 35.7397,43.807 C35.8947,44.267 36.0697,44.672 36.2697,45.019 C36.2927,45.032 36.3167,45.045 36.3397,45.057 C42.2087,37.391 51.0927,32.169 61.2207,31.161 C60.5457,29.835 60.1797,28.353 60.2197,26.86 C60.2497,25.45 60.6097,23.99 60.1407,22.66 L60.1717,22.428 C58.8077,22.271 57.4217,22.192 56.0217,22.192" id="Fill-6" fill="#4DA1FF"></path>
                                            <path d="M90.9994,56.9856 L90.9994,57.0206 L90.9994,56.9856 M90.9994,57.0726 L90.9994,57.1516 L90.9994,57.0726 M90.9994,57.1676 C90.9984,73.2596 80.3904,86.8746 65.7854,91.3996 C80.3954,86.8756 90.9994,73.2626 90.9994,57.1706 L90.9994,57.1676 M28.4194,81.0206 L28.4204,81.0206 C28.4194,81.0196 28.4204,81.0206 28.4194,81.0206 M43.2614,90.9756 C46.9814,92.2916 50.9904,92.9996 55.1604,92.9996 L55.1624,92.9996 C50.9904,92.9996 46.9844,92.2866 43.2614,90.9756" id="Fill-8" fill="#9AE0E6"></path>
                                            <path d="M81.1716,36.0872 C83.4206,40.7712 84.6796,46.0222 84.6796,51.5702 C84.6796,71.3702 68.6406,87.4102 48.8396,87.4102 C45.2836,87.4102 41.8476,86.8922 38.6046,85.9262 C39.6996,87.6302 41.1326,89.2802 42.9396,90.8602 C43.0466,90.8992 43.1536,90.9372 43.2606,90.9752 C46.9846,92.2862 50.9906,92.9992 55.1626,93.0002 C58.8606,92.9992 62.4296,92.4392 65.7856,91.4002 C80.3906,86.8742 90.9986,73.2592 90.9996,57.1672 L90.9996,57.1522 L90.9996,57.0722 L90.9996,57.0202 L90.9996,56.9852 C90.9646,50.0952 88.9796,43.6612 85.5806,38.2102 C85.2616,37.7762 84.9326,37.3502 84.5946,36.9322 C84.5716,36.9182 84.5496,36.9042 84.5276,36.8902 C83.3666,36.4892 82.2506,36.2362 81.1716,36.0872" id="Fill-10" fill="#47E3FF"></path>
                                            <path d="M21.7422,99.0127 C19.1312,99.0127 17.0662,98.2627 15.5672,96.7627 C14.7862,95.9817 14.7862,94.7147 15.5672,93.9347 C16.3482,93.1537 17.6142,93.1537 18.3952,93.9347 C20.0132,95.5517 23.9232,95.3127 29.1242,93.2827 C30.1522,92.8777 31.3112,93.3887 31.7152,94.4167 C32.1162,95.4457 31.6082,96.6057 30.5792,97.0067 C27.1582,98.3447 24.2072,99.0127 21.7422,99.0127" id="Fill-12" fill="#2D3666"></path>
                                            <path d="M80.3096,54.9102 C79.8786,54.9102 79.4466,54.7722 79.0806,54.4872 C78.2096,53.8072 78.0536,52.5512 78.7336,51.6802 C91.5326,35.2712 95.0636,23.5212 91.9356,20.3942 C91.1546,19.6142 91.1546,18.3472 91.9356,17.5662 C92.7146,16.7852 93.9826,16.7852 94.7636,17.5662 C100.2706,23.0702 95.4566,36.7432 81.8876,54.1402 C81.4936,54.6452 80.9046,54.9102 80.3096,54.9102" id="Fill-14" fill="#2D3666"></path>
                                            <path d="M59.124,78.4473 C58.257,78.4473 57.458,77.8783 57.204,77.0033 C56.896,75.9423 57.507,74.8333 58.568,74.5253 L76.69,69.2723 C77.746,68.9683 78.86,69.5753 79.168,70.6363 C79.476,71.6973 78.865,72.8063 77.804,73.1143 L59.682,78.3673 C59.496,78.4213 59.309,78.4473 59.124,78.4473" id="Fill-16" fill="#2D3666"></path>
                                            <path d="M59.127,78.4463 C59.014,78.4463 58.899,78.4363 58.784,78.4173 C57.695,78.2283 56.966,77.1933 57.154,76.1053 L60.373,57.5133 C60.563,56.4253 61.598,55.6993 62.685,55.8843 C63.773,56.0723 64.503,57.1073 64.314,58.1953 L61.096,76.7873 C60.927,77.7603 60.082,78.4463 59.127,78.4463" id="Fill-18" fill="#2D3666"></path>
                                            <path d="M63.125,73.9756 C62.65,73.9756 62.174,73.8076 61.792,73.4656 C60.969,72.7296 60.899,71.4646 61.636,70.6416 L72.307,58.7186 C73.042,57.8966 74.307,57.8246 75.131,58.5626 C75.954,59.2986 76.023,60.5636 75.287,61.3866 L64.616,73.3096 C64.222,73.7506 63.675,73.9756 63.125,73.9756" id="Fill-20" fill="#2D3666"></path>
                                            <path d="M65.7528,81.0364 C62.8058,84.3284 57.7488,84.6084 54.4568,81.6624 C51.1638,78.7154 50.8838,73.6584 53.8308,70.3654 C56.7768,67.0734 61.8348,66.7934 65.1268,69.7404 C68.4188,72.6864 68.6998,77.7444 65.7528,81.0364" id="Fill-22" fill="#E8F3FF"></path>
                                            <path d="M60.2699,21.6901 C70.4399,23.1401 79.2399,28.8601 84.7799,36.9801 C80.8819,35.5671 77.4889,35.8501 74.3329,36.1331 C71.3909,36.3961 68.6549,36.6601 65.9099,35.5501 C62.4999,34.1701 60.1199,30.5501 60.2199,26.8601 C60.2499,25.4501 60.6099,23.9901 60.1399,22.6601 L60.2699,21.6901" id="Fill-24" fill="#FFDCA1"></path>
                                            <path d="M80.9954,32.3226 C82.3824,33.7646 83.6484,35.3216 84.7794,36.9796 C84.7794,36.9796 84.7784,36.9786 84.7774,36.9786 C84.8084,37.0236 84.8384,37.0676 84.8684,37.1116 C84.9274,37.1516 84.9854,37.1926 85.0424,37.2326 C85.3124,37.4226 85.5824,37.6126 85.8534,37.8026 L85.7324,37.6126 C85.6324,37.4926 85.5424,37.3626 85.4524,37.2426 C85.1124,36.7926 84.7634,36.3426 84.3924,35.9126 L84.2324,35.7226 C83.8734,35.2926 83.4924,34.8626 83.1024,34.4526 L83.0224,34.3726 C82.6434,33.9526 82.2424,33.5526 81.8334,33.1626 L81.7134,33.0526 L81.6834,33.0256 C81.4554,32.7906 81.2314,32.5506 80.9954,32.3226" id="Fill-26" fill="#FFE5B9"></path>
                                            <path d="M84.5734,36.9062 C84.5804,36.9152 84.5874,36.9232 84.5944,36.9322 C84.6854,36.9902 84.7774,37.0502 84.8684,37.1122 C84.8384,37.0672 84.8084,37.0232 84.7774,36.9792 C84.7094,36.9542 84.6414,36.9302 84.5734,36.9062" id="Fill-28" fill="#78BFA0"></path>
                                            <path d="M84.5273,36.8903 C84.5493,36.9043 84.5723,36.9183 84.5943,36.9323 C84.5873,36.9233 84.5803,36.9153 84.5733,36.9063 C84.5583,36.9013 84.5423,36.8953 84.5273,36.8903" id="Fill-30" fill="#A8D6B0"></path>
                                            <path d="M61.1323,22.552 L61.0023,23.522 C61.4723,24.852 61.1123,26.312 61.0823,27.722 C61.0623,28.552 61.1623,29.382 61.3823,30.182 C61.6163,30.166 61.8563,30.169 62.0923,30.157 C62.1413,30.464 62.1903,30.772 62.2723,31.072 C63.1123,31.012 63.9633,30.983 64.8133,30.983 C66.5423,30.983 68.2523,31.103 69.9223,31.343 L70.1723,31.383 C70.4033,31.412 70.6423,31.452 70.8723,31.492 C71.9223,31.672 72.9523,31.893 73.9723,32.162 C74.4833,32.302 74.9923,32.442 75.4933,32.603 C75.7933,32.693 76.0833,32.792 76.3833,32.892 C77.1823,33.163 77.9823,33.463 78.7623,33.793 C79.1723,33.973 79.5823,34.153 79.9823,34.342 C80.3523,34.513 80.7123,34.682 81.0723,34.873 C81.4923,35.083 81.9133,35.312 82.3233,35.543 C82.4823,35.623 82.6323,35.712 82.7833,35.803 C83.0723,35.973 83.3523,36.133 83.6223,36.313 C83.9023,36.473 84.1623,36.643 84.4323,36.833 C84.4643,36.851 84.4953,36.871 84.5273,36.89 C84.5423,36.896 84.5583,36.901 84.5733,36.906 C84.6413,36.93 84.7093,36.954 84.7773,36.979 C84.7783,36.979 84.7793,36.979 84.7793,36.98 C83.6483,35.322 82.3823,33.764 80.9953,32.323 C80.9773,32.306 80.9603,32.289 80.9423,32.272 L80.8213,32.162 C80.4423,31.792 80.0513,31.432 79.6623,31.092 L79.4123,30.872 C79.0413,30.552 78.6623,30.242 78.2823,29.932 C77.7223,29.492 77.1523,29.062 76.5523,28.642 C76.1323,28.352 75.6923,28.062 75.2523,27.772 C73.5913,26.722 71.8423,25.792 70.0123,25.022 C69.7923,24.932 69.5723,24.842 69.3513,24.752 C68.0923,24.242 66.8123,23.812 65.4923,23.462 C65.2223,23.382 64.9423,23.312 64.6623,23.242 C64.4223,23.182 64.1923,23.122 63.9523,23.072 C63.6723,23.012 63.3823,22.942 63.0913,22.882 L62.9523,22.862 C62.6623,22.802 62.3723,22.752 62.0813,22.702 C61.7923,22.652 61.4923,22.602 61.2023,22.562 L61.1323,22.552" id="Fill-32" fill="#FFC675"></path>
                                            <path d="M42.8798,47.17 C46.1098,48.82 47.5398,52.58 41.3298,61.42 C34.3598,71.34 32.9998,82.17 42.9398,90.86 C29.1698,85.87 19.3298,72.67 19.3298,57.17 C19.3298,49.69 21.6198,42.74 25.5398,37 C25.5398,37 32.8198,37.03 33.6898,41 C34.9398,46.69 38.7498,45.06 42.8798,47.17" id="Fill-34" fill="#FFDCA1"></path>
                                            <path d="M33.4149,40.2175 C33.5349,40.4595 33.6289,40.7195 33.6899,40.9995 C34.1889,43.2725 35.0959,44.3775 36.2689,45.0185 C36.0689,44.6725 35.8909,44.2745 35.7359,43.8125 C35.6319,43.9435 35.5229,44.0695 35.4219,44.2015 C35.0619,43.6015 34.7719,42.8415 34.5519,41.8625 C34.4479,41.3845 34.2459,40.9665 33.9789,40.5955 C33.8009,40.4595 33.6119,40.3345 33.4149,40.2175" id="Fill-36" fill="#78BFA0"></path>
                                            <path d="M33.1057,39.7098 C33.2227,39.8698 33.3257,40.0388 33.4147,40.2178 C33.6117,40.3338 33.8007,40.4598 33.9787,40.5958 C34.2457,40.9668 34.4477,41.3838 34.5517,41.8618 C34.7717,42.8418 35.0627,43.6018 35.4217,44.2018 C35.5227,44.0698 35.6327,43.9438 35.7357,43.8128 C35.6267,43.4908 35.5297,43.1388 35.4427,42.7528 C35.2417,41.8378 34.6927,41.1398 33.9787,40.5958 C33.7377,40.2608 33.4417,39.9678 33.1057,39.7098" id="Fill-38" fill="#48A890"></path>
                                            <path d="M30.1992,82.8762 C30.2262,82.9052 30.2542,82.9332 30.2822,82.9622 C30.5142,83.1992 30.7602,83.4262 30.9992,83.6582 L31.1722,83.8532 C31.6332,84.3222 32.1022,84.7822 32.5922,85.2322 C33.6132,86.1822 34.6922,87.0632 35.8222,87.8932 L35.8332,87.8932 C35.5862,87.5572 35.3492,87.2222 35.1222,86.8782 C33.3642,85.6892 31.7162,84.3502 30.1992,82.8762" id="Fill-40" fill="#FFE5B9"></path>
                                            <path d="M26.4023,37.8621 L26.3123,37.9921 C26.1123,38.2921 25.9123,38.5921 25.7123,38.9021 C25.4723,39.2821 25.2423,39.6721 25.0113,40.0721 C24.7923,40.4421 24.5823,40.8321 24.3723,41.2121 C23.9623,41.9821 23.5823,42.7721 23.2223,43.5721 C23.0523,43.9821 22.8713,44.3821 22.7123,44.7921 C21.8723,46.9121 21.2323,49.1221 20.8023,51.4121 C20.7323,51.7821 20.6623,52.1521 20.6123,52.5321 C20.5423,52.9821 20.4823,53.4321 20.4323,53.8821 C20.3223,54.7821 20.2523,55.6921 20.2223,56.6121 L20.2223,56.6421 C20.2023,57.1021 20.1923,57.5621 20.1923,58.0221 L20.1923,58.0321 C20.1923,58.4321 20.2023,58.8421 20.2223,59.2421 C20.2223,59.5021 20.2323,59.7621 20.2523,60.0121 C20.2523,60.1321 20.2623,60.2621 20.2723,60.3821 C20.2923,60.6821 20.3123,60.9721 20.3423,61.2621 L20.3623,61.4921 C20.4023,61.9521 20.4523,62.4021 20.5223,62.8521 C20.5523,63.1421 20.5923,63.4321 20.6423,63.7221 C20.7123,64.1921 20.8023,64.6521 20.8923,65.1121 C20.9623,65.4921 21.0513,65.8721 21.1423,66.2521 C21.3423,67.1221 21.5823,67.9821 21.8523,68.8321 C21.9223,69.0621 21.9923,69.2821 22.0723,69.5021 C22.1223,69.6521 22.1723,69.8021 22.2323,69.9621 C22.3123,70.2121 22.4023,70.4621 22.5023,70.7121 C22.6323,71.0521 22.7623,71.3821 22.8923,71.7121 C23.0713,72.1321 23.2523,72.5521 23.4423,72.9621 C23.6123,73.3421 23.7923,73.7021 23.9723,74.0721 C24.3623,74.8521 24.7823,75.6121 25.2313,76.3621 C25.3523,76.5621 25.4723,76.7621 25.6023,76.9621 C25.7623,77.2321 25.9323,77.4921 26.1013,77.7621 C26.2923,78.0521 26.4923,78.3421 26.7023,78.6321 C27.0723,79.1521 27.4523,79.6721 27.8523,80.1821 C28.0623,80.4421 28.2613,80.7021 28.4823,80.9521 C29.0273,81.6121 29.5993,82.2531 30.1993,82.8761 C31.7163,84.3501 33.3633,85.6901 35.1223,86.8781 C35.1193,86.8731 35.1153,86.8681 35.1123,86.8631 L35.0323,86.7421 C34.5923,86.0931 34.1823,85.4321 33.7823,84.7531 C33.6733,84.5731 33.5733,84.3821 33.4733,84.1921 C33.2733,83.8531 33.0933,83.5031 32.9123,83.1621 C32.7223,82.7821 32.5323,82.4021 32.3633,82.0231 C31.9623,81.1721 31.5923,80.3131 31.2623,79.4231 C31.1223,79.0631 30.9923,78.7021 30.8723,78.3331 C30.7823,78.0821 30.7023,77.8331 30.6323,77.5831 C30.5223,77.2631 30.4233,76.9321 30.3323,76.6031 C30.0833,75.7121 29.8623,74.8121 29.6823,73.9021 C29.5923,73.4431 29.5023,72.9831 29.4333,72.5131 C29.3623,72.0531 29.2933,71.5821 29.2333,71.1131 C29.1333,70.2131 29.0533,69.3031 29.0223,68.3831 C28.9923,67.8621 28.9823,67.3421 28.9823,66.8231 L28.9823,66.8121 C28.9823,66.3521 28.9923,65.8831 29.0133,65.4221 C29.0223,65.0031 29.0533,64.5921 29.0823,64.1731 L29.0933,64.0131 C29.1223,63.5621 29.1723,63.1221 29.2223,62.6721 C29.2623,62.3121 29.3133,61.9421 29.3623,61.5821 C29.3723,61.4931 29.3823,61.4131 29.4023,61.3221 C29.4623,60.9231 29.5323,60.5231 29.6023,60.1331 C29.6223,60.0231 29.6423,59.9131 29.6723,59.8031 C29.7423,59.4331 29.8233,59.0531 29.9123,58.6831 L29.9123,58.6431 C30.0123,58.2321 30.1123,57.8231 30.2323,57.4131 C30.3123,57.0931 30.4023,56.7831 30.5023,56.4631 C30.5633,56.2321 30.6323,56.0121 30.7123,55.7831 C30.7923,55.5131 30.8823,55.2531 30.9823,54.9931 C31.0423,54.7931 31.1123,54.5931 31.1923,54.4031 C31.4123,53.8121 31.6423,53.2331 31.8923,52.6521 C31.9923,52.4121 32.0923,52.1721 32.2123,51.9431 L32.2323,51.8921 C32.5223,51.2531 32.8323,50.6221 33.1623,50.0031 C33.3533,49.6431 33.5533,49.2931 33.7523,48.9421 L33.8023,48.8621 C34.0123,48.5031 34.2223,48.1521 34.4423,47.8031 C34.5033,47.7121 34.5633,47.6121 34.6123,47.5231 C34.8033,47.2321 34.9923,46.9421 35.1923,46.6521 C35.5533,46.1221 35.9223,45.6031 36.3123,45.0931 C36.2983,45.0681 36.2833,45.0441 36.2693,45.0191 C35.0963,44.3771 34.1893,43.2721 33.6893,41.0001 C33.6283,40.7201 33.5353,40.4601 33.4153,40.2171 C33.3263,40.0391 33.2223,39.8691 33.1053,39.7101 C30.7253,37.8821 26.4023,37.8621 26.4023,37.8621" id="Fill-42" fill="#FFC675"></path>
                                            <path d="M33.0001,12.9999 C33.0001,18.5229 28.5231,22.9999 23.0001,22.9999 C17.4771,22.9999 13.0001,18.5229 13.0001,12.9999 C13.0001,7.4769 17.4771,2.9999 23.0001,2.9999 C28.5231,2.9999 33.0001,7.4769 33.0001,12.9999" id="Fill-44" fill="#E8F3FF"></path>
                                            <path d="M32.1599,9.0101 C30.9399,8.4701 29.5899,8.1701 28.1699,8.1701 C22.6399,8.1701 18.1699,12.6401 18.1699,18.1701 C18.1699,19.5901 18.4699,20.9401 19.0099,22.1601 C15.4699,20.6301 12.9999,17.1001 12.9999,13.0001 C12.9999,7.4801 17.4799,3.0001 22.9999,3.0001 C27.0999,3.0001 30.6299,5.4701 32.1599,9.0101" id="Fill-46" fill="#B8DAF2"></path>
                                            <path d="M19,17 C18.723,17 18.46,17.056 18.22,17.157 C18.187,17.49 18.17,17.828 18.17,18.17 C18.17,19.137 18.309,20.071 18.568,20.953 C18.707,20.984 18.852,21 19,21 C20.105,21 21,20.105 21,19 C21,17.895 20.105,17 19,17" id="Fill-48" fill="#D3E8FF"></path>
                                            <path d="M18.2203,17.1575 C17.5033,17.4615 17.0003,18.1715 17.0003,19.0005 C17.0003,19.9565 17.6713,20.7555 18.5683,20.9535 C18.3093,20.0705 18.1703,19.1365 18.1703,18.1695 C18.1703,17.8285 18.1873,17.4905 18.2203,17.1575" id="Fill-50" fill="#A7D0F2"></path>
                                            <path d="M16.4965,5.4033 C16.0435,5.6663 15.6665,6.0433 15.4035,6.4963 C15.7395,6.1043 16.1045,5.7393 16.4965,5.4033" id="Fill-52" fill="#E8F3FF"></path>
                                            <path d="M16.5028,5.3997 C16.5008,5.4007 16.4988,5.4017 16.4968,5.4037 C16.1048,5.7387 15.7388,6.1047 15.4038,6.4967 C15.4018,6.4987 15.4008,6.5007 15.3998,6.5027 C15.7388,6.1067 16.1068,5.7387 16.5028,5.3997" id="Fill-54" fill="#D3E8FF"></path>
                                            <path d="M18.0002,4.9999 C17.4552,4.9999 16.9432,5.1459 16.5032,5.3999 C16.1072,5.7379 15.7382,6.1069 15.4002,6.5029 C15.1452,6.9429 15.0002,7.4549 15.0002,7.9999 C15.0002,9.6569 16.3432,10.9999 18.0002,10.9999 C19.6562,10.9999 21.0002,9.6569 21.0002,7.9999 C21.0002,6.3429 19.6562,4.9999 18.0002,4.9999" id="Fill-56" fill="#A7D0F2"></path>
                                            <path d="M29.0009,4.9999 C29.7579,5.5679 30.4319,6.2419 30.9999,6.9989 C30.9999,5.8959 30.1049,4.9999 29.0009,4.9999" id="Fill-58" fill="#E8F3FF"></path>
                                            <path d="M29.0001,4.9999 L28.9981,4.9999 C29.7571,5.5709 30.4321,6.2469 31.0001,7.0079 L31.0001,6.9999 L31.0001,6.9989 C30.4311,6.2419 29.7571,5.5679 29.0011,4.9999 L29.0001,4.9999 M28.1701,8.1699 C27.9101,8.1699 27.6541,8.1799 27.3991,8.1989 C27.7641,8.6849 28.3451,8.9999 29.0001,8.9999 C29.5471,8.9999 30.0431,8.7799 30.4041,8.4239 C29.6861,8.2579 28.9381,8.1699 28.1701,8.1699" id="Fill-60" fill="#D3E8FF"></path>
                                            <path d="M28.9983,4.9999 C27.8943,5.0009 27.0003,5.8959 27.0003,6.9999 C27.0003,7.4499 27.1483,7.8649 27.3993,8.1989 C27.6533,8.1799 27.9103,8.1699 28.1703,8.1699 C28.9383,8.1699 29.6863,8.2579 30.4043,8.4239 C30.7703,8.0629 30.9983,7.5619 31.0003,7.0079 C30.4313,6.2469 29.7573,5.5709 28.9983,4.9999" id="Fill-62" fill="#A7D0F2"></path>
                                            <path d="M27.0001,10.9999 C25.8951,10.9999 25.0001,11.8959 25.0001,12.9999 C25.0001,14.1049 25.8951,14.9999 27.0001,14.9999 C28.1041,14.9999 29.0001,14.1049 29.0001,12.9999 C29.0001,11.8959 28.1041,10.9999 27.0001,10.9999" id="Fill-64" fill="#D3E8FF"></path>
                                            <path d="M55.1602,23.3301 C43.9652,23.3301 33.5102,28.8611 27.1922,38.1271 C23.3572,43.7431 21.3302,50.3281 21.3302,57.1701 C21.3302,65.4911 24.3782,73.4881 29.9122,79.6871 C33.6322,83.8551 38.3732,87.0691 43.6242,88.9811 C47.2982,90.3211 51.1792,91.0001 55.1602,91.0001 C73.8192,91.0001 89.0002,75.8241 89.0002,57.1701 C89.0002,50.8271 87.2302,44.6371 83.8832,39.2681 L83.7672,39.0851 C83.5642,38.7651 83.3612,38.4391 83.1432,38.1291 C77.7782,30.2671 69.3442,25.0041 59.9872,23.6691 C58.4152,23.4441 56.7922,23.3301 55.1602,23.3301 M55.1602,95.0001 C50.7102,95.0001 46.3672,94.2391 42.2542,92.7391 C36.3872,90.6021 31.0862,87.0101 26.9282,82.3511 C20.7382,75.4181 17.3302,66.4751 17.3302,57.1701 C17.3302,49.5191 19.5972,42.1551 23.8892,35.8721 C30.9512,25.5151 42.6412,19.3301 55.1602,19.3301 C56.9802,19.3301 58.7952,19.4581 60.5532,19.7101 C71.0172,21.2021 80.4512,27.0861 86.4322,35.8531 C86.6732,36.1951 86.9132,36.5751 87.1502,36.9501 L87.2692,37.1401 C91.0212,43.1551 93.0002,50.0781 93.0002,57.1701 C93.0002,78.0291 76.0252,95.0001 55.1602,95.0001" id="Fill-66" fill="#2D3666"></path>
                                            <path d="M84.7803,38.9805 C84.5533,38.9805 84.3243,38.9415 84.0983,38.8595 C80.5693,37.5815 77.4283,37.8625 74.3943,38.1345 C71.4053,38.4025 68.3193,38.6795 65.1603,37.4045 C60.9513,35.7015 58.0973,31.3425 58.2203,26.8055 C58.2293,26.3725 58.2673,25.9235 58.3063,25.4755 C58.3793,24.6505 58.4463,23.8705 58.2543,23.3275 C57.8853,22.2865 58.4303,21.1435 59.4723,20.7745 C60.5113,20.4055 61.6553,20.9505 62.0253,21.9935 C62.5073,23.3535 62.3923,24.6665 62.2913,25.8235 C62.2593,26.1835 62.2263,26.5445 62.2193,26.9025 C62.1413,29.7705 64.0093,32.6235 66.6603,33.6965 C68.9213,34.6085 71.2923,34.3955 74.0373,34.1505 C77.3473,33.8545 81.0983,33.5175 85.4623,35.0995 C86.5003,35.4755 87.0373,36.6235 86.6603,37.6615 C86.3663,38.4745 85.5973,38.9795 84.7803,38.9805" id="Fill-68" fill="#2D3666"></path>
                                            <path d="M42.9385,92.8604 C42.4715,92.8604 42.0015,92.6974 41.6235,92.3664 C31.8435,83.8164 31.1595,72.4174 39.6935,60.2704 C43.6965,54.5724 43.8305,51.8474 43.5525,50.7304 C43.4345,50.2534 43.1415,49.5494 41.9695,48.9514 C40.8805,48.3934 39.7595,48.1354 38.6745,47.8864 C36.6335,47.4184 34.3205,46.8864 32.8345,44.3504 C32.3645,43.5674 32.0015,42.6084 31.7385,41.4394 C31.3455,39.6444 27.3095,39.0134 25.5285,39.0004 C24.4245,38.9914 23.5355,38.0904 23.5425,36.9884 C23.5485,35.8874 24.4405,35.0004 25.5405,35.0004 L25.5485,35.0004 C26.4585,35.0044 34.4645,35.1924 35.6435,40.5724 C35.8065,41.2974 36.0195,41.8844 36.2745,42.3094 C36.8745,43.3324 37.7175,43.5624 39.5705,43.9884 C40.8325,44.2784 42.2615,44.6064 43.7915,45.3894 C45.7075,46.3684 46.9675,47.8824 47.4355,49.7684 C48.2295,52.9714 46.7675,57.1594 42.9665,62.5694 C37.8725,69.8204 33.9605,80.3534 44.2555,89.3544 C45.0875,90.0824 45.1715,91.3454 44.4455,92.1764 C44.0495,92.6294 43.4955,92.8604 42.9385,92.8604" id="Fill-70" fill="#2D3666"></path>
                                            <path d="M67.13,72.5 C64.05,71.14 60.31,71.84 57.95,74.48 C55.79,76.89 55.36,80.24 56.57,83.02 C55.82,82.69 55.11,82.24 54.46,81.66 C51.16,78.72 50.88,73.66 53.83,70.37 C56.78,67.07 61.83,66.79 65.13,69.74 C66.01,70.53 66.68,71.48 67.13,72.5" id="Fill-72" fill="#B8DAF2"></path>
                                            <path d="M59.7998,69.7002 C59.6868,69.7002 59.5728,69.7042 59.4598,69.7102 C57.8598,69.7992 56.3898,70.5062 55.3208,71.7002 C54.2518,72.8942 53.7118,74.4322 53.8008,76.0332 C53.8898,77.6342 54.5958,79.1032 55.7898,80.1722 C58.2538,82.3762 62.0558,82.1682 64.2628,79.7022 C65.3308,78.5082 65.8708,76.9702 65.7818,75.3692 C65.6938,73.7682 64.9868,72.2992 63.7928,71.2302 C62.6838,70.2372 61.2768,69.7002 59.7998,69.7002 M59.7858,85.6962 C57.4108,85.6962 55.0288,84.8572 53.1218,83.1522 C51.1318,81.3712 49.9538,78.9222 49.8068,76.2552 C49.6588,73.5882 50.5588,71.0222 52.3398,69.0322 C54.1208,67.0422 56.5708,65.8642 59.2378,65.7162 C61.9038,65.5812 64.4708,66.4682 66.4608,68.2502 C68.4508,70.0312 69.6288,72.4802 69.7768,75.1472 C69.9238,77.8142 69.0248,80.3802 67.2428,82.3702 C65.2718,84.5732 62.5338,85.6962 59.7858,85.6962" id="Fill-74" fill="#2D3666"></path>
                                            <path d="M23,5 C18.589,5 15,8.589 15,13 C15,17.411 18.589,21 23,21 C27.411,21 31,17.411 31,13 C31,8.589 27.411,5 23,5 M23,25 C16.383,25 11,19.617 11,13 C11,6.383 16.383,1 23,1 C29.617,1 35,6.383 35,13 C35,19.617 29.617,25 23,25" id="Fill-76" fill="#2D3666"></path>
                                            <path d="M103.9998,39.9111 C103.9718,39.9421 103.9428,39.9721 103.9108,40.0001 C103.9428,40.0281 103.9718,40.0571 103.9998,40.0891 C104.0278,40.0571 104.0568,40.0281 104.0888,40.0001 C104.0568,39.9721 104.0278,39.9421 103.9998,39.9111" id="Fill-78" fill="#9AE0E6"></path>
                                            <path d="M103.9998,36 C103.5678,36 103.1878,36.274 103.0518,36.684 L102.4588,38.46 L100.6838,39.052 C100.2738,39.188 99.9998,39.568 99.9998,40 C99.9998,40.432 100.2738,40.812 100.6838,40.948 L102.4588,41.541 L103.0518,43.316 C103.1878,43.726 103.5678,44 103.9998,44 C104.4318,44 104.8118,43.726 104.9488,43.316 L105.5408,41.541 L107.3168,40.948 C107.7258,40.812 107.9998,40.432 107.9998,40 C107.9998,39.568 107.7258,39.188 107.3168,39.052 L105.5408,38.459 L104.9488,36.684 C104.8118,36.274 104.4318,36 103.9998,36 M103.9108,40 C103.9428,39.972 103.9718,39.943 103.9998,39.911 C104.0278,39.943 104.0568,39.972 104.0888,40 C104.0568,40.028 104.0278,40.057 103.9998,40.089 C103.9718,40.057 103.9428,40.028 103.9108,40" id="Fill-80" fill="#9AE0E6"></path>
                                            <path d="M94.9999,81.0002 C93.8999,81.0002 92.9999,81.9002 92.9999,83.0002 C92.9999,84.1002 93.8999,85.0002 94.9999,85.0002 C96.0999,85.0002 96.9999,84.1002 96.9999,83.0002 C96.9999,81.9002 96.0999,81.0002 94.9999,81.0002" id="Fill-82" fill="#47E3FF"></path>
                                            <path d="M109.0001,57 C107.9001,57 107.0001,57.9 107.0001,59 C107.0001,60.1 107.9001,61 109.0001,61 C110.1001,61 111.0001,60.1 111.0001,59 C111.0001,57.9 110.1001,57 109.0001,57" id="Fill-84" fill="#47E3FF"></path>
                                            <path d="M42.9998,107.0001 C41.8998,107.0001 40.9998,107.9001 40.9998,109.0001 C40.9998,110.1001 41.8998,111.0001 42.9998,111.0001 C44.0998,111.0001 44.9998,110.1001 44.9998,109.0001 C44.9998,107.9001 44.0998,107.0001 42.9998,107.0001" id="Fill-86" fill="#47E3FF"></path>
                                            <path d="M76.9996,102.1622 L76.9486,102.3162 C76.8496,102.6142 76.6146,102.8492 76.3166,102.9482 L76.1616,103.0002 L76.3166,103.0512 C76.6146,103.1512 76.8496,103.3852 76.9486,103.6842 L76.9996,103.8382 L77.0516,103.6842 C77.1506,103.3852 77.3856,103.1512 77.6836,103.0512 L77.8376,103.0002 L77.6836,102.9482 C77.3856,102.8492 77.1506,102.6142 77.0516,102.3162 L76.9996,102.1622" id="Fill-88" fill="#9AE0E6"></path>
                                            <path d="M77.0002,98.0002 C76.5682,98.0002 76.1872,98.2742 76.0512,98.6832 L75.2092,101.2092 L72.6842,102.0512 C72.2742,102.1882 72.0002,102.5682 72.0002,103.0002 C72.0002,103.4322 72.2742,103.8122 72.6842,103.9482 L75.2092,104.7902 L76.0512,107.3162 C76.1872,107.7262 76.5682,108.0002 77.0002,108.0002 C77.4322,108.0002 77.8122,107.7262 77.9482,107.3162 L78.7902,104.7902 L81.3162,103.9482 C81.7252,103.8122 82.0002,103.4322 82.0002,103.0002 C82.0002,102.5682 81.7252,102.1882 81.3162,102.0512 L78.7902,101.2092 L77.9482,98.6832 C77.8122,98.2742 77.4322,98.0002 77.0002,98.0002 M76.9482,102.3162 L76.9992,102.1622 L77.0512,102.3162 C77.1502,102.6142 77.3852,102.8492 77.6832,102.9482 L77.8372,103.0002 L77.6832,103.0512 C77.3852,103.1512 77.1502,103.3852 77.0512,103.6842 L76.9992,103.8382 L76.9482,103.6842 C76.8492,103.3852 76.6142,103.1512 76.3162,103.0512 L76.1622,103.0002 L76.3162,102.9482 C76.6142,102.8492 76.8492,102.6142 76.9482,102.3162" id="Fill-90" fill="#9AE0E6"></path>
                                            <path d="M52.9999,4.1621 L52.9489,4.3161 C52.8489,4.6141 52.6139,4.8491 52.3159,4.9481 L52.1619,5.0001 L52.3159,5.0511 C52.6139,5.1501 52.8489,5.3861 52.9489,5.6841 L52.9999,5.8371 L53.0509,5.6841 C53.1509,5.3861 53.3859,5.1501 53.6839,5.0511 L53.8379,5.0001 L53.6839,4.9481 C53.3859,4.8491 53.1509,4.6141 53.0509,4.3161 L52.9999,4.1621" id="Fill-92" fill="#9AE0E6"></path>
                                            <path d="M52.9999,0 C52.5679,0 52.1879,0.274 52.0519,0.684 L51.2089,3.209 L48.6839,4.051 C48.2739,4.188 47.9999,4.568 47.9999,5 C47.9999,5.432 48.2739,5.812 48.6839,5.949 L51.2099,6.79 L52.0519,9.316 C52.1879,9.726 52.5679,10 52.9999,10 C53.4319,10 53.8119,9.726 53.9479,9.316 L54.7909,6.79 L57.3159,5.949 C57.7259,5.812 57.9999,5.432 57.9999,5 C57.9999,4.568 57.7259,4.188 57.3159,4.051 L54.7899,3.209 L53.9479,0.684 C53.8119,0.274 53.4319,0 52.9999,0 M52.9489,4.316 L52.9999,4.162 L53.0509,4.316 C53.1509,4.614 53.3859,4.849 53.6839,4.949 L53.8379,5 L53.6839,5.051 C53.3859,5.151 53.1509,5.386 53.0509,5.684 L52.9999,5.838 L52.9489,5.684 C52.8489,5.386 52.6139,5.151 52.3159,5.051 L52.1619,5 L52.3159,4.949 C52.6139,4.849 52.8489,4.614 52.9489,4.316" id="Fill-94" fill="#9AE0E6"></path>
                                            <path d="M79.0002,2.9998 C77.9002,2.9998 77.0002,3.8998 77.0002,4.9998 C77.0002,6.0998 77.9002,6.9998 79.0002,6.9998 C80.1002,6.9998 81.0002,6.0998 81.0002,4.9998 C81.0002,3.8998 80.1002,2.9998 79.0002,2.9998" id="Fill-96" fill="#47E3FF"></path>
                                            <path d="M2.9998,37.0002 C1.8998,37.0002 0.9998,37.9002 0.9998,39.0002 C0.9998,40.1002 1.8998,41.0002 2.9998,41.0002 C4.0998,41.0002 4.9998,40.1002 4.9998,39.0002 C4.9998,37.9002 4.0998,37.0002 2.9998,37.0002" id="Fill-98" fill="#47E3FF"></path>
                                            <path d="M3.9999,59.9108 C3.9719,59.9418 3.9429,59.9718 3.9109,59.9998 C3.9429,60.0278 3.9719,60.0568 3.9999,60.0888 C4.0279,60.0568 4.0579,60.0278 4.0889,59.9998 C4.0579,59.9718 4.0279,59.9418 3.9999,59.9108" id="Fill-100" fill="#9AE0E6"></path>
                                            <path d="M4.0001,56.0002 C3.5681,56.0002 3.1881,56.2742 3.0511,56.6832 L2.4591,58.4592 L0.6841,59.0512 C0.2741,59.1872 0.0001,59.5682 0.0001,60.0002 C0.0001,60.4322 0.2741,60.8122 0.6841,60.9482 L2.4591,61.5402 L3.0511,63.3162 C3.1881,63.7262 3.5681,64.0002 4.0001,64.0002 C4.4321,64.0002 4.8121,63.7262 4.9481,63.3162 L5.5401,61.5402 L7.3161,60.9482 C7.7261,60.8122 8.0001,60.4322 8.0001,60.0002 C8.0001,59.5682 7.7261,59.1872 7.3161,59.0512 L5.5401,58.4592 L4.9481,56.6832 C4.8121,56.2742 4.4321,56.0002 4.0001,56.0002 M3.9111,60.0002 C3.9421,59.9722 3.9721,59.9422 4.0001,59.9112 C4.0281,59.9422 4.0571,59.9722 4.0891,60.0002 C4.0571,60.0272 4.0281,60.0572 4.0001,60.0892 C3.9721,60.0572 3.9421,60.0272 3.9111,60.0002" id="Fill-102" fill="#9AE0E6"></path>
                                        </g>
                                    </g>
                                </g>
                            </g>
                        </g>
                    </g>
                </g>
            </g>
        </g>
    </g>
</svg>