<?xml version="1.0" encoding="UTF-8"?>
<svg width="120px" height="120px" viewBox="0 0 120 120" version="1.1" xmlns="http://www.w3.org/2000/svg" xmlns:xlink="http://www.w3.org/1999/xlink">
    <!-- Generator: Sketch 44 (41411) - http://www.bohemiancoding.com/sketch -->
    <title>home-03</title>
    <desc>Created with Sketch.</desc>
    <defs>
        <rect id="path-1" x="0" y="0" width="260" height="276" rx="3"></rect>
        <filter x="-10.8%" y="-7.2%" width="121.5%" height="120.3%" filterUnits="objectBoundingBox" id="filter-2">
            <feOffset dx="0" dy="8" in="SourceAlpha" result="shadowOffsetOuter1"></feOffset>
            <feGaussianBlur stdDeviation="8" in="shadowOffsetOuter1" result="shadowBlurOuter1"></feGaussianBlur>
            <feColorMatrix values="0 0 0 0 0   0 0 0 0 0.0274509804   0 0 0 0 0.2  0 0 0 0.1 0" type="matrix" in="shadowBlurOuter1"></feColorMatrix>
        </filter>
    </defs>
    <g id="_____Page" stroke="none" stroke-width="1" fill="none" fill-rule="evenodd">
        <g id="home" transform="translate(-800.000000, -3927.000000)">
            <g id="section-5" transform="translate(-2.000000, 3627.000000)">
                <rect id="background" fill="#4C6AFF" x="0" y="0" width="1440" height="672"></rect>
                <g id="Group" transform="translate(172.000000, 244.000000)">
                    <g id="n3" transform="translate(560.000000, 0.000000)">
                        <g id="Rectangle">
                            <use fill="black" fill-opacity="1" filter="url(#filter-2)" xlink:href="#path-1"></use>
                            <use fill="#FFFFFF" fill-rule="evenodd" xlink:href="#path-1"></use>
                        </g>
                        <g id="Alien" transform="translate(70.000000, 56.000000)">
                            <rect id="Rectangle-14-Copy-5" x="0" y="0" width="120" height="120"></rect>
                            <g id="Group-20" transform="translate(11.000000, 9.000000)">
                                <path d="M82.8497,42.8623 C82.8497,62.5153 75.0407,81.3803 61.1337,95.2753 C58.0407,98.3683 53.9947,99.9143 49.9477,99.9143 C45.9007,99.9143 41.8537,98.3683 38.7607,95.2753 C34.3297,90.8553 30.5127,85.9203 27.3757,80.6123 C25.5887,77.5953 24.0207,74.4593 22.6827,71.2233 C18.9967,62.3183 17.0447,52.6893 17.0447,42.8623 C17.0447,33.7813 20.7307,25.5553 26.6857,19.6003 C32.6407,13.6453 40.8667,9.9603 49.9477,9.9603 C60.5087,9.9603 69.9087,14.9283 75.9177,22.6713 C80.2617,28.2423 82.8497,35.2513 82.8497,42.8623" id="Fill-219" fill="#E7F0FA"></path>
                                <path d="M84.045,44.0576 C84.045,63.7106 76.236,82.5756 62.329,96.4706 C59.236,99.5636 55.19,101.1106 51.143,101.1106 C47.425,101.1106 43.718,99.8056 40.746,97.2056 C39.363,95.7366 38.048,94.2116 36.809,92.6426 C39.298,94.1236 42.095,94.8696 44.902,94.8696 C48.949,94.8696 52.996,93.3236 56.089,90.2306 C69.996,76.3346 77.805,57.4706 77.805,37.8166 C77.805,30.9406 75.688,24.5576 72.068,19.2826 C73.318,20.1266 74.504,21.0586 75.611,22.0676 C76.138,22.6486 76.631,23.2526 77.113,23.8666 C81.457,29.4376 84.045,36.4466 84.045,44.0576" id="Fill-220" fill="#FEFEFE"></path>
                                <path d="M36.5918,28.6733 C30.6368,34.6173 26.9508,42.8433 26.9508,51.9353 C26.9508,61.7733 28.9048,71.4023 32.5998,80.3083 C35.0778,86.2963 38.3358,91.9553 42.3278,97.1313 C41.0558,96.4413 39.8608,95.5413 38.7848,94.4663 C34.9688,90.6503 31.6018,86.4613 28.7388,81.9753 C26.9508,78.9593 25.3828,75.8223 24.0448,72.5873 C20.3608,63.6813 18.4078,54.0513 18.4078,44.2253 C18.4078,35.1443 22.0928,26.9183 28.0488,20.9633 C34.0038,15.0073 42.2298,11.3223 51.3108,11.3223 C61.8718,11.3223 71.2708,16.2913 77.2818,24.0343 C72.2368,20.8643 66.2698,19.0333 59.8538,19.0333 C50.7618,19.0333 42.5358,22.7173 36.5918,28.6733" id="Fill-221" fill="#B5D5EC"></path>
                                <path d="M43.3672,64.8188 L40.0762,64.8188 C30.9912,64.8188 23.6252,57.4538 23.6252,48.3678 L23.6252,45.0778 L26.9162,45.0778 C36.0012,45.0778 43.3672,52.4428 43.3672,61.5288 L43.3672,64.8188 Z" id="Fill-222" fill="#7AC9D0"></path>
                                <path d="M56.5274,64.8188 L59.8184,64.8188 C68.9034,64.8188 76.2694,57.4538 76.2694,48.3678 L76.2694,45.0778 L72.9784,45.0778 C63.8934,45.0778 56.5274,52.4428 56.5274,61.5288 L56.5274,64.8188 Z" id="Fill-223" fill="#7AC9D0"></path>
                                <path d="M82.8497,42.873 C82.8497,62.527 75.0407,81.391 61.1337,95.287 C58.0407,98.379 53.9947,99.926 49.9477,99.926 C45.9007,99.926 41.8537,98.379 38.7607,95.287 C34.3297,90.867 30.5127,85.931 27.3757,80.623 C25.5887,77.607 24.0207,74.47 22.6827,71.235 C18.9967,62.329 17.0447,52.7 17.0447,42.873 C17.0447,33.792 20.7307,25.566 26.6857,19.611 C32.6407,13.656 40.8667,9.971 49.9477,9.971 C60.5087,9.971 69.9087,14.939 75.9177,22.682 C80.2617,28.253 82.8497,35.262 82.8497,42.873 Z" id="Stroke-268" stroke="#17317B" stroke-width="4" stroke-linecap="round" stroke-linejoin="round"></path>
                                <path d="M43.3672,64.8301 L40.0762,64.8301 C30.9912,64.8301 23.6252,57.4641 23.6252,48.3791 L23.6252,45.0881 L26.9162,45.0881 C36.0012,45.0881 43.3672,52.4541 43.3672,61.5391 L43.3672,64.8301 Z" id="Stroke-269" stroke="#17317B" stroke-width="4" stroke-linecap="round" stroke-linejoin="round"></path>
                                <path d="M56.5274,64.8301 L59.8184,64.8301 C68.9034,64.8301 76.2694,57.4641 76.2694,48.3791 L76.2694,45.0881 L72.9784,45.0881 C63.8934,45.0881 56.5274,52.4541 56.5274,61.5391 L56.5274,64.8301 Z" id="Stroke-270" stroke="#17317B" stroke-width="4" stroke-linecap="round" stroke-linejoin="round"></path>
                                <path d="M46.6446,84.5337 L53.2506,84.5337" id="Stroke-271" stroke="#17317B" stroke-width="3.8" stroke-linecap="round" stroke-linejoin="round"></path>
                                <path d="M91.0001,71 C90.5681,71 90.1881,71.274 90.0511,71.684 L89.4591,73.459 L87.6841,74.051 C87.2731,74.188 87.0001,74.568 87.0001,75 C87.0001,75.432 87.2731,75.812 87.6841,75.948 L89.4591,76.541 L90.0511,78.316 C90.1881,78.726 90.5681,79 91.0001,79 C91.4321,79 91.8121,78.726 91.9481,78.316 L92.5401,76.541 L94.3161,75.948 C94.7261,75.812 95.0001,75.432 95.0001,75 C95.0001,74.568 94.7261,74.188 94.3161,74.051 L92.5401,73.459 L91.9481,71.684 C91.8121,71.274 91.4321,71 91.0001,71" id="Fill-672" fill="#99D4DB"></path>
                                <path d="M78.0001,96 C76.8961,96 76.0001,96.895 76.0001,98 C76.0001,99.104 76.8961,100 78.0001,100 C79.1041,100 80.0001,99.104 80.0001,98 C80.0001,96.895 79.1041,96 78.0001,96" id="Fill-673" fill="#99D4DB"></path>
                                <path d="M96.0001,46 C94.8961,46 94.0001,46.896 94.0001,48 C94.0001,49.105 94.8961,50 96.0001,50 C97.1041,50 98.0001,49.105 98.0001,48 C98.0001,46.896 97.1041,46 96.0001,46" id="Fill-674" fill="#99D4DB"></path>
                                <path d="M34,0 C32.896,0 32,0.896 32,2 C32,3.104 32.896,4 34,4 C35.104,4 36,3.104 36,2 C36,0.896 35.104,0 34,0" id="Fill-675" fill="#99D4DB"></path>
                                <path d="M6,70 C4.896,70 4,70.896 4,72 C4,73.104 4.896,74 6,74 C7.104,74 8,73.104 8,72 C8,70.896 7.104,70 6,70" id="Fill-676" fill="#99D4DB"></path>
                                <path d="M2,40 C0.896,40 0,40.896 0,42 C0,43.104 0.896,44 2,44 C3.104,44 4,43.104 4,42 C4,40.896 3.104,40 2,40" id="Fill-677" fill="#99D4DB"></path>
                                <path d="M86.0001,9 C85.5681,9 85.1881,9.274 85.0521,9.684 L84.2091,12.209 L81.6841,13.051 C81.2731,13.188 81.0001,13.568 81.0001,14 C81.0001,14.432 81.2731,14.812 81.6841,14.949 L84.2091,15.791 L85.0521,18.316 C85.1881,18.726 85.5681,19 86.0001,19 C86.4321,19 86.8121,18.726 86.9491,18.316 L87.7901,15.791 L90.3161,14.949 C90.7261,14.812 91.0001,14.432 91.0001,14 C91.0001,13.568 90.7261,13.188 90.3161,13.051 L87.7901,12.209 L86.9491,9.684 C86.8121,9.274 86.4321,9 86.0001,9" id="Fill-678" fill="#99D4DB"></path>
                                <path d="M18,93 C17.568,93 17.188,93.274 17.051,93.684 L16.209,96.209 L13.684,97.051 C13.274,97.188 13,97.568 13,98 C13,98.432 13.274,98.812 13.684,98.949 L16.209,99.791 L17.051,102.316 C17.188,102.726 17.568,103 18,103 C18.432,103 18.812,102.726 18.948,102.316 L19.79,99.791 L22.316,98.949 C22.727,98.812 23,98.432 23,98 C23,97.568 22.727,97.188 22.316,97.051 L19.79,96.209 L18.948,93.684 C18.812,93.274 18.432,93 18,93" id="Fill-679" fill="#99D4DB"></path>
                                <path d="M9,17 C8.568,17 8.188,17.274 8.051,17.684 L7.459,19.459 L5.684,20.051 C5.273,20.188 5,20.568 5,21 C5,21.432 5.273,21.812 5.684,21.949 L7.459,22.541 L8.051,24.316 C8.188,24.726 8.568,25 9,25 C9.432,25 9.812,24.726 9.948,24.316 L10.54,22.541 L12.316,21.949 C12.726,21.812 13,21.432 13,21 C13,20.568 12.726,20.188 12.316,20.051 L10.54,19.459 L9.948,17.684 C9.812,17.274 9.432,17 9,17" id="Fill-680" fill="#99D4DB"></path>
                            </g>
                        </g>
                    </g>
                </g>
            </g>
        </g>
    </g>
</svg>