<?xml version="1.0" encoding="UTF-8"?>
<svg width="88px" height="88px" viewBox="0 0 88 88" version="1.1" xmlns="http://www.w3.org/2000/svg" xmlns:xlink="http://www.w3.org/1999/xlink">
    <!-- Generator: Sketch 44 (41411) - http://www.bohemiancoding.com/sketch -->
    <title>home-blockchain-02</title>
    <desc>Created with Sketch.</desc>
    <defs></defs>
    <g id="Assets" stroke="none" stroke-width="1" fill="none" fill-rule="evenodd">
        <g id="Ursa-Major" transform="translate(1.000000, 1.000000)">
            <g id="Page-1">
                <g id="Group-56">
                    <path d="M27.2465852,80.463202 L28.0816599,81.9277314 L52.4385668,67.9873 C53.0699236,67.6264373 53.3965456,66.906398 53.2542799,66.1922608 L48.0342211,40.055849 C47.9273114,39.5196137 47.5687007,39.0693784 47.0703496,38.8467902 C46.5711568,38.6233588 45.9970429,38.6562412 45.5273134,38.9344765 L7.25277536,61.5870451 C6.79230574,61.8593784 6.48925443,62.3340647 6.43453684,62.8669275 C6.37981924,63.3989471 6.58101163,63.9259078 6.97666195,64.2859275 L26.1143519,81.7110451 C26.6514261,82.2009078 27.450303,82.2885941 28.0816599,81.9277314 L27.2465852,80.463202 L28.3788186,79.2153588 L10.9297979,63.3281235 L45.198166,43.0464569 L49.7136304,65.6619275 L26.4115105,78.9995157 L27.2465852,80.463202 L28.3788186,79.2153588 L27.2465852,80.463202" id="Fill-2" fill="#2D3666"></path>
                    <path d="M46.3817497,42.0728863 C46.0989018,42.0728863 45.8110031,42.0012196 45.5483586,41.850298 C44.7410636,41.3882588 44.4607412,40.3587882 44.9220526,39.5502196 L58.8396838,15.1548863 C58.9937349,14.8833961 59.2210233,14.6608078 59.4946113,14.5115725 L78.633143,4.05582745 C79.4513816,3.61065098 80.4724961,3.91165098 80.9169714,4.72865098 C81.3631302,5.54649412 81.0617625,6.57090588 80.2460494,7.01692549 L61.5258969,17.2433373 L47.8448141,41.2230039 C47.5341865,41.7685137 46.9659653,42.0728863 46.3817497,42.0728863" id="Fill-4" fill="#2D3666"></path>
                    <path d="M11.5889345,63.0385902 C11.5889345,64.9634725 10.0307457,66.5232765 8.10973711,66.5232765 C6.18788675,66.5232765 4.62969795,64.9634725 4.62969795,63.0385902 C4.62969795,61.1137078 6.18788675,59.5539039 8.10973711,59.5539039 C10.0307457,59.5539039 11.5889345,61.1137078 11.5889345,63.0385902" id="Fill-6" fill="#FFDCA1"></path>
                    <path d="M8.10897948,61.0286353 C7.00368402,61.0286353 6.1029482,61.929949 6.1029482,63.0386745 C6.1029482,64.1465569 7.00368402,65.0487137 8.10897948,65.0487137 C9.21511674,65.0487137 10.1158526,64.1465569 10.1158526,63.0386745 C10.1158526,61.929949 9.21511674,61.0286353 8.10897948,61.0286353 M8.10897948,67.9996941 C5.3781505,67.9996941 3.15661607,65.7738118 3.15661607,63.0386745 C3.15661607,60.3035373 5.3781505,58.0776549 8.10897948,58.0776549 C10.8398085,58.0776549 13.0621847,60.3035373 13.0621847,63.0386745 C13.0621847,65.7738118 10.8398085,67.9996941 8.10897948,67.9996941" id="Fill-8" fill="#2D3666"></path>
                    <path d="M30.7260351,80.4633706 C30.7260351,82.3882529 29.1678463,83.9480569 27.2468378,83.9480569 C25.3249874,83.9480569 23.7667986,82.3882529 23.7667986,80.4633706 C23.7667986,78.5384882 25.3249874,76.9786843 27.2468378,76.9786843 C29.1678463,76.9786843 30.7260351,78.5384882 30.7260351,80.4633706" id="Fill-10" fill="#78D5DD"></path>
                    <path d="M27.2470061,78.4537529 C26.1408689,78.4537529 25.240133,79.3550667 25.240133,80.4637922 C25.240133,81.5708314 26.1408689,82.4729882 27.2470061,82.4729882 C28.3523016,82.4729882 29.2530374,81.5708314 29.2530374,80.4637922 C29.2530374,79.3550667 28.3523016,78.4537529 27.2470061,78.4537529 M27.2470061,85.4239686 C24.5161771,85.4239686 22.2938009,83.1989294 22.2938009,80.4637922 C22.2938009,77.7286549 24.5161771,75.5027725 27.2470061,75.5027725 C29.9778351,75.5027725 32.1993695,77.7286549 32.1993695,80.4637922 C32.1993695,83.1989294 29.9778351,85.4239686 27.2470061,85.4239686" id="Fill-12" fill="#2D3666"></path>
                    <path d="M55.0823527,66.5235294 C55.0823527,68.4484118 53.5241639,70.0082157 51.6031553,70.0082157 C49.681305,70.0082157 48.1231162,68.4484118 48.1231162,66.5235294 C48.1231162,64.5986471 49.681305,63.0388431 51.6031553,63.0388431 C53.5241639,63.0388431 55.0823527,64.5986471 55.0823527,66.5235294" id="Fill-14" fill="#FFDCA1"></path>
                    <path d="M51.6027344,64.5139961 C50.497439,64.5139961 49.5967032,65.4153098 49.5967032,66.5240353 C49.5967032,67.6310745 50.497439,68.5332314 51.6027344,68.5332314 C52.7088717,68.5332314 53.6096075,67.6310745 53.6096075,66.5240353 C53.6096075,65.4153098 52.7088717,64.5139961 51.6027344,64.5139961 M51.6027344,71.4842118 C48.8719054,71.4842118 46.650371,69.2591725 46.650371,66.5240353 C46.650371,63.788898 48.8719054,61.5630157 51.6027344,61.5630157 C54.3335634,61.5630157 56.5559396,63.788898 56.5559396,66.5240353 C56.5559396,69.2591725 54.3335634,71.4842118 51.6027344,71.4842118" id="Fill-16" fill="#2D3666"></path>
                    <path d="M51.6029028,40.3862745 C51.6029028,43.2731765 49.2660405,45.6137255 46.3836859,45.6137255 C43.5013312,45.6137255 41.1644689,43.2731765 41.1644689,40.3862745 C41.1644689,37.4993725 43.5013312,35.1588235 46.3836859,35.1588235 C49.2660405,35.1588235 51.6029028,37.4993725 51.6029028,40.3862745" id="Fill-18" fill="#78D5DD"></path>
                    <path d="M46.3833491,36.6344824 C44.3183912,36.6344824 42.6381401,38.3173843 42.6381401,40.3864431 C42.6381401,42.4546588 44.3183912,44.1375608 46.3833491,44.1375608 C48.4491489,44.1375608 50.1294,42.4546588 50.1294,40.3864431 C50.1294,38.3173843 48.4491489,36.6344824 46.3833491,36.6344824 M46.3833491,47.0885412 C42.6936995,47.0885412 39.691808,44.0819137 39.691808,40.3864431 C39.691808,36.6901294 42.6936995,33.683502 46.3833491,33.683502 C50.0738406,33.683502 53.0757321,36.6901294 53.0757321,40.3864431 C53.0757321,44.0819137 50.0738406,47.0885412 46.3833491,47.0885412" id="Fill-20" fill="#2D3666"></path>
                    <path d="M63.7811037,15.9915314 C63.7811037,17.9164137 62.2229149,19.4762176 60.3019063,19.4762176 C58.380056,19.4762176 56.8218672,17.9164137 56.8218672,15.9915314 C56.8218672,14.066649 58.380056,12.5068451 60.3019063,12.5068451 C62.2229149,12.5068451 63.7811037,14.066649 63.7811037,15.9915314" id="Fill-22" fill="#FFDCA1"></path>
                    <path d="M60.3011487,13.9817451 C59.1958532,13.9817451 58.2951174,14.8830588 58.2951174,15.9917843 C58.2951174,17.0988235 59.1958532,18.0009804 60.3011487,18.0009804 C61.407286,18.0009804 62.3080218,17.0988235 62.3080218,15.9917843 C62.3080218,14.8830588 61.407286,13.9817451 60.3011487,13.9817451 M60.3011487,20.9519608 C57.5703197,20.9519608 55.3487853,18.7269216 55.3487853,15.9917843 C55.3487853,13.2566471 57.5703197,11.0307647 60.3011487,11.0307647 C63.0319777,11.0307647 65.2543539,13.2566471 65.2543539,15.9917843 C65.2543539,18.7269216 63.0319777,20.9519608 60.3011487,20.9519608" id="Fill-24" fill="#2D3666"></path>
                    <path d="M82.9182043,5.53662941 C82.9182043,7.46151176 81.3600155,9.02131569 79.439007,9.02131569 C77.5171566,9.02131569 75.9589678,7.46151176 75.9589678,5.53662941 C75.9589678,3.61174706 77.5171566,2.05194314 79.439007,2.05194314 C81.3600155,2.05194314 82.9182043,3.61174706 82.9182043,5.53662941" id="Fill-26" fill="#78D5DD"></path>
                    <path d="M79.4391753,3.52734902 C78.3330381,3.52734902 77.4323023,4.42866275 77.4323023,5.5365451 C77.4323023,6.64442745 78.3330381,7.54658431 79.4391753,7.54658431 C80.5444708,7.54658431 81.4452066,6.64442745 81.4452066,5.5365451 C81.4452066,4.42866275 80.5444708,3.52734902 79.4391753,3.52734902 M79.4391753,10.4975647 C76.7083464,10.4975647 74.4859701,8.27168235 74.4859701,5.5365451 C74.4859701,2.80140784 76.7083464,0.576368627 79.4391753,0.576368627 C82.1700043,0.576368627 84.3915387,2.80140784 84.3915387,5.5365451 C84.3915387,8.27168235 82.1700043,10.4975647 79.4391753,10.4975647" id="Fill-28" fill="#2D3666"></path>
                    <path d="M26.9378938,14.2582098 C26.9143231,14.2843471 26.8899107,14.3096412 26.8629728,14.333249 C26.8899107,14.3568569 26.9143231,14.382151 26.9378938,14.4082882 C26.9614644,14.382151 26.9858769,14.3568569 27.0128148,14.333249 C26.9858769,14.3096412 26.9614644,14.2843471 26.9378938,14.2582098" id="Fill-30" fill="#9AE0E6"></path>
                    <path d="M26.937978,10.9607 C26.5743164,10.9607 26.2535871,11.1917196 26.1391011,11.5374059 L25.64075,13.0348176 L24.1456969,13.5339549 C23.801397,13.6486216 23.5707412,13.9690137 23.5707412,14.333249 C23.5707412,14.6974843 23.801397,15.0178765 24.1456969,15.1325431 L25.64075,15.6325235 L26.1391011,17.1290922 C26.2535871,17.4747784 26.5743164,17.705798 26.937978,17.705798 C27.3016395,17.705798 27.621527,17.4747784 27.7360131,17.1290922 L28.2343641,15.6325235 L29.7294172,15.1325431 C30.074559,15.0178765 30.3052147,14.6974843 30.3052147,14.333249 C30.3052147,13.9690137 30.074559,13.6486216 29.7294172,13.5339549 L28.2343641,13.0339745 L27.7360131,11.5374059 C27.621527,11.1917196 27.3016395,10.9607 26.937978,10.9607 M26.863057,14.333249 C26.889153,14.3096412 26.9144073,14.2851902 26.937978,14.2582098 C26.9615486,14.2851902 26.9859611,14.3096412 27.012899,14.333249 C26.9859611,14.3568569 26.9615486,14.382151 26.937978,14.4082882 C26.9144073,14.382151 26.889153,14.3568569 26.863057,14.333249" id="Fill-32" fill="#9AE0E6"></path>
                    <path d="M4.2090459,39.7643765 L4.16611364,39.8942196 C4.08193272,40.1454745 3.88410756,40.3436118 3.63324842,40.4270824 L3.50360981,40.4709255 L3.63324842,40.5139255 C3.88410756,40.5973961 4.08193272,40.7955333 4.16611364,41.0467882 L4.2090459,41.1766314 L4.25197817,41.0467882 C4.33531728,40.7955333 4.53398425,40.5973961 4.78400158,40.5139255 L4.91364019,40.4709255 L4.78400158,40.4270824 C4.53398425,40.3436118 4.33531728,40.1454745 4.25197817,39.8942196 L4.2090459,39.7643765" id="Fill-34" fill="#9AE0E6"></path>
                    <path d="M4.2090459,36.2547333 C3.84538434,36.2547333 3.52549685,36.4857529 3.41016899,36.8314392 L2.70136566,38.9612039 L0.57579748,39.6702824 C0.230655716,39.7857922 0,40.1061843 0,40.4704196 C0,40.8346549 0.230655716,41.1550471 0.57579748,41.2705569 L2.70136566,41.9804784 L3.41016899,44.1094 C3.52549685,44.4550863 3.84538434,44.6861059 4.2090459,44.6861059 C4.57270747,44.6861059 4.89259496,44.4550863 5.00708101,44.1094 L5.71588434,41.9804784 L7.84229433,41.2705569 C8.18743609,41.1550471 8.41809181,40.8346549 8.41809181,40.4704196 C8.41809181,40.1061843 8.18743609,39.7857922 7.84229433,39.6702824 L5.71588434,38.9603608 L5.00708101,36.8314392 C4.89259496,36.4857529 4.57270747,36.2547333 4.2090459,36.2547333 M4.16611364,39.8937137 L4.2090459,39.7647137 L4.25197817,39.8937137 C4.33531728,40.1449686 4.53398425,40.343949 4.78400158,40.4274196 L4.91364019,40.4704196 L4.78400158,40.5142627 C4.53398425,40.5977333 4.33531728,40.7958706 4.25197817,41.0471255 L4.2090459,41.1769686 L4.16611364,41.0471255 C4.08193272,40.7958706 3.88410756,40.5977333 3.63324842,40.5142627 L3.50360981,40.4704196 L3.63324842,40.4274196 C3.88410756,40.343949 4.08193272,40.1449686 4.16611364,39.8937137" id="Fill-36" fill="#9AE0E6"></path>
                    <path d="M27.7796188,33.7254902 C26.8502615,33.7254902 26.0960004,34.4809412 26.0960004,35.4117647 C26.0960004,36.3425882 26.8502615,37.0980392 27.7796188,37.0980392 C28.7098179,37.0980392 29.4632372,36.3425882 29.4632372,35.4117647 C29.4632372,34.4809412 28.7098179,33.7254902 27.7796188,33.7254902" id="Fill-38" fill="#9AE0E6"></path>
                    <path d="M46.2995891,10.1178157 C45.36939,10.1178157 44.6159708,10.8724235 44.6159708,11.8040902 C44.6159708,12.7349137 45.36939,13.4903647 46.2995891,13.4903647 C47.2289465,13.4903647 47.9832075,12.7349137 47.9832075,11.8040902 C47.9832075,10.8724235 47.2289465,10.1178157 46.2995891,10.1178157" id="Fill-40" fill="#9AE0E6"></path>
                    <path d="M4.2090459,74.1961627 C3.27884676,74.1961627 2.52542754,74.9507706 2.52542754,75.8824373 C2.52542754,76.8132608 3.27884676,77.5687118 4.2090459,77.5687118 C5.13840324,77.5687118 5.89266427,76.8132608 5.89266427,75.8824373 C5.89266427,74.9507706 5.13840324,74.1961627 4.2090459,74.1961627" id="Fill-42" fill="#9AE0E6"></path>
                    <path d="M36.1977948,60.705798 C35.2675956,60.705798 34.5141764,61.461249 34.5141764,62.3920725 C34.5141764,63.3237392 35.2675956,64.0783471 36.1977948,64.0783471 C37.1279939,64.0783471 37.8814131,63.3237392 37.8814131,62.3920725 C37.8814131,61.461249 37.1279939,60.705798 36.1977948,60.705798" id="Fill-44" fill="#9AE0E6"></path>
                    <path d="M64.8192227,42.1569471 C63.8898654,42.1569471 63.1356044,42.9115549 63.1356044,43.8432216 C63.1356044,44.7740451 63.8898654,45.5294961 64.8192227,45.5294961 C65.7494219,45.5294961 66.5028411,44.7740451 66.5028411,43.8432216 C66.5028411,42.9115549 65.7494219,42.1569471 64.8192227,42.1569471" id="Fill-46" fill="#9AE0E6"></path>
                    <path d="M70.7118028,61.4738961 C70.6882322,61.5000333 70.6638197,61.5253275 70.6368818,61.5489353 C70.6638197,61.5725431 70.6882322,61.5969941 70.7118028,61.6239745 C70.7353735,61.5969941 70.759786,61.5725431 70.7867239,61.5489353 C70.759786,61.5253275 70.7353735,61.5000333 70.7118028,61.4738961" id="Fill-48" fill="#9AE0E6"></path>
                    <path d="M70.7121396,58.1765549 C70.348478,58.1765549 70.0277487,58.4075745 69.9132626,58.7524176 L69.4149116,60.2498294 L67.9198585,60.7489667 C67.5755586,60.8636333 67.3449028,61.1848686 67.3449028,61.5491039 C67.3449028,61.9133392 67.5755586,62.2337314 67.9198585,62.348398 L69.4149116,62.8475353 L69.9132626,64.3449471 C70.0277487,64.6906333 70.348478,64.9216529 70.7121396,64.9216529 C71.0758011,64.9216529 71.3956886,64.6906333 71.5101747,64.3449471 L72.0085257,62.8475353 L73.5035788,62.348398 C73.8487206,62.2337314 74.0793763,61.9133392 74.0793763,61.5491039 C74.0793763,61.1848686 73.8487206,60.8636333 73.5035788,60.7489667 L72.0085257,60.2498294 L71.5101747,58.7524176 C71.3956886,58.4075745 71.0758011,58.1765549 70.7121396,58.1765549 M70.6372185,61.5491039 C70.6633146,61.5254961 70.6885689,61.500202 70.7121396,61.4740647 C70.7348684,61.500202 70.7601227,61.5254961 70.7870606,61.5491039 C70.7601227,61.5718686 70.7348684,61.5971627 70.7121396,61.6241431 C70.6885689,61.5971627 70.6633146,61.5718686 70.6372185,61.5491039" id="Fill-50" fill="#9AE0E6"></path>
                    <path d="M79.9719564,27.9602863 L79.9290241,28.0901294 C79.8448432,28.3413843 79.647018,28.5395216 79.3961589,28.6229922 L79.2665203,28.6668353 L79.3961589,28.7098353 C79.647018,28.7933059 79.8448432,28.9922863 79.9290241,29.2435412 L79.9719564,29.3725412 L80.0148886,29.2435412 C80.0982277,28.9922863 80.2960529,28.7933059 80.546912,28.7098353 L80.6765507,28.6668353 L80.546912,28.6229922 C80.2960529,28.5395216 80.0982277,28.3413843 80.0148886,28.0901294 L79.9719564,27.9602863" id="Fill-52" fill="#9AE0E6"></path>
                    <path d="M79.9719564,24.4510647 C79.6082948,24.4510647 79.2875655,24.6820843 79.1730795,25.0269275 L78.4642761,27.1566922 L76.3387079,27.8666137 C75.9935662,27.9821235 75.7629105,28.3025157 75.7629105,28.666751 C75.7629105,29.0301431 75.9935662,29.3513784 76.3387079,29.4668882 L78.4642761,30.1768098 L79.1730795,32.3057314 C79.2875655,32.6514176 79.6082948,32.8824373 79.9719564,32.8824373 C80.3356179,32.8824373 80.6555054,32.6514176 80.7699915,32.3057314 L81.4787948,30.1768098 L83.6052048,29.4668882 C83.9495047,29.3513784 84.1810023,29.0301431 84.1810023,28.666751 C84.1810023,28.3025157 83.9495047,27.9821235 83.6052048,27.8666137 L81.4787948,27.1566922 L80.7699915,25.0269275 C80.6555054,24.6820843 80.3356179,24.4510647 79.9719564,24.4510647 M79.9290241,28.0900451 L79.9719564,27.960202 L80.0148886,28.0900451 C80.0982277,28.3413 80.2960529,28.5394373 80.546912,28.623751 L80.6765507,28.666751 L80.546912,28.709751 C80.2960529,28.7940647 80.0982277,28.992202 80.0148886,29.2434569 L79.9719564,29.3733 L79.9290241,29.2434569 C79.8448432,28.992202 79.647018,28.7940647 79.3961589,28.709751 L79.2665203,28.666751 L79.3961589,28.623751 C79.647018,28.5394373 79.8448432,28.3413 79.9290241,28.0900451" id="Fill-54" fill="#9AE0E6"></path>
                </g>
            </g>
        </g>
    </g>
</svg>