<?xml version="1.0" encoding="UTF-8"?>
<svg width="88px" height="88px" viewBox="0 0 88 88" version="1.1" xmlns="http://www.w3.org/2000/svg" xmlns:xlink="http://www.w3.org/1999/xlink">
    <!-- Generator: Sketch 44 (41411) - http://www.bohemiancoding.com/sketch -->
    <title>home-monitoring-01</title>
    <desc>Created with Sketch.</desc>
    <defs></defs>
    <g id="Assets" stroke="none" stroke-width="1" fill="none" fill-rule="evenodd">
        <g id="Telescope" transform="translate(4.000000, 3.000000)">
            <g id="Page-1">
                <g id="Group-86">
                    <path d="M62.436898,9.6016662 C68.4654694,7.39651768 75.1315918,10.5204781 77.3250612,16.5788939 C79.5193469,22.6373098 76.4107755,29.3364328 70.3830204,31.540761 L62.436898,9.6016662" id="Fill-2" fill="#FFDCA1"></path>
                    <path d="M75.6268571,15.1137992 C75.6660408,15.2745912 75.7542041,15.4764017 75.8872653,15.6798529 C75.8848163,15.6782122 75.884,15.6773918 75.8831837,15.6773918 C75.8701224,15.6773918 76.0023673,15.840645 76.1166531,16.0030778 C76.2309388,16.1646902 76.3256327,16.3271231 76.2374694,16.3271231 C76.2162449,16.3271231 76.1844082,16.318099 76.1403265,16.2975898 C76.288898,16.445256 76.2758367,16.4813522 76.204,16.4813522 C76.1697143,16.4813522 76.121551,16.4731485 76.0709388,16.4657652 C76.0203265,16.4575615 75.9672653,16.4493579 75.9223673,16.4493579 C75.8146122,16.4493579 75.7542041,16.4952984 75.8872653,16.6987496 C75.764,16.6167129 75.639102,16.5379576 75.5125714,16.4616634 C76.3468571,19.7103197 74.8880816,23.1140255 72.0227755,24.7514795 L72.9778776,27.3971655 C76.8162449,25.9910552 78.7893061,21.7284243 77.3966531,17.8710552 C77.006449,16.7930919 76.3917551,15.8644356 75.6268571,15.1137992" id="Fill-4" fill="#FFE9BF"></path>
                    <path d="M68.0301224,10.5840566 C67.3166531,10.5840566 66.5950204,10.6660934 65.8774694,10.8367298 C65.7607347,10.8646223 65.8913469,11.1935898 66.1174694,11.6218218 C66.0374694,11.6390495 65.9574694,11.6505347 65.8774694,11.6694031 C65.8244082,11.6817086 65.8268571,11.762925 65.8619592,11.8826987 C65.7950204,11.9557115 65.9109388,12.2510438 66.1174694,12.6415389 C66.0374694,12.6579463 65.9574694,12.6694314 65.8774694,12.6882999 C65.5182857,12.7736181 67.4774694,15.6883847 67.4774694,15.6883847 C68.5346122,15.3019915 69.6170612,15.1190495 70.6823673,15.1190495 C72.3966531,15.1190495 74.0660408,15.5940424 75.5125714,16.4619915 C75.4529796,16.2298274 75.3811429,15.9984837 75.2978776,15.7679604 C75.0986939,15.2133918 74.8374694,14.6998416 74.5305306,14.225669 C74.9207347,14.4849052 75.288898,14.7818784 75.6268571,15.1141273 C75.5786939,14.9155983 75.6056327,14.7794173 75.7158367,14.7794173 C75.7599184,14.7794173 75.8170612,14.8007468 75.8872653,14.8475078 C74.1444082,12.1739293 71.166449,10.5840566 68.0301224,10.5840566" id="Fill-6" fill="#FFC675"></path>
                    <path d="M74.5303673,14.2252588 C74.8373061,14.6994314 75.0993469,15.213802 75.2977143,15.7683706 C75.3817959,15.9980736 75.4528163,16.2294173 75.5124082,16.4615813 C75.6389388,16.5378755 75.7638367,16.6166308 75.887102,16.6986676 C75.7540408,16.4952164 75.8152653,16.4492758 75.9222041,16.4492758 C75.967102,16.4492758 76.0209796,16.4574795 76.0715918,16.4656832 C76.1213878,16.4730665 76.169551,16.4812702 76.2038367,16.4812702 C76.2764898,16.4812702 76.2887347,16.445174 76.1401633,16.2975078 C76.1850612,16.318017 76.2160816,16.327041 76.2373061,16.327041 C76.3254694,16.327041 76.2307755,16.1646082 76.1164898,16.0029958 C76.0030204,15.8405629 75.8699592,15.6781301 75.8830204,15.6781301 C75.8838367,15.6781301 75.8854694,15.6781301 75.887102,15.6797709 C75.7540408,15.4763197 75.6658776,15.2745092 75.6266939,15.1137171 C75.2887347,14.7814682 74.9205714,14.484495 74.5303673,14.2252588" id="Fill-8" fill="#FFD18B"></path>
                    <polygon id="Fill-10" fill="#E8F3FF" points="67.0527347 32.7591711 32.4062041 43.5207553 25.6829388 24.9566535 59.1066122 10.8200764"></polygon>
                    <polygon id="Fill-12" fill="#FFFFFF" points="67.6368163 32.6804979 32.993551 43.4470042 31.7698776 40.0711909 31.5821224 39.5502574 64.3396735 29.3670325 67.2882449 31.7108232"></polygon>
                    <polygon id="Fill-14" fill="#B8DAF2" points="29.2250612 29.5941924 30.449551 32.970826 28.5997551 33.6443479 27.1515918 29.6573607 25.936898 26.2897511 59.3556735 12.146611 60.8299592 16.2320424"></polygon>
                    <path d="M71.6339592,34.9059095 L71.6339592,34.9059095 C69.7792653,35.5843536 67.7278367,34.6228826 67.0527347,32.7590071 L59.1066122,10.8199123 C58.4315102,8.95603678 59.3882449,6.89445262 61.2429388,6.21600849 C63.0976327,5.53756436 65.1490612,6.49903536 65.8241633,8.36291089 L73.7702857,30.3020057 C74.4453878,32.1658812 73.4886531,34.2274653 71.6339592,34.9059095" id="Fill-16" fill="#E8F3FF"></path>
                    <path d="M72.1912653,34.7857256 C70.3324898,35.4682716 68.2867755,34.5076209 67.6075918,32.6396436 L67.2590204,31.6699689 C67.7953469,31.7323168 68.3488163,31.6789929 68.8941224,31.4812843 C69.5733061,31.2384554 70.1275918,30.8077624 70.5202449,30.2687808 C71.2353469,29.3261782 71.4582041,28.0595304 71.0296327,26.8749194 L74.3267755,30.1883847 C75.0059592,32.0465177 74.0500408,34.1122037 72.1912653,34.7857256" id="Fill-18" fill="#FFFFFF"></path>
                    <path d="M60.6625306,16.1983253 L59.1882449,12.1128939 C58.5180408,10.2539406 59.4739592,8.1882546 61.3237551,7.51473267 C61.7262041,7.36214427 62.1457959,7.29979632 62.5482449,7.29979632 C64.013551,7.29979632 65.3800816,8.19727864 65.9074286,9.66081471 L66.1041633,10.1997963 L66.256,10.6304894 C66.1131429,10.6132617 65.9792653,10.6042376 65.8364082,10.6042376 C65.4339592,10.6042376 65.0233469,10.6756096 64.620898,10.819174 C62.771102,11.5017199 61.8062041,13.5674059 62.4853878,15.4263593 L60.6625306,16.1983253 Z" id="Fill-20" fill="#B8DAF2"></path>
                    <polygon id="Fill-22" fill="#E8F3FF" points="14.3909388 46.2880198 31.1844082 40.1451061 26.9060408 28.3318105 10.1125714 34.4739038"></polygon>
                    <polygon id="Fill-24" fill="#FFFFFF" points="31.7696327 40.0708628 14.9794286 46.2129562 14.363102 44.5246393 13.5320816 42.2259689 28.4724898 36.7573975 29.6969796 40.1340311 31.5818776 39.5499293"></polygon>
                    <polygon id="Fill-26" fill="#B8DAF2" points="13.6593469 39.1125092 14.2675102 40.800826 12.416898 41.4743479 10.969551 37.4873607 10.3622041 35.7990438 27.1515918 29.6569505 28.5997551 33.6439378"></polygon>
                    <polygon id="Fill-28" fill="#E8F3FF" points="5.38293878 47.6713239 13.7796735 44.599867 10.7233469 36.1623847 2.32661224 39.2330212"></polygon>
                    <polygon id="Fill-30" fill="#FFFFFF" points="14.3633469 44.5248034 5.97314286 47.5962603 4.52497959 43.6084526 11.0662041 41.211338 11.6825306 42.8996549 13.5323265 42.226133"></polygon>
                    <polygon id="Fill-32" fill="#B8DAF2" points="2.7802449 40.4849844 2.57942857 40.5588175 5.6357551 48.998761 7.48473469 48.3260594 7.0757551 47.1923112 5.97289796 47.5959321 5.928 47.4720566 5.38269388 47.6714059"></polygon>
                    <polygon id="Fill-34" fill="#A7D0F2" points="10.9698776 37.4873607 2.7804898 40.4849844 5.38293878 47.6714059 5.9282449 47.4720566 4.52497959 43.6089448 11.0662041 41.2110099 11.3102857 41.88043 12.4172245 41.4743479"></polygon>
                    <polygon id="Fill-36" fill="#B8DAF2" points="11.0661224 41.211338 4.52571429 43.6084526 5.92816327 47.4715644 5.97306122 47.5962603 7.07510204 47.1926393 5.87673469 43.8717907 11.3102041 41.8799378"></polygon>
                    <path d="M73.5722449,31.4143423 C73.0881633,31.4143423 72.6081633,31.1985856 72.2865306,30.7859406 C71.7297959,30.073041 71.8546939,29.0410184 72.5640816,28.4823479 C75.9804082,25.7907214 77.277551,21.2335785 75.7910204,17.1448656 C74.3077551,13.0438472 70.3714286,10.3948798 66.077551,10.5450071 C65.1616327,10.5770014 64.4212245,9.86656294 64.3893878,8.96169731 C64.3583673,8.05601132 65.0636735,7.29635078 65.964898,7.2651768 C71.7126531,7.04777935 76.8922449,10.582744 78.8595918,16.0209618 C80.8318367,21.4468741 79.1118367,27.4929844 74.5787755,31.0648656 C74.28,31.3003112 73.924898,31.4143423 73.5722449,31.4143423" id="Fill-38" fill="#2D3666"></path>
                    <path d="M27.7487347,25.8624215 L33.4099592,41.4920679 L64.9324082,31.7009788 L58.1593469,13.0006959 L27.7487347,25.8624215 Z M32.4066939,45.1607525 C31.7373061,45.1607525 31.1128163,44.7456464 30.8728163,44.0811485 L24.149551,25.5170467 C23.8515918,24.6950382 24.2475102,23.7836096 25.0499592,23.4439774 L58.474449,9.30740028 C58.8858776,9.13348232 59.349551,9.13676379 59.7609796,9.31642433 C60.1699592,9.49608487 60.4883265,9.83735785 60.6417959,10.2590269 L68.5862857,32.198942 C68.7397551,32.6197907 68.714449,33.0874003 68.514449,33.4893805 C68.3160816,33.8913607 67.9617959,34.1940764 67.5348571,34.326976 L32.8891429,45.0885601 C32.7291429,45.1377822 32.5658776,45.1607525 32.4066939,45.1607525 L32.4066939,45.1607525 Z" id="Fill-40" fill="#2D3666"></path>
                    <path d="M62.4633469,7.63967468 C62.2429388,7.63967468 62.0200816,7.67823197 61.8004898,7.75780764 C61.3139592,7.93582744 60.9245714,8.29432815 60.7066122,8.76685997 C60.4870204,9.23857143 60.4641633,9.76934936 60.6413061,10.2591089 L68.5866122,32.199024 C68.9531429,33.2088967 70.0666122,33.7306506 71.0764082,33.3639463 C72.0813061,32.9956011 72.6021224,31.8741584 72.2364082,30.8634653 L64.2894694,8.92355021 C64.0037551,8.1327157 63.2568163,7.63967468 62.4633469,7.63967468 M70.4168163,36.7635502 C68.2894694,36.7635502 66.2878367,35.4435785 65.5188571,33.3212871 L57.573551,11.381372 C57.0976327,10.0679632 57.1588571,8.64708628 57.7466122,7.38043847 C58.333551,6.11379066 59.3776327,5.15231966 60.6845714,4.67486563 C61.9923265,4.19577086 63.4062041,4.25811881 64.6657959,4.84960396 C65.9262041,5.43944837 66.8829388,6.48869873 67.3580408,7.8021075 L75.3041633,29.7412023 C76.2862041,32.4516973 74.8902857,35.4599859 72.1931429,36.4468883 L72.1923265,36.4468883 C71.6070204,36.6618246 71.0070204,36.7635502 70.4168163,36.7635502" id="Fill-42" fill="#2D3666"></path>
                    <path d="M12.2050612,35.4552277 L15.3666939,44.184761 L29.0915918,39.1641103 L25.9291429,30.4345771 L12.2050612,35.4552277 Z M14.3911837,47.9289194 C13.7242449,47.9289194 13.0981224,47.5146337 12.8573061,46.848495 L8.57893878,35.0351994 C8.27036735,34.1844781 8.70710204,33.2426959 9.55363265,32.9334173 L26.3462857,26.7896832 C26.7528163,26.6403762 27.2026122,26.6600651 27.5952653,26.8446478 C27.9879184,27.0284102 28.2915918,27.3614795 28.4393469,27.770843 L32.7177143,39.5841386 C33.0262857,40.43486 32.589551,41.3774625 31.7422041,41.6867412 L14.9487347,47.8288345 C14.7650612,47.896925 14.5764898,47.9289194 14.3911837,47.9289194 L14.3911837,47.9289194 Z" id="Fill-44" fill="#2D3666"></path>
                    <path d="M4.41967347,40.214017 L6.35844898,45.5677369 L11.6866122,43.6193635 L9.74783673,38.2648232 L4.41967347,40.214017 Z M5.38293878,49.3127157 C4.716,49.3127157 4.08987755,48.89843 3.8482449,48.231471 L0.792734694,39.7939887 C0.484979592,38.9432673 0.921714286,38.0014851 1.7682449,37.6922065 L10.1649796,34.6207496 C10.5715102,34.4706223 11.0204898,34.4903112 11.4139592,34.6748939 C11.8066122,34.8586563 12.1102857,35.1917256 12.2588571,35.6010891 L15.3143673,44.0393918 C15.6221224,44.8909335 15.1853878,45.8327157 14.3372245,46.1428147 L5.9404898,49.2134512 C5.75681633,49.2807214 5.5682449,49.3127157 5.38293878,49.3127157 L5.38293878,49.3127157 Z" id="Fill-46" fill="#2D3666"></path>
                    <path d="M42.6012245,48.7181132 C41.7,48.7181132 40.9685714,47.9830636 40.9685714,47.0773777 L40.9685714,41.6900226 C40.9685714,40.7835163 41.7,40.0492871 42.6012245,40.0492871 C43.502449,40.0492871 44.2338776,40.7835163 44.2338776,41.6900226 L44.2338776,47.0773777 C44.2338776,47.9830636 43.502449,48.7181132 42.6012245,48.7181132" id="Fill-48" fill="#2D3666"></path>
                    <path d="M46.1755918,50.6693579 C46.1755918,52.6530071 44.5755918,54.2609279 42.6017143,54.2609279 C40.6270204,54.2609279 39.0270204,52.6530071 39.0270204,50.6693579 C39.0270204,48.6857086 40.6270204,47.0777878 42.6017143,47.0777878 C44.5755918,47.0777878 46.1755918,48.6857086 46.1755918,50.6693579" id="Fill-50" fill="#78D5DD"></path>
                    <path d="M42.6012245,48.7181132 C41.5302041,48.7181132 40.66,49.5926252 40.66,50.6689477 C40.66,51.7444498 41.5302041,52.6206025 42.6012245,52.6206025 C43.6722449,52.6206025 44.5432653,51.7444498 44.5432653,50.6689477 C44.5432653,49.5926252 43.6722449,48.7181132 42.6012245,48.7181132 M42.6012245,55.9020736 C39.7302041,55.9020736 37.3946939,53.5550014 37.3946939,50.6689477 C37.3946939,47.7837143 39.7302041,45.4366421 42.6012245,45.4366421 C45.4730612,45.4366421 47.8085714,47.7837143 47.8085714,50.6689477 C47.8085714,53.5550014 45.4730612,55.9020736 42.6012245,55.9020736" id="Fill-52" fill="#2D3666"></path>
                    <path d="M42.6012245,82.8411457 C41.7,82.8411457 40.9685714,82.1060962 40.9685714,81.2004102 L40.9685714,54.261174 C40.9685714,53.355488 41.7,52.6204385 42.6012245,52.6204385 C43.502449,52.6204385 44.2338776,53.355488 44.2338776,54.261174 L44.2338776,81.2004102 C44.2338776,82.1060962 43.502449,82.8411457 42.6012245,82.8411457" id="Fill-54" fill="#2D3666"></path>
                    <path d="M69.4076735,82.8411457 C68.9897143,82.8411457 68.5725714,82.681174 68.2533878,82.3604102 L41.4468571,55.421174 C40.8093061,54.7804668 40.8093061,53.7418812 41.4468571,53.101174 C42.0844082,52.4604668 43.1178776,52.4604668 43.7554286,53.101174 L70.5619592,80.0404102 C71.1995102,80.6811174 71.1995102,81.719703 70.5619592,82.3604102 C70.2427755,82.681174 69.8256327,82.8411457 69.4076735,82.8411457" id="Fill-56" fill="#2D3666"></path>
                    <path d="M15.7947755,82.8411457 C15.3768163,82.8411457 14.9596735,82.681174 14.6404898,82.3604102 C14.0029388,81.719703 14.0029388,80.6811174 14.6404898,80.0404102 L41.4470204,53.101174 C42.0845714,52.4604668 43.1180408,52.4604668 43.7555918,53.101174 C44.3931429,53.7418812 44.3931429,54.7804668 43.7555918,55.421174 L16.9490612,82.3604102 C16.6298776,82.681174 16.2127347,82.8411457 15.7947755,82.8411457" id="Fill-58" fill="#2D3666"></path>
                    <path d="M5.99412245,51.0013607 C5.328,51.0013607 4.70106122,50.587075 4.45942857,49.9209364 L0.181877551,38.1068204 C-0.125877551,37.2552786 0.310857143,36.3143168 1.15820408,36.0042178 C2.00391837,35.6957595 2.94269388,36.1330156 3.25126531,36.9853777 L7.52881633,48.7986733 C7.83657143,49.6510354 7.39983673,50.5919972 6.5524898,50.9020962 C6.368,50.9693663 6.1802449,51.0013607 5.99412245,51.0013607" id="Fill-60" fill="#2D3666"></path>
                    <path d="M46.4471837,3.22437341 C46.4243265,3.24980481 46.4006531,3.27441584 46.3745306,3.29738614 C46.4006531,3.32035644 46.4243265,3.3441471 46.4471837,3.37039887 C46.4700408,3.3441471 46.4937143,3.32035644 46.5198367,3.29738614 C46.4937143,3.27441584 46.4700408,3.24980481 46.4471837,3.22437341" id="Fill-62" fill="#9AE0E6"></path>
                    <path d="M46.447102,0.0157510608 C46.094449,0.0157510608 45.7842449,0.240531825 45.6732245,0.576882603 L45.1899592,2.03385573 L43.7401633,2.51951344 C43.4054694,2.63108345 43.1817959,2.9428232 43.1817959,3.29722207 C43.1817959,3.65162093 43.4054694,3.96336068 43.7401633,4.07575106 L45.1891429,4.56140877 L45.6732245,6.01756153 C45.7842449,6.35391231 46.094449,6.57869307 46.447102,6.57869307 C46.7997551,6.57869307 47.1099592,6.35391231 47.2209796,6.01756153 L47.7050612,4.56140877 L49.1540408,4.07575106 C49.4887347,3.96336068 49.7124082,3.65162093 49.7124082,3.29722207 C49.7124082,2.9428232 49.4887347,2.63108345 49.1540408,2.51951344 L47.7042449,2.03303536 L47.2209796,0.576882603 C47.1099592,0.240531825 46.7997551,0.0157510608 46.447102,0.0157510608 M46.374449,3.29722207 C46.4005714,3.27425177 46.4242449,3.2504611 46.447102,3.22420934 C46.4699592,3.2504611 46.4936327,3.27425177 46.5197551,3.29722207 C46.4936327,3.32019236 46.4699592,3.34480339 46.447102,3.37023479 C46.4242449,3.34480339 46.4005714,3.32019236 46.374449,3.29722207" id="Fill-64" fill="#9AE0E6"></path>
                    <path d="M14.6102857,19.8378048 L14.5686531,19.9641414 C14.4878367,20.208611 14.2951837,20.4013975 14.0527347,20.4826139 L13.9262041,20.525273 L14.0527347,20.5671117 C14.2951837,20.6483281 14.4878367,20.8419349 14.5686531,21.0864045 L14.6102857,21.2119208 L14.6527347,21.0864045 C14.733551,20.8419349 14.9253878,20.6483281 15.1686531,20.5671117 L15.2943673,20.525273 L15.1686531,20.4826139 C14.9253878,20.4013975 14.733551,20.208611 14.6527347,19.9641414 L14.6102857,19.8378048" id="Fill-66" fill="#9AE0E6"></path>
                    <path d="M14.6106939,16.4233522 C14.2580408,16.4233522 13.9470204,16.648133 13.836,16.9836634 L13.1486531,19.0559123 L11.0874286,19.746662 C10.7519184,19.8590523 10.5290612,20.1707921 10.5290612,20.5251909 C10.5290612,20.8795898 10.7519184,21.1913296 11.0874286,21.3037199 L13.1486531,21.9944696 L13.836,24.0658982 C13.9470204,24.4022489 14.2580408,24.6270297 14.6106939,24.6270297 C14.9633469,24.6270297 15.273551,24.4022489 15.3845714,24.0658982 L16.0719184,21.9936492 L18.1339592,21.3037199 C18.4678367,21.1913296 18.6923265,20.8795898 18.6923265,20.5251909 C18.6923265,20.1707921 18.4678367,19.8590523 18.1339592,19.746662 L16.0719184,19.0559123 L15.3845714,16.9836634 C15.273551,16.648133 14.9633469,16.4233522 14.6106939,16.4233522 M14.5682449,19.9640594 L14.6106939,19.8377228 L14.6523265,19.9640594 C14.7331429,20.208529 14.9249796,20.4013154 15.1682449,20.4833522 L15.2939592,20.5251909 L15.1682449,20.5670297 C14.9249796,20.6490665 14.7331429,20.8418529 14.6523265,21.0863225 L14.6106939,21.2126591 L14.5682449,21.0863225 C14.4874286,20.8418529 14.2955918,20.6490665 14.0523265,20.5670297 L13.9266122,20.5251909 L14.0523265,20.4833522 C14.2955918,20.4013154 14.4874286,20.208529 14.5682449,19.9640594" id="Fill-68" fill="#9AE0E6"></path>
                    <path d="M22.7736327,2.47710042 C21.8756735,2.47710042 21.1409796,3.2154314 21.1409796,4.11783593 C21.1409796,5.02024045 21.8756735,5.75857143 22.7736327,5.75857143 C23.6715918,5.75857143 24.4062857,5.02024045 24.4062857,4.11783593 C24.4062857,3.2154314 23.6715918,2.47710042 22.7736327,2.47710042" id="Fill-70" fill="#9AE0E6"></path>
                    <path d="M75.0186939,64.1378274 L74.9770612,64.2641641 C74.8954286,64.5086337 74.7035918,64.7014201 74.4603265,64.7826365 L74.3346122,64.8252956 L74.4603265,64.8671344 C74.7035918,64.9483508 74.8954286,65.1411372 74.9770612,65.3856068 L75.0186939,65.5119434 L75.0603265,65.3856068 C75.1411429,65.1411372 75.3329796,64.9483508 75.5762449,64.8671344 L75.7027755,64.8252956 L75.5762449,64.7826365 C75.3329796,64.7014201 75.1411429,64.5086337 75.0603265,64.2641641 L75.0186939,64.1378274" id="Fill-72" fill="#9AE0E6"></path>
                    <path d="M75.0186939,60.7233748 C74.6660408,60.7233748 74.3550204,60.9481556 74.244,61.283686 L73.5566531,63.3559349 L71.4954286,64.0466846 C71.1607347,64.159075 70.9370612,64.4708147 70.9370612,64.8252136 C70.9370612,65.1796124 71.1607347,65.4913522 71.4954286,65.6029222 L73.5566531,66.2936719 L74.244,68.3659208 C74.3550204,68.7022716 74.6660408,68.9270523 75.0186939,68.9270523 C75.3713469,68.9270523 75.681551,68.7022716 75.7925714,68.3659208 L76.4799184,66.2936719 L78.5419592,65.6029222 C78.8758367,65.4913522 79.1003265,65.1796124 79.1003265,64.8252136 C79.1003265,64.4708147 78.8758367,64.159075 78.5419592,64.0466846 L76.4799184,63.3559349 L75.7925714,61.283686 C75.681551,60.9481556 75.3713469,60.7233748 75.0186939,60.7233748 M74.9770612,64.264082 L75.0186939,64.1377454 L75.0603265,64.264082 C75.1411429,64.5085516 75.3329796,64.701338 75.5762449,64.7825545 L75.7027755,64.8252136 L75.5762449,64.8670523 C75.3329796,64.9482687 75.1411429,65.1410552 75.0603265,65.3855248 L75.0186939,65.5126818 L74.9770612,65.3855248 C74.8954286,65.1410552 74.7035918,64.9482687 74.4603265,64.8670523 L74.3346122,64.8252136 L74.4603265,64.7825545 C74.7035918,64.701338 74.8954286,64.5085516 74.9770612,64.264082" id="Fill-74" fill="#9AE0E6"></path>
                    <path d="M58.692,51.6990014 C57.7907755,51.6990014 57.0593469,52.4340509 57.0593469,53.3397369 C57.0593469,54.2462433 57.7907755,54.9804724 58.692,54.9804724 C59.5940408,54.9804724 60.3246531,54.2462433 60.3246531,53.3397369 C60.3246531,52.4340509 59.5940408,51.6990014 58.692,51.6990014" id="Fill-76" fill="#9AE0E6"></path>
                    <path d="M75.0186939,43.4956521 C74.1207347,43.4956521 73.3860408,44.233983 73.3860408,45.1363876 C73.3860408,46.0387921 74.1207347,46.7771231 75.0186939,46.7771231 C75.9166531,46.7771231 76.6513469,46.0387921 76.6513469,45.1363876 C76.6513469,44.233983 75.9166531,43.4956521 75.0186939,43.4956521" id="Fill-78" fill="#9AE0E6"></path>
                    <path d="M9.71257143,68.1065205 C8.81053061,68.1065205 8.07991837,68.8407496 8.07991837,69.747256 C8.07991837,70.652942 8.81053061,71.3879915 9.71257143,71.3879915 C10.6137959,71.3879915 11.3452245,70.652942 11.3452245,69.747256 C11.3452245,68.8407496 10.6137959,68.1065205 9.71257143,68.1065205" id="Fill-80" fill="#9AE0E6"></path>
                    <path d="M23.5900408,55.7276634 C23.5671837,55.7539151 23.5426939,55.7777058 23.5173878,55.8006761 C23.5426939,55.8236464 23.5671837,55.8482574 23.5900408,55.8736888 C23.612898,55.8482574 23.6373878,55.8236464 23.6626939,55.8006761 C23.6373878,55.7777058 23.612898,55.7539151 23.5900408,55.7276634" id="Fill-82" fill="#9AE0E6"></path>
                    <path d="M23.5901224,52.5195332 C23.2374694,52.5195332 22.9272653,52.744314 22.8154286,53.0798444 L22.3321633,54.5368175 L20.8823673,55.0224752 C20.5484898,55.1340453 20.3248163,55.4466054 20.3248163,55.8010042 C20.3248163,56.1554031 20.5484898,56.4671429 20.8823673,56.5787129 L22.3321633,57.0643706 L22.8154286,58.5213437 C22.9272653,58.8576945 23.2374694,59.0824752 23.5901224,59.0824752 C23.9427755,59.0824752 24.2529796,58.8576945 24.364,58.5213437 L24.8472653,57.0643706 L26.2970612,56.5787129 C26.6317551,56.4671429 26.8554286,56.1554031 26.8554286,55.8010042 C26.8554286,55.4466054 26.6317551,55.1340453 26.2970612,55.0224752 L24.8472653,54.5368175 L24.364,53.0798444 C24.2529796,52.744314 23.9427755,52.5195332 23.5901224,52.5195332 M23.5174694,55.8010042 C23.5427755,55.7780339 23.5672653,55.7534229 23.5901224,55.7279915 C23.6129796,55.7534229 23.6366531,55.7780339 23.6627755,55.8010042 C23.6366531,55.8231542 23.6129796,55.8477652 23.5901224,55.874017 C23.5672653,55.8477652 23.5427755,55.8231542 23.5174694,55.8010042" id="Fill-84" fill="#9AE0E6"></path>
                </g>
            </g>
        </g>
    </g>
</svg>