<?xml version="1.0" encoding="UTF-8"?>
<svg width="369px" height="368px" viewBox="0 0 369 368" version="1.1" xmlns="http://www.w3.org/2000/svg" xmlns:xlink="http://www.w3.org/1999/xlink">
    <!-- Generator: Sketch 44.1 (41455) - http://www.bohemiancoding.com/sketch -->
    <title>planet-xl</title>
    <desc>Created with Sketch.</desc>
    <defs></defs>
    <g id="______Slice" stroke="none" stroke-width="1" fill="none" fill-rule="evenodd">
        <g id="about" transform="translate(-1382.000000, -245.000000)">
            <g id="section">
                <g id="about-hero">
                    <g id="planet-xl" transform="translate(1382.784684, 245.000000)">
                        <path d="M182.634487,70.6176576 C248.156333,70.6176576 301.273026,123.734351 301.273026,189.256196 C301.273026,254.778042 248.156333,307.894735 182.634487,307.894735 C117.112642,307.894735 63.9959486,254.778042 63.9959486,189.256196 C63.9959486,123.734351 117.112642,70.6176576 182.634487,70.6176576" id="fill-1" fill="#4CA6FF"></path>
                        <path d="M89.1949266,122.795109 C95.1309919,123.434072 105.172311,125.400621 109.602013,131.469114 C110.714405,132.31665 111.697679,133.289993 112.495555,134.399074 C114.856077,136.200088 116.676956,138.510949 117.339093,141.54023 C117.627123,142.818156 117.94826,143.986829 118.309125,145.04956 C118.838836,146.552613 119.418206,147.893442 120.077033,149.042251 C139.739215,123.788316 169.151376,106.499898 202.685344,103.166034 C200.447318,98.7760604 199.235606,93.8663087 199.371344,88.9234501 C199.470665,84.2553787 200.659202,79.4250835 199.106489,75.0218671 L199.209121,74.2504766 C194.696652,73.7306985 190.104726,73.469154 185.469761,73.469154 C145.834193,73.469154 110.704473,92.916141 89.1949266,122.795109 Z" id="fill-3" fill="#4C6AFF" opacity="0.5"></path>
                        <path d="M268.733258,119.473164 C276.182308,134.983741 280.347155,152.364858 280.347155,170.72925 C280.347155,236.280891 227.247014,289.384342 161.692062,289.384342 C149.919252,289.384342 138.543725,287.672716 127.810472,284.474591 C131.432365,290.116005 136.176583,295.575331 142.162308,300.806219 C142.513241,300.938647 142.867485,301.067764 143.225039,301.190259 C155.550734,305.530572 168.813354,307.891094 182.625549,307.894404 C194.868476,307.891094 206.684325,306.037108 217.794997,302.597302 C266.14761,287.613124 301.267398,242.538093 301.27402,189.262487 L301.27402,189.209516 C301.27402,189.123438 301.270709,189.03736 301.270709,188.947971 L301.270709,188.779126 L301.270709,188.659941 C301.154835,165.849294 294.583117,144.548322 283.330085,126.501756 C282.273976,125.064917 281.184759,123.657874 280.065746,122.274006 C279.9896,122.224346 279.916765,122.177996 279.84393,122.131647 C276.00022,120.80075 272.305491,119.966456 268.733258,119.473164" id="fill-5" fill="#4CE2FF"></path>
                        <path d="M217.687731,268.285984 C207.931131,279.184772 191.188977,280.111765 180.290189,270.358475 C169.38809,260.601875 168.461097,243.859721 178.217697,232.957622 C187.970987,222.058834 204.716452,221.131841 215.61524,230.88513 C226.514028,240.641731 227.441021,257.387196 217.687731,268.285984" id="fill-7" fill="#E6F0F9"></path>
                        <path d="M199.535555,71.8075192 C233.201951,76.6080182 262.339324,95.5451591 280.680541,122.427953 C267.775475,117.753261 256.542308,118.686875 246.093773,119.6238 C236.353727,120.494511 227.295682,121.368533 218.20784,117.693668 C206.918391,113.124917 199.038951,101.140223 199.37002,88.9237812 C199.469341,84.2557097 200.661189,79.4254145 199.105165,75.0221982 L199.535555,71.8075192" id="fill-9" fill="#FFC725"></path>
                        <path d="M202.390362,74.6623263 L201.959972,77.8736946 C203.515996,82.2769109 202.324148,87.1105168 202.224827,91.7785882 C202.158613,94.5264601 202.489682,97.2743319 203.218034,99.9228831 C203.992735,99.8666014 204.7873,99.8798441 205.568623,99.8368052 C205.730847,100.856497 205.893071,101.87619 206.164547,102.872707 C208.945526,102.670755 211.762922,102.574745 214.577008,102.574745 C220.301189,102.574745 225.962467,102.972028 231.491318,103.766593 L232.31899,103.89571 C233.083759,103.99503 233.875014,104.127458 234.636472,104.259886 C238.112696,104.85581 241.522705,105.587472 244.899608,106.478047 C246.59137,106.941544 248.276511,107.408351 249.931855,107.938061 C250.928373,108.236023 251.888472,108.563781 252.878368,108.898161 C255.526919,109.788736 258.175471,110.781943 260.757808,111.877781 C262.115191,112.473705 263.472573,113.069629 264.796849,113.695349 C266.021803,114.261477 267.213651,114.820983 268.4055,115.450014 C269.795989,116.145259 271.186478,116.910028 272.543861,117.668176 C273.073571,117.933031 273.570174,118.230993 274.066778,118.532266 C275.026877,119.095083 275.95387,119.624793 276.847756,120.220717 C277.774749,120.750427 278.635528,121.313244 279.529414,121.938965 C279.635356,122.001868 279.737988,122.064771 279.84393,122.130985 C279.89359,122.150849 279.946561,122.167402 279.996222,122.183956 C280.221348,122.263412 280.446475,122.342869 280.671602,122.425636 L280.678223,122.428947 C276.937145,116.939824 272.742502,111.781771 268.150576,107.011068 C268.090984,106.954786 268.034702,106.895194 267.97511,106.842223 L267.574517,106.474737 C266.319765,105.249782 265.025286,104.061244 263.737428,102.93561 L262.906445,102.207258 C261.68149,101.147838 260.426739,100.118214 259.165367,99.0952108 C257.314692,97.6385077 255.427599,96.2149114 253.441185,94.8244221 C252.050696,93.8643223 250.593993,92.9042225 249.13729,91.9441227 C243.638235,88.4678993 237.84453,85.3856479 231.78928,82.8397281 C231.060928,82.541766 230.332576,82.243804 229.600914,81.945842 C225.432757,80.2573907 221.195075,78.8337944 216.824966,77.6750533 C215.93108,77.4101982 215.004087,77.1784499 214.077094,76.9467017 C213.282528,76.7480604 212.52107,76.549419 211.726505,76.3838846 C210.799512,76.1852432 209.839412,75.953495 208.876001,75.7548537 L208.415816,75.6919506 C207.455716,75.4899986 206.495616,75.3244641 205.532206,75.1589297 C204.575416,74.9933952 203.58221,74.8278608 202.62211,74.6954332 L202.390362,74.6623263" id="fill-11" fill="#FF8870" opacity="0.5"></path>
                        <path d="M141.962011,156.165529 C152.655537,161.624855 157.389822,174.076357 136.830444,203.342847 C113.754942,236.184881 109.252405,272.036332 142.160653,300.806219 C96.5724659,284.285881 63.9952865,240.588098 63.9952865,189.272419 C63.9952865,164.508465 71.5767642,141.495866 84.5546649,122.492512 C84.5546649,122.492512 108.656481,122.591833 111.53678,135.735268 C115.675141,154.576399 128.288866,149.179976 141.962011,156.165529" id="fill-13" fill="#FFC725"></path>
                        <path d="M87.4101342,125.34765 L87.1121722,125.78135 C86.4467237,126.771246 85.7878966,127.764453 85.1257588,128.790767 C84.3311934,130.048828 83.569735,131.343308 82.8049658,132.664273 C82.0799249,133.889228 81.3846803,135.183707 80.6894356,136.441769 C79.3320531,138.987689 78.0739913,141.603133 76.8821433,144.251684 C76.3160155,145.609066 75.7200914,146.936653 75.1936919,148.290724 C72.4127132,155.312696 70.2938722,162.626008 68.870276,170.210796 C68.6385278,171.43244 68.4067795,172.657395 68.2379344,173.915457 C68.0094969,175.405267 67.8108555,176.895077 67.6453211,178.388198 C67.2811453,181.364507 67.0493971,184.377234 66.9500764,187.423068 L66.9500764,187.522389 C66.8838626,189.045306 66.8507557,190.568222 66.8507557,192.091139 L66.8507557,192.124246 C66.8507557,193.448522 66.8838626,194.805904 66.9500764,196.13018 C66.9500764,196.99427 66.9831833,197.851738 67.0493971,198.67941 C67.0493971,199.080004 67.082504,199.507083 67.1156108,199.907676 C67.1818246,200.897572 67.2480384,201.857672 67.3473591,202.817772 L67.4135728,203.582541 C67.5460004,205.105458 67.7082242,206.595268 67.9432831,208.081767 C68.0392931,209.041867 68.1717206,210.001967 68.3405658,210.962066 C68.572314,212.51809 68.870276,214.041007 69.1649273,215.563924 C69.3999862,216.825297 69.6946375,218.083358 69.9959102,219.34142 C70.6547373,222.22172 71.4526134,225.065601 72.3464994,227.882998 C72.5782476,228.641146 72.8099959,229.372808 73.0715403,230.101159 C73.2403854,230.594452 73.4059199,231.091055 73.6045612,231.624076 C73.8694163,232.451749 74.1673783,233.279421 74.4984472,234.107093 C74.9255261,235.229417 75.3592263,236.325255 75.7863052,237.417782 C76.3822292,238.808271 76.9814639,240.19545 77.6104948,241.556143 C78.173312,242.810894 78.769236,244.006053 79.36516,245.227697 C80.6563287,247.810035 82.046818,250.326158 83.5366281,252.809175 C83.9339108,253.471313 84.3311934,254.13345 84.761583,254.798899 C85.2879825,255.689474 85.8541103,256.550253 86.4136168,257.444139 C87.0459584,258.404239 87.7080962,259.364339 88.4033408,260.32775 C89.6249851,262.045997 90.8863576,263.770866 92.2106331,265.456007 C92.9058778,266.316786 93.5647049,267.177565 94.2963672,268.008548 C96.1006927,270.190292 97.9944068,272.315754 99.9808201,274.378313 C105.003135,279.254958 110.45584,283.691282 116.279342,287.627691 C116.26941,287.607827 116.256167,287.591273 116.246235,287.57472 L115.98138,287.177437 C114.524677,285.025489 113.167294,282.840434 111.843019,280.589166 C111.482154,279.993242 111.147774,279.364211 110.816705,278.73518 C110.157878,277.609546 109.558643,276.450805 108.962719,275.325171 C108.333688,274.067109 107.704657,272.809047 107.14184,271.550985 C105.817565,268.736899 104.59261,265.889707 103.500082,262.946504 C103.036586,261.751346 102.606196,260.559498 102.208914,259.334543 C101.910952,258.506871 101.646097,257.679198 101.414348,256.851526 C101.053483,255.792106 100.722414,254.699578 100.421142,253.607051 C99.5967802,250.660538 98.865118,247.680918 98.2691939,244.668191 C97.9712319,243.145274 97.6732699,241.622357 97.4415217,240.066333 C97.2097735,238.543416 96.9813359,236.987392 96.7826946,235.431369 C96.448315,232.451749 96.1834599,229.439022 96.0841392,226.393188 C95.9848186,224.671629 95.9517117,222.946761 95.9517117,221.228513 L95.9517117,221.195406 C95.9517117,219.672489 95.9848186,218.116465 96.0510323,216.593548 C96.0841392,215.203059 96.1834599,213.842366 96.2827806,212.455187 L96.3158875,211.925477 C96.4152081,210.435667 96.5807426,208.978964 96.746277,207.489154 C96.8787046,206.297306 97.0475497,205.072351 97.2097735,203.880503 C97.2428804,203.582541 97.2759873,203.317686 97.342201,203.019724 C97.5408424,201.695448 97.7725906,200.371172 98.0043388,199.080004 C98.0705526,198.715828 98.1367664,198.351652 98.2393977,197.987476 C98.4678353,196.762522 98.7326904,195.50446 99.0306524,194.279505 L99.0306524,194.147077 C99.3617213,192.789695 99.6927902,191.432312 100.090073,190.07493 C100.354928,189.015509 100.65289,187.989196 100.98727,186.929775 C101.185911,186.168317 101.414348,185.436655 101.679204,184.678507 C101.944059,183.784621 102.242021,182.923842 102.57309,182.063063 C102.771731,181.404235 103.003479,180.738787 103.268334,180.109756 C103.996686,178.15645 104.758144,176.23625 105.585817,174.31605 C105.916885,173.521485 106.247954,172.72692 106.645237,171.965461 L106.711451,171.799927 C107.674861,169.681086 108.697864,167.595352 109.790392,165.542725 C110.422733,164.350877 111.08156,163.192135 111.747009,162.033394 L111.909232,161.768539 C112.604477,160.576691 113.299722,159.41795 114.028073,158.259209 C114.230025,157.961247 114.428667,157.630178 114.590891,157.332216 C115.219921,156.372116 115.848952,155.412016 116.51109,154.451917 C117.702938,152.697251 118.927893,150.975693 120.219062,149.287242 C120.172712,149.207785 120.123052,149.128329 120.076702,149.042251 C116.193264,146.920099 113.190469,143.258477 111.535125,135.736592 C111.333173,134.809599 111.025279,133.94882 110.627996,133.144323 C110.333345,132.55502 109.989033,131.995513 109.601682,131.469114 C101.722243,125.417174 87.4101342,125.34765 87.4101342,125.34765" id="fill-15" fill="#FF8870" opacity="0.5"></path>
                        <path d="M109.252736,43.0392875 C109.252736,61.320912 94.4307812,76.1461771 76.145846,76.1461771 C57.8609109,76.1461771 43.0389565,61.320912 43.0389565,43.0392875 C43.0389565,24.7543524 57.8609109,9.92908726 76.145846,9.92908726 C94.4307812,9.92908726 109.252736,24.7543524 109.252736,43.0392875" id="fill-17" fill="#E6F0F9"></path>
                        <path d="M106.470764,29.8289764 C102.431723,28.0412044 97.9656038,27.0479977 93.2611148,27.0479977 C74.9530048,27.0479977 60.1542252,41.8467774 60.1542252,60.1548873 C60.1542252,64.8560656 61.1474319,69.3254957 62.9385146,73.3612256 C51.2186757,68.2991821 43.0379633,56.6124501 43.0379633,43.0386254 C43.0379633,24.7636223 57.8698498,9.92842512 76.1448528,9.92842512 C89.7186776,9.92842512 101.40541,18.1091375 106.470764,29.8289764" id="fill-19" fill="#B4D4EC"></path>
                        <path d="M62.9030902,56.2820434 C61.9860294,56.2820434 61.1153182,56.4674419 60.3207528,56.8018215 C60.2115001,57.904281 60.1552184,59.0232938 60.1552184,60.1555494 C60.1552184,63.3569857 60.6154041,66.4458585 61.4728726,69.3691968 C61.9330583,69.4685175 62.4131082,69.5247992 62.9030902,69.5247992 C66.5614015,69.5247992 69.5244681,66.5584219 69.5244681,62.9034213 C69.5244681,59.24511 66.5614015,56.2820434 62.9030902,56.2820434" id="fill-21" fill="#D0E3F6"></path>
                        <path d="M60.321415,56.8028147 C57.947651,57.8092642 56.2823744,60.163164 56.2823744,62.9044145 C56.2823744,66.0694331 58.5038467,68.7179843 61.4735347,69.37019 C60.6160663,66.4468517 60.1558805,63.3546682 60.1558805,60.1565427 C60.1558805,59.024287 60.2121622,57.9052742 60.321415,56.8028147" id="fill-23" fill="#A3CAEB"></path>
                        <path d="M59.5924013,16.5537759 C57.7880758,16.5537759 56.093003,17.0371364 54.6362999,17.8747408 C53.3252671,18.9970643 52.1036228,20.2153978 50.98461,21.5264307 C50.143695,22.9864445 49.6603344,24.6782066 49.6603344,26.4858427 C49.6603344,31.9683437 54.1065896,36.4179096 59.5924013,36.4179096 C65.0782129,36.4179096 69.5244681,31.9683437 69.5244681,26.4858427 C69.5244681,21.0000311 65.0782129,16.5537759 59.5924013,16.5537759" id="fill-25" fill="#A3CAEB"></path>
                        <path d="M93.262108,27.0486599 C92.4046395,27.0486599 91.5537925,27.0817667 90.7095668,27.1413592 C91.9179682,28.7536647 93.8414785,29.7965317 96.0099798,29.7965317 C97.8209267,29.7965317 99.4630284,29.0648694 100.658187,27.8895749 C98.2844231,27.3400005 95.8047171,27.0486599 93.262108,27.0486599" id="fill-27" fill="#D0E3F6"></path>
                        <path d="M96.0036895,16.5537759 C92.3486889,16.5570866 89.3889329,19.5201532 89.3889329,23.1751538 C89.3889329,24.6616531 89.8789149,26.035589 90.7098978,27.1413592 C91.5541235,27.0817667 92.4049706,27.0486599 93.262439,27.0486599 C95.8050482,27.0486599 98.2814435,27.3400005 100.658518,27.8895749 C101.87023,26.6944161 102.625067,25.035761 102.631689,23.2016393 C100.751217,20.682205 98.5165024,18.4408686 96.0036895,16.5537759" id="fill-29" fill="#A3CAEB"></path>
                        <path d="M89.3886019,36.4179096 C85.7302906,36.4179096 82.767224,39.3842869 82.767224,43.0392875 C82.767224,46.6942881 85.7302906,49.6606654 89.3886019,49.6606654 C93.0436025,49.6606654 96.0099798,46.6942881 96.0099798,43.0392875 C96.0099798,39.3842869 93.0436025,36.4179096 89.3886019,36.4179096" id="fill-31" fill="#D0E3F6"></path>
                        <path d="M222.246219,240.025281 C212.049297,235.522744 199.66732,237.840226 191.854094,246.577134 C184.703006,254.559205 183.27941,265.646702 187.285343,274.853728 C184.802327,273.75789 182.451737,272.26808 180.29979,270.347881 C169.374516,260.617766 168.447523,243.862369 178.214056,232.973513 C187.980588,222.044929 204.699567,221.121247 215.624841,230.884468 C218.538247,233.499913 220.756409,236.645067 222.246219,240.025281" id="fill-33" fill="#B4D4EC"></path>
                        <path d="M301.350496,189.256196 C301.350496,254.821081 248.197385,307.970881 182.635812,307.970881 C117.067617,307.970881 63.9178164,254.821081 63.9178164,189.256196 C63.9178164,123.688002 117.067617,70.5415118 182.635812,70.5415118 C248.197385,70.5415118 301.350496,123.688002 301.350496,189.256196 Z" id="stroke-35" stroke="#17317B" stroke-width="8" stroke-linecap="round" stroke-linejoin="round"></path>
                        <path d="M301.350496,189.256196 C301.350496,254.821081 248.197385,307.970881 182.635812,307.970881 C117.067617,307.970881 63.9178164,254.821081 63.9178164,189.256196 C63.9178164,123.688002 117.067617,70.5415118 182.635812,70.5415118 C248.197385,70.5415118 301.350496,123.688002 301.350496,189.256196 Z" id="stroke-37" stroke="#17317B" stroke-width="8" stroke-linecap="round" stroke-linejoin="round"></path>
                        <path d="M84.5553271,122.492843 C84.5553271,122.492843 108.657143,122.592164 111.534131,135.735599 C115.672493,154.573419 128.289528,149.180307 141.962674,156.16586" id="stroke-39" stroke="#17317B" stroke-width="8" stroke-linecap="round" stroke-linejoin="round"></path>
                        <path d="M141.962011,156.165529 C152.655537,161.624855 157.389822,174.076357 136.830444,203.342847 C113.754942,236.184881 109.252405,272.036332 142.160653,300.806219" id="stroke-41" stroke="#17317B" stroke-width="8" stroke-linecap="round" stroke-linejoin="round"></path>
                        <path d="M280.679548,122.427953 C267.777793,117.753261 256.541315,118.686875 246.09278,119.6238 C236.352733,120.494511 227.294688,121.368533 218.206847,117.693668 C206.917398,113.124917 199.037958,101.140223 199.369027,88.9237812 C199.468348,84.2557097 200.660196,79.4254145 199.104172,75.0221982 L199.534561,71.8075192" id="stroke-43" stroke="#17317B" stroke-width="8" stroke-linecap="round" stroke-linejoin="round"></path>
                        <path d="M232.312368,81.3677957 C268.590898,59.1994225 298.062651,51.253769 309.964578,63.281502 C325.577787,79.0668669 306.488355,124.721268 265.948968,176.076675" id="stroke-45" stroke="#17317B" stroke-width="8" stroke-linecap="round" stroke-linejoin="round"></path>
                        <path d="M98.7373254,314.596894 C78.6679289,322.403499 63.1573511,323.168268 55.3043969,315.225925 C43.3991594,303.194881 51.6692604,273.795963 74.2382271,237.742561" id="stroke-47" stroke="#17317B" stroke-width="8" stroke-linecap="round" stroke-linejoin="round"></path>
                        <path d="M109.320605,43.0392875 C109.320605,61.3606402 94.4688541,76.2157016 76.1441907,76.2157016 C57.822838,76.2157016 42.9710873,61.3606402 42.9710873,43.0392875 C42.9710873,24.7179348 57.822838,9.86287348 76.1441907,9.86287348 C94.4688541,9.86287348 109.320605,24.7179348 109.320605,43.0392875 Z" id="stroke-49" stroke="#17317B" stroke-width="8" stroke-linecap="round" stroke-linejoin="round"></path>
                        <path d="M244.449685,198.644979 L217.219269,229.076832" id="stroke-51" stroke="#17317B" stroke-width="8" stroke-linecap="round" stroke-linejoin="round"></path>
                        <polyline id="stroke-53" stroke="#17317B" stroke-width="8" stroke-linecap="round" stroke-linejoin="round" points="256.756178 235.124137 255.971545 235.359196 224.768302 244.711892"></polyline>
                        <polyline id="stroke-55" stroke="#17317B" stroke-width="8" stroke-linecap="round" stroke-linejoin="round" points="206.832644 190.455659 206.686974 191.263467 200.71118 224.075705"></polyline>
                        <path d="M224.469015,250.542677 C224.469015,265.159369 212.62006,277.008325 198.003368,277.008325 C183.386676,277.008325 171.53772,265.159369 171.53772,250.542677 C171.53772,235.925985 183.386676,224.08034 198.003368,224.08034 C212.62006,224.08034 224.469015,235.925985 224.469015,250.542677 Z" id="stroke-57" stroke="#17317B" stroke-width="8" stroke-linecap="round" stroke-linejoin="round"></path>
                        <path d="M314.515451,268.166137 C310.873693,268.166137 307.894073,271.142446 307.894073,274.784204 C307.894073,278.429272 310.873693,281.405582 314.515451,281.405582 C318.157209,281.405582 321.136829,278.429272 321.136829,274.784204 C321.136829,271.142446 318.157209,268.166137 314.515451,268.166137" id="fill-59" fill="#47E3FF"></path>
                        <path d="M360.865096,188.709602 C357.223339,188.709602 354.243719,191.689222 354.243719,195.33098 C354.243719,198.972737 357.223339,201.952358 360.865096,201.952358 C364.506854,201.952358 367.486474,198.972737 367.486474,195.33098 C367.486474,191.689222 364.506854,188.709602 360.865096,188.709602" id="fill-61" fill="#47E3FF"></path>
                        <path d="M9.93041153,122.495823 C6.28865368,122.495823 3.30903361,125.472132 3.30903361,129.1172 C3.30903361,132.758958 6.28865368,135.735268 9.93041153,135.735268 C13.5754801,135.735268 16.5517894,132.758958 16.5517894,129.1172 C16.5517894,125.472132 13.5754801,122.495823 9.93041153,122.495823" id="fill-68" fill="#47E3FF"></path>
                        <path d="M261.544428,9.92941832 C257.90267,9.92941832 254.92305,12.9090384 254.92305,16.5541069 C254.92305,20.1958648 257.90267,23.1754848 261.544428,23.1754848 C265.186186,23.1754848 268.165806,20.1958648 268.165806,16.5541069 C268.165806,12.9090384 265.186186,9.92941832 261.544428,9.92941832" id="fill-66" fill="#47E3FF"></path>
                        <path d="M142.35797,354.244381 C138.716212,354.244381 135.736592,357.22069 135.736592,360.865759 C135.736592,364.507516 138.716212,367.487137 142.35797,367.487137 C146.003038,367.487137 148.979348,364.507516 148.979348,360.865759 C148.979348,357.22069 146.003038,354.244381 142.35797,354.244381" id="path" fill="#47E3FF"></path>
                        <path d="M344.309996,119.185134 C342.879779,119.185134 341.621717,120.088952 341.171463,121.449645 L339.208225,127.326118 L333.331752,129.286046 C331.974369,129.73961 331.067241,130.997672 331.067241,132.427889 C331.067241,133.858107 331.974369,135.116169 333.331752,135.566423 L339.208225,137.52635 L341.171463,143.402823 C341.621717,144.763516 342.879779,145.670645 344.309996,145.670645 C345.743525,145.670645 346.998276,144.763516 347.45184,143.402823 L349.411768,137.52635 L355.291552,135.566423 C356.648934,135.116169 357.552752,133.858107 357.552752,132.427889 C357.552752,130.997672 356.648934,129.73961 355.291552,129.286046 L349.411768,127.326118 L347.45184,121.449645 C346.998276,120.088952 345.743525,119.185134 344.309996,119.185134" id="fill-70" fill="#9AE0E6"></path>
                        <path d="M254.92305,324.447849 C253.492832,324.447849 252.23477,325.351667 251.781206,326.71236 L248.993606,335.07185 L240.634116,337.85945 C239.276734,338.309704 238.369605,339.571076 238.369605,341.001294 C238.369605,342.431511 239.276734,343.689573 240.634116,344.139827 L248.993606,346.927427 L251.781206,355.290227 C252.23477,356.64761 253.492832,357.554739 254.92305,357.554739 C256.353267,357.554739 257.611329,356.64761 258.064894,355.290227 L260.852494,346.927427 L269.211983,344.139827 C270.569366,343.689573 271.476495,342.431511 271.476495,341.001294 C271.476495,339.571076 270.569366,338.309704 269.211983,337.85945 L260.852494,335.07185 L258.064894,326.71236 C257.611329,325.351667 256.353267,324.447849 254.92305,324.447849" id="fill-72" fill="#9AE0E6"></path>
                        <path d="M175.466515,0.000331068896 C174.036297,0.000331068896 172.778235,0.904149155 172.324671,2.26484232 L169.537071,10.6243319 L161.177581,13.411932 C159.820199,13.8621857 158.91307,15.1202475 158.91307,16.5537759 C158.91307,17.9839935 159.820199,19.2420553 161.177581,19.692309 L169.537071,22.4799091 L172.324671,30.8393987 C172.778235,32.2000919 174.036297,33.10391 175.466515,33.10391 C176.896732,33.10391 178.154794,32.2000919 178.605048,30.8393987 L181.395959,22.4799091 L189.755448,19.692309 C191.112831,19.2420553 192.01996,17.9839935 192.01996,16.5537759 C192.01996,15.1202475 191.112831,13.8621857 189.755448,13.411932 L181.392648,10.6243319 L178.605048,2.26484232 C178.154794,0.904149155 176.896732,0.000331068896 175.466515,0.000331068896" id="fill-74" fill="#9AE0E6"></path>
                        <path d="M13.2427558,185.398913 C11.8125382,185.398913 10.5544764,186.302731 10.100912,187.663424 L8.14098415,193.539897 L2.26451125,195.499825 C0.907128775,195.953389 0,197.20814 0,198.641669 C0,200.071886 0.907128775,201.329948 2.26451125,201.780202 L8.14098415,203.74013 L10.100912,209.619913 C10.5544764,210.977296 11.8125382,211.881114 13.2427558,211.881114 C14.6729735,211.881114 15.9310353,210.977296 16.3845997,209.619913 L18.3412168,203.74013 L24.2210004,201.780202 C25.5783829,201.329948 26.4855117,200.071886 26.4855117,198.641669 C26.4855117,197.20814 25.5783829,195.953389 24.2210004,195.499825 L18.3412168,193.539897 L16.3845997,187.663424 C15.9310353,186.302731 14.6729735,185.398913 13.2427558,185.398913" id="fill-76" fill="#9AE0E6"></path>
                    </g>
                </g>
            </g>
        </g>
    </g>
</svg>