<?xml version="1.0" encoding="UTF-8"?>
<svg width="120px" height="120px" viewBox="0 0 120 120" version="1.1" xmlns="http://www.w3.org/2000/svg" xmlns:xlink="http://www.w3.org/1999/xlink">
    <!-- Generator: Sketch 44 (41411) - http://www.bohemiancoding.com/sketch -->
    <title>home-01</title>
    <desc>Created with Sketch.</desc>
    <defs>
        <rect id="path-1" x="0" y="0" width="260" height="276" rx="3"></rect>
        <filter x="-10.8%" y="-7.2%" width="121.5%" height="120.3%" filterUnits="objectBoundingBox" id="filter-2">
            <feOffset dx="0" dy="8" in="SourceAlpha" result="shadowOffsetOuter1"></feOffset>
            <feGaussianBlur stdDeviation="8" in="shadowOffsetOuter1" result="shadowBlurOuter1"></feGaussianBlur>
            <feColorMatrix values="0 0 0 0 0   0 0 0 0 0.0274509804   0 0 0 0 0.2  0 0 0 0.1 0" type="matrix" in="shadowBlurOuter1"></feColorMatrix>
        </filter>
    </defs>
    <g id="_____Page" stroke="none" stroke-width="1" fill="none" fill-rule="evenodd">
        <g id="home" transform="translate(-240.000000, -3927.000000)">
            <g id="section-5" transform="translate(-2.000000, 3627.000000)">
                <rect id="background" fill="#4C6AFF" x="0" y="0" width="1440" height="672"></rect>
                <g id="Group" transform="translate(172.000000, 244.000000)">
                    <g id="n1">
                        <g id="Rectangle">
                            <use fill="black" fill-opacity="1" filter="url(#filter-2)" xlink:href="#path-1"></use>
                            <use fill="#FFFFFF" fill-rule="evenodd" xlink:href="#path-1"></use>
                        </g>
                        <g id="Planet" transform="translate(70.000000, 56.000000)">
                            <rect id="Rectangle-14-Copy-3" x="0" y="0" width="120" height="120"></rect>
                            <path d="M102,29 C102,25.687 99.313,23 96,23 C92.687,23 90,25.687 90,29 C90,32.313 92.687,35 96,35 C99.313,35 102,32.313 102,29" id="Fill-240" fill="#7AC9D0"></path>
                            <path d="M99.3282,26.3276 C100.1192,26.3276 100.8732,26.4846 101.5642,26.7636 C100.6772,24.5586 98.5222,22.9996 96.0002,22.9996 C92.6862,22.9996 90.0002,25.6866 90.0002,28.9996 C90.0002,31.5226 91.5582,33.6776 93.7632,34.5646 C93.4852,33.8726 93.3282,33.1196 93.3282,32.3276 C93.3282,29.0146 96.0142,26.3276 99.3282,26.3276" id="Fill-241" fill="#57B9C3"></path>
                            <path d="M92.6968,53.7129 C87.5508,34.5079 67.8108,23.1109 48.6058,28.2569 C29.4018,33.4029 18.0048,53.1429 23.1508,72.3479 C28.2968,91.5529 48.0368,102.9499 67.2408,97.8039 C86.4458,92.6579 97.8428,72.9179 92.6968,53.7129" id="Fill-242" fill="#7AC9D0"></path>
                            <path d="M92.6973,53.7129 C91.1583,47.9689 88.3063,42.9309 84.5603,38.8179 C82.3393,36.3779 79.8023,34.2639 77.0313,32.5289 C78.4183,33.9979 79.6893,35.5889 80.8393,37.2819 C83.1853,40.7369 85.0103,44.6299 86.1523,48.8909 C91.6283,69.3299 79.4993,90.3379 59.0603,95.8139 C54.6773,96.9879 50.2703,97.3479 45.9933,96.9949 C52.6043,99.3229 59.9603,99.7549 67.2413,97.8039 C86.4463,92.6579 97.8433,72.9179 92.6973,53.7129" id="Fill-243" fill="#ABDBE2"></path>
                            <path d="M77.0313,32.5288 C68.8553,27.4088 58.6593,25.5638 48.6063,28.2568 C29.4013,33.4028 18.0043,53.1428 23.1503,72.3478 C25.9893,82.9408 33.2713,91.1498 42.4503,95.5258 C38.7053,91.4128 35.8533,86.3748 34.3143,80.6308 C29.1683,61.4258 40.5653,41.6858 59.7703,36.5398 C66.9853,34.6068 74.2753,35.0088 80.8393,37.2818 C82.1103,37.7228 83.3503,38.2398 84.5603,38.8178 C82.3393,36.3778 79.8023,34.2638 77.0313,32.5288" id="Fill-244" fill="#49B1BC"></path>
                            <path d="M92.6968,53.7129 C87.5508,34.5079 67.8108,23.1109 48.6058,28.2569 C29.4018,33.4029 18.0048,53.1429 23.1508,72.3479 C28.2968,91.5529 48.0368,102.9499 67.2408,97.8039 C86.4458,92.6579 97.8428,72.9179 92.6968,53.7129 Z" id="Stroke-250" stroke="#17317B" stroke-width="4" stroke-linecap="round"></path>
                            <path d="M52.2066,39.956 C52.0616,39.992 51.9156,40.029 51.7706,40.068 C43.8826,42.182 37.9896,48.024 35.4786,55.19" id="Stroke-251" stroke="#17317B" stroke-width="4" stroke-linecap="round"></path>
                            <path d="M34.1485,63.3808 C34.1665,64.5378 34.2695,65.7058 34.4625,66.8748 C34.5895,67.6438 34.7555,68.4138 34.9615,69.1828" id="Stroke-252" stroke="#17317B" stroke-width="4" stroke-linecap="round"></path>
                            <path d="M21.7408,62.2578 C13.2718,67.1708 8.5198,72.1568 9.5478,75.9928 C11.5548,83.4828 34.8408,83.7518 61.5578,76.5928 C88.2748,69.4338 108.3058,57.5588 106.2998,50.0688 C105.6408,47.6118 102.6948,45.9318 98.0908,45.0358" id="Stroke-253" stroke="#17317B" stroke-width="4" stroke-linecap="round"></path>
                            <path d="M102,29 C102,25.687 99.313,23 96,23 C92.687,23 90,25.687 90,29 C90,32.313 92.687,35 96,35 C99.313,35 102,32.313 102,29 Z" id="Stroke-254" stroke="#17317B" stroke-width="3.5" stroke-linecap="round"></path>
                            <path d="M35,102 C34.568,102 34.188,102.274 34.052,102.684 L33.459,104.459 L31.684,105.051 C31.274,105.188 31,105.568 31,106 C31,106.432 31.274,106.812 31.684,106.948 L33.459,107.541 L34.052,109.316 C34.188,109.726 34.568,110 35,110 C35.432,110 35.812,109.726 35.948,109.316 L36.541,107.541 L38.316,106.948 C38.726,106.812 39,106.432 39,106 C39,105.568 38.726,105.188 38.316,105.051 L36.541,104.459 L35.948,102.684 C35.812,102.274 35.432,102 35,102" id="Fill-631" fill="#99D4DB"></path>
                            <path d="M59,6 C58.568,6 58.188,6.274 58.051,6.684 L57.459,8.459 L55.684,9.051 C55.274,9.188 55,9.568 55,10 C55,10.432 55.274,10.812 55.684,10.949 L57.459,11.541 L58.051,13.316 C58.188,13.726 58.568,14 59,14 C59.432,14 59.812,13.726 59.949,13.316 L60.541,11.541 L62.316,10.949 C62.726,10.812 63,10.432 63,10 C63,9.568 62.726,9.188 62.316,9.051 L60.541,8.459 L59.949,6.684 C59.812,6.274 59.432,6 59,6" id="Fill-632" fill="#99D4DB"></path>
                            <path d="M30,17 C28.896,17 28,17.896 28,19 C28,20.104 28.896,21 30,21 C31.104,21 32,20.104 32,19 C32,17.896 31.104,17 30,17" id="Fill-634" fill="#99D4DB"></path>
                            <path d="M58,111 C56.896,111 56,111.896 56,113 C56,114.104 56.896,115 58,115 C59.104,115 60,114.104 60,113 C60,111.896 59.104,111 58,111" id="Fill-635" fill="#99D4DB"></path>
                            <path d="M76,17 C74.896,17 74,17.896 74,19 C74,20.104 74.896,21 76,21 C77.104,21 78,20.104 78,19 C78,17.896 77.104,17 76,17" id="Fill-637" fill="#99D4DB"></path>
                            <path d="M102,84 C101.568,84 101.188,84.274 101.051,84.684 L100.209,87.209 L97.684,88.051 C97.274,88.188 97,88.568 97,89 C97,89.432 97.274,89.812 97.684,89.949 L100.209,90.791 L101.051,93.316 C101.188,93.726 101.568,94 102,94 C102.432,94 102.812,93.726 102.949,93.316 L103.791,90.791 L106.316,89.949 C106.726,89.812 107,89.432 107,89 C107,88.568 106.726,88.188 106.316,88.051 L103.791,87.209 L102.949,84.684 C102.812,84.274 102.432,84 102,84" id="Fill-638" fill="#99D4DB"></path>
                            <path d="M10,42 C9.568,42 9.188,42.274 9.051,42.684 L8.209,45.209 L5.684,46.051 C5.274,46.188 5,46.568 5,47 C5,47.432 5.274,47.812 5.684,47.949 L8.209,48.791 L9.051,51.316 C9.188,51.726 9.568,52 10,52 C10.432,52 10.812,51.726 10.948,51.316 L11.79,48.791 L14.316,47.949 C14.726,47.812 15,47.432 15,47 C15,46.568 14.726,46.188 14.316,46.051 L11.79,45.209 L10.948,42.684 C10.812,42.274 10.432,42 10,42" id="Fill-633" fill="#99D4DB"></path>
                            <path d="M112,65 C110.896,65 110,65.896 110,67 C110,68.104 110.896,69 112,69 C113.104,69 114,68.104 114,67 C114,65.896 113.104,65 112,65" id="Fill-636" fill="#99D4DB"></path>
                        </g>
                    </g>
                </g>
            </g>
        </g>
    </g>
</svg>