<?xml version="1.0" encoding="UTF-8"?>
<svg width="120px" height="121px" viewBox="0 0 120 121" version="1.1" xmlns="http://www.w3.org/2000/svg" xmlns:xlink="http://www.w3.org/1999/xlink">
    <!-- Generator: Sketch 44.1 (41455) - http://www.bohemiancoding.com/sketch -->
    <title>hireing-culture-02</title>
    <desc>Created with Sketch.</desc>
    <defs></defs>
    <g id="Page" stroke="none" stroke-width="1" fill="none" fill-rule="evenodd">
        <g id="hireing" transform="translate(-665.000000, -1093.000000)">
            <g id="block" transform="translate(0.000000, 860.000000)">
                <rect id="bg" fill="#FFFFFF" x="0" y="0" width="1440" height="848"></rect>
                <g id="r1" transform="translate(135.000000, 233.000000)">
                    <g id="2" transform="translate(410.000000, 0.000000)">
                        <g id="Plasma-gun" transform="translate(120.000000, 0.000000)">
                            <g id="hireing-culture-02" transform="translate(4.000000, 8.000000)">
                                <path d="M96.5195,3.901 C98.9675,6.349 98.9675,10.325 96.5195,12.773 L87.6465,3.901 C90.0955,1.452 94.0715,1.452 96.5195,3.901" id="Fill-1" fill="#F9D79E"></path>
                                <path d="M92.4204,3.0827 C90.9644,3.0827 89.5094,3.5857 88.3374,4.5917 L91.1004,7.3537 C92.2724,6.3477 93.7274,5.8447 95.1824,5.8447 C95.3174,5.8447 95.4514,5.8487 95.5864,5.8577 C95.5484,5.1097 95.3774,4.3667 95.0734,3.6687 C94.2344,3.2777 93.3274,3.0827 92.4204,3.0827 M97.1304,5.2107 C97.4154,5.5947 97.6494,6.0047 97.8354,6.4307 C97.8974,6.4597 97.9574,6.4887 98.0184,6.5197 C97.7834,6.0577 97.4874,5.6157 97.1304,5.2107" id="Fill-3" fill="#F7C480"></path>
                                <path d="M81.7251,0.9396 C85.0001,4.2046 85.0001,9.5086 81.7251,12.7726 L75.8031,18.6956 L68.4061,26.0926 L59.5331,34.9646 L62.4941,37.9256 L65.4551,40.8876 L66.9301,39.4116 L74.3281,32.0146 L81.7251,24.6176 L87.6471,18.6956 C90.9111,15.4206 96.2161,15.4206 99.4801,18.6956 L81.7251,0.9396 Z" id="Fill-5" fill="#E6F0F9"></path>
                                <path d="M84.0683,15.6916 L78.1463,21.6136 L61.8763,37.8836 L59.1133,35.1216 L67.9863,26.2486 L75.3833,18.8516 L81.3053,12.9296 C84.5803,9.6656 84.5803,4.3606 81.3053,1.0956 L84.0683,3.8586 C87.3433,7.1226 87.3433,12.4276 84.0683,15.6916" id="Fill-7" fill="#B4D4EC"></path>
                                <path d="M66.1665,62.3259 L55.8085,72.6839 L54.3955,74.0969 L50.6705,64.5549 L59.5335,55.6819 C59.5335,59.3539 62.4945,62.3259 66.1665,62.3259" id="Fill-9" fill="#79C8D0"></path>
                                <path d="M43.2529,86.7565 L40.2919,83.7955 C37.8429,81.3475 33.8779,81.3475 31.4189,83.7955 L37.3409,77.8835 L37.3519,77.8635 L50.6499,64.5645 L62.7239,95.4095 C63.4779,97.3455 63.0279,99.5425 61.5519,101.0175 L55.0029,107.5675 C53.6529,108.9065 51.3719,108.4155 50.7129,106.6365 L43.2529,86.7565 Z" id="Fill-11" fill="#E6F0F9"></path>
                                <path d="M62.2221,101.0597 L55.3271,107.9437 C53.9141,109.3567 51.5081,108.8337 50.8171,106.9717 L49.6561,103.8527 C49.9911,103.7167 50.3261,103.5077 50.6081,103.2257 L57.5031,96.3407 C59.0521,94.7817 59.5221,92.4697 58.7271,90.4397 L58.3401,89.4557 L60.7471,88.2427 L63.4561,95.1587 C64.2411,97.1987 63.7701,99.5007 62.2221,101.0597" id="Fill-13" fill="#FFFFFF"></path>
                                <path d="M62.4941,37.9259 C66.5751,42.0169 66.5751,48.6399 62.4941,52.7309 L59.5331,55.6819 L50.6711,64.5539 L50.6501,64.5649 L37.3511,77.8639 L37.3411,77.8839 L31.4191,83.7959 C29.7871,85.4389 27.1291,85.4389 25.4971,83.7959 L16.6241,74.9229 C14.9821,73.2909 14.9821,70.6339 16.6241,69.0009 L19.5751,66.0399 L21.0611,64.5649 L22.5361,63.0789 L41.8611,43.7639 L47.6891,37.9259 C51.7801,33.8449 58.4031,33.8449 62.4941,37.9259" id="Fill-15" fill="#E6F0F9"></path>
                                <path d="M64.8037,40.7931 C60.7337,38.0101 55.1357,38.4281 51.5157,42.0381 L45.6877,47.8761 L26.3627,67.1911 L24.8877,68.6771 L23.4017,70.1521 L20.4517,73.1131 C18.8087,74.7451 18.8087,77.4031 20.4517,79.0351 L17.6887,76.2731 C16.0467,74.6411 16.0467,71.9831 17.6887,70.3511 L20.6397,67.3901 L22.1257,65.9151 L23.6007,64.4291 L42.9257,45.1141 L48.7537,39.2761 C52.8447,35.1951 59.4677,35.1951 63.5587,39.2761 C64.0297,39.7471 64.4477,40.2591 64.8037,40.7931" id="Fill-17" fill="#B4D4EC"></path>
                                <path d="M99.8266,19.1774 C96.5616,15.9024 91.2576,15.9024 87.9926,19.1774 L82.0706,25.0994 L74.6736,32.4964 L67.2766,39.8934 L65.8006,41.3694 L63.0386,38.6074 L79.3086,22.3374 L85.2306,16.4154 C88.4946,13.1404 93.7996,13.1404 97.0636,16.4154 L99.8266,19.1774 Z" id="Fill-19" fill="#FFFFFF"></path>
                                <path d="M94.9189,3.341 C94.9739,3.449 95.0249,3.558 95.0729,3.669 C95.7189,3.969 96.3239,4.386 96.8569,4.919 C96.9519,5.014 97.0429,5.111 97.1299,5.211 C96.9469,4.963 96.7439,4.726 96.5199,4.502 C96.0379,4.021 95.4939,3.634 94.9189,3.341 M95.5859,5.858 C95.6659,7.435 95.1529,9.038 94.0479,10.301 L96.5199,12.773 C97.6679,11.625 98.2779,10.139 98.3489,8.633 C98.3129,7.881 98.1409,7.133 97.8359,6.431 C97.1219,6.098 96.3569,5.907 95.5859,5.858" id="Fill-21" fill="#FBE7BC"></path>
                                <path d="M61.521,51.8942 L58.56,54.8452 L49.698,63.7172 L49.677,63.7272 L36.378,77.0262 L36.368,77.0472 L30.446,82.9582 C28.814,84.6012 26.156,84.6012 24.524,82.9582 L21.762,80.1962 C23.394,81.8392 26.052,81.8392 27.684,80.1962 L33.605,74.2852 L33.616,74.2642 L46.915,60.9652 L46.935,60.9552 L55.798,52.0822 L58.758,49.1322 C62.368,45.5122 62.787,39.9142 60.004,35.8442 C60.538,36.2002 61.05,36.6182 61.521,37.0892 C65.602,41.1802 65.602,47.8032 61.521,51.8942" id="Fill-23" fill="#FFFFFF"></path>
                                <path d="M47.6889,37.9259 L41.8609,43.7639 L22.5359,63.0789 L21.0609,64.5649 L19.5749,66.0399 L16.6559,63.1209 C13.3919,59.8459 8.1279,59.8879 4.8539,63.1629 L32.9679,35.0489 C36.2429,31.7739 41.5049,31.7319 44.7699,35.0069 L47.6889,37.9259 Z" id="Fill-25" fill="#E6F0F9"></path>
                                <path d="M45.6616,37.9259 L45.4106,38.1769 C42.2506,36.4819 38.2436,36.9949 35.5646,39.6739 L13.2376,62.0009 C10.0036,59.9089 5.6726,60.3169 2.8266,63.1629 L30.9406,35.0489 C34.2156,31.7739 39.4776,31.7319 42.7426,35.0069 L45.6616,37.9259 Z" id="Fill-27" fill="#B4D4EC"></path>
                                <polygon id="Fill-29" fill="#F9D79E" points="25.497 83.7956 18.1 88.2426 12.178 82.3196 16.624 74.9226"></polygon>
                                <polygon id="Fill-31" fill="#F8C781" points="17.02 78.1471 14.697 82.0111 16.312 83.6261 18.635 79.7621"></polygon>
                                <path d="M97.9995,35.965 C96.8995,35.965 95.9995,36.864 95.9995,37.965 C95.9995,39.065 96.8995,39.965 97.9995,39.965 C99.1005,39.965 99.9995,39.065 99.9995,37.965 C99.9995,36.864 99.1005,35.965 97.9995,35.965" id="Fill-33" fill="#47E3FF"></path>
                                <path d="M72,82.3249 C70.9,82.3249 70,83.2249 70,84.3249 C70,85.4249 70.9,86.3249 72,86.3249 C73.1,86.3249 74,85.4249 74,84.3249 C74,83.2249 73.1,82.3249 72,82.3249" id="Fill-35" fill="#47E3FF"></path>
                                <path d="M40,16.3244 C38.9,16.3244 38,17.2244 38,18.3244 C38,19.4254 38.9,20.3244 40,20.3244 C41.1,20.3244 42,19.4254 42,18.3244 C42,17.2244 41.1,16.3244 40,16.3244" id="Fill-37" fill="#47E3FF"></path>
                                <path d="M2,45.9645 C0.9,45.9645 0,46.8645 0,47.9645 C0,49.0645 0.9,49.9645 2,49.9645 C3.1,49.9645 4,49.0645 4,47.9645 C4,46.8645 3.1,45.9645 2,45.9645" id="Fill-39" fill="#47E3FF"></path>
                                <path d="M61,1.3244 C60.568,1.3244 60.188,1.5984 60.051,2.0084 L59.459,3.7834 L57.684,4.3764 C57.274,4.5124 57,4.8924 57,5.3244 C57,5.7564 57.274,6.1364 57.684,6.2734 L59.459,6.8654 L60.051,8.6404 C60.188,9.0514 60.568,9.3244 61,9.3244 C61.432,9.3244 61.812,9.0504 61.949,8.6404 L62.54,6.8654 L64.316,6.2734 C64.726,6.1364 65,5.7564 65,5.3244 C65,4.8924 64.726,4.5124 64.316,4.3764 L62.54,3.7834 L61.949,2.0084 C61.812,1.5984 61.432,1.3244 61,1.3244" id="Fill-41" fill="#9AE0E6"></path>
                                <path d="M25,97.3249 C24.568,97.3249 24.188,97.5979 24.051,98.0079 L23.459,99.7839 L21.684,100.3759 C21.274,100.5129 21,100.8929 21,101.3249 C21,101.7569 21.274,102.1369 21.684,102.2729 L23.459,102.8659 L24.051,104.6409 C24.188,105.0509 24.568,105.3249 25,105.3249 C25.432,105.3249 25.812,105.0509 25.949,104.6409 L26.54,102.8659 L28.316,102.2729 C28.726,102.1369 29,101.7569 29,101.3249 C29,100.8929 28.726,100.5129 28.316,100.3759 L26.54,99.7839 L25.949,98.0079 C25.812,97.5979 25.432,97.3249 25,97.3249" id="Fill-43" fill="#9AE0E6"></path>
                                <path d="M10,17.3249 C9.568,17.3249 9.188,17.5989 9.051,18.0089 L8.209,20.5339 L5.684,21.3759 C5.273,21.5119 5,21.8929 5,22.3249 C5,22.7569 5.273,23.1369 5.684,23.2739 L8.209,24.1159 L9.051,26.6409 C9.188,27.0509 9.568,27.3249 10,27.3249 C10.432,27.3249 10.812,27.0509 10.949,26.6409 L11.791,24.1159 L14.316,23.2739 C14.726,23.1369 15,22.7569 15,22.3249 C15,21.8929 14.726,21.5119 14.316,21.3759 L11.79,20.5339 L10.949,18.0089 C10.812,17.5989 10.432,17.3249 10,17.3249" id="Fill-45" fill="#9AE0E6"></path>
                                <path d="M84,51.3249 C83.568,51.3249 83.188,51.5979 83.051,52.0089 L82.209,54.5339 L79.684,55.3759 C79.274,55.5119 79,55.8929 79,56.3249 C79,56.7569 79.274,57.1369 79.684,57.2739 L82.209,58.1159 L83.051,60.6409 C83.188,61.0509 83.568,61.3249 84,61.3249 C84.432,61.3249 84.812,61.0509 84.949,60.6409 L85.791,58.1159 L88.316,57.2739 C88.726,57.1369 89,56.7569 89,56.3249 C89,55.8929 88.726,55.5119 88.316,55.3759 L85.791,54.5339 L84.949,52.0089 C84.812,51.5979 84.432,51.3249 84,51.3249" id="Fill-47" fill="#9AE0E6"></path>
                                <path d="M71.373,14.1633 L86.218,29.0083" id="Stroke-49" stroke="#17317B" stroke-width="3" stroke-linecap="round" stroke-linejoin="round"></path>
                                <path d="M63.9755,21.5607 L78.8205,36.4047" id="Stroke-51" stroke="#17317B" stroke-width="3" stroke-linecap="round" stroke-linejoin="round"></path>
                                <path d="M43.1386,54.0925 L46.2486,57.2025" id="Stroke-53" stroke="#17317B" stroke-width="3" stroke-linecap="round" stroke-linejoin="round"></path>
                                <path d="M37.2045,60.0265 L40.3145,63.1375" id="Stroke-55" stroke="#17317B" stroke-width="3" stroke-linecap="round" stroke-linejoin="round"></path>
                                <path d="M31.3095,66.0002 L34.4195,69.1112" id="Stroke-57" stroke="#17317B" stroke-width="3" stroke-linecap="round" stroke-linejoin="round"></path>
                                <path d="M51.393,90.4557 L46.955,94.8947" id="Stroke-59" stroke="#17317B" stroke-width="3" stroke-linecap="round" stroke-linejoin="round"></path>
                                <path d="M47.6967,82.318 L43.2557,86.759" id="Stroke-61" stroke="#17317B" stroke-width="3" stroke-linecap="round" stroke-linejoin="round"></path>
                                <path d="M49.604,27.3439 L43.355,33.5929" id="Stroke-63" stroke="#17317B" stroke-width="3" stroke-linecap="round" stroke-linejoin="round"></path>
                                <path d="M96.4804,3.8615 C98.9284,6.3095 98.9284,10.2855 96.4804,12.7345 L87.6074,3.8615 C90.0564,1.4135 94.0324,1.4135 96.4804,3.8615" id="Stroke-65" stroke="#17317B" stroke-width="3" stroke-linecap="round" stroke-linejoin="round"></path>
                                <path d="M81.6855,0.9006 C84.9605,4.1646 84.9605,9.4696 81.6855,12.7336 L75.7635,18.6556 L68.3665,26.0536 L59.4935,34.9256 L62.4545,37.8866 L65.4155,40.8476 L66.8915,39.3726 L74.2885,31.9756 L81.6855,24.5786 L87.6075,18.6556 C90.8725,15.3806 96.1765,15.3806 99.4415,18.6556 L81.6855,0.9006 Z" id="Stroke-67" stroke="#17317B" stroke-width="3" stroke-linecap="round" stroke-linejoin="round"></path>
                                <path d="M66.1274,62.2863 L55.7694,72.6443 L54.3564,74.0573 L50.6314,64.5153 L59.4934,55.6423 C59.4934,59.3153 62.4544,62.2863 66.1274,62.2863 Z" id="Stroke-69" stroke="#17317B" stroke-width="3" stroke-linecap="round" stroke-linejoin="round"></path>
                                <path d="M43.2133,86.7175 L40.2523,83.7565 C37.8043,81.3085 33.8383,81.3085 31.3803,83.7565 L37.3013,77.8445 L37.3123,77.8235 L50.6103,64.5255 L62.6853,95.3705 C63.4383,97.3055 62.9883,99.5035 61.5133,100.9785 L54.9633,107.5285 C53.6133,108.8675 51.3323,108.3755 50.6733,106.5965 L43.2133,86.7175 Z" id="Stroke-71" stroke="#17317B" stroke-width="3" stroke-linecap="round" stroke-linejoin="round"></path>
                                <path d="M62.4545,37.8869 C66.5355,41.9779 66.5355,48.6009 62.4545,52.6919 L59.4935,55.6419 L50.6315,64.5149 L50.6105,64.5259 L37.3115,77.8239 L37.3015,77.8449 L31.3795,83.7569 C29.7475,85.3989 27.0895,85.3989 25.4575,83.7569 L16.5855,74.8839 C14.9425,73.2519 14.9425,70.5939 16.5855,68.9619 L19.5365,66.0009 L21.0215,64.5259 L22.4965,63.0399 L41.8215,43.7249 L47.6495,37.8869 C51.7405,33.8059 58.3635,33.8059 62.4545,37.8869" id="Stroke-73" stroke="#17317B" stroke-width="3" stroke-linecap="round" stroke-linejoin="round"></path>
                                <path d="M47.6499,37.8869 L41.8219,43.7249 L22.4969,63.0399 L21.0219,64.5259 L19.5359,66.0009 L16.6169,63.0819 C13.3519,59.8069 8.0889,59.8489 4.8149,63.1239 L32.9279,35.0099 C36.2029,31.7349 41.4659,31.6929 44.7309,34.9679 L47.6499,37.8869 Z" id="Stroke-75" stroke="#17317B" stroke-width="3" stroke-linecap="round" stroke-linejoin="round"></path>
                                <polyline id="Stroke-77" stroke="#17317B" stroke-width="3" stroke-linecap="round" stroke-linejoin="round" points="25.4575 83.7565 18.0605 88.2035 12.1385 82.2805 16.5855 74.8835 25.4575 83.7565"></polyline>
                            </g>
                        </g>
                    </g>
                </g>
            </g>
        </g>
    </g>
</svg>