<?xml version="1.0" encoding="UTF-8"?>
<svg width="120px" height="121px" viewBox="0 0 120 121" version="1.1" xmlns="http://www.w3.org/2000/svg" xmlns:xlink="http://www.w3.org/1999/xlink">
    <!-- Generator: Sketch 44.1 (41455) - http://www.bohemiancoding.com/sketch -->
    <title>hireing-culture-03</title>
    <desc>Created with Sketch.</desc>
    <defs>
        <polygon id="path-1" points="7.999 0.6443 7.999 8.6443 0.0002 8.6443 0.0002 0.6443 7.999 0.6443"></polygon>
    </defs>
    <g id="Page" stroke="none" stroke-width="1" fill="none" fill-rule="evenodd">
        <g id="hireing" transform="translate(-1070.000000, -1093.000000)">
            <g id="block" transform="translate(0.000000, 860.000000)">
                <rect id="bg" fill="#FFFFFF" x="0" y="0" width="1440" height="848"></rect>
                <g id="r1" transform="translate(135.000000, 233.000000)">
                    <g id="3" transform="translate(820.000000, 0.000000)">
                        <g id="Rocket" transform="translate(114.500000, 0.000000)">
                            <g id="hireing-culture-03" transform="translate(4.500000, 8.000000)">
                                <path d="M28.1125,92.5257 C24.2735,94.3967 19.9515,94.9697 15.8205,94.2557 C15.5315,94.2057 15.3005,93.9737 15.2505,93.6847 C14.5355,89.5547 15.1025,85.2387 16.9625,81.3987 C15.7045,82.1647 14.5225,83.0957 13.4365,84.1817 C13.1315,84.4867 12.8415,84.7997 12.5615,85.1197 C12.2445,85.3987 11.9315,85.6857 11.6295,85.9887 C6.9945,90.6237 5.2745,97.0647 6.4565,103.0487 C12.4415,104.2317 18.8825,102.5117 23.5165,97.8767 C23.8185,97.5747 24.1045,97.2637 24.3825,96.9477 C24.7035,96.6667 25.0175,96.3757 25.3235,96.0697 C26.4155,94.9777 27.3465,93.7837 28.1125,92.5257" id="Fill-1" fill="#F9D79E"></path>
                                <path d="M55.9362,96.5619 C52.2452,100.2529 47.8262,102.7909 43.1442,104.1629 C42.8122,104.2549 42.4792,104.3469 42.1472,104.4389 C43.0312,103.3289 43.8022,102.1619 44.4592,100.9389 C44.7492,100.4219 45.0112,99.8929 45.2512,99.3539 C47.6842,93.9519 48.0162,87.8499 46.2702,82.2569 C52.8812,80.0859 59.0682,76.9679 64.6762,73.0719 C65.0792,78.5659 63.9762,84.1519 61.3732,89.1579 C59.9802,91.8239 58.1702,94.3269 55.9362,96.5619" id="Fill-3" fill="#79C8D0"></path>
                                <path d="M27.2487,63.2357 L27.0157,63.1727 C19.6327,60.9377 11.3957,62.3307 5.0667,67.3587 C5.2717,66.5727 5.5047,65.7887 5.7737,65.0247 C5.8587,64.7837 5.9437,64.5437 6.0357,64.3107 C7.4917,60.3937 9.7967,56.7157 12.9437,53.5687 C19.0327,47.4817 27.0857,44.5467 35.0547,44.7657 C35.5147,44.7727 35.9887,44.7947 36.4477,44.8297 C35.5577,46.1027 34.7157,47.4107 33.9167,48.7467 C31.8447,52.1757 30.0567,55.7897 28.5787,59.5587 L28.5497,59.6147 C28.0897,60.8097 27.6517,62.0127 27.2487,63.2357" id="Fill-5" fill="#79C8D0"></path>
                                <path d="M74.611,64.7772 C66.592,72.7962 56.693,78.9332 45.633,82.4692 L27.036,63.8722 C36.349,34.8172 63.58,13.7802 95.732,13.7732 C95.732,33.6852 87.664,51.7242 74.611,64.7772" id="Fill-7" fill="#E6F0F9"></path>
                                <polygon id="Fill-9" fill="#E6F0F9" points="37.7492 85.8983 23.6072 71.7563 27.8502 64.6853 44.8202 81.6553"></polygon>
                                <path d="M74.5187,50.5428 C70.2237,54.8388 63.2587,54.8388 58.9627,50.5428 C54.6667,46.2478 54.6667,39.2828 58.9627,34.9868 C63.2587,30.6908 70.2237,30.6908 74.5187,34.9868 C78.8147,39.2828 78.8147,46.2478 74.5187,50.5428" id="Fill-11" fill="#79C8D0"></path>
                                <path d="M11.8336,85.7875 C11.7656,85.8535 11.6966,85.9205 11.6296,85.9885 C11.2576,86.3595 10.9056,86.7425 10.5716,87.1355 C6.7366,91.6525 5.3686,97.5435 6.4566,103.0485 C7.6756,103.2895 8.9136,103.4105 10.1516,103.4105 C14.5026,103.4105 18.8526,101.9195 22.3686,98.9345 C22.7616,98.6005 23.1456,98.2475 23.5166,97.8765 C23.5936,97.7995 23.6696,97.7225 23.7446,97.6445 C20.8616,98.9455 17.7476,99.5945 14.6396,99.5945 C13.3746,99.5945 12.1086,99.4865 10.8616,99.2715 C10.5386,99.2215 10.2866,98.9585 10.2366,98.6455 C9.4856,94.3325 10.0206,89.8365 11.8336,85.7875" id="Fill-13" fill="#F7C074"></path>
                                <path d="M63.3136,74.349 C63.0796,74.503 62.8446,74.657 62.6086,74.808 C61.4136,80.212 58.7116,85.334 54.5216,89.524 C52.1666,91.879 49.5146,93.763 46.6876,95.168 C46.3416,96.595 45.8626,97.997 45.2516,99.354 C45.0116,99.892 44.7496,100.422 44.4596,100.939 C44.3226,101.194 44.1806,101.447 44.0336,101.697 C44.0866,101.679 44.1406,101.661 44.1936,101.644 C43.9636,102.217 43.7126,102.784 43.4346,103.341 C43.7486,103.249 44.0576,103.138 44.3686,103.036 C44.2506,103.326 44.1266,103.614 43.9976,103.899 C48.3616,102.477 52.4696,100.028 55.9366,96.562 C58.1706,94.327 59.9806,91.824 61.3736,89.158 C62.0056,87.943 62.5486,86.693 63.0036,85.419 C63.4586,83.05 63.6246,80.637 63.5076,78.233 C63.5606,77.054 63.5516,75.873 63.4666,74.696 L63.3276,74.789 C63.3236,74.642 63.3186,74.495 63.3136,74.349" id="Fill-15" fill="#AADAE1"></path>
                                <path d="M34.2248,44.7543 C31.0538,44.7543 27.8798,45.2533 24.8338,46.2513 C20.8088,47.7063 17.0328,50.0463 13.8068,53.2723 C10.6598,56.4193 8.3548,60.0963 6.8978,64.0133 C7.0498,63.9023 7.2048,63.8003 7.3588,63.6943 C6.9598,64.5233 6.5948,65.3643 6.2758,66.2193 C7.6048,65.2443 9.0128,64.4303 10.4618,63.7593 C11.3318,62.5783 12.3078,61.4463 13.3828,60.3723 C18.6438,55.1103 25.3668,52.2013 32.2458,51.6513 C33.1658,49.9503 34.1528,48.2893 35.2028,46.6733 C35.1408,46.6723 35.0788,46.6723 35.0168,46.6723 C34.9538,46.6723 34.8908,46.6723 34.8278,46.6723 C34.7668,46.6723 34.7078,46.6733 34.6478,46.6733 L34.5738,46.6733 C34.9468,46.0383 35.3268,45.4073 35.7168,44.7853 C35.4958,44.7753 35.2738,44.7693 35.0548,44.7663 C34.7778,44.7583 34.5018,44.7543 34.2248,44.7543" id="Fill-17" fill="#48B1BB"></path>
                                <path d="M65.8864,32.5169 C63.4834,32.5169 61.0814,33.4339 59.2454,35.2689 C55.5844,38.9399 55.5844,44.8799 59.2454,48.5509 C59.8264,49.1309 60.4664,49.6179 61.1494,50.0179 C59.0324,46.4249 59.5194,41.7139 62.6084,38.6319 C64.4394,36.7969 66.8414,35.8799 69.2454,35.8799 C70.8884,35.8809 72.5324,36.3089 73.9944,37.1639 C73.5944,36.4909 73.1074,35.8499 72.5274,35.2689 C70.6914,33.4339 68.2894,32.5169 65.8864,32.5169" id="Fill-19" fill="#48B1BB"></path>
                                <path d="M92.2814,36.1561 L92.3014,36.1761 C88.7714,47.2261 82.6314,57.1261 74.6114,65.1461 C74.1314,65.6361 73.6214,66.0961 73.1314,66.5661 L73.0414,66.6351 C71.5314,68.0661 69.9614,69.4261 68.3314,70.7161 L68.1214,70.8761 C65.4214,73.0061 62.5614,74.9361 59.5614,76.6661 C59.4714,76.7161 59.3714,76.7661 59.2814,76.8261 C57.4714,77.8561 55.6214,78.8061 53.7114,79.6861 L53.6114,79.7361 C52.3514,80.3061 51.0614,80.8561 49.7614,81.3561 L49.6814,81.3861 C46.7014,82.5461 43.6214,83.5061 40.4714,84.2661 C39.2914,84.5561 38.0914,84.8061 36.8914,85.0361 L29.0514,77.1961 C32.4214,76.9461 35.7114,76.4661 38.9314,75.7661 C42.6214,74.9561 46.2114,73.8761 49.6814,72.5261 L49.7614,72.4961 C51.0614,71.9861 52.3514,71.4461 53.6114,70.8661 L53.7114,70.8161 C55.6214,69.9461 57.4714,68.9861 59.2814,67.9561 C59.3714,67.9061 59.4714,67.8561 59.5614,67.7961 C62.5614,66.0761 65.4214,64.1361 68.1214,62.0061 L68.3314,61.8461 C69.9614,60.5561 71.5314,59.1961 73.0414,57.7761 L73.1314,57.6961 C73.6214,57.2261 74.1314,56.7661 74.6114,56.2861 C82.6314,48.2661 88.7714,38.3661 92.3014,27.3061 L92.2814,27.2861 C93.6414,23.0661 94.6214,18.6661 95.1714,14.1461 C95.3514,14.1351 95.5414,14.1351 95.7214,14.1351 C95.7214,21.8161 94.5114,29.2061 92.2814,36.1561" id="Fill-21" fill="#FFFFFF"></path>
                                <path d="M87.4372,22.8412 C61.5412,26.4452 39.9362,43.4742 29.8912,66.6662 L27.3412,64.1162 C35.0722,39.9822 54.8652,21.2642 79.6342,15.0382 L87.4372,22.8412" id="Fill-23" fill="#B4D4EC"></path>
                                <path d="M95.7316,13.7757 C92.4106,13.7757 89.1456,14.0007 85.9456,14.4347 C83.9986,14.6997 82.0776,15.0427 80.1826,15.4607 L80.2316,15.6357 L87.4416,22.8457 C90.0016,22.4967 92.6016,22.2557 95.2416,22.1757 C95.3226,21.4977 95.3936,20.8167 95.4546,20.1317 C95.5696,18.8177 95.6496,17.4917 95.6926,16.1577 C95.6996,15.9587 95.7056,15.7587 95.7106,15.5597 C95.7106,15.5527 95.7106,15.5457 95.7106,15.5387 C95.7106,15.5197 95.7116,15.5007 95.7116,15.4817 C95.7246,14.9147 95.7316,14.3457 95.7316,13.7757" id="Fill-25" fill="#48B1BB"></path>
                                <polygon id="Fill-27" fill="#B4D4EC" points="30.0749 67.7987 26.1419 74.3337 23.9979 72.1837 28.0259 65.4957"></polygon>
                                <path d="M92.0002,70.0008 C91.5682,70.0008 91.1882,70.2748 91.0512,70.6848 L90.2092,73.2098 L87.6842,74.0518 C87.2732,74.1878 87.0002,74.5688 87.0002,75.0008 C87.0002,75.4328 87.2742,75.8128 87.6842,75.9488 L90.2092,76.7918 L91.0512,79.3168 C91.1882,79.7268 91.5682,80.0008 92.0002,80.0008 C92.4322,80.0008 92.8122,79.7268 92.9492,79.3168 L93.7912,76.7918 L96.3162,75.9488 C96.7262,75.8128 97.0002,75.4328 97.0002,75.0008 C97.0002,74.5688 96.7262,74.1878 96.3162,74.0518 L93.7912,73.2098 L92.9492,70.6848 C92.8122,70.2748 92.4322,70.0008 92.0002,70.0008" id="Fill-29" fill="#9AE0E6"></path>
                                <g id="Group-33" transform="translate(105.000000, 32.585000)">
                                    <mask id="mask-2" fill="white">
                                        <use xlink:href="#path-1"></use>
                                    </mask>
                                    <g id="Clip-32"></g>
                                    <path d="M4.0002,0.6443 C3.5672,0.6443 3.1872,0.9173 3.0512,1.3273 L2.4592,3.1033 L0.6832,3.6953 C0.2732,3.8313 0.0002,4.2123 0.0002,4.6443 C0.0002,5.0763 0.2732,5.4563 0.6832,5.5923 L2.4592,6.1843 L3.0512,7.9603 C3.1872,8.3703 3.5672,8.6443 4.0002,8.6443 C4.4322,8.6443 4.8122,8.3703 4.9482,7.9603 L5.5402,6.1843 L7.3162,5.5923 C7.7262,5.4563 8.0002,5.0763 8.0002,4.6443 C8.0002,4.2123 7.7262,3.8313 7.3162,3.6953 L5.5402,3.1023 L4.9482,1.3273 C4.8122,0.9173 4.4322,0.6443 4.0002,0.6443" id="Fill-31" fill="#9AE0E6" mask="url(#mask-2)"></path>
                                </g>
                                <path d="M23.0002,27.2289 C22.5682,27.2289 22.1882,27.5029 22.0512,27.9129 L21.4592,29.6879 L19.6842,30.2799 C19.2742,30.4169 19.0002,30.7969 19.0002,31.2289 C19.0002,31.6609 19.2742,32.0409 19.6842,32.1779 L21.4592,32.7699 L22.0512,34.5449 C22.1882,34.9549 22.5682,35.2289 23.0002,35.2289 C23.4322,35.2289 23.8122,34.9549 23.9492,34.5449 L24.5412,32.7699 L26.3162,32.1779 C26.7262,32.0409 27.0002,31.6609 27.0002,31.2289 C27.0002,30.7969 26.7262,30.4169 26.3162,30.2799 L24.5412,29.6879 L23.9492,27.9129 C23.8122,27.5029 23.4322,27.2289 23.0002,27.2289" id="Fill-34" fill="#9AE0E6"></path>
                                <path d="M60.0002,0.0003 C59.5682,0.0003 59.1882,0.2743 59.0512,0.6843 L58.2092,3.2093 L55.6842,4.0513 C55.2742,4.1883 55.0002,4.5683 55.0002,5.0003 C55.0002,5.4323 55.2742,5.8123 55.6842,5.9493 L58.2092,6.7913 L59.0512,9.3163 C59.1882,9.7273 59.5682,10.0003 60.0002,10.0003 C60.4322,10.0003 60.8122,9.7263 60.9492,9.3163 L61.7912,6.7913 L64.3162,5.9493 C64.7262,5.8123 65.0002,5.4323 65.0002,5.0003 C65.0002,4.5683 64.7262,4.1883 64.3162,4.0513 L61.7902,3.2093 L60.9492,0.6843 C60.8122,0.2743 60.4322,0.0003 60.0002,0.0003" id="Fill-36" fill="#9AE0E6"></path>
                                <path d="M98.9997,54.0008 C97.8957,54.0008 96.9997,54.8958 96.9997,56.0008 C96.9997,57.1048 97.8957,58.0008 98.9997,58.0008 C100.1047,58.0008 100.9997,57.1048 100.9997,56.0008 C100.9997,54.8958 100.1047,54.0008 98.9997,54.0008" id="Fill-38" fill="#47E3FF"></path>
                                <path d="M74.9997,92.0003 C73.8957,92.0003 72.9997,92.8953 72.9997,94.0003 C72.9997,95.1043 73.8957,96.0003 74.9997,96.0003 C76.1037,96.0003 76.9997,95.1043 76.9997,94.0003 C76.9997,92.8953 76.1037,92.0003 74.9997,92.0003" id="Fill-40" fill="#47E3FF"></path>
                                <path d="M30.9997,10.0003 C29.8957,10.0003 28.9997,10.8953 28.9997,12.0003 C28.9997,13.1043 29.8957,14.0003 30.9997,14.0003 C32.1037,14.0003 32.9997,13.1043 32.9997,12.0003 C32.9997,10.8953 32.1037,10.0003 30.9997,10.0003" id="Fill-42" fill="#47E3FF"></path>
                                <path d="M2.0002,76.2289 C0.8952,76.2289 0.0002,77.1249 0.0002,78.2289 C0.0002,79.3329 0.8952,80.2289 2.0002,80.2289 C3.1042,80.2289 4.0002,79.3329 4.0002,78.2289 C4.0002,77.1249 3.1042,76.2289 2.0002,76.2289" id="Fill-44" fill="#47E3FF"></path>
                                <path d="M91.9997,0.2289 C90.8957,0.2289 89.9997,1.1249 89.9997,2.2289 C89.9997,3.3329 90.8957,4.2289 91.9997,4.2289 C93.1047,4.2289 93.9997,3.3329 93.9997,2.2289 C93.9997,1.1249 93.1047,0.2289 91.9997,0.2289" id="Fill-46" fill="#47E3FF"></path>
                                <path d="M55.8503,96.808 C52.1603,100.499 47.7403,103.037 43.0583,104.409 C42.7263,104.501 42.3943,104.593 42.0623,104.685 C42.9463,103.575 43.7163,102.408 44.3743,101.185 C44.6643,100.668 44.9263,100.139 45.1653,99.6 C47.5993,94.198 47.9313,88.096 46.1843,82.503 C52.7963,80.332 58.9833,77.214 64.5903,73.318 C64.9933,78.812 63.8913,84.398 61.2883,89.404 C59.8953,92.07 58.0843,94.573 55.8503,96.808" id="Stroke-48" stroke="#17317B" stroke-width="3" stroke-linecap="round" stroke-linejoin="round"></path>
                                <path d="M27.1632,63.4818 L26.9302,63.4188 C19.5472,61.1838 11.3102,62.5768 4.9812,67.6048 C5.1862,66.8188 5.4192,66.0348 5.6882,65.2708 C5.7732,65.0298 5.8582,64.7898 5.9502,64.5568 C7.4062,60.6398 9.7112,56.9618 12.8582,53.8148 C18.9462,47.7278 27.0002,44.7928 34.9692,45.0118 C35.4292,45.0188 35.9032,45.0408 36.3622,45.0758 C35.4722,46.3488 34.6302,47.6568 33.8312,48.9928 C31.7592,52.4218 29.9712,56.0358 28.4922,59.8048 L28.4642,59.8608 C28.0042,61.0558 27.5662,62.2588 27.1632,63.4818" id="Stroke-50" stroke="#17317B" stroke-width="3" stroke-linecap="round" stroke-linejoin="round"></path>
                                <path d="M74.5255,65.0233 C66.5065,73.0423 56.6075,79.1793 45.5475,82.7153 L26.9505,64.1183 C36.2635,35.0633 63.4945,14.0263 95.6465,14.0193 C95.6465,33.9313 87.5785,51.9703 74.5255,65.0233" id="Stroke-52" stroke="#17317B" stroke-width="3" stroke-linecap="round" stroke-linejoin="round"></path>
                                <polygon id="Stroke-54" stroke="#17317B" stroke-width="3" stroke-linecap="round" stroke-linejoin="round" points="37.6637 86.1444 23.5217 72.0024 27.7647 64.9314 44.7347 81.9014"></polygon>
                                <path d="M16.3512,79.9002 C8.5982,84.2302 4.2642,93.0052 5.7572,103.8902 C14.2812,105.0612 21.5292,102.6682 26.3502,97.8472 C27.6832,96.5142 28.8192,94.9862 29.7572,93.3062" id="Stroke-56" stroke="#17317B" stroke-width="3" stroke-linecap="round" stroke-linejoin="round"></path>
                                <path d="M74.5324,50.5292 C70.2364,54.8242 63.2724,54.8242 58.9764,50.5292 C54.6804,46.2332 54.6804,39.2682 58.9764,34.9732 C63.2724,30.6772 70.2364,30.6772 74.5324,34.9732 C78.8284,39.2682 78.8284,46.2332 74.5324,50.5292 Z" id="Stroke-58" stroke="#17317B" stroke-width="3" stroke-linecap="round" stroke-linejoin="round"></path>
                                <path d="M78.1745,16.0096 L93.5085,31.3436" id="Stroke-60" stroke="#17317B" stroke-width="3"></path>
                                <path d="M49.0631,60.4427 L49.0631,60.4427 C47.5241,58.9037 45.0111,58.9667 43.5511,60.5807 L20.7061,85.8297 C19.9551,86.6607 19.9861,87.9347 20.7781,88.7267 C21.5711,89.5187 22.8451,89.5507 23.6761,88.7987 L48.9251,65.9547 C50.5391,64.4947 50.6021,61.9817 49.0631,60.4427" id="Fill-62" fill="#79C8D0"></path>
                                <path d="M49.1427,60.5233 L49.1427,60.5233 C47.6037,58.9843 45.0907,59.0473 43.6307,60.6613 L20.7867,85.9103 C20.0347,86.7413 20.0667,88.0153 20.8587,88.8073 C21.6507,89.5993 22.9247,89.6313 23.7557,88.8793 L49.0047,66.0353 C50.6187,64.5753 50.6817,62.0623 49.1427,60.5233 Z" id="Stroke-64" stroke="#17317B" stroke-width="3" stroke-linecap="round" stroke-linejoin="round"></path>
                            </g>
                        </g>
                    </g>
                </g>
            </g>
        </g>
    </g>
</svg>