<?xml version="1.0" encoding="UTF-8"?>
<svg width="366px" height="326px" viewBox="0 0 366 326" version="1.1" xmlns="http://www.w3.org/2000/svg" xmlns:xlink="http://www.w3.org/1999/xlink">
    <!-- Generator: Sketch 44.1 (41455) - http://www.bohemiancoding.com/sketch -->
    <title>rover</title>
    <desc>Created with Sketch.</desc>
    <defs>
        <circle id="path-1" cx="20" cy="20" r="20"></circle>
    </defs>
    <g id="______Slice" stroke="none" stroke-width="1" fill="none" fill-rule="evenodd">
        <g id="home" transform="translate(-779.000000, -1158.000000)">
            <g id="block" transform="translate(0.000000, 860.000000)">
                <g id="rover" transform="translate(779.000000, 298.000000)">
                    <g id="cone" transform="translate(0.000000, 142.000000)">
                        <mask id="mask-2" fill="white">
                            <use xlink:href="#path-1"></use>
                        </mask>
                        <use id="oval-8" fill="#FFC725" xlink:href="#path-1"></use>
                        <circle id="oval-8" fill="#FFDEA1" mask="url(#mask-2)" cx="32" cy="25" r="20"></circle>
                    </g>
                    <path d="M289.399761,143.420548 C300.614116,143.420548 307.742292,155.431616 302.358437,165.284917 L283.007942,200.789998 C280.406549,205.552175 275.433122,208.509674 270.019088,208.509674 L246.35004,208.509674 L92.4997227,208.509674 L89.5392056,208.509674 C81.3759041,208.509674 74.7486915,201.882462 74.7486915,193.71916 L74.7486915,158.21408 C74.7486915,150.047761 81.3759041,143.420548 89.5392056,143.420548 L289.399761,143.420548 Z" id="fill-1" fill="#E6F0F9"></path>
                    <path d="M109.393984,143.420548 C101.227665,143.420548 94.6004525,150.047761 94.6004525,158.21408 L94.6004525,208.509674 L89.5395074,208.509674 C81.3762059,208.509674 74.7489933,201.882462 74.7489933,193.71916 L74.7489933,158.21408 C74.7489933,150.047761 81.3762059,143.420548 89.5395074,143.420548 L109.393984,143.420548 Z" id="fill-3" fill="#B4D4EC"></path>
                    <path d="M304.123581,159.585696 C304.271456,162.190106 301.727403,166.418123 300.336171,168.992354 L283.00764,200.788489 C280.406248,205.550666 275.43282,208.511183 270.018786,208.511183 L257.150647,208.511183 L284.785157,157.385678 L290.256531,147.327163 C290.938566,146.056646 291.376156,144.921932 291.671906,143.588039 C300.882403,145.600949 304.123581,151.908269 304.123581,159.585696" id="fill-5" fill="#FFFFFF"></path>
                    <path d="M122.087088,285.436644 C122.087088,265.829631 106.189021,249.931564 86.5820081,249.931564 C66.9749953,249.931564 51.0799458,265.829631 51.0799458,285.436644 C51.0799458,305.043657 66.9749953,320.941724 86.5820081,320.941724 C106.189021,320.941724 122.087088,305.043657 122.087088,285.436644" id="fill-7" fill="#E6F0F9"></path>
                    <path d="M124.150577,288.892247 C124.150577,308.226906 108.489504,323.887979 89.1548447,323.887979 C75.9448108,323.887979 64.4243286,316.56758 58.4752028,305.749095 C63.4635448,308.488667 69.2074258,310.03544 75.3023052,310.03544 C94.6369642,310.03544 110.298038,294.377341 110.298038,275.042682 C110.298038,268.944828 108.751265,263.200947 106.011693,258.215579 C116.830178,264.164705 124.150577,275.682213 124.150577,288.892247" id="fill-9" fill="#FFFFFF"></path>
                    <path d="M117.73715,268.364027 C112.649044,265.584581 106.818546,263.988135 100.634958,263.988135 C81.0188917,263.988135 65.1328958,279.874131 65.1328958,299.490197 C65.1328958,305.673785 66.7293418,311.504284 69.5118054,316.589372 C58.5328439,310.553659 51.0787387,298.868519 51.0787387,285.43604 C51.0787387,265.819974 66.9677524,249.933978 86.5838188,249.933978 C100.01328,249.933978 111.701437,257.388083 117.73715,268.364027" id="fill-11" fill="#B4D4EC"></path>
                    <path d="M98.4174372,285.436644 C98.4174372,278.899967 93.1180814,273.600611 86.5844224,273.600611 C80.0477455,273.600611 74.7483897,278.899967 74.7483897,285.436644 C74.7483897,291.973321 80.0477455,297.272676 86.5844224,297.272676 C93.1180814,297.272676 98.4174372,291.973321 98.4174372,285.436644" id="fill-13" fill="#9AE0E6"></path>
                    <path d="M216.765089,285.436644 C216.765089,265.829631 200.867022,249.931564 181.260009,249.931564 C161.649978,249.931564 145.754929,265.829631 145.754929,285.436644 C145.754929,305.043657 161.649978,320.941724 181.260009,320.941724 C200.867022,320.941724 216.765089,305.043657 216.765089,285.436644" id="fill-15" fill="#E6F0F9"></path>
                    <path d="M218.827112,288.892247 C218.827112,308.226906 203.166039,323.887979 183.83138,323.887979 C170.621346,323.887979 159.103838,316.56758 153.154712,305.749095 C158.14008,308.488667 163.886935,310.03544 169.981815,310.03544 C189.316474,310.03544 204.977548,294.377341 204.977548,275.042682 C204.977548,268.944828 203.4278,263.200947 200.688228,258.215579 C211.506713,264.164705 218.827112,275.682213 218.827112,288.892247" id="fill-17" fill="#FFFFFF"></path>
                    <path d="M212.415151,268.364027 C207.324027,265.584581 201.496546,263.988135 195.312959,263.988135 C175.696892,263.988135 159.807879,279.874131 159.807879,299.490197 C159.807879,305.673785 161.407342,311.504284 164.189806,316.589372 C153.210845,310.553659 145.756739,298.868519 145.756739,285.43604 C145.756739,265.819974 161.642735,249.933978 181.258802,249.933978 C194.69128,249.933978 206.379438,257.388083 212.415151,268.364027" id="fill-19" fill="#B4D4EC"></path>
                    <path d="M193.093627,285.436644 C193.093627,278.899967 187.794271,273.600611 181.260612,273.600611 C174.723936,273.600611 169.42458,278.899967 169.42458,285.436644 C169.42458,291.973321 174.723936,297.272676 181.260612,297.272676 C187.794271,297.272676 193.093627,291.973321 193.093627,285.436644" id="fill-21" fill="#9AE0E6"></path>
                    <path d="M311.441279,285.436644 C311.441279,265.829631 295.543212,249.931564 275.936199,249.931564 C256.329186,249.931564 240.434137,265.829631 240.434137,285.436644 C240.434137,305.043657 256.329186,320.941724 275.936199,320.941724 C295.543212,320.941724 311.441279,305.043657 311.441279,285.436644" id="fill-23" fill="#E6F0F9"></path>
                    <path d="M313.503302,288.892247 C313.503302,308.226906 297.842229,323.887979 278.50757,323.887979 C265.30051,323.887979 253.780028,316.56758 247.830902,305.749095 C252.819244,308.488667 258.563125,310.03544 264.658005,310.03544 C283.992664,310.03544 299.653738,294.377341 299.653738,275.042682 C299.653738,268.944828 298.106965,263.200947 295.364418,258.215579 C306.185878,264.164705 313.503302,275.682213 313.503302,288.892247" id="fill-25" fill="#FFFFFF"></path>
                    <path d="M307.091341,268.364027 C302.000217,265.584581 296.175754,263.988135 289.989149,263.988135 C270.3761,263.988135 254.484069,279.874131 254.484069,299.490197 C254.484069,305.673785 256.08655,311.504284 258.865996,316.589372 C247.890052,310.553659 240.432929,298.868519 240.432929,285.43604 C240.432929,265.819974 256.321943,249.933978 275.93801,249.933978 C289.370488,249.933978 301.055628,257.388083 307.091341,268.364027" id="fill-27" fill="#B4D4EC"></path>
                    <path d="M287.773137,285.436644 C287.773137,278.899967 282.473781,273.600611 275.937104,273.600611 C269.400427,273.600611 264.101072,278.899967 264.101072,285.436644 C264.101072,291.973321 269.400427,297.272676 275.937104,297.272676 C282.473781,297.272676 287.773137,291.973321 287.773137,285.436644" id="fill-29" fill="#9AE0E6"></path>
                    <polygon id="fill-31" fill="#4CE2FF" points="133.919198 84.2476275 193.093325 84.2476275 193.093325 48.7425474 133.919198 48.7425474"></polygon>
                    <polygon id="fill-33" fill="#E6F0F9" points="275.937406 113.83439 228.596293 113.83439 199.012247 143.421453 275.937406 143.421453"></polygon>
                    <polygon id="fill-34" fill="#B4D4EC" points="275.937406 113.83439 275.919299 124.689619 239.45454 124.689619 220.722706 143.421453 199.012247 143.421453 228.596293 113.83439"></polygon>
                    <polygon id="fill-35" fill="#4CA6FF" points="133.919198 84.2476275 151.673247 84.2476275 151.673247 48.7425474 133.919198 48.7425474"></polygon>
                    <path d="M97.704016,285.436644 C97.704016,291.577982 92.724553,296.557445 86.5832153,296.557445 C80.4388597,296.557445 75.4624145,291.577982 75.4624145,285.436644 C75.4624145,279.295306 80.4388597,274.312825 86.5832153,274.312825 C92.724553,274.312825 97.704016,279.295306 97.704016,285.436644 Z" id="stroke-36" stroke="#17317B" stroke-width="10" stroke-linecap="round" stroke-linejoin="round"></path>
                    <path d="M122.085579,285.436644 C122.085579,305.043657 106.19053,320.938706 86.583517,320.938706 C66.9734864,320.938706 51.0814547,305.043657 51.0814547,285.436644 C51.0814547,265.829631 66.9734864,249.931564 86.583517,249.931564 C106.19053,249.931564 122.085579,265.829631 122.085579,285.436644 Z" id="stroke-37" stroke="#17317B" stroke-width="10" stroke-linecap="round" stroke-linejoin="round"></path>
                    <path d="M192.507258,285.436644 C192.507258,291.577982 187.527795,296.557445 181.386457,296.557445 C175.245119,296.557445 170.265656,291.577982 170.265656,285.436644 C170.265656,279.295306 175.245119,274.312825 181.386457,274.312825 C187.527795,274.312825 192.507258,279.295306 192.507258,285.436644 Z" id="stroke-38" stroke="#17317B" stroke-width="10" stroke-linecap="round" stroke-linejoin="round"></path>
                    <path d="M216.888821,285.436644 C216.888821,305.043657 200.993772,320.938706 181.386759,320.938706 C161.779746,320.938706 145.884696,305.043657 145.884696,285.436644 C145.884696,265.829631 161.779746,249.931564 181.386759,249.931564 C200.993772,249.931564 216.888821,265.829631 216.888821,285.436644 Z" id="stroke-39" stroke="#17317B" stroke-width="10" stroke-linecap="round" stroke-linejoin="round"></path>
                    <path d="M287.059716,285.436644 C287.059716,291.577982 282.080253,296.557445 275.935897,296.557445 C269.794559,296.557445 264.818114,291.577982 264.818114,285.436644 C264.818114,279.295306 269.794559,274.312825 275.935897,274.312825 C282.080253,274.312825 287.059716,279.295306 287.059716,285.436644 Z" id="stroke-40" stroke="#17317B" stroke-width="10" stroke-linecap="round" stroke-linejoin="round"></path>
                    <path d="M311.441279,285.436644 C311.441279,305.043657 295.543212,320.938706 275.936199,320.938706 C256.329186,320.938706 240.437154,305.043657 240.437154,285.436644 C240.437154,265.829631 256.329186,249.931564 275.936199,249.931564 C295.543212,249.931564 311.441279,265.829631 311.441279,285.436644 Z" id="stroke-41" stroke="#17317B" stroke-width="10" stroke-linecap="round" stroke-linejoin="round"></path>
                    <path d="M181.123904,243.867483 L181.123904,239.612306 C181.123904,235.492932 184.464671,232.152165 188.584044,232.152165 L268.475756,232.152165 C272.59513,232.152165 275.935897,235.492932 275.935897,239.612306 L275.935897,243.867483" id="stroke-42" stroke="#17317B" stroke-width="10" stroke-linecap="round" stroke-linejoin="round"></path>
                    <path d="M289.399761,143.420548 C300.614116,143.420548 307.742292,155.431616 302.358437,165.284917 L283.007942,200.789998 C280.406549,205.552175 275.433122,208.509674 270.019088,208.509674 L246.35004,208.509674 L92.4997227,208.509674 L89.5392056,208.509674 C81.3759041,208.509674 74.7486915,201.882462 74.7486915,193.71916 L74.7486915,158.21408 C74.7486915,150.047761 81.3759041,143.420548 89.5392056,143.420548 L289.399761,143.420548 Z" id="stroke-43" stroke="#17317B" stroke-width="10" stroke-linecap="round" stroke-linejoin="round"></path>
                    <polygon id="stroke-44" stroke="#17317B" stroke-width="10" stroke-linecap="round" stroke-linejoin="round" points="133.919198 84.2506454 193.093325 84.2506454 193.093325 48.7455652 133.919198 48.7455652"></polygon>
                    <path d="M8.32506926,147.735177 C15.6735495,140.386697 27.5820107,140.386697 34.930491,147.735177 C42.2759534,155.083658 42.2759534,166.992119 34.930491,174.337581" id="stroke-45" stroke="#17317B" stroke-width="10" stroke-linecap="round" stroke-linejoin="round"></path>
                    <polygon id="stroke-46" stroke="#17317B" stroke-width="10" stroke-linecap="round" stroke-linejoin="round" points="275.937406 113.83439 228.596293 113.83439 199.012247 143.421453 275.937406 143.421453"></polygon>
                    <polyline id="stroke-47" stroke="#17317B" stroke-width="10" stroke-linecap="round" stroke-linejoin="round" points="228.5299 232.152768 228.5299 179.083764 139.958834 179.083764 86.5820081 232.463607 86.5820081 249.933978"></polyline>
                    <polyline id="stroke-48" stroke="#17317B" stroke-width="10" stroke-linecap="round" stroke-linejoin="round" points="123.353079 143.420548 81.2962327 101.363702 34.9298874 147.736083"></polyline>
                    <path d="M163,84.2482311 L163,142.22427" id="stroke-49" stroke="#17317B" stroke-width="10" stroke-linecap="round" stroke-linejoin="round"></path>
                    <polyline id="stroke-50" stroke="#17317B" stroke-width="10" stroke-linecap="round" stroke-linejoin="round" points="298.309077 38.6828249 250.832161 86.1597413 250.832161 113.833484"></polyline>
                    <path d="M93.2170671,101.282521 C93.2170671,107.81618 87.9207292,113.115536 81.3840523,113.115536 C74.8473754,113.115536 69.5480196,107.81618 69.5480196,101.282521 C69.5480196,94.7458445 74.8473754,89.4464887 81.3840523,89.4464887 C87.9207292,89.4464887 93.2170671,94.7458445 93.2170671,101.282521" id="fill-51" fill="#E6F0F9"></path>
                    <path d="M93.2170671,101.282521 C93.2170671,107.81618 87.9207292,113.115536 81.3840523,113.115536 C74.8473754,113.115536 69.5480196,107.81618 69.5480196,101.282521 C69.5480196,94.7458445 74.8473754,89.4464887 81.3840523,89.4464887 C87.9207292,89.4464887 93.2170671,94.7458445 93.2170671,101.282521 Z" id="stroke-52" stroke="#17317B" stroke-width="10"></path>
                    <path d="M250.712955,50.1470577 C250.712955,69.8385705 266.674398,85.8000129 286.36591,85.8000129 C296.213176,85.8000129 305.124906,81.8104067 311.5801,75.3582298 L261.154738,24.9358856 C254.702561,31.3880625 250.712955,40.3028102 250.712955,50.1470577" id="fill-53" fill="#FFC725"></path>
                    <path d="M265.377927,73.6621945 C264.375998,70.3727311 263.826748,66.8810713 263.826748,63.2626615 C263.826748,53.4153962 267.819372,44.5036663 274.268531,38.0484715 L261.155945,24.9358856 C254.703769,31.3880625 250.714162,40.3028102 250.714162,50.1470577 C250.714162,57.2812702 252.832698,63.9145185 256.439036,69.4854813 C259.517249,74.2355873 263.684909,78.1980327 268.597979,81.0287819 C267.267105,78.7201218 266.171623,76.2605689 265.377927,73.6621945" id="fill-54" fill="#FF8870" opacity="0.5"></path>
                    <path d="M300.991046,64.7706843 C294.538869,71.2258791 285.624121,75.2154852 275.779874,75.2154852 C272.158446,75.2154852 268.669804,74.6662354 265.377323,73.6612892 C262.181413,72.6895394 259.184682,71.2651112 256.438432,69.484576 C259.516646,74.2376998 263.687323,78.1971273 268.600394,81.0308944 C273.833357,84.0487508 279.890194,85.8021254 286.366514,85.8021254 C296.213779,85.8021254 305.125509,81.8095014 311.580704,75.3603423 L300.991046,64.7706843 Z" id="fill-55" fill="#FBEECA"></path>
                    <path d="M250.712955,50.1470577 C250.712955,69.8385705 266.674398,85.8000129 286.36591,85.8000129 C296.213176,85.8000129 305.124906,81.8104067 311.5801,75.3582298 L261.154738,24.9358856 C254.702561,31.3880625 250.712955,40.3028102 250.712955,50.1470577 Z" id="stroke-56" stroke="#17317B" stroke-width="10" stroke-linecap="round" stroke-linejoin="round"></path>
                    <g id="group-6" transform="translate(9.000000, 0.000000)" fill="#9AE0E6">
                        <path d="M12.6977944,61.3076941 C11.3940805,61.3076941 10.247295,62.1315689 9.83384871,63.3719079 L8.04727774,68.728603 L2.69058268,70.5151739 C1.45024372,70.9286202 0.626368927,72.0754057 0.626368927,73.3791196 C0.626368927,74.6828336 1.45024372,75.829619 2.69058268,76.2400475 L8.04727774,78.0296363 L9.83384871,83.3863313 C10.247295,84.6236524 11.3940805,85.4505451 12.6977944,85.4505451 C14.0015084,85.4505451 15.1482938,84.6236524 15.5587222,83.3863313 L17.3483111,78.0266184 L22.7050061,76.2400475 C23.9423272,75.829619 24.7692199,74.6828336 24.7692199,73.3791196 C24.7692199,72.0754057 23.9423272,70.9286202 22.7050061,70.5151739 L17.3483111,68.7316208 L15.5587222,63.3719079 C15.1482938,62.1315689 14.0015084,61.3076941 12.6977944,61.3076941" id="fill-57"></path>
                        <path d="M205.840602,0.95056677 C204.536888,0.95056677 203.390103,1.77745942 202.976656,3.01478053 L201.190085,8.37449344 L195.83339,10.1610644 C194.596069,10.5714929 193.769177,11.7182783 193.769177,13.0219922 C193.769177,14.3257062 194.596069,15.4724916 195.83339,15.8859379 L201.193103,17.6725089 L202.976656,23.029204 C203.390103,24.2695429 204.536888,25.0934177 205.840602,25.0934177 C207.144316,25.0934177 208.291101,24.2665251 208.70153,23.029204 L210.488101,17.6725089 L215.847814,15.8859379 C217.085135,15.4724916 217.912027,14.3257062 217.912027,13.0219922 C217.912027,11.7182783 217.085135,10.5714929 215.847814,10.1610644 L210.488101,8.37147558 L208.70153,3.01478053 C208.291101,1.77745942 207.144316,0.95056677 205.840602,0.95056677" id="fill-58"></path>
                        <path d="M15.7156508,212.200513 C14.4119368,212.200513 13.2651514,213.027405 12.8517051,214.264726 L10.31067,221.884814 L2.69058268,224.425849 C1.45024372,224.836277 0.626368927,225.983063 0.626368927,227.289794 C0.626368927,228.593508 1.45024372,229.740294 2.69058268,230.150722 L10.31067,232.691757 L12.8517051,240.311845 C13.2651514,241.552184 14.4119368,242.379076 15.7156508,242.379076 C17.0193647,242.379076 18.1661501,241.552184 18.5795965,240.311845 L21.1206315,232.691757 L28.7407189,230.150722 C29.97804,229.740294 30.8049326,228.593508 30.8049326,227.289794 C30.8049326,225.983063 29.97804,224.836277 28.7407189,224.425849 L21.1206315,221.884814 L18.5795965,214.264726 C18.1661501,213.027405 17.0193647,212.200513 15.7156508,212.200513" id="fill-59"></path>
                        <path d="M341.644139,163.914811 C340.340425,163.914811 339.193639,164.738685 338.780193,165.979024 L336.239158,173.599112 L328.619071,176.143165 C327.381749,176.550575 326.554857,177.700379 326.554857,179.004093 C326.554857,180.307806 327.381749,181.454592 328.619071,181.86502 L336.242176,184.409073 L338.780193,192.029161 C339.193639,193.266482 340.340425,194.093374 341.644139,194.093374 C342.947853,194.093374 344.094638,193.266482 344.505066,192.029161 L347.046101,184.409073 L354.666189,181.86502 C355.906528,181.454592 356.73342,180.307806 356.73342,179.004093 C356.73342,177.700379 355.906528,176.550575 354.666189,176.143165 L347.046101,173.60213 L344.505066,165.979024 C344.094638,164.738685 342.947853,163.914811 341.644139,163.914811" id="fill-61"></path>
                    </g>
                    <g id="group-4" transform="translate(91.000000, 34.000000)" fill="#47E3FF">
                        <path d="M6.14420362,0.146986826 C2.80947233,0.146986826 0.108490883,2.85098613 0.108490883,6.18269956 C0.108490883,9.51441299 2.80947233,12.2184123 6.14420362,12.2184123 C9.47591705,12.2184123 12.1799164,9.51441299 12.1799164,6.18269956 C12.1799164,2.85098613 9.47591705,0.146986826 6.14420362,0.146986826" id="fill-60"></path>
                        <path d="M247.572713,72.5755397 C244.241,72.5755397 241.537,75.279539 241.537,78.6112524 C241.537,81.9429658 244.241,84.6469652 247.572713,84.6469652 C250.904427,84.6469652 253.608426,81.9429658 253.608426,78.6112524 C253.608426,75.279539 250.904427,72.5755397 247.572713,72.5755397" id="fill-62"></path>
                        <path d="M241.537,193.289794 C238.217358,193.289794 235.501288,196.002847 235.501288,199.325507 C235.501288,202.648167 238.217358,205.36122 241.537,205.36122 C244.85966,205.36122 247.572713,202.648167 247.572713,199.325507 C247.572713,196.002847 244.85966,193.289794 241.537,193.289794" id="fill-63"></path>
                    </g>
                </g>
            </g>
        </g>
    </g>
</svg>