<?xml version="1.0" encoding="UTF-8"?>
<svg width="120px" height="120px" viewBox="0 0 120 120" version="1.1" xmlns="http://www.w3.org/2000/svg" xmlns:xlink="http://www.w3.org/1999/xlink">
    <!-- Generator: Sketch 44 (41411) - http://www.bohemiancoding.com/sketch -->
    <title>home-04</title>
    <desc>Created with Sketch.</desc>
    <defs>
        <rect id="path-1" x="0" y="0" width="260" height="276" rx="3"></rect>
        <filter x="-10.8%" y="-7.2%" width="121.5%" height="120.3%" filterUnits="objectBoundingBox" id="filter-2">
            <feOffset dx="0" dy="8" in="SourceAlpha" result="shadowOffsetOuter1"></feOffset>
            <feGaussianBlur stdDeviation="8" in="shadowOffsetOuter1" result="shadowBlurOuter1"></feGaussianBlur>
            <feColorMatrix values="0 0 0 0 0   0 0 0 0 0.0274509804   0 0 0 0 0.2  0 0 0 0.1 0" type="matrix" in="shadowBlurOuter1"></feColorMatrix>
        </filter>
    </defs>
    <g id="_____Page" stroke="none" stroke-width="1" fill="none" fill-rule="evenodd">
        <g id="home" transform="translate(-1080.000000, -3927.000000)">
            <g id="section-5" transform="translate(-2.000000, 3627.000000)">
                <rect id="background" fill="#4C6AFF" x="0" y="0" width="1440" height="672"></rect>
                <g id="Group" transform="translate(172.000000, 244.000000)">
                    <g id="n4" transform="translate(840.000000, 0.000000)">
                        <g id="Rectangle">
                            <use fill="black" fill-opacity="1" filter="url(#filter-2)" xlink:href="#path-1"></use>
                            <use fill="#FFFFFF" fill-rule="evenodd" xlink:href="#path-1"></use>
                        </g>
                        <g id="Shuttle" transform="translate(70.000000, 56.000000)">
                            <rect id="Rectangle-14-Copy-6" x="0" y="0" width="120" height="120"></rect>
                            <g id="Group-39" transform="translate(4.000000, 5.000000)">
                                <path d="M81.9356,46.603 L47.4926,81.046 C47.6336,78.84 46.8556,76.577 45.1656,74.888 C42.0406,71.762 36.9776,71.762 33.8526,74.888 C36.9776,71.762 36.9776,66.699 33.8526,63.574 C32.1626,61.883 29.8996,61.106 27.6936,61.247 L62.1366,26.804 L70.1696,18.771 C71.4066,17.534 72.8496,16.53 74.4266,15.787 L85.8176,10.477 L86.1786,11.248 C86.1786,11.646 97.0946,22.561 97.4916,22.561 L98.2636,22.922 L92.9526,34.313 C92.2096,35.89 91.2056,37.333 89.9686,38.57 L81.9356,46.603" id="Fill-184" fill="#E7F0FA"></path>
                                <path d="M99.1245,24.2549 L93.8145,35.6449 C93.0745,37.2249 92.0745,38.6649 90.8345,39.9049 L82.8045,47.9349 L48.3545,82.3749 C48.5045,80.1949 47.7345,77.9449 46.0745,76.2649 L86.6345,35.7049 C87.8745,34.4649 93.0345,29.4039 93.7845,27.8249 L96.9365,20.9379 C98.8675,22.8279 98.2145,23.8949 98.3545,23.8949 L99.1245,24.2549 Z" id="Fill-185" fill="#FEFEFE"></path>
                                <path d="M88.8711,9.6191 C88.8711,9.7691 90.3501,11.3391 92.2411,13.2691 L81.3211,18.3601 C79.7411,19.1101 78.3011,20.1101 77.0611,21.3491 L34.9161,63.5831 C33.2361,61.9231 31.4301,60.6051 29.2491,60.7451 L64.8301,25.1801 L72.8611,17.1501 C74.1001,15.9101 76.4301,12.3901 78.0101,11.6391 L88.5101,8.8491 L88.8711,9.6191" id="Fill-186" fill="#B5D5EC"></path>
                                <path d="M47.4927,81.0464 C47.4077,82.4464 46.9487,83.8254 46.1347,85.0344 C45.8517,85.4444 45.5337,85.8334 45.1657,86.2014 L39.1697,92.1974 L62.1367,106.0004 L66.3797,101.7574 L70.5207,97.6164 C72.3967,95.7404 73.4507,93.1954 73.4507,90.5424 L73.4507,74.4934 C73.4507,72.8804 73.7107,71.2794 74.2207,69.7494 L81.9357,46.6034 L47.4927,81.0464 Z" id="Fill-187" fill="#E7F0FA"></path>
                                <path d="M81.9995,46 L71.5395,56.46 L68.2795,66.23 L68.2795,84.71 C68.2795,87.37 67.2295,89.91 65.3595,91.79 L61.2095,95.93 L56.9695,100.17 L40.5295,90.3 L39.2295,91.6 L62.1995,105.4 L66.4395,101.16 L70.5795,97.01 C72.4595,95.14 73.5095,92.6 73.5095,89.94 L73.5095,71.46 L81.9995,46 Z" id="Fill-188" fill="#FEFEFE"></path>
                                <polygon id="Fill-189" fill="#7AC9D0" points="36.6812 94.6865 31.0242 100.3435 19.7102 89.0295 25.3672 83.3725"></polygon>
                                <polygon id="Fill-190" fill="#ABDBE2" points="33.3804 91.3857 27.9054 96.8707 31.2004 100.1667 36.6814 94.6867"></polygon>
                                <polygon id="Fill-191" fill="#49B1BC" points="26.5337 84.5386 21.1507 89.9316 23.5157 92.2976 28.9087 86.9136"></polygon>
                                <path d="M45.166,74.8877 C42.041,71.7627 36.978,71.7627 33.853,74.8877 L29.61,79.1297 L26.781,81.9587 L25.367,83.3727 L36.681,94.6867 L39.169,92.1977 L45.166,86.2007 C45.534,85.8337 45.852,85.4447 46.135,85.0337 C46.948,83.8257 47.408,82.4467 47.493,81.0457 C47.634,78.8397 46.856,76.5767 45.166,74.8877" id="Fill-192" fill="#E7F0FA"></path>
                                <path d="M48.565,81.7705 C48.485,83.1705 48.025,84.5505 47.215,85.7605 C46.925,86.1705 46.615,86.5605 46.245,86.9305 L40.245,92.9205 L37.755,95.4105 L33.555,91.2105 L36.045,88.7205 L42.045,82.7305 C42.415,82.3605 42.735,81.9705 43.015,81.5605 C43.825,80.3505 44.285,78.9705 44.375,77.5705 C44.455,76.3405 44.245,75.0805 43.735,73.9205 C44.645,74.3005 45.495,74.8705 46.245,75.6105 C47.935,77.3005 48.715,79.5705 48.565,81.7705" id="Fill-193" fill="#FEFEFE"></path>
                                <path d="M44.7105,74.1616 C45.4505,74.9116 46.0205,75.7616 46.4105,76.6716 C45.2505,76.1616 43.9905,75.9516 42.7505,76.0316 C41.3505,76.1216 39.9705,76.5816 38.7605,77.3916 C38.3505,77.6716 37.9605,77.9916 37.5895,78.3616 L31.5895,84.3616 L29.1095,86.8416 L36.2205,93.9616 L24.9105,82.6516 L27.4005,80.1616 L33.3905,74.1616 C33.7605,73.7916 34.1505,73.4726 34.5605,73.1916 C35.7705,72.3816 37.1505,71.9216 38.5505,71.8316 C40.7505,71.6916 43.0205,72.4716 44.7105,74.1616" id="Fill-194" fill="#B5D5EC"></path>
                                <path d="M99.1963,20.9277 L98.2633,22.9227 L97.4913,22.5607 C93.5213,22.5607 86.1783,15.2177 86.1783,11.2477 L85.8183,10.4767 L87.8113,9.5437 C91.0783,8.0157 94.9463,8.7017 97.4913,11.2477 C98.7653,12.5207 99.5713,14.1187 99.8683,15.8157 C100.1653,17.5127 99.9673,19.2947 99.1963,20.9277" id="Fill-195" fill="#7AC9D0"></path>
                                <path d="M91.4331,8.7378 C90.5061,8.7378 89.5741,8.8878 88.6731,9.1958 C88.3821,9.2958 88.0951,9.4108 87.8111,9.5438 L86.3151,10.2438 L86.3581,10.3358 C86.3581,11.0078 86.3671,11.7628 86.3801,12.5038 C86.6411,13.3858 87.1411,14.3568 87.8001,15.3368 L92.6871,13.0498 C93.9461,12.4608 95.2851,12.1758 96.6131,12.1758 C97.2231,12.1758 97.8301,12.2368 98.4271,12.3548 C98.1501,11.9648 97.8381,11.5938 97.4921,11.2478 C95.8501,9.6058 93.6591,8.7378 91.4331,8.7378" id="Fill-196" fill="#49B1BC"></path>
                                <polygon id="Fill-197" fill="#7AC9D0" points="25.3672 83.3725 19.7102 89.0295 8.3962 77.7155 14.0532 72.0595"></polygon>
                                <polygon id="Fill-198" fill="#ABDBE2" points="22.3335 80.3388 16.8815 85.7998 19.9105 88.8288 19.9795 88.7598 25.3675 83.3728 24.7085 82.7138"></polygon>
                                <polygon id="Fill-199" fill="#49B1BC" points="14.0532 72.0591 8.6892 77.4231 12.4922 81.2261 17.8622 75.8671"></polygon>
                                <path d="M33.8526,63.5737 C32.1626,61.8837 29.8996,61.1057 27.6936,61.2467 C26.2936,61.3317 24.9146,61.7917 23.7056,62.6047 C23.2956,62.8877 22.9066,63.2057 22.5386,63.5737 L16.5426,69.5697 L14.0536,72.0587 L25.3676,83.3727 L26.7816,81.9587 L29.6096,79.1297 L33.8526,74.8867 C36.9776,71.7617 36.9776,66.6987 33.8526,63.5737" id="Fill-200" fill="#E7F0FA"></path>
                                <path d="M37.542,70.7002 C37.462,72.1002 37.002,73.4802 36.192,74.6902 C35.902,75.1002 35.592,75.4902 35.222,75.8602 L29.222,81.8502 L26.732,84.3402 L22.532,80.1402 L25.022,77.6502 L31.022,71.6602 C31.392,71.2902 31.712,70.9002 31.992,70.4902 C32.802,69.2802 33.262,67.9002 33.352,66.5002 C33.432,65.2702 33.222,64.0102 32.712,62.8502 C33.622,63.2302 34.472,63.8002 35.222,64.5402 C36.912,66.2302 37.692,68.5002 37.542,70.7002" id="Fill-201" fill="#FEFEFE"></path>
                                <path d="M33.687,63.0913 C34.427,63.8413 34.997,64.6913 35.387,65.6013 C34.227,65.0913 32.967,64.8813 31.727,64.9613 C30.327,65.0513 28.947,65.5113 27.737,66.3213 C27.327,66.6013 26.937,66.9213 26.567,67.2913 L20.567,73.2913 L18.087,75.7713 L25.197,82.8913 L13.887,71.5813 L16.377,69.0913 L22.367,63.0913 C22.737,62.7213 23.127,62.4013 23.537,62.1213 C24.747,61.3113 26.127,60.8513 27.527,60.7613 C29.727,60.6213 31.997,61.4013 33.687,63.0913" id="Fill-202" fill="#B5D5EC"></path>
                                <path d="M36.6807,35.2895 L18.1977,35.2895 C15.5387,35.2895 12.9997,36.3425 11.1257,38.2165 L6.9827,42.3605 L2.7397,46.6025 L16.5427,69.5695 L22.5387,63.5735 C22.9067,63.2065 23.2957,62.8875 23.7057,62.6045 C24.9147,61.7915 26.2937,61.3315 27.6937,61.2475 L62.1367,26.8045 L36.6807,35.2895 Z" id="Fill-203" fill="#E7F0FA"></path>
                                <path d="M62.1397,26.7998 L51.6797,37.2598 L41.9097,40.5198 L23.4297,40.5198 C20.7697,40.5198 18.2297,41.5698 16.3497,43.4398 L12.2097,47.5898 L7.9697,51.8298 L17.8397,68.2698 L16.5397,69.5698 L2.7397,46.5998 L6.9797,42.3598 L11.1297,38.2198 C12.9997,36.3398 15.5397,35.2898 18.1997,35.2898 L36.6797,35.2898 L62.1397,26.7998 Z" id="Fill-204" fill="#B5D5EC"></path>
                                <path d="M99.1963,20.9282 L98.2633,22.9222 L97.4923,22.5612 C93.5213,22.5612 86.1783,15.2182 86.1783,11.2482 L85.8183,10.4772 L87.8123,9.5432 C91.0783,8.0162 94.9463,8.7022 97.4923,11.2482 C98.7653,12.5212 99.5713,14.1192 99.8683,15.8162 C100.1653,17.5132 99.9673,19.2942 99.1963,20.9282" id="Stroke-279" stroke="#17317B" stroke-width="3.8" stroke-linecap="round" stroke-linejoin="round"></path>
                                <path d="M89.9165,38.518 L81.8835,46.551" id="Stroke-280" stroke="#17317B" stroke-width="3.8" stroke-linecap="round" stroke-linejoin="round"></path>
                                <path d="M81.8838,46.5512 L47.4408,80.9942 C47.5818,78.7872 46.8038,76.5252 45.1138,74.8352 C41.9888,71.7102 36.9258,71.7102 33.8008,74.8352 C36.9258,71.7102 36.9258,66.6462 33.8008,63.5222 C32.1108,61.8312 29.8478,61.0532 27.6418,61.1952 L62.0848,26.7522 L70.1168,18.7192" id="Stroke-281" stroke="#17317B" stroke-width="3.8" stroke-linecap="round" stroke-linejoin="round"></path>
                                <polyline id="Stroke-282" stroke="#17317B" stroke-width="3.8" stroke-linecap="round" stroke-linejoin="round" points="36.6289 94.6343 30.9719 100.2913 19.6579 88.9773 25.3159 83.3203 36.6289 94.6343"></polyline>
                                <path d="M45.1143,74.8354 C41.9893,71.7104 36.9263,71.7104 33.8003,74.8354 L29.5573,79.0784 L26.7293,81.9064 L25.3153,83.3204 L36.6293,94.6344 L39.1173,92.1454 L45.1143,86.1484 C45.4813,85.7814 45.8003,85.3924 46.0823,84.9814 C46.8953,83.7734 47.3553,82.3944 47.4403,80.9944 C47.5813,78.7874 46.8033,76.5254 45.1143,74.8354" id="Stroke-283" stroke="#17317B" stroke-width="3.8" stroke-linecap="round" stroke-linejoin="round"></path>
                                <polyline id="Stroke-284" stroke="#17317B" stroke-width="3.8" stroke-linecap="round" stroke-linejoin="round" points="25.3155 83.3203 19.6585 88.9773 8.3445 77.6633 14.0015 72.0073 25.3155 83.3203"></polyline>
                                <path d="M33.8003,63.5215 C32.1103,61.8315 29.8473,61.0535 27.6413,61.1955 C26.2413,61.2795 24.8623,61.7395 23.6533,62.5525 C23.2433,62.8355 22.8543,63.1535 22.4873,63.5215 L16.4903,69.5175 L14.0013,72.0065 L25.3153,83.3205 L26.7293,81.9065 L29.5573,79.0775 L33.8003,74.8345 C36.9253,71.7095 36.9253,66.6465 33.8003,63.5215 Z" id="Stroke-285" stroke="#17317B" stroke-width="3.8" stroke-linecap="round" stroke-linejoin="round"></path>
                                <path d="M47.4405,80.9941 C47.3555,82.3941 46.8965,83.7731 46.0825,84.9821 C45.7995,85.3921 45.4825,85.7811 45.1145,86.1491 L39.1175,92.1451 L62.0845,105.9481 L66.3275,101.7051 L70.4685,97.5641 C72.3445,95.6881 73.3985,93.1431 73.3985,90.4911 L73.3985,74.4411 C73.3985,72.8281 73.6585,71.2271 74.1685,69.6981 L81.8835,46.5511 L47.4405,80.9941 Z" id="Stroke-286" stroke="#17317B" stroke-width="3.8" stroke-linecap="round" stroke-linejoin="round"></path>
                                <path d="M36.6289,35.2373 L18.1449,35.2373 C15.4859,35.2373 12.9479,36.2913 11.0739,38.1643 L6.9299,42.3083 L2.6879,46.5503 L16.4899,69.5173 L22.4869,63.5213 C22.8549,63.1543 23.2429,62.8353 23.6529,62.5523 C24.8619,61.7393 26.2409,61.2793 27.6419,61.1953 L62.0849,26.7523 L36.6289,35.2373 Z" id="Stroke-287" stroke="#17317B" stroke-width="3.8" stroke-linecap="round" stroke-linejoin="round"></path>
                                <path d="M88.7803,39.6543 L93.6203,34.8143 C94.4013,34.0333 94.9913,33.0853 95.3503,32.0403 L100.2463,17.7373 C100.5823,16.7563 100.7043,15.7133 100.6053,14.6773 C100.2683,11.1623 97.4733,8.3673 93.9573,8.0303 C92.9223,7.9313 91.8793,8.0533 90.8983,8.3893 L76.5953,13.2853 C75.5503,13.6433 74.6013,14.2353 73.8213,15.0153 L68.9813,19.8553" id="Stroke-288" stroke="#17317B" stroke-width="3.8" stroke-linecap="round" stroke-linejoin="round"></path>
                                <path d="M64.8125,43.8227 L69.1555,39.4797" id="Stroke-289" stroke="#17317B" stroke-width="3.8" stroke-linecap="round" stroke-linejoin="round"></path>
                                <path d="M47.8994,60.7363 L59.3124,49.3223" id="Stroke-290" stroke="#17317B" stroke-width="3.8" stroke-linecap="round" stroke-linejoin="round"></path>
                                <path d="M6.9302,42.3081 L23.7052,62.6051" id="Stroke-291" stroke="#17317B" stroke-width="3.8" stroke-linecap="round" stroke-linejoin="round"></path>
                                <path d="M66.3272,101.7051 L46.0312,84.9301" id="Stroke-292" stroke="#17317B" stroke-width="3.8" stroke-linecap="round" stroke-linejoin="round"></path>
                                <path d="M84.8916,32.8921 C84.8736,30.5561 83.9766,28.2241 82.1946,26.4411 C80.4116,24.6581 78.0796,23.7611 75.7436,23.7441" id="Stroke-293" stroke="#17317B" stroke-width="3.8" stroke-linecap="round" stroke-linejoin="round"></path>
                                <path d="M16.9995,101 C16.5675,101 16.1875,101.274 16.0505,101.684 L15.4585,103.459 L13.6835,104.051 C13.2735,104.188 12.9995,104.568 12.9995,105 C12.9995,105.432 13.2735,105.812 13.6835,105.949 L15.4585,106.541 L16.0505,108.316 C16.1875,108.726 16.5675,109 16.9995,109 C17.4315,109 17.8115,108.726 17.9485,108.316 L18.5405,106.541 L20.3155,105.949 C20.7255,105.812 20.9995,105.432 20.9995,105 C20.9995,104.568 20.7255,104.188 20.3155,104.051 L18.5405,103.459 L17.9485,101.684 C17.8115,101.274 17.4315,101 16.9995,101" id="Fill-723" fill="#99D4DB"></path>
                                <path d="M2,82 C0.895,82 0,82.896 0,84 C0,85.104 0.895,86 2,86 C3.104,86 4,85.104 4,84 C4,82.896 3.104,82 2,82" id="Fill-724" fill="#99D4DB"></path>
                                <path d="M11.9995,17 C11.5675,17 11.1875,17.274 11.0505,17.684 L10.2085,20.209 L7.6835,21.051 C7.2735,21.188 6.9995,21.568 6.9995,22 C6.9995,22.432 7.2735,22.812 7.6835,22.949 L10.2085,23.791 L11.0505,26.316 C11.1875,26.726 11.5675,27 11.9995,27 C12.4315,27 12.8115,26.726 12.9485,26.316 L13.7905,23.791 L16.3155,22.949 C16.7255,22.812 16.9995,22.432 16.9995,22 C16.9995,21.568 16.7255,21.188 16.3155,21.051 L13.7905,20.209 L12.9485,17.684 C12.8115,17.274 12.4315,17 11.9995,17" id="Fill-725" fill="#99D4DB"></path>
                                <path d="M35.9995,20 C34.8955,20 33.9995,20.896 33.9995,22 C33.9995,23.105 34.8955,24 35.9995,24 C37.1035,24 37.9995,23.105 37.9995,22 C37.9995,20.896 37.1035,20 35.9995,20" id="Fill-726" fill="#99D4DB"></path>
                                <path d="M87.9995,0 C86.8955,0 85.9995,0.896 85.9995,2 C85.9995,3.104 86.8955,4 87.9995,4 C89.1035,4 89.9995,3.104 89.9995,2 C89.9995,0.896 89.1035,0 87.9995,0" id="Fill-727" fill="#99D4DB"></path>
                                <path d="M61,5 C60.567,5 60.187,5.274 60.051,5.684 L59.458,7.459 L57.683,8.052 C57.273,8.188 57,8.568 57,9 C57,9.432 57.273,9.812 57.683,9.949 L59.459,10.541 L60.051,12.316 C60.187,12.726 60.567,13 61,13 C61.432,13 61.812,12.726 61.948,12.316 L62.54,10.541 L64.316,9.949 C64.726,9.812 65,9.432 65,9 C65,8.568 64.726,8.188 64.316,8.052 L62.54,7.459 L61.948,5.684 C61.812,5.274 61.432,5 61,5" id="Fill-728" fill="#99D4DB"></path>
                                <path d="M95.9995,53 C95.5675,53 95.1875,53.274 95.0505,53.684 L94.2085,56.209 L91.6835,57.051 C91.2735,57.187 90.9995,57.568 90.9995,58 C90.9995,58.432 91.2735,58.812 91.6835,58.949 L94.2085,59.791 L95.0505,62.316 C95.1875,62.726 95.5675,63 95.9995,63 C96.4315,63 96.8115,62.726 96.9485,62.316 L97.7895,59.791 L100.3155,58.949 C100.7255,58.812 100.9995,58.432 100.9995,58 C100.9995,57.568 100.7255,57.187 100.3155,57.051 L97.7895,56.209 L96.9485,53.684 C96.8115,53.274 96.4315,53 95.9995,53" id="Fill-729" fill="#99D4DB"></path>
                                <path d="M109.9995,34 C108.8945,34 107.9995,34.895 107.9995,36 C107.9995,37.104 108.8945,38 109.9995,38 C111.1035,38 111.9995,37.104 111.9995,36 C111.9995,34.895 111.1035,34 109.9995,34" id="Fill-730" fill="#99D4DB"></path>
                                <path d="M86,82 C84.895,82 84,82.896 84,84 C84,85.104 84.895,86 86,86 C87.104,86 88,85.104 88,84 C88,82.896 87.104,82 86,82" id="Fill-731" fill="#99D4DB"></path>
                                <path d="M77.9995,106 C76.8955,106 75.9995,106.896 75.9995,108 C75.9995,109.105 76.8955,110 77.9995,110 C79.1035,110 79.9995,109.105 79.9995,108 C79.9995,106.896 79.1035,106 77.9995,106" id="Fill-732" fill="#99D4DB"></path>
                            </g>
                        </g>
                    </g>
                </g>
            </g>
        </g>
    </g>
</svg>