<?xml version="1.0" encoding="UTF-8"?>
<svg width="186px" height="190px" viewBox="0 0 186 190" version="1.1" xmlns="http://www.w3.org/2000/svg" xmlns:xlink="http://www.w3.org/1999/xlink">
    <!-- Generator: Sketch 44.1 (41455) - http://www.bohemiancoding.com/sketch -->
    <title>team-type-03</title>
    <desc>Created with Sketch.</desc>
    <defs>
        <polygon id="path-1" points="7.25528766e-16 13.0716322 7.25528766e-16 -0.000326798974 13.0716322 -0.000326798974 13.0716322 13.0716322 0 13.0716322"></polygon>
    </defs>
    <g id="Page" stroke="none" stroke-width="1" fill="none" fill-rule="evenodd">
        <g id="team4" transform="translate(-773.000000, -1140.000000)">
            <g id="team" transform="translate(0.000000, 860.000000)">
                <g id="n1" transform="translate(735.000000, 280.000000)">
                    <g id="team-type-03" transform="translate(38.500000, 0.000000)">
                        <path d="M27.777586,83.3342285 C27.777586,48.137979 57.7711958,19.6084286 94.7713756,19.6084286 C113.521467,19.6084286 130.462726,26.9434316 142.622915,38.7506785 L93.1373807,88.2362131 L137.399034,132.496232 C136.750338,133.006039 136.086936,133.501139 135.418632,133.988069 L27.777586,133.988069 L27.777586,83.3342285 Z" id="Fill-1" fill="#E6F0F9"></path>
                        <path d="M137.112431,132.210446 C148.316734,120.72673 155.228532,105.037112 155.228532,87.7249361 C155.228532,70.6725657 148.519349,55.1986343 137.612433,43.7623042 L93.1367271,88.2363765 L137.112431,132.210446 Z" id="Fill-3" fill="#FF566D"></path>
                        <path d="M135.303762,133.988069 L135.418142,133.988069 C136.086446,133.501139 136.749848,133.006039 137.398544,132.496232 L137.112594,132.210283 C136.522722,132.816495 135.91651,133.406367 135.303762,133.988069" id="Fill-5" fill="#79C8D0"></path>
                        <polygon id="Fill-7" fill="#E6F0F9" points="135.621247 147.060028 135.621247 163.399977 27.777586 163.399977 27.777586 133.988069 122.549288 133.988069"></polygon>
                        <path d="M27.777586,83.3342285 C27.777586,48.137979 57.7711958,19.6084286 94.7713756,19.6084286 C113.521467,19.6084286 130.462726,26.9434316 142.622915,38.7506785 L140.405584,40.9680095 C130.405536,35.0382422 118.738812,31.6215589 106.269797,31.6215589 C69.2516437,31.6215589 39.243328,61.6315087 39.243328,98.6496624 L39.243328,163.399977 L27.777586,163.399977 L27.777586,83.3342285 Z" id="Fill-9" fill="#B4D4EC"></path>
                        <polygon id="Stroke-11" stroke="#17317B" stroke-width="8" stroke-linecap="round" points="151.961196 147.060028 151.961196 163.399977 27.777586 163.399977 27.777586 133.988069 138.889237 133.988069"></polygon>
                        <path d="M106.20934,75.1642542 L142.157227,39.216367" id="Stroke-13" stroke="#17317B" stroke-width="8" stroke-linecap="round"></path>
                        <polyline id="Stroke-15" stroke="#17317B" stroke-width="8" stroke-linecap="round" points="70.2614526 65.3602849 151.961196 147.060028 151.961196 163.399977 27.777586 163.399977 27.777586 88.2362131"></polyline>
                        <path d="M55.5554987,148.694023 C55.5554987,145.986494 53.3610436,143.792039 50.6535141,143.792039 C47.9459846,143.792039 45.7515295,145.986494 45.7515295,148.694023 C45.7515295,151.401553 47.9459846,153.596008 50.6535141,153.596008 C53.3610436,153.596008 55.5554987,151.401553 55.5554987,148.694023 Z" id="Stroke-17" stroke="#17317B" stroke-width="8" stroke-linecap="round"></path>
                        <path d="M89.869391,148 L116.013309,148" id="Stroke-19" stroke="#17317B" stroke-width="8" stroke-linecap="round" stroke-linejoin="round"></path>
                        <path d="M129.085268,148 L132.353258,148" id="Stroke-21" stroke="#17317B" stroke-width="8" stroke-linecap="round" stroke-linejoin="round"></path>
                        <path d="M137.112431,132.210446 C148.316734,120.72673 155.228532,105.037112 155.228532,87.7249361 C155.228532,70.6725657 148.519349,55.1986343 137.612433,43.7623042 L93.1367271,88.2363765 L137.112431,132.210446 Z" id="Stroke-23" stroke="#17317B" stroke-width="8" stroke-linecap="round"></path>
                        <path d="M135.303762,133.988069 L135.418142,133.988069 C136.086446,133.501139 136.749848,133.006039 137.398544,132.496232 L137.112594,132.210283 C136.522722,132.816495 135.91651,133.406367 135.303762,133.988069 Z" id="Stroke-25" stroke="#17317B" stroke-width="8" stroke-linecap="round" stroke-linejoin="round"></path>
                        <path d="M27.777586,83.3342285 C27.777586,48.137979 57.7711958,19.6084286 94.7713756,19.6084286 C113.521467,19.6084286 130.462726,26.9434316 142.622915,38.7506785 L93.1373807,88.2362131 L137.399034,132.496232 C136.750338,133.006039 136.086936,133.501139 135.418632,133.988069 L27.777586,133.988069 L27.777586,83.3342285 Z" id="Stroke-27" stroke="#17317B" stroke-width="8" stroke-linecap="round"></path>
                        <path d="M136.990372,69.6805674 C139.255088,75.4256933 140.498559,81.6855277 140.498559,88.2362131 C140.498559,89.7149785 140.434833,91.1790379 140.310649,92.6251233" id="Stroke-29" stroke="#17317B" stroke-width="8" stroke-linecap="round"></path>
                        <path d="M138.168809,103.462267 C137.585473,105.315218 136.897561,107.122416 136.113243,108.875692" id="Stroke-31" stroke="#17317B" stroke-width="8" stroke-linecap="round"></path>
                        <g id="Group-35" transform="translate(0.000000, 132.353584)">
                            <mask id="mask-2" fill="white">
                                <use xlink:href="#path-1"></use>
                            </mask>
                            <g id="Clip-34"></g>
                            <path d="M6.53565268,-0.000326798974 C5.82976689,-0.000326798974 5.20884884,0.447387795 4.98662554,1.11732569 L4.01930058,4.01766658 L1.11732569,4.98662554 C0.447387795,5.20884884 -0.000326798974,5.82976689 -0.000326798974,6.53565268 C-0.000326798974,7.24153846 0.447387795,7.86245651 1.11732569,8.08631381 L4.01766658,9.05363877 L4.98662554,11.9556137 C5.20884884,12.6255516 5.82976689,13.0716322 6.53565268,13.0716322 C7.24153846,13.0716322 7.86245651,12.6255516 8.08631381,11.9556137 L9.05363877,9.05363877 L11.9539797,8.08631381 C12.6239176,7.86245651 13.0716322,7.24153846 13.0716322,6.53565268 C13.0716322,5.82976689 12.6239176,5.20884884 11.9539797,4.98662554 L9.05363877,4.01766658 L8.08631381,1.11732569 C7.86245651,0.447387795 7.24153846,-0.000326798974 6.53565268,-0.000326798974" id="Fill-33" fill="#9AE0E6" mask="url(#mask-2)"></path>
                        </g>
                        <path d="M166.667967,37.5823722 C165.962081,37.5823722 165.339529,38.0284528 165.117306,38.6983907 L164.149981,41.6003656 L161.248006,42.5676905 C160.578068,42.7915478 160.131987,43.4124659 160.131987,44.1183517 C160.131987,44.8242374 160.578068,45.4451555 161.248006,45.6673788 L164.149981,46.6363377 L165.117306,49.5366786 C165.339529,50.2066165 165.962081,50.6543311 166.667967,50.6543311 C167.373853,50.6543311 167.994771,50.2066165 168.216994,49.5366786 L169.184319,46.6347038 L172.086294,45.6673788 C172.756232,45.4451555 173.203946,44.8242374 173.203946,44.1183517 C173.203946,43.4124659 172.756232,42.7915478 172.086294,42.5676905 L169.184319,41.6003656 L168.216994,38.6983907 C167.994771,38.0284528 167.373853,37.5823722 166.667967,37.5823722" id="Fill-36" fill="#9AE0E6"></path>
                        <path d="M14.705627,17.9736168 C13.9997412,17.9736168 13.3788232,18.4213314 13.1565999,19.0912692 L11.7791422,23.2187403 L7.65330517,24.59293 C6.98336727,24.8167873 6.53565268,25.4377053 6.53565268,26.1435911 C6.53565268,26.8494769 6.98336727,27.4703949 7.65330517,27.6942522 L11.7791422,29.0700759 L13.1565999,33.195913 C13.3788232,33.8658508 13.9997412,34.3135654 14.705627,34.3135654 C15.4115128,34.3135654 16.0324309,33.8658508 16.2562881,33.195913 L17.6321118,29.0700759 L21.7579489,27.6942522 C22.4278868,27.4703949 22.8756014,26.8494769 22.8756014,26.1435911 C22.8756014,25.4377053 22.4278868,24.8167873 21.7579489,24.59293 L17.6321118,23.2171063 L16.2562881,19.0912692 C16.0324309,18.4213314 15.4115128,17.9736168 14.705627,17.9736168" id="Fill-38" fill="#9AE0E6"></path>
                        <path d="M168.301145,122.550105 C167.595259,122.550105 166.974341,122.99782 166.752118,123.667758 L165.37466,127.793595 L161.248823,129.169419 C160.578885,129.391642 160.13117,130.014194 160.13117,130.72008 C160.13117,131.425965 160.578885,132.046884 161.248823,132.269107 L165.376294,133.644931 L166.752118,137.772402 C166.974341,138.442339 167.595259,138.890054 168.301145,138.890054 C169.00703,138.890054 169.627949,138.442339 169.851806,137.772402 L171.227629,133.644931 L175.353467,132.269107 C176.023404,132.046884 176.471119,131.425965 176.471119,130.72008 C176.471119,130.014194 176.023404,129.391642 175.353467,129.169419 L171.227629,127.793595 L169.851806,123.667758 C169.627949,122.99782 169.00703,122.550105 168.301145,122.550105" id="Fill-40" fill="#9AE0E6"></path>
                        <path d="M93.1373807,0.000490198461 C91.3334504,0.000490198461 89.869391,1.46291561 89.869391,3.26847994 C89.869391,5.07241027 91.3334504,6.53646967 93.1373807,6.53646967 C94.942945,6.53646967 96.4053705,5.07241027 96.4053705,3.26847994 C96.4053705,1.46291561 94.942945,0.000490198461 93.1373807,0.000490198461" id="Fill-42" fill="#47E3FF"></path>
                        <path d="M44.1175347,183.007098 C42.3136043,183.007098 40.8495449,184.471158 40.8495449,186.275088 C40.8495449,188.080653 42.3136043,189.543078 44.1175347,189.543078 C45.921465,189.543078 47.3855244,188.080653 47.3855244,186.275088 C47.3855244,184.471158 45.921465,183.007098 44.1175347,183.007098" id="Fill-44" fill="#47E3FF"></path>
                        <path d="M145.425217,173.203129 C143.621286,173.203129 142.157227,174.667189 142.157227,176.471119 C142.157227,178.276683 143.621286,179.739109 145.425217,179.739109 C147.230781,179.739109 148.693206,178.276683 148.693206,176.471119 C148.693206,174.667189 147.230781,173.203129 145.425217,173.203129" id="Fill-46" fill="#47E3FF"></path>
                        <path d="M181.373104,68.6282747 C179.569173,68.6282747 178.105114,70.0907001 178.105114,71.8962644 C178.105114,73.7001948 179.569173,75.1642542 181.373104,75.1642542 C183.177034,75.1642542 184.641093,73.7001948 184.641093,71.8962644 C184.641093,70.0907001 183.177034,68.6282747 181.373104,68.6282747" id="Fill-48" fill="#47E3FF"></path>
                        <path d="M8.17046454,75.1642542 C6.36490021,75.1642542 4.9024748,76.6266796 4.9024748,78.4322439 C4.9024748,80.2361742 6.36490021,81.7002336 8.17046454,81.7002336 C9.97439488,81.7002336 11.4384543,80.2361742 11.4384543,78.4322439 C11.4384543,76.6266796 9.97439488,75.1642542 8.17046454,75.1642542" id="Fill-50" fill="#47E3FF"></path>
                        <path d="M109.477329,88.2362131 C109.477329,99.0646971 100.697875,107.844152 89.869391,107.844152 C79.040907,107.844152 70.2614526,99.0646971 70.2614526,88.2362131 C70.2614526,77.4077291 79.040907,68.6282747 89.869391,68.6282747 C100.697875,68.6282747 109.477329,77.4077291 109.477329,88.2362131" id="Fill-52" fill="#E6F0F9"></path>
                        <path d="M96.4053705,88.2362131 C96.4053705,91.8457078 93.4788856,94.7721926 89.869391,94.7721926 C86.2598963,94.7721926 83.3334115,91.8457078 83.3334115,88.2362131 C83.3334115,84.6267184 86.2598963,81.7002336 89.869391,81.7002336 C93.4788856,81.7002336 96.4053705,84.6267184 96.4053705,88.2362131 Z" id="Stroke-54" stroke="#17317B" stroke-width="8" stroke-linecap="round"></path>
                        <path d="M109.477329,88.2362131 C109.477329,99.0646971 100.697875,107.844152 89.869391,107.844152 C79.040907,107.844152 70.2614526,99.0646971 70.2614526,88.2362131 C70.2614526,77.4077291 79.040907,68.6282747 89.869391,68.6282747 C100.697875,68.6282747 109.477329,77.4077291 109.477329,88.2362131 Z" id="Stroke-56" stroke="#17317B" stroke-width="8" stroke-linecap="round"></path>
                    </g>
                </g>
            </g>
        </g>
    </g>
</svg>