<?xml version="1.0" encoding="UTF-8"?>
<svg width="382px" height="375px" viewBox="0 0 382 375" version="1.1" xmlns="http://www.w3.org/2000/svg" xmlns:xlink="http://www.w3.org/1999/xlink">
    <!-- Generator: Sketch 44.1 (41455) - http://www.bohemiancoding.com/sketch -->
    <title>spaceship</title>
    <desc>Created with Sketch.</desc>
    <defs>
        <path d="M348.227479,41.0072899 C338.113845,17.5949817 305.263403,0.469731168 266.359875,0.469731168 L85.5862133,0.469731168 C46.5241885,0.469731168 13.6322353,17.7119678 3.63936102,41.2450358 C1.57134928,45.9848583 0.49583222,51.0416753 0.49583222,56.2154785 C0.49583222,61.3930553 1.57134928,66.4498723 3.63936102,71.1896949 C13.6322353,94.7189891 46.5241885,111.964999 85.5862133,111.964999 L266.359875,111.964999 C305.263403,111.964999 338.113845,94.8397489 348.227479,71.4274408 C350.340775,66.6121433 351.450256,61.5138151 351.450256,56.2154785 C351.450256,50.9209155 350.340775,45.826361 348.227479,41.0072899" id="path-1"></path>
    </defs>
    <g id="______Slice" stroke="none" stroke-width="1" fill="none" fill-rule="evenodd">
        <g id="hireing" transform="translate(-1369.000000, -240.000000)">
            <g id="section">
                <g id="figure" transform="translate(794.000000, 245.000000)">
                    <g id="spaceship">
                        <g transform="translate(575.000000, 0.000000)">
                            <g id="page-1">
                                <polyline id="fill-1" fill="#FFC725" points="121.301342 344.322908 161.118116 248.752882 224.830237 248.752882 264.64701 344.322908"></polyline>
                                <g id="group-80" transform="translate(0.000000, 0.634031)">
                                    <path d="M264.646256,344.144787 C264.646256,355.141477 232.55811,364.051287 192.975308,364.051287 C153.392507,364.051287 121.300588,355.141477 121.300588,344.144787 C121.300588,333.148097 153.392507,324.234514 192.975308,324.234514 C232.55811,324.234514 264.646256,333.148097 264.646256,344.144787" id="fill-2" fill="#F9D79E"></path>
                                    <path d="M232.792459,248.12036 L153.155139,248.12036 C135.561944,248.12036 121.300965,233.859381 121.300965,216.266186 L264.646633,216.266186 C264.646633,233.859381 250.385654,248.12036 232.792459,248.12036" id="fill-4" fill="#E6F0F9"></path>
                                    <path d="M233.269838,216.266564 C233.269838,233.859759 225.250632,248.120737 215.359649,248.120737 L232.794346,248.120737 C250.383767,248.120737 264.644746,233.859759 264.644746,216.266564 L233.269838,216.266564 Z" id="fill-6" fill="#FFFFFF"></path>
                                    <path d="M152.67776,216.266564 L121.302852,216.266564 C121.302852,233.859759 135.563831,248.120737 153.153252,248.120737 L170.587949,248.120737 C160.696966,248.120737 152.67776,233.859759 152.67776,216.266564" id="fill-8" fill="#B4D4EC"></path>
                                    <path d="M365.227479,144.00729 C355.113845,120.594982 322.263403,103.469731 283.359875,103.469731 L102.586213,103.469731 C63.5241885,103.469731 30.6322353,120.711968 20.639361,144.245036 C18.5713493,148.984858 17.4958322,154.041675 17.4958322,159.215478 C17.4958322,164.393055 18.5713493,169.449872 20.639361,174.189695 C30.6322353,197.718989 63.5241885,214.964999 102.586213,214.964999 L283.359875,214.964999 C322.263403,214.964999 355.113845,197.839749 365.227479,174.427441 C367.340775,169.612143 368.450256,164.513815 368.450256,159.215478 C368.450256,153.920916 367.340775,148.826361 365.227479,144.00729" id="fill-10" fill="#E6F0F9"></path>
                                    <path d="M283.360253,214.963867 C322.26378,214.963867 355.114222,197.838617 365.227856,174.426309 C367.337379,169.611011 368.450634,164.512683 368.450634,159.21812 C368.450634,153.919783 367.337379,148.825229 365.227856,144.006158 C355.114222,120.59385 322.26378,103.472373 283.360253,103.472373 L260.778168,103.472373 C289.960531,103.472373 314.599306,120.59385 322.188305,144.006158 C323.769504,148.825229 324.607275,153.919783 324.607275,159.214346 C324.607275,164.508909 323.769504,169.607237 322.188305,174.426309 C314.599306,197.838617 289.960531,214.963867 260.778168,214.963867 L283.360253,214.963867 Z" id="fill-12" fill="#FFFFFF"></path>
                                    <path d="M125.176223,214.96198 C95.8768738,214.96198 71.2041351,197.719744 63.7094794,174.186676 C62.1546968,169.446853 61.3471156,164.39381 61.3471156,159.216233 C61.3471156,154.038656 62.1546968,148.981839 63.7094794,144.245791 C71.2041351,120.712723 95.8768738,103.470486 125.176223,103.470486 L102.586591,103.470486 C63.5245659,103.470486 30.6326127,120.712723 20.6397384,144.245791 C18.5679529,148.985613 17.4962096,154.038656 17.4962096,159.216233 C17.4962096,164.39381 18.5679529,169.446853 20.6397384,174.19045 C30.6326127,197.719744 63.5245659,214.96198 102.586591,214.96198 L125.176223,214.96198 Z" id="fill-14" fill="#B1CFE5"></path>
                                    <polyline id="stroke-16" stroke="#17317B" stroke-width="10" stroke-linecap="round" points="121.301342 342.688877 161.118116 248.118851 224.830237 248.118851 264.64701 342.688877"></polyline>
                                    <g id="group-14" transform="translate(17.000000, 103.000000)">
                                        <mask id="mask-2" fill="white">
                                            <use xlink:href="#path-1"></use>
                                        </mask>
                                        <g id="stroke-50"></g>
                                        <path d="M191.904282,56.2181201 C191.904282,65.0147175 184.771906,72.1470938 175.975308,72.1470938 C167.182485,72.1470938 160.050109,65.0147175 160.050109,56.2181201 C160.050109,47.4215227 167.182485,40.2891464 175.975308,40.2891464 C184.771906,40.2891464 191.904282,47.4215227 191.904282,56.2181201" id="fill-18" fill="#FFC725" mask="url(#mask-2)"></path>
                                        <path d="M359.004914,56.2181201 C359.004914,65.0147175 351.872538,72.1470938 343.075941,72.1470938 C334.279343,72.1470938 327.150741,65.0147175 327.150741,56.2181201 C327.150741,47.4215227 334.279343,40.2891464 343.075941,40.2891464 C351.872538,40.2891464 359.004914,47.4215227 359.004914,56.2181201" id="fill-20" fill="#FF566D" mask="url(#mask-2)"></path>
                                        <path d="M108.355098,56.2181201 C108.355098,65.0147175 101.222722,72.1470938 92.4261244,72.1470938 C83.629527,72.1470938 76.5009245,65.0147175 76.5009245,56.2181201 C76.5009245,47.4215227 83.629527,40.2891464 92.4261244,40.2891464 C101.222722,40.2891464 108.355098,47.4215227 108.355098,56.2181201" id="fill-22" fill="#15D987" mask="url(#mask-2)"></path>
                                        <path d="M24.8036498,56.2181201 C24.8036498,65.0147175 17.6712736,72.1470938 8.87844991,72.1470938 C0.0818524967,72.1470938 -7.05052378,65.0147175 -7.05052378,56.2181201 C-7.05052378,47.4215227 0.0818524967,40.2891464 8.87844991,40.2891464 C17.6712736,40.2891464 24.8036498,47.4215227 24.8036498,56.2181201" id="fill-24" fill="#00D4BF" mask="url(#mask-2)"></path>
                                        <path d="M275.453844,56.2181201 C275.453844,65.0147175 268.321467,72.1470938 259.528644,72.1470938 C250.732046,72.1470938 243.59967,65.0147175 243.59967,56.2181201 C243.59967,47.4215227 250.732046,40.2891464 259.528644,40.2891464 C268.321467,40.2891464 275.453844,47.4215227 275.453844,56.2181201" id="fill-26" fill="#FF8870" mask="url(#mask-2)"></path>
                                    </g>
                                    <path d="M264.646256,344.144787 C264.646256,355.141477 232.55811,364.051287 192.975308,364.051287 C153.392507,364.051287 121.300588,355.141477 121.300588,344.144787 C121.300588,333.148097 153.392507,324.234514 192.975308,324.234514 C232.55811,324.234514 264.646256,333.148097 264.646256,344.144787 Z" id="stroke-28" stroke="#17317B" stroke-width="10" stroke-linecap="round"></path>
                                    <path d="M232.792459,248.12036 L153.155139,248.12036 C135.561944,248.12036 121.300965,233.859381 121.300965,216.266186 L264.646633,216.266186 C264.646633,233.859381 250.385654,248.12036 232.792459,248.12036 Z" id="stroke-30" stroke="#17317B" stroke-width="10" stroke-linecap="round"></path>
                                    <path d="M41.0243717,159 L92.7208916,159" id="stroke-32" stroke="#17317B" stroke-width="10"></path>
                                    <path d="M124.651295,159 L176.268566,159" id="stroke-34" stroke="#17317B" stroke-width="10"></path>
                                    <path d="M208.125004,159 L259.821524,159" id="stroke-36" stroke="#17317B" stroke-width="10"></path>
                                    <path d="M291.674188,159 L343.370708,159" id="stroke-38" stroke="#17317B" stroke-width="10"></path>
                                    <path d="M208.904282,159.21812 C208.904282,168.014717 201.771906,175.147094 192.975308,175.147094 C184.182485,175.147094 177.050109,168.014717 177.050109,159.21812 C177.050109,150.421523 184.182485,143.289146 192.975308,143.289146 C201.771906,143.289146 208.904282,150.421523 208.904282,159.21812 Z" id="stroke-40" stroke="#17317B" stroke-width="10" stroke-linecap="round"></path>
                                    <path d="M360.077073,175.145962 C351.280476,175.145962 344.148099,168.013585 344.148099,159.216988 C344.148099,150.420391 351.280476,143.291788 360.077073,143.291788" id="stroke-42" stroke="#17317B" stroke-width="10" stroke-linecap="round"></path>
                                    <path d="M125.355098,159.21812 C125.355098,168.014717 118.222722,175.147094 109.426124,175.147094 C100.629527,175.147094 93.5009245,168.014717 93.5009245,159.21812 C93.5009245,150.421523 100.629527,143.289146 109.426124,143.289146 C118.222722,143.289146 125.355098,150.421523 125.355098,159.21812 Z" id="stroke-44" stroke="#17317B" stroke-width="10" stroke-linecap="round"></path>
                                    <path d="M25.8776952,143.290279 C34.6742926,143.290279 41.8028951,150.422655 41.8028951,159.219252 C41.8028951,168.01585 34.6742926,175.144452 25.8776952,175.144452" id="stroke-46" stroke="#17317B" stroke-width="10" stroke-linecap="round"></path>
                                    <path d="M292.453844,159.21812 C292.453844,168.014717 285.321467,175.147094 276.528644,175.147094 C267.732046,175.147094 260.59967,168.014717 260.59967,159.21812 C260.59967,150.421523 267.732046,143.289146 276.528644,143.289146 C285.321467,143.289146 292.453844,150.421523 292.453844,159.21812 Z" id="stroke-48" stroke="#17317B" stroke-width="10" stroke-linecap="round"></path>
                                    <path d="M365.227479,144.00729 C355.113845,120.594982 322.263403,103.469731 283.359875,103.469731 L102.586213,103.469731 C63.5241885,103.469731 30.6322353,120.711968 20.639361,144.245036 C18.5713493,148.984858 17.4958322,154.041675 17.4958322,159.215478 C17.4958322,164.393055 18.5713493,169.449872 20.639361,174.189695 C30.6322353,197.718989 63.5241885,214.964999 102.586213,214.964999 L283.359875,214.964999 C322.263403,214.964999 355.113845,197.839749 365.227479,174.427441 C367.340775,169.612143 368.450256,164.513815 368.450256,159.215478 C368.450256,153.920916 367.340775,148.826361 365.227479,144.00729" id="stroke-50" stroke="#17317B" stroke-width="10" stroke-linecap="round"></path>
                                    <path d="M254.504319,111.449313 C264.278316,109.166198 273.856078,106.407591 283.15081,103.105565 C278.943085,56.9866387 240.186734,20.8605868 192.973422,20.8605868 C145.76011,20.8605868 107.003758,56.9866387 102.796034,103.101791 C112.056801,106.392496 121.6006,109.143555 131.33686,111.422897 C151.081089,116.04196 171.708374,118.559047 192.977195,118.559047 C214.208279,118.559047 234.797827,116.053281 254.504319,111.449313" id="fill-52" fill="#4CE2FF"></path>
                                    <path d="M283.151942,103.104055 C281.691503,87.0958331 275.993149,72.351815 267.298443,59.8418534 C256.599879,44.4525252 241.286025,32.5690051 223.31923,26.1687352 C235.432948,31.3312171 245.610736,40.0938508 252.622352,51.0829935 C259.052812,61.1588901 262.826556,73.0914688 262.826556,85.9297461 C262.826556,94.6470949 261.079313,102.949332 257.965974,110.545879 C266.532373,108.432582 274.966691,106.013612 283.151942,103.104055" id="fill-54" fill="#A8EFF3"></path>
                                    <path d="M223.31772,26.1698673 C214.985293,23.1999307 206.098126,21.4375922 196.837358,21.0451229 C195.550511,20.9885167 194.27876,20.8602094 192.973044,20.8602094 C145.759732,20.8602094 107.003381,56.9862613 102.795656,103.101414 C110.411072,105.807188 118.252912,108.063887 126.200417,110.079067 C127.883507,103.576905 130.227002,97.3464541 133.230902,91.5009245 C148.254177,62.2770505 178.66678,42.2686595 213.789016,42.2686595 C227.702811,42.2686595 240.846761,45.4763419 252.624617,51.0841256 C245.613,40.0949829 235.431439,31.3323492 223.31772,26.1698673" id="fill-56" fill="#4CA6FF"></path>
                                    <path d="M192,0.13858076 L192,18.5619993" id="stroke-58" stroke="#17317B" stroke-width="10" stroke-linecap="round"></path>
                                    <path d="M139.9893,83.6217243 C147.114129,70.1909692 159.197658,59.7943043 173.798273,54.8657945" id="stroke-60" stroke="#17317B" stroke-width="10" stroke-linecap="round"></path>
                                    <path d="M199.98051,52.1381323 C203.712742,52.5721129 207.343084,53.3495042 210.833798,54.4363424" id="stroke-62" stroke="#17317B" stroke-width="10" stroke-linecap="round"></path>
                                    <path d="M254.504319,111.449313 C264.278316,109.166198 273.856078,106.407591 283.15081,103.105565 C278.943085,56.9866387 240.186734,20.8605868 192.973422,20.8605868 C145.76011,20.8605868 107.003758,56.9866387 102.796034,103.101791 C112.056801,106.392496 121.6006,109.143555 131.33686,111.422897 C151.081089,116.04196 171.708374,118.559047 192.977195,118.559047 C214.208279,118.559047 234.797827,116.053281 254.504319,111.449313 Z" id="stroke-64" stroke="#17317B" stroke-width="10" stroke-linecap="round"></path>
                                    <g id="group-13" transform="translate(0.000000, 44.000000)" fill="#9AE0E6">
                                        <path d="M18.8702298,16.0728066 C17.2399724,16.0728066 15.8021759,17.1068125 15.2889467,18.6540475 L12.1114542,28.1827513 L2.58275044,31.3640175 C1.03551537,31.8772467 0.00150949762,33.3112695 0.00150949762,34.9415269 C0.00150949762,36.5717843 1.03551537,38.0058071 2.58275044,38.52281 L12.1114542,41.7003025 L15.2889467,51.2290063 C15.8021759,52.7762413 17.2399724,53.8102472 18.8702298,53.8102472 C20.5004872,53.8102472 21.93451,52.7762413 22.4477392,51.2290063 L25.6252317,41.7003025 L35.1577092,38.52281 C36.7049442,38.0058071 37.7389501,36.5717843 37.7389501,34.9415269 C37.7389501,33.3112695 36.7049442,31.8772467 35.1577092,31.3640175 L25.6252317,28.1827513 L22.4477392,18.6540475 C21.93451,17.1068125 20.5004872,16.0728066 18.8702298,16.0728066" id="fill-66"></path>
                                        <path d="M75.4763907,250.044938 C73.8423596,250.044938 72.4121106,251.078944 71.8951076,252.626179 L69.6610511,259.324575 L62.9626554,261.562405 C61.4116466,262.075634 60.3814145,263.509657 60.3814145,265.139915 C60.3814145,266.770172 61.4116466,268.204195 62.9626554,268.721198 L69.6610511,270.955254 L71.8951076,277.65365 C72.4121106,279.200885 73.8423596,280.234891 75.4763907,280.234891 C77.1066482,280.234891 78.5406709,279.200885 79.0539001,277.65365 L81.2879566,270.955254 L87.990126,268.721198 C89.5373611,268.204195 90.571367,266.770172 90.571367,265.139915 C90.571367,263.509657 89.5373611,262.075634 87.990126,261.562405 L81.2879566,259.324575 L79.0539001,252.626179 C78.5406709,251.078944 77.1066482,250.044938 75.4763907,250.044938" id="fill-68"></path>
                                        <path d="M332.0891,0.97783033 C330.458843,0.97783033 329.02482,2.0118362 328.511591,3.55907127 L326.277534,10.257467 L319.575365,12.4915235 C318.02813,13.0085264 316.994124,14.4425491 316.994124,16.0728066 C316.994124,17.703064 318.02813,19.1370868 319.575365,19.6540897 L326.27376,21.8881462 L328.511591,28.5865419 C329.02482,30.133777 330.458843,31.1677828 332.0891,31.1677828 C333.719358,31.1677828 335.15338,30.133777 335.670383,28.5865419 L337.90444,21.8881462 L344.602835,19.6540897 C346.15007,19.1370868 347.184076,17.703064 347.184076,16.0728066 C347.184076,14.4425491 346.15007,13.0085264 344.602835,12.4915235 L337.90444,10.257467 L335.670383,3.55907127 C335.15338,2.0118362 333.719358,0.97783033 332.0891,0.97783033" id="fill-70"></path>
                                        <path d="M320.769755,227.402474 C319.135724,227.402474 317.705475,228.43648 317.188472,229.983715 L314.010979,239.512419 L304.482275,242.689911 C302.93504,243.20314 301.901034,244.640937 301.901034,246.271194 C301.901034,247.901452 302.93504,249.335475 304.482275,249.852477 L314.010979,253.02997 L317.188472,262.558674 C317.705475,264.105909 319.135724,265.139915 320.769755,265.139915 C322.400012,265.139915 323.834035,264.105909 324.347264,262.558674 L327.524757,253.02997 L337.05346,249.852477 C338.600695,249.335475 339.638475,247.901452 339.638475,246.271194 C339.638475,244.640937 338.600695,243.20314 337.05346,242.689911 L327.524757,239.512419 L324.347264,229.983715 C323.834035,228.43648 322.400012,227.402474 320.769755,227.402474" id="fill-72"></path>
                                    </g>
                                    <g id="group-2" transform="translate(3.000000, 11.000000)" fill="#47E3FF">
                                        <path d="M76.2482479,0.0141337722 C72.0820345,0.0141337722 68.7007598,3.39540845 68.7007598,7.5616219 C68.7007598,11.7278353 72.0820345,15.10911 76.2482479,15.10911 C80.4182351,15.10911 83.7957361,11.7278353 83.7957361,7.5616219 C83.7957361,3.39540845 80.4182351,0.0141337722 76.2482479,0.0141337722" id="fill-74"></path>
                                        <path d="M8.32274168,233.986266 C4.1527545,233.986266 0.77525356,237.36754 0.77525356,241.533754 C0.77525356,245.699967 4.1527545,249.081242 8.32274168,249.081242 C12.4889551,249.081242 15.8702298,245.699967 15.8702298,241.533754 C15.8702298,237.36754 12.4889551,233.986266 8.32274168,233.986266" id="fill-76"></path>
                                        <path d="M370.600285,211.343801 C366.434071,211.343801 363.052797,214.725076 363.052797,218.891289 C363.052797,223.057503 366.434071,226.438777 370.600285,226.438777 C374.770272,226.438777 378.147773,223.057503 378.147773,218.891289 C378.147773,214.725076 374.770272,211.343801 370.600285,211.343801" id="fill-78"></path>
                                    </g>
                                </g>
                            </g>
                        </g>
                    </g>
                </g>
            </g>
        </g>
    </g>
</svg>