<?xml version="1.0" encoding="UTF-8"?>
<svg width="2560px" height="860px" viewBox="0 0 2560 860" version="1.1" xmlns="http://www.w3.org/2000/svg" xmlns:xlink="http://www.w3.org/1999/xlink">
    <!-- Generator: Sketch 44.1 (41455) - http://www.bohemiancoding.com/sketch -->
    <title>team_hero_bg</title>
    <desc>Created with Sketch.</desc>
    <defs>
        <rect id="path-1" x="0" y="0" width="2560" height="860"></rect>
        <rect id="path-3" x="0" y="0" width="2560" height="860"></rect>
        <linearGradient x1="50%" y1="100%" x2="50%" y2="50%" id="linearGradient-5">
            <stop stop-color="#000526" stop-opacity="0.5" offset="0%"></stop>
            <stop stop-color="#000526" stop-opacity="0" offset="100%"></stop>
        </linearGradient>
    </defs>
    <g id="Page" stroke="none" stroke-width="1" fill="none" fill-rule="evenodd">
        <g id="team_hero_bg">
            <mask id="mask-2" fill="white">
                <use xlink:href="#path-1"></use>
            </mask>
            <use id="bg" fill="#FF566D" xlink:href="#path-1"></use>
            <mask id="mask-4" fill="white">
                <use xlink:href="#path-3"></use>
            </mask>
            <g id="@@"></g>
            <rect id="Scrim" fill="url(#linearGradient-5)" mask="url(#mask-4)" x="0" y="0" width="2560" height="860"></rect>
            <g id="planet" opacity="0.800000012" mask="url(#mask-4)">
                <g transform="translate(1476.826360, 1005.013352) scale(-1, 1) rotate(6.000000) translate(-1476.826360, -1005.013352) translate(716.826360, 245.013352)">
                    <g id="Group-4" transform="translate(0.000000, -0.000000)">
                        <circle id="Oval-13" fill="#FF8870" cx="760.084133" cy="759.57202" r="759.5"></circle>
                    </g>
                    <g id="Group-6" transform="translate(74.000000, 86.469171)">
                        <ellipse id="Oval-12" fill="#CE6EE8" cx="686.084133" cy="673.102849" rx="685.207933" ry="672.776636"></ellipse>
                    </g>
                    <g id="Group-8" transform="translate(138.000000, 188.000000)">
                        <ellipse id="Oval-11" fill="#6964DF" cx="622.084133" cy="571.57202" rx="621.25" ry="571.25"></ellipse>
                    </g>
                    <g id="Group-5" transform="translate(858.000000, 240.000000)" opacity="0.101845562">
                        <path d="M38.9890295,148 C17.4649789,148 0,134.79097 0,118.5 C0,102.20737 17.4649789,89 38.9890295,89 C60.5350211,89 78,102.20737 78,118.5 C78,134.79097 60.5350211,148 38.9890295,148" id="Fill-238" fill="#170418"></path>
                        <path d="M63.5109131,37 C49.9567929,37 39,28.7184591 39,18.4991761 C39,8.28154086 49.9567929,0 63.5109131,0 C77.0432071,0 88,8.28154086 88,18.4991761 C88,28.7184591 77.0432071,37 63.5109131,37" id="Fill-239" fill="#170418"></path>
                        <path d="M177.010876,45 C167.048338,45 159,38.9559543 159,31.5008157 C159,24.0440457 167.048338,18 177.010876,18 C186.951662,18 195,24.0440457 195,31.5008157 C195,38.9559543 186.951662,45 177.010876,45" id="Fill-240" fill="#170418"></path>
                        <path d="M177.510672,124 C170.040316,124 164,119.299375 164,113.49917 C164,107.698964 170.040316,103 177.510672,103 C184.959684,103 191,107.698964 191,113.49917 C191,119.299375 184.959684,124 177.510672,124" id="Fill-241" fill="#170418"></path>
                        <path d="M113.988871,64 C110.138315,64 107,61.7627604 107,58.999205 C107,56.2372396 110.138315,54 113.988871,54 C117.861685,54 121,56.2372396 121,58.999205 C121,61.7627604 117.861685,64 113.988871,64" id="Fill-242" fill="#170418"></path>
                        <path d="M10.0111288,69 C6.13831479,69 3,66.7643505 3,63.999205 C3,61.2388297 6.13831479,59 10.0111288,59 C13.8616852,59 17,61.2388297 17,63.999205 C17,66.7643505 13.8616852,69 10.0111288,69" id="Fill-243" fill="#170418"></path>
                        <path d="M113.988871,152 C110.138315,152 107,149.761526 107,147 C107,144.238474 110.138315,142 113.988871,142 C117.861685,142 121,144.238474 121,147 C121,149.761526 117.861685,152 113.988871,152" id="Fill-244" fill="#170418"></path>
                    </g>
                    <g id="Group-5" transform="translate(514.000000, 367.000000) scale(-1, 1) rotate(-58.000000) translate(-514.000000, -367.000000) translate(418.000000, 272.000000)" opacity="0.101845562">
                        <path d="M38.9890295,185 C17.4649789,185 0,171.79097 0,155.5 C0,139.20737 17.4649789,126 38.9890295,126 C60.5350211,126 78,139.20737 78,155.5 C78,171.79097 60.5350211,185 38.9890295,185" id="Fill-238" fill="#170418"></path>
                        <path d="M63.5109131,37 C49.9567929,37 39,28.7184591 39,18.4991761 C39,8.28154086 49.9567929,0 63.5109131,0 C77.0432071,0 88,8.28154086 88,18.4991761 C88,28.7184591 77.0432071,37 63.5109131,37" id="Fill-239" fill="#170418"></path>
                        <path d="M177.510672,162 C170.040316,162 164,157.299375 164,151.49917 C164,145.698964 170.040316,141 177.510672,141 C184.959684,141 191,145.698964 191,151.49917 C191,157.299375 184.959684,162 177.510672,162" id="Fill-241" fill="#170418"></path>
                        <path d="M113.988871,102 C110.138315,102 107,99.7627604 107,96.999205 C107,94.2372396 110.138315,92 113.988871,92 C117.861685,92 121,94.2372396 121,96.999205 C121,99.7627604 117.861685,102 113.988871,102" id="Fill-242" fill="#170418"></path>
                        <path d="M10.0111288,107 C6.13831479,107 3,104.76435 3,101.999205 C3,99.2388297 6.13831479,97 10.0111288,97 C13.8616852,97 17,99.2388297 17,101.999205 C17,104.76435 13.8616852,107 10.0111288,107" id="Fill-243" fill="#170418"></path>
                        <path d="M113.988871,189 C110.138315,189 107,186.761526 107,184 C107,181.238474 110.138315,179 113.988871,179 C117.861685,179 121,181.238474 121,184 C121,186.761526 117.861685,189 113.988871,189" id="Fill-244" fill="#170418"></path>
                    </g>
                </g>
            </g>
            <g id="ground" mask="url(#mask-4)">
                <g transform="translate(0.000000, 558.000000)" id="Path-2">
                    <path d="M449,70 C700.938196,70 721,74 935.223324,95.820296 C1149.44665,117.640592 1355.34443,157.088795 1565.90394,116.243129 C1776.46345,75.397463 1847.50359,5.60797479 2065,1 C2301,-4 2560,74 2560,74 L2560,302 L-1.36424205e-12,302 L-1.36424205e-12,164 C-1.36424205e-12,164 197.061804,70 449,70 Z" fill="#FFC725" transform="translate(1280.000000, 151.384746) scale(-1, 1) translate(-1280.000000, -151.384746) "></path>
                    <path d="M321,59 C661.865792,65.657535 612,151 877,134 C1142,117 1477,231.452137 1678,174.226069 C1879,117 1918,105 2144,98 C2370,91 2560,174.226069 2560,174.226069 L2560,302 L5.68434189e-14,302 L5.68434189e-14,85 C5.68434189e-14,85 65,54 321,59 Z" fill="#FFFFFF" opacity="0.601902174"></path>
                </g>
            </g>
        </g>
    </g>
</svg>