<?xml version="1.0" encoding="UTF-8"?>
<svg width="201px" height="49px" viewBox="0 0 201 49" version="1.1" xmlns="http://www.w3.org/2000/svg" xmlns:xlink="http://www.w3.org/1999/xlink">
    <!-- Generator: Sketch 44.1 (41455) - http://www.bohemiancoding.com/sketch -->
    <title>under-construction</title>
    <desc>Created with Sketch.</desc>
    <defs></defs>
    <g id="______Slice" stroke="none" stroke-width="1" fill="none" fill-rule="evenodd">
        <g id="home" transform="translate(-1947.000000, -5953.000000)">
            <g id="under-construction" transform="translate(1947.034794, 5953.534794)">
                <rect id="Rectangle-8" fill="#FF566D" x="7.95807864e-13" y="0.431457505" width="200" height="48"></rect>
                <path d="M87.94,22.0914575 C87.82,24.1714575 87.44,26.4514575 86.8,28.8914575 L86.38,28.7514575 C86.94,26.6314575 87.32,24.6114575 87.48,22.6914575 L84.1,23.9514575 L84.1,30.6114575 L83.68,30.6114575 L83.68,24.1114575 L80.56,25.2714575 L80.56,32.0114575 C80.56,32.7114575 80.94,33.0714575 81.72,33.0714575 L86.02,33.0714575 C86.8,33.0714575 87.34,32.9514575 87.64,32.7514575 C88.06,32.4114575 88.34,31.4714575 88.48,29.9514575 L88.86,30.0914575 C88.74,31.6514575 88.44,32.6314575 87.96,33.0514575 C87.6,33.3314575 86.98,33.4914575 86.1,33.4914575 L81.58,33.4914575 C80.62,33.4914575 80.14,33.0114575 80.14,32.0914575 L80.14,25.4314575 L78.68,25.9714575 L78.68,25.5514575 L80.14,25.0114575 L80.14,21.8314575 L80.56,21.8314575 L80.56,24.8514575 L83.68,23.6914575 L83.68,20.2314575 L84.1,20.2314575 L84.1,23.5314575 L87.94,22.0914575 Z M71.26,18.7114575 L71.26,19.1514575 L73.14,19.1514575 L73.14,23.0514575 C73.1,27.7914575 72.4,31.2314575 71,33.3914575 L71.32,33.6714575 C72.76,31.4714575 73.52,28.0114575 73.58,23.2914575 L76.8,23.2914575 C76.8,27.9114575 76.7,30.7314575 76.5,31.7714575 C76.34,32.5914575 75.84,33.0114575 75.04,33.0114575 C74.7,33.0114575 74.3,32.9914575 73.86,32.9714575 L73.96,33.3714575 C74.5,33.3714575 74.88,33.3914575 75.12,33.3914575 C76.2,33.3914575 76.8,32.8114575 76.96,31.6514575 C77.12,30.5714575 77.22,27.6514575 77.22,22.8514575 L73.58,22.8514575 L73.58,19.1514575 L77.96,19.1514575 L77.96,18.7114575 L75.44,18.7114575 C74.92,17.4714575 74.38,16.3714575 73.8,15.4314575 L73.38,15.5114575 C73.98,16.4314575 74.54,17.5114575 75.02,18.7114575 L71.26,18.7114575 Z M80.54,18.4914575 C79.9,20.0114575 79.16,21.3914575 78.28,22.5914575 L77.98,22.2914575 C79.38,20.3714575 80.42,18.0714575 81.12,15.4314575 L81.52,15.5314575 C81.28,16.4314575 81,17.2714575 80.7,18.0714575 L88.46,18.0714575 L88.46,18.4914575 L80.54,18.4914575 Z M100.01,17.7914575 L100.01,31.5314575 L91.31,31.5314575 L91.31,31.9514575 L109.13,31.9514575 L109.13,31.5314575 L100.45,31.5314575 L100.45,17.7914575 L107.71,17.7914575 L107.71,17.3714575 L92.77,17.3714575 L92.77,17.7914575 L100.01,17.7914575 Z M120.24,15.4714575 L120.68,15.4714575 L120.68,19.3514575 L128,19.3514575 L128,28.1914575 L127.56,28.1914575 L127.56,26.6914575 L120.68,26.6914575 L120.68,33.7514575 L120.24,33.7514575 L120.24,26.6914575 L113.38,26.6914575 L113.38,28.1914575 L112.94,28.1914575 L112.94,19.3514575 L120.24,19.3514575 L120.24,15.4714575 Z M113.38,26.2714575 L120.24,26.2714575 L120.24,19.7914575 L113.38,19.7914575 L113.38,26.2714575 Z M120.68,26.2714575 L127.56,26.2714575 L127.56,19.7914575 L120.68,19.7914575 L120.68,26.2714575 Z" id="施工中" fill="#FFFFFF"></path>
            </g>
        </g>
    </g>
</svg>