<?xml version="1.0" encoding="UTF-8"?>
<svg width="220px" height="220px" viewBox="0 0 220 220" version="1.1" xmlns="http://www.w3.org/2000/svg" xmlns:xlink="http://www.w3.org/1999/xlink">
    <!-- Generator: Sketch 44 (41411) - http://www.bohemiancoding.com/sketch -->
    <title>about-culture-03</title>
    <desc>Created with Sketch.</desc>
    <defs></defs>
    <g id="______Slice" stroke="none" stroke-width="1" fill="none" fill-rule="evenodd">
        <g id="about" transform="translate(-1610.000000, -5899.000000)">
            <g id="Galaxy" transform="translate(1612.000000, 5912.000000)">
                <path d="M124.04523,101.826436 C120.314321,107.841348 112.061693,110.339247 105.61204,107.408403 C99.1623868,104.473995 96.9559736,97.2208237 100.686883,91.2059118 C104.417792,85.1909999 112.67042,82.6931011 119.120073,85.6239453 C125.569726,88.5583529 127.774354,95.8097425 124.04523,101.826436" id="Fill-67" fill="#F9D89F"></path>
                <path d="M112.745217,91.7420158 C110.78158,91.7437975 108.817944,92.7308416 107.766506,94.4252081 C106.297349,96.7948268 107.164919,99.650841 109.70515,100.805362 C110.428126,101.133189 111.20644,101.289976 111.986539,101.289976 C113.950175,101.289976 115.913812,100.302932 116.96525,98.6085651 C118.436192,96.2371647 117.566836,93.3811505 115.026605,92.2266295 C114.305415,91.8988026 113.525316,91.7420158 112.745217,91.7420158" id="Fill-68" fill="#F6C174"></path>
                <path d="M125.323021,92.7110651 C127.475881,98.9700656 123.441501,106.02369 116.315286,108.466357 C109.185501,110.907243 101.662988,107.814267 99.511914,101.555266 C97.3572694,95.2962657 101.39165,88.2426413 108.51965,85.7999741 C115.64765,83.3590887 123.170162,86.4520647 125.323021,92.7110651 Z" id="Stroke-322" stroke="#395590" stroke-width="7.2"></path>
                <path d="M85.1804033,84.2481411 C92.9064198,72.2272257 106.526916,64.2435705 122.043213,64.2435705 C146.11918,64.2435705 167.185428,82.6517664 165.637726,107.783978 C164.177494,131.448095 132.098817,176.385331 63.0055934,169.456423" id="Stroke-323" stroke="#395590" stroke-width="7.2" stroke-linecap="round"></path>
                <path d="M183.959345,128.744592 C182.384866,131.752048 181.190618,133.392964 181.190618,133.392964" id="Stroke-433" stroke="#395590" stroke-width="7.2" stroke-linecap="round"></path>
                <path d="M139.839471,109.170651 C139.839471,109.170651 132.864992,120.53413 118.651835,125.697405 C95.04,134.276137 70.617719,124.256035 63.114843,103.677767 C53.7340165,77.9558235 69.6073388,48.5761147 98.567405,38.0571456 C134.767934,24.9066526 175.474116,42.4115427 187.13276,74.3817971 C193.098645,90.7410746 191.920463,105.05856 189.103537,115.495573" id="Stroke-434" stroke="#395590" stroke-width="7.2" stroke-linecap="round"></path>
                <path d="M139.839471,109.170651 C139.839471,109.170651 132.864992,120.53413 118.651835,125.697405 C95.04,134.276137 70.6195041,124.256035 63.114843,103.677767 C57.9754711,89.5865536 60.4157355,74.3960504 68.4345124,61.8121279 C75.0537521,51.4250022 86.5053223,41.18041 99.6491901,33.2359515" id="Stroke-435" stroke="#395590" stroke-width="7.2" stroke-linecap="round"></path>
                <path d="M116.502902,107.780415 C109.437382,110.347799 101.872026,107.392011 99.604919,101.177552 C97.3395967,94.9648754 101.231167,87.8471109 108.296688,85.279727 C115.363993,82.7123431 122.929349,85.6681307 125.196456,91.8825894 C127.461779,98.0952665 123.570208,105.214813 116.502902,107.780415 Z" id="Stroke-436" stroke="#395590" stroke-width="7.2" stroke-linecap="round"></path>
                <path d="M183.926321,128.734258 C182.351841,131.741714 181.157593,133.382631 181.157593,133.382631" id="Stroke-437" stroke="#395590" stroke-width="7.2" stroke-linecap="round"></path>
                <path d="M139.806268,109.160139 C139.806268,109.160139 132.831788,120.523619 118.618631,125.686893 C95.0067967,134.265625 70.5845157,124.245523 63.0816397,103.667256 C53.7008132,77.9453117 69.5741355,48.5656029 98.5342017,38.0466338 C134.734731,24.8961407 175.440912,42.4010309 187.099557,74.3712852 C193.065441,90.7305627 191.88726,105.048048 189.070334,115.485061" id="Stroke-438" stroke="#395590" stroke-width="7.2" stroke-linecap="round"></path>
                <path d="M176.273137,28.1726286 C177.54236,28.696439 178.749104,29.2505378 179.886228,29.8367067" id="Stroke-439" stroke="#395590" stroke-width="7.2" stroke-linecap="round"></path>
                <path d="M139.806268,109.160139 C139.806268,109.160139 132.831788,120.523619 118.618631,125.686893 C95.0067967,134.265625 70.5863008,124.245523 63.0816397,103.667256 C57.9422678,89.5760417 60.3825322,74.3855386 68.4013091,61.801616 C75.0205488,51.4144904 86.472119,41.1698982 99.6159868,33.2254396 C117.699293,22.2966868 143.035557,20.4686952 162.473772,24.1852551" id="Stroke-440" stroke="#395590" stroke-width="7.2" stroke-linecap="round"></path>
                <path d="M40.874876,64.3278434 C42.4475702,61.3186058 43.6436033,59.6776894 43.6436033,59.6776894" id="Stroke-441" stroke="#395590" stroke-width="7.2" stroke-linecap="round"></path>
                <path d="M84.9947504,83.901963 C84.9947504,83.901963 91.9692298,72.5367015 106.182387,67.373427 C129.794221,58.7946946 154.214717,68.8147966 161.719379,89.3930644 C171.100205,115.115008 155.226883,144.494717 126.266817,155.015468 C90.0662876,168.165961 49.3601058,150.659289 37.7014612,118.689035 C31.7355769,102.329757 32.9137587,88.0122716 35.7306843,77.5770409" id="Stroke-442" stroke="#395590" stroke-width="7.2" stroke-linecap="round"></path>
                <path d="M48.527881,164.88787 C47.2586579,164.364059 46.0501289,163.80996 44.9147901,163.225573" id="Stroke-443" stroke="#395590" stroke-width="7.2" stroke-linecap="round"></path>
                <path d="M84.9947504,83.901963 C84.9947504,83.901963 91.9692298,72.5367015 106.182387,67.373427 C129.794221,58.7946946 154.214717,68.8147966 161.719379,89.3930644 C166.85875,103.484278 164.418486,118.674781 156.399709,131.258704 C149.780469,141.64583 138.328899,151.890422 125.185031,159.83488 C107.101726,170.763633 81.763676,172.591625 62.3272463,168.875065" id="Stroke-444" stroke="#395590" stroke-width="7.2" stroke-linecap="round"></path>
                <path d="M123.173554,176.385153 C122.40238,176.385153 121.724033,176.871548 121.479471,177.603814 L119.976397,182.102526 L115.468959,183.602691 C114.737058,183.844998 114.247934,184.523813 114.247934,185.293494 C114.247934,186.063174 114.737058,186.740208 115.468959,186.984297 L119.976397,188.484462 L121.479471,192.983174 C121.724033,193.713658 122.40238,194.201835 123.173554,194.201835 C123.944727,194.201835 124.623074,193.713658 124.867636,192.983174 L126.370711,188.484462 L130.878149,186.984297 C131.61005,186.740208 132.099174,186.063174 132.099174,185.293494 C132.099174,184.523813 131.61005,183.844998 130.878149,183.602691 L126.370711,182.102526 L124.867636,177.603814 C124.623074,176.871548 123.944727,176.385153 123.173554,176.385153" id="Fill-778" fill="#99D4DB"></path>
                <path d="M7.14049587,83.7384059 C6.36932231,83.7384059 5.69097521,84.2265829 5.44641322,84.9570669 L4.38961983,88.1213097 L1.22102479,89.1760572 C0.489123967,89.4183641 0,90.095398 0,90.8650787 C0,91.6347594 0.489123967,92.3117933 1.22102479,92.5541002 L4.38961983,93.6106294 L5.44641322,96.7730905 C5.69097521,97.5035744 6.36932231,97.9917515 7.14049587,97.9917515 C7.91166942,97.9917515 8.59001653,97.5035744 8.83457851,96.7730905 L9.8913719,93.6106294 L13.0599669,92.5541002 C13.7918678,92.3117933 14.2809917,91.6347594 14.2809917,90.8650787 C14.2809917,90.095398 13.7918678,89.4183641 13.0599669,89.1760572 L9.88958678,88.119528 L8.83457851,84.9570669 C8.59001653,84.2265829 7.91166942,83.7384059 7.14049587,83.7384059" id="Fill-779" fill="#99D4DB"></path>
                <path d="M8.92561983,121.153438 C6.96198347,121.153438 5.3553719,122.75694 5.3553719,124.716775 C5.3553719,126.67661 6.96198347,128.280111 8.92561983,128.280111 C10.8892562,128.280111 12.4958678,126.67661 12.4958678,124.716775 C12.4958678,122.75694 10.8892562,121.153438 8.92561983,121.153438" id="Fill-780" fill="#99D4DB"></path>
                <path d="M80.3305785,1.78166821 C79.559405,1.78166821 78.8810579,2.2698453 78.6364959,3.00032927 L77.1334215,7.49904149 L72.6259835,8.99920613 C71.8940826,9.241513 71.4049587,9.92032859 71.4049587,10.6900093 C71.4049587,11.4596899 71.8940826,12.1367238 72.6259835,12.3790307 L77.1334215,13.8791954 L78.6364959,18.3796893 C78.8810579,19.1101732 79.559405,19.5983503 80.3305785,19.5983503 C81.1017521,19.5983503 81.7800992,19.1101732 82.0246612,18.3796893 L83.5277355,13.8791954 L88.0351736,12.3790307 C88.7670744,12.1367238 89.2561983,11.4596899 89.2561983,10.6900093 C89.2561983,9.92032859 88.7670744,9.241513 88.0351736,8.99920613 L83.5277355,7.49904149 L82.0246612,3.00032927 C81.7800992,2.2698453 81.1017521,1.78166821 80.3305785,1.78166821" id="Fill-781" fill="#99D4DB"></path>
                <path d="M137.454545,0 C135.490909,0 133.884298,1.60171972 133.884298,3.56333642 C133.884298,5.52317145 135.490909,7.12667284 137.454545,7.12667284 C139.418182,7.12667284 141.024793,5.52317145 141.024793,3.56333642 C141.024793,1.60171972 139.418182,0 137.454545,0" id="Fill-782" fill="#99D4DB"></path>
                <path d="M48.1983471,35.6333642 C46.2347107,35.6333642 44.6280992,37.2368656 44.6280992,39.1967006 C44.6280992,41.1565356 46.2347107,42.760037 48.1983471,42.760037 C50.1619835,42.760037 51.768595,41.1565356 51.768595,39.1967006 C51.768595,37.2368656 50.1619835,35.6333642 48.1983471,35.6333642" id="Fill-783" fill="#99D4DB"></path>
                <path d="M166.016529,167.476812 C164.052893,167.476812 162.446281,169.080313 162.446281,171.040148 C162.446281,172.999983 164.052893,174.603485 166.016529,174.603485 C167.980165,174.603485 169.586777,172.999983 169.586777,171.040148 C169.586777,169.080313 167.980165,167.476812 166.016529,167.476812" id="Fill-784" fill="#99D4DB"></path>
                <path d="M212.429752,121.153438 C210.466116,121.153438 208.859504,122.75694 208.859504,124.716775 C208.859504,126.67661 210.466116,128.280111 212.429752,128.280111 C214.393388,128.280111 216,126.67661 216,124.716775 C216,122.75694 214.393388,121.153438 212.429752,121.153438" id="Fill-785" fill="#99D4DB"></path>
                <path d="M207.07438,55.2317145 C206.303207,55.2317145 205.62486,55.7181099 205.380298,56.4503756 L204.323504,59.6128366 L201.154909,60.6675842 C200.421223,60.9116728 199.933884,61.5887067 199.933884,62.3583873 C199.933884,63.128068 200.423008,63.8051019 201.154909,64.0491905 L204.323504,65.1021564 L205.380298,68.2663991 C205.62486,68.9968831 206.303207,69.4850602 207.07438,69.4850602 C207.845554,69.4850602 208.523901,68.9968831 208.766678,68.2663991 L209.825256,65.1021564 L212.993851,64.0491905 C213.725752,63.8051019 214.214876,63.128068 214.214876,62.3583873 C214.214876,61.5887067 213.725752,60.9116728 212.993851,60.6675842 L209.825256,59.6146183 L208.766678,56.4503756 C208.523901,55.7181099 207.845554,55.2317145 207.07438,55.2317145" id="Fill-786" fill="#99D4DB"></path>
            </g>
        </g>
    </g>
</svg>