<?xml version="1.0" encoding="UTF-8"?>
<svg width="170px" height="100px" viewBox="0 0 170 100" version="1.1" xmlns="http://www.w3.org/2000/svg" xmlns:xlink="http://www.w3.org/1999/xlink">
    <!-- Generator: Sketch 44 (41411) - http://www.bohemiancoding.com/sketch -->
    <title>enterprise-08</title>
    <desc>Created with Sketch.</desc>
    <defs></defs>
    <g id="______Slice" stroke="none" stroke-width="1" fill="none" fill-rule="evenodd">
        <g id="about" transform="translate(-1645.000000, -5896.000000)" fill="#709343">
            <g id="enterprise-08" transform="translate(1595.000000, 5866.000000)">
                <g id="iqiyi_color" transform="translate(71.000000, 55.000000)">
                    <path d="M55.5050215,11.8131373 C55.5050215,11.5728927 55.3137167,11.3774292 55.07503,11.3774292 L50.8017682,11.3774292 C50.5690043,11.3774292 50.3753305,11.5728927 50.3753305,11.8131373 L50.3753305,34.5322918 C50.3753305,34.7749571 50.5690043,34.9716309 50.8017682,34.9716309 L55.07503,34.9716309 C55.3137167,34.9716309 55.5050215,34.7749571 55.5050215,34.5322918 L55.5050215,11.8131373" id="Fill-1"></path>
                    <path d="M17.1984721,31.2396695 C17.1984721,31.6233348 17.1202918,32.0759871 16.8549528,32.3658541 C16.523279,32.7253133 15.9517339,32.7501245 15.5004206,32.7313648 C14.934206,32.7531502 14.513691,32.6484592 14.2370987,32.4191073 C13.9125322,32.2236438 13.7490644,31.8302961 13.7490644,31.2396695 L13.7490644,15.0573476 C13.7490644,14.4776137 13.9125322,14.0782146 14.2370987,13.8615708 C14.513691,13.6745794 14.934206,13.5789657 15.5004206,13.5789657 C15.9073133,13.5789657 16.415485,13.6037768 16.7684807,13.8373648 C17.1581974,14.0897124 17.1937339,14.6325322 17.1984721,15.0573476 L17.1984721,31.2396695 Z M22.3915365,35.1265494 L22.3915365,35.1229185 L20.5400858,35.1229185 C20.0490901,35.1229185 19.7861202,35.0496953 19.7523605,34.8929614 C20.5294249,34.5994635 21.1590129,34.1734378 21.6446781,33.6130687 C22.103691,33.0793262 22.3329013,32.3949013 22.3329013,31.5646352 L22.3329013,14.7662704 C22.3329013,13.9553691 22.1327124,13.2945451 21.7293734,12.7789571 C21.3284034,12.2458197 20.7959485,11.8300815 20.1361545,11.5329528 C18.7158798,10.9743991 17.1581974,10.7063176 15.4483004,10.7287082 C14.6605751,10.7287082 13.8728498,10.784382 13.0792017,10.8920987 C12.2772618,11.0367296 11.5564635,11.2485322 10.9096996,11.5329528 C10.2475365,11.8270558 9.71745064,12.2409785 9.31529614,12.7789571 C8.84680687,13.2909142 8.61404292,13.9547639 8.61404292,14.7620343 L8.61404292,31.5670558 C8.64839485,33.0793262 9.42072103,34.1238155 10.9363519,34.6987082 C11.5937768,34.9946266 12.3246438,35.2064292 13.1413906,35.3359313 C13.9409614,35.499927 14.7381631,35.5816223 15.5395107,35.5816223 C16.1424464,35.5816223 16.7128069,35.5338155 17.2517768,35.4345708 C17.2849442,36.088133 17.4857253,36.6309528 17.8677425,37.0606094 C18.2296223,37.5072103 19.0066867,37.7426137 20.1912361,37.7643991 L22.3915365,37.7643991 C22.6296309,37.7643991 22.8221202,37.5677253 22.8221202,37.3238498 L22.8221202,35.5658884 C22.8221202,35.3244335 22.6296309,35.1265494 22.3915365,35.1265494 L22.3915365,35.1265494 Z" id="Fill-2"></path>
                    <path d="M5.08408584,11.3774292 L0.809639485,11.3774292 C0.574506438,11.3774292 0.382017167,11.5728927 0.382017167,11.8131373 L0.382017167,16.1877682 C0.382017167,16.4322489 0.573914163,16.6283176 0.809639485,16.6283176 L5.08408584,16.6283176 C5.31981116,16.6283176 5.51111588,16.4322489 5.51111588,16.1877682 L5.51111588,11.8131373 C5.51111588,11.5728927 5.31981116,11.3774292 5.08408584,11.3774292" id="Fill-3"></path>
                    <path d="M30.269382,11.3774292 L25.9990815,11.3774292 C25.7621717,11.3774292 25.5702747,11.5728927 25.5702747,11.8131373 L25.5702747,34.5322918 C25.5702747,34.7755622 25.7621717,34.9698155 25.9990815,34.9698155 L30.269382,34.9698155 C30.5074764,34.9698155 30.6999657,34.7743519 30.6999657,34.5322918 L30.6999657,11.8131373 C30.6999657,11.5728927 30.5074764,11.3774292 30.269382,11.3774292" id="Fill-4"></path>
                    <path d="M5.08408584,18.4964163 L0.809639485,18.4964163 C0.574506438,18.4964163 0.382017167,18.6930901 0.382017167,18.9357554 L0.382017167,34.5341073 C0.382017167,34.7749571 0.574506438,34.9716309 0.809639485,34.9716309 L5.08408584,34.9716309 C5.31981116,34.9716309 5.51111588,34.7749571 5.51111588,34.532897 L5.51111588,18.9357554 C5.51111588,18.6930901 5.31981116,18.4964163 5.08408584,18.4964163" id="Fill-5"></path>
                    <path d="M48.030515,11.9644249 L48.0287382,11.9626094 C48.0459142,11.9148026 48.0571674,11.8645751 48.0571674,11.8125322 C48.0571674,11.5856009 47.8854077,11.4022403 47.670412,11.3810601 L47.6721888,11.3786395 L47.6520515,11.3786395 C47.6431674,11.3786395 47.6384292,11.3774292 47.6313219,11.3774292 L43.2869871,11.3774292 C43.1122661,11.3774292 42.965382,11.4845408 42.8978627,11.6370386 L42.8966781,11.6370386 L42.8966781,11.6388541 C42.8937167,11.6491416 42.8907554,11.6600343 42.8872017,11.6672961 C42.8872017,11.6672961 40.6383348,18.8510343 40.4245236,20.0764635 C40.2089356,18.8510343 37.9642146,11.6672961 37.9642146,11.6672961 C37.9594764,11.6600343 37.9594764,11.6491416 37.9505923,11.6388541 L37.9505923,11.6370386 L37.9488155,11.6370386 C37.883073,11.4845408 37.7379657,11.3774292 37.5620601,11.3774292 L33.2183176,11.3774292 C33.2088412,11.3774292 33.2046953,11.3786395 33.1958112,11.3786395 L33.1756738,11.3786395 L33.1762661,11.3810601 C32.9624549,11.4022403 32.7912876,11.5856009 32.7912876,11.8125322 C32.7912876,11.8645751 32.8043176,11.9148026 32.8191245,11.9626094 L32.8155708,11.9644249 L37.8706352,26.3022489 L37.8706352,34.5341073 C37.8706352,34.7749571 38.0625322,34.9698155 38.297073,34.9698155 L42.5525665,34.9698155 C42.7882918,34.9698155 42.9801888,34.7749571 42.9801888,34.5341073 C42.9801888,34.5280558 42.9778197,34.5226094 42.9778197,34.5177682 L42.9778197,26.3022489 L48.030515,11.9644249" id="Fill-6"></path>
                    <path d="M101.914481,15.6746009 C101.381433,15.6746009 101.004747,15.9656781 100.824695,16.5163648 L100.815219,16.5635665 C100.762506,17.0337682 100.891622,17.6528369 101.803725,17.9330215 C105.144747,18.8008069 107.728841,19.7436309 109.501519,20.7403133 C109.712961,20.835927 109.914927,20.8849442 110.101494,20.8849442 C110.494172,20.8849442 110.898103,20.7215536 111.062755,20.2779785 C111.13679,20.0734378 111.147451,19.7999099 111.105399,19.6195751 C111.050318,19.3805408 110.945485,19.1505837 110.771356,18.9781159 C110.646386,18.8510343 110.489433,18.7342403 110.333073,18.6464936 C107.812352,17.3296867 105.099142,16.3390558 102.269253,15.7103047 C102.14606,15.6860987 102.025828,15.6746009 101.914481,15.6746009" id="Fill-7"></path>
                    <path d="M90.6429013,20.5714764 C95.9064464,20.2592189 99.2616824,18.5823476 100.619768,15.5886695 L109.316137,15.5886695 C109.672094,15.5886695 110.266738,15.4385923 110.266738,14.4273863 C110.266738,13.4960601 109.672094,13.3550601 109.316137,13.3550601 L101.133863,13.3550601 C101.204343,12.9078541 101.238103,12.6288798 101.246395,12.315412 C101.25824,11.9135923 101.026661,11.4790944 100.639906,11.3520129 C100.176155,11.2007253 99.5305751,11.2588197 99.2178541,11.6818197 C99.124867,11.807691 99.0348412,11.9886309 99.0046352,12.1447597 C99.0046352,12.1447597 98.8589356,12.9350858 98.8008927,13.2909142 C98.784309,13.3151202 98.7718712,13.334485 98.7576567,13.3550601 L91.4602403,13.3550601 C90.726412,13.3550601 90.3236652,13.7356996 90.3236652,14.4273863 C90.3236652,15.1759571 90.726412,15.5886695 91.4602403,15.5886695 L98.0611416,15.5886695 C98.0256052,15.5886695 97.8941202,15.7835279 97.8633219,15.8156009 C97.7963948,15.8912446 97.7270987,15.9656781 97.6589871,16.0407167 C97.5150644,16.190794 97.3681803,16.33603 97.2135966,16.4715837 C96.8724464,16.7705279 96.4916137,17.0150086 96.0870901,17.2177339 C95.6085322,17.4549528 95.1003605,17.6304464 94.5862661,17.7702361 C93.9785923,17.9330215 93.3584807,18.0449742 92.7342232,18.1296953 C92.0365236,18.2271245 91.3329013,18.2906652 90.6310558,18.3529957 C90.1412446,18.3941459 89.659133,18.6930901 89.5187639,19.1947597 C89.3997167,19.6292575 89.5229099,20.1460558 89.9203262,20.3814592 C90.1175536,20.4982532 90.4018455,20.5714764 90.6429013,20.5714764" id="Fill-8"></path>
                    <path d="M134.926687,28.0481073 C134.357511,28.046897 133.909751,28.4880515 133.809657,29.0429742 C133.778858,29.2184678 133.762275,29.408485 133.766421,29.5863991 C133.796034,30.5419313 133.765828,31.3534378 133.385588,31.7558627 C132.973957,32.1915708 132.377536,32.0608584 131.683391,32.0832489 L123.953021,32.0832489 C119.977674,32.0832489 119.497931,31.4369485 119.473056,31.1470815 C119.422712,30.7930687 120.317047,29.291691 129.676764,22.9987339 C130.30576,22.6126481 130.733382,22.3348841 130.989837,22.1376052 C131.77697,21.5106695 131.763348,20.88797 131.601064,20.4504464 C131.316773,19.8713176 130.754704,19.5766094 129.935588,19.5766094 L117.233073,19.5766094 C116.164609,19.5766094 116.003511,20.2446953 116.003511,20.670721 C116.056815,21.1463691 116.328077,21.714 117.324876,21.714 L127.521476,21.714 C122.53867,24.908588 119.181657,27.539176 117.517365,29.541618 C117.517365,29.541618 116.41988,30.7706781 116.917983,32.0832489 C117.177399,32.7706996 117.779742,33.3395408 118.813854,33.7371245 C120.00018,34.1813047 122.070773,34.4082361 124.964034,34.4082361 L132.036979,34.4082361 C133.858223,34.4082361 134.455828,34.0935579 135.055803,33.4454421 C135.809176,32.6309099 136.143811,31.2935279 136.040163,29.4659742 C135.993373,28.9037897 135.792592,28.3803348 135.276129,28.127382 C135.162412,28.0723133 135.046918,28.0481073 134.926687,28.0481073" id="Fill-9"></path>
                    <path d="M76.5041202,29.6832232 C74.9162318,28.7984936 73.6730472,27.7612661 72.7994421,26.588485 L79.5513734,26.588485 C79.5875021,26.6423433 79.6011245,26.7022532 79.5981631,26.7730558 C79.5744721,27.0956009 79.1385579,27.8968197 76.5041202,29.6832232 L76.5041202,29.6832232 Z M72.0472532,20.8782876 L67.6810043,20.8782876 C67.4417253,20.8782876 67.2356137,20.9200429 67.0632618,20.9999227 C67.0691845,20.9418283 67.0709614,20.8794979 67.0709614,20.8214034 L67.0709614,19.8580043 C67.0460858,19.6286524 67.0727382,19.4610258 67.1396652,19.3829614 C67.1538798,19.3678326 67.1977082,19.3188155 67.3398541,19.3188155 C67.3984893,19.3188155 67.4671931,19.3266824 67.5430043,19.3448369 L67.5666953,19.349073 L72.4843519,19.349073 C72.3753734,19.9197296 72.2296738,20.4310815 72.0472532,20.8782876 L72.0472532,20.8782876 Z M73.6084893,14.6488712 C73.5782833,14.9375279 73.6262575,15.1850343 73.752412,15.3829185 C74.0846781,16.0649227 74.3227725,16.613794 74.4678798,17.0228755 L71.2767039,17.0228755 C71.3726524,16.746927 71.3454077,16.4685579 71.1837167,16.1992661 C70.8893562,15.6467639 70.5511674,15.1269399 70.1744807,14.6488712 L73.6084893,14.6488712 Z M74.7628326,19.349073 L83.4372876,19.349073 C83.6102318,19.349073 83.8637253,19.3387854 83.850103,19.5977897 C83.8418112,19.75997 83.5788412,20.4534721 83.4876309,20.6549871 C83.4473562,20.7820687 83.4218884,20.9049142 83.4082661,21.0204979 C83.2252532,20.9351717 82.9877511,20.8782876 82.6845064,20.8782876 L74.5022318,20.8782876 C74.7207811,20.0546781 74.778824,19.6098927 74.7628326,19.349073 L74.7628326,19.349073 Z M80.8099571,14.1502275 C80.747176,14.2349485 80.6944635,14.3239056 80.6482661,14.4189142 L80.6423433,14.4316223 L80.6387897,14.4443305 C80.2934936,15.4440386 79.7752532,16.3094034 79.0935451,17.0228755 L76.7629442,17.0228755 C76.4105408,16.0074335 76.0723519,15.1759571 75.7631845,14.5363133 C77.7058455,14.4298069 79.397382,14.3009099 80.8099571,14.1502275 L80.8099571,14.1502275 Z M85.9206953,32.2581373 C83.2299914,32.0832489 80.8928755,31.5416395 78.9650215,30.6496481 C80.3734506,29.5561416 81.4413219,28.3101373 82.1425751,26.9328155 C82.584412,25.9930172 82.6614077,25.3164592 82.3777082,24.8517039 C82.1342833,24.461382 81.6498026,24.2671288 80.9361116,24.2671288 L73.2892532,24.2671288 C73.452721,23.9246137 73.6001974,23.5367124 73.7346438,23.1100815 L82.7923004,23.1100815 C83.699073,23.0253605 83.9454592,22.5176395 83.9922489,22.1133991 C84.0147554,22.1230815 84.072206,22.1551545 84.0864206,22.1587854 C84.2475193,22.2126438 84.4003262,22.2398755 84.540103,22.2398755 C84.8504549,22.2398755 85.2751159,22.1103734 85.5570386,21.456206 C86.2257167,19.5330386 86.321073,18.2664592 85.8472532,17.5796137 C85.5913906,17.2092618 85.1785751,17.0228755 84.6206524,17.0228755 L81.7883948,17.0228755 C81.995691,16.6791502 82.1733734,16.3160601 82.325588,15.9469185 C82.4736567,15.5838283 82.6424549,15.1977425 82.709382,14.8098412 C82.7472876,14.6065107 82.7324807,14.389867 82.6454163,14.2010601 C82.6075107,14.1254163 82.560721,14.0527983 82.500309,13.9892575 C83.08903,13.9281373 83.4473562,13.9263219 84.0159399,13.8089227 C84.3067468,13.7478026 84.6206524,13.6878927 84.8676309,13.5172403 C85.1679142,13.3072532 85.3367124,12.8564163 85.2851845,12.5030086 C85.2330644,12.1556524 85.038206,11.8234249 84.7130472,11.6842403 C84.5472103,11.6122275 84.3292532,11.5589742 84.1474249,11.5589742 C84.0852361,11.5589742 84.0159399,11.5638155 83.9365751,11.5728927 C80.1703004,12.2149571 76.068206,12.5405279 71.736309,12.5405279 C70.1857339,12.5405279 68.5759313,12.4999828 66.9442146,12.4146567 C65.95097,12.4146567 65.6779313,12.9326652 65.6234421,13.3907639 C65.6234421,13.866412 65.8307382,14.4534077 66.8162833,14.5508369 C67.0372017,14.6022747 67.3943433,14.6355579 67.8977768,14.64403 C67.8705322,14.64403 67.8699399,14.9006137 67.8699399,14.9242146 C67.8764549,15.0397983 67.9036996,15.1487253 67.9463433,15.2534163 C68.1346867,15.7103047 68.5427639,16.0219571 68.7938884,16.4352747 C68.9407725,16.6761245 69.0592275,16.8727983 69.1456996,17.0228755 L66.5770043,17.0228755 C65.8058627,17.0228755 64.8848755,17.3563133 64.8848755,18.9387811 L64.8848755,20.8214034 C64.8848755,21.5681588 65.2888069,21.9808712 66.0255966,21.9808712 C66.1855107,21.9808712 66.3294335,21.9584807 66.455588,21.9118841 C66.455588,21.9227768 66.4538112,21.9348798 66.4502575,21.9481931 C66.4502575,22.6253562 66.8482661,23.0374635 67.5880172,23.1100815 L71.2062232,23.1100815 C69.7652189,26.2120815 67.6478369,28.5049957 64.900867,29.9398069 C64.1919142,30.3749099 63.9988326,30.9800601 64.3636738,31.6481459 L64.3719657,31.6669056 L64.3844034,31.6826395 C64.631382,31.9846094 64.9772704,32.1389227 65.4102232,32.1389227 C66.3323948,32.1389227 67.1130129,31.435133 67.8349957,30.9364893 C68.5895536,30.419691 69.2848841,29.787309 69.9162489,29.1210386 C70.0933391,28.9346524 70.2645064,28.7410043 70.4285665,28.5394893 C70.4712103,28.4904721 70.9231159,27.9645966 70.9094936,27.9482575 C71.8985923,29.1391931 73.038721,30.1733948 74.3091502,31.032103 C72.3937339,31.853897 70.1016309,32.3295451 67.4790386,32.4487597 C67.0123262,32.490515 66.6166867,32.663588 66.3679313,33.0763004 C65.9083262,33.8393948 66.4615107,34.6890258 67.2859571,34.7471202 C67.4618627,34.7610386 68.7915193,34.6400086 69.4649356,34.5099013 C70.7868927,34.2575536 72.0922661,33.9737382 73.3769099,33.5573948 C73.9460858,33.3704034 74.5105236,33.1664678 75.0571931,32.9250129 C75.5653648,32.6992918 76.0569528,32.4390773 76.5414335,32.1697854 C76.5651245,32.1546567 76.6930558,32.0656996 76.7114163,32.0747768 C79.5768412,33.4278927 82.6335708,34.2375837 85.8134936,34.4905365 C86.472103,34.4905365 86.8754421,34.1171588 86.9506609,33.4194206 C86.9506609,32.7458884 86.5887811,32.3337811 85.9206953,32.2581373 L85.9206953,32.2581373 Z" id="Fill-10"></path>
                    <path d="M110.695545,21.0658841 L90.6310558,21.0658841 C89.9102575,21.0658841 89.4749356,21.4374464 89.4020858,22.1103734 C89.3665494,22.43897 89.4293305,22.7082618 89.5892446,22.9097768 C89.7633734,23.1300515 90.0435193,23.2601588 90.4486352,23.2988884 L106.057442,23.2988884 L106.057442,31.8085107 C106.047966,31.9967124 106.016575,32.5703948 104.570833,32.5703948 C103.876687,32.5703948 102.950369,32.4348412 101.814386,32.1697854 C101.689416,32.1389227 101.568,32.1262146 101.458429,32.1262146 C100.982833,32.1262146 100.639906,32.3852189 100.455116,32.8874936 C100.33903,33.2778155 100.35206,33.6015708 100.492429,33.8490773 C100.623322,34.0723777 100.848386,34.2224549 101.168807,34.2944678 C102.563021,34.6127768 103.764155,34.7719313 104.737854,34.7719313 C106.971914,34.7719313 108.149948,33.9422704 108.242936,32.2908155 L108.242936,23.2988884 L110.809854,23.2958627 C111.471425,23.2214292 111.831528,22.8129528 111.831528,22.1103734 C111.758678,21.4374464 111.35297,21.0658841 110.695545,21.0658841" id="Fill-11"></path>
                    <path d="M137.488867,14.8558326 C137.387588,13.9523433 136.851579,13.818 136.541227,13.818 L131.381923,13.818 L131.381923,12.259133 C131.381923,11.8966481 131.248661,11.2890773 130.339519,11.2890773 C129.353974,11.2890773 129.20709,11.8966481 129.20709,12.259133 L129.20709,13.818 L123.460249,13.818 L123.460249,12.259133 C123.460249,11.8966481 123.324618,11.2890773 122.417845,11.2890773 C121.432893,11.2890773 121.285416,11.8966481 121.285416,12.259133 L121.285416,13.818 L115.725142,13.818 C115.369777,13.818 114.772764,13.9541588 114.772764,14.8812489 C114.772764,15.8065236 115.369777,15.9469185 115.725142,15.9469185 L121.285416,15.9469185 L121.285416,18.1617682 C121.285416,18.4885494 121.419863,19.0386309 122.325451,19.0386309 C123.234,19.0386309 123.367854,18.4885494 123.367854,18.1617682 L123.367854,15.9469185 L129.20709,15.9469185 L129.20709,18.1617682 C129.20709,18.4885494 129.342721,19.0386309 130.248901,19.0386309 C131.155082,19.0386309 131.291305,18.4885494 131.291305,18.1617682 L131.291305,15.9469185 L136.541227,15.9469185 C136.851579,15.9469185 137.387588,15.8113648 137.488867,14.9054549 L137.493013,14.8812489 L137.488867,14.8558326" id="Fill-12"></path>
                    <path d="M102.01576,28.977618 C102.01576,29.352206 101.865914,29.5065193 101.496927,29.5065193 L94.1272532,29.5065193 C93.7582661,29.5065193 93.6078283,29.352206 93.6078283,28.977618 L93.6078283,27.1803219 C93.6078283,26.8057339 93.7582661,26.6514206 94.1272532,26.6514206 L101.496927,26.6514206 C101.865914,26.6514206 102.01576,26.8057339 102.01576,27.1803219 L102.01576,28.977618 Z M103.834635,25.0526137 C103.604833,24.8026867 103.265459,24.662897 102.83606,24.6247725 L92.7904893,24.6247725 C92.3593133,24.662897 92.0205322,24.8026867 91.7907296,25.0526137 C91.5869871,25.275309 91.4685322,25.5724378 91.433588,25.9385536 L91.433588,30.2199914 C91.4685322,30.584897 91.5869871,30.8844464 91.7907296,31.1059313 C92.0205322,31.3576738 92.3593133,31.4950429 92.7904893,31.5331674 L102.83606,31.5331674 C103.265459,31.4950429 103.604833,31.3576738 103.834635,31.1059313 C104.036601,30.8844464 104.156833,30.584897 104.191777,30.2199914 L104.191777,25.9385536 C104.156833,25.5724378 104.036601,25.275309 103.834635,25.0526137 L103.834635,25.0526137 Z" id="Fill-13"></path>
                    <path d="M54.5159227,5.23575966 C54.0989614,4.33348069 53.3846781,3.42757082 52.5839227,2.87446352 C49.6355794,0.838133047 34.1327897,0.104690987 31.3840429,0.0611201717 C30.3120258,0.0441759657 29.1831502,0.0387296137 27.9518112,0.0399399142 L27.8943605,0.0399399142 C27.8754077,0.0399399142 25.4772876,0.0441759657 24.4058627,0.0611201717 C21.6553391,0.104690987 6.15373391,0.838133047 3.20539056,2.87446352 C2.40522747,3.42757082 1.68916738,4.33348069 1.27398283,5.23575966 C0.653871245,6.59795279 0.419330472,8.48904721 0.419330472,9.56621459 L5.57981974,9.55774249 C5.59521888,9.18618026 5.76283262,8.15924034 6.18275536,7.47723605 C6.85617167,6.38675536 8.13311588,6.03637339 9.29456652,5.86451073 C13.991897,5.16798283 18.1692103,4.8036824 22.5709957,4.66933906 C24.3229442,4.61729614 27.8754077,4.59853648 27.8943605,4.59853648 C27.9144979,4.59853648 27.9322661,4.59551073 27.9518112,4.59551073 C29.7090901,4.59369528 31.4634077,4.61729614 33.2183176,4.66933906 C37.6206953,4.8036824 41.7962318,5.16798283 46.49297,5.86451073 C47.6561974,6.03637339 48.9313648,6.38675536 49.6047811,7.47723605 C50.0276652,8.15924034 50.1946867,9.18618026 50.2118627,9.55774249 L55.3699828,9.56621459 C55.3699828,8.48904721 55.1342575,6.59795279 54.5159227,5.23575966" id="Fill-14"></path>
                    <path d="M54.5159227,41.1762361 C54.0989614,42.0803305 53.3846781,42.9856352 52.5839227,43.5375322 C49.6355794,45.5756781 34.1327897,46.3079099 31.3840429,46.3514807 C30.3120258,46.3696352 29.1831502,46.3762918 27.9518112,46.3732661 L27.8943605,46.3732661 C27.8754077,46.3732661 25.4772876,46.3696352 24.4058627,46.3514807 C21.6553391,46.3079099 6.15373391,45.5756781 3.20539056,43.5375322 C2.40522747,42.9856352 1.68916738,42.0803305 1.27398283,41.1762361 C0.653871245,39.8158584 0.419330472,37.9241588 0.419330472,36.8475966 L5.57981974,36.8560687 C5.59521888,37.2282361 5.76283262,38.2527554 6.18275536,38.9377854 C6.85617167,40.0288712 8.13311588,40.3762275 9.29456652,40.5493004 C13.991897,41.2458283 18.1692103,41.6089185 22.5709957,41.7450773 C24.3229442,41.7995408 27.8754077,41.8152747 27.8943605,41.8152747 C27.9144979,41.8152747 27.9322661,41.8170901 27.9518112,41.8170901 C29.7090901,41.8201159 31.4634077,41.7995408 33.2183176,41.7450773 C37.6206953,41.6089185 41.7962318,41.2458283 46.49297,40.5493004 C47.6561974,40.3762275 48.9313648,40.0288712 49.6047811,38.9377854 C50.0276652,38.2527554 50.1946867,37.2282361 50.2118627,36.8560687 L55.3699828,36.8475966 C55.3699828,37.9241588 55.1342575,39.8158584 54.5159227,41.1762361" id="Fill-15"></path>
                </g>
            </g>
        </g>
    </g>
</svg>