<?xml version="1.0" encoding="UTF-8"?>
<svg width="170px" height="100px" viewBox="0 0 170 100" version="1.1" xmlns="http://www.w3.org/2000/svg" xmlns:xlink="http://www.w3.org/1999/xlink">
    <!-- Generator: Sketch 44 (41411) - http://www.bohemiancoding.com/sketch -->
    <title>enterprise-04</title>
    <desc>Created with Sketch.</desc>
    <defs></defs>
    <g id="______Slice" stroke="none" stroke-width="1" fill="none" fill-rule="evenodd">
        <g id="about" transform="translate(-1645.000000, -5696.000000)">
            <g id="enterprise-04" transform="translate(1595.000000, 5666.000000)">
                <g id="Qihoo360" transform="translate(62.000000, 54.000000)">
                    <path d="M106.448714,28.0472894 L97.0894353,28.0472894 C94.3365246,28.0472894 93.3776976,26.7368498 93.3776976,24.4518315 C93.3776976,24.1994505 93.3776976,23.5160806 93.3776976,23.5160806 L106.349279,23.5160806 C108.727231,23.5160806 109.460157,24.4673626 109.460157,25.6943223 C109.460157,27.1348352 108.676645,28.0472894 106.448714,28.0472894 Z M107.212532,18.3112088 L93.3995155,18.3112088 C93.3995155,15.855348 95.2310565,15.0438462 97.4101384,15.0438462 L113.938608,15.0438462 L113.938608,9.85062271 L97.759224,9.85062271 C91.2443752,9.85062271 87.4617778,13.2441758 87.4617778,18.4529304 C87.4617778,20.3943223 87.5013588,23.4500733 87.5013588,25.2167399 C87.5013588,30.4371429 92.3101676,33.2152747 97.759224,33.2152747 L108.004153,33.2152747 C112.191056,33.1065568 114.855151,30.7671795 115.357348,26.9698168 C115.357348,26.9698168 115.663956,25.5118315 115.251927,23.5024908 C114.661301,20.5554579 112.221949,18.3112088 107.212532,18.3112088 L107.212532,18.3112088 Z" id="Fill-6" fill="#C6CBD9"></path>
                    <path d="M84.4416466,16.2106227 C84.4416466,12.6986447 81.0882623,9.85062271 76.9521384,9.85062271 L57.1282077,9.85062271 L57.1282077,15.0749084 L76.5163607,15.0749084 C77.6495373,15.0749084 78.5645355,15.944652 78.5645355,17.0163004 C78.5645355,18.0860073 78.5539162,18.9518681 78.5539162,18.9518681 L58.7769035,18.9518681 L58.7769035,24.1547985 L78.5674317,24.1547985 C78.5674317,24.1547985 78.5645355,25.0245421 78.5645355,26.0942491 C78.5645355,27.163956 77.6495373,28.0336996 76.5163607,28.0336996 L57.1282077,28.0239927 L57.1282077,33.2152747 L76.9521384,33.2152747 C81.0882623,33.2152747 84.4416466,30.3672527 84.4416466,26.8533333 C84.4416466,24.6284982 84.4416466,18.4393407 84.4416466,16.2106227" id="Fill-7" fill="#C6CBD9"></path>
                    <path d="M139.87173,23.5121978 C139.87173,27.1270696 137.890361,28.0239927 134.447388,28.0239927 L129.676423,28.0239927 C126.23345,28.0239927 124.251887,27.1270696 124.251887,23.5121978 C124.251887,22.6676923 124.239337,19.9982784 124.239337,19.3712088 C124.239337,16.2086813 126.387719,15.0438462 129.676423,15.0438462 L134.447388,15.0438462 C137.736091,15.0438462 139.884474,16.2086813 139.884474,19.3712088 C139.884474,19.9982784 139.87173,22.6676923 139.87173,23.5121978 Z M135.545811,9.85062271 L128.578,9.85062271 C123.294605,9.85062271 118.280747,12.9704396 118.280747,18.317033 C118.280747,19.555641 118.320521,23.0734432 118.320521,24.7935165 C118.320521,29.9149084 123.296149,33.2152747 128.578,33.2152747 L135.545811,33.2152747 C140.828047,33.2152747 145.803869,29.9149084 145.803869,24.7935165 C145.803869,23.0734432 145.843064,19.555641 145.843064,18.317033 C145.843064,12.9704396 140.82882,9.85062271 135.545811,9.85062271 L135.545811,9.85062271 Z" id="Fill-8" fill="#C6CBD9"></path>
                    <path d="M121.594164,40.7304029 C121.594164,41.8078755 121.004117,42.0738462 119.979064,42.0738462 L118.558973,42.0738462 C117.53392,42.0738462 116.944066,41.8078755 116.944066,40.7304029 C116.944066,40.4799634 116.940204,39.6859341 116.940204,39.497619 C116.940204,38.556044 117.579679,38.2104762 118.558973,38.2104762 L119.979064,38.2104762 C120.958164,38.2104762 121.597639,38.556044 121.597639,39.497619 C121.597639,39.6859341 121.594164,40.4799634 121.594164,40.7304029 Z M120.306332,36.6651282 L118.231705,36.6651282 C116.658889,36.6651282 115.166007,37.5931136 115.166007,39.1850549 C115.166007,39.5539194 115.177978,40.6003297 115.177978,41.1128571 C115.177978,42.6368498 116.659275,43.6211355 118.231705,43.6211355 L120.306332,43.6211355 C121.878761,43.6211355 123.360058,42.6368498 123.360058,41.1128571 C123.360058,40.6003297 123.371836,39.5539194 123.371836,39.1850549 C123.371836,37.5931136 121.879148,36.6651282 120.306332,36.6651282 Z M102.164885,36.6651282 L96.2630601,36.6651282 L96.2630601,38.2201832 L102.035137,38.2201832 C102.372444,38.2201832 102.644878,38.4783883 102.644878,38.7967766 C102.644878,39.1151648 102.641789,39.37337 102.641789,39.37337 L96.7540583,39.37337 L96.7540583,40.9226007 L102.645843,40.9226007 C102.645843,40.9226007 102.644878,41.1808059 102.644878,41.4991941 C102.644878,41.8195238 102.372444,42.0777289 102.035137,42.0777289 L96.2630601,42.0738462 L96.2630601,43.6211355 L102.164885,43.6211355 C103.396146,43.6211355 104.394361,42.7727473 104.394361,41.726337 L104.394361,38.5579853 C104.394361,37.5115751 103.396146,36.6651282 102.164885,36.6651282 Z M111.264474,42.0816117 L108.477581,42.0816117 C107.658157,42.0816117 107.372594,41.6913919 107.372594,41.0119048 C107.372594,40.9361905 107.372594,40.7323443 107.372594,40.7323443 L111.234546,40.7323443 C111.942372,40.7323443 112.160936,41.0157875 112.160936,41.3807692 C112.160936,41.8098168 111.927505,42.0816117 111.264474,42.0816117 Z M111.491341,39.1831136 L107.379352,39.1831136 C107.379352,38.4512088 107.924412,38.2104762 108.573155,38.2104762 L113.494142,38.2104762 L113.494142,36.6651282 L108.677417,36.6651282 C106.737752,36.6651282 105.611526,37.674652 105.611526,39.2258242 C105.611526,39.8024176 105.623304,40.7129304 105.623304,41.2390476 C105.623304,42.7941026 107.054787,43.6211355 108.677417,43.6211355 L111.727475,43.6211355 C112.973603,43.5881319 113.767348,42.8911722 113.916404,41.7612821 C113.916404,41.7612821 114.00773,41.3264103 113.884933,40.7284615 C113.709231,39.8509524 112.982871,39.1831136 111.491341,39.1831136 Z M128.386852,38.8744322 L128.386852,38.878315 C128.237217,39.7965934 128.225825,40.6275092 128.396699,41.384652 L128.397858,41.3865934 L128.39863,41.3885348 C128.628393,42.7572161 129.881279,43.6211355 131.454867,43.6211355 L135.869217,43.6211355 L135.869217,42.0738462 L131.782328,42.0738462 C130.75631,42.0738462 130.361464,41.7476923 130.165876,40.7498168 C130.098492,40.4061905 130.086328,40.0062637 130.162015,39.4354945 C130.257974,38.7171795 130.802262,38.204652 131.782328,38.204652 L135.869217,38.204652 L135.869217,36.659304 L131.454867,36.659304 C129.880893,36.659304 128.617581,37.4882784 128.386852,38.8744322 Z M125.89788,41.6020879 C125.343745,41.6020879 124.894452,42.0544322 124.894452,42.6116117 C124.894452,43.1687912 125.343745,43.6211355 125.89788,43.6211355 C126.452208,43.6211355 126.901308,43.1687912 126.901308,42.6116117 C126.901308,42.0544322 126.452208,41.6020879 125.89788,41.6020879 Z M93.1552714,41.6020879 C92.6011366,41.6020879 92.1514572,42.0544322 92.1514572,42.6116117 C92.1514572,43.1687912 92.6011366,43.6211355 93.1552714,43.6211355 C93.7094062,43.6211355 94.1590856,43.1687912 94.1590856,42.6116117 C94.1590856,42.0544322 93.7094062,41.6020879 93.1552714,41.6020879 Z M87.86898,41.9845421 L87.7378798,41.9845421 L86.4915592,36.659304 L84.8548342,36.659304 L83.6077413,41.9845421 L83.4774135,41.9845421 L81.9067213,36.659304 L80.2703825,36.659304 L82.3681785,43.6211355 L84.7239271,43.6211355 L85.6667286,39.6141026 L86.6232386,43.6211355 L88.9842004,43.6211355 L91.081031,36.659304 L89.4408306,36.659304 L87.86898,41.9845421 Z M76.4375847,41.9845421 L76.3068707,41.9845421 L75.0605501,36.659304 L73.4238251,36.659304 L72.1767322,41.9845421 L72.0460182,41.9845421 L70.4755191,36.659304 L68.8395665,36.659304 L70.9369763,43.6211355 L73.292725,43.6211355 L74.2353333,39.6141026 L75.1918434,43.6211355 L77.5531913,43.6211355 L79.6500219,36.659304 L78.0098215,36.659304 L76.4375847,41.9845421 Z M64.8839709,41.9845421 L64.753643,41.9845421 L63.5071293,36.659304 L61.8702113,36.659304 L60.6235046,41.9845421 L60.4925974,41.9845421 L58.9220984,36.659304 L57.2861457,36.659304 L59.3837486,43.6211355 L61.7394973,43.6211355 L62.6821056,39.6141026 L63.6386157,43.6211355 L65.9997705,43.6211355 L68.0966011,36.659304 L66.4564007,36.659304 L64.8839709,41.9845421 Z M144.827279,37.6688278 C144.73074,37.4475092 144.572222,37.2650183 144.348638,37.1077656 C144.124474,36.956337 143.833118,36.8417949 143.472641,36.7563736 C143.109654,36.6748352 142.666153,36.6321245 142.134222,36.6321245 L141.23274,36.6321245 C140.947563,36.6321245 140.624736,36.6360073 140.259046,36.6476557 C139.893162,36.6573626 139.462597,36.6670696 138.97353,36.6864835 C138.485235,36.7058974 137.886692,36.7350183 137.174812,36.768022 L137.174812,43.6211355 L139.1222,43.6211355 L139.1222,38.2997802 L141.589548,38.2997802 C142.158164,38.2997802 142.536984,38.3813187 142.730255,38.5405128 C142.923333,38.7016484 143.023927,38.9171429 143.023927,39.1831136 L143.023927,43.6211355 L144.96533,43.6211355 L144.96533,38.402674 C144.96533,38.1367033 144.918219,37.8901465 144.827279,37.6688278 L144.827279,37.6688278 Z" id="Fill-9" fill="#C6CBD9"></path>
                    <g id="Group-13">
                        <path d="M24.6715483,49.1249817 C14.6907505,49.1249817 6.59941712,49.9481319 6.59941712,50.9654212 C6.59941712,51.9807692 14.6907505,52.8058608 24.6715483,52.8058608 C34.6525392,52.8058608 42.7440656,51.9807692 42.7440656,50.9654212 C42.7440656,49.9481319 34.6525392,49.1249817 24.6715483,49.1249817" id="Fill-10" fill="#E2E6EE"></path>
                        <path d="M49.2778361,23.6772161 C50.1416685,37.6144689 39.8260729,49.6297436 26.2366412,50.5150183 C12.6466302,51.4022344 0.930058288,40.8235897 0.0656466302,26.886337 C-0.798571949,12.9510256 9.51721676,0.935750916 23.1066485,0.0485347985 C36.7285173,-0.135897436 48.4132313,9.74190476 49.2778361,23.6772161" id="Fill-12" fill="#F2F4F7"></path>
                    </g>
                    <path d="M45.3664554,11.7764835 C45.3523607,11.7531868 45.3371075,11.7279487 45.3230128,11.7027106 C45.2581384,11.5648718 45.183224,11.4250916 45.0949872,11.2794872 C41.4060328,5.22428571 32.8445537,0.205787546 25.3088998,0.0679487179 C19.033082,-0.432930403 8.51571949,2.24619048 3.07959927,13.061685 L3.06994536,13.0772161 L3.07766849,13.0655678 L3.06666302,13.0869231 C3.13424044,12.9782051 3.20548634,12.8694872 3.27827687,12.7607692 C5.31081239,9.82732601 11.1664918,5.40871795 18.4158106,5.18157509 C26.6795628,4.92336996 32.921592,10.7902564 37.299643,15.0516117 C39.6384007,17.3288645 42.954714,17.3055678 44.510153,16.1912088 C45.5589545,15.4398901 46.2951621,13.4363736 45.3664554,11.7764835" id="Fill-14" fill="#C6CBD9"></path>
                    <path d="M11.5020619,46.6594139 C10.7171985,46.1624176 9.96168306,45.6285348 9.24362477,45.0655311 C9.10962842,44.960696 8.97601821,44.8558608 8.84549727,44.7490842 L8.81981785,44.7277289 C7.29874681,43.4871795 6.01245902,42.1553846 5.04764663,40.8371795 C4.99570856,40.7672894 4.94763206,40.7012821 4.89839709,40.6333333 L4.87464845,40.6003297 C4.45315847,40.0256777 4.12897996,39.5655678 3.8961275,39.0452747 C3.8855082,39.0278022 3.87411658,39.0103297 3.86369035,38.9928571 C3.75962113,38.8123077 3.67582514,38.6259341 3.61037158,38.437619 C5.59405829,41.770989 8.30545719,44.5840659 11.5020619,46.6594139" id="Fill-17" fill="#DCDFA6"></path>
                    <path d="M24.6479927,50.5674359 C21.9694171,50.5674359 19.3790783,50.1247985 16.9488015,49.3016484 C16.2801712,49.0745055 15.6246703,48.8201832 14.9817195,48.5386813 C13.7803862,47.9950916 12.6120692,47.3641392 11.5020619,46.6594139 C8.30545719,44.5840659 5.59405829,41.770989 3.61037158,38.437619 C3.11358106,37.0087546 3.68818215,35.4323443 4.74760291,34.7179121 C5.42511475,34.261685 6.41734426,33.9724176 7.51036066,33.9724176 C8.97698361,33.9724176 10.6251002,34.4927106 11.9370674,35.8264469 C16.1286047,40.0839194 22.2706193,45.5974725 30.2679235,45.5974725 C30.4486448,45.5955311 30.6316831,45.5935897 30.8143352,45.5877656 C38.0621093,45.3606227 43.9168233,40.943956 45.9507104,38.0105128 C46.0180947,37.9095604 46.0841275,37.8105495 46.147071,37.7095971 C43.1678725,43.1124908 38.2963133,47.3097802 32.3933297,49.3016484 C30.4434317,49.9597802 28.380776,50.3752381 26.2366412,50.5150183 C25.7041311,50.5499634 25.1743242,50.5674359 24.6479927,50.5674359" id="Fill-18" fill="#C6CBD9"></path>
                    <path d="M34.4266375,21.0058608 C32.4321384,21.0058608 30.4374463,21.0058608 28.4427541,21.0058608 C28.4442987,19.0974725 28.4674681,17.1910256 28.4941129,15.2826374 C28.5518434,13.106337 26.7338179,12.2094139 24.8182878,12.2113553 C22.9977523,12.2113553 21.333224,13.3295971 21.2669982,15.2826374 C21.1859053,17.237619 21.1127286,19.1887179 21.1125355,21.1475824 C19.240255,21.1475824 17.3679745,21.1475824 15.4953078,21.1475824 C13.4894171,21.1145788 13.0100036,23.1705128 13.0088452,24.7973993 C13.0076867,26.4436996 13.5274536,28.2724908 15.4953078,28.2375458 C17.1723862,28.2375458 18.8494645,28.2375458 20.5267359,28.2375458 C20.5267359,30.264359 20.6122696,32.285348 20.6974171,34.3121612 C20.8767869,36.3797436 23.174612,37.2727839 24.9688889,37.2358974 C26.818,37.199011 28.4535665,36.3001465 28.3828998,34.2228571 C28.3437049,32.2271062 28.30451,30.2332967 28.3064408,28.2375458 C30.3071184,28.2375458 32.307796,28.2375458 34.3088597,28.2375458 C36.2734317,28.2686081 36.9443789,26.4844689 36.966969,24.7973993 C36.9903315,23.0695604 36.5709654,20.9592674 34.4266375,21.0058608" id="Fill-19" fill="#C6CBD9"></path>
                </g>
            </g>
        </g>
    </g>
</svg>