<?xml version="1.0" encoding="UTF-8"?>
<svg width="170px" height="100px" viewBox="0 0 170 100" version="1.1" xmlns="http://www.w3.org/2000/svg" xmlns:xlink="http://www.w3.org/1999/xlink">
    <!-- Generator: Sketch 44 (41411) - http://www.bohemiancoding.com/sketch -->
    <title>enterprise-03</title>
    <desc>Created with Sketch.</desc>
    <defs></defs>
    <g id="______Slice" stroke="none" stroke-width="1" fill="none" fill-rule="evenodd">
        <g id="about" transform="translate(-1345.000000, -5696.000000)">
            <g id="enterprise-03" transform="translate(1295.000000, 5666.000000)">
                <g id="sina_color" transform="translate(60.000000, 53.000000)">
                    <polyline id="Fill-1" fill="#4A4A4A" points="149.908023 21.5620035 150.28616 20.1677881 150.416339 19.5972589 150.604787 19.2230806 132.271958 19.2230806 131.952092 20.420945 131.697934 21.5620035 129.039816 30.9065805 128.841449 31.2795238 128.719949 31.7858376 128.531501 32.2909165 128.334374 32.9923464 130.243656 32.9923464 133.858894 20.3554947 148.442587 20.3554947 145.464603 30.9065805 145.276154 31.0288368 145.144736 31.2239528 144.890578 31.3449742 144.70213 31.4783446 143.820636 31.4783446 143.820636 31.5326807 142.486618 31.5326807 142.805245 32.2328757 142.992454 32.9923464 144.514921 32.7391895 145.144736 32.6082889 145.718761 32.6082889 145.90473 32.4860326 146.158887 32.4205823 146.544463 32.1698952 146.86433 31.7858376 147.118488 31.4104245 149.908023 21.5620035"></polyline>
                    <polyline id="Fill-2" fill="#4A4A4A" points="136.209543 23.3291621 135.757018 22.5721612 135.571049 21.8707314 134.489949 22.1226534 133.661767 22.505476 134.047343 23.0117898 134.553179 23.7687907 135.127203 24.7789485 135.825207 26.0422632 135.061494 26.6683634 134.423 27.3055779 133.22164 28.4454014 132.1393 29.3258935 131.633465 29.6420309 131.255327 30.018679 131.952092 30.213795 132.591825 30.6534236 133.287349 29.9606381 134.235791 29.1381869 135.192912 28.1922445 136.395512 27.2388927 136.519491 27.4364785 136.715379 27.8748722 136.905067 28.3157357 137.156745 29.0072863 137.853509 28.5664228 138.803191 28.1922445 138.173376 26.8659493 137.599352 25.9101276 138.239085 24.9666551 138.490763 24.5270265 138.803191 24.2071844 139.253237 23.6378901 139.694603 23.1982615 140.323178 22.3190043 141.086891 21.7484751 140.01323 21.5620035 139.123058 21.3100815 138.93337 21.4953182 138.803191 21.8139254 138.360585 22.6277323 137.73077 23.582319 136.969537 24.7789485 136.209543 23.3291621"></polyline>
                    <polyline id="Fill-3" fill="#4A4A4A" points="143.754927 26.1632845 144.384743 25.3494777 144.956287 24.6480479 145.398894 23.9552624 145.848939 23.4514184 146.158887 22.8796543 146.544463 22.4412606 147.304457 21.8139254 146.290305 21.6175745 145.464603 21.3100815 145.276154 21.5620035 145.088945 21.9349468 144.58063 22.757398 144.195054 23.1982615 143.876427 23.7687907 143.060643 24.9666551 142.926745 24.7789485 142.861036 24.6480479 142.861036 24.5924768 142.740776 24.3393199 142.672587 24.0873979 142.486618 23.7033404 142.352721 23.3847332 142.166752 23.0117898 142.042772 22.6277323 141.028621 22.9463395 140.202918 23.1982615 141.086891 24.5924768 141.471227 25.3494777 141.912594 26.2954201 141.086891 26.9857358 140.391367 27.6229502 139.694603 28.1280291 139.188767 28.6343429 138.105188 29.3258935 137.156745 30.018679 137.533643 30.018679 137.984928 30.1483447 138.294876 30.3372862 138.679212 30.6534236 139.253237 30.0841293 139.817343 29.6420309 140.267388 29.2592082 140.708754 29.0072863 141.536936 28.3157357 142.420909 27.4908147 142.672587 28.0625788 142.926745 28.6997932 143.060643 29.2036372 143.115194 29.4567941 143.246612 29.7655221 145.210445 29.2592082 144.384743 27.4364785 144.006605 26.7338138 143.754927 26.1632845"></polyline>
                    <polyline id="Fill-4" fill="#4A4A4A" points="136.209543 40.2523924 136.011176 39.4274714 135.701228 38.8001363 135.251183 38.1653916 134.741627 37.7245281 134.047343 37.2861345 133.287349 37.0897835 132.393458 36.9020769 131.443776 36.9020769 130.053967 36.9675272 128.841449 37.2861345 127.770267 37.7899785 127.261952 38.0987064 126.877616 38.5469793 126.116383 39.3620211 125.676256 40.3153729 125.356389 41.3255307 125.288201 42.52463 125.356389 43.3470812 125.543598 44.1596532 125.676256 44.4782604 125.927934 44.861083 126.501959 45.4229678 126.756116 45.6193188 127.131774 45.8724757 127.957476 46.1812036 128.400083 46.246654 128.974107 46.3787895 130.175467 46.4343606 130.175467 46.3787895 131.123909 46.3787895 131.577674 46.246654 132.08351 46.1812036 132.459167 45.994732 132.901773 45.8724757 133.661767 45.5538685 134.301501 44.9845742 134.553179 44.665967 134.875525 44.4128101 135.061494 44.0386318 135.315652 43.7212595 135.701228 42.8975734 132.393458 42.52463 132.1393 42.8407674 132.017801 42.9630237 131.952092 42.9630237 131.952092 43.1494954 131.697934 43.4026523 131.509485 43.6558092 131.192098 43.7854749 130.93794 43.9744164 130.308125 44.1040821 129.734101 43.9744164 129.225785 43.7212595 128.974107 43.4026523 128.841449 43.1494954 128.719949 42.8407674 128.719949 42.52463 128.841449 41.3255307 129.415474 40.3153729 129.734101 39.810294 130.243656 39.4929217 130.749492 39.3064501 131.443776 39.2397648 132.017801 39.3064501 132.523636 39.4929217 132.647616 39.615178 132.845983 39.8658651 133.033192 40.4376292 136.209543 40.2523924"></polyline>
                    <polyline id="Fill-5" fill="#4A4A4A" points="141.725385 38.481529 142.042772 37.0897835 138.744921 37.0897835 136.715379 46.246654 140.267388 46.246654 141.151361 42.2714731 141.471227 41.0069235 142.042772 40.1844723 142.606878 39.615178 143.369352 39.4274714 143.622269 39.4274714 143.876427 39.615178 144.006605 39.810294 144.074794 40.1844723 144.006605 40.3734138 143.940896 40.5030795 143.940896 40.7562364 143.820636 41.2600804 143.754927 41.5786876 143.754927 42.0183162 142.861036 46.246654 146.414285 46.246654 147.428436 41.2600804 147.558614 40.4376292 147.682594 39.8658651 147.682594 39.5571371 147.748303 39.3620211 147.814012 39.0532932 147.748303 38.6050202 147.626803 38.2308419 147.428436 37.8480193 147.174278 37.5368216 146.798621 37.2206842 146.358494 37.0317427 145.848939 36.9020769 145.276154 36.9020769 144.195054 36.9675272 143.312321 37.2861345 142.420909 37.7245281 141.725385 38.481529"></polyline>
                    <path d="M123.325607,26.800499 L123.392556,26.2954201 L123.514056,25.6582057 L123.709943,24.7789485 L124.022371,23.7687907 L124.274049,22.6944175 L124.593916,21.8707314 L124.848074,21.1124956 L125.102231,20.5518457 L113.807711,20.5518457 L113.497763,21.7484751 L113.179136,23.0760052 L110.895436,31.0288368 L110.762778,31.2795238 L110.641278,31.4104245 L110.575569,31.4104245 L110.575569,31.5981311 L110.321411,31.851288 L110.067254,32.1698952 L110.641278,32.6737392 L111.147114,33.3010743 L112.67082,32.3551319 L113.365105,31.9821886 L114.128818,31.7290317 L115.328938,31.0918173 L116.542696,30.6534236 L116.03438,29.9606381 L115.714514,29.4567941 L114.95452,29.8297375 L114.568944,30.018679 L114.258996,30.269366 L113.430814,30.6534236 L112.67082,31.0918173 L113.87466,26.800499 L116.288538,26.800499 L116.598487,27.9971285 L117.048532,29.1381869 L117.612638,30.0841293 L118.43834,30.9065805 L119.200814,31.4783446 L120.160414,31.9821886 L121.230356,32.3551319 L122.444114,32.6737392 L122.754062,32.2909165 L123.204107,32.0377596 L123.768213,31.7290317 L124.472416,31.4783446 L123.138398,31.2795238 L121.990349,30.9707959 L120.920407,30.5225229 L119.962047,30.018679 L121.230356,29.3258935 L122.312696,28.88503 L123.204107,28.5009724 L124.218259,28.2502854 L123.204107,27.7452065 L122.630083,27.2388927 L122.375925,27.3055779 L122.188716,27.4364785 L121.80438,27.6785212 L120.976198,28.1922445 L120.094705,28.6343429 L119.136344,29.1381869 L118.694978,28.5664228 L118.375111,27.9971285 L118.120953,27.3697933 L118.062683,26.800499 L123.325607,26.800499 L123.325607,26.800499 Z M122.124247,24.2071844 L121.680401,25.7891063 L114.258996,25.7891063 L114.634653,24.2071844 L122.124247,24.2071844 L122.124247,24.2071844 Z M122.884241,21.6175745 L122.444114,23.1982615 L114.95452,23.1982615 L115.394647,21.6175745 L122.884241,21.6175745 L122.884241,21.6175745 Z" id="Fill-6" fill="#4A4A4A"></path>
                    <polyline id="Fill-7" fill="#4A4A4A" points="119.906256 18.1474725 119.388022 18.2796081 119.136344 18.3339442 118.946656 18.4648448 118.43834 18.5871011 118.186662 18.6525514 117.998214 18.7834521 118.120953 19.09218 118.316841 19.540453 118.694978 20.5518457 119.64218 20.2332384 120.600541 20.0455318 120.470362 19.7936099 120.412092 19.6639441 120.412092 19.5972589 120.281914 19.1563954 120.094705 18.6525514 119.906256 18.1474725"></polyline>
                    <polyline id="Fill-8" fill="#4A4A4A" points="108.987393 25.7891063 109.627127 25.1531268 110.452829 24.6480479 108.423287 23.7687907 106.580954 23.0760052 105.115518 24.1442039 106.195378 24.5270265 107.210769 24.9012048 108.987393 25.7891063"></polyline>
                    <polyline id="Fill-9" fill="#4A4A4A" points="110.762778 22.001632 111.524011 21.3100815 112.481132 20.8593387 110.706987 19.7936099 109.183281 18.9044734 107.464927 19.9800815 108.423287 20.4851604 109.30726 20.9914742 110.067254 21.4953182 110.762778 22.001632"></polyline>
                    <polyline id="Fill-10" fill="#4A4A4A" points="113.365105 39.4274714 113.619262 39.4274714 113.87466 39.615178 114.004838 39.810294 114.060629 40.1844723 114.004838 40.2523924 114.004838 40.5685298 113.939129 40.7562364 113.87466 40.8772578 113.87466 41.1304147 113.750681 41.6342587 113.684971 42.3356885 112.79108 46.246654 116.344329 46.246654 117.678347 40.2523924 117.811005 39.1088642 117.744056 38.6050202 117.612638 38.2308419 117.426669 37.8480193 117.172511 37.5368216 116.796854 37.2206842 116.344329 37.0317427 115.837253 36.9020769 115.273147 36.9020769 114.380496 36.9675272 113.554793 37.2206842 112.67082 37.6590778 112.163745 37.977685 111.721138 38.4173136 111.336802 37.7245281 110.828487 37.2861345 110.067254 36.9675272 109.240311 36.9020769 108.293109 36.9675272 107.464927 37.2861345 106.647903 37.7245281 105.885429 38.4173136 105.81972 38.4173136 106.139587 37.0897835 102.831818 37.0897835 100.867984 46.246654 104.421233 46.246654 105.379594 41.8318445 105.689542 40.6907861 106.262327 39.9992355 106.769402 39.5571371 107.02356 39.4274714 107.663294 39.4274714 107.916211 39.5571371 108.038951 39.7460786 108.10342 40.119022 108.038951 40.5685298 107.916211 40.7562364 107.849263 40.8772578 107.849263 41.1304147 107.719084 41.699709 107.663294 42.3937294 106.835111 46.246654 110.38712 46.246654 111.271093 42.1405725 111.59096 40.9427081 112.096796 40.119022 112.67082 39.5571371 113.365105 39.4274714"></polyline>
                    <polyline id="Fill-11" fill="#4A4A4A" points="123.259898 42.7098668 119.454971 42.7098668 118.694978 46.246654 122.498665 46.246654 123.259898 42.7098668"></polyline>
                    <polyline id="Fill-12" fill="#D32930" points="13.5852697 7.28642388 12.7583273 6.91348054 12.6926182 6.91348054 12.6926182 6.96905157 12.4384605 7.60626602 12.3727514 7.60626602 12.3727514 7.79150278 12.1843028 8.29781659 12.1843028 8.73744516 12.1185937 8.93379613 12.1185937 9.74760296 12.3157209 10.9541117 12.5698786 11.8975843 12.7583273 12.4693484 13.0781941 13.2275842 13.3881425 13.9845851 13.8952181 14.9305275 13.8381876 14.9947429 12.1185937 17.6423936 11.8656758 17.9610009 11.7441761 18.3339442 11.3573604 19.2230806 10.9817029 20.4851604 10.9159939 22.1881037 11.1044425 23.1328112 11.1044425 23.2649467 11.2358606 23.4514184 11.3573604 23.7687907 11.4243093 23.8898121 11.8656758 24.6480479 12.062803 24.9012048 12.4384605 25.4062837 12.6926182 25.6582057 13.1339848 26.1064786 13.5852697 26.4818918 14.9106091 27.4908147 16.4417543 28.5664228 16.497545 28.6343429 17.5786451 29.2592082 18.781245 29.8297375 19.9937632 30.3372862 21.2620721 30.7756798 21.3178628 30.8411302 23.0374567 31.1597374 23.0944872 31.0918173 23.2916144 31.2795238 23.6015628 31.4783446 23.6015628 31.4104245 23.6672719 31.2795238 23.6672719 31.2239528 24.5599233 26.6127924 23.9858988 26.2954201 23.9858988 26.2287349 22.3989629 26.0422632 22.0220656 25.9768129 21.7691477 25.9101276 21.5720205 25.9101276 21.1963631 25.8545566 20.115263 25.5359494 19.2325299 25.219812 19.1668208 25.1531268 18.3398784 24.7134982 17.8972721 24.4603413 16.8174118 23.7033404 16.497545 23.4514184 15.5491029 22.5721612 14.7878695 21.6175745 14.7221605 21.5620035 14.66513 21.4953182 14.66513 21.3100815 14.7878695 20.5518457 14.9106091 20.1677881 15.1734454 19.8491809 15.5491029 19.288531 15.7363117 18.9711586 16.2433873 18.7180017 19.1011117 17.5757084 19.6081874 17.3904716 20.5008388 17.0718644 22.5874116 16.3136286 23.5457721 15.874 24.1743475 15.5553928 24.4942142 15.3034708 24.8128412 14.9947429 25.0012899 14.9305275 25.1240294 14.9305275 25.1240294 14.8638422 25.7625232 14.4242137 26.5237565 14.237742 27.2849898 14.1710568 28.1119322 14.293313 28.4875897 14.293313 28.8731655 14.4242137 29.7001079 14.293313 29.8216077 14.293313 36.549968 14.9947429 37.1797832 15.1169991 38.3253525 15.4343715 39.1436163 15.6875284 40.0362678 16.0617066 40.731792 16.3136286 41.1731586 16.5099796 41.7459433 16.8853927 41.8116523 16.8853927 42.06581 17.0718644 43.1469101 17.8288653 43.9069037 18.4648448 44.1610614 18.7180017 44.4152191 19.0353741 45.1764524 19.9800815 45.2421615 20.0455318 45.2979522 20.3554947 45.2979522 20.7383173 45.2421615 21.1124956 45.0437945 21.6175745 44.733846 22.001632 44.3482702 22.4412606 44.0953523 22.5721612 43.9639342 22.6277323 43.9069037 22.757398 43.4568586 23.1328112 43.399828 23.1328112 42.9497829 23.3291621 42.4414675 23.6378901 42.1885496 23.7687907 41.1731586 24.0219476 40.7975011 24.0873979 40.0362678 24.2071844 39.1436163 24.5924768 38.8894586 24.6480479 38.70101 24.7789485 38.3253525 25.0321054 37.1797832 25.3494777 36.0986831 25.7248909 35.5916075 25.8545566 34.1348499 25.9768129 32.9979591 25.9768129 32.9979591 26.0422632 32.866541 26.1632845 32.6123832 26.3596355 32.2937563 26.4818918 32.0395986 26.6127924 31.916859 26.6127924 31.916859 26.9857358 31.1568655 27.2388927 29.7558986 31.1597374 30.4613412 30.9707959 30.5171319 30.9707959 44.668137 26.7338138 45.6178189 26.2287349 46.5662611 25.6582057 46.6319702 25.6582057 46.8204188 25.6026346 47.1390458 25.3494777 47.2059946 25.3494777 48.2201459 24.5924768 49.2342971 23.7033404 50.0624793 22.8796543 50.5695549 22.0658474 50.9452124 21.2433962 51.0109214 21.1124956 51.0109214 20.9914742 51.0766305 20.9260239 51.1993701 20.420945 50.8224728 19.4107872 50.2496881 18.3993945 48.3428854 15.9394504 48.4085945 15.5010567 48.5958034 14.9947429 48.9156701 14.293313 49.4884548 13.7882341 49.4239855 13.7882341 49.6099546 13.7314282 49.6769034 13.7314282 49.6769034 13.6672128 49.7426125 13.6672128 50.11827 13.3486056 50.6253456 13.2843901 50.7567637 13.2275842 50.8795033 13.2275842 52.0920215 12.0210754 52.5333881 11.6456623 53.5475393 10.7577607 53.9231968 10.2526819 54.3744817 9.62658161 54.6286394 9.05605239 54.6286394 8.98936715 54.2430636 8.55097349 54.1215638 8.55097349 53.6702789 8.36326691 53.2946214 8.36326691 52.4007302 8.48428826 52.2135213 8.55097349 51.6407366 8.68063922 50.3153972 9.12150271 49.1698278 9.69079702 48.5958034 9.94395392 48.032937 10.5058388 47.7130703 10.7577607 47.017546 11.3937403 46.7646281 11.5814469 46.4447613 11.8975843 45.4950794 12.7225053 45.1107433 12.9102119 44.733846 13.0954486 44.4152191 13.0954486 44.1610614 13.0312332 44.0296432 12.9102119 43.5882767 12.1507412 43.334119 11.3937403 43.334119 10.6367394 43.4568586 9.49444605 43.8411946 8.48428826 43.9069037 8.36326691 44.2838009 7.47413047 44.5367188 6.84803022 44.9222947 6.21081577 45.2979522 5.58471552 45.5521099 5.14508695 46.002155 4.50910741 46.002155 4.44365709 46.0591855 4.19050018 46.0591855 3.93857819 46.002155 3.6866562 45.8707368 3.56439994 45.3636612 3.24702762 44.9222947 3.12477136 44.4152191 3.18034239 44.0296432 3.37669335 43.9639342 3.37669335 43.8411946 3.43349929 43.7097765 3.56439994 43.0799613 4.06947883 42.1885496 4.82647972 41.1731586 5.70573687 40.9190009 6.02557901 40.1019769 7.03450189 39.9048497 7.28642388 39.2750345 8.29781659 39.2750345 8.36326691 39.2750345 8.29781659 38.8336679 8.93379613 38.5795102 9.69079702 38.4480921 9.74760296 38.382383 10.0007599 38.3253525 10.1304256 38.0724346 10.2526819 37.6211497 10.3181322 37.2454922 10.4490328 37.1797832 10.4490328 36.8599164 10.3835825 36.1643921 10.1971108 36.0986831 10.1971108 35.5916075 9.8785036 35.0845318 9.3734247 34.9617923 8.68063922 34.9617923 8.11011 35.1490011 6.21081577 35.3374498 5.58471552 35.4701077 5.0141863 35.9114742 3.12477136 35.9114742 2.04916325 35.6573165 1.22671204 35.6573165 1.1600268 35.4031588 0.841419578 35.0845318 0.533926558 34.9617923 0.533926558 34.266268 0.468476236 34.200559 0.468476236 34.0691408 0.533926558 34.1348499 0.533926558 34.0121103 0.533926558 33.947641 0.599376879 33.6277743 0.72163314 33.6934833 0.72163314 33.5050347 0.78584855 33.4393256 0.78584855 33.1864077 0.908104811 33.0537498 1.1600268 33.0537498 1.29216236 32.866541 1.47863403 32.866541 1.73055602 31.916859 4.13492915 31.0911564 6.59610823 30.7142591 7.67171634 30.4613412 8.23236627 29.8216077 9.30797438 29.3145321 9.94395392 28.9289562 10.3835825 28.4875897 10.8886614 28.4875897 10.9541117 28.299141 10.8886614 27.6606473 10.7577607 27.1535717 10.5700542 27.0320719 10.5700542 26.4580474 10.1304256 26.2038897 9.8785036 26.0823899 9.69079702 25.6968141 9.30797438 25.631105 9.12150271 25.631105 8.68063922 25.4426564 6.91348054 25.0669989 5.2661083 24.8698717 4.7610294 24.8128412 4.44365709 24.5599233 3.75210652 24.5599233 3.6866562 24.0528477 3.24702762 23.8557205 3.05932104 23.7329809 2.99510563 23.4143539 2.87161446 23.0944872 2.74194873 22.8403295 2.80616414 22.6518808 2.87161446 22.5874116 2.87161446 22.5874116 2.9284204 22.3332539 3.43349929 22.2762234 3.62985026 22.2105143 3.75210652 21.51499 5.33279353 21.130654 7.16540253 21.0649449 7.35310912 21.0079144 7.53958079 20.8764963 8.42748232 20.8107872 9.74760296 20.6892874 10.3181322 20.3694207 10.9541117 20.3694207 12.4038981 18.4712966 13.5363121 18.4055875 13.4795062 15.9334389 9.30797438 15.680521 8.98936715 14.9750784 8.36326691 13.5852697 7.28642388"></polyline>
                    <path d="M34.3232985,18.2129228 L34.3232985,18.1474725 L33.8149831,17.5757084 L33.3736166,17.1373147 L32.4908835,16.3790789 L31.9825681,16.0617066 L31.532523,15.874 L30.6497899,15.6875284 L29.6343988,15.6208431 L29.1260834,15.6875284 L28.6847169,15.874 L27.6606473,16.3790789 L27.1535717,16.6976862 L26.7122051,17.1373147 L26.1381807,17.7720594 L25.3781871,18.6525514 L25.1240294,18.840258 L24.9355808,19.09218 L24.5599233,19.5972589 L24.5599233,19.6639441 L24.3627961,20.2332384 L24.3057656,20.8593387 L24.2412963,21.3656525 L24.3057656,21.9349468 L24.4942142,22.8240832 L24.9355808,23.6378901 L25.1240294,23.8898121 L25.4426564,24.1442039 L25.7625232,24.3393199 L26.2038897,24.5924768 L26.5894656,24.6480479 L27.0965412,24.7789485 L28.299141,24.9012048 L31.4097834,24.8443988 L31.4754924,24.8443988 L32.2937563,24.0873979 L32.6780923,23.7033404 L33.0537498,23.3847332 L33.3091473,22.9463395 L33.6277743,22.5721612 L34.1348499,21.8139254 L34.3232985,20.9260239 L34.5204257,20.0455318 L34.4547167,19.540453 L34.4547167,19.09218 L34.3232985,18.2129228 L34.3232985,18.2129228 Z M29.6343988,19.4107872 L30.1414744,19.344102 L30.5171319,19.540453 L30.582841,19.540453 L30.6497899,19.6639441 L30.7142591,19.9800815 L30.7142591,20.0455318 L30.7712896,20.1677881 L30.7712896,20.4851604 L30.582841,20.8593387 L30.3956322,21.3656525 L29.8216077,21.7484751 L29.3802411,22.001632 L28.9289562,22.001632 L28.6847169,21.8707314 L28.4218806,21.6175745 L28.1119322,21.3100815 L28.1119322,21.1124956 L27.914805,20.3554947 L28.1119322,19.7936099 L28.3660899,19.540453 L28.7405076,19.4107872 L29.1260834,19.344102 L29.6343988,19.4107872 L29.6343988,19.4107872 Z" id="Fill-13" fill="#4A4A4A"></path>
                    <polyline id="Fill-14" fill="#4A4A4A" points="24.615714 26.4250858 24.5599233 26.6127924 23.6672719 31.2239528 23.6672719 31.2795238 23.6015628 31.4104245 23.6015628 31.4783446 23.5457721 31.5981311 19.7396055 51.5493649 19.8611053 51.9889935 20.115263 52.3076007 20.3694207 52.4953073 20.7549965 52.624973 21.3178628 52.3718161 21.6377296 52.1865794 22.0220656 51.9334225 22.5303811 51.4295785 22.5303811 51.3641282 31.1568655 27.2388927 31.3440743 26.7338138 31.3440743 26.5473421 24.615714 26.0422632 24.615714 26.4250858"></polyline>
                    <polyline id="Fill-15" fill="#4A4A4A" points="3.55905819 36.2747418 3.49334912 37.0317427 3.62476725 37.7899785 3.87892496 38.4173136 4.32029151 39.0532932 4.95878525 39.5571371 5.4001518 39.7460786 5.97417627 39.9992355 7.24248521 40.3734138 7.93800946 40.5030795 8.82198235 40.6907861 9.4604761 40.8216868 10.0332608 40.9427081 10.4746273 41.0748437 10.8502848 41.195865 11.1044425 41.5144722 11.1701516 41.7676291 11.1701516 42.1405725 11.047412 42.4567099 10.8502848 42.8407674 10.5973669 43.0939243 10.3432092 43.3470812 9.83613358 43.4681026 9.58197588 43.5347878 9.39352724 43.6558092 8.51079414 43.7854749 7.93800946 43.7212595 7.49664291 43.6558092 7.11106708 43.4681026 6.85690937 43.2816309 6.5370426 42.9630237 6.41554282 42.7098668 6.28412469 42.3356885 6.28412469 41.9528659 0.326916068 42.4567099 0.261207003 42.9630237 0.326916068 43.5347878 0.645543043 44.5437107 0.833991683 44.9191239 1.15261866 45.3007116 1.46256708 45.6193188 1.91509177 45.994732 2.29074925 46.1812036 2.79782487 46.4343606 3.30490048 46.5640263 3.94339423 46.7529678 4.57320942 46.8171832 5.33568253 46.9382045 6.16138512 47.0036549 7.11106708 47.1357904 8.19092737 47.0036549 8.69924278 46.9382045 9.27202746 46.9382045 9.71339401 46.8171832 10.2204696 46.7529678 11.1701516 46.6294766 11.5557274 46.4343606 11.997094 46.3108694 12.8240363 46.0601823 13.5195606 45.6761248 13.6410604 45.5538685 13.6410604 45.4884182 13.8381876 45.4884182 14.2150849 45.3673968 15.2292361 44.4782604 15.680521 43.9744164 16.0574183 43.5347878 16.3103362 42.9630237 16.5632541 42.4567099 16.9488299 41.3255307 16.9488299 40.3734138 16.8831209 39.6806283 16.5632541 38.9890777 16.1875966 38.5469793 15.8677298 38.2308419 15.4833938 37.977685 14.5994209 37.5948624 13.331112 37.2206842 12.6256694 37.0897835 11.8656758 36.9675272 10.8502848 36.7143703 10.1547606 36.5834697 9.58197588 36.3957631 9.32781817 36.2747418 9.07490026 36.0215849 8.95216069 35.8264688 8.88645162 35.5733119 8.95216069 35.3868402 9.14060933 34.816311 9.64768494 34.4421328 10.3432092 34.1235255 11.3573604 34.0580752 12.1185937 34.1235255 12.3727514 34.1889759 12.6926182 34.3766824 13.0781941 34.816311 13.1339848 35.0694679 13.2654029 35.4522906 18.9126631 34.816311 18.7242145 33.7493473 18.5270873 33.2455033 18.4055875 32.8626807 17.8972721 32.1698952 17.5786451 31.851288 17.2587783 31.6635814 16.3103362 31.2239528 15.2949451 30.9707959 14.0266362 30.7756798 11.2358606 30.7756798 10.0332608 30.9707959 8.82198235 31.1597374 7.8723004 31.5326807 6.85690937 31.851288 6.02996699 32.3551319 5.33568253 32.9268961 4.76165806 33.6196816 4.19879173 34.2531913 3.87892496 34.8805264 3.55905819 36.2747418"></polyline>
                    <polyline id="Fill-16" fill="#4A4A4A" points="99.6009153 24.4603413 100.548118 24.3961259 101.761876 24.5270265 102.137533 23.3291621 101.057673 23.3291621 100.107991 23.3847332 95.2864333 23.3847332 96.2361152 20.2332384 97.4486335 20.1023378 98.6499935 20.0455318 99.6653846 19.9158661 100.613827 19.9158661 101.37506 19.8491809 103.085975 19.8491809 102.5789 19.2230806 102.324742 18.840258 102.137533 18.4648448 100.362149 18.7180017 98.5198152 18.9711586 96.6204513 19.1563954 95.6063001 19.2230806 94.6578579 19.344102 94.4024604 20.0455318 94.206573 20.9914742 93.9524153 22.001632 93.6994974 23.1982615 93.3226001 24.2738696 93.0039731 25.219812 92.7485756 26.0422632 92.5626066 26.800499 91.922873 27.9971285 91.5484553 28.6997932 91.1046092 29.5123652 90.5318245 30.269366 89.8375401 31.0288368 89.0105977 31.7858376 88.1179462 32.6082889 88.9448886 32.7947605 89.7705912 33.1133677 90.5318245 32.3551319 90.8529311 31.9821886 91.2285886 31.6635814 91.8670823 30.9065805 92.4299486 30.269366 92.8167643 29.5123652 93.0039731 29.1381869 93.2581308 28.8195797 93.9524153 27.4364785 94.4607307 25.9101276 94.9665665 24.4603413 97.89 24.4603413 96.1146155 30.9065805 95.7947487 31.9167383 95.4190912 33.1133677 97.3159755 33.1133677 97.5044242 31.9167383 97.8242909 30.9065805 99.6009153 24.4603413"></polyline>
                    <polyline id="Fill-17" fill="#4A4A4A" points="88.9448886 18.3339442 87.0368461 18.5871011 87.1025552 19.344102 87.1025552 20.1023378 85.4585888 20.1023378 82.5351553 20.0455318 82.2165283 21.2433962 92.6283156 21.2433962 92.9382641 20.0455318 89.0676282 20.0455318 89.0676282 20.1023378 89.0105977 19.9800815 89.0105977 19.4107872 88.9448886 18.9044734 88.9448886 18.3339442"></polyline>
                    <polyline id="Fill-18" fill="#4A4A4A" points="83.9931527 23.7033404 84.6973555 23.4514184 85.5813284 23.3291621 85.2614616 22.4412606 84.8845643 21.6175745 84.0588617 21.7484751 83.3633375 22.0658474 83.6819645 22.757398 83.9931527 23.7033404"></polyline>
                    <polyline id="Fill-19" fill="#4A4A4A" points="85.6470374 24.9012048 85.138722 26.5473421 84.3774887 26.4818918 80.5725619 26.4818918 80.1869861 27.6785212 84.8200951 27.6785212 83.8704131 31.0288368 83.738995 31.0918173 83.6819645 31.2239528 83.5505463 31.4104245 83.3633375 31.5326807 83.1748888 31.6635814 81.3995043 31.6635814 81.7094527 32.2328757 81.9065799 32.9923464 82.5351553 32.9268961 83.1748888 32.8626807 83.6819645 32.7391895 83.9361222 32.6737392 84.2460706 32.6737392 84.6316464 32.4205823 84.9515132 32.1698952 85.2044311 31.7858376 85.3928797 31.4104245 86.5310103 27.6785212 90.9744309 27.6785212 91.3587669 26.4818918 88.1179462 26.4818918 86.8496373 26.5473421 87.2910039 24.9012048 90.9744309 24.9012048 91.922873 24.9666551 92.3084489 23.7687907 90.5987734 23.7687907 89.0105977 23.8354759 89.5747038 23.0117898 90.1474885 22.4412606 90.3446157 22.1881037 90.5987734 22.0658474 90.9744309 21.8707314 89.8945706 21.6830248 89.1320975 21.5620035 88.8134705 21.9349468 88.4365732 22.505476 87.9307374 23.0760052 87.4211822 23.8354759 83.9931527 23.8354759 83.738995 23.7687907 80.8911889 23.7687907 80.5725619 24.9666551 81.455295 24.9012048 85.6470374 24.9012048"></polyline>
                    <polyline id="Fill-20" fill="#4A4A4A" points="86.8496373 28.88503 87.5439218 29.8951878 88.1179462 31.0288368 88.75644 30.5879733 89.7705912 30.269366 89.0676282 29.1381869 88.3051551 28.1922445 87.488131 28.5009724 86.8496373 28.88503"></polyline>
                    <polyline id="Fill-21" fill="#4A4A4A" points="88.3051551 40.2523924 88.1179462 39.4274714 87.7968397 38.8001363 87.3567129 38.1653916 86.8496373 37.7245281 86.154113 37.2861345 85.3928797 37.0897835 84.4989885 36.9020769 83.5505463 36.9020769 82.1594978 36.9675272 80.9482194 37.2861345 79.8770377 37.7899785 79.369962 38.0987064 78.985626 38.5469793 78.2231529 39.3620211 77.7817863 40.3153729 77.4619196 41.3255307 77.3974503 42.52463 77.4619196 43.3470812 77.6491284 44.1596532 77.7817863 44.4782604 78.035944 44.861083 78.6087287 45.4229678 78.8616466 45.6193188 79.2373041 45.8724757 80.0654863 46.1812036 80.505613 46.246654 81.0796375 46.3787895 82.2834772 46.4343606 82.2834772 46.3787895 83.2331591 46.3787895 83.6819645 46.246654 84.1890401 46.1812036 84.5659373 45.994732 85.0073039 45.8724757 85.769777 45.5538685 86.407031 44.9845742 86.6611887 44.665967 86.9810554 44.4128101 87.1682643 44.0386318 87.4211822 43.7212595 87.7968397 42.8975734 84.4989885 42.52463 84.2460706 42.8407674 84.123331 42.9630237 84.0588617 42.9630237 84.0588617 43.1494954 83.804704 43.4026523 83.6174952 43.6558092 83.2963886 43.7854749 83.0434707 43.9744164 82.4136555 44.1040821 81.8408708 43.9744164 81.3337952 43.7212595 81.0796375 43.4026523 80.9482194 43.1494954 80.8254798 42.8407674 80.8254798 42.52463 80.9482194 41.3255307 81.5222439 40.3153729 81.8408708 39.810294 82.3491862 39.4929217 82.8550221 39.3064501 83.5505463 39.2397648 84.123331 39.3064501 84.6316464 39.4929217 84.7531462 39.615178 84.9515132 39.8658651 85.138722 40.4376292 88.3051551 40.2523924"></polyline>
                    <path d="M90.0247489,39.615178 L89.5189131,40.9427081 L89.3862552,42.3356885 L89.4519642,43.1494954 L89.6404129,43.9089661 L89.9590398,44.6103959 L90.5318245,45.3007116 L90.7859822,45.4884182 L91.1628795,45.7415751 L91.9885821,46.1256326 L92.9382641,46.3108694 L93.4453397,46.3787895 L94.0850732,46.4343606 L94.9665665,46.3787895 L95.7947487,46.246654 L96.555982,45.994732 L97.3159755,45.6761248 L97.5701332,45.4229678 L97.7027912,45.3007116 L97.7027912,45.2352613 L97.89,45.2352613 L98.3983154,44.7314173 L98.3983154,44.5437107 L98.4640245,44.5437107 L98.5842845,44.4128101 L98.8384422,44.1596532 L98.8384422,43.9744164 L98.9041512,43.9744164 L99.0268908,43.8509252 L99.2798087,43.6002381 L99.5339664,42.8975734 L99.7323334,42.2714731 L99.8538332,41.6342587 L99.9195423,41.0069235 L99.7881241,40.1844723 L99.6009153,39.4274714 L99.224018,38.7359208 L98.7739729,38.0987064 L98.0772089,37.5368216 L97.6358423,37.2861345 L97.2502665,37.152764 L96.2361152,36.9675272 L95.1661733,36.9020769 L93.4453397,37.0317427 L92.6841064,37.2206842 L92.055531,37.5948624 L91.3587669,37.977685 L90.3446157,38.9890777 L90.0247489,39.615178 L90.0247489,39.615178 Z M92.8167643,42.3356885 L92.9382641,41.2600804 L93.389549,40.2523924 L93.6424669,39.810294 L94.0181244,39.4929217 L94.4607307,39.3064501 L95.0335154,39.2397648 L95.540591,39.3064501 L96.0489064,39.615178 L96.1803245,39.7460786 L96.3662936,40.0646859 L96.4332424,40.3734138 L96.4902729,40.8772578 L96.4332424,41.3835716 L96.3030641,42.0183162 L96.1146155,42.52463 L95.8604578,43.0939243 L95.4761217,43.5347878 L95.2864333,43.6558092 L95.1661733,43.8509252 L94.9120156,43.9089661 L94.7136486,44.0386318 L94.3379911,44.1040821 L93.6994974,43.9744164 L93.2581308,43.6002381 L93.0039731,43.2816309 L92.8824733,43.028474 L92.8167643,42.3356885 L92.8167643,42.3356885 Z" id="Fill-22" fill="#4A4A4A"></path>
                    <polyline id="Fill-23" fill="#4A4A4A" points="105.501093 29.8951878 104.73986 30.5879733 104.101366 31.2239528 103.471551 31.7290317 102.897527 32.1698952 103.978627 32.4860326 105.115518 32.9923464 105.379594 32.3551319 105.81972 31.7858376 106.262327 31.1597374 106.835111 30.5225229 107.973242 29.1381869 109.183281 28.0625788 108.357578 27.5574999 107.663294 27.1178713 107.210769 27.6785212 106.703693 28.381186 106.139587 29.0727366 105.501093 29.8951878"></polyline>
                    <path d="M68.5825172,31.2239528 L67.6328353,30.9707959 L66.6757146,30.8411302 L65.4718749,30.7201088 L64.203566,30.7756798 L63.1224659,30.7201088 L62.1740237,30.7756798 L61.2912906,30.8411302 L60.5300573,31.0288368 L59.7589056,31.1597374 L59.1290904,31.4104245 L57.9835211,31.9821886 L56.9123393,32.6082889 L56.0196879,33.431975 L55.2584546,34.3766824 L54.6844301,35.4522906 L60.1444815,36.0215849 L60.7829752,35.0694679 L61.601239,34.6298394 L62.3054418,34.3766824 L63.3208329,34.3112321 L64.1378569,34.3766824 L64.4577237,34.4421328 L64.7763507,34.6298394 L64.9647993,34.76074 L65.0962174,35.0114271 L65.1532479,35.264584 L65.1532479,35.5733119 L64.9647993,36.0215849 L64.8432995,36.2747418 L64.7106416,36.64892 L64.1378569,36.7810556 L63.3766236,36.9020769 L62.3624724,37.0317427 L61.1586327,37.152764 L59.7031149,37.2861345 L58.4905967,37.4738411 L57.3537059,37.5948624 L56.4052637,37.8480193 L54.6844301,38.4173136 L53.8674061,38.8001363 L53.1632033,39.3620211 L52.467679,39.9313154 L52.0263125,40.6241009 L51.5849459,41.4490219 L51.3307882,42.52463 L51.1993701,42.8975734 L51.1993701,43.3470812 L51.2650791,44.1596532 L51.452288,44.9191239 L51.8948943,45.7415751 L52.0920215,45.994732 L52.4007302,46.246654 L52.7875458,46.4343606 L53.2946214,46.6875175 L53.801697,46.8171832 L54.4315122,46.9382045 L55.0700059,47.0036549 L55.8312393,47.1357904 L56.4610544,47.0678703 L57.2222878,46.9382045 L58.6220148,46.5640263 L60.0217419,45.8070254 L61.5442085,44.9191239 L61.3470813,45.8070254 L61.3470813,46.7529678 L67.1815504,46.7529678 L67.0600506,45.6193188 L67.2484992,44.5437107 L67.3799174,43.9089661 L67.6898658,43.1494954 L68.0097326,42.1405725 L68.5825172,41.0748437 L69.0238838,40.119022 L69.3425108,39.2397648 L69.6623775,38.481529 L69.9165352,37.7899785 L70.2264837,37.2206842 L70.4248506,36.5834697 L70.6120595,36.0796257 L70.9319263,35.264584 L71.053426,34.1889759 L70.987717,33.6851319 L70.987717,33.3010743 L70.7992683,32.8626807 L70.6777686,32.5416036 L70.1706929,31.9821886 L69.4652503,31.5326807 L68.5825172,31.2239528 L68.5825172,31.2239528 Z M58.236439,40.9427081 L58.8092237,40.5685298 L59.8903238,40.3153729 L60.585848,40.119022 L61.4127904,39.9992355 L63.3766236,39.7460786 L62.869548,40.6907861 L62.3624724,41.5786876 L61.7326572,42.2714731 L61.5442085,42.3937294 L61.4127904,42.5888454 L61.1586327,42.8975734 L60.4631084,43.3470812 L59.8246147,43.6558092 L59.1947995,43.8509252 L58.6877239,43.9089661 L58.236439,43.7854749 L57.9264906,43.7212595 L57.4764455,43.4026523 L57.2879968,43.0939243 L57.2222878,42.8407674 L57.1652573,42.52463 L57.2879968,42.2060228 L57.5409147,41.5144722 L58.236439,40.9427081 L58.236439,40.9427081 Z" id="Fill-24" fill="#4A4A4A"></path>
                    <polyline id="Fill-25" fill="#4A4A4A" points="78.4773106 30.9707959 79.0513351 31.2795238 79.6241197 31.7858376 80.3841133 31.1597374 81.0796375 30.6534236 81.6524222 30.213795 82.2165283 29.8951878 82.6021042 29.5123652 83.0434707 29.2592082 83.8704131 28.8195797 83.0434707 28.5009724 82.3491862 28.0625788 80.5725619 29.4567941 79.5571709 30.213795 78.4773106 30.9707959"></polyline>
                    <polyline id="Fill-26" fill="#4A4A4A" points="75.3666683 42.7098668 71.5617415 42.7098668 70.7992683 46.246654 74.6054349 46.246654 75.3666683 42.7098668"></polyline>
                    <polyline id="Fill-27" fill="#4A4A4A" points="39.7821101 33.4961904 40.6090525 31.1597374 34.9617923 31.1597374 29.7558986 46.7529678 35.7899744 46.7529678 38.1282253 39.9313154 38.4480921 38.8001363 38.8894586 37.8480193 39.3965343 37.0317427 39.9705587 36.3957631 40.4776343 35.8264688 41.1161281 35.4522906 41.7459433 35.1991337 42.4414675 35.1336833 42.8927524 35.1991337 43.0799613 35.264584 43.2684099 35.4522906 43.334119 35.5733119 43.399828 35.8264688 43.4568586 36.3957631 43.334119 36.7143703 43.2027009 36.9675272 43.1469101 37.3404706 42.9497829 37.7245281 42.8270434 38.2308419 42.6398345 38.8001363 42.5071766 39.4929217 40.1590074 46.7529678 46.0591855 46.7529678 48.9156701 38.2308419 49.301246 36.9020769 49.4239855 36.3303128 49.6099546 35.8919191 49.8083216 35.0694679 49.9298214 34.5619192 49.8083216 33.0479174 49.5541639 32.4205823 49.2342971 31.9167383 48.6615124 31.3449742 47.9659882 31.0288368 47.1390458 30.8411302 46.1906036 30.7756798 44.4152191 30.9065805 42.8270434 31.4783446 41.2388677 32.2909165 39.8478192 33.5517614 39.7821101 33.4961904"></polyline>
                </g>
            </g>
        </g>
    </g>
</svg>