<?xml version="1.0" encoding="UTF-8"?>
<svg width="170px" height="100px" viewBox="0 0 170 100" version="1.1" xmlns="http://www.w3.org/2000/svg" xmlns:xlink="http://www.w3.org/1999/xlink">
    <!-- Generator: Sketch 44 (41411) - http://www.bohemiancoding.com/sketch -->
    <title>enterprise-03</title>
    <desc>Created with Sketch.</desc>
    <defs></defs>
    <g id="_____Page" stroke="none" stroke-width="1" fill="none" fill-rule="evenodd">
        <g id="about" transform="translate(-785.000000, -2082.000000)">
            <g id="section-3" transform="translate(0.000000, 1721.000000)">
                <rect id="background" fill="#FFFFFF" x="0" y="0" width="1440" height="860"></rect>
                <g id="enterprise-03" transform="translate(735.000000, 331.000000)">
                    <g transform="translate(50.000000, 30.000000)">
                        <rect id="Rectangle-3-Copy-6" x="0" y="0" width="170" height="100"></rect>
                        <g id="sina" transform="translate(10.000000, 23.000000)" fill="#C6CBD9">
                            <polyline id="Fill-1" points="149.908023 21.687182 150.28616 20.2848725 150.416339 19.7110311 150.604787 19.3346805 132.271958 19.3346805 131.952092 20.5394991 131.697934 21.687182 129.039816 31.0860091 128.841449 31.4611176 128.719949 31.9703708 128.531501 32.4783819 128.334374 33.183884 130.243656 33.183884 133.858894 20.4736688 148.442587 20.4736688 145.464603 31.0860091 145.276154 31.2089751 145.144736 31.4052239 144.890578 31.5269479 144.70213 31.6610926 143.820636 31.6610926 143.820636 31.7157442 142.486618 31.7157442 142.805245 32.4200041 142.992454 33.183884 144.514921 32.9292574 145.144736 32.7975968 145.718761 32.7975968 145.90473 32.6746307 146.158887 32.6088005 146.544463 32.356658 146.86433 31.9703708 147.118488 31.5927782 149.908023 21.687182"></polyline>
                            <polyline id="Fill-2" points="136.209543 23.4645999 135.757018 22.7032043 135.571049 21.9977022 134.489949 22.2510868 133.661767 22.6361319 134.047343 23.1453851 134.553179 23.9067808 135.127203 24.9228031 135.825207 26.193452 135.061494 26.823187 134.423 27.4641008 133.22164 28.6105416 132.1393 29.4961454 131.633465 29.8141181 131.255327 30.1929529 131.952092 30.3892017 132.591825 30.8313825 133.287349 30.1345751 134.235791 29.3073491 135.192912 28.355915 136.395512 27.3970285 136.519491 27.5957614 136.715379 28.0367002 136.905067 28.4801231 137.156745 29.1756885 137.853509 28.7322656 138.803191 28.355915 138.173376 27.02192 137.599352 26.0605493 138.239085 25.1115994 138.490763 24.6694185 138.803191 24.3477195 139.253237 23.7751202 139.694603 23.3329394 140.323178 22.4485777 141.086891 21.8747362 140.01323 21.687182 139.123058 21.4337975 138.93337 21.6201096 138.803191 21.9405665 138.360585 22.7590979 137.73077 23.7192265 136.969537 24.9228031 136.209543 23.4645999"></polyline>
                            <polyline id="Fill-3" points="143.754927 26.3151759 144.384743 25.4966445 144.956287 24.7911425 145.398894 24.094335 145.848939 23.587566 146.158887 23.0124824 146.544463 22.5715437 147.304457 21.9405665 146.290305 21.7430756 145.464603 21.4337975 145.276154 21.687182 145.088945 22.0622905 144.58063 22.8895164 144.195054 23.3329394 143.876427 23.9067808 143.060643 25.1115994 142.926745 24.9228031 142.861036 24.7911425 142.861036 24.7352488 142.740776 24.4806222 142.672587 24.2272377 142.486618 23.8409505 142.352721 23.5204936 142.166752 23.1453851 142.042772 22.7590979 141.028621 23.0795548 140.202918 23.3329394 141.086891 24.7352488 141.471227 25.4966445 141.912594 26.4480786 141.086891 27.1424019 140.391367 27.7833157 139.694603 28.2913268 139.188767 28.80058 138.105188 29.4961454 137.156745 30.1929529 137.533643 30.1929529 137.984928 30.3233714 138.294876 30.5134098 138.679212 30.8313825 139.253237 30.2587832 139.817343 29.8141181 140.267388 29.429073 140.708754 29.1756885 141.536936 28.4801231 142.420909 27.650413 142.672587 28.2254965 142.926745 28.8664103 143.060643 29.3731794 143.115194 29.627806 143.246612 29.9383262 145.210445 29.429073 144.384743 27.5957614 144.006605 26.8890173 143.754927 26.3151759"></polyline>
                            <polyline id="Fill-4" points="136.209543 40.4860783 136.011176 39.6563682 135.701228 39.025391 135.251183 38.3869614 134.741627 37.9435385 134.047343 37.5025997 133.287349 37.3051088 132.393458 37.1163125 131.443776 37.1163125 130.053967 37.1821428 128.841449 37.5025997 127.770267 38.0093688 127.261952 38.319889 126.877616 38.7707644 126.116383 39.5905379 125.676256 40.5494245 125.356389 41.5654467 125.288201 42.7715074 125.356389 43.5987334 125.543598 44.4160227 125.676256 44.7364796 125.927934 45.1215247 126.501959 45.6866716 126.756116 45.8841625 127.131774 46.1387891 127.957476 46.4493093 128.400083 46.5151396 128.974107 46.6480423 130.175467 46.7039359 130.175467 46.6480423 131.123909 46.6480423 131.577674 46.5151396 132.08351 46.4493093 132.459167 46.2617551 132.901773 46.1387891 133.661767 45.8183322 134.301501 45.2457328 134.553179 44.9252759 134.875525 44.6706493 135.061494 44.2942987 135.315652 43.9750839 135.701228 43.1466159 132.393458 42.7715074 132.1393 43.0894802 132.017801 43.2124462 131.952092 43.2124462 131.952092 43.4000004 131.697934 43.654627 131.509485 43.9092536 131.192098 44.0396721 130.93794 44.2297105 130.308125 44.360129 129.734101 44.2297105 129.225785 43.9750839 128.974107 43.654627 128.841449 43.4000004 128.719949 43.0894802 128.719949 42.7715074 128.841449 41.5654467 129.415474 40.5494245 129.734101 40.0414133 130.243656 39.7221985 130.749492 39.5346443 131.443776 39.4675719 132.017801 39.5346443 132.523636 39.7221985 132.647616 39.8451645 132.845983 40.097307 133.033192 40.6723905 136.209543 40.4860783"></polyline>
                            <polyline id="Fill-5" points="141.725385 38.7049341 142.042772 37.3051088 138.744921 37.3051088 136.715379 46.5151396 140.267388 46.5151396 141.151361 42.5168808 141.471227 41.2449898 142.042772 40.4177639 142.606878 39.8451645 143.369352 39.6563682 143.622269 39.6563682 143.876427 39.8451645 144.006605 40.0414133 144.074794 40.4177639 144.006605 40.6078023 143.940896 40.7382208 143.940896 40.9928474 143.820636 41.4996164 143.754927 41.8200733 143.754927 42.2622542 142.861036 46.5151396 146.414285 46.5151396 147.428436 41.4996164 147.558614 40.6723905 147.682594 40.097307 147.682594 39.7867867 147.748303 39.5905379 147.814012 39.2800176 147.748303 38.8291422 147.626803 38.4527917 147.428436 38.0677466 147.174278 37.7547421 146.798621 37.4367694 146.358494 37.246731 145.848939 37.1163125 145.276154 37.1163125 144.195054 37.1821428 143.312321 37.5025997 142.420909 37.9435385 141.725385 38.7049341"></polyline>
                            <path d="M123.325607,26.9560897 L123.392556,26.4480786 L123.514056,25.8071648 L123.709943,24.9228031 L124.022371,23.9067808 L124.274049,22.8261703 L124.593916,21.9977022 L124.848074,21.2350645 L125.102231,20.6711597 L113.807711,20.6711597 L113.497763,21.8747362 L113.179136,23.2099733 L110.895436,31.2089751 L110.762778,31.4611176 L110.641278,31.5927782 L110.575569,31.5927782 L110.575569,31.7815745 L110.321411,32.0362011 L110.067254,32.356658 L110.641278,32.8634271 L111.147114,33.4944042 L112.67082,32.5429702 L113.365105,32.1678617 L114.128818,31.9132351 L115.328938,31.2723213 L116.542696,30.8313825 L116.03438,30.1345751 L115.714514,29.627806 L114.95452,30.0029145 L114.568944,30.1929529 L114.258996,30.4450953 L113.430814,30.8313825 L112.67082,31.2723213 L113.87466,26.9560897 L116.288538,26.9560897 L116.598487,28.1596662 L117.048532,29.3073491 L117.612638,30.2587832 L118.43834,31.0860091 L119.200814,31.6610926 L120.160414,32.1678617 L121.230356,32.5429702 L122.444114,32.8634271 L122.754062,32.4783819 L123.204107,32.2237553 L123.768213,31.9132351 L124.472416,31.6610926 L123.138398,31.4611176 L121.990349,31.1505973 L120.920407,30.6997219 L119.962047,30.1929529 L121.230356,29.4961454 L122.312696,29.0527225 L123.204107,28.6664353 L124.218259,28.4142928 L123.204107,27.9062817 L122.630083,27.3970285 L122.375925,27.4641008 L122.188716,27.5957614 L121.80438,27.8392093 L120.976198,28.355915 L120.094705,28.80058 L119.136344,29.3073491 L118.694978,28.7322656 L118.375111,28.1596662 L118.120953,27.5286891 L118.062683,26.9560897 L123.325607,26.9560897 L123.325607,26.9560897 Z M122.124247,24.3477195 L121.680401,25.9388253 L114.258996,25.9388253 L114.634653,24.3477195 L122.124247,24.3477195 L122.124247,24.3477195 Z M122.884241,21.7430756 L122.444114,23.3329394 L114.95452,23.3329394 L115.394647,21.7430756 L122.884241,21.7430756 L122.884241,21.7430756 Z" id="Fill-6"></path>
                            <polyline id="Fill-7" points="119.906256 18.252828 119.388022 18.3857306 119.136344 18.4403822 118.946656 18.5720428 118.43834 18.6950088 118.186662 18.7608391 117.998214 18.8924997 118.120953 19.2030199 118.316841 19.6538954 118.694978 20.6711597 119.64218 20.3507028 120.600541 20.1619065 120.470362 19.908522 120.412092 19.7781035 120.412092 19.7110311 120.281914 19.2676082 120.094705 18.7608391 119.906256 18.252828"></polyline>
                            <polyline id="Fill-8" points="108.987393 25.9388253 109.627127 25.2991536 110.452829 24.7911425 108.423287 23.9067808 106.580954 23.2099733 105.115518 24.2843734 106.195378 24.6694185 107.210769 25.0457691 108.987393 25.9388253"></polyline>
                            <polyline id="Fill-9" points="110.762778 22.1293628 111.524011 21.4337975 112.481132 20.9804379 110.706987 19.908522 109.183281 19.0142236 107.464927 20.0960762 108.423287 20.6040873 109.30726 21.1133406 110.067254 21.6201096 110.762778 22.1293628"></polyline>
                            <polyline id="Fill-10" points="113.365105 39.6563682 113.619262 39.6563682 113.87466 39.8451645 114.004838 40.0414133 114.060629 40.4177639 114.004838 40.4860783 114.004838 40.8040511 113.939129 40.9928474 113.87466 41.1145713 113.87466 41.3691979 113.750681 41.875967 113.684971 42.581469 112.79108 46.5151396 116.344329 46.5151396 117.678347 40.4860783 117.811005 39.3359113 117.744056 38.8291422 117.612638 38.4527917 117.426669 38.0677466 117.172511 37.7547421 116.796854 37.4367694 116.344329 37.246731 115.837253 37.1163125 115.273147 37.1163125 114.380496 37.1821428 113.554793 37.4367694 112.67082 37.8777082 112.163745 38.1981651 111.721138 38.6403459 111.336802 37.9435385 110.828487 37.5025997 110.067254 37.1821428 109.240311 37.1163125 108.293109 37.1821428 107.464927 37.5025997 106.647903 37.9435385 105.885429 38.6403459 105.81972 38.6403459 106.139587 37.3051088 102.831818 37.3051088 100.867984 46.5151396 104.421233 46.5151396 105.379594 42.0747 105.689542 40.9270171 106.262327 40.2314517 106.769402 39.7867867 107.02356 39.6563682 107.663294 39.6563682 107.916211 39.7867867 108.038951 39.9768251 108.10342 40.3519336 108.038951 40.8040511 107.916211 40.9928474 107.849263 41.1145713 107.849263 41.3691979 107.719084 41.9417973 107.663294 42.6398468 106.835111 46.5151396 110.38712 46.5151396 111.271093 42.3852202 111.59096 41.1804016 112.096796 40.3519336 112.67082 39.7867867 113.365105 39.6563682"></polyline>
                            <polyline id="Fill-11" points="123.259898 42.9578196 119.454971 42.9578196 118.694978 46.5151396 122.498665 46.5151396 123.259898 42.9578196"></polyline>
                            <polyline id="Fill-12" points="13.5852697 7.32872533 12.7583273 6.95361686 12.6926182 6.95361686 12.6926182 7.0095105 12.4384605 7.65042431 12.3727514 7.65042431 12.3727514 7.83673647 12.1843028 8.34598969 12.1843028 8.78817053 12.1185937 8.98566142 12.1185937 9.80419281 12.3157209 11.017706 12.5698786 11.9666559 12.7583273 12.5417394 13.0781941 13.3043771 13.3881425 14.0657728 13.8952181 15.0172069 13.8381876 15.0817951 12.1185937 17.7448168 11.8656758 18.0652737 11.7441761 18.4403822 11.3573604 19.3346805 10.9817029 20.6040873 10.9159939 22.3169171 11.1044425 23.2671091 11.1044425 23.4000117 11.2358606 23.587566 11.3573604 23.9067808 11.4243093 24.0285047 11.8656758 24.7911425 12.062803 25.0457691 12.4384605 25.5537802 12.6926182 25.8071648 13.1339848 26.2580402 13.5852697 26.6356328 14.9106091 27.650413 16.4417543 28.7322656 16.497545 28.80058 17.5786451 29.429073 18.781245 30.0029145 19.9937632 30.5134098 21.2620721 30.9543485 21.3178628 31.0201788 23.0374567 31.3406357 23.0944872 31.2723213 23.2916144 31.4611176 23.6015628 31.6610926 23.6015628 31.5927782 23.6672719 31.4611176 23.6672719 31.4052239 24.5599233 26.7672934 23.9858988 26.4480786 23.9858988 26.3810062 22.3989629 26.193452 22.0220656 26.1276217 21.7691477 26.0605493 21.5720205 26.0605493 21.1963631 26.0046556 20.115263 25.6841987 19.2325299 25.366226 19.1668208 25.2991536 18.3398784 24.8569728 17.8972721 24.6023462 16.8174118 23.8409505 16.497545 23.587566 15.5491029 22.7032043 14.7878695 21.7430756 14.7221605 21.687182 14.66513 21.6201096 14.66513 21.4337975 14.7878695 20.6711597 14.9106091 20.2848725 15.1734454 19.9644156 15.5491029 19.4005108 15.7363117 19.081296 16.2433873 18.8266694 19.1011117 17.6777444 19.6081874 17.4914323 20.5008388 17.1709754 22.5874116 16.4083376 23.5457721 15.9661568 24.1743475 15.6456999 24.4942142 15.3923153 24.8128412 15.0817951 25.0012899 15.0172069 25.1240294 15.0172069 25.1240294 14.9501345 25.7625232 14.5079537 26.5237565 14.3203994 27.2849898 14.253327 28.1119322 14.3762931 28.4875897 14.3762931 28.8731655 14.5079537 29.7001079 14.3762931 29.8216077 14.3762931 36.549968 15.0817951 37.1797832 15.2047611 38.3253525 15.5239759 39.1436163 15.7786025 40.0362678 16.1549531 40.731792 16.4083376 41.1731586 16.6058285 41.7459433 16.9834211 41.8116523 16.9834211 42.06581 17.1709754 43.1469101 17.932371 43.9069037 18.5720428 44.1610614 18.8266694 44.4152191 19.1458842 45.1764524 20.0960762 45.2421615 20.1619065 45.2979522 20.4736688 45.2979522 20.8587139 45.2421615 21.2350645 45.0437945 21.7430756 44.733846 22.1293628 44.3482702 22.5715437 44.0953523 22.7032043 43.9639342 22.7590979 43.9069037 22.8895164 43.4568586 23.2671091 43.399828 23.2671091 42.9497829 23.4645999 42.4414675 23.7751202 42.1885496 23.9067808 41.1731586 24.1614074 40.7975011 24.2272377 40.0362678 24.3477195 39.1436163 24.7352488 38.8894586 24.7911425 38.70101 24.9228031 38.3253525 25.1774297 37.1797832 25.4966445 36.0986831 25.8742371 35.5916075 26.0046556 34.1348499 26.1276217 32.9979591 26.1276217 32.9979591 26.193452 32.866541 26.3151759 32.6123832 26.5126668 32.2937563 26.6356328 32.0395986 26.7672934 31.916859 26.7672934 31.916859 27.1424019 31.1568655 27.3970285 29.7558986 31.3406357 30.4613412 31.1505973 30.5171319 31.1505973 44.668137 26.8890173 45.6178189 26.3810062 46.5662611 25.8071648 46.6319702 25.8071648 46.8204188 25.7512711 47.1390458 25.4966445 47.2059946 25.4966445 48.2201459 24.7352488 49.2342971 23.8409505 50.0624793 23.0124824 50.5695549 22.193951 50.9452124 21.3667251 51.0109214 21.2350645 51.0109214 21.1133406 51.0766305 21.0475103 51.1993701 20.5394991 50.8224728 19.5234768 50.2496881 18.5062125 48.3428854 16.0319871 48.4085945 15.5910483 48.5958034 15.0817951 48.9156701 14.3762931 49.4884548 13.8682819 49.4239855 13.8682819 49.6099546 13.8111462 49.6769034 13.8111462 49.6769034 13.746558 49.7426125 13.746558 50.11827 13.4261011 50.6253456 13.3615129 50.7567637 13.3043771 50.8795033 13.3043771 52.0920215 12.090864 52.5333881 11.7132714 53.5475393 10.8202151 53.9231968 10.312204 54.3744817 9.68246887 54.6286394 9.10862744 54.6286394 9.04155506 54.2430636 8.6006163 54.1215638 8.6006163 53.6702789 8.41181998 53.2946214 8.41181998 52.4007302 8.53354392 52.2135213 8.6006163 51.6407366 8.73103481 50.3153972 9.17445773 49.1698278 9.74705709 48.5958034 10.0016837 48.032937 10.5668306 47.7130703 10.8202151 47.017546 11.4598868 46.7646281 11.6486831 46.4447613 11.9666559 45.4950794 12.796366 45.1107433 12.9851623 44.733846 13.1714745 44.4152191 13.1714745 44.1610614 13.1068863 44.0296432 12.9851623 43.5882767 12.2212825 43.334119 11.4598868 43.334119 10.6984912 43.4568586 9.5495662 43.8411946 8.53354392 43.9069037 8.41181998 44.2838009 7.51752164 44.5367188 6.88778656 44.9222947 6.24687275 45.2979522 5.61713767 45.5521099 5.17495683 46.002155 4.5352851 46.002155 4.46945481 46.0591855 4.21482819 46.0591855 3.96144367 46.002155 3.70805914 45.8707368 3.58509311 45.3636612 3.26587829 44.9222947 3.14291227 44.4152191 3.19880592 44.0296432 3.3962968 43.9639342 3.3962968 43.8411946 3.45343253 43.7097765 3.58509311 43.0799613 4.09310425 42.1885496 4.85449992 41.1731586 5.73886161 40.9190009 6.0605606 40.1019769 7.0753408 39.9048497 7.32872533 39.2750345 8.34598969 39.2750345 8.41181998 39.2750345 8.34598969 38.8336679 8.98566142 38.5795102 9.74705709 38.4480921 9.80419281 38.382383 10.0588194 38.3253525 10.1892379 38.0724346 10.312204 37.6211497 10.3780342 37.2454922 10.5096948 37.1797832 10.5096948 36.8599164 10.4438645 36.1643921 10.2563103 36.0986831 10.2563103 35.5916075 9.9358534 35.0845318 9.42784226 34.9617923 8.73103481 34.9617923 8.15719337 35.1490011 6.24687275 35.3374498 5.61713767 35.4701077 5.04329624 35.9114742 3.14291227 35.9114742 2.0610597 35.6573165 1.23383373 35.6573165 1.16676136 35.4031588 0.846304452 35.0845318 0.537026276 34.9617923 0.537026276 34.266268 0.471195982 34.200559 0.471195982 34.0691408 0.537026276 34.1348499 0.537026276 34.0121103 0.537026276 33.947641 0.602856571 33.6277743 0.725822592 33.6934833 0.725822592 33.5050347 0.790410806 33.4393256 0.790410806 33.1864077 0.913376827 33.0537498 1.16676136 33.0537498 1.29966403 32.866541 1.48721826 32.866541 1.74060279 31.916859 4.15893455 31.0911564 6.63440203 30.7142591 7.71625461 30.4613412 8.28015939 29.8216077 9.36201197 29.3145321 10.0016837 28.9289562 10.4438645 28.4875897 10.9518757 28.4875897 11.017706 28.299141 10.9518757 27.6606473 10.8202151 27.1535717 10.6314188 27.0320719 10.6314188 26.4580474 10.1892379 26.2038897 9.9358534 26.0823899 9.74705709 25.6968141 9.36201197 25.631105 9.17445773 25.631105 8.73103481 25.4426564 6.95361686 25.0669989 5.29668077 24.8698717 4.78866963 24.8128412 4.46945481 24.5599233 3.77388943 24.5599233 3.70805914 24.0528477 3.26587829 23.8557205 3.07708197 23.7329809 3.01249376 23.4143539 2.88828566 23.0944872 2.75786715 22.8403295 2.82245536 22.6518808 2.88828566 22.5874116 2.88828566 22.5874116 2.94542139 22.3332539 3.45343253 22.2762234 3.65092341 22.2105143 3.77388943 21.51499 5.36375314 21.130654 7.20700139 21.0649449 7.3957977 21.0079144 7.58335194 20.8764963 8.4764082 20.8107872 9.80419281 20.6892874 10.3780342 20.3694207 11.017706 20.3694207 12.4759091 18.4712966 13.6148974 18.4055875 13.5577617 15.9334389 9.36201197 15.680521 9.04155506 14.9750784 8.41181998 13.5852697 7.32872533"></polyline>
                            <path d="M34.3232985,18.3186582 L34.3232985,18.252828 L33.8149831,17.6777444 L33.3736166,17.2368057 L32.4908835,16.4741679 L31.9825681,16.1549531 L31.532523,15.9661568 L30.6497899,15.7786025 L29.6343988,15.7115302 L29.1260834,15.7786025 L28.6847169,15.9661568 L27.6606473,16.4741679 L27.1535717,16.7946248 L26.7122051,17.2368057 L26.1381807,17.8752353 L25.3781871,18.7608391 L25.1240294,18.9496354 L24.9355808,19.2030199 L24.5599233,19.7110311 L24.5599233,19.7781035 L24.3627961,20.3507028 L24.3057656,20.9804379 L24.2412963,21.4896911 L24.3057656,22.0622905 L24.4942142,22.9565888 L24.9355808,23.7751202 L25.1240294,24.0285047 L25.4426564,24.2843734 L25.7625232,24.4806222 L26.2038897,24.7352488 L26.5894656,24.7911425 L27.0965412,24.9228031 L28.299141,25.0457691 L31.4097834,24.9886334 L31.4754924,24.9886334 L32.2937563,24.2272377 L32.6780923,23.8409505 L33.0537498,23.5204936 L33.3091473,23.0795548 L33.6277743,22.7032043 L34.1348499,21.9405665 L34.3232985,21.0475103 L34.5204257,20.1619065 L34.4547167,19.6538954 L34.4547167,19.2030199 L34.3232985,18.3186582 L34.3232985,18.3186582 Z M29.6343988,19.5234768 L30.1414744,19.4564045 L30.5171319,19.6538954 L30.582841,19.6538954 L30.6497899,19.7781035 L30.7142591,20.0960762 L30.7142591,20.1619065 L30.7712896,20.2848725 L30.7712896,20.6040873 L30.582841,20.9804379 L30.3956322,21.4896911 L29.8216077,21.8747362 L29.3802411,22.1293628 L28.9289562,22.1293628 L28.6847169,21.9977022 L28.4218806,21.7430756 L28.1119322,21.4337975 L28.1119322,21.2350645 L27.914805,20.4736688 L28.1119322,19.908522 L28.3660899,19.6538954 L28.7405076,19.5234768 L29.1260834,19.4564045 L29.6343988,19.5234768 L29.6343988,19.5234768 Z" id="Fill-13"></path>
                            <polyline id="Fill-14" points="24.615714 26.5784971 24.5599233 26.7672934 23.6672719 31.4052239 23.6672719 31.4611176 23.6015628 31.5927782 23.6015628 31.6610926 23.5457721 31.7815745 19.7396055 51.8486356 19.8611053 52.2908164 20.115263 52.6112733 20.3694207 52.8000696 20.7549965 52.9304881 21.3178628 52.6758615 21.6377296 52.4895494 22.0220656 52.2349227 22.5303811 51.7281537 22.5303811 51.6623234 31.1568655 27.3970285 31.3440743 26.8890173 31.3440743 26.7014631 24.615714 26.193452 24.615714 26.5784971"></polyline>
                            <polyline id="Fill-15" points="3.55905819 36.4853353 3.49334912 37.246731 3.62476725 38.0093688 3.87892496 38.6403459 4.32029151 39.2800176 4.95878525 39.7867867 5.4001518 39.9768251 5.97417627 40.2314517 7.24248521 40.6078023 7.93800946 40.7382208 8.82198235 40.9270171 9.4604761 41.0586777 10.0332608 41.1804016 10.4746273 41.3133043 10.8502848 41.4350282 11.1044425 41.7554851 11.1701516 42.0101117 11.1701516 42.3852202 11.047412 42.703193 10.8502848 43.0894802 10.5973669 43.3441068 10.3432092 43.5987334 9.83613358 43.7204573 9.58197588 43.7875297 9.39352724 43.9092536 8.51079414 44.0396721 7.93800946 43.9750839 7.49664291 43.9092536 7.11106708 43.7204573 6.85690937 43.5329031 6.5370426 43.2124462 6.41554282 42.9578196 6.28412469 42.581469 6.28412469 42.1964239 0.326916068 42.703193 0.261207003 43.2124462 0.326916068 43.7875297 0.645543043 44.8023099 0.833991683 45.1799025 1.15261866 45.5637056 1.46256708 45.8841625 1.91509177 46.2617551 2.29074925 46.4493093 2.79782487 46.7039359 3.30490048 46.8343544 3.94339423 47.0243928 4.57320942 47.0889811 5.33568253 47.210705 6.16138512 47.2765353 7.11106708 47.409438 8.19092737 47.2765353 8.69924278 47.210705 9.27202746 47.210705 9.71339401 47.0889811 10.2204696 47.0243928 11.1701516 46.9001847 11.5557274 46.7039359 11.997094 46.5797278 12.8240363 46.3275854 13.5195606 45.9412982 13.6410604 45.8183322 13.6410604 45.7525019 13.8381876 45.7525019 14.2150849 45.6307779 15.2292361 44.7364796 15.680521 44.2297105 16.0574183 43.7875297 16.3103362 43.2124462 16.5632541 42.703193 16.9488299 41.5654467 16.9488299 40.6078023 16.8831209 39.9109948 16.5632541 39.2154294 16.1875966 38.7707644 15.8677298 38.4527917 15.4833938 38.1981651 14.5994209 37.81312 13.331112 37.4367694 12.6256694 37.3051088 11.8656758 37.1821428 10.8502848 36.9275162 10.1547606 36.7958556 9.58197588 36.6070593 9.32781817 36.4853353 9.07490026 36.2307087 8.95216069 36.0344599 8.88645162 35.7798333 8.95216069 35.5922791 9.14060933 35.0184376 9.64768494 34.6420871 10.3432092 34.3216302 11.3573604 34.2557999 12.1185937 34.3216302 12.3727514 34.3874605 12.6926182 34.5762568 13.0781941 35.0184376 13.1339848 35.2730643 13.2654029 35.6581094 18.9126631 35.0184376 18.7242145 33.9452796 18.5270873 33.4385106 18.4055875 33.0534655 17.8972721 32.356658 17.5786451 32.0362011 17.2587783 31.8474048 16.3103362 31.4052239 15.2949451 31.1505973 14.0266362 30.9543485 11.2358606 30.9543485 10.0332608 31.1505973 8.82198235 31.3406357 7.8723004 31.7157442 6.85690937 32.0362011 6.02996699 32.5429702 5.33568253 33.1180537 4.76165806 33.8148611 4.19879173 34.4520487 3.87892496 35.0830259 3.55905819 36.4853353"></polyline>
                            <polyline id="Fill-16" points="99.6009153 24.6023462 100.548118 24.5377579 101.761876 24.6694185 102.137533 23.4645999 101.057673 23.4645999 100.107991 23.5204936 95.2864333 23.5204936 96.2361152 20.3507028 97.4486335 20.2190422 98.6499935 20.1619065 99.6653846 20.031488 100.613827 20.031488 101.37506 19.9644156 103.085975 19.9644156 102.5789 19.3346805 102.324742 18.9496354 102.137533 18.5720428 100.362149 18.8266694 98.5198152 19.081296 96.6204513 19.2676082 95.6063001 19.3346805 94.6578579 19.4564045 94.4024604 20.1619065 94.206573 21.1133406 93.9524153 22.1293628 93.6994974 23.3329394 93.3226001 24.4147919 93.0039731 25.366226 92.7485756 26.193452 92.5626066 26.9560897 91.922873 28.1596662 91.5484553 28.8664103 91.1046092 29.6836996 90.5318245 30.4450953 89.8375401 31.2089751 89.0105977 31.9703708 88.1179462 32.7975968 88.9448886 32.985151 89.7705912 33.3056079 90.5318245 32.5429702 90.8529311 32.1678617 91.2285886 31.8474048 91.8670823 31.0860091 92.4299486 30.4450953 92.8167643 29.6836996 93.0039731 29.3073491 93.2581308 28.9868922 93.9524153 27.5957614 94.4607307 26.0605493 94.9665665 24.6023462 97.89 24.6023462 96.1146155 31.0860091 95.7947487 32.1020314 95.4190912 33.3056079 97.3159755 33.3056079 97.5044242 32.1020314 97.8242909 31.0860091 99.6009153 24.6023462"></polyline>
                            <polyline id="Fill-17" points="88.9448886 18.4403822 87.0368461 18.6950088 87.1025552 19.4564045 87.1025552 20.2190422 85.4585888 20.2190422 82.5351553 20.1619065 82.2165283 21.3667251 92.6283156 21.3667251 92.9382641 20.1619065 89.0676282 20.1619065 89.0676282 20.2190422 89.0105977 20.0960762 89.0105977 19.5234768 88.9448886 19.0142236 88.9448886 18.4403822"></polyline>
                            <polyline id="Fill-18" points="83.9931527 23.8409505 84.6973555 23.587566 85.5813284 23.4645999 85.2614616 22.5715437 84.8845643 21.7430756 84.0588617 21.8747362 83.3633375 22.193951 83.6819645 22.8895164 83.9931527 23.8409505"></polyline>
                            <polyline id="Fill-19" points="85.6470374 25.0457691 85.138722 26.7014631 84.3774887 26.6356328 80.5725619 26.6356328 80.1869861 27.8392093 84.8200951 27.8392093 83.8704131 31.2089751 83.738995 31.2723213 83.6819645 31.4052239 83.5505463 31.5927782 83.3633375 31.7157442 83.1748888 31.8474048 81.3995043 31.8474048 81.7094527 32.4200041 81.9065799 33.183884 82.5351553 33.1180537 83.1748888 33.0534655 83.6819645 32.9292574 83.9361222 32.8634271 84.2460706 32.8634271 84.6316464 32.6088005 84.9515132 32.356658 85.2044311 31.9703708 85.3928797 31.5927782 86.5310103 27.8392093 90.9744309 27.8392093 91.3587669 26.6356328 88.1179462 26.6356328 86.8496373 26.7014631 87.2910039 25.0457691 90.9744309 25.0457691 91.922873 25.1115994 92.3084489 23.9067808 90.5987734 23.9067808 89.0105977 23.9738532 89.5747038 23.1453851 90.1474885 22.5715437 90.3446157 22.3169171 90.5987734 22.193951 90.9744309 21.9977022 89.8945706 21.8089059 89.1320975 21.687182 88.8134705 22.0622905 88.4365732 22.6361319 87.9307374 23.2099733 87.4211822 23.9738532 83.9931527 23.9738532 83.738995 23.9067808 80.8911889 23.9067808 80.5725619 25.1115994 81.455295 25.0457691 85.6470374 25.0457691"></polyline>
                            <polyline id="Fill-20" points="86.8496373 29.0527225 87.5439218 30.0687448 88.1179462 31.2089751 88.75644 30.7655522 89.7705912 30.4450953 89.0676282 29.3073491 88.3051551 28.355915 87.488131 28.6664353 86.8496373 29.0527225"></polyline>
                            <polyline id="Fill-21" points="88.3051551 40.4860783 88.1179462 39.6563682 87.7968397 39.025391 87.3567129 38.3869614 86.8496373 37.9435385 86.154113 37.5025997 85.3928797 37.3051088 84.4989885 37.1163125 83.5505463 37.1163125 82.1594978 37.1821428 80.9482194 37.5025997 79.8770377 38.0093688 79.369962 38.319889 78.985626 38.7707644 78.2231529 39.5905379 77.7817863 40.5494245 77.4619196 41.5654467 77.3974503 42.7715074 77.4619196 43.5987334 77.6491284 44.4160227 77.7817863 44.7364796 78.035944 45.1215247 78.6087287 45.6866716 78.8616466 45.8841625 79.2373041 46.1387891 80.0654863 46.4493093 80.505613 46.5151396 81.0796375 46.6480423 82.2834772 46.7039359 82.2834772 46.6480423 83.2331591 46.6480423 83.6819645 46.5151396 84.1890401 46.4493093 84.5659373 46.2617551 85.0073039 46.1387891 85.769777 45.8183322 86.407031 45.2457328 86.6611887 44.9252759 86.9810554 44.6706493 87.1682643 44.2942987 87.4211822 43.9750839 87.7968397 43.1466159 84.4989885 42.7715074 84.2460706 43.0894802 84.123331 43.2124462 84.0588617 43.2124462 84.0588617 43.4000004 83.804704 43.654627 83.6174952 43.9092536 83.2963886 44.0396721 83.0434707 44.2297105 82.4136555 44.360129 81.8408708 44.2297105 81.3337952 43.9750839 81.0796375 43.654627 80.9482194 43.4000004 80.8254798 43.0894802 80.8254798 42.7715074 80.9482194 41.5654467 81.5222439 40.5494245 81.8408708 40.0414133 82.3491862 39.7221985 82.8550221 39.5346443 83.5505463 39.4675719 84.123331 39.5346443 84.6316464 39.7221985 84.7531462 39.8451645 84.9515132 40.097307 85.138722 40.6723905 88.3051551 40.4860783"></polyline>
                            <path d="M90.0247489,39.8451645 L89.5189131,41.1804016 L89.3862552,42.581469 L89.4519642,43.4000004 L89.6404129,44.1638802 L89.9590398,44.8693823 L90.5318245,45.5637056 L90.7859822,45.7525019 L91.1628795,46.0071285 L91.9885821,46.3934157 L92.9382641,46.5797278 L93.4453397,46.6480423 L94.0850732,46.7039359 L94.9665665,46.6480423 L95.7947487,46.5151396 L96.555982,46.2617551 L97.3159755,45.9412982 L97.5701332,45.6866716 L97.7027912,45.5637056 L97.7027912,45.4978753 L97.89,45.4978753 L98.3983154,44.9911062 L98.3983154,44.8023099 L98.4640245,44.8023099 L98.5842845,44.6706493 L98.8384422,44.4160227 L98.8384422,44.2297105 L98.9041512,44.2297105 L99.0268908,44.1055024 L99.2798087,43.85336 L99.5339664,43.1466159 L99.7323334,42.5168808 L99.8538332,41.875967 L99.9195423,41.2449898 L99.7881241,40.4177639 L99.6009153,39.6563682 L99.224018,38.9608028 L98.7739729,38.319889 L98.0772089,37.7547421 L97.6358423,37.5025997 L97.2502665,37.3684549 L96.2361152,37.1821428 L95.1661733,37.1163125 L93.4453397,37.246731 L92.6841064,37.4367694 L92.055531,37.81312 L91.3587669,38.1981651 L90.3446157,39.2154294 L90.0247489,39.8451645 L90.0247489,39.8451645 Z M92.8167643,42.581469 L92.9382641,41.4996164 L93.389549,40.4860783 L93.6424669,40.0414133 L94.0181244,39.7221985 L94.4607307,39.5346443 L95.0335154,39.4675719 L95.540591,39.5346443 L96.0489064,39.8451645 L96.1803245,39.9768251 L96.3662936,40.297282 L96.4332424,40.6078023 L96.4902729,41.1145713 L96.4332424,41.6238245 L96.3030641,42.2622542 L96.1146155,42.7715074 L95.8604578,43.3441068 L95.4761217,43.7875297 L95.2864333,43.9092536 L95.1661733,44.1055024 L94.9120156,44.1638802 L94.7136486,44.2942987 L94.3379911,44.360129 L93.6994974,44.2297105 L93.2581308,43.85336 L93.0039731,43.5329031 L92.8824733,43.2782765 L92.8167643,42.581469 L92.8167643,42.581469 Z" id="Fill-22"></path>
                            <polyline id="Fill-23" points="105.501093 30.0687448 104.73986 30.7655522 104.101366 31.4052239 103.471551 31.9132351 102.897527 32.356658 103.978627 32.6746307 105.115518 33.183884 105.379594 32.5429702 105.81972 31.9703708 106.262327 31.3406357 106.835111 30.6997219 107.973242 29.3073491 109.183281 28.2254965 108.357578 27.7174854 107.663294 27.2753045 107.210769 27.8392093 106.703693 28.5459534 106.139587 29.2415188 105.501093 30.0687448"></polyline>
                            <path d="M68.5825172,31.4052239 L67.6328353,31.1505973 L66.6757146,31.0201788 L65.4718749,30.8984549 L64.203566,30.9543485 L63.1224659,30.8984549 L62.1740237,30.9543485 L61.2912906,31.0201788 L60.5300573,31.2089751 L59.7589056,31.3406357 L59.1290904,31.5927782 L57.9835211,32.1678617 L56.9123393,32.7975968 L56.0196879,33.6260648 L55.2584546,34.5762568 L54.6844301,35.6581094 L60.1444815,36.2307087 L60.7829752,35.2730643 L61.601239,34.8308834 L62.3054418,34.5762568 L63.3208329,34.5104265 L64.1378569,34.5762568 L64.4577237,34.6420871 L64.7763507,34.8308834 L64.9647993,34.962544 L65.0962174,35.2146864 L65.1532479,35.4693131 L65.1532479,35.7798333 L64.9647993,36.2307087 L64.8432995,36.4853353 L64.7106416,36.8616859 L64.1378569,36.9945886 L63.3766236,37.1163125 L62.3624724,37.246731 L61.1586327,37.3684549 L59.7031149,37.5025997 L58.4905967,37.691396 L57.3537059,37.81312 L56.4052637,38.0677466 L54.6844301,38.6403459 L53.8674061,39.025391 L53.1632033,39.5905379 L52.467679,40.1631373 L52.0263125,40.8599447 L51.5849459,41.6896548 L51.3307882,42.7715074 L51.1993701,43.1466159 L51.1993701,43.5987334 L51.2650791,44.4160227 L51.452288,45.1799025 L51.8948943,46.0071285 L52.0920215,46.2617551 L52.4007302,46.5151396 L52.7875458,46.7039359 L53.2946214,46.9585626 L53.801697,47.0889811 L54.4315122,47.210705 L55.0700059,47.2765353 L55.8312393,47.409438 L56.4610544,47.3411235 L57.2222878,47.210705 L58.6220148,46.8343544 L60.0217419,46.0729588 L61.5442085,45.1799025 L61.3470813,46.0729588 L61.3470813,47.0243928 L67.1815504,47.0243928 L67.0600506,45.8841625 L67.2484992,44.8023099 L67.3799174,44.1638802 L67.6898658,43.4000004 L68.0097326,42.3852202 L68.5825172,41.3133043 L69.0238838,40.3519336 L69.3425108,39.4675719 L69.6623775,38.7049341 L69.9165352,38.0093688 L70.2264837,37.4367694 L70.4248506,36.7958556 L70.6120595,36.2890865 L70.9319263,35.4693131 L71.053426,34.3874605 L70.987717,33.8806914 L70.987717,33.4944042 L70.7992683,33.0534655 L70.6777686,32.7305244 L70.1706929,32.1678617 L69.4652503,31.7157442 L68.5825172,31.4052239 L68.5825172,31.4052239 Z M58.236439,41.1804016 L58.8092237,40.8040511 L59.8903238,40.5494245 L60.585848,40.3519336 L61.4127904,40.2314517 L63.3766236,39.9768251 L62.869548,40.9270171 L62.3624724,41.8200733 L61.7326572,42.5168808 L61.5442085,42.6398468 L61.4127904,42.8360956 L61.1586327,43.1466159 L60.4631084,43.5987334 L59.8246147,43.9092536 L59.1947995,44.1055024 L58.6877239,44.1638802 L58.236439,44.0396721 L57.9264906,43.9750839 L57.4764455,43.654627 L57.2879968,43.3441068 L57.2222878,43.0894802 L57.1652573,42.7715074 L57.2879968,42.4510505 L57.5409147,41.7554851 L58.236439,41.1804016 L58.236439,41.1804016 Z" id="Fill-24"></path>
                            <polyline id="Fill-25" points="78.4773106 31.1505973 79.0513351 31.4611176 79.6241197 31.9703708 80.3841133 31.3406357 81.0796375 30.8313825 81.6524222 30.3892017 82.2165283 30.0687448 82.6021042 29.6836996 83.0434707 29.429073 83.8704131 28.9868922 83.0434707 28.6664353 82.3491862 28.2254965 80.5725619 29.627806 79.5571709 30.3892017 78.4773106 31.1505973"></polyline>
                            <polyline id="Fill-26" points="75.3666683 42.9578196 71.5617415 42.9578196 70.7992683 46.5151396 74.6054349 46.5151396 75.3666683 42.9578196"></polyline>
                            <polyline id="Fill-27" points="39.7821101 33.690653 40.6090525 31.3406357 34.9617923 31.3406357 29.7558986 47.0243928 35.7899744 47.0243928 38.1282253 40.1631373 38.4480921 39.025391 38.8894586 38.0677466 39.3965343 37.246731 39.9705587 36.6070593 40.4776343 36.0344599 41.1161281 35.6581094 41.7459433 35.4034828 42.4414675 35.3376525 42.8927524 35.4034828 43.0799613 35.4693131 43.2684099 35.6581094 43.334119 35.7798333 43.399828 36.0344599 43.4568586 36.6070593 43.334119 36.9275162 43.2027009 37.1821428 43.1469101 37.5572513 42.9497829 37.9435385 42.8270434 38.4527917 42.6398345 39.025391 42.5071766 39.7221985 40.1590074 47.0243928 46.0591855 47.0243928 48.9156701 38.4527917 49.301246 37.1163125 49.4239855 36.541229 49.6099546 36.1002902 49.8083216 35.2730643 49.9298214 34.762569 49.8083216 33.2397776 49.5541639 32.6088005 49.2342971 32.1020314 48.6615124 31.5269479 47.9659882 31.2089751 47.1390458 31.0201788 46.1906036 30.9543485 44.4152191 31.0860091 42.8270434 31.6610926 41.2388677 32.4783819 39.8478192 33.7465467 39.7821101 33.690653"></polyline>
                        </g>
                    </g>
                </g>
            </g>
        </g>
    </g>
</svg>