<?xml version="1.0" encoding="UTF-8"?>
<svg width="170px" height="100px" viewBox="0 0 170 100" version="1.1" xmlns="http://www.w3.org/2000/svg" xmlns:xlink="http://www.w3.org/1999/xlink">
    <!-- Generator: Sketch 44 (41411) - http://www.bohemiancoding.com/sketch -->
    <title>enterprise-06</title>
    <desc>Created with Sketch.</desc>
    <defs></defs>
    <g id="______Slice" stroke="none" stroke-width="1" fill="none" fill-rule="evenodd">
        <g id="about" transform="translate(-1045.000000, -5896.000000)">
            <g id="enterprise-06" transform="translate(995.000000, 5866.000000)">
                <g id="fastweb_color" transform="translate(50.000000, 62.000000)">
                    <path d="M32.6565496,2.56082756 L33.533818,0.959024043 C33.533818,0.959024043 31.4696571,-0.389202427 29.0087373,0.865292594 C29.0087373,0.865292594 26.3777781,2.05367347 25.8888089,6.50089598 L23.848335,6.50089598 L23.5074101,8.43912845 L25.5182751,8.43912845 L23.4549601,19.6994557 L26.53682,19.6994557 L28.651739,8.4357809 L31.5221071,8.44163911 L31.890103,6.50089598 L29.0087373,6.50089598 C29.0087373,6.50089598 29.0857204,4.22707145 30.1364122,2.91734182 C30.1364122,2.91734182 30.9350056,1.88378522 32.6565496,2.56082756" id="Fill-1" fill="#003F98"></path>
                    <path d="M50.2037787,6.18522185 C50.2037787,6.18522185 46.9975615,7.71756367 47.949275,10.5370391 C47.949275,10.5370391 48.1717645,11.1563362 48.91537,11.9103722 C48.91537,11.9103722 51.1774874,14.4427951 51.5209502,15.1173268 C51.5209502,15.1173268 52.1824969,16.6998819 50.7883423,17.3308954 C50.7883423,17.3308954 48.4585475,18.1903793 46.721776,16.4287302 L45.7176125,18.461531 C45.7176125,18.461531 48.0245661,20.1779882 51.0624358,19.5687338 C51.0624358,19.5687338 55.5173011,18.7561156 54.6950206,14.667918 C54.6950206,14.667918 54.5342868,13.988365 54.1011514,13.4694945 L51.5894736,10.5546138 C51.5894736,10.5546138 49.9889029,8.77120558 52.0902864,7.84142308 C52.0902864,7.84142308 53.5859571,7.29995658 54.8168399,8.62558708 L56.0054244,6.99700315 C56.0054244,6.99700315 52.9717846,4.87298156 50.2037787,6.18522185" id="Fill-3" fill="#003F98"></path>
                    <path d="M63.7846886,2.32072441 L60.4955666,3.0429587 L60.015057,6.20890578 L58.2571364,6.20890578 L57.9212872,8.00821485 L59.6580587,8.00821485 L58.0456445,16.4724995 C57.6945679,18.9137016 59.598841,19.5162609 59.598841,19.5162609 C61.2730108,20.0878554 64.2432031,19.1379876 64.2432031,19.1379876 L64.2575845,17.1679533 C63.6324145,17.5311627 62.757684,17.6173622 62.757684,17.6173622 C61.0437536,17.752938 61.1808004,16.5109963 61.1808004,16.5109963 C61.1359641,16.0615875 61.3855245,14.8388942 61.3855245,14.8388942 L62.7805251,8.00403041 L65.8877641,8.00403041 L66.2066938,6.20890578 L63.122296,6.20890578 L63.7846886,2.32072441 Z" id="Fill-6" fill="#003F98"></path>
                    <polygon id="Fill-8" fill="#003F98" points="84.1598181 6.29979181 79.3403407 15.9943017 78.2202797 6.50482935 75.8236535 6.50482935 71.0490124 15.9725426 70.3409375 6.27803272 67.142334 6.72995221 68.8105821 19.6992046 70.980489 19.6992046 75.8913309 10.3227121 77.3294758 19.6992046 79.4545464 19.6992046 86.6503467 6.88896092"></polygon>
                    <path d="M95.3531538,10.2453837 C95.3531538,10.2453837 94.4302031,11.6848309 91.8043197,11.8538823 C91.8043197,11.8538823 90.2139006,11.9417555 89.9854894,11.9292022 C89.9854894,11.9292022 90.464307,9.69387454 92.4066486,8.36991782 C92.4066486,8.36991782 94.3625257,7.07190462 95.3743029,8.40339333 C95.3743029,8.40339333 95.9182601,9.19592621 95.3531538,10.2453837 M96.4038455,6.15634921 C96.4038455,6.15634921 94.277083,5.2207085 91.5928278,6.5806514 C91.5928278,6.5806514 87.932326,8.27618637 86.7403577,11.9626777 C86.7403577,11.9626777 85.9248449,14.1134797 86.4907972,16.3563394 C86.4907972,16.3563394 86.9603093,19.4486404 91.1190859,19.6988699 C91.1190859,19.6988699 94.5317192,19.7624733 96.7396946,18.0108669 L95.8996488,16.4442127 C95.8996488,16.4442127 92.8710848,17.9966398 91.1495408,17.3204343 C91.1495408,17.3204343 89.5362806,16.763067 89.6580999,13.7485966 C89.6580999,13.7485966 93.0005179,13.7820721 94.9496272,13.1393422 C94.9496272,13.1393422 98.2548226,12.2120703 98.480696,9.00511576 C98.480696,9.00511576 98.5720605,6.93632877 96.4038455,6.15634921" id="Fill-10" fill="#003F98"></path>
                    <path d="M109.10258,14.8239139 C109.10258,14.8239139 107.687277,18.2677078 105.005559,17.7086666 C105.005559,17.7086666 103.578412,17.5981974 103.308548,16.2190061 C103.308548,16.2190061 103.300935,15.6315108 103.606329,14.2012693 C103.606329,14.2012693 104.054692,11.4830573 105.518216,9.58415853 C105.518216,9.58415853 106.941133,7.69865 108.59923,8.2258894 C108.59923,8.2258894 111.143054,9.11633817 109.10258,14.8239139 M108.619533,5.96461819 C106.402252,6.35126042 104.706087,8.54725437 104.706087,8.54725437 L106.297352,0.0486573427 L103.00823,0.0486573427 L99.4407846,19.4343296 L102.640234,19.4343296 L102.821271,18.281098 C104.146902,19.9532001 106.682267,19.6837222 106.682267,19.6837222 L106.683959,19.6837222 C109.722675,19.6376933 111.800371,16.0901254 111.800371,16.0901254 C114.412719,11.4470711 112.823146,8.26187558 112.823146,8.26187558 C111.621872,5.47336497 108.619533,5.96461819 108.619533,5.96461819" id="Fill-12" fill="#003F98"></path>
                    <path d="M40.1678113,14.1086258 C38.8489478,17.0988264 37.0005086,17.4687309 37.0005086,17.4687309 C35.0378638,17.9725374 34.6867872,15.2375876 34.6867872,15.2375876 C34.1918962,12.1143218 36.0107265,9.85221373 36.0107265,9.85221373 C37.6502117,7.67881575 39.1221953,7.86795243 39.1221953,7.86795243 C39.9943879,7.91565504 40.5891032,8.52323569 40.7802918,8.86552285 C40.9359499,9.14755409 41.6017264,10.6648319 40.1678113,14.1086258 L40.1678113,14.1086258 Z M41.6287973,7.57085721 C41.6287973,7.57085721 40.9173386,6.29878754 38.9792268,5.89708133 C38.9792268,5.89708133 37.8092536,5.54475151 36.1587709,6.2669858 C36.1587709,6.2669858 33.2088819,7.36414589 31.8917103,11.1468794 C31.8917103,11.1468794 31.7394361,11.4966985 31.6015434,12.1795991 C31.6015434,12.1795991 30.9222314,14.6141061 31.7766587,17.1657774 C31.7766587,17.1657774 32.812969,20.16351 35.8592983,19.6371075 C35.8592983,19.6371075 38.0046721,19.1843511 39.8175807,17.1657774 L39.4512767,19.4103109 L42.5424423,19.4103109 L45.1243354,6.14814771 L41.9485731,6.14814771 L41.6287973,7.57085721 Z" id="Fill-15" fill="#003F98"></path>
                    <path d="M157.461557,4.16974462 L155.503988,15.6886702 C154.721468,15.0944798 154.35601,10.5761218 154.35601,10.5761218 L157.096945,4.40239947 L154.850901,4.40239947 L153.834894,6.39084522 L153.676698,4.32624267 L149.839389,4.32624267 L148.743861,6.52139973 L148.536599,4.32624267 L146.315088,4.32624267 L146.732996,10.8606637 C146.081601,13.4148457 144.148565,15.6359463 144.148565,15.6359463 L145.94963,4.50784735 C147.229579,3.29352295 149.39441,2.62233882 149.39441,2.62233882 C153.572644,1.25319015 156.184146,2.10514208 156.184146,2.10514208 C157.828707,2.568778 157.461557,4.16974462 157.461557,4.16974462 L157.461557,4.16974462 Z M149.81401,14.9915426 L149.211681,10.4982912 L151.511021,5.72049798 L152.032983,10.6514417 L149.81401,14.9915426 Z M133.018169,10.8999974 L134.23467,4.34046976 C136.904544,4.52207445 136.666827,6.30129821 136.666827,6.30129821 C136.63891,8.41778781 134.910598,10.9125508 134.910598,10.9125508 L133.018169,10.8999974 Z M130.025982,10.8857703 L126.241123,10.9125508 L126.241123,11.7385591 L129.764578,11.7385591 C129.216391,13.2591845 126.501681,16.9540448 126.501681,16.9540448 C125.953494,17.9357143 124.283554,19.304863 124.283554,19.304863 L126.867985,5.15057729 C126.867985,5.15057729 130.547944,4.48023005 131.123202,4.48023005 L130.025982,10.8857703 Z M159.55871,1.91433163 C159.55871,1.91433163 158.486869,0.717581873 156.362645,0.761936934 C156.362645,0.761936934 150.538158,0.376968481 146.221185,3.33787801 L146.563802,1.19126045 L143.754344,1.77875578 L141.402554,16.0602485 C141.402554,16.0602485 141.24182,18.431152 139.323165,18.8395533 L136.810642,18.8395533 C136.810642,18.8395533 136.07888,18.5466425 135.850468,17.3699781 L134.547678,11.6523597 L138.752137,11.6523597 L138.752137,10.8790752 L137.828341,10.8740539 C137.828341,10.8740539 139.811289,7.58173675 139.0956,5.30791222 C139.0956,5.30791222 138.381604,3.15459955 134.472387,3.31946648 L135.000271,0.23553442 L131.855809,0.809639546 L131.37953,3.42491436 C131.37953,3.42491436 129.029432,3.70359804 127.061711,4.19987259 L127.863688,0.184484255 L124.771677,0.837256848 L124.00523,5.03927119 L123.13473,5.33301886 L123.874951,1.54191649 L121.786257,2.22230639 L120.98851,6.04269983 C120.98851,6.04269983 116.617395,7.98176919 112.523758,10.6095973 C112.523758,10.6095973 112.323264,11.2163411 112.332569,11.2163411 C112.332569,11.2163411 118.857517,7.75246189 120.773634,7.03190138 L119.457308,14.3806144 C119.457308,14.3806144 119.153606,16.0368156 118.391389,16.6393749 C118.391389,16.6393749 120.675502,16.9105266 121.377655,14.6509292 L122.944387,6.2460636 L123.814042,5.95901104 L121.325205,19.6973635 L124.246331,19.6973635 C124.246331,19.6973635 126.624346,19.7425554 127.215677,19.4270487 C127.215677,19.4270487 128.246066,18.998562 129.113183,17.7541097 L131.83889,13.5353576 L133.147602,18.1164821 C133.147602,18.1164821 133.422541,19.4404389 134.821772,19.5760147 L141.127614,19.5760147 C141.127614,19.5760147 143.455717,19.2613448 143.852476,17.3624461 L143.96499,16.2552434 C143.96499,16.2552434 146.419988,16.4109045 147.308254,14.6032266 C147.308254,14.6032266 147.594191,16.1799234 149.39441,16.1539799 L150.362197,16.1539799 C150.362197,16.1539799 152.190333,15.9188144 152.554945,14.5011262 C152.554945,14.5011262 152.529566,16.1539799 155.347484,16.1004191 C155.347484,16.1004191 155.714634,17.4176807 153.834894,18.065432 C153.834894,18.065432 151.745354,18.4512373 150.022118,17.4176807 C150.022118,17.4176807 150.753034,19.0462646 153.310394,19.4086371 C153.310394,19.4086371 155.827147,19.9342027 157.151087,18.6679913 C157.151087,18.6679913 157.859161,17.9867645 158.141715,15.8953815 L160.03922,4.49194648 C160.03922,4.49194648 160.369993,2.77799998 159.55871,1.91433163 L159.55871,1.91433163 Z" id="Fill-17" fill="#003F98"></path>
                    <path d="M157.677607,33.7803693 L170,28.2863915 C56.5591736,15.9921819 0,36.1229978 0,36.1229978 C87.3826609,21.5917248 157.677607,33.7803693 157.677607,33.7803693 Z" id="Fill-1" fill="#CB151D"></path>
                </g>
            </g>
        </g>
    </g>
</svg>