<?xml version="1.0" encoding="UTF-8"?>
<svg width="170px" height="100px" viewBox="0 0 170 100" version="1.1" xmlns="http://www.w3.org/2000/svg" xmlns:xlink="http://www.w3.org/1999/xlink">
    <!-- Generator: Sketch 44 (41411) - http://www.bohemiancoding.com/sketch -->
    <title>enterprise-02</title>
    <desc>Created with Sketch.</desc>
    <defs>
        <linearGradient x1="50.0009287%" y1="100.0014%" x2="50.0009287%" y2="-0.000233372229%" id="linearGradient-1">
            <stop stop-color="#E58313" offset="0%"></stop>
            <stop stop-color="#EAA82D" offset="100%"></stop>
        </linearGradient>
        <linearGradient x1="50.0009365%" y1="99.9990665%" x2="50.0009365%" y2="-0.000233366783%" id="linearGradient-2">
            <stop stop-color="#E07D12" offset="0%"></stop>
            <stop stop-color="#EAA017" offset="100%"></stop>
        </linearGradient>
        <linearGradient x1="0.000911540507%" y1="50.0007001%" x2="100.000946%" y2="50.0007001%" id="linearGradient-3">
            <stop stop-color="#ECCC49" stop-opacity="0.1" offset="0%"></stop>
            <stop stop-color="#ECCC49" stop-opacity="0.0859" offset="14.13%"></stop>
            <stop stop-color="#ECCC49" stop-opacity="0" offset="100%"></stop>
        </linearGradient>
    </defs>
    <g id="______Slice" stroke="none" stroke-width="1" fill="none" fill-rule="evenodd">
        <g id="about" transform="translate(-1045.000000, -5696.000000)" fill-rule="nonzero">
            <g id="enterprise-02" transform="translate(995.000000, 5666.000000)">
                <g id="didi_color" transform="translate(65.000000, 57.000000)">
                    <g id="Shape" transform="translate(67.094340, 0.000000)">
                        <g id="Group" fill="#666767">
                            <path d="M1.99803774,10.5789302 C1.97584906,10.5639535 1.95049057,10.5564651 1.92618868,10.5564651 C1.89026415,10.5564651 1.85645283,10.5714419 1.83003774,10.5992558 L0.236679245,12.4467442 C0.212377358,12.4756279 0.201811321,12.5098605 0.203924528,12.5473023 C0.206037736,12.5847442 0.226113208,12.6146977 0.255698113,12.6382326 C1.51622642,13.5892558 3.25645283,15.0858605 5.57358491,17.2125581 C5.5989434,17.2339535 5.63064151,17.2467907 5.66128302,17.2467907 C5.69403774,17.2467907 5.73101887,17.2307442 5.75637736,17.2029302 C6.24769811,16.6562791 6.85418868,15.9833953 7.60754717,15.1350698 C7.63079245,15.1093953 7.6434717,15.074093 7.63818868,15.0387907 C7.63713208,15.0045581 7.62022642,14.9703256 7.59486792,14.9467907 C5.37916981,13.0864651 3.49418868,11.6155349 1.99803774,10.5789302 L1.99803774,10.5789302 L1.99803774,10.5789302 Z" id="Shape"></path>
                            <path d="M6.74958491,20.9642326 C5.90430189,20.6775349 5.04528302,20.3213023 4.18415094,19.9019535 C4.16830189,19.8944651 4.14822642,19.890186 4.12920755,19.890186 C4.11124528,19.890186 4.09011321,19.8944651 4.07215094,19.9019535 C4.03728302,19.9212093 4.01086792,19.9533023 4.0034717,19.9939535 C3.02928302,24.8571163 2.00015094,29.0163721 0.944603774,32.3529767 C0.932981132,32.3861395 0.939320755,32.4225116 0.952,32.4556744 C0.967849057,32.4856279 0.997433962,32.508093 1.02913208,32.5198605 L3.8365283,33.3574884 C3.84603774,33.3628372 3.86083019,33.363907 3.87350943,33.363907 C3.89569811,33.363907 3.91788679,33.3574884 3.93901887,33.3467907 C3.96966038,33.3286047 3.99184906,33.2975814 3.99818868,33.2633488 C5.14566038,28.2803721 6.04588679,24.4217209 6.8330566,21.1204186 C6.84996226,21.0530233 6.81403774,20.9856279 6.74958491,20.9642326 L6.74958491,20.9642326 L6.74958491,20.9642326 Z" id="Shape"></path>
                            <path d="M3.2490566,1.99511628 C3.22792453,1.97586047 3.19833962,1.96730233 3.16875472,1.96730233 C3.13388679,1.96730233 3.09901887,1.98013953 3.07471698,2.01009302 L1.45283019,3.78376744 C1.4285283,3.80944186 1.41584906,3.84581395 1.41901887,3.88218605 C1.42007547,3.9164186 1.43803774,3.95065116 1.46656604,3.97418605 C3.17615094,5.40553488 4.80120755,6.95348837 6.2994717,8.57525581 C6.32483019,8.60306977 6.35758491,8.61804651 6.39456604,8.61804651 L6.39456604,8.61804651 C6.43049057,8.61804651 6.46535849,8.60306977 6.49071698,8.57525581 L8.34188679,6.578 C8.36407547,6.55125581 8.37781132,6.51702326 8.37464151,6.4827907 C8.37464151,6.4464186 8.35879245,6.41432558 8.33237736,6.3907907 C6.27622642,4.5112093 4.61524528,3.07451163 3.2490566,1.99511628 L3.2490566,1.99511628 L3.2490566,1.99511628 Z" id="Shape"></path>
                            <path d="M33.8483019,4.11004651 L23.0424151,4.11004651 L23.0350189,0.406511628 C23.0350189,0.333767442 22.9747925,0.276 22.9029434,0.276 L19.9127547,0.276 C19.8810566,0.276 19.8483019,0.289906977 19.8218868,0.315581395 C19.8007547,0.339116279 19.7849057,0.37227907 19.7849057,0.407581395 L19.7933585,4.11004651 L8.91139623,4.11004651 C8.84166038,4.11004651 8.78460377,4.16781395 8.78460377,4.24055814 L8.78460377,6.14153488 C8.78460377,6.21427907 8.84166038,6.27204651 8.91139623,6.27204651 L13.5287547,6.27204651 C13.6851321,6.65716279 13.8584151,7.13106977 14.0443774,7.63172093 C14.4004528,8.602 14.8019623,9.69423256 15.2647547,10.7051628 L12.650717,10.7051628 C10.7446038,10.6602326 9.89932075,11.4122791 9.92784906,13.5732093 L9.92784906,33.607814 C9.92784906,33.6805581 9.98490566,33.7383256 10.0567547,33.7383256 L12.7616604,33.7383256 C12.8313962,33.7383256 12.8895094,33.6805581 12.8895094,33.607814 L12.8895094,14.0963256 C12.9074717,13.3068372 13.216,12.9816279 13.9936604,12.9698605 L19.8969057,12.9698605 L19.8969057,16.1406512 L14.4680755,16.1406512 C14.3962264,16.1406512 14.3391698,16.1973488 14.3391698,16.2711628 L14.3391698,17.9945581 C14.3391698,18.0662326 14.3962264,18.1261395 14.4680755,18.1261395 L19.8969057,18.1261395 L19.8969057,21.4926977 L15.6895094,21.4926977 C15.6166038,21.4926977 15.5595472,21.5526047 15.5595472,21.6232093 L15.5595472,29.8272558 C15.5595472,29.8978605 15.6166038,29.9588372 15.6895094,29.9588372 L23.8253585,29.9588372 C24.0556981,29.9673953 24.2606792,29.9716744 24.4529811,29.9716744 C25.6046792,29.9716744 26.2386415,29.7951628 26.6528302,29.3608372 C27.0807547,28.9115349 27.2424151,28.1873023 27.1959245,26.9453023 L27.1959245,21.6242791 C27.1959245,21.5526047 27.1388679,21.4937674 27.0670189,21.4937674 L22.7212075,21.4937674 L22.7212075,18.1272093 L28.2884528,18.1272093 C28.3613585,18.1272093 28.4184151,18.0673023 28.4184151,17.9956279 L28.4184151,16.2711628 C28.4184151,16.1962791 28.3613585,16.1406512 28.2884528,16.1406512 L22.7212075,16.1406512 L22.7212075,12.9698605 L28.6360755,12.9698605 C29.5458113,12.9687907 29.7698113,13.4566047 29.7286038,14.4140465 L29.7286038,30.0230233 C29.7286038,30.9184186 29.0238491,31.1066977 28.4300377,31.1066977 L25.1513962,31.1066977 C25.1175849,31.1066977 25.0858868,31.1216744 25.0615849,31.1452093 C25.037283,31.169814 25.0256604,31.2029767 25.0256604,31.2393488 L25.0341132,33.4066977 C25.0341132,33.4783721 25.0922264,33.5382791 25.1619623,33.5382791 L29.5331321,33.5382791 C31.6051321,33.5382791 32.6575094,32.5284186 32.6575094,30.5407907 L32.6923774,13.721907 C32.7166792,11.5823721 32.0689811,10.6794884 29.5458113,10.7051628 L27.3660377,10.7051628 C27.9640755,9.52413953 28.4723019,8.06069767 28.8843774,6.87218605 C28.9583396,6.6635814 29.0270189,6.46246512 29.0946415,6.27311628 L33.8483019,6.27311628 C33.9212075,6.27311628 33.9772075,6.21534884 33.9772075,6.14260465 L33.9772075,4.24162791 C33.9772075,4.16781395 33.9212075,4.11004651 33.8483019,4.11004651 L33.8483019,4.11004651 L33.8483019,4.11004651 Z M25.9533585,6.27204651 C25.6860377,6.91069767 24.9601509,8.7795814 24.5047547,9.95311628 C24.3758491,10.2879535 24.2691321,10.5564651 24.2110189,10.7051628 L18.546566,10.7051628 C18.4567547,10.4826512 18.2190189,9.93493023 17.869283,9.12939535 C17.410717,8.07567442 16.8549434,6.79516279 16.6531321,6.27204651 L25.9533585,6.27204651 L25.9533585,6.27204651 L25.9533585,6.27204651 Z M18.3944151,28.119907 L18.3944151,23.5990698 L24.3568302,23.5990698 L24.3568302,26.6778605 C24.3335849,28.06 24.3135094,28.0610698 23.1258868,28.1113488 L22.9452075,28.1188372 L18.3944151,28.1188372 L18.3944151,28.119907 L18.3944151,28.119907 Z" id="Shape"></path>
                        </g>
                        <g id="Group" transform="translate(38.566038, 0.000000)" fill="#666767">
                            <path d="M2.1829434,10.3393023 C2.16075472,10.3232558 2.13433962,10.3168372 2.11003774,10.3168372 C2.07516981,10.3168372 2.03924528,10.3307442 2.01283019,10.3606977 L0.418415094,12.208186 C0.396226415,12.236 0.38354717,12.2723721 0.389886792,12.309814 C0.394113208,12.346186 0.413132075,12.3761395 0.43954717,12.3996744 C1.69901887,13.3517674 3.43924528,14.8473023 5.75954717,16.974 C5.78173585,16.9953953 5.81449057,17.0071628 5.84513208,17.0071628 C5.88,17.0071628 5.91486792,16.9911163 5.94128302,16.9643721 C6.43260377,16.4177209 7.04015094,15.7448372 7.79033962,14.8954419 C7.81464151,14.8708372 7.82837736,14.8366047 7.82520755,14.7991628 C7.82309434,14.7638605 7.80513208,14.7317674 7.77871698,14.7082326 C5.56090566,12.8468372 3.67803774,11.3748372 2.1829434,10.3393023 L2.1829434,10.3393023 L2.1829434,10.3393023 Z" id="Shape"></path>
                            <path d="M6.93449057,20.7246047 C6.09026415,20.4368372 5.22701887,20.0806047 4.37116981,19.6623256 C4.35320755,19.6526977 4.33524528,19.6494884 4.31411321,19.6494884 C4.29298113,19.6494884 4.27501887,19.6537674 4.25811321,19.6623256 C4.22218868,19.6805116 4.19577358,19.7136744 4.18626415,19.7532558 C3.21524528,24.6164186 2.18611321,28.7756744 1.12845283,32.1122791 C1.11788679,32.1454419 1.12211321,32.181814 1.13796226,32.2149767 C1.15381132,32.2449302 1.18233962,32.2663256 1.21615094,32.2791628 L4.02354717,33.1157209 C4.0330566,33.1210698 4.04573585,33.1221395 4.0594717,33.1221395 C4.07954717,33.1221395 4.10279245,33.1157209 4.12392453,33.1050233 C4.15456604,33.087907 4.17781132,33.055814 4.18520755,33.0215814 C5.33267925,28.0386047 6.23184906,24.1810233 7.01901887,20.8797209 C7.03275472,20.8123256 7,20.746 6.93449057,20.7246047 L6.93449057,20.7246047 L6.93449057,20.7246047 Z" id="Shape"></path>
                            <path d="M3.43290566,1.7544186 C3.41071698,1.73623256 3.38218868,1.72660465 3.35260377,1.72660465 C3.31667925,1.72660465 3.28498113,1.74051163 3.25856604,1.77046512 L1.63562264,3.54413953 C1.60920755,3.57088372 1.59864151,3.60511628 1.60075472,3.64148837 C1.60392453,3.6767907 1.62083019,3.71102326 1.64724528,3.73455814 C3.35683019,5.16697674 4.984,6.71493023 6.48332075,8.33562791 C6.50762264,8.36344186 6.54037736,8.3784186 6.57630189,8.3784186 L6.57630189,8.3784186 C6.61328302,8.3784186 6.64709434,8.36344186 6.67139623,8.33562791 L8.52256604,6.33730233 C8.54581132,6.31162791 8.55849057,6.27846512 8.55849057,6.24316279 C8.55743396,6.2067907 8.5394717,6.17469767 8.51622642,6.15223256 C6.46218868,4.2715814 4.79803774,2.83381395 3.43290566,1.7544186 L3.43290566,1.7544186 L3.43290566,1.7544186 Z" id="Shape"></path>
                            <path d="M34.0332075,3.86934884 L23.2262642,3.86934884 L23.2178113,0.165813953 C23.2178113,0.0941395349 23.1607547,0.036372093 23.0889057,0.036372093 L20.098717,0.036372093 C20.0638491,0.036372093 20.0332075,0.0502790698 20.0067925,0.0759534884 C19.9835472,0.0994883721 19.9687547,0.132651163 19.9687547,0.166883721 L19.9782642,3.86934884 L9.09630189,3.86934884 C9.02656604,3.86934884 8.96739623,3.92711628 8.96739623,3.99986047 L8.96739623,5.90190698 C8.96739623,5.9735814 9.02656604,6.03134884 9.09630189,6.03134884 L13.714717,6.03134884 C13.8710943,6.41753488 14.045434,6.89037209 14.229283,7.39102326 C14.5832453,8.36130233 14.9868679,9.45460465 15.4486038,10.4655349 L12.8324528,10.4655349 C10.925283,10.4206047 10.0810566,11.1715814 10.1116981,13.3325116 L10.1116981,33.3671163 C10.1116981,33.4409302 10.1676981,33.4976279 10.2384906,33.4976279 L12.9433962,33.4976279 C13.0152453,33.4976279 13.0744151,33.4398605 13.0744151,33.3671163 L13.0744151,13.8566977 C13.0902642,13.0682791 13.3966792,12.742 14.1775094,12.7302326 L20.0818113,12.7302326 L20.0818113,15.9010233 L14.6508679,15.9010233 C14.5800755,15.9010233 14.5219623,15.9577209 14.5219623,16.0326047 L14.5219623,17.756 C14.5219623,17.8266047 14.5790189,17.8865116 14.6508679,17.8865116 L20.0818113,17.8865116 L20.0818113,21.252 L15.8733585,21.252 C15.802566,21.252 15.7433962,21.311907 15.7433962,21.3835814 L15.7433962,29.5876279 C15.7433962,29.6582326 15.8036226,29.7192093 15.8733585,29.7192093 L24.0092075,29.7192093 C24.2384906,29.7277674 24.4455849,29.7309767 24.6357736,29.7309767 C25.7874717,29.7309767 26.4246038,29.5555349 26.8356226,29.1201395 C27.2646038,28.6708372 27.4283774,27.9466047 27.3797736,26.7046047 L27.3797736,21.3835814 C27.3797736,21.311907 27.322717,21.252 27.2519245,21.252 L22.904,21.252 L22.904,17.8865116 L28.4754717,17.8865116 C28.5452075,17.8865116 28.6033208,17.8266047 28.6033208,17.756 L28.6033208,16.0326047 C28.6033208,15.9587907 28.5452075,15.9010233 28.4754717,15.9010233 L22.904,15.9010233 L22.904,12.7302326 L28.8199245,12.7302326 C29.7296604,12.7291628 29.9536604,13.2169767 29.9124528,14.1744186 L29.9124528,29.7823256 C29.9124528,30.6777209 29.2055849,30.8649302 28.6117736,30.8649302 L25.3363019,30.8649302 C25.301434,30.8649302 25.2676226,30.879907 25.2443774,30.9045116 C25.2211321,30.9291163 25.2073962,30.9622791 25.2073962,30.9986512 L25.2190189,33.1649302 C25.2211321,33.2376744 25.2750189,33.2954419 25.3468679,33.2954419 L29.7212075,33.2954419 C31.7921509,33.2954419 32.8413585,32.2866512 32.8413585,30.2990233 L32.8783396,13.4801395 C32.9026415,11.3395349 32.250717,10.4377209 29.7286038,10.4644651 L27.546717,10.4644651 C28.1468679,9.28344186 28.6540377,7.81893023 29.0671698,6.6304186 C29.1390189,6.42288372 29.2087547,6.22176744 29.2784906,6.03134884 L34.0310943,6.03134884 C34.1008302,6.03134884 34.1589434,5.9735814 34.1589434,5.90190698 L34.1589434,4.00093023 C34.16,3.92711628 34.1029434,3.86934884 34.0332075,3.86934884 L34.0332075,3.86934884 L34.0332075,3.86934884 Z M26.1361509,6.03134884 C25.8677736,6.67 25.1450566,8.53888372 24.6864906,9.71348837 C24.5586415,10.046186 24.4540377,10.3157674 24.3948679,10.4644651 L18.7283019,10.4644651 C18.6416604,10.2419535 18.4039245,9.69423256 18.0541887,8.88869767 C17.5924528,7.83497674 17.0377358,6.55553488 16.8338113,6.03134884 L26.1361509,6.03134884 L26.1361509,6.03134884 L26.1361509,6.03134884 Z M18.5803774,27.8792093 L18.5803774,23.3594419 L24.5417358,23.3594419 L24.5417358,26.4393023 C24.5195472,27.8214419 24.4952453,27.8214419 23.3097358,27.8727907 L23.1311698,27.8802791 L18.5803774,27.8802791 L18.5803774,27.8792093 L18.5803774,27.8792093 Z" id="Shape"></path>
                        </g>
                        <g id="Group" transform="translate(0.000000, 39.046512)" fill="#999999">
                            <path d="M27.4833208,1.14251163 L27.4833208,0.638651163 L34.0744151,0.638651163 L34.0744151,1.14251163 L30.7609057,1.14251163 L30.7609057,6.83688372 L30.1110943,6.83688372 L30.1110943,1.14251163 L27.4833208,1.14251163 L27.4833208,1.14251163 L27.4833208,1.14251163 Z M33.4763774,4.27906977 C32.6849811,3.72813953 31.8809057,3.28418605 31.0726038,2.95683721 L31.0926792,2.41874419 C32.037283,2.72148837 32.8202264,3.1707907 33.4763774,3.58906977 L33.4763774,4.27906977 L33.4763774,4.27906977 L33.4763774,4.27906977 Z" id="Shape"></path>
                            <path d="M42.6181132,4.94660465 L45.1793208,4.94660465 L45.1793208,4.55506977 L42.4733585,4.55506977 C42.4564528,4.49730233 42.448,4.42990698 42.448,4.35502326 L42.448,3.70246512 L45.2649057,3.70246512 L45.2649057,3.31627907 L42.4205283,3.31627907 L42.4205283,2.46046512 L44.7640755,2.46046512 L44.7640755,2.0667907 L42.4205283,2.0667907 L42.4205283,1.27837209 L45.0683774,1.27837209 L45.0683774,0.909302326 L43.7021887,0.909302326 C43.7930566,0.741348837 43.8522264,0.533813953 43.8701887,0.288837209 L43.2858868,0.288837209 C43.2658113,0.513488372 43.2087547,0.723162791 43.1178868,0.909302326 L41.1388679,0.909302326 C41.0606792,0.723162791 41.0152453,0.513488372 40.9962264,0.288837209 L40.4076981,0.288837209 C40.4467925,0.533813953 40.4964528,0.741348837 40.5556226,0.909302326 L39.1862642,0.909302326 L39.1862642,1.27837209 L41.8066415,1.27837209 L41.8066415,2.0667907 L39.5497358,2.0667907 L39.5497358,2.46046512 L41.8066415,2.46046512 L41.8066415,3.3152093 L39.0172075,3.3152093 L39.0172075,3.70139535 L41.8351698,3.70139535 L41.8351698,4.35395349 C41.8351698,4.39139535 41.8066415,4.53367442 41.8066415,4.554 L39.098566,4.554 L39.098566,4.94553488 L41.6671698,4.94553488 C41.3153208,5.5692093 40.3453585,6.01423256 38.9358491,6.23888372 L38.9358491,6.72669767 C40.421434,6.49883721 41.4917736,6.0195814 42.1447547,5.2835814 C42.7744906,6.0195814 43.848,6.49883721 45.3515472,6.72669767 L45.3515472,6.20572093 C43.8796981,5.86446512 42.9699623,5.57027907 42.6181132,4.94660465 L42.6181132,4.94660465 L42.6181132,4.94660465 Z" id="Shape"></path>
                            <g id="Shape">
                                <g id="Group">
                                    <path d="M0.517735849,2.10423256 C0.814641509,2.30962791 1.18550943,2.60381395 1.63984906,2.98251163 C1.48030189,3.15688372 1.35773585,3.29167442 1.2605283,3.39223256 C0.812528302,2.97395349 0.458566038,2.66693023 0.202867925,2.47544186 L0.517735849,2.10423256 L0.517735849,2.10423256 L0.517735849,2.10423256 Z" id="Shape"></path>
                                    <path d="M0.963622642,3.97525581 C1.14218868,4.06190698 1.31335849,4.13037209 1.48030189,4.18813953 C1.30807547,4.90060465 1.12,5.7072093 0.910792453,6.61437209 L0.35290566,6.44534884 C0.558943396,5.77460465 0.766037736,4.95302326 0.963622642,3.97525581 L0.963622642,3.97525581 L0.963622642,3.97525581 Z" id="Shape"></path>
                                    <path d="M0.770264151,0.390465116 C1.04286792,0.607627907 1.37992453,0.899674419 1.78354717,1.26981395 L1.41373585,1.66883721 C1.11260377,1.34255814 0.791396226,1.03660465 0.440603774,0.746697674 L0.770264151,0.390465116 L0.770264151,0.390465116 L0.770264151,0.390465116 Z" id="Shape"></path>
                                </g>
                                <path d="M5.54716981,4.29618605 L3.27758491,4.29618605 L3.27758491,5.93293023 L4.90369811,5.93293023 C5.40769811,5.94897674 5.56724528,5.87195349 5.54716981,5.36167442 L5.54716981,4.29618605 L5.54716981,4.29618605 L5.54716981,4.29618605 Z M4.72513208,5.61734884 L3.78792453,5.61734884 L3.78792453,4.66097674 L5.03049057,4.66097674 L5.03049057,5.30604651 C5.02626415,5.61734884 5.00090566,5.60665116 4.72513208,5.61734884 L4.72513208,5.61734884 L4.72513208,5.61734884 Z"></path>
                                <path d="M6.90596226,1.19386047 L6.90596226,0.820511628 L4.76316981,0.820511628 L4.77796226,0.144418605 L4.17781132,0.144418605 L4.16830189,0.820511628 L1.91879245,0.820511628 L1.91879245,1.19386047 L2.8570566,1.19386047 C2.95426415,1.43027907 3.07049057,1.81432558 3.22686792,2.13204651 L2.66264151,2.13204651 C2.2685283,2.1555814 2.16709434,2.28395349 2.14807547,2.68618605 L2.14807547,6.69032558 L2.68377358,6.69032558 L2.68377358,2.85093023 C2.70596226,2.66265116 2.80950943,2.55781395 3.00075472,2.53962791 L4.1429434,2.53962791 L4.1429434,3.2264186 L3.02611321,3.2264186 L3.02611321,3.56767442 L4.1429434,3.56767442 L4.1429434,4.30367442 L4.65116981,4.30367442 L4.65116981,3.56767442 L5.7965283,3.56767442 L5.7965283,3.2264186 L4.65116981,3.2264186 L4.65116981,2.53962791 L5.82188679,2.53962791 C6.00890566,2.53962791 6.10822642,2.64125581 6.10822642,2.85093023 L6.10822642,5.97786047 C6.10822642,6.12655814 6.00996226,6.21534884 5.82188679,6.21534884 L5.16573585,6.21534884 L5.16573585,6.65074419 L6.04166038,6.65074419 C6.44211321,6.65074419 6.64392453,6.45604651 6.64392453,6.07413953 L6.64920755,2.71613953 C6.64920755,2.27753488 6.496,2.13204651 6.04166038,2.13204651 L5.56513208,2.13204651 C5.7130566,1.84962791 5.84196226,1.46772093 5.9349434,1.19386047 L6.90596226,1.19386047 L6.90596226,1.19386047 L6.90596226,1.19386047 Z M4.99667925,2.13204651 L3.82596226,2.13204651 C3.80588679,2.07855814 3.46354717,1.31581395 3.42656604,1.19386047 L5.36332075,1.19386047 C5.32739623,1.27516279 5.03260377,2.04325581 4.99667925,2.13204651 L4.99667925,2.13204651 L4.99667925,2.13204651 Z"></path>
                            </g>
                            <g id="Shape" transform="translate(9.509434, 0.000000)">
                                <g id="Group">
                                    <path d="M0.372981132,2.10423256 C0.660377358,2.30962791 1.03335849,2.60381395 1.48558491,2.98251163 C1.33132075,3.15688372 1.20664151,3.29167442 1.11788679,3.39223256 C0.661433962,2.97395349 0.307471698,2.66693023 0.0517735849,2.47544186 L0.372981132,2.10423256 L0.372981132,2.10423256 L0.372981132,2.10423256 Z" id="Shape"></path>
                                    <path d="M0.809358491,3.97525581 C0.986867925,4.06190698 1.16015094,4.13037209 1.32392453,4.18813953 C1.15486792,4.90060465 0.966792453,5.7072093 0.758641509,6.61437209 L0.199698113,6.44534884 C0.40890566,5.77460465 0.614943396,4.95302326 0.809358491,3.97525581 L0.809358491,3.97525581 L0.809358491,3.97525581 Z" id="Shape"></path>
                                    <path d="M0.616,0.390465116 C0.885433962,0.607627907 1.22883019,0.899674419 1.62716981,1.26981395 L1.26158491,1.66883721 C0.958339623,1.34255814 0.638188679,1.03660465 0.292679245,0.746697674 L0.616,0.390465116 L0.616,0.390465116 L0.616,0.390465116 Z" id="Shape"></path>
                                </g>
                                <path d="M5.39184906,4.29618605 L3.12226415,4.29618605 L3.12226415,5.93293023 L4.74626415,5.93293023 C5.24920755,5.94897674 5.41509434,5.87195349 5.39184906,5.36167442 L5.39184906,4.29618605 L5.39184906,4.29618605 L5.39184906,4.29618605 Z M4.57298113,5.61734884 L3.63683019,5.61734884 L3.63683019,4.66097674 L4.88045283,4.66097674 L4.88045283,5.30604651 C4.8730566,5.61734884 4.84558491,5.60665116 4.57298113,5.61734884 L4.57298113,5.61734884 L4.57298113,5.61734884 Z"></path>
                                <path d="M6.7485283,1.19386047 L6.7485283,0.820511628 L4.61524528,0.820511628 L4.62158491,0.140139535 L4.02566038,0.140139535 L4.01403774,0.820511628 L1.76241509,0.820511628 L1.76241509,1.19386047 L2.70384906,1.19386047 C2.79683019,1.43027907 2.92784906,1.81432558 3.07788679,2.13204651 L2.51260377,2.13204651 C2.11743396,2.1555814 2.01177358,2.28395349 1.99381132,2.68618605 L1.99381132,6.69032558 L2.53479245,6.69032558 L2.53479245,2.85093023 C2.55381132,2.66265116 2.65735849,2.55781395 2.85071698,2.53962791 L3.98867925,2.53962791 L3.98867925,3.2264186 L2.87818868,3.2264186 L2.87818868,3.56767442 L3.98867925,3.56767442 L3.98867925,4.30367442 L4.49901887,4.30367442 L4.49901887,3.56767442 L5.63909434,3.56767442 L5.63909434,3.2264186 L4.49901887,3.2264186 L4.49901887,2.53962791 L5.66762264,2.53962791 C5.85675472,2.53962791 5.94762264,2.64125581 5.94762264,2.85093023 L5.94762264,5.97786047 C5.94762264,6.12655814 5.85675472,6.21534884 5.66762264,6.21534884 L5.00830189,6.21534884 L5.0114717,6.65074419 L5.88633962,6.65074419 C6.28679245,6.65074419 6.48754717,6.45604651 6.48754717,6.07413953 L6.49177358,2.714 C6.49177358,2.27646512 6.34490566,2.13204651 5.88950943,2.13204651 L5.40875472,2.13204651 C5.56090566,1.84962791 5.68664151,1.46772093 5.77645283,1.19386047 L6.7485283,1.19386047 L6.7485283,1.19386047 L6.7485283,1.19386047 Z M4.8434717,2.13204651 L3.67698113,2.13204651 C3.65479245,2.07855814 3.31350943,1.31581395 3.27758491,1.19386047 L5.21011321,1.19386047 C5.17313208,1.27516279 4.88045283,2.04325581 4.8434717,2.13204651 L4.8434717,2.13204651 L4.8434717,2.13204651 Z"></path>
                            </g>
                            <path d="M57.0523774,6.65288372 L57.0523774,3.83404651 L57.6588679,3.83404651 L57.6810566,6.21427907 L59.8851321,6.21427907 L59.8851321,3.31627907 L57.3123019,3.31627907 L57.3292075,0.665395349 L57.9050566,0.665395349 L57.9156226,2.84772093 L59.8861887,2.84772093 L59.8861887,0.217162791 L60.5624151,0.217162791 L60.5624151,2.84772093 L62.3237736,2.84772093 C62.5097358,2.83060465 62.6048302,2.72362791 62.6048302,2.53427907 L62.6048302,0.665395349 L63.1880755,0.665395349 L63.1880755,2.79209302 C63.1532075,3.10660465 62.9820377,3.27776744 62.6724528,3.31627907 L60.5624151,3.31627907 L60.5624151,6.21427907 L62.5287547,6.21427907 C62.7189434,6.21427907 62.8119245,6.11265116 62.8119245,5.92116279 L62.8119245,3.83404651 L63.4194717,3.83404651 L63.4194717,6.10302326 C63.3993962,6.44855814 63.1806792,6.63255814 62.7506415,6.65181395 L57.0523774,6.65181395 L57.0523774,6.65288372 L57.0523774,6.65288372 Z" id="Shape"></path>
                            <polygon id="Shape" points="18.8846792 3.06595349 18.8846792 2.54069767 24.8650566 2.54069767 24.8650566 3.07344186"></polygon>
                            <path d="M48.3586415,6.72562791 L47.9212075,6.40897674 C48.378717,6.01530233 48.8087547,5.57455814 49.1373585,5.03325581 C48.9070189,4.80004651 48.1251321,3.98702326 48.1251321,3.98702326 L48.6175094,1.64851163 L48.042717,1.64851163 L48.042717,1.20883721 L48.7041509,1.20883721 L48.8763774,0.220372093 L49.4511698,0.220372093 L49.2525283,1.20883721 L50.0555472,1.20455814 C50.5394717,1.1895814 50.5996981,1.35539535 50.6060377,1.82288372 C50.6123774,2.35134884 50.517283,2.91404651 50.3862642,3.39651163 C50.1516981,4.26088372 49.7998491,4.93055814 49.7998491,4.93055814 L50.8406038,5.9864186 L50.4623396,6.34051163 C50.1738868,6.06665116 49.8537358,5.76497674 49.5103396,5.43762791 C49.2789434,5.8484186 48.8964528,6.27204651 48.3586415,6.72562791 L48.3586415,6.72562791 L48.3586415,6.72562791 Z M49.4236981,4.48232558 C49.8051321,3.7655814 50.12,2.92581395 50.12,1.83893023 C50.12,1.68274419 50.013283,1.6495814 49.885434,1.64851163 L49.1944151,1.64851163 L48.765434,3.7784186 C48.7664906,3.7784186 49.3687547,4.42883721 49.4236981,4.48232558 L49.4236981,4.48232558 L49.4236981,4.48232558 Z M54.5228679,3.57195349 L52.909434,3.57195349 L52.909434,6.10837209 C52.909434,6.47851163 52.6590189,6.6635814 52.1613585,6.6635814 L50.8807547,6.68283721 L50.893434,6.22818605 L51.8443774,6.22818605 C52.1507925,6.24316279 52.2691321,6.13511628 52.2744151,5.8484186 L52.2744151,3.57195349 L50.5753962,3.57195349 L50.5753962,3.13655814 L52.2744151,3.13655814 L52.2744151,2.58027907 C52.8618868,2.0175814 53.2908679,1.58753488 53.7061132,1.14786047 L50.9219623,1.15855814 L50.9219623,0.684651163 L54.0114717,0.68572093 C54.2956981,0.675023256 54.5418868,0.990604651 54.2439245,1.30404651 C53.8836226,1.68060465 53.5190943,2.0732093 52.9020377,2.68404651 L52.909434,3.13655814 L54.5228679,3.13655814 L54.5228679,3.57195349 L54.5228679,3.57195349 L54.5228679,3.57195349 Z" id="Shape"></path>
                            <path d="M66.8861887,6.84972093 L66.8861887,3.91 C66.8058868,4.02553488 66.6727547,4.19027907 66.482566,4.40209302 C66.4624906,4.44702326 66.4434717,4.47483721 66.426566,4.49409302 L65.9975849,4.19990698 C66.5301132,3.57516279 66.981283,2.89906977 67.3458113,2.15986047 L67.8931321,2.15986047 C67.6649057,2.68190698 67.4398491,3.18469767 67.4398491,3.18469767 L67.4916226,6.8507907 L66.8861887,6.8507907 L66.8861887,6.84972093 L66.8861887,6.84972093 Z M66.5079245,2.39627907 L66.0778868,2.13632558 C66.5417358,1.59181395 66.9432453,0.968139535 67.2866415,0.273860465 L67.8635472,0.273860465 C67.474717,1.0612093 67.026717,1.77367442 66.5079245,2.39627907 L66.5079245,2.39627907 L66.5079245,2.39627907 Z M69.597434,6.76093023 L69.5889811,6.32660465 L70.6223396,6.32660465 C70.8336604,6.3447907 70.9372075,6.24637209 70.9372075,6.03669767 L70.9372075,2.97823256 L68.2037736,2.97823256 L68.2037736,2.54283721 L72.6922264,2.54283721 L72.6922264,2.97823256 L71.5447547,2.97823256 L71.5447547,6.24102326 C71.5035472,6.55018605 71.3207547,6.7224186 70.9942642,6.76093023 L69.597434,6.76093023 L69.597434,6.76093023 L69.597434,6.76093023 Z M68.5830943,0.967069767 L68.5830943,0.500651163 L72.4048302,0.500651163 L72.4048302,0.967069767 L68.5830943,0.967069767 L68.5830943,0.967069767 L68.5830943,0.967069767 Z" id="Shape"></path>
                        </g>
                    </g>
                    <g id="Shape">
                        <path d="M28.5800755,35.8307907 C38.1349434,35.5269767 45.7107925,27.8310698 45.8217358,18.2737674 L45.8206792,10.0547442 L56.3338868,10.0547442 L56.3338868,19.1413488 C56.1289057,33.920186 43.4380377,45.5795814 28.5800755,45.9144186 L28.5800755,45.9122791 C13.4759245,45.8181395 0.691018868,34.0753023 0.482867925,19.1402791 L0.482867925,2.806 C0.458566038,1.13502326 1.53418868,0.0513488372 3.15501887,0.0770232558 L45.8153962,0.0748837209 L45.8153962,10.0515349 L12.3633208,10.060093 C11.5043019,10.060093 10.9907925,10.5896279 10.9907925,11.4507907 L10.9907925,18.1068837 C11.1038491,27.7925581 18.8096604,35.7323721 28.5790189,35.8307907 L28.5800755,35.8307907 L28.5800755,35.8307907 L28.5800755,35.8307907 Z" fill="url(#linearGradient-1)"></path>
                        <path d="M45.0451321,0.854744186 L45.0451321,9.27167442 L12.3643774,9.27916279 C11.0816604,9.27916279 10.2205283,10.1510233 10.2205283,11.4497209 L10.2205283,18.1154419 C10.2775849,23.0235349 12.1953208,27.6406512 15.618717,31.114186 C19.0473962,34.5930698 23.621434,36.5432558 28.504,36.6095814 L28.5219623,36.6127907 L28.6043774,36.6106512 C38.5755472,36.294 46.4768302,28.2429302 46.5930566,18.2737674 L46.592,10.8346047 L55.5636226,10.8346047 L55.5636226,19.1306512 C55.4685283,25.9996279 52.5776604,32.4792093 47.4246038,37.3755349 C42.3486792,42.1991163 35.6857358,44.9516279 28.6540377,45.1324186 L28.5853585,45.1324186 C21.4215849,45.0874884 14.6339623,42.384186 9.47139623,37.5210233 C4.26973585,32.6204186 1.35139623,26.0884186 1.25418868,19.1413488 L1.25418868,2.79530233 C1.24573585,2.19623256 1.41479245,1.70093023 1.74339623,1.36181395 C2.06460377,1.03125581 2.53479245,0.856883721 3.10113208,0.856883721 L3.15607547,0.856883721 L45.0451321,0.854744186 L45.0451321,0.854744186 L45.0451321,0.854744186 Z M45.8164528,0.0748837209 L3.15607547,0.0770232558 L3.10113208,0.0770232558 C1.5109434,0.0770232558 0.458566038,1.15534884 0.482867925,2.80706977 L0.482867925,19.1413488 C0.691018868,34.0753023 13.4759245,45.8192093 28.5800755,45.9133488 L28.5800755,45.9154884 C43.4380377,45.5795814 56.1289057,33.9212558 56.3338868,19.1424186 L56.3338868,10.055814 L45.8206792,10.055814 L45.8217358,18.2748372 C45.7107925,27.8310698 38.1338868,35.5280465 28.5800755,35.8318605 L28.5790189,35.8318605 C18.8096604,35.7334419 11.1049057,27.7936279 10.9907925,18.1079535 L10.9907925,11.4518605 C10.9907925,10.5917674 11.5053585,10.0611628 12.3633208,10.0611628 L45.8153962,10.0526047 L45.8153962,0.0748837209 L45.8164528,0.0748837209 L45.8164528,0.0748837209 L45.8164528,0.0748837209 Z" fill="url(#linearGradient-2)"></path>
                        <path d="M28.5800755,35.8307907 C38.1349434,35.5269767 45.7107925,27.8310698 45.8217358,18.2737674 L45.8206792,10.0547442 L56.3338868,10.0547442 L56.3338868,19.1413488 C56.1289057,33.920186 43.4380377,45.5795814 28.5800755,45.9144186 L28.5800755,45.9122791 C13.4759245,45.8181395 0.691018868,34.0753023 0.482867925,19.1402791 L0.482867925,2.806 C0.458566038,1.13502326 1.53418868,0.0513488372 3.15501887,0.0770232558 L45.8153962,0.0748837209 L45.8153962,10.0515349 L12.3633208,10.060093 C11.5043019,10.060093 10.9907925,10.5896279 10.9907925,11.4507907 L10.9907925,18.1068837 C11.1038491,27.7925581 18.8096604,35.7323721 28.5790189,35.8307907 L28.5800755,35.8307907 L28.5800755,35.8307907 L28.5800755,35.8307907 Z" fill="url(#linearGradient-3)"></path>
                    </g>
                </g>
            </g>
        </g>
    </g>
</svg>