<?xml version="1.0" encoding="UTF-8"?>
<svg width="170px" height="100px" viewBox="0 0 170 100" version="1.1" xmlns="http://www.w3.org/2000/svg" xmlns:xlink="http://www.w3.org/1999/xlink">
    <!-- Generator: Sketch 44 (41411) - http://www.bohemiancoding.com/sketch -->
    <title>enterprise-02</title>
    <desc>Created with Sketch.</desc>
    <defs></defs>
    <g id="_____Page" stroke="none" stroke-width="1" fill="none" fill-rule="evenodd">
        <g id="about" transform="translate(-485.000000, -2082.000000)">
            <g id="section-3" transform="translate(0.000000, 1721.000000)">
                <rect id="background" fill="#FFFFFF" x="0" y="0" width="1440" height="860"></rect>
                <g id="enterprise-02" transform="translate(435.000000, 331.000000)">
                    <g transform="translate(50.000000, 30.000000)">
                        <rect id="Rectangle-3-Copy" x="0" y="0" width="170" height="100"></rect>
                        <g id="logo-color-didi" transform="translate(15.000000, 27.000000)" fill-rule="nonzero" fill="#C6CBD9">
                            <g id="Group" transform="translate(66.685228, 0.000000)">
                                <path d="M1.98585458,10.3438429 C1.9638012,10.329199 1.93859733,10.321877 1.91444363,10.321877 C1.87873815,10.321877 1.845133,10.3365209 1.81887897,10.3637168 L0.235236079,12.1701499 C0.211082375,12.1983917 0.200580764,12.2318636 0.202681086,12.2684734 C0.204781408,12.3050832 0.224734468,12.3343711 0.254138978,12.3573829 C1.50698113,13.2872724 3.23659641,14.7506191 5.53959963,16.8300568 C5.5648035,16.8509767 5.59630833,16.8635287 5.626763,16.8635287 C5.65931799,16.8635287 5.69607363,16.8478388 5.7212775,16.8206429 C6.20960239,16.2861395 6.81239485,15.6282088 7.56115969,14.7987349 C7.58426323,14.773631 7.59686516,14.7391132 7.59161436,14.7045953 C7.5905642,14.6711235 7.57376162,14.6376517 7.54855775,14.6146398 C5.34637,12.7956548 3.47288265,11.3574119 1.98585458,10.3438429 L1.98585458,10.3438429 L1.98585458,10.3438429 Z" id="Shape"></path>
                                <path d="M6.7084289,20.4983607 C5.86830005,20.2180341 5.0145191,19.8697178 4.15863783,19.4596879 C4.14288541,19.4523659 4.12293235,19.4481819 4.10402945,19.4481819 C4.08617671,19.4481819 4.06517349,19.4523659 4.04732075,19.4596879 C4.01266544,19.4785158 3.98641141,19.5098956 3.97906029,19.5496434 C3.01081178,24.3047359 1.9879549,28.3715638 0.938843994,31.6340217 C0.927292223,31.6664475 0.933593189,31.7020114 0.946195122,31.7344372 C0.961947538,31.7637251 0.991352048,31.785691 1.02285688,31.7971969 L3.81313484,32.6162109 C3.82258629,32.6214408 3.83728854,32.6224868 3.84989047,32.6224868 C3.87194386,32.6224868 3.89399724,32.6162109 3.91500046,32.6057509 C3.94545513,32.587969 3.96750851,32.5576351 3.97380948,32.5241633 C5.1142844,27.6519194 6.00902163,23.879016 6.79139162,20.651076 C6.8081942,20.5851783 6.77248873,20.5192806 6.7084289,20.4983607 L6.7084289,20.4983607 L6.7084289,20.4983607 Z" id="Shape"></path>
                                <path d="M3.22924528,1.95078036 C3.20824206,1.93195245 3.17883755,1.9235845 3.14943304,1.9235845 C3.11477773,1.9235845 3.08012241,1.93613643 3.05596871,1.96542429 L1.44397147,3.69968372 C1.41981776,3.7247876 1.40721583,3.76035142 1.41036631,3.79591525 C1.41141647,3.82938708 1.42926921,3.86285891 1.45762356,3.8858708 C3.15678417,5.28541189 4.77193189,6.79896641 6.26106029,8.38469457 C6.28626415,8.41189044 6.31881914,8.42653437 6.35557478,8.42653437 L6.35557478,8.42653437 C6.39128026,8.42653437 6.42593557,8.41189044 6.45113944,8.38469457 L8.29102163,6.43182222 C8.31307501,6.40567235 8.32672711,6.37220052 8.32357662,6.33872868 C8.32357662,6.30316486 8.30782421,6.27178501 8.28157018,6.24877313 C6.23795674,4.41096021 4.58710354,3.00618915 3.22924528,1.95078036 L3.22924528,1.95078036 L3.22924528,1.95078036 Z" id="Shape"></path>
                                <path d="M33.6419098,4.01871214 L22.9019126,4.01871214 L22.8945614,0.397478036 C22.8945614,0.326350388 22.8347023,0.269866667 22.7632913,0.269866667 L19.7913355,0.269866667 C19.7598306,0.269866667 19.7272757,0.283464599 19.7010216,0.308568475 C19.6800184,0.331580362 19.664266,0.364006202 19.664266,0.398524031 L19.6726673,4.01871214 L8.85705844,4.01871214 C8.78774781,4.01871214 8.73103912,4.07519587 8.73103912,4.14632351 L8.73103912,6.00505633 C8.73103912,6.07618398 8.78774781,6.1326677 8.85705844,6.1326677 L13.4462623,6.1326677 C13.6016861,6.50922584 13.7739126,6.97260155 13.9587409,7.46212713 C14.3126452,8.41084444 14.7117064,9.47880517 15.1716769,10.4672703 L12.5735785,10.4672703 C10.6790879,10.4233385 9.83895904,11.1586729 9.86731339,13.2715824 L9.86731339,32.8609736 C9.86731339,32.9321013 9.92402209,32.988585 9.99543304,32.988585 L12.6838454,32.988585 C12.753156,32.988585 12.8109149,32.9321013 12.8109149,32.8609736 L12.8109149,13.7830739 C12.8287676,13.0111297 13.1354146,12.6931473 13.9083332,12.6816413 L19.7755831,12.6816413 L19.7755831,15.78197 L14.3798555,15.78197 C14.3084445,15.78197 14.2517358,15.8374078 14.2517358,15.9095814 L14.2517358,17.5946791 C14.2517358,17.6647607 14.3084445,17.7233364 14.3798555,17.7233364 L19.7755831,17.7233364 L19.7755831,21.0150822 L15.5938417,21.0150822 C15.5213806,21.0150822 15.4646719,21.0736579 15.4646719,21.1426935 L15.4646719,29.1644279 C15.4646719,29.2334636 15.5213806,29.2930853 15.5938417,29.2930853 L23.6800819,29.2930853 C23.909017,29.3014532 24.1127483,29.3056372 24.3038776,29.3056372 C25.4485532,29.3056372 26.0786498,29.1330481 26.4903129,28.7083742 C26.9156282,28.2690563 27.0763028,27.5609178 27.0300957,26.3465178 L27.0300957,21.1437395 C27.0300957,21.0736579 26.973387,21.0161282 26.9019761,21.0161282 L22.5826636,21.0161282 L22.5826636,17.7243824 L28.1159623,17.7243824 C28.1884234,17.7243824 28.2451321,17.6658067 28.2451321,17.5957251 L28.2451321,15.9095814 C28.2451321,15.8363618 28.1884234,15.78197 28.1159623,15.78197 L22.5826636,15.78197 L22.5826636,12.6816413 L28.4614653,12.6816413 C29.3656539,12.6805953 29.5882881,13.157569 29.5473318,14.0937344 L29.5473318,29.355845 C29.5473318,30.2313426 28.8468744,30.4154377 28.2566838,30.4154377 L24.9980341,30.4154377 C24.9644289,30.4154377 24.9329241,30.4300817 24.9087704,30.4530935 C24.8846167,30.4771514 24.8730649,30.5095773 24.8730649,30.5451411 L24.8814662,32.6643266 C24.8814662,32.7344083 24.939225,32.792984 25.0085357,32.792984 L29.353052,32.792984 C31.4124179,32.792984 32.4583783,31.8055649 32.4583783,29.8621065 L32.4930336,13.4169757 C32.5171873,11.324986 31.8734386,10.4421664 29.3656539,10.4672703 L27.1991717,10.4672703 C27.7935628,9.31249199 28.2986903,7.88157106 28.7082531,6.7194708 C28.7817644,6.51550181 28.8500249,6.31885478 28.9172352,6.1337137 L33.6419098,6.1337137 C33.7143709,6.1337137 33.7700295,6.07722997 33.7700295,6.00610233 L33.7700295,4.14736951 C33.7700295,4.07519587 33.7143709,4.01871214 33.6419098,4.01871214 L33.6419098,4.01871214 L33.6419098,4.01871214 Z M25.7951063,6.1326677 C25.5294156,6.75712661 24.8079549,8.58447959 24.3553355,9.73193592 C24.2272158,10.0593323 24.1211496,10.321877 24.0633907,10.4672703 L18.4334772,10.4672703 C18.3442135,10.2497034 18.1079273,9.71415401 17.760324,8.9265199 C17.3045541,7.89621499 16.7521694,6.64415917 16.5515886,6.1326677 L25.7951063,6.1326677 L25.7951063,6.1326677 L25.7951063,6.1326677 Z M18.282254,27.4950202 L18.282254,23.074646 L24.2083129,23.074646 L24.2083129,26.0850191 C24.1852094,27.4364444 24.1652563,27.4374904 22.9848753,27.4866522 L22.8052977,27.4939742 L18.282254,27.4939742 L18.282254,27.4950202 L18.282254,27.4950202 Z" id="Shape"></path>
                            </g>
                            <g id="Group" transform="translate(105.016107, 0.000000)">
                                <path d="M2.16963277,10.1095401 C2.14757938,10.0938501 2.12132536,10.0875742 2.09717165,10.0875742 C2.06251634,10.0875742 2.02681086,10.1011721 2.00055683,10.1304599 L0.415863783,11.936893 C0.3938104,11.9640889 0.381208468,11.9996527 0.387509434,12.0362625 C0.391710078,12.0718264 0.410612977,12.1011142 0.436867004,12.1241261 C1.688659,13.0550615 3.41827428,14.5173623 5.72442798,16.5968 C5.74648136,16.6177199 5.77903636,16.6292258 5.80949103,16.6292258 C5.84414634,16.6292258 5.87880166,16.6135359 5.90505568,16.587386 C6.39338058,16.0528827 6.99722319,15.3949519 7.74283755,14.564432 C7.76699126,14.5403742 7.78064335,14.5069023 7.77749287,14.4702925 C7.77539254,14.4357747 7.75753981,14.4043948 7.73128578,14.3813829 C5.5269977,12.5613519 3.65561068,11.122063 2.16963277,10.1095401 L2.16963277,10.1095401 L2.16963277,10.1095401 Z" id="Shape"></path>
                                <path d="M6.89220709,20.2640579 C6.05312839,19.9826853 5.1951468,19.634369 4.34451634,19.225385 C4.3266636,19.2159711 4.30881086,19.2128331 4.28780764,19.2128331 C4.26680442,19.2128331 4.24895168,19.2170171 4.2321491,19.225385 C4.19644363,19.2431669 4.1701896,19.2755928 4.16073815,19.3142946 C3.19564013,24.0693871 2.17278325,28.136215 1.12157202,31.3986729 C1.11107041,31.4310987 1.11527105,31.4666625 1.13102347,31.4990884 C1.14677589,31.5283762 1.17513023,31.5492961 1.20873539,31.5618481 L3.99901335,32.379816 C4.0084648,32.385046 4.02106673,32.386092 4.03471882,32.386092 C4.05467188,32.386092 4.07777543,32.379816 4.09877865,32.3693561 C4.12923332,32.3526202 4.15233686,32.3212403 4.15968799,32.2877685 C5.30016291,27.4155245 6.19384998,23.6436672 6.97621997,20.4157271 C6.98987207,20.3498295 6.95731707,20.2849778 6.89220709,20.2640579 L6.89220709,20.2640579 L6.89220709,20.2640579 Z" id="Shape"></path>
                                <path d="M3.41197331,1.71543152 C3.38991993,1.69764961 3.36156558,1.68823566 3.33216107,1.68823566 C3.29645559,1.68823566 3.26495076,1.70183359 3.23869673,1.73112145 L1.62564933,3.46538088 C1.59939531,3.49153075 1.5888937,3.52500258 1.59099402,3.56056641 C1.5941445,3.59508424 1.61094708,3.62855607 1.6372011,3.65156796 C3.33636171,5.05215504 4.95360976,6.56570956 6.44378831,8.15039173 C6.46794202,8.1775876 6.50049701,8.19223152 6.53620249,8.19223152 L6.53620249,8.19223152 C6.57295812,8.19223152 6.60656328,8.1775876 6.63071698,8.15039173 L8.47059917,6.19647339 C8.49370272,6.17136951 8.50630465,6.13894367 8.50630465,6.10442584 C8.50525449,6.06886202 8.48740175,6.03748217 8.46429821,6.01551628 C6.42278509,4.17665736 4.76878141,2.77084031 3.41197331,1.71543152 L3.41197331,1.71543152 L3.41197331,1.71543152 Z" id="Shape"></path>
                                <path d="M33.825688,3.78336331 L23.0846406,3.78336331 L23.0762393,0.162129199 C23.0762393,0.0920475452 23.0195306,0.0355638243 22.9481197,0.0355638243 L19.9761638,0.0355638243 C19.9415085,0.0355638243 19.9110538,0.0491617571 19.8847998,0.0742656331 C19.8616963,0.0972775194 19.846994,0.129703359 19.846994,0.163175194 L19.8564455,3.78336331 L9.04083663,3.78336331 C8.971526,3.78336331 8.91271698,3.83984703 8.91271698,3.91097468 L8.91271698,5.77075349 C8.91271698,5.84083514 8.971526,5.89731886 9.04083663,5.89731886 L13.6310907,5.89731886 C13.7865145,6.274923 13.9597911,6.73725271 14.1425191,7.22677829 C14.4943231,8.17549561 14.8954846,9.24450233 15.354405,10.2329674 L12.7542062,10.2329674 C10.8586654,10.1890357 10.0195867,10.923324 10.0500414,13.0362336 L10.0500414,32.6256248 C10.0500414,32.6977984 10.1057,32.7532362 10.1760607,32.7532362 L12.8644731,32.7532362 C12.935884,32.7532362 12.9946931,32.6967525 12.9946931,32.6256248 L12.9946931,13.5487711 C13.0104455,12.7778729 13.3149922,12.4588444 14.0910612,12.4473385 L19.9593613,12.4473385 L19.9593613,15.5476672 L14.5615334,15.5476672 C14.4911726,15.5476672 14.4334137,15.6031049 14.4334137,15.6763245 L14.4334137,17.3614222 C14.4334137,17.4304579 14.4901224,17.4890336 14.5615334,17.4890336 L19.9593613,17.4890336 L19.9593613,20.7797333 L15.7765697,20.7797333 C15.7062089,20.7797333 15.6473999,20.838309 15.6473999,20.9083907 L15.6473999,28.9301251 C15.6473999,28.9991607 15.7072591,29.0587824 15.7765697,29.0587824 L23.8628099,29.0587824 C24.0906949,29.0671504 24.2965265,29.0702884 24.4855555,29.0702884 C25.630231,29.0702884 26.2634781,28.8987452 26.6719908,28.4730253 C27.0983562,28.0337075 27.2611312,27.325569 27.2128237,26.111169 L27.2128237,20.9083907 C27.2128237,20.838309 27.156115,20.7797333 27.0857543,20.7797333 L22.7643415,20.7797333 L22.7643415,17.4890336 L28.3018408,17.4890336 C28.3711514,17.4890336 28.4289103,17.4304579 28.4289103,17.3614222 L28.4289103,15.6763245 C28.4289103,15.6041509 28.3711514,15.5476672 28.3018408,15.5476672 L22.7643415,15.5476672 L22.7643415,12.4473385 L28.6441933,12.4473385 C29.548382,12.4462925 29.7710161,12.9232661 29.7300598,13.8594315 L29.7300598,29.1204961 C29.7300598,29.9959938 29.0275021,30.1790429 28.4373116,30.1790429 L25.1818122,30.1790429 C25.1471569,30.1790429 25.1135518,30.1936868 25.0904482,30.2177447 C25.0673447,30.2418026 25.0536926,30.2742284 25.0536926,30.3097922 L25.0652444,32.4279318 C25.0673447,32.4990594 25.1209029,32.5555432 25.1923139,32.5555432 L29.5399807,32.5555432 C31.5982964,32.5555432 32.6411063,31.56917 32.6411063,29.6257116 L32.6778619,13.1805809 C32.7020156,11.0875452 32.0540663,10.2057716 29.5473318,10.2319214 L27.3787492,10.2319214 C27.9752407,9.07714315 28.479318,7.64517623 28.889931,6.48307597 C28.9613419,6.28015297 29.0306526,6.08350594 29.0999632,5.89731886 L33.8235877,5.89731886 C33.8928983,5.89731886 33.9506572,5.84083514 33.9506572,5.77075349 L33.9506572,3.91202067 C33.9517073,3.83984703 33.8949986,3.78336331 33.825688,3.78336331 L33.825688,3.78336331 L33.825688,3.78336331 Z M25.9767842,5.89731886 C25.7100433,6.52177778 24.9917331,8.34913075 24.5359632,9.49763307 C24.4088937,9.82293747 24.3049277,10.0865282 24.2461187,10.2319214 L18.6141049,10.2319214 C18.5279917,10.0143545 18.2917055,9.47880517 17.9441022,8.69117106 C17.4851818,7.66086615 16.9338472,6.40985633 16.7311661,5.89731886 L25.9767842,5.89731886 L25.9767842,5.89731886 L25.9767842,5.89731886 Z M18.4670824,27.2596713 L18.4670824,22.8403432 L24.3920911,22.8403432 L24.3920911,25.8517623 C24.3700377,27.2031876 24.345884,27.2031876 23.1676033,27.2533953 L22.9901261,27.2607173 L18.4670824,27.2607173 L18.4670824,27.2596713 L18.4670824,27.2596713 Z" id="Shape"></path>
                            </g>
                            <g id="Group" transform="translate(66.685228, 38.178811)">
                                <path d="M27.3157395,1.11712248 L27.3157395,0.624458915 L33.8666443,0.624458915 L33.8666443,1.11712248 L30.5733392,1.11712248 L30.5733392,6.68495297 L29.9274901,6.68495297 L29.9274901,1.11712248 L27.3157395,1.11712248 L27.3157395,1.11712248 L27.3157395,1.11712248 Z M33.2722531,4.18397933 C32.4856825,3.64529199 31.6865099,3.21120413 30.8831367,2.89112972 L30.9030897,2.36499432 C31.8419337,2.66101085 32.6201031,3.10032868 33.2722531,3.50931266 L33.2722531,4.18397933 L33.2722531,4.18397933 L33.2722531,4.18397933 Z" id="Shape"></path>
                                <path d="M42.3582467,4.8366801 L44.9038371,4.8366801 L44.9038371,4.45384599 L42.2143746,4.45384599 C42.197572,4.39736227 42.1891707,4.3314646 42.1891707,4.25824496 L42.1891707,3.62018811 L44.9889001,3.62018811 L44.9889001,3.24258398 L42.1618665,3.24258398 L42.1618665,2.40578811 L44.4911238,2.40578811 L44.4911238,2.02086202 L42.1618665,2.02086202 L42.1618665,1.24996382 L44.7935702,1.24996382 L44.7935702,0.889095607 L43.4357119,0.889095607 C43.5260258,0.724874419 43.5848348,0.521951421 43.6026875,0.282418605 L43.0219485,0.282418605 C43.0019954,0.502077519 42.9452867,0.707092506 42.8549728,0.889095607 L40.8880212,0.889095607 C40.8103092,0.707092506 40.7651523,0.502077519 40.7462494,0.282418605 L40.1613097,0.282418605 C40.2001657,0.521951421 40.2495232,0.724874419 40.3083323,0.889095607 L38.9473235,0.889095607 L38.9473235,1.24996382 L41.551723,1.24996382 L41.551723,2.02086202 L39.3085789,2.02086202 L39.3085789,2.40578811 L41.551723,2.40578811 L41.551723,3.24153798 L38.7792977,3.24153798 L38.7792977,3.61914212 L41.5800773,3.61914212 L41.5800773,4.25719897 C41.5800773,4.29380879 41.551723,4.4329261 41.551723,4.4528 L38.8601601,4.4528 L38.8601601,4.83563411 L41.4131017,4.83563411 C41.0633981,5.4454491 40.0993502,5.88058295 38.6984353,6.10024186 L38.6984353,6.5772155 C40.1749618,6.3544186 41.238775,5.88581292 41.8877745,5.16616848 C42.5136705,5.88581292 43.5806341,6.3544186 45.0750133,6.5772155 L45.0750133,6.06781602 C43.612139,5.73414367 42.7079503,5.44649509 42.3582467,4.8366801 L42.3582467,4.8366801 L42.3582467,4.8366801 Z" id="Shape"></path>
                                <g id="Shape">
                                    <g id="Group">
                                        <path d="M0.514578923,2.05747183 C0.809674183,2.25830284 1.17828072,2.54595142 1.62984998,2.91623359 C1.47127566,3.08673075 1.34945697,3.2185261 1.25284215,3.31684961 C0.807573861,2.90786563 0.455769903,2.60766512 0.201630925,2.42043204 L0.514578923,2.05747183 L0.514578923,2.05747183 L0.514578923,2.05747183 Z" id="Shape"></path>
                                        <path d="M0.957746894,3.8869168 C1.13522411,3.97164238 1.30535021,4.03858605 1.47127566,4.09506977 C1.3000994,4.79170233 1.11317073,5.58038243 0.90523884,6.46738605 L0.350753797,6.30211886 C0.555535205,5.6462801 0.761366774,4.84295607 0.957746894,3.8869168 L0.957746894,3.8869168 L0.957746894,3.8869168 Z" id="Shape"></path>
                                        <path d="M0.765567418,0.381788114 C1.03650897,0.594125065 1.37151035,0.879681654 1.77267188,1.24159587 L1.40511551,1.63175194 C1.1058196,1.31272351 0.78657064,1.01356899 0.437917165,0.730104393 L0.765567418,0.381788114 L0.765567418,0.381788114 L0.765567418,0.381788114 Z" id="Shape"></path>
                                    </g>
                                    <path d="M5.51334561,4.20071525 L3.25759963,4.20071525 L3.25759963,5.80108734 L4.87379751,5.80108734 C5.37472434,5.81677726 5.53329867,5.74146563 5.51334561,5.2425261 L5.51334561,4.20071525 L5.51334561,4.20071525 L5.51334561,4.20071525 Z M4.69632029,5.49251886 L3.76482743,5.49251886 L3.76482743,4.55739948 L4.99981684,4.55739948 L4.99981684,5.18813437 C4.9956162,5.49251886 4.97041233,5.48205891 4.69632029,5.49251886 L4.69632029,5.49251886 L4.69632029,5.49251886 Z"></path>
                                    <path d="M6.86385274,1.16733023 L6.86385274,0.802278036 L4.73412609,0.802278036 L4.74882835,0.141209302 L4.15233686,0.141209302 L4.14288541,0.802278036 L1.9070925,0.802278036 L1.9070925,1.16733023 L2.83963553,1.16733023 C2.93625035,1.39849509 3.05176806,1.77400724 3.2071919,2.0846677 L2.64640589,2.0846677 C2.25469581,2.10767959 2.15388035,2.23319897 2.13497745,2.62649302 L2.13497745,6.54165168 L2.66740911,6.54165168 L2.66740911,2.78757623 C2.68946249,2.60348114 2.79237828,2.50097364 2.98245743,2.48319173 L4.11768155,2.48319173 L4.11768155,3.15472041 L3.0076613,3.15472041 L3.0076613,3.48839276 L4.11768155,3.48839276 L4.11768155,4.20803721 L4.62280902,4.20803721 L4.62280902,3.48839276 L5.76118362,3.48839276 L5.76118362,3.15472041 L4.62280902,3.15472041 L4.62280902,2.48319173 L5.78638748,2.48319173 C5.97226599,2.48319173 6.07098113,2.58256124 6.07098113,2.78757623 L6.07098113,5.84501912 C6.07098113,5.9904124 5.97331615,6.07722997 5.78638748,6.07722997 L5.13423746,6.07722997 L5.13423746,6.50294987 L6.00482098,6.50294987 C6.40283203,6.50294987 6.60341279,6.31257881 6.60341279,5.93915866 L6.6086636,2.65578088 C6.6086636,2.226923 6.45639024,2.0846677 6.00482098,2.0846677 L5.53119834,2.0846677 C5.67822089,1.80852506 5.80634054,1.43510491 5.89875472,1.16733023 L6.86385274,1.16733023 L6.86385274,1.16733023 L6.86385274,1.16733023 Z M4.96621169,2.0846677 L3.80263323,2.0846677 C3.78268017,2.03236796 3.44242798,1.28657364 3.40567234,1.16733023 L5.33061758,1.16733023 C5.2949121,1.24682584 5.00191717,1.99785013 4.96621169,2.0846677 L4.96621169,2.0846677 L4.96621169,2.0846677 Z"></path>
                                </g>
                                <g id="Shape" transform="translate(9.451450, 0.000000)">
                                    <g id="Group">
                                        <path d="M0.370706857,2.05747183 C0.656350667,2.25830284 1.02705752,2.54595142 1.47652646,2.91623359 C1.32320295,3.08673075 1.19928394,3.2185261 1.11107041,3.31684961 C0.657400828,2.90786563 0.305596871,2.60766512 0.0514578923,2.42043204 L0.370706857,2.05747183 L0.370706857,2.05747183 L0.370706857,2.05747183 Z" id="Shape"></path>
                                        <path d="M0.804423378,3.8869168 C0.980850437,3.97164238 1.15307685,4.03858605 1.31585182,4.09506977 C1.14782605,4.79170233 0.960897377,5.58038243 0.754015647,6.46738605 L0.198480442,6.30211886 C0.406412333,5.6462801 0.611193741,4.84295607 0.804423378,3.8869168 L0.804423378,3.8869168 L0.804423378,3.8869168 Z" id="Shape"></path>
                                        <path d="M0.612243902,0.381788114 C0.880034975,0.594125065 1.22133732,0.879681654 1.61724804,1.24159587 L1.25389231,1.63175194 C0.952496088,1.31272351 0.634297285,1.01356899 0.290894616,0.730104393 L0.612243902,0.381788114 L0.612243902,0.381788114 L0.612243902,0.381788114 Z" id="Shape"></path>
                                    </g>
                                    <path d="M5.35897193,4.20071525 L3.10322595,4.20071525 L3.10322595,5.80108734 L4.71732352,5.80108734 C5.21720018,5.81677726 5.38207547,5.74146563 5.35897193,5.2425261 L5.35897193,4.20071525 L5.35897193,4.20071525 L5.35897193,4.20071525 Z M4.5450971,5.49251886 L3.61465439,5.49251886 L3.61465439,4.55739948 L4.85069397,4.55739948 L4.85069397,5.18813437 C4.84334284,5.49251886 4.81603866,5.48205891 4.5450971,5.49251886 L4.5450971,5.49251886 L4.5450971,5.49251886 Z"></path>
                                    <path d="M6.70737874,1.16733023 L6.70737874,0.802278036 L4.58710354,0.802278036 L4.59340451,0.137025323 L4.00111367,0.137025323 L3.9895619,0.802278036 L1.75166866,0.802278036 L1.75166866,1.16733023 L2.68736217,1.16733023 C2.77977635,1.39849509 2.90999632,1.77400724 3.05911919,2.0846677 L2.49728302,2.0846677 C2.10452278,2.10767959 1.99950667,2.23319897 1.98165393,2.62649302 L1.98165393,6.54165168 L2.5193364,6.54165168 L2.5193364,2.78757623 C2.5382393,2.60348114 2.64115509,2.50097364 2.83333456,2.48319173 L3.96435803,2.48319173 L3.96435803,3.15472041 L2.86063875,3.15472041 L2.86063875,3.48839276 L3.96435803,3.48839276 L3.96435803,4.20803721 L4.47158583,4.20803721 L4.47158583,3.48839276 L5.60470962,3.48839276 L5.60470962,3.15472041 L4.47158583,3.15472041 L4.47158583,2.48319173 L5.63306397,2.48319173 C5.8210428,2.48319173 5.91135665,2.58256124 5.91135665,2.78757623 L5.91135665,5.84501912 C5.91135665,5.9904124 5.8210428,6.07722997 5.63306397,6.07722997 L4.97776346,6.07722997 L4.98091394,6.50294987 L5.85044731,6.50294987 C6.24845835,6.50294987 6.44798896,6.31257881 6.44798896,5.93915866 L6.4521896,2.65368889 C6.4521896,2.225877 6.30621721,2.0846677 5.85359779,2.0846677 L5.37577451,2.0846677 C5.5269977,1.80852506 5.65196687,1.43510491 5.74123056,1.16733023 L6.70737874,1.16733023 L6.70737874,1.16733023 L6.70737874,1.16733023 Z M4.81393833,2.0846677 L3.65456052,2.0846677 C3.63250713,2.03236796 3.29330511,1.28657364 3.25759963,1.16733023 L5.17834422,1.16733023 C5.14158859,1.24682584 4.85069397,1.99785013 4.81393833,2.0846677 L4.81393833,2.0846677 L4.81393833,2.0846677 Z"></path>
                                </g>
                                <path d="M56.704497,6.50504186 L56.704497,3.74884548 L57.3072895,3.74884548 L57.3293428,6.07618398 L59.5199788,6.07618398 L59.5199788,3.24258398 L56.9628366,3.24258398 L56.9796392,0.650608786 L57.551977,0.650608786 L57.5624786,2.78443824 L59.521029,2.78443824 L59.521029,0.212336951 L60.1931321,0.212336951 L60.1931321,2.78443824 L61.9437506,2.78443824 C62.1285789,2.76770233 62.2230934,2.66310284 62.2230934,2.47796176 L62.2230934,0.650608786 L62.8027823,0.650608786 L62.8027823,2.73004651 C62.768127,3.03756899 62.5980009,3.20492817 62.2903037,3.24258398 L60.1931321,3.24258398 L60.1931321,6.07618398 L62.1474818,6.07618398 C62.3365108,6.07618398 62.428925,5.97681447 62.428925,5.7895814 L62.428925,3.74884548 L63.0327676,3.74884548 L63.0327676,5.96740052 C63.0128145,6.30525685 62.7954312,6.48516796 62.3680156,6.50399587 L56.704497,6.50399587 L56.704497,6.50504186 L56.704497,6.50504186 Z" id="Shape"></path>
                                <polygon id="Shape" points="18.7695288 2.99782119 18.7695288 2.48423773 24.7134404 2.48423773 24.7134404 3.00514315"></polygon>
                                <path d="M48.0637717,6.57616951 L47.6290051,6.26655504 C48.0837248,5.88162894 48.5111404,5.45067907 48.8377405,4.92140568 C48.6088053,4.69337881 47.8316861,3.89842274 47.8316861,3.89842274 L48.3210612,1.61187804 L47.7497736,1.61187804 L47.7497736,1.18197416 L48.4071744,1.18197416 L48.5783507,0.215474935 L49.1496383,0.215474935 L48.952208,1.18197416 L49.7503304,1.17779018 C50.2313042,1.16314625 50.2911634,1.32527545 50.2974643,1.78237519 C50.3037653,2.29909664 50.2092508,2.84928992 50.0790308,3.32103359 C49.8458951,4.16619742 49.4961914,4.82099018 49.4961914,4.82099018 L50.5306001,5.85338708 L50.1546424,6.19961137 C49.8679485,5.93183669 49.5497497,5.63686615 49.2084473,5.31679173 C48.978462,5.71845375 48.5983037,6.1326677 48.0637717,6.57616951 L48.0637717,6.57616951 L48.0637717,6.57616951 Z M49.1223341,4.38271835 C49.5014422,3.68190181 49.8143902,2.86079587 49.8143902,1.79806512 C49.8143902,1.64534987 49.708324,1.61292403 49.5812545,1.61187804 L48.8944491,1.61187804 L48.4680838,3.69445375 C48.4691339,3.69445375 49.0677257,4.3304186 49.1223341,4.38271835 L49.1223341,4.38271835 L49.1223341,4.38271835 Z M54.1904114,3.49257674 L52.5868155,3.49257674 L52.5868155,5.97263049 C52.5868155,6.3345447 52.3379273,6.51550181 51.8433014,6.51550181 L50.5705062,6.53432972 L50.5831081,6.08978191 L51.5282531,6.08978191 C51.8327998,6.10442584 51.9504179,5.99878036 51.9556687,5.71845375 L51.9556687,3.49257674 L50.2670097,3.49257674 L50.2670097,3.06685685 L51.9556687,3.06685685 L51.9556687,2.52293953 C52.5395582,1.97274625 52.9659236,1.55225633 53.3786369,1.12235245 L50.6114625,1.1328124 L50.6114625,0.669436693 L53.6821335,0.670482687 C53.9646268,0.660022739 54.2093143,0.968591214 53.9131689,1.2750677 C53.555064,1.64325788 53.1927584,2.02713798 52.5794643,2.62440103 L52.5868155,3.06685685 L54.1904114,3.06685685 L54.1904114,3.49257674 L54.1904114,3.49257674 L54.1904114,3.49257674 Z" id="Shape"></path>
                                <path d="M66.4783461,6.69750491 L66.4783461,3.82311111 C66.3985338,3.93607855 66.2662135,4.09716176 66.0771845,4.30426873 C66.0572315,4.34820052 66.0383286,4.37539638 66.021526,4.39422429 L65.5951606,4.10657571 C66.1244418,3.49571473 66.5728606,2.83464599 66.9351661,2.11186357 L67.4791496,2.11186357 C67.2523148,2.62230904 67.0286305,3.11392661 67.0286305,3.11392661 L67.0800884,6.6985509 L66.4783461,6.6985509 L66.4783461,6.69750491 L66.4783461,6.69750491 Z M66.1023884,2.34302842 L65.6749728,2.08885168 C66.1359936,1.55644031 66.5350548,0.946625323 66.8763571,0.267774677 L67.4497451,0.267774677 C67.0632858,1.03762687 66.6180175,1.73425943 66.1023884,2.34302842 L66.1023884,2.34302842 L66.1023884,2.34302842 Z M69.1730594,6.61068734 L69.1646581,6.18601344 L70.1917156,6.18601344 C70.4017478,6.20379535 70.5046636,6.10756382 70.5046636,5.90254884 L70.5046636,2.91204961 L67.7878969,2.91204961 L67.7878969,2.48632972 L72.2489811,2.48632972 L72.2489811,2.91204961 L71.1085062,2.91204961 L71.1085062,6.10233385 C71.0675499,6.40462636 70.8858721,6.57303152 70.5613723,6.61068734 L69.1730594,6.61068734 L69.1730594,6.61068734 L69.1730594,6.61068734 Z M68.1649047,0.945579328 L68.1649047,0.489525581 L71.9633373,0.489525581 L71.9633373,0.945579328 L68.1649047,0.945579328 L68.1649047,0.945579328 L68.1649047,0.945579328 Z" id="Shape"></path>
                            </g>
                            <path d="M28.4058067,35.0345509 C37.9024133,34.7374884 45.4320681,27.2126016 45.542335,17.8676837 L45.5412849,9.83130543 L55.9903875,9.83130543 L55.9903875,18.7159855 C55.7866562,33.1664041 43.1731717,44.5667018 28.4058067,44.8940982 L28.4058067,44.8920062 C13.3937543,44.7999587 0.686805338,33.3180734 0.479923608,18.7149395 L0.479923608,2.74364444 C0.455769903,1.10980052 1.52483387,0.0502077519 3.13578095,0.0753116279 L45.5360341,0.0732196382 L45.5360341,9.82816744 L12.2879347,9.8365354 C11.4341537,9.8365354 10.9237754,10.3543028 10.9237754,11.1963287 L10.9237754,17.7045085 C11.0361427,27.1749457 18.6949673,34.9383194 28.4047566,35.0345509 L28.4058067,35.0345509 L28.4058067,35.0345509 L28.4058067,35.0345509 Z" id="Shape"></path>
                            <path d="M44.7704666,0.835749871 L44.7704666,9.06563721 L12.2889848,9.07295917 C11.0140893,9.07295917 10.158208,9.92544496 10.158208,11.1952827 L10.158208,17.7128765 C10.2149167,22.5119008 12.120959,27.0264145 15.5234809,30.4227597 C18.9312536,33.8243349 23.4774008,35.7311835 28.3301951,35.7960351 L28.3480479,35.7991731 L28.4299604,35.7970811 C38.3403304,35.4874667 46.1934349,27.6153096 46.3089526,17.8676837 L46.3079024,10.5938357 L55.2248201,10.5938357 L55.2248201,18.7055256 C55.1303056,25.4218584 52.2570649,31.7574491 47.1354294,36.5449674 C42.0904556,41.2613581 35.4681399,43.9527028 28.479318,44.129476 L28.4110575,44.129476 C21.2909655,44.0855442 14.5447308,41.4423152 9.41364381,36.6872227 C4.24370087,31.8955204 1.34315601,25.508676 1.24654119,18.7159855 L1.24654119,2.7331845 C1.2381399,2.14742739 1.40616567,1.66313178 1.73276576,1.33155142 C2.05201473,1.00833902 2.5193364,0.83784186 3.08222273,0.83784186 L3.13683111,0.83784186 L44.7704666,0.835749871 L44.7704666,0.835749871 L44.7704666,0.835749871 Z M45.5370842,0.0732196382 L3.13683111,0.0753116279 L3.08222273,0.0753116279 C1.50173033,0.0753116279 0.455769903,1.12967442 0.479923608,2.74469044 L0.479923608,18.7159855 C0.686805338,33.3180734 13.3937543,44.8010047 28.4058067,44.8930522 L28.4058067,44.8951442 C43.1731717,44.5667018 55.7866562,33.1674501 55.9903875,18.7170315 L55.9903875,9.83235142 L45.5412849,9.83235142 L45.542335,17.8687297 C45.4320681,27.2126016 37.9013631,34.7385344 28.4058067,35.0355969 L28.4047566,35.0355969 C18.6949673,34.9393654 11.0371928,27.1759917 10.9237754,17.7055545 L10.9237754,11.1973747 C10.9237754,10.3563948 11.4352039,9.8375814 12.2879347,9.8375814 L45.5360341,9.82921344 L45.5360341,0.0732196382 L45.5370842,0.0732196382 L45.5370842,0.0732196382 L45.5370842,0.0732196382 Z" id="Shape"></path>
                        </g>
                    </g>
                </g>
            </g>
        </g>
    </g>
</svg>