<?xml version="1.0" encoding="UTF-8"?>
<svg width="170px" height="100px" viewBox="0 0 170 100" version="1.1" xmlns="http://www.w3.org/2000/svg" xmlns:xlink="http://www.w3.org/1999/xlink">
    <!-- Generator: Sketch 44 (41411) - http://www.bohemiancoding.com/sketch -->
    <title>enterprise-05</title>
    <desc>Created with Sketch.</desc>
    <defs>
        <polygon id="path-1" points="0.0488177762 46 109.320901 46 109.320901 0.456714286 0.0488177762 0.456714286"></polygon>
    </defs>
    <g id="______Slice" stroke="none" stroke-width="1" fill="none" fill-rule="evenodd">
        <g id="about" transform="translate(-745.000000, -5896.000000)">
            <g id="enterprise-05" transform="translate(695.000000, 5866.000000)">
                <g id="pingan_color" transform="translate(80.000000, 57.000000)">
                    <g id="Group-4">
                        <mask id="mask-2" fill="white">
                            <use xlink:href="#path-1"></use>
                        </mask>
                        <g id="Clip-2"></g>
                        <path d="M48.8267261,13.1855714 L46.1230349,13.1855714 L46.1230349,14.2493214 L43.4437526,14.2493214 L43.4437526,11.8663571 L48.0562188,11.8663571 L48.0562188,9.61564286 L43.4437526,9.61564286 L43.4437526,7.97278571 L48.8267261,7.97278571 L48.8267261,5.52 L34.5540356,5.52 L34.5540356,7.97278571 L39.937009,7.97278571 L39.937009,9.61564286 L35.3269837,9.61564286 L35.3269837,11.8663571 L39.937009,11.8663571 L39.937009,14.2493214 L34.5540356,14.2493214 L34.5540356,16.69225 L48.8267261,16.69225 L48.8267261,13.1855714 Z M22.8475329,3.41057143 L14.8365358,3.41057143 L14.8365358,0.992285714 C14.8365358,0.737642857 14.6347557,0.535571429 14.3817169,0.535571429 L11.1337075,0.535571429 C10.8839232,0.535571429 10.6788885,0.737642857 10.6788885,0.992285714 L10.6788885,3.41057143 L2.6687051,3.41057143 C1.19522189,3.41057143 0,4.61478571 0,6.09992857 L0,14.9072857 C0,16.3940714 1.19522189,17.5982857 2.6687051,17.5982857 L10.6788885,17.5982857 L10.6788885,21.3949286 C10.6788885,21.6503929 10.8839232,21.8606786 11.1337075,21.8606786 L14.3817169,21.8606786 C14.6347557,21.8606786 14.8365358,21.6503929 14.8365358,21.3949286 L14.8365358,17.5982857 L22.8475329,17.5982857 C24.323457,17.5982857 25.5211197,16.3940714 25.5211197,14.9072857 L25.5211197,6.09992857 C25.5211197,4.61478571 24.323457,3.41057143 22.8475329,3.41057143 Z M3.77035958,14.6181429 L10.6788885,14.6181429 L10.6788885,6.39071429 L3.77035958,6.39071429 L3.77035958,14.6181429 Z M14.8365358,14.6181429 L21.746692,14.6181429 L21.746692,6.39071429 L14.8365358,6.39071429 L14.8365358,14.6181429 Z M84.8168179,6.39071429 L86.9436457,6.39071429 C87.19343,6.39071429 87.3984646,6.18782143 87.3984646,5.93235714 L87.3984646,4.59671429 L106.120895,4.59671429 L106.120895,5.93235714 C106.120895,6.18782143 106.321862,6.39071429 106.573273,6.39071429 L108.699288,6.39071429 C108.950699,6.39071429 109.154107,6.18782143 109.154107,5.93235714 L109.154107,4.39464286 C109.154107,3.08446429 108.103711,2.02975 106.808412,2.02975 L98.7420886,2.02975 L98.7420886,0.913428571 C98.7420886,0.657964286 98.5386812,0.456714286 98.2872696,0.456714286 L95.2280223,0.456714286 C94.978238,0.456714286 94.7732034,0.657964286 94.7732034,0.913428571 L94.7732034,2.02975 L86.7068795,2.02975 C85.4115812,2.02975 84.361999,3.08446429 84.361999,4.39464286 L84.361999,5.93235714 C84.361999,6.18782143 84.5654064,6.39071429 84.8168179,6.39071429 Z M76.5487139,6.08267857 C76.1793261,6.08267857 75.8953693,6.27571429 75.777393,6.51310714 L72.7148912,12.535 C72.594474,12.7633571 72.7425546,12.9572143 72.9785072,12.9572143 L76.0532135,12.9572143 C76.4217877,12.9572143 76.706558,12.7633571 76.8294161,12.535 L79.8870362,6.51310714 C80.0074533,6.27571429 79.8601864,6.08267857 79.6234202,6.08267857 L76.5487139,6.08267857 Z M51.550758,1.22967857 L31.8308173,1.22967857 C30.3548932,1.22967857 29.160485,2.43389286 29.160485,3.92067857 L29.160485,18.5651071 C29.160485,20.05025 30.3548932,21.2544643 31.8308173,21.2544643 L51.550758,21.2544643 C53.0266821,21.2544643 54.2202767,20.05025 54.2202767,18.5651071 L54.2202767,3.92067857 C54.2202767,2.43389286 53.0266821,1.22967857 51.550758,1.22967857 Z M32.7225554,18.3983571 L50.6598336,18.3983571 L50.6598336,3.8755 L32.7225554,3.8755 L32.7225554,18.3983571 Z M108.863641,8.43771429 L104.946014,8.43771429 L104.943573,6.74146429 C104.943573,6.47860714 104.734471,6.26667857 104.475736,6.26667857 L101.80459,6.26667857 C101.547483,6.26667857 101.336753,6.47860714 101.336753,6.74146429 L101.336753,8.43771429 L92.184234,8.43771429 L92.184234,6.74146429 C92.184234,6.47860714 91.9718766,6.26667857 91.7155833,6.26667857 L89.0428101,6.26667857 C88.7857031,6.26667857 88.574973,6.47860714 88.574973,6.74146429 L88.574973,8.43771429 L84.6500238,8.43771429 C84.3994259,8.43771429 84.1976458,8.64060714 84.1976458,8.89442857 L84.1976458,10.8905 C84.1976458,11.1361071 84.3994259,11.3480357 84.6500238,11.3480357 L88.574973,11.3480357 L88.574973,12.58675 C88.574973,14.0283571 89.2323858,15.4001429 90.991453,16.261 C91.6586292,16.5953214 92.4836497,17.0002857 93.3631833,17.4225 C91.8002008,18.0640357 90.4186577,18.3622143 88.9590062,18.3622143 L85.2504825,18.3622143 C84.9933755,18.3622143 84.7850864,18.5651071 84.7850864,18.8279643 L84.7850864,20.79775 C84.7850864,21.0606071 84.9933755,21.2725357 85.2504825,21.2725357 L88.8987976,21.2725357 C90.3568219,21.2725357 92.1394843,20.9562857 93.6520218,20.3845714 C94.2663121,20.1562143 95.4265479,19.6461071 96.7584596,19.0308571 C98.0928121,19.6461071 99.253048,20.1562143 99.8697792,20.3845714 C101.378248,20.9562857 103.160097,21.2725357 104.621376,21.2725357 L108.26725,21.2725357 C108.525985,21.2725357 108.735901,21.0606071 108.735901,20.79775 L108.735901,18.8279643 C108.735901,18.5651071 108.525985,18.3622143 108.26725,18.3622143 L104.560354,18.3622143 C103.099889,18.3622143 101.719973,18.0640357 100.156177,17.4225 C101.03571,17.0002857 101.861544,16.5953214 102.529534,16.261 C104.286161,15.4001429 104.946014,14.0283571 104.946014,12.58675 L104.946014,11.3480357 L108.863641,11.3480357 C109.118307,11.3480357 109.320901,11.1361071 109.320901,10.8905 L109.320901,8.89442857 C109.320901,8.64060714 109.118307,8.43771429 108.863641,8.43771429 Z M101.336753,12.2269643 C101.336753,13.0451071 101.186232,13.6866429 100.161872,14.2049643 C99.3392927,14.6181429 97.9805313,15.2687143 96.7584596,15.8494643 C95.5380152,15.2687143 94.1816946,14.6181429 93.3591151,14.2049643 C92.3355691,13.6866429 92.184234,13.0451071 92.184234,12.2269643 L92.184234,11.3480357 L101.336753,11.3480357 L101.336753,12.2269643 Z M62.8781093,12.9572143 L65.9560701,12.9572143 C66.1912091,12.9572143 66.3392896,12.7633571 66.2188725,12.535 L63.1588115,6.51310714 C63.0383943,6.27571429 62.7544376,6.08267857 62.386677,6.08267857 L59.3103435,6.08267857 C59.0727637,6.08267857 58.9263103,6.27571429 59.0467275,6.51310714 L62.1067884,12.535 C62.2272056,12.7633571 62.5103487,12.9572143 62.8781093,12.9572143 Z M81.4296779,14.5475 L71.4496972,14.5475 L71.4496972,4.49978571 L80.6184892,4.49978571 C80.8690871,4.49978571 81.0741217,4.2895 81.0741217,4.03403571 L81.0741217,2.09135714 C81.0741217,1.83671429 80.8690871,1.63464286 80.6184892,1.63464286 L58.3177154,1.63464286 C58.0646766,1.63464286 57.8596419,1.83671429 57.8596419,2.09135714 L57.8596419,4.03403571 C57.8596419,4.2895 58.0646766,4.49978571 58.3177154,4.49978571 L67.4840665,4.49978571 L67.4840665,14.5475 L57.505713,14.5475 C57.2534879,14.5475 57.0508941,14.7586071 57.0508941,15.0042143 L57.0508941,17.0610714 C57.0508941,17.3165357 57.2534879,17.5194286 57.505713,17.5194286 L67.4840665,17.5194286 L67.4840665,21.3949286 C67.4840665,21.6503929 67.6866603,21.8606786 67.9388854,21.8606786 L70.9948782,21.8606786 C71.2471034,21.8606786 71.4496972,21.6503929 71.4496972,21.3949286 L71.4496972,17.5194286 L81.4296779,17.5194286 C81.6802758,17.5194286 81.8828696,17.3165357 81.8828696,17.0610714 L81.8828696,15.0042143 C81.8828696,14.7586071 81.6802758,14.5475 81.4296779,14.5475 L81.4296779,14.5475 Z" id="Fill-1" fill="#E36729" mask="url(#mask-2)"></path>
                        <path d="M43.9099624,28.3203929 L41.2949568,28.3203929 C41.0679542,28.3203929 40.8824466,28.5109643 40.8824466,28.7343929 L40.8824466,40.7625714 C39.5220579,39.20925 30.491583,28.8781429 30.2637667,28.6300714 C30.0196778,28.3680357 29.694226,28.3203929 29.4818686,28.3203929 L26.8969674,28.3203929 C26.6699647,28.3203929 26.4844572,28.5109643 26.4844572,28.7343929 L26.4844572,45.3543571 C26.4844572,45.586 26.6699647,45.7691786 26.8969674,45.7691786 L29.5095321,45.7691786 C29.738162,45.7691786 29.9220423,45.586 29.9220423,45.3543571 L29.9220423,33.2218571 C30.9081613,34.3546071 40.3950825,45.2114286 40.6302215,45.4586786 C40.8743103,45.7215357 41.1981349,45.7691786 41.4113059,45.7691786 L43.9099624,45.7691786 C44.1377787,45.7691786 44.3224726,45.586 44.3224726,45.3543571 L44.3224726,28.7343929 C44.3224726,28.5109643 44.1377787,28.3203929 43.9099624,28.3203929 Z M59.0247595,28.0805357 L52.998205,28.0805357 C49.7355503,28.0805357 47.0920678,30.4561071 47.0920678,33.39025 L47.0920678,40.6993214 C47.0920678,43.62525 49.7355503,46 52.998205,46 L59.0247595,46 C62.2866006,46 64.9333377,43.62525 64.9333377,40.6993214 L64.9333377,36.01225 L55.7954636,36.01225 L55.7954636,38.4757143 C55.7954636,38.6991429 55.9785303,38.8897143 56.2079738,38.8897143 L61.2101686,38.8897143 L61.2101686,42.2772857 C61.2101686,42.5089286 61.0238474,42.6929286 60.7976584,42.6929286 L51.2228653,42.6929286 C50.995049,42.6929286 50.810355,42.5089286 50.810355,42.2772857 L50.810355,31.8114643 C50.810355,31.5806429 50.995049,31.3884286 51.2228653,31.3884286 L60.7976584,31.3884286 C61.0238474,31.3884286 61.2101686,31.5806429 61.2101686,31.8114643 L61.2101686,33.8124643 C61.2101686,34.0432857 61.3932353,34.2346786 61.6226788,34.2346786 L64.5208275,34.2346786 C64.7470165,34.2346786 64.9333377,34.0432857 64.9333377,33.8124643 L64.9333377,33.39025 C64.9333377,30.4561071 62.2866006,28.0805357 59.0247595,28.0805357 Z M108.90839,28.3203929 L106.294199,28.3203929 C106.067196,28.3203929 105.881688,28.5109643 105.881688,28.7343929 L105.881688,40.7625714 C104.519672,39.20925 95.4908247,28.8781429 95.263822,28.6300714 C95.0172922,28.3680357 94.6918404,28.3203929 94.4794831,28.3203929 L91.8970227,28.3203929 C91.6675792,28.3203929 91.4820716,28.5109643 91.4820716,28.7343929 L91.4820716,45.3543571 C91.4820716,45.586 91.6675792,45.7691786 91.8970227,45.7691786 L94.5095874,45.7691786 C94.73659,45.7691786 94.9220976,45.586 94.9220976,45.3543571 L94.9220976,33.2218571 C95.907403,34.3546071 105.393511,45.2114286 105.62865,45.4586786 C105.873552,45.7215357 106.197377,45.7691786 106.409734,45.7691786 L108.90839,45.7691786 C109.136207,45.7691786 109.320901,45.586 109.320901,45.3543571 L109.320901,28.7343929 C109.320901,28.5109643 109.136207,28.3203929 108.90839,28.3203929 Z M81.5883357,28.7812143 C81.4239825,28.4871429 81.1619937,28.29575 80.84061,28.29575 L78.2581497,28.29575 C77.9351387,28.29575 77.6723364,28.4871429 77.5087968,28.7812143 L69.3863325,44.9321429 C69.112953,45.4586786 69.345651,45.7691786 69.8265061,45.7691786 L72.4000165,45.7691786 C72.7742862,45.7691786 72.9158577,45.6656786 73.1046198,45.3075357 L79.546939,32.3141786 L85.9916991,45.3075357 C86.1820884,45.6656786 86.3220327,45.7691786 86.6963023,45.7691786 L89.27144,45.7691786 C89.7506678,45.7691786 89.9833659,45.4586786 89.7116136,44.9321429 L81.5883357,28.7812143 Z M13.0164464,36.961 C13.0164464,37.1918214 12.8325661,37.3758214 12.6039362,37.3758214 L3.76954595,37.3758214 L3.76954595,31.3966429 L12.6039362,31.3966429 C12.8325661,31.3966429 13.0164464,31.5806429 13.0164464,31.8114643 L13.0164464,36.961 Z M11.0499036,28.3203929 L0.410882949,28.3203929 C0.185507549,28.3203929 0,28.5109643 0,28.7343929 L0,45.3543571 C0,45.586 0.185507549,45.7691786 0.410882949,45.7691786 L3.35703574,45.7691786 C3.58647929,45.7691786 3.76954595,45.586 3.76954595,45.3543571 L3.76954595,40.4528929 L11.0499036,40.4528929 C14.3149992,40.4528929 16.9584818,38.5069286 16.9584818,35.5744286 L16.9584818,33.6284643 C16.9584818,30.6951429 14.3149992,28.3203929 11.0499036,28.3203929 Z M22.8166149,28.3203929 L19.9013801,28.3203929 C19.6719365,28.3203929 19.4888699,28.5109643 19.4888699,28.7343929 L19.4888699,45.3543571 C19.4888699,45.586 19.6719365,45.7691786 19.9013801,45.7691786 L22.8166149,45.7691786 C23.0436176,45.7691786 23.2291252,45.586 23.2291252,45.3543571 L23.2291252,28.7343929 C23.2291252,28.5109643 23.0436176,28.3203929 22.8166149,28.3203929 L22.8166149,28.3203929 Z" id="Fill-3" fill="#E36729" mask="url(#mask-2)"></path>
                    </g>
                    <path d="M81.7657069,40.5555714 L77.3306119,40.5555714 C77.1036093,40.5555714 76.9181017,40.7395714 76.9181017,40.9695714 L76.9181017,45.3469643 C76.9181017,45.5777857 77.1036093,45.7609643 77.3306119,45.7609643 L81.7657069,45.7609643 C81.9951505,45.7609643 82.1782171,45.5777857 82.1782171,45.3469643 L82.1782171,40.9695714 C82.1782171,40.7395714 81.9951505,40.5555714 81.7657069,40.5555714" id="Fill-5" fill="#17593D"></path>
                </g>
            </g>
        </g>
    </g>
</svg>