<?xml version="1.0" encoding="UTF-8"?>
<svg width="170px" height="100px" viewBox="0 0 170 100" version="1.1" xmlns="http://www.w3.org/2000/svg" xmlns:xlink="http://www.w3.org/1999/xlink">
    <!-- Generator: Sketch 44 (41411) - http://www.bohemiancoding.com/sketch -->
    <title>enterprise-05</title>
    <desc>Created with Sketch.</desc>
    <defs>
        <polygon id="path-1" points="0.048965196 45.8554643 109.651028 45.8554643 109.651028 0.455279253 0.048965196 0.455279253"></polygon>
    </defs>
    <g id="_____Page" stroke="none" stroke-width="1" fill="none" fill-rule="evenodd">
        <g id="about" transform="translate(-185.000000, -2282.000000)">
            <g id="section-3" transform="translate(0.000000, 1721.000000)">
                <rect id="background" fill="#FFFFFF" x="0" y="0" width="1440" height="860"></rect>
                <g id="enterprise-05" transform="translate(135.000000, 531.000000)">
                    <g transform="translate(48.000000, 30.000000)">
                        <rect id="Rectangle-3-Copy-6" x="2" y="0" width="170" height="100"></rect>
                        <g id="平安保险" transform="translate(32.000000, 27.000000)">
                            <g id="Group-4">
                                <mask id="mask-2" fill="white">
                                    <use xlink:href="#path-1"></use>
                                </mask>
                                <g id="Clip-2"></g>
                                <path d="M48.974173,13.1441413 L46.2623172,13.1441413 L46.2623172,14.2045489 L43.574944,14.2045489 L43.574944,11.8290721 L48.201339,11.8290721 L48.201339,9.58542974 L43.574944,9.58542974 L43.574944,7.94773459 L48.974173,7.94773459 L48.974173,5.50265572 L34.6583818,5.50265572 L34.6583818,7.94773459 L40.0576108,7.94773459 L40.0576108,9.58542974 L35.4336641,9.58542974 L35.4336641,11.8290721 L40.0576108,11.8290721 L40.0576108,14.2045489 L34.6583818,14.2045489 L34.6583818,16.6398016 L48.974173,16.6398016 L48.974173,13.1441413 Z M22.9165278,3.39985514 L14.8813392,3.39985514 L14.8813392,0.989167874 C14.8813392,0.735325125 14.6789497,0.533888621 14.4251468,0.533888621 L11.167329,0.533888621 C10.9167905,0.533888621 10.7111366,0.735325125 10.7111366,0.989167874 L10.7111366,3.39985514 L2.67676405,3.39985514 C1.19883122,3.39985514 0,4.60028569 0,6.08076211 L0,14.8604458 C0,16.34256 1.19883122,17.5429905 2.67676405,17.5429905 L10.7111366,17.5429905 L10.7111366,21.327704 C10.7111366,21.5823656 10.9167905,21.7919906 11.167329,21.7919906 L14.4251468,21.7919906 C14.6789497,21.7919906 14.8813392,21.5823656 14.8813392,21.327704 L14.8813392,17.5429905 L22.9165278,17.5429905 C24.3969089,17.5429905 25.5981884,16.34256 25.5981884,14.8604458 L25.5981884,6.08076211 C25.5981884,4.60028569 24.3969089,3.39985514 22.9165278,3.39985514 Z M3.78174531,14.5722115 L10.7111366,14.5722115 L10.7111366,6.37063415 L3.78174531,6.37063415 L3.78174531,14.5722115 Z M14.8813392,14.5722115 L21.8123627,14.5722115 L21.8123627,6.37063415 L14.8813392,6.37063415 L14.8813392,14.5722115 Z M85.0729477,6.37063415 L87.2061981,6.37063415 C87.4567367,6.37063415 87.6623905,6.1683788 87.6623905,5.9137172 L87.6623905,4.58227104 L106.441359,4.58227104 L106.441359,5.9137172 C106.441359,6.1683788 106.642933,6.37063415 106.895103,6.37063415 L109.027538,6.37063415 C109.279708,6.37063415 109.48373,6.1683788 109.48373,5.9137172 L109.48373,4.38083454 C109.48373,3.07477265 108.430162,2.02337236 107.130952,2.02337236 L99.0402699,2.02337236 L99.0402699,0.910558506 C99.0402699,0.65589691 98.8362482,0.455279253 98.5840775,0.455279253 L95.5155918,0.455279253 C95.2650532,0.455279253 95.0593994,0.65589691 95.0593994,0.910558506 L95.0593994,2.02337236 L86.9687169,2.02337236 C85.669507,2.02337236 84.6167553,3.07477265 84.6167553,4.38083454 L84.6167553,5.9137172 C84.6167553,6.1683788 84.8207769,6.37063415 85.0729477,6.37063415 Z M76.7798757,6.06356631 C76.4093723,6.06356631 76.1245581,6.25599549 76.0062256,6.49264244 L72.9344756,12.495614 C72.8136948,12.7232537 72.9622225,12.9165017 73.1988877,12.9165017 L76.2828789,12.9165017 C76.6525661,12.9165017 76.9381965,12.7232537 77.0614255,12.495614 L80.128279,6.49264244 C80.2490598,6.25599549 80.1013481,6.06356631 79.8638669,6.06356631 L76.7798757,6.06356631 Z M51.7064309,1.22581482 L31.92694,1.22581482 C30.4465589,1.22581482 29.2485438,2.42624537 29.2485438,3.90835949 L29.2485438,18.5067741 C29.2485438,19.9872505 30.4465589,21.1876811 31.92694,21.1876811 L51.7064309,21.1876811 C53.186812,21.1876811 54.3840111,19.9872505 54.3840111,18.5067741 L54.3840111,3.90835949 C54.3840111,2.42624537 53.186812,1.22581482 51.7064309,1.22581482 Z M32.8213709,18.340548 L50.8128161,18.340548 L50.8128161,3.86332287 L32.8213709,3.86332287 L32.8213709,18.340548 Z M109.192387,8.41120232 L105.26293,8.41120232 L105.260482,6.72028207 C105.260482,6.45825084 105.050748,6.24698817 104.791232,6.24698817 L102.11202,6.24698817 C101.854136,6.24698817 101.64277,6.45825084 101.64277,6.72028207 L101.64277,8.41120232 L92.4626119,8.41120232 L92.4626119,6.72028207 C92.4626119,6.45825084 92.2496133,6.24698817 91.992546,6.24698817 L89.3117015,6.24698817 C89.0538181,6.24698817 88.8424517,6.45825084 88.8424517,6.72028207 L88.8424517,8.41120232 L84.9056499,8.41120232 C84.6542953,8.41120232 84.4519058,8.61345767 84.4519058,8.86648157 L84.4519058,10.8562812 C84.4519058,11.1011166 84.6542953,11.3123793 84.9056499,11.3123793 L88.8424517,11.3123793 L88.8424517,12.5472014 C88.8424517,13.9842789 89.5018497,15.3517544 91.2662289,16.2099066 C91.9354199,16.5431776 92.7629317,16.9468695 93.6451213,17.3677571 C92.077419,18.0072771 90.6917039,18.3045187 89.2276446,18.3045187 L85.5079219,18.3045187 C85.2500385,18.3045187 85.0411203,18.5067741 85.0411203,18.7688053 L85.0411203,20.7324018 C85.0411203,20.994433 85.2500385,21.2056957 85.5079219,21.2056957 L89.1672542,21.2056957 C90.6296814,21.2056957 92.4177271,20.8904394 93.9348321,20.3205215 C94.5509775,20.0928819 95.714717,19.5843775 97.0506507,18.9710607 C98.3890328,19.5843775 99.5527723,20.0928819 100.171366,20.3205215 C101.68439,20.8904394 103.47162,21.2056957 104.937312,21.2056957 L108.594196,21.2056957 C108.853711,21.2056957 109.064262,20.994433 109.064262,20.7324018 L109.064262,18.7688053 C109.064262,18.5067741 108.853711,18.3045187 108.594196,18.3045187 L104.876105,18.3045187 C103.41123,18.3045187 102.027147,18.0072771 100.458628,17.3677571 C101.340818,16.9468695 102.169146,16.5431776 102.839153,16.2099066 C104.601084,15.3517544 105.26293,13.9842789 105.26293,12.5472014 L105.26293,11.3123793 L109.192387,11.3123793 C109.447822,11.3123793 109.651028,11.1011166 109.651028,10.8562812 L109.651028,8.86648157 C109.651028,8.61345767 109.447822,8.41120232 109.192387,8.41120232 Z M101.64277,12.1885462 C101.64277,13.0041184 101.491794,13.6436383 100.464341,14.1603312 C99.6392774,14.5722115 98.2764128,15.2207388 97.0506507,15.799664 C95.8265208,15.2207388 94.4661045,14.5722115 93.6410409,14.1603312 C92.614404,13.6436383 92.4626119,13.0041184 92.4626119,12.1885462 L92.4626119,11.3123793 L101.64277,11.3123793 L101.64277,12.1885462 Z M63.0679886,12.9165017 L66.1552442,12.9165017 C66.3910932,12.9165017 66.539621,12.7232537 66.4188402,12.495614 L63.3495385,6.49264244 C63.2287577,6.25599549 62.9439434,6.06356631 62.5750723,6.06356631 L59.4894488,6.06356631 C59.2511516,6.06356631 59.104256,6.25599549 59.2250368,6.49264244 L62.2943385,12.495614 C62.4151193,12.7232537 62.6991174,12.9165017 63.0679886,12.9165017 Z M81.6755792,14.5017906 L71.6654609,14.5017906 L71.6654609,4.48564703 L80.8619408,4.48564703 C81.1132955,4.48564703 81.3189493,4.27602205 81.3189493,4.02136045 L81.3189493,2.08478593 C81.3189493,1.83094318 81.1132955,1.62950668 80.8619408,1.62950668 L58.4938232,1.62950668 C58.2400203,1.62950668 58.0343664,1.83094318 58.0343664,2.08478593 L58.0343664,4.02136045 C58.0343664,4.27602205 58.2400203,4.48564703 58.4938232,4.48564703 L67.6878548,4.48564703 L67.6878548,14.5017906 L57.6793688,14.5017906 C57.4263819,14.5017906 57.2231764,14.7122344 57.2231764,14.9570699 L57.2231764,17.0074642 C57.2231764,17.2621258 57.4263819,17.4643811 57.6793688,17.4643811 L67.6878548,17.4643811 L67.6878548,21.327704 C67.6878548,21.5823656 67.8910604,21.7919906 68.1440472,21.7919906 L71.2092685,21.7919906 C71.4622554,21.7919906 71.6654609,21.5823656 71.6654609,21.327704 L71.6654609,17.4643811 L81.6755792,17.4643811 C81.9269338,17.4643811 82.1301394,17.2621258 82.1301394,17.0074642 L82.1301394,14.9570699 C82.1301394,14.7122344 81.9269338,14.5017906 81.6755792,14.5017906 L81.6755792,14.5017906 Z" id="Fill-1" fill="#C6CBD9" mask="url(#mask-2)"></path>
                                <path d="M44.0425617,28.2314079 L41.4196593,28.2314079 C41.1919712,28.2314079 41.0059034,28.4213806 41.0059034,28.6441071 L41.0059034,40.6344922 C39.6414066,39.0860514 30.5836614,28.7874054 30.3551572,28.5401135 C30.1103312,28.2789011 29.7838966,28.2314079 29.570898,28.2314079 L26.9781908,28.2314079 C26.7505027,28.2314079 26.5644349,28.4213806 26.5644349,28.6441071 L26.5644349,45.2118501 C26.5644349,45.4427652 26.7505027,45.6253682 26.9781908,45.6253682 L29.5986449,45.6253682 C29.8279653,45.6253682 30.0124008,45.4427652 30.0124008,45.2118501 L30.0124008,33.1174714 C31.0014978,34.2466622 40.5170676,45.0693707 40.7529166,45.3158438 C40.9977426,45.577875 41.322545,45.6253682 41.5363597,45.6253682 L44.0425617,45.6253682 C44.2710659,45.6253682 44.4563176,45.4427652 44.4563176,45.2118501 L44.4563176,28.6441071 C44.4563176,28.4213806 44.2710659,28.2314079 44.0425617,28.2314079 Z M59.2030025,27.9923044 L53.158249,27.9923044 C49.8857417,27.9923044 47.2342764,30.3604116 47.2342764,33.2853352 L47.2342764,40.5714409 C47.2342764,43.488176 49.8857417,45.8554643 53.158249,45.8554643 L59.2030025,45.8554643 C62.4746936,45.8554643 65.1294233,43.488176 65.1294233,40.5714409 L65.1294233,35.8990966 L55.9639547,35.8990966 L55.9639547,38.3548205 C55.9639547,38.5775471 56.1475742,38.7675197 56.3777106,38.7675197 L61.3950111,38.7675197 L61.3950111,42.1444471 C61.3950111,42.3753621 61.2081272,42.558784 60.9812552,42.558784 L51.377548,42.558784 C51.1490438,42.558784 50.9637921,42.3753621 50.9637921,42.1444471 L50.9637921,31.7115101 C50.9637921,31.481414 51.1490438,31.2898036 51.377548,31.2898036 L60.9812552,31.2898036 C61.2081272,31.2898036 61.3950111,31.481414 61.3950111,31.7115101 L61.3950111,33.7062228 C61.3950111,33.936319 61.5786305,34.1271105 61.808767,34.1271105 L64.7156674,34.1271105 C64.9425395,34.1271105 65.1294233,33.936319 65.1294233,33.7062228 L65.1294233,33.2853352 C65.1294233,30.3604116 62.4746936,27.9923044 59.2030025,27.9923044 Z M109.237272,28.2314079 L106.615186,28.2314079 C106.387498,28.2314079 106.20143,28.4213806 106.20143,28.6441071 L106.20143,40.6344922 C104.835301,39.0860514 95.7791878,28.7874054 95.5514996,28.5401135 C95.3042254,28.2789011 94.9777908,28.2314079 94.7647922,28.2314079 L92.1745333,28.2314079 C91.9443969,28.2314079 91.7583291,28.4213806 91.7583291,28.6441071 L91.7583291,45.2118501 C91.7583291,45.4427652 91.9443969,45.6253682 92.1745333,45.6253682 L94.7949874,45.6253682 C95.0226755,45.6253682 95.2087433,45.4427652 95.2087433,45.2118501 L95.2087433,33.1174714 C96.1970241,34.2466622 105.711778,45.0693707 105.947627,45.3158438 C106.193269,45.577875 106.518071,45.6253682 106.73107,45.6253682 L109.237272,45.6253682 C109.465776,45.6253682 109.651028,45.4427652 109.651028,45.2118501 L109.651028,28.6441071 C109.651028,28.4213806 109.465776,28.2314079 109.237272,28.2314079 Z M81.8347161,28.6907814 C81.6698666,28.397634 81.4070867,28.2068425 81.0847325,28.2068425 L78.4944736,28.2068425 C78.1704872,28.2068425 77.9068913,28.397634 77.7428578,28.6907814 L69.5958653,44.7909625 C69.3216602,45.3158438 69.555061,45.6253682 70.0373682,45.6253682 L72.6186501,45.6253682 C72.9940499,45.6253682 73.136049,45.5221934 73.3253811,45.1651758 L79.7871548,32.2126449 L86.2513767,45.1651758 C86.442341,45.5221934 86.5827079,45.6253682 86.9581077,45.6253682 L89.5410218,45.6253682 C90.0216968,45.6253682 90.2550976,45.3158438 89.9825247,44.7909625 L81.8347161,28.6907814 Z M13.0557534,36.8448656 C13.0557534,37.0749618 12.8713179,37.2583836 12.6419975,37.2583836 L3.78092922,37.2583836 L3.78092922,31.2979921 L12.6419975,31.2979921 C12.8713179,31.2979921 13.0557534,31.481414 13.0557534,31.7115101 L13.0557534,36.8448656 Z M11.0832721,28.2314079 L0.412123733,28.2314079 C0.186067745,28.2314079 0,28.4213806 0,28.6441071 L0,45.2118501 C0,45.4427652 0.186067745,45.6253682 0.412123733,45.6253682 L3.36717331,45.6253682 C3.59730974,45.6253682 3.78092922,45.4427652 3.78092922,45.2118501 L3.78092922,40.3257866 L11.0832721,40.3257866 C14.3582277,40.3257866 17.009693,38.3859367 17.009693,35.4626509 L17.009693,33.522801 C17.009693,30.5986963 14.3582277,28.2314079 11.0832721,28.2314079 Z M22.8855165,28.2314079 L19.9614783,28.2314079 C19.7313418,28.2314079 19.5477223,28.4213806 19.5477223,28.6441071 L19.5477223,45.2118501 C19.5477223,45.4427652 19.7313418,45.6253682 19.9614783,45.6253682 L22.8855165,45.6253682 C23.1132047,45.6253682 23.2992725,45.4427652 23.2992725,45.2118501 L23.2992725,28.6441071 C23.2992725,28.4213806 23.1132047,28.2314079 22.8855165,28.2314079 L22.8855165,28.2314079 Z" id="Fill-3" fill="#C6CBD9" mask="url(#mask-2)"></path>
                            </g>
                            <path d="M82.0126229,40.4281426 L77.5641349,40.4281426 C77.3364467,40.4281426 77.150379,40.6115645 77.150379,40.8408418 L77.150379,45.2044805 C77.150379,45.4345767 77.3364467,45.6171797 77.5641349,45.6171797 L82.0126229,45.6171797 C82.2427594,45.6171797 82.4263788,45.4345767 82.4263788,45.2044805 L82.4263788,40.8408418 C82.4263788,40.6115645 82.2427594,40.4281426 82.0126229,40.4281426" id="Fill-5" fill="#C6CBD9"></path>
                        </g>
                    </g>
                </g>
            </g>
        </g>
    </g>
</svg>