<?xml version="1.0" encoding="UTF-8"?>
<svg width="170px" height="100px" viewBox="0 0 170 100" version="1.1" xmlns="http://www.w3.org/2000/svg" xmlns:xlink="http://www.w3.org/1999/xlink">
    <!-- Generator: Sketch 44 (41411) - http://www.bohemiancoding.com/sketch -->
    <title>enterprise-08</title>
    <desc>Created with Sketch.</desc>
    <defs></defs>
    <g id="_____Page" stroke="none" stroke-width="1" fill="none" fill-rule="evenodd">
        <g id="about" transform="translate(-1085.000000, -2282.000000)">
            <g id="section-3" transform="translate(0.000000, 1721.000000)">
                <rect id="background" fill="#FFFFFF" x="0" y="0" width="1440" height="860"></rect>
                <g id="enterprise-08" transform="translate(1035.000000, 531.000000)" fill="#C6CBD9">
                    <g transform="translate(63.000000, 49.000000)" id="iqiyi">
                        <g transform="translate(7.525547, 6.497385)">
                            <path d="M55.5428935,11.7270315 C55.5428935,11.488538 55.3514583,11.2944992 55.1126087,11.2944992 L50.8364312,11.2944992 C50.6035084,11.2944992 50.4097025,11.488538 50.4097025,11.7270315 L50.4097025,34.2805863 C50.4097025,34.5214828 50.6035084,34.7167231 50.8364312,34.7167231 L55.1126087,34.7167231 C55.3514583,34.7167231 55.5428935,34.5214828 55.5428935,34.2805863 L55.5428935,11.7270315" id="Fill-1"></path>
                            <path d="M17.2102069,31.0119639 C17.2102069,31.3928326 17.1319733,31.8421856 16.8664532,32.1299397 C16.5345531,32.4867788 15.9626181,32.5114092 15.5109968,32.4927862 C14.9443959,32.5144129 14.5235939,32.410485 14.2468129,32.1828048 C13.922025,31.988766 13.7584456,31.5982855 13.7584456,31.0119639 L13.7584456,14.9475948 C13.7584456,14.3720866 13.922025,13.9755986 14.2468129,13.760534 C14.5235939,13.5749055 14.9443959,13.4799887 15.5109968,13.4799887 C15.9181671,13.4799887 16.4266856,13.504619 16.7799221,13.7365044 C17.1699048,13.9870127 17.2054655,14.5258758 17.2102069,14.9475948 L17.2102069,31.0119639 Z M22.4068146,34.8705123 L22.4068146,34.8669079 L20.5541007,34.8669079 C20.06277,34.8669079 19.7996206,34.7942184 19.7658379,34.638627 C20.5434325,34.3472684 21.17345,33.9243479 21.6594467,33.3680634 C22.1187727,32.8382113 22.3481394,32.1587752 22.3481394,31.3345609 L22.3481394,14.6586392 C22.3481394,13.8536486 22.147814,13.1976413 21.7441997,12.6858114 C21.3429562,12.1565601 20.8101379,11.7438522 20.1498938,11.4488892 C18.72865,10.8944069 17.1699048,10.6282794 15.4588411,10.6505067 C14.6705783,10.6505067 13.8823155,10.7057747 13.0881259,10.8127063 C12.2856388,10.956283 11.5643487,11.1665418 10.9171435,11.4488892 C10.2545286,11.7408485 9.72408103,12.1517542 9.32165213,12.6858114 C8.8528432,13.1940368 8.61992043,13.8530478 8.61992043,14.654434 L8.61992043,31.3369639 C8.6542958,32.8382113 9.42714896,33.8750873 10.943814,34.4457896 C11.6016875,34.7395512 12.3330531,34.9498099 13.1503572,35.0783681 C13.9504735,35.2411685 14.7482192,35.3222683 15.5501136,35.3222683 C16.1534606,35.3222683 16.7242103,35.2748099 17.263548,35.1762886 C17.296738,35.825087 17.4976561,36.3639502 17.879934,36.7904751 C18.2420607,37.2338206 19.0196553,37.4675082 20.2050129,37.4891348 L22.4068146,37.4891348 C22.6450715,37.4891348 22.8376921,37.2938946 22.8376921,37.0517966 L22.8376921,35.306649 C22.8376921,35.0669541 22.6450715,34.8705123 22.4068146,34.8705123 L22.4068146,34.8705123 Z" id="Fill-2"></path>
                            <path d="M5.0875548,11.2944992 L0.810191916,11.2944992 C0.574898434,11.2944992 0.382277825,11.488538 0.382277825,11.7270315 L0.382277825,16.0697758 C0.382277825,16.3124744 0.574305755,16.507114 0.810191916,16.507114 L5.0875548,16.507114 C5.32344096,16.507114 5.51487621,16.3124744 5.51487621,16.0697758 L5.51487621,11.7270315 C5.51487621,11.488538 5.32344096,11.2944992 5.0875548,11.2944992" id="Fill-3"></path>
                            <path d="M30.2900353,11.2944992 L26.0168212,11.2944992 C25.7797497,11.2944992 25.5877217,11.488538 25.5877217,11.7270315 L25.5877217,34.2805863 C25.5877217,34.5220835 25.7797497,34.7149208 26.0168212,34.7149208 L30.2900353,34.7149208 C30.5282922,34.7149208 30.7209128,34.5208821 30.7209128,34.2805863 L30.7209128,11.7270315 C30.7209128,11.488538 30.5282922,11.2944992 30.2900353,11.2944992" id="Fill-4"></path>
                            <path d="M5.0875548,18.3615961 L0.810191916,18.3615961 C0.574898434,18.3615961 0.382277825,18.5568364 0.382277825,18.7977328 L0.382277825,34.2823886 C0.382277825,34.5214828 0.574898434,34.7167231 0.810191916,34.7167231 L5.0875548,34.7167231 C5.32344096,34.7167231 5.51487621,34.5214828 5.51487621,34.2811871 L5.51487621,18.7977328 C5.51487621,18.5568364 5.32344096,18.3615961 5.0875548,18.3615961" id="Fill-5"></path>
                            <path d="M48.0632871,11.8772163 L48.0615091,11.8754141 C48.0786967,11.8279557 48.0899576,11.7780943 48.0899576,11.7264308 C48.0899576,11.5011535 47.9180808,11.3191295 47.7029384,11.2981037 L47.7047164,11.2957007 L47.6845653,11.2957007 C47.6756752,11.2957007 47.6709337,11.2944992 47.6638216,11.2944992 L43.3165226,11.2944992 C43.1416824,11.2944992 42.994698,11.4008301 42.9271326,11.5522164 L42.9259473,11.5522164 L42.9259473,11.5540186 C42.9229839,11.5642312 42.9200205,11.5750445 42.9164644,11.5822533 C42.9164644,11.5822533 40.666063,18.7136293 40.452106,19.9301264 C40.2363709,18.7136293 37.9901183,11.5822533 37.9901183,11.5822533 C37.9853768,11.5750445 37.9853768,11.5642312 37.9764866,11.5540186 L37.9764866,11.5522164 L37.9747086,11.5522164 C37.9089213,11.4008301 37.763715,11.2944992 37.5876894,11.2944992 L33.240983,11.2944992 C33.2315002,11.2944992 33.2273514,11.2957007 33.2184613,11.2957007 L33.1983102,11.2957007 L33.1989029,11.2981037 C32.9849458,11.3191295 32.8136616,11.5011535 32.8136616,11.7264308 C32.8136616,11.7780943 32.8267006,11.8279557 32.8415175,11.8754141 L32.8379615,11.8772163 L37.896475,26.1105321 L37.896475,34.2823886 C37.896475,34.5214828 38.0885029,34.7149208 38.3232037,34.7149208 L42.5816009,34.7149208 C42.8174871,34.7149208 43.009515,34.5214828 43.009515,34.2823886 C43.009515,34.2763812 43.0071443,34.2709745 43.0071443,34.2661686 L43.0071443,26.1105321 L48.0632871,11.8772163" id="Fill-6"></path>
                            <path d="M101.984019,15.5603489 C101.450608,15.5603489 101.073664,15.8493045 100.89349,16.3959772 L100.884007,16.4428349 C100.831258,16.9096093 100.960462,17.5241656 101.873188,17.8023079 C105.216489,18.663768 107.802347,19.5997198 109.576234,20.5891374 C109.78782,20.6840542 109.989924,20.7327141 110.176618,20.7327141 C110.569564,20.7327141 110.973771,20.5705145 111.138535,20.1301726 C111.21262,19.9271227 111.223289,19.6555885 111.181208,19.4765682 C111.126089,19.2392762 111.021185,19.0109953 110.846938,18.8397846 C110.721882,18.7136293 110.564822,18.5976867 110.408355,18.5105795 C107.885914,17.2033708 105.170853,16.2199606 102.339033,15.5957925 C102.215756,15.5717629 102.095442,15.5603489 101.984019,15.5603489" id="Fill-7"></path>
                            <path d="M90.7047486,20.4215311 C95.971885,20.1115497 99.3294104,18.4469011 100.688423,15.4750439 L109.390726,15.4750439 C109.746926,15.4750439 110.341975,15.3260605 110.341975,14.3222252 C110.341975,13.3976874 109.746926,13.2577152 109.390726,13.2577152 L101.202868,13.2577152 C101.273397,12.8137689 101.30718,12.5368281 101.315477,12.2256451 C101.327331,11.8267542 101.095593,11.3954234 100.708574,11.2692682 C100.244506,11.1190834 99.5984866,11.1767543 99.2855522,11.5966711 C99.1925016,11.7216249 99.1024144,11.9012459 99.0721878,12.0562366 C99.0721878,12.0562366 98.9263888,12.8408021 98.8683063,13.1940368 C98.8517113,13.2180664 98.8392651,13.2372901 98.8250408,13.2577152 L91.5226453,13.2577152 C90.7883163,13.2577152 90.3852947,13.6355802 90.3852947,14.3222252 C90.3852947,15.0653397 90.7883163,15.4750439 91.5226453,15.4750439 L98.1280505,15.4750439 C98.0924898,15.4750439 97.9609151,15.6684819 97.9300958,15.7003211 C97.8631231,15.7754135 97.7937797,15.8493045 97.7256216,15.9237961 C97.5816007,16.0727795 97.4346163,16.2169569 97.2799271,16.3515225 C96.9385442,16.6482877 96.5574517,16.8909864 96.1526521,17.092234 C95.6737676,17.3277238 95.1652492,17.5019382 94.650804,17.640709 C94.0427155,17.8023079 93.4221808,17.9134446 92.7974974,17.9975481 C92.0993218,18.0942671 91.3952194,18.1573448 90.692895,18.2192209 C90.2027496,18.2600712 89.7203091,18.5568364 89.5798442,19.0548493 C89.4607158,19.4861801 89.583993,19.9992114 89.9816804,20.232899 C90.1790425,20.3488417 90.4635283,20.4215311 90.7047486,20.4215311" id="Fill-8"></path>
                            <path d="M135.01875,27.8436649 C134.449185,27.8424635 134.00112,28.2804024 133.900957,28.8312803 C133.870138,29.0054947 133.853543,29.1941268 133.857692,29.3707442 C133.887326,30.3193115 133.857099,31.1249029 133.476599,31.5243945 C133.064688,31.9569268 132.46786,31.8271671 131.77324,31.8493945 L124.037597,31.8493945 C120.059537,31.8493945 119.579467,31.2078049 119.554574,30.9200508 C119.504197,30.5686183 120.399142,29.0781842 129.765245,22.8310964 C130.39467,22.4478247 130.822584,22.1720854 131.079214,21.9762444 C131.866884,21.3538785 131.853252,20.7357178 131.690858,20.3013833 C131.406372,19.7264758 130.84392,19.4339157 130.024245,19.4339157 L117.313063,19.4339157 C116.243871,19.4339157 116.082662,20.0971319 116.082662,20.5200524 C116.136003,20.9922334 116.40745,21.5557269 117.404928,21.5557269 L127.608487,21.5557269 C122.62228,24.7270296 119.262976,27.3384432 117.597549,29.3262895 C117.597549,29.3262895 116.499315,30.546391 116.997758,31.8493945 C117.257351,32.5318343 117.860106,33.0965292 118.894923,33.4912149 C120.082059,33.9321576 122.154064,34.1574348 125.0493,34.1574348 L132.12707,34.1574348 C133.949557,34.1574348 134.54757,33.8450504 135.147954,33.2016586 C135.901841,32.3930635 136.236705,31.0654297 136.132986,29.2511971 C136.086164,28.6931103 135.885246,28.1734708 135.36843,27.9223618 C135.254636,27.8676945 135.139063,27.8436649 135.01875,27.8436649" id="Fill-9"></path>
                            <path d="M76.5563203,29.4668625 C74.9673484,28.5885817 73.7233156,27.5589145 72.8491144,26.3946818 L79.6056527,26.3946818 C79.6418061,26.4481476 79.6554377,26.5076208 79.6524743,26.5779073 C79.6287672,26.8981013 79.1925556,27.6934801 76.5563203,29.4668625 L76.5563203,29.4668625 Z M72.0964123,20.7261059 L67.7271843,20.7261059 C67.487742,20.7261059 67.2814898,20.767557 67.1090203,20.8468545 C67.1149471,20.7891836 67.1167251,20.7273074 67.1167251,20.6696364 L67.1167251,19.7132595 C67.0918326,19.4855793 67.1185031,19.3191745 67.1854758,19.2416792 C67.1997001,19.2266607 67.2435584,19.1780008 67.3858013,19.1780008 C67.4444765,19.1780008 67.5132272,19.1858104 67.5890901,19.2038326 L67.6127972,19.2080378 L72.5338093,19.2080378 C72.4247564,19.7745349 72.2789574,20.2821596 72.0964123,20.7261059 L72.0964123,20.7261059 Z M73.6587137,14.5420958 C73.628487,14.8286484 73.676494,15.0743508 73.8027346,15.2707925 C74.1352274,15.9478257 74.3734843,16.4926962 74.5186906,16.898796 L71.3253372,16.898796 C71.4213512,16.6248589 71.394088,16.3485188 71.2322867,16.0811898 C70.9377253,15.5327149 70.5993057,15.0166798 70.222362,14.5420958 L73.6587137,14.5420958 Z M74.8138446,19.2080378 L83.4942183,19.2080378 C83.6672805,19.2080378 83.920947,19.1978252 83.9073154,19.4549416 C83.8990179,19.6159397 83.6358685,20.304387 83.544596,20.5044331 C83.5042938,20.6305884 83.4788087,20.7525385 83.465177,20.8672797 C83.2820393,20.7825754 83.0443751,20.7261059 82.7409236,20.7261059 L74.553066,20.7261059 C74.7717644,19.9084998 74.829847,19.4669564 74.8138446,19.2080378 L74.8138446,19.2080378 Z M80.8650952,14.0470866 C80.8022712,14.1311901 80.7495228,14.2194988 80.7032938,14.3138149 L80.6973671,14.3264304 L80.693811,14.3390459 C80.3482792,15.3314672 79.8296853,16.1905244 79.147512,16.898796 L76.8153209,16.898796 C76.4626771,15.8907555 76.1242575,15.0653397 75.8148791,14.4303583 C77.7588656,14.3246282 79.4515562,14.1966707 80.8650952,14.0470866 L80.8650952,14.0470866 Z M85.9793205,32.0230081 C83.2867807,31.8493945 80.9480702,31.3117328 79.0189007,30.4262431 C80.4282909,29.3407072 81.4968908,28.1037851 82.1986225,26.7365024 C82.6407608,25.8035543 82.7178091,25.1319278 82.4339159,24.6705601 C82.190325,24.2830832 81.7055137,24.0902459 80.9913357,24.0902459 L73.3392598,24.0902459 C73.5028391,23.7502275 73.6504162,23.3651536 73.7849542,22.9416324 L82.8487911,22.9416324 C83.7561823,22.8575289 84.0027367,22.3535087 84.0495583,21.9522148 C84.0720801,21.9618266 84.12957,21.9936658 84.1437943,21.9972703 C84.3050029,22.0507361 84.457914,22.0777693 84.5977862,22.0777693 C84.9083499,22.0777693 85.3333006,21.9492111 85.6154157,21.299812 C86.2845501,19.3906625 86.3799714,18.1333152 85.9058283,17.4514761 C85.6497911,17.0838237 85.236694,16.898796 84.6783905,16.898796 L81.8442005,16.898796 C82.0516381,16.5575761 82.2294418,16.1971325 82.3817602,15.8306815 C82.5299299,15.470238 82.6988434,15.0869663 82.7658161,14.7018924 C82.8037475,14.500044 82.7889305,14.2849794 82.7018068,14.0975487 C82.6638753,14.0224563 82.6170537,13.9503676 82.5566004,13.88729 C83.1457232,13.8266153 83.5042938,13.8248131 84.0732655,13.7082697 C84.3642708,13.647595 84.6783905,13.5881218 84.9255376,13.4187133 C85.2260258,13.2102568 85.3949392,12.762706 85.3433762,12.4118743 C85.2912204,12.0670499 85.0962291,11.7372441 84.7708484,11.599074 C84.6048984,11.5275861 84.3867926,11.474721 84.2048402,11.474721 C84.1426089,11.474721 84.0732655,11.4795269 83.9938465,11.488538 C80.2250021,12.1259224 76.1201087,12.4491201 71.785256,12.4491201 C70.2336229,12.4491201 68.6227219,12.4088706 66.9898918,12.3241664 C65.9959695,12.3241664 65.7227446,12.8383992 65.6682181,13.2931588 C65.6682181,13.7653399 65.8756557,14.348057 66.8618732,14.444776 C67.0829424,14.4958389 67.4403277,14.5288795 67.9441047,14.5372899 C67.9168415,14.5372899 67.9162488,14.7920033 67.9162488,14.8154322 C67.9227683,14.9301734 67.9500315,15.0383064 67.9927044,15.1422343 C68.1811762,15.5957925 68.5895319,15.9051732 68.8408277,16.3154781 C68.9878121,16.5545724 69.1063478,16.7498126 69.1928789,16.898796 L66.622431,16.898796 C65.8507632,16.898796 64.9291476,17.2298033 64.9291476,18.8007365 L64.9291476,20.6696364 C64.9291476,21.4109487 65.3333546,21.8206529 66.070647,21.8206529 C66.2306703,21.8206529 66.3746912,21.7984256 66.5009318,21.7521686 C66.5009318,21.7629819 66.4991538,21.7749967 66.4955977,21.788213 C66.4955977,22.4604402 66.8938779,22.8695437 67.6341337,22.9416324 L71.2548085,22.9416324 C69.8128209,26.021022 67.6939942,28.2972231 64.94515,29.7215759 C64.2357135,30.1535075 64.0425002,30.7542468 64.4075903,31.4174629 L64.4158878,31.4360858 L64.4283341,31.4517051 C64.6754811,31.751474 65.0216055,31.9046625 65.4548537,31.9046625 C66.3776546,31.9046625 67.1588053,31.2060027 67.8812807,30.7109935 C68.6363535,30.1979622 69.3321584,29.5701896 69.963954,28.9087757 C70.141165,28.723748 70.3124492,28.5315114 70.4766212,28.3314652 C70.5192941,28.2828054 70.971508,27.7607629 70.9578764,27.744543 C71.94765,28.9267979 73.0885567,29.9534613 74.3598527,30.8059103 C72.4431294,31.6217143 70.1494625,32.0938954 67.5250808,32.212241 C67.0580499,32.253692 66.6621405,32.4255034 66.4132154,32.8352076 C65.9532966,33.5927399 66.5068586,34.4361778 67.3318675,34.4938488 C67.5078931,34.5076658 68.838457,34.3875179 69.5123328,34.258359 C70.8351919,34.0078507 72.1414559,33.726104 73.4269762,33.3127954 C73.9965406,33.1271669 74.5613635,32.9247178 75.108406,32.6850228 C75.6169244,32.4609471 76.1088478,32.2026292 76.5936591,31.9353002 C76.6173662,31.9202817 76.7453848,31.831973 76.7637579,31.8409841 C79.6311379,33.1842372 82.6899532,33.9880263 85.8720456,34.2391353 C86.5311045,34.2391353 86.9347187,33.8684792 87.0099889,33.1758268 C87.0099889,32.507204 86.6478622,32.0981005 85.9793205,32.0230081 L85.9793205,32.0230081 Z" id="Fill-10"></path>
                            <path d="M110.771075,20.9123351 L90.692895,20.9123351 C89.9716049,20.9123351 89.535986,21.281189 89.4630865,21.9492111 C89.4275258,22.2754125 89.4903497,22.5427415 89.650373,22.7427877 C89.8246205,22.9614568 90.1049576,23.0906158 90.5103499,23.1290631 L106.129807,23.1290631 L106.129807,31.5766588 C106.120324,31.7634888 106.088912,32.3329896 104.642183,32.3329896 C103.947564,32.3329896 103.020614,32.198424 101.883856,31.9353002 C101.758801,31.9046625 101.637302,31.892047 101.527656,31.892047 C101.051735,31.892047 100.708574,32.1491634 100.523658,32.647777 C100.407493,33.0352538 100.420532,33.3566493 100.560997,33.6023517 C100.691979,33.8240245 100.917197,33.9730078 101.237836,34.0444958 C102.633002,34.3604847 103.834955,34.5184791 104.809319,34.5184791 C107.044903,34.5184791 108.223741,33.6948655 108.316792,32.055448 L108.316792,23.1290631 L110.885462,23.1260594 C111.547484,23.0521684 111.907833,22.6466694 111.907833,21.9492111 C111.834933,21.281189 111.428948,20.9123351 110.771075,20.9123351" id="Fill-11"></path>
                            <path d="M137.582678,14.7475486 C137.48133,13.8506449 136.944956,13.7172807 136.634392,13.7172807 L131.471567,13.7172807 L131.471567,12.1697764 C131.471567,11.8099335 131.338214,11.2067913 130.428452,11.2067913 C129.442235,11.2067913 129.29525,11.8099335 129.29525,12.1697764 L129.29525,13.7172807 L123.544488,13.7172807 L123.544488,12.1697764 C123.544488,11.8099335 123.408765,11.2067913 122.501373,11.2067913 C121.515749,11.2067913 121.368172,11.8099335 121.368172,12.1697764 L121.368172,13.7172807 L115.804103,13.7172807 C115.448496,13.7172807 114.851075,13.8524471 114.851075,14.7727797 C114.851075,15.69131 115.448496,15.8306815 115.804103,15.8306815 L121.368172,15.8306815 L121.368172,18.0293873 C121.368172,18.3537865 121.50271,18.8998585 122.408915,18.8998585 C123.318085,18.8998585 123.45203,18.3537865 123.45203,18.0293873 L123.45203,15.8306815 L129.29525,15.8306815 L129.29525,18.0293873 C129.29525,18.3537865 129.430974,18.8998585 130.337772,18.8998585 C131.244571,18.8998585 131.380887,18.3537865 131.380887,18.0293873 L131.380887,15.8306815 L136.634392,15.8306815 C136.944956,15.8306815 137.48133,15.6961159 137.582678,14.7968092 L137.586827,14.7727797 L137.582678,14.7475486" id="Fill-12"></path>
                            <path d="M102.085367,28.7664005 C102.085367,29.1382581 101.935419,29.2914466 101.56618,29.2914466 L94.1914779,29.2914466 C93.822239,29.2914466 93.6716986,29.1382581 93.6716986,28.7664005 L93.6716986,26.9822048 C93.6716986,26.6103472 93.822239,26.4571587 94.1914779,26.4571587 L101.56618,26.4571587 C101.935419,26.4571587 102.085367,26.6103472 102.085367,26.9822048 L102.085367,28.7664005 Z M103.905483,24.8700055 C103.675524,24.6219002 103.335919,24.4831294 102.906227,24.4452828 L92.8538019,24.4452828 C92.4223317,24.4831294 92.0833194,24.6219002 91.8533601,24.8700055 C91.6494786,25.0910776 91.5309428,25.3860405 91.4959748,25.7494878 L91.4959748,29.9997182 C91.5309428,30.361964 91.6494786,30.65933 91.8533601,30.8792005 C92.0833194,31.1291081 92.4223317,31.2654759 92.8538019,31.3033225 L102.906227,31.3033225 C103.335919,31.2654759 103.675524,31.1291081 103.905483,30.8792005 C104.107587,30.65933 104.227901,30.361964 104.262869,29.9997182 L104.262869,25.7494878 C104.227901,25.3860405 104.107587,25.0910776 103.905483,24.8700055 L103.905483,24.8700055 Z" id="Fill-13"></path>
                            <path d="M54.5531199,5.19759626 C54.1358741,4.30189399 53.4211034,3.40258729 52.6198017,2.85351159 C49.6694466,0.832023904 34.1560791,0.103927896 31.4054568,0.0606746674 C30.3327082,0.0438539675 29.2030624,0.038447314 27.9708832,0.0396487926 L27.9133933,0.0396487926 C27.8944276,0.0396487926 25.4946712,0.0438539675 24.4225152,0.0606746674 C21.6701149,0.103927896 6.15793271,0.832023904 3.20757765,2.85351159 C2.4068686,3.40258729 1.69031993,4.30189399 1.27485209,5.19759626 C0.654317393,6.54986038 0.419616589,8.42717064 0.419616589,9.49648656 L5.58362695,9.48807621 C5.5990366,9.11922229 5.7667647,8.09976773 6.18697397,7.42273456 C6.86084976,6.34020237 8.13866525,5.99237433 9.30090837,5.82176437 C14.0014439,5.13031346 18.1816075,4.76866841 22.5863963,4.63530429 C24.3395402,4.58364072 27.8944276,4.5650178 27.9133933,4.5650178 C27.9335444,4.5650178 27.9513248,4.5620141 27.9708832,4.5620141 C29.7293612,4.56021188 31.4848758,4.58364072 33.240983,4.63530429 C37.6463646,4.76866841 41.8247501,5.13031346 46.5246929,5.82176437 C47.6887141,5.99237433 48.9647516,6.34020237 49.6386273,7.42273456 C50.0618,8.09976773 50.2289354,9.11922229 50.2461231,9.48807621 L55.4077628,9.49648656 C55.4077628,8.42717064 55.1718766,6.54986038 54.5531199,5.19759626" id="Fill-14"></path>
                            <path d="M54.5531199,40.8761029 C54.1358741,41.7736074 53.4211034,42.6723134 52.6198017,43.2201876 C49.6694466,45.2434775 34.1560791,45.970372 31.4054568,46.0136252 C30.3327082,46.0316474 29.2030624,46.0382556 27.9708832,46.0352519 L27.9133933,46.0352519 C27.8944276,46.0352519 25.4946712,46.0316474 24.4225152,46.0136252 C21.6701149,45.970372 6.15793271,45.2434775 3.20757765,43.2201876 C2.4068686,42.6723134 1.69031993,41.7736074 1.27485209,40.8761029 C0.654317393,39.525641 0.419616589,37.64773 0.419616589,36.5790148 L5.58362695,36.5874252 C5.5990366,36.9568798 5.7667647,37.9739314 6.18697397,38.6539683 C6.86084976,39.7371012 8.13866525,40.0819256 9.30090837,40.253737 C14.0014439,40.9451879 18.1816075,41.3056315 22.5863963,41.4407978 C24.3395402,41.4948644 27.8944276,41.5104836 27.9133933,41.5104836 C27.9335444,41.5104836 27.9513248,41.5122858 27.9708832,41.5122858 C29.7293612,41.5152895 31.4848758,41.4948644 33.240983,41.4407978 C37.6463646,41.3056315 41.8247501,40.9451879 46.5246929,40.253737 C47.6887141,40.0819256 48.9647516,39.7371012 49.6386273,38.6539683 C50.0618,37.9739314 50.2289354,36.9568798 50.2461231,36.5874252 L55.4077628,36.5790148 C55.4077628,37.64773 55.1718766,39.525641 54.5531199,40.8761029" id="Fill-15"></path>
                        </g>
                    </g>
                </g>
            </g>
        </g>
    </g>
</svg>