<?xml version="1.0" encoding="UTF-8"?>
<svg width="170px" height="100px" viewBox="0 0 170 100" version="1.1" xmlns="http://www.w3.org/2000/svg" xmlns:xlink="http://www.w3.org/1999/xlink">
    <!-- Generator: Sketch 44 (41411) - http://www.bohemiancoding.com/sketch -->
    <title>enterprise-02</title>
    <desc>Created with Sketch.</desc>
    <defs></defs>
    <g id="______Slice" stroke="none" stroke-width="1" fill="none" fill-rule="evenodd">
        <g id="about" transform="translate(-1045.000000, -5696.000000)" fill-rule="nonzero" fill="#C6CBD9">
            <g id="enterprise-02" transform="translate(995.000000, 5666.000000)">
                <g id="didi" transform="translate(65.000000, 57.000000)">
                    <g id="Shape" transform="translate(67.094340, 0.000000)">
                        <path d="M1.99803774,10.5789302 C1.97584906,10.5639535 1.95049057,10.5564651 1.92618868,10.5564651 C1.89026415,10.5564651 1.85645283,10.5714419 1.83003774,10.5992558 L0.236679245,12.4467442 C0.212377358,12.4756279 0.201811321,12.5098605 0.203924528,12.5473023 C0.206037736,12.5847442 0.226113208,12.6146977 0.255698113,12.6382326 C1.51622642,13.5892558 3.25645283,15.0858605 5.57358491,17.2125581 C5.5989434,17.2339535 5.63064151,17.2467907 5.66128302,17.2467907 C5.69403774,17.2467907 5.73101887,17.2307442 5.75637736,17.2029302 C6.24769811,16.6562791 6.85418868,15.9833953 7.60754717,15.1350698 C7.63079245,15.1093953 7.6434717,15.074093 7.63818868,15.0387907 C7.63713208,15.0045581 7.62022642,14.9703256 7.59486792,14.9467907 C5.37916981,13.0864651 3.49418868,11.6155349 1.99803774,10.5789302 L1.99803774,10.5789302 L1.99803774,10.5789302 Z"></path>
                        <path d="M6.74958491,20.9642326 C5.90430189,20.6775349 5.04528302,20.3213023 4.18415094,19.9019535 C4.16830189,19.8944651 4.14822642,19.890186 4.12920755,19.890186 C4.11124528,19.890186 4.09011321,19.8944651 4.07215094,19.9019535 C4.03728302,19.9212093 4.01086792,19.9533023 4.0034717,19.9939535 C3.02928302,24.8571163 2.00015094,29.0163721 0.944603774,32.3529767 C0.932981132,32.3861395 0.939320755,32.4225116 0.952,32.4556744 C0.967849057,32.4856279 0.997433962,32.508093 1.02913208,32.5198605 L3.8365283,33.3574884 C3.84603774,33.3628372 3.86083019,33.363907 3.87350943,33.363907 C3.89569811,33.363907 3.91788679,33.3574884 3.93901887,33.3467907 C3.96966038,33.3286047 3.99184906,33.2975814 3.99818868,33.2633488 C5.14566038,28.2803721 6.04588679,24.4217209 6.8330566,21.1204186 C6.84996226,21.0530233 6.81403774,20.9856279 6.74958491,20.9642326 L6.74958491,20.9642326 L6.74958491,20.9642326 Z"></path>
                        <path d="M3.2490566,1.99511628 C3.22792453,1.97586047 3.19833962,1.96730233 3.16875472,1.96730233 C3.13388679,1.96730233 3.09901887,1.98013953 3.07471698,2.01009302 L1.45283019,3.78376744 C1.4285283,3.80944186 1.41584906,3.84581395 1.41901887,3.88218605 C1.42007547,3.9164186 1.43803774,3.95065116 1.46656604,3.97418605 C3.17615094,5.40553488 4.80120755,6.95348837 6.2994717,8.57525581 C6.32483019,8.60306977 6.35758491,8.61804651 6.39456604,8.61804651 L6.39456604,8.61804651 C6.43049057,8.61804651 6.46535849,8.60306977 6.49071698,8.57525581 L8.34188679,6.578 C8.36407547,6.55125581 8.37781132,6.51702326 8.37464151,6.4827907 C8.37464151,6.4464186 8.35879245,6.41432558 8.33237736,6.3907907 C6.27622642,4.5112093 4.61524528,3.07451163 3.2490566,1.99511628 L3.2490566,1.99511628 L3.2490566,1.99511628 Z"></path>
                        <path d="M33.8483019,4.11004651 L23.0424151,4.11004651 L23.0350189,0.406511628 C23.0350189,0.333767442 22.9747925,0.276 22.9029434,0.276 L19.9127547,0.276 C19.8810566,0.276 19.8483019,0.289906977 19.8218868,0.315581395 C19.8007547,0.339116279 19.7849057,0.37227907 19.7849057,0.407581395 L19.7933585,4.11004651 L8.91139623,4.11004651 C8.84166038,4.11004651 8.78460377,4.16781395 8.78460377,4.24055814 L8.78460377,6.14153488 C8.78460377,6.21427907 8.84166038,6.27204651 8.91139623,6.27204651 L13.5287547,6.27204651 C13.6851321,6.65716279 13.8584151,7.13106977 14.0443774,7.63172093 C14.4004528,8.602 14.8019623,9.69423256 15.2647547,10.7051628 L12.650717,10.7051628 C10.7446038,10.6602326 9.89932075,11.4122791 9.92784906,13.5732093 L9.92784906,33.607814 C9.92784906,33.6805581 9.98490566,33.7383256 10.0567547,33.7383256 L12.7616604,33.7383256 C12.8313962,33.7383256 12.8895094,33.6805581 12.8895094,33.607814 L12.8895094,14.0963256 C12.9074717,13.3068372 13.216,12.9816279 13.9936604,12.9698605 L19.8969057,12.9698605 L19.8969057,16.1406512 L14.4680755,16.1406512 C14.3962264,16.1406512 14.3391698,16.1973488 14.3391698,16.2711628 L14.3391698,17.9945581 C14.3391698,18.0662326 14.3962264,18.1261395 14.4680755,18.1261395 L19.8969057,18.1261395 L19.8969057,21.4926977 L15.6895094,21.4926977 C15.6166038,21.4926977 15.5595472,21.5526047 15.5595472,21.6232093 L15.5595472,29.8272558 C15.5595472,29.8978605 15.6166038,29.9588372 15.6895094,29.9588372 L23.8253585,29.9588372 C24.0556981,29.9673953 24.2606792,29.9716744 24.4529811,29.9716744 C25.6046792,29.9716744 26.2386415,29.7951628 26.6528302,29.3608372 C27.0807547,28.9115349 27.2424151,28.1873023 27.1959245,26.9453023 L27.1959245,21.6242791 C27.1959245,21.5526047 27.1388679,21.4937674 27.0670189,21.4937674 L22.7212075,21.4937674 L22.7212075,18.1272093 L28.2884528,18.1272093 C28.3613585,18.1272093 28.4184151,18.0673023 28.4184151,17.9956279 L28.4184151,16.2711628 C28.4184151,16.1962791 28.3613585,16.1406512 28.2884528,16.1406512 L22.7212075,16.1406512 L22.7212075,12.9698605 L28.6360755,12.9698605 C29.5458113,12.9687907 29.7698113,13.4566047 29.7286038,14.4140465 L29.7286038,30.0230233 C29.7286038,30.9184186 29.0238491,31.1066977 28.4300377,31.1066977 L25.1513962,31.1066977 C25.1175849,31.1066977 25.0858868,31.1216744 25.0615849,31.1452093 C25.037283,31.169814 25.0256604,31.2029767 25.0256604,31.2393488 L25.0341132,33.4066977 C25.0341132,33.4783721 25.0922264,33.5382791 25.1619623,33.5382791 L29.5331321,33.5382791 C31.6051321,33.5382791 32.6575094,32.5284186 32.6575094,30.5407907 L32.6923774,13.721907 C32.7166792,11.5823721 32.0689811,10.6794884 29.5458113,10.7051628 L27.3660377,10.7051628 C27.9640755,9.52413953 28.4723019,8.06069767 28.8843774,6.87218605 C28.9583396,6.6635814 29.0270189,6.46246512 29.0946415,6.27311628 L33.8483019,6.27311628 C33.9212075,6.27311628 33.9772075,6.21534884 33.9772075,6.14260465 L33.9772075,4.24162791 C33.9772075,4.16781395 33.9212075,4.11004651 33.8483019,4.11004651 L33.8483019,4.11004651 L33.8483019,4.11004651 Z M25.9533585,6.27204651 C25.6860377,6.91069767 24.9601509,8.7795814 24.5047547,9.95311628 C24.3758491,10.2879535 24.2691321,10.5564651 24.2110189,10.7051628 L18.546566,10.7051628 C18.4567547,10.4826512 18.2190189,9.93493023 17.869283,9.12939535 C17.410717,8.07567442 16.8549434,6.79516279 16.6531321,6.27204651 L25.9533585,6.27204651 L25.9533585,6.27204651 L25.9533585,6.27204651 Z M18.3944151,28.119907 L18.3944151,23.5990698 L24.3568302,23.5990698 L24.3568302,26.6778605 C24.3335849,28.06 24.3135094,28.0610698 23.1258868,28.1113488 L22.9452075,28.1188372 L18.3944151,28.1188372 L18.3944151,28.119907 L18.3944151,28.119907 Z"></path>
                        <path d="M40.7489811,10.3393023 C40.7267925,10.3232558 40.7003774,10.3168372 40.6760755,10.3168372 C40.6412075,10.3168372 40.605283,10.3307442 40.5788679,10.3606977 L38.9844528,12.208186 C38.9622642,12.236 38.9495849,12.2723721 38.9559245,12.309814 C38.9601509,12.346186 38.9791698,12.3761395 39.0055849,12.3996744 C40.2650566,13.3517674 42.005283,14.8473023 44.3255849,16.974 C44.3477736,16.9953953 44.3805283,17.0071628 44.4111698,17.0071628 C44.4460377,17.0071628 44.4809057,16.9911163 44.5073208,16.9643721 C44.9986415,16.4177209 45.6061887,15.7448372 46.3563774,14.8954419 C46.3806792,14.8708372 46.3944151,14.8366047 46.3912453,14.7991628 C46.3891321,14.7638605 46.3711698,14.7317674 46.3447547,14.7082326 C44.1269434,12.8468372 42.2440755,11.3748372 40.7489811,10.3393023 L40.7489811,10.3393023 L40.7489811,10.3393023 Z"></path>
                        <path d="M45.5005283,20.7246047 C44.6563019,20.4368372 43.7930566,20.0806047 42.9372075,19.6623256 C42.9192453,19.6526977 42.901283,19.6494884 42.8801509,19.6494884 C42.8590189,19.6494884 42.8410566,19.6537674 42.8241509,19.6623256 C42.7882264,19.6805116 42.7618113,19.7136744 42.7523019,19.7532558 C41.781283,24.6164186 40.7521509,28.7756744 39.6944906,32.1122791 C39.6839245,32.1454419 39.6881509,32.181814 39.704,32.2149767 C39.7198491,32.2449302 39.7483774,32.2663256 39.7821887,32.2791628 L42.5895849,33.1157209 C42.5990943,33.1210698 42.6117736,33.1221395 42.6255094,33.1221395 C42.6455849,33.1221395 42.6688302,33.1157209 42.6899623,33.1050233 C42.7206038,33.087907 42.7438491,33.055814 42.7512453,33.0215814 C43.898717,28.0386047 44.7978868,24.1810233 45.5850566,20.8797209 C45.5987925,20.8123256 45.5660377,20.746 45.5005283,20.7246047 L45.5005283,20.7246047 L45.5005283,20.7246047 Z"></path>
                        <path d="M41.9989434,1.7544186 C41.9767547,1.73623256 41.9482264,1.72660465 41.9186415,1.72660465 C41.882717,1.72660465 41.8510189,1.74051163 41.8246038,1.77046512 L40.2016604,3.54413953 C40.1752453,3.57088372 40.1646792,3.60511628 40.1667925,3.64148837 C40.1699623,3.6767907 40.1868679,3.71102326 40.213283,3.73455814 C41.9228679,5.16697674 43.5500377,6.71493023 45.0493585,8.33562791 C45.0736604,8.36344186 45.1064151,8.3784186 45.1423396,8.3784186 L45.1423396,8.3784186 C45.1793208,8.3784186 45.2131321,8.36344186 45.237434,8.33562791 L47.0886038,6.33730233 C47.1118491,6.31162791 47.1245283,6.27846512 47.1245283,6.24316279 C47.1234717,6.2067907 47.1055094,6.17469767 47.0822642,6.15223256 C45.0282264,4.2715814 43.3640755,2.83381395 41.9989434,1.7544186 L41.9989434,1.7544186 L41.9989434,1.7544186 Z"></path>
                        <path d="M72.5992453,3.86934884 L61.7923019,3.86934884 L61.7838491,0.165813953 C61.7838491,0.0941395349 61.7267925,0.036372093 61.6549434,0.036372093 L58.6647547,0.036372093 C58.6298868,0.036372093 58.5992453,0.0502790698 58.5728302,0.0759534884 C58.5495849,0.0994883721 58.5347925,0.132651163 58.5347925,0.166883721 L58.5443019,3.86934884 L47.6623396,3.86934884 C47.5926038,3.86934884 47.533434,3.92711628 47.533434,3.99986047 L47.533434,5.90190698 C47.533434,5.9735814 47.5926038,6.03134884 47.6623396,6.03134884 L52.2807547,6.03134884 C52.4371321,6.41753488 52.6114717,6.89037209 52.7953208,7.39102326 C53.149283,8.36130233 53.5529057,9.45460465 54.0146415,10.4655349 L51.3984906,10.4655349 C49.4913208,10.4206047 48.6470943,11.1715814 48.6777358,13.3325116 L48.6777358,33.3671163 C48.6777358,33.4409302 48.7337358,33.4976279 48.8045283,33.4976279 L51.509434,33.4976279 C51.581283,33.4976279 51.6404528,33.4398605 51.6404528,33.3671163 L51.6404528,13.8566977 C51.6563019,13.0682791 51.962717,12.742 52.7435472,12.7302326 L58.6478491,12.7302326 L58.6478491,15.9010233 L53.2169057,15.9010233 C53.1461132,15.9010233 53.088,15.9577209 53.088,16.0326047 L53.088,17.756 C53.088,17.8266047 53.1450566,17.8865116 53.2169057,17.8865116 L58.6478491,17.8865116 L58.6478491,21.252 L54.4393962,21.252 C54.3686038,21.252 54.309434,21.311907 54.309434,21.3835814 L54.309434,29.5876279 C54.309434,29.6582326 54.3696604,29.7192093 54.4393962,29.7192093 L62.5752453,29.7192093 C62.8045283,29.7277674 63.0116226,29.7309767 63.2018113,29.7309767 C64.3535094,29.7309767 64.9906415,29.5555349 65.4016604,29.1201395 C65.8306415,28.6708372 65.9944151,27.9466047 65.9458113,26.7046047 L65.9458113,21.3835814 C65.9458113,21.311907 65.8887547,21.252 65.8179623,21.252 L61.4700377,21.252 L61.4700377,17.8865116 L67.0415094,17.8865116 C67.1112453,17.8865116 67.1693585,17.8266047 67.1693585,17.756 L67.1693585,16.0326047 C67.1693585,15.9587907 67.1112453,15.9010233 67.0415094,15.9010233 L61.4700377,15.9010233 L61.4700377,12.7302326 L67.3859623,12.7302326 C68.2956981,12.7291628 68.5196981,13.2169767 68.4784906,14.1744186 L68.4784906,29.7823256 C68.4784906,30.6777209 67.7716226,30.8649302 67.1778113,30.8649302 L63.9023396,30.8649302 C63.8674717,30.8649302 63.8336604,30.879907 63.8104151,30.9045116 C63.7871698,30.9291163 63.773434,30.9622791 63.773434,30.9986512 L63.7850566,33.1649302 C63.7871698,33.2376744 63.8410566,33.2954419 63.9129057,33.2954419 L68.2872453,33.2954419 C70.3581887,33.2954419 71.4073962,32.2866512 71.4073962,30.2990233 L71.4443774,13.4801395 C71.4686792,11.3395349 70.8167547,10.4377209 68.2946415,10.4644651 L66.1127547,10.4644651 C66.7129057,9.28344186 67.2200755,7.81893023 67.6332075,6.6304186 C67.7050566,6.42288372 67.7747925,6.22176744 67.8445283,6.03134884 L72.5971321,6.03134884 C72.6668679,6.03134884 72.7249811,5.9735814 72.7249811,5.90190698 L72.7249811,4.00093023 C72.7260377,3.92711628 72.6689811,3.86934884 72.5992453,3.86934884 L72.5992453,3.86934884 L72.5992453,3.86934884 Z M64.7021887,6.03134884 C64.4338113,6.67 63.7110943,8.53888372 63.2525283,9.71348837 C63.1246792,10.046186 63.0200755,10.3157674 62.9609057,10.4644651 L57.2943396,10.4644651 C57.2076981,10.2419535 56.9699623,9.69423256 56.6202264,8.88869767 C56.1584906,7.83497674 55.6037736,6.55553488 55.3998491,6.03134884 L64.7021887,6.03134884 L64.7021887,6.03134884 L64.7021887,6.03134884 Z M57.1464151,27.8792093 L57.1464151,23.3594419 L63.1077736,23.3594419 L63.1077736,26.4393023 C63.0855849,27.8214419 63.061283,27.8214419 61.8757736,27.8727907 L61.6972075,27.8802791 L57.1464151,27.8802791 L57.1464151,27.8792093 L57.1464151,27.8792093 Z"></path>
                        <path d="M27.4833208,40.1890233 L27.4833208,39.6851628 L34.0744151,39.6851628 L34.0744151,40.1890233 L30.7609057,40.1890233 L30.7609057,45.8833953 L30.1110943,45.8833953 L30.1110943,40.1890233 L27.4833208,40.1890233 L27.4833208,40.1890233 L27.4833208,40.1890233 Z M33.4763774,43.3255814 C32.6849811,42.7746512 31.8809057,42.3306977 31.0726038,42.0033488 L31.0926792,41.4652558 C32.037283,41.768 32.8202264,42.2173023 33.4763774,42.6355814 L33.4763774,43.3255814 L33.4763774,43.3255814 L33.4763774,43.3255814 Z"></path>
                        <path d="M42.6181132,43.9931163 L45.1793208,43.9931163 L45.1793208,43.6015814 L42.4733585,43.6015814 C42.4564528,43.543814 42.448,43.4764186 42.448,43.4015349 L42.448,42.7489767 L45.2649057,42.7489767 L45.2649057,42.3627907 L42.4205283,42.3627907 L42.4205283,41.5069767 L44.7640755,41.5069767 L44.7640755,41.1133023 L42.4205283,41.1133023 L42.4205283,40.3248837 L45.0683774,40.3248837 L45.0683774,39.955814 L43.7021887,39.955814 C43.7930566,39.7878605 43.8522264,39.5803256 43.8701887,39.3353488 L43.2858868,39.3353488 C43.2658113,39.56 43.2087547,39.7696744 43.1178868,39.955814 L41.1388679,39.955814 C41.0606792,39.7696744 41.0152453,39.56 40.9962264,39.3353488 L40.4076981,39.3353488 C40.4467925,39.5803256 40.4964528,39.7878605 40.5556226,39.955814 L39.1862642,39.955814 L39.1862642,40.3248837 L41.8066415,40.3248837 L41.8066415,41.1133023 L39.5497358,41.1133023 L39.5497358,41.5069767 L41.8066415,41.5069767 L41.8066415,42.3617209 L39.0172075,42.3617209 L39.0172075,42.747907 L41.8351698,42.747907 L41.8351698,43.4004651 C41.8351698,43.437907 41.8066415,43.580186 41.8066415,43.6005116 L39.098566,43.6005116 L39.098566,43.9920465 L41.6671698,43.9920465 C41.3153208,44.6157209 40.3453585,45.0607442 38.9358491,45.2853953 L38.9358491,45.7732093 C40.421434,45.5453488 41.4917736,45.066093 42.1447547,44.330093 C42.7744906,45.066093 43.848,45.5453488 45.3515472,45.7732093 L45.3515472,45.2522326 C43.8796981,44.9109767 42.9699623,44.6167907 42.6181132,43.9931163 L42.6181132,43.9931163 L42.6181132,43.9931163 Z"></path>
                        <path d="M0.517735849,41.1507442 C0.814641509,41.3561395 1.18550943,41.6503256 1.63984906,42.0290233 C1.48030189,42.2033953 1.35773585,42.338186 1.2605283,42.4387442 C0.812528302,42.0204651 0.458566038,41.7134419 0.202867925,41.5219535 L0.517735849,41.1507442 L0.517735849,41.1507442 L0.517735849,41.1507442 Z"></path>
                        <path d="M0.963622642,43.0217674 C1.14218868,43.1084186 1.31335849,43.1768837 1.48030189,43.2346512 C1.30807547,43.9471163 1.12,44.7537209 0.910792453,45.6608837 L0.35290566,45.4918605 C0.558943396,44.8211163 0.766037736,43.9995349 0.963622642,43.0217674 L0.963622642,43.0217674 L0.963622642,43.0217674 Z"></path>
                        <path d="M0.770264151,39.4369767 C1.04286792,39.6541395 1.37992453,39.946186 1.78354717,40.3163256 L1.41373585,40.7153488 C1.11260377,40.3890698 0.791396226,40.0831163 0.440603774,39.7932093 L0.770264151,39.4369767 L0.770264151,39.4369767 L0.770264151,39.4369767 Z"></path>
                        <path d="M5.54716981,43.3426977 L3.27758491,43.3426977 L3.27758491,44.9794419 L4.90369811,44.9794419 C5.40769811,44.9954884 5.56724528,44.9184651 5.54716981,44.408186 L5.54716981,43.3426977 L5.54716981,43.3426977 L5.54716981,43.3426977 Z M4.72513208,44.6638605 L3.78792453,44.6638605 L3.78792453,43.7074884 L5.03049057,43.7074884 L5.03049057,44.3525581 C5.02626415,44.6638605 5.00090566,44.6531628 4.72513208,44.6638605 L4.72513208,44.6638605 L4.72513208,44.6638605 Z"></path>
                        <path d="M6.90596226,40.2403721 L6.90596226,39.8670233 L4.76316981,39.8670233 L4.77796226,39.1909302 L4.17781132,39.1909302 L4.16830189,39.8670233 L1.91879245,39.8670233 L1.91879245,40.2403721 L2.8570566,40.2403721 C2.95426415,40.4767907 3.07049057,40.8608372 3.22686792,41.1785581 L2.66264151,41.1785581 C2.2685283,41.202093 2.16709434,41.3304651 2.14807547,41.7326977 L2.14807547,45.7368372 L2.68377358,45.7368372 L2.68377358,41.8974419 C2.70596226,41.7091628 2.80950943,41.6043256 3.00075472,41.5861395 L4.1429434,41.5861395 L4.1429434,42.2729302 L3.02611321,42.2729302 L3.02611321,42.614186 L4.1429434,42.614186 L4.1429434,43.350186 L4.65116981,43.350186 L4.65116981,42.614186 L5.7965283,42.614186 L5.7965283,42.2729302 L4.65116981,42.2729302 L4.65116981,41.5861395 L5.82188679,41.5861395 C6.00890566,41.5861395 6.10822642,41.6877674 6.10822642,41.8974419 L6.10822642,45.0243721 C6.10822642,45.1730698 6.00996226,45.2618605 5.82188679,45.2618605 L5.16573585,45.2618605 L5.16573585,45.6972558 L6.04166038,45.6972558 C6.44211321,45.6972558 6.64392453,45.5025581 6.64392453,45.1206512 L6.64920755,41.7626512 C6.64920755,41.3240465 6.496,41.1785581 6.04166038,41.1785581 L5.56513208,41.1785581 C5.7130566,40.8961395 5.84196226,40.5142326 5.9349434,40.2403721 L6.90596226,40.2403721 L6.90596226,40.2403721 L6.90596226,40.2403721 Z M4.99667925,41.1785581 L3.82596226,41.1785581 C3.80588679,41.1250698 3.46354717,40.3623256 3.42656604,40.2403721 L5.36332075,40.2403721 C5.32739623,40.3216744 5.03260377,41.0897674 4.99667925,41.1785581 L4.99667925,41.1785581 L4.99667925,41.1785581 Z"></path>
                        <path d="M9.88241509,41.1507442 C10.1698113,41.3561395 10.5427925,41.6503256 10.9950189,42.0290233 C10.8407547,42.2033953 10.7160755,42.338186 10.6273208,42.4387442 C10.1708679,42.0204651 9.81690566,41.7134419 9.56120755,41.5219535 L9.88241509,41.1507442 L9.88241509,41.1507442 L9.88241509,41.1507442 Z"></path>
                        <path d="M10.3187925,43.0217674 C10.4963019,43.1084186 10.6695849,43.1768837 10.8333585,43.2346512 C10.6643019,43.9471163 10.4762264,44.7537209 10.2680755,45.6608837 L9.70913208,45.4918605 C9.91833962,44.8211163 10.1243774,43.9995349 10.3187925,43.0217674 L10.3187925,43.0217674 L10.3187925,43.0217674 Z"></path>
                        <path d="M10.125434,39.4369767 C10.3948679,39.6541395 10.7382642,39.946186 11.1366038,40.3163256 L10.7710189,40.7153488 C10.4677736,40.3890698 10.1476226,40.0831163 9.80211321,39.7932093 L10.125434,39.4369767 L10.125434,39.4369767 L10.125434,39.4369767 Z"></path>
                        <path d="M14.901283,43.3426977 L12.6316981,43.3426977 L12.6316981,44.9794419 L14.2556981,44.9794419 C14.7586415,44.9954884 14.9245283,44.9184651 14.901283,44.408186 L14.901283,43.3426977 L14.901283,43.3426977 L14.901283,43.3426977 Z M14.0824151,44.6638605 L13.1462642,44.6638605 L13.1462642,43.7074884 L14.3898868,43.7074884 L14.3898868,44.3525581 C14.3824906,44.6638605 14.3550189,44.6531628 14.0824151,44.6638605 L14.0824151,44.6638605 L14.0824151,44.6638605 Z"></path>
                        <path d="M16.2579623,40.2403721 L16.2579623,39.8670233 L14.1246792,39.8670233 L14.1310189,39.1866512 L13.5350943,39.1866512 L13.5234717,39.8670233 L11.2718491,39.8670233 L11.2718491,40.2403721 L12.213283,40.2403721 C12.3062642,40.4767907 12.437283,40.8608372 12.5873208,41.1785581 L12.0220377,41.1785581 C11.6268679,41.202093 11.5212075,41.3304651 11.5032453,41.7326977 L11.5032453,45.7368372 L12.0442264,45.7368372 L12.0442264,41.8974419 C12.0632453,41.7091628 12.1667925,41.6043256 12.3601509,41.5861395 L13.4981132,41.5861395 L13.4981132,42.2729302 L12.3876226,42.2729302 L12.3876226,42.614186 L13.4981132,42.614186 L13.4981132,43.350186 L14.0084528,43.350186 L14.0084528,42.614186 L15.1485283,42.614186 L15.1485283,42.2729302 L14.0084528,42.2729302 L14.0084528,41.5861395 L15.1770566,41.5861395 C15.3661887,41.5861395 15.4570566,41.6877674 15.4570566,41.8974419 L15.4570566,45.0243721 C15.4570566,45.1730698 15.3661887,45.2618605 15.1770566,45.2618605 L14.5177358,45.2618605 L14.5209057,45.6972558 L15.3957736,45.6972558 C15.7962264,45.6972558 15.9969811,45.5025581 15.9969811,45.1206512 L16.0012075,41.7605116 C16.0012075,41.3229767 15.8543396,41.1785581 15.3989434,41.1785581 L14.9181887,41.1785581 C15.0703396,40.8961395 15.1960755,40.5142326 15.2858868,40.2403721 L16.2579623,40.2403721 L16.2579623,40.2403721 L16.2579623,40.2403721 Z M14.3529057,41.1785581 L13.1864151,41.1785581 C13.1642264,41.1250698 12.8229434,40.3623256 12.7870189,40.2403721 L14.7195472,40.2403721 C14.682566,40.3216744 14.3898868,41.0897674 14.3529057,41.1785581 L14.3529057,41.1785581 L14.3529057,41.1785581 Z"></path>
                        <path d="M57.0523774,45.6993953 L57.0523774,42.8805581 L57.6588679,42.8805581 L57.6810566,45.2607907 L59.8851321,45.2607907 L59.8851321,42.3627907 L57.3123019,42.3627907 L57.3292075,39.711907 L57.9050566,39.711907 L57.9156226,41.8942326 L59.8861887,41.8942326 L59.8861887,39.2636744 L60.5624151,39.2636744 L60.5624151,41.8942326 L62.3237736,41.8942326 C62.5097358,41.8771163 62.6048302,41.7701395 62.6048302,41.5807907 L62.6048302,39.711907 L63.1880755,39.711907 L63.1880755,41.8386047 C63.1532075,42.1531163 62.9820377,42.3242791 62.6724528,42.3627907 L60.5624151,42.3627907 L60.5624151,45.2607907 L62.5287547,45.2607907 C62.7189434,45.2607907 62.8119245,45.1591628 62.8119245,44.9676744 L62.8119245,42.8805581 L63.4194717,42.8805581 L63.4194717,45.1495349 C63.3993962,45.4950698 63.1806792,45.6790698 62.7506415,45.6983256 L57.0523774,45.6983256 L57.0523774,45.6993953 L57.0523774,45.6993953 Z"></path>
                        <polygon points="18.8846792 42.1124651 18.8846792 41.5872093 24.8650566 41.5872093 24.8650566 42.1199535"></polygon>
                        <path d="M48.3586415,45.7721395 L47.9212075,45.4554884 C48.378717,45.061814 48.8087547,44.6210698 49.1373585,44.0797674 C48.9070189,43.8465581 48.1251321,43.0335349 48.1251321,43.0335349 L48.6175094,40.6950233 L48.042717,40.6950233 L48.042717,40.2553488 L48.7041509,40.2553488 L48.8763774,39.2668837 L49.4511698,39.2668837 L49.2525283,40.2553488 L50.0555472,40.2510698 C50.5394717,40.236093 50.5996981,40.401907 50.6060377,40.8693953 C50.6123774,41.3978605 50.517283,41.9605581 50.3862642,42.4430233 C50.1516981,43.3073953 49.7998491,43.9770698 49.7998491,43.9770698 L50.8406038,45.0329302 L50.4623396,45.3870233 C50.1738868,45.1131628 49.8537358,44.8114884 49.5103396,44.4841395 C49.2789434,44.8949302 48.8964528,45.3185581 48.3586415,45.7721395 L48.3586415,45.7721395 L48.3586415,45.7721395 Z M49.4236981,43.5288372 C49.8051321,42.812093 50.12,41.9723256 50.12,40.8854419 C50.12,40.7292558 50.013283,40.696093 49.885434,40.6950233 L49.1944151,40.6950233 L48.765434,42.8249302 C48.7664906,42.8249302 49.3687547,43.4753488 49.4236981,43.5288372 L49.4236981,43.5288372 L49.4236981,43.5288372 Z M54.5228679,42.6184651 L52.909434,42.6184651 L52.909434,45.1548837 C52.909434,45.5250233 52.6590189,45.710093 52.1613585,45.710093 L50.8807547,45.7293488 L50.893434,45.2746977 L51.8443774,45.2746977 C52.1507925,45.2896744 52.2691321,45.1816279 52.2744151,44.8949302 L52.2744151,42.6184651 L50.5753962,42.6184651 L50.5753962,42.1830698 L52.2744151,42.1830698 L52.2744151,41.6267907 C52.8618868,41.064093 53.2908679,40.6340465 53.7061132,40.1943721 L50.9219623,40.2050698 L50.9219623,39.7311628 L54.0114717,39.7322326 C54.2956981,39.7215349 54.5418868,40.0371163 54.2439245,40.3505581 C53.8836226,40.7271163 53.5190943,41.1197209 52.9020377,41.7305581 L52.909434,42.1830698 L54.5228679,42.1830698 L54.5228679,42.6184651 L54.5228679,42.6184651 L54.5228679,42.6184651 Z"></path>
                        <path d="M66.8861887,45.8962326 L66.8861887,42.9565116 C66.8058868,43.0720465 66.6727547,43.2367907 66.482566,43.4486047 C66.4624906,43.4935349 66.4434717,43.5213488 66.426566,43.5406047 L65.9975849,43.2464186 C66.5301132,42.6216744 66.981283,41.9455814 67.3458113,41.2063721 L67.8931321,41.2063721 C67.6649057,41.7284186 67.4398491,42.2312093 67.4398491,42.2312093 L67.4916226,45.8973023 L66.8861887,45.8973023 L66.8861887,45.8962326 L66.8861887,45.8962326 Z M66.5079245,41.4427907 L66.0778868,41.1828372 C66.5417358,40.6383256 66.9432453,40.0146512 67.2866415,39.3203721 L67.8635472,39.3203721 C67.474717,40.1077209 67.026717,40.820186 66.5079245,41.4427907 L66.5079245,41.4427907 L66.5079245,41.4427907 Z M69.597434,45.8074419 L69.5889811,45.3731163 L70.6223396,45.3731163 C70.8336604,45.3913023 70.9372075,45.2928837 70.9372075,45.0832093 L70.9372075,42.0247442 L68.2037736,42.0247442 L68.2037736,41.5893488 L72.6922264,41.5893488 L72.6922264,42.0247442 L71.5447547,42.0247442 L71.5447547,45.2875349 C71.5035472,45.5966977 71.3207547,45.7689302 70.9942642,45.8074419 L69.597434,45.8074419 L69.597434,45.8074419 L69.597434,45.8074419 Z M68.5830943,40.0135814 L68.5830943,39.5471628 L72.4048302,39.5471628 L72.4048302,40.0135814 L68.5830943,40.0135814 L68.5830943,40.0135814 L68.5830943,40.0135814 Z"></path>
                    </g>
                    <g id="Shape">
                        <path d="M28.5800755,35.8307907 C38.1349434,35.5269767 45.7107925,27.8310698 45.8217358,18.2737674 L45.8206792,10.0547442 L56.3338868,10.0547442 L56.3338868,19.1413488 C56.1289057,33.920186 43.4380377,45.5795814 28.5800755,45.9144186 L28.5800755,45.9122791 C13.4759245,45.8181395 0.691018868,34.0753023 0.482867925,19.1402791 L0.482867925,2.806 C0.458566038,1.13502326 1.53418868,0.0513488372 3.15501887,0.0770232558 L45.8153962,0.0748837209 L45.8153962,10.0515349 L12.3633208,10.060093 C11.5043019,10.060093 10.9907925,10.5896279 10.9907925,11.4507907 L10.9907925,18.1068837 C11.1038491,27.7925581 18.8096604,35.7323721 28.5790189,35.8307907 L28.5800755,35.8307907 L28.5800755,35.8307907 L28.5800755,35.8307907 Z"></path>
                        <path d="M45.0451321,0.854744186 L45.0451321,9.27167442 L12.3643774,9.27916279 C11.0816604,9.27916279 10.2205283,10.1510233 10.2205283,11.4497209 L10.2205283,18.1154419 C10.2775849,23.0235349 12.1953208,27.6406512 15.618717,31.114186 C19.0473962,34.5930698 23.621434,36.5432558 28.504,36.6095814 L28.5219623,36.6127907 L28.6043774,36.6106512 C38.5755472,36.294 46.4768302,28.2429302 46.5930566,18.2737674 L46.592,10.8346047 L55.5636226,10.8346047 L55.5636226,19.1306512 C55.4685283,25.9996279 52.5776604,32.4792093 47.4246038,37.3755349 C42.3486792,42.1991163 35.6857358,44.9516279 28.6540377,45.1324186 L28.5853585,45.1324186 C21.4215849,45.0874884 14.6339623,42.384186 9.47139623,37.5210233 C4.26973585,32.6204186 1.35139623,26.0884186 1.25418868,19.1413488 L1.25418868,2.79530233 C1.24573585,2.19623256 1.41479245,1.70093023 1.74339623,1.36181395 C2.06460377,1.03125581 2.53479245,0.856883721 3.10113208,0.856883721 L3.15607547,0.856883721 L45.0451321,0.854744186 L45.0451321,0.854744186 L45.0451321,0.854744186 Z M45.8164528,0.0748837209 L3.15607547,0.0770232558 L3.10113208,0.0770232558 C1.5109434,0.0770232558 0.458566038,1.15534884 0.482867925,2.80706977 L0.482867925,19.1413488 C0.691018868,34.0753023 13.4759245,45.8192093 28.5800755,45.9133488 L28.5800755,45.9154884 C43.4380377,45.5795814 56.1289057,33.9212558 56.3338868,19.1424186 L56.3338868,10.055814 L45.8206792,10.055814 L45.8217358,18.2748372 C45.7107925,27.8310698 38.1338868,35.5280465 28.5800755,35.8318605 L28.5790189,35.8318605 C18.8096604,35.7334419 11.1049057,27.7936279 10.9907925,18.1079535 L10.9907925,11.4518605 C10.9907925,10.5917674 11.5053585,10.0611628 12.3633208,10.0611628 L45.8153962,10.0526047 L45.8153962,0.0748837209 L45.8164528,0.0748837209 L45.8164528,0.0748837209 L45.8164528,0.0748837209 Z"></path>
                        <path d="M28.5800755,35.8307907 C38.1349434,35.5269767 45.7107925,27.8310698 45.8217358,18.2737674 L45.8206792,10.0547442 L56.3338868,10.0547442 L56.3338868,19.1413488 C56.1289057,33.920186 43.4380377,45.5795814 28.5800755,45.9144186 L28.5800755,45.9122791 C13.4759245,45.8181395 0.691018868,34.0753023 0.482867925,19.1402791 L0.482867925,2.806 C0.458566038,1.13502326 1.53418868,0.0513488372 3.15501887,0.0770232558 L45.8153962,0.0748837209 L45.8153962,10.0515349 L12.3633208,10.060093 C11.5043019,10.060093 10.9907925,10.5896279 10.9907925,11.4507907 L10.9907925,18.1068837 C11.1038491,27.7925581 18.8096604,35.7323721 28.5790189,35.8307907 L28.5800755,35.8307907 L28.5800755,35.8307907 L28.5800755,35.8307907 Z"></path>
                    </g>
                </g>
            </g>
        </g>
    </g>
</svg>