<?xml version="1.0" encoding="UTF-8"?>
<svg width="170px" height="100px" viewBox="0 0 170 100" version="1.1" xmlns="http://www.w3.org/2000/svg" xmlns:xlink="http://www.w3.org/1999/xlink">
    <!-- Generator: Sketch 44 (41411) - http://www.bohemiancoding.com/sketch -->
    <title>enterprise-01</title>
    <desc>Created with Sketch.</desc>
    <defs>
        <polygon id="path-1" points="26.129463 0.139855596 0 0.139855596 0 51.9887365 52.2589259 51.9887365 52.2589259 0.139855596"></polygon>
    </defs>
    <g id="______Slice" stroke="none" stroke-width="1" fill="none" fill-rule="evenodd">
        <g id="about" transform="translate(-745.000000, -5696.000000)">
            <g id="enterprise-01" transform="translate(695.000000, 5666.000000)">
                <g id="xiaomi" transform="translate(72.000000, 55.000000)">
                    <g id="Group-3">
                        <mask id="mask-2" fill="white">
                            <use xlink:href="#path-1"></use>
                        </mask>
                        <g id="Clip-2"></g>
                        <path d="M1.07295988,0.139855596 L51.185966,0.139855596 C51.7780802,0.139855596 52.2589259,0.619119134 52.2589259,1.20970397 L52.2589259,50.9301516 C52.2589259,51.5207365 51.7780802,52 51.185966,52 L1.07295988,52 C0.480845679,52 0,51.5207365 0,50.9301516 L0,1.20970397 C0,0.619119134 0.480845679,0.139855596 1.07295988,0.139855596" id="Fill-1" fill="#C6CBD9" mask="url(#mask-2)"></path>
                    </g>
                    <path d="M5.78520988,12.7719134 L12.2286173,12.8436245 L28.2686049,12.8436245 C32.3456265,12.8436245 35.1051235,16.4701083 35.1064414,20.2661083 C35.1107716,26.3249531 35.1787377,39.2646931 35.1787377,39.2646931 L28.9266142,39.2902238 L28.8106389,22.2723321 C28.7950123,19.8959134 27.1945154,18.3544982 24.866537,18.3212708 C21.8673704,18.2780939 14.2613858,18.369704 12.2286173,18.3956101 L12.2286173,39.3365921 L5.78520988,39.3365921 L5.78520988,12.7719134 Z M17.1515432,39.1201444 L23.740108,39.1201444 L23.740108,23.022296 L17.1515432,23.022296 L17.1515432,39.1201444 Z M40.1018519,39.3365921 L46.5454475,39.3365921 L46.5454475,12.7719134 L40.1018519,12.7719134 L40.1018519,39.3365921 Z" id="Fill-4" fill="#FFFFFF"></path>
                    <path d="M69.4827654,10.5342238 L65.3283642,10.5013718 L61.4947778,30.4868303 L64.5498611,30.6897617 C66.0549043,30.7898195 66.1910247,29.3520289 66.3642346,28.2508303 C66.8808519,24.9752058 69.4827654,10.5342238 69.4827654,10.5342238" id="Fill-5" fill="#C6CBD9"></path>
                    <path d="M83.1446944,10.5342238 L87.3006019,10.5013718 L89.8863241,30.4868303 L86.8016821,30.6908881 C85.2032562,30.7965776 85.2426049,29.1149314 85.1300185,27.9816318 C84.7596883,24.2549025 83.1446944,10.5342238 83.1446944,10.5342238" id="Fill-6" fill="#C6CBD9"></path>
                    <path d="M78.3111975,5.86605054 L74.2895278,5.88425993 L74.3535401,29.9544404 C74.3535401,29.9544404 74.3426204,31.6409675 72.9495988,31.6653718 C71.5563889,31.6897762 70.9452593,32.1771119 70.9452593,33.1033502 C70.9452593,34.0294007 70.920784,35.2965487 70.920784,35.2965487 L75.2384167,35.2965487 C77.0375401,35.2965487 78.3509228,34.1977906 78.3509228,32.3244765 C78.3488519,28.6889819 78.3111975,5.86605054 78.3111975,5.86605054" id="Fill-7" fill="#C6CBD9"></path>
                    <path d="M105.816926,5.89833935 L109.953253,5.89833935 L109.953253,18.0804188 L121.979855,18.0804188 L121.979855,21.506787 L116.743269,21.506787 C117.098349,22.8313791 118.961861,29.6334296 121.226769,35.1764043 L118.214799,35.2456751 C117.044503,35.2728953 116.519037,34.0198267 116.234747,33.100722 C115.574667,30.9715379 113.032812,23.0440722 112.539917,21.506787 L109.953253,21.506787 L109.953253,35.338787 L105.816926,35.338787 L105.816926,21.506787 L103.54204,21.506787 C103.049145,23.0440722 100.507102,30.9715379 99.8472099,33.100722 C99.5629198,34.0198267 99.0374537,35.2728953 97.8667809,35.2456751 L94.855,35.1764043 C97.1199074,29.6334296 98.983608,22.8313791 99.3386883,21.506787 L93.5994167,21.506787 L93.5994167,18.0804188 L105.816926,18.0804188 L105.816926,5.89833935" id="Fill-8" fill="#C6CBD9"></path>
                    <path d="M99.8308302,7.52554513 L95.9868889,7.52554513 L98.948966,13.7912635 C99.5280895,15.0161733 100.175744,15.9018628 101.636543,15.9339639 L103.895238,15.9833357 C103.895238,15.9833357 101.553515,11.9750181 99.8308302,7.52554513" id="Fill-9" fill="#C6CBD9"></path>
                    <path d="M115.921651,7.52554513 L119.765216,7.52554513 L116.803139,13.7912635 C116.224204,15.0161733 115.576549,15.9018628 114.115562,15.9339639 L111.856867,15.9833357 C111.856867,15.9833357 114.198401,11.9750181 115.921651,7.52554513" id="Fill-10" fill="#C6CBD9"></path>
                    <polyline id="Fill-11" fill="#C6CBD9" points="67.367534 46.4251119 66.1332253 46.4251119 64.3039784 44.005704 62.4747315 46.4251119 61.2291265 46.4251119 63.6755278 43.1630036 61.5657562 40.3463682 62.7776605 40.3463682 64.3039784 42.3685487 65.830108 40.3463682 67.0420123 40.3463682 64.9211327 43.1630036 67.367534 46.4251119"></polyline>
                    <polygon id="Fill-12" fill="#C6CBD9" points="68.023284 46.4251119 69.1689167 46.4251119 69.1689167 40.2260361 68.023284 40.2260361"></polygon>
                    <path d="M74.6532685,43.6082888 C72.6412099,43.6325054 71.6350864,44.0578917 71.6350864,44.8842599 C71.6350864,45.0449531 71.6925093,45.1694152 71.8075432,45.2576462 C71.971716,45.4100794 72.197642,45.4861083 72.485321,45.4861083 C73.019071,45.4861083 73.4912562,45.3135884 73.9018765,44.9685487 C74.304213,44.6315812 74.5548025,44.1782238 74.6532685,43.6082888 Z M76.0206852,46.4251119 L74.8750525,46.4251119 C74.7683025,46.1440866 74.7067377,45.8673791 74.690358,45.594426 C74.0496698,46.2281877 73.3146574,46.545444 72.485321,46.545444 C71.8937716,46.545444 71.4052068,46.3969531 71.01925,46.1001588 C70.6331049,45.8033646 70.4403148,45.398065 70.4403148,44.8842599 C70.4403148,44.1061372 70.7933241,43.5322599 71.4995309,43.1630036 C72.1729784,42.8098917 73.2244753,42.6135307 74.6532685,42.5733574 C74.5548025,41.7145126 74.090713,41.2851841 73.2613765,41.2851841 C72.6453519,41.2851841 72.1729784,41.5581372 71.8446327,42.1038556 L70.7481389,41.6103249 C71.2901728,40.6876534 72.1277932,40.2260361 73.2613765,40.2260361 C74.1236605,40.2260361 74.7765864,40.4708303 75.219966,40.960231 C75.6305864,41.401574 75.8359907,42.0315812 75.8359907,42.850065 L75.8359907,45.4983105 C75.8359907,45.7630036 75.8975556,46.0718123 76.0206852,46.4251119 L76.0206852,46.4251119 Z" id="Fill-13" fill="#C6CBD9"></path>
                    <path d="M82.0572377,43.4639278 C82.0572377,42.8301661 81.868213,42.3126065 81.4905401,41.9110614 C81.1290586,41.4941227 80.6610154,41.2851841 80.0862222,41.2851841 C79.4865772,41.2851841 79.0062963,41.4941227 78.6448148,41.9110614 C78.2833333,42.3126065 78.1027809,42.8301661 78.1027809,43.4639278 C78.1027809,44.0578917 78.2916173,44.5394079 78.6694784,44.9084765 C79.0471512,45.2936895 79.5195247,45.4861083 80.0862222,45.4861083 C80.6446358,45.4861083 81.1087253,45.3055162 81.4781142,44.9447076 C81.864071,44.5593069 82.0572377,44.0657762 82.0572377,43.4639278 Z M83.2646235,43.4639278 C83.2646235,44.3869747 82.9441852,45.1371264 82.3034969,45.7149458 C81.7040401,46.2685487 80.9648858,46.545444 80.0862222,46.545444 C79.1827068,46.545444 78.4394105,46.2685487 77.8563333,45.7149458 C77.223929,45.1371264 76.907821,44.3869747 76.907821,43.4639278 C76.907821,42.5491408 77.1951235,41.7787148 77.7701049,41.1528375 C78.3531821,40.5350325 79.125284,40.2260361 80.0862222,40.2260361 C81.0224969,40.2260361 81.7902685,40.5389747 82.3897253,41.1650397 C82.9728025,41.7830325 83.2646235,42.5491408 83.2646235,43.4639278 L83.2646235,43.4639278 Z" id="Fill-14" fill="#C6CBD9"></path>
                    <path d="M92.7183056,46.4251119 L91.6122099,46.4251119 L91.6122099,42.6574585 C91.6122099,41.7426715 91.2904537,41.2851841 90.6471296,41.2851841 C90.3489074,41.2851841 90.0352469,41.3858051 89.7055833,41.586296 C89.3682006,41.786787 89.1172346,42.0156245 88.9524969,42.2722455 C88.9681235,42.449083 88.9760309,42.5932563 88.9760309,42.705704 L88.9760309,46.4251119 L87.8345401,46.4251119 L87.8345401,42.705704 C87.8345401,41.7588159 87.5090185,41.2851841 86.8579753,41.2851841 C86.5911944,41.2851841 86.3008796,41.3858051 85.9872191,41.586296 C85.6810895,41.7708303 85.4378426,41.9876534 85.2574784,42.2362022 L85.2574784,46.4251119 L84.1513827,46.4251119 L84.1513827,40.3343538 L85.2574784,40.3343538 L85.2574784,40.9482166 C85.8143858,40.4667004 86.3479475,40.2260361 86.8579753,40.2260361 C87.6816636,40.2260361 88.2816852,40.5671336 88.6582284,41.2491408 C89.2936451,40.5671336 89.9565494,40.2260361 90.6471296,40.2260361 C91.3610556,40.2260361 91.8983827,40.4830325 92.2592994,40.9962744 C92.5652407,41.4218484 92.7183056,41.9915957 92.7183056,42.705704 L92.7183056,46.4251119" id="Fill-15" fill="#C6CBD9"></path>
                    <polygon id="Fill-16" fill="#C6CBD9" points="94.1297778 46.4251119 95.2754105 46.4251119 95.2754105 40.2260361 94.1297778 40.2260361"></polygon>
                    <polygon id="Fill-17" fill="#C6CBD9" points="96.8440895 46.545444 98.0753858 46.545444 98.0753858 45.2779206 96.8440895 45.2779206"></polygon>
                    <path d="M105.234225,44.6315812 C104.651148,45.9073646 103.760059,46.545444 102.561145,46.545444 C101.772664,46.545444 101.099028,46.2484621 100.540614,45.6546859 C99.9987685,45.0528375 99.7276574,44.3066282 99.7276574,43.41587 C99.7276574,42.4768664 99.9904846,41.7066282 100.516139,41.1045921 C101.074364,40.5190758 101.760426,40.2260361 102.573383,40.2260361 C103.723157,40.2260361 104.593725,40.7556101 105.184898,41.8149458 L104.13792,42.2604188 C103.784722,41.6103249 103.26321,41.2851841 102.573383,41.2851841 C102.154667,41.2851841 101.780759,41.4620217 101.452225,41.8149458 C101.099028,42.2241877 100.922617,42.7578917 100.922617,43.41587 C100.922617,44.0257906 101.10317,44.535278 101.464651,44.9447076 C101.793185,45.3055162 102.15862,45.4861083 102.561145,45.4861083 C103.267352,45.4861083 103.81334,45.0488953 104.199485,44.1740939 L105.234225,44.6315812" id="Fill-18" fill="#C6CBD9"></path>
                    <path d="M110.971614,43.4639278 C110.971614,42.8301661 110.78259,42.3126065 110.404917,41.9110614 C110.043435,41.4941227 109.575392,41.2851841 109.000599,41.2851841 C108.400954,41.2851841 107.920673,41.4941227 107.559191,41.9110614 C107.19771,42.3126065 107.017157,42.8301661 107.017157,43.4639278 C107.017157,44.0578917 107.205994,44.5394079 107.583855,44.9084765 C107.961528,45.2936895 108.433901,45.4861083 109.000599,45.4861083 C109.559012,45.4861083 110.023102,45.3055162 110.392679,44.9447076 C110.778448,44.5593069 110.971614,44.0657762 110.971614,43.4639278 Z M112.179,43.4639278 C112.179,44.3869747 111.858562,45.1371264 111.217873,45.7149458 C110.618417,46.2685487 109.879262,46.545444 109.000599,46.545444 C108.097083,46.545444 107.353787,46.2685487 106.77071,45.7149458 C106.138306,45.1371264 105.822198,44.3869747 105.822198,43.4639278 C105.822198,42.5491408 106.109688,41.7787148 106.684481,41.1528375 C107.267559,40.5350325 108.039849,40.2260361 109.000599,40.2260361 C109.936873,40.2260361 110.704645,40.5389747 111.304102,41.1650397 C111.887179,41.7830325 112.179,42.5491408 112.179,43.4639278 L112.179,43.4639278 Z" id="Fill-19" fill="#C6CBD9"></path>
                    <path d="M121.469262,46.4251119 L120.367873,46.4251119 L120.367873,42.6574585 C120.367873,41.7426715 120.047435,41.2851841 119.406935,41.2851841 C119.110031,41.2851841 118.797688,41.3858051 118.469531,41.586296 C118.133654,41.786787 117.88363,42.0156245 117.719645,42.2722455 C117.735272,42.449083 117.743179,42.5932563 117.743179,42.705704 L117.743179,46.4251119 L116.606395,46.4251119 L116.606395,42.705704 C116.606395,41.7588159 116.28238,41.2851841 115.633972,41.2851841 C115.368321,41.2851841 115.079324,41.3858051 114.766981,41.586296 C114.46217,41.7708303 114.220052,41.9876534 114.040441,42.2362022 L114.040441,46.4251119 L112.938864,46.4251119 L112.938864,40.3343538 L114.040441,40.3343538 L114.040441,40.9482166 C114.594901,40.4667004 115.126015,40.2260361 115.633972,40.2260361 C116.454272,40.2260361 117.051846,40.5671336 117.426694,41.2491408 C118.059287,40.5671336 118.719367,40.2260361 119.406935,40.2260361 C120.11766,40.2260361 120.652917,40.4830325 121.012327,40.9962744 C121.316951,41.4218484 121.469262,41.9915957 121.469262,42.705704 L121.469262,46.4251119" id="Fill-20" fill="#C6CBD9"></path>
                </g>
            </g>
        </g>
    </g>
</svg>