<?xml version="1.0" encoding="UTF-8"?>
<svg width="170px" height="100px" viewBox="0 0 170 100" version="1.1" xmlns="http://www.w3.org/2000/svg" xmlns:xlink="http://www.w3.org/1999/xlink">
    <!-- Generator: Sketch 44 (41411) - http://www.bohemiancoding.com/sketch -->
    <title>enterprise-07</title>
    <desc>Created with Sketch.</desc>
    <defs></defs>
    <g id="_____Page" stroke="none" stroke-width="1" fill="none" fill-rule="evenodd">
        <g id="about" transform="translate(-785.000000, -2282.000000)">
            <g id="section-3" transform="translate(0.000000, 1721.000000)">
                <rect id="background" fill="#FFFFFF" x="0" y="0" width="1440" height="860"></rect>
                <g id="enterprise-07" transform="translate(735.000000, 531.000000)" fill="#C6CBD9">
                    <g transform="translate(50.000000, 30.000000)" id="meituan">
                        <g transform="translate(43.000000, 22.000000)">
                            <path d="M22.6514636,23.3135676 C22.6514636,24.221329 22.4186667,25.0440218 22.4186667,25.977588 L39.2311111,25.977588 L39.2311111,30.5634119 L24.0523218,30.5634119 C26.9402912,33.3990999 30.8384061,35.8496837 39.1236169,36.395084 C40.1114483,36.4609082 39.5231264,39.7269683 39.4591877,41.2011237 C29.2667586,41.2295527 23.3382682,36.7806257 20.1329655,32.4985552 C17.1585287,37.7165973 9.42731034,40.6087061 0.722636015,41.9844533 C0.359601533,39.9904837 0.398651341,38.7372001 0.455509579,36.9711003 C8.28456705,36.4843075 12.7145747,34.1093887 15.3266207,30.5634119 L0.918528736,30.5634119 L0.918528736,25.977588 L16.9302375,25.977588 C17.2495019,25.0324315 17.4252261,24.1461013 17.5348659,23.2026943 C18.5589579,23.3369669 22.0491954,23.0996937 22.6514636,23.3135676 Z M10.6638161,4.98339317 C9.85857471,3.94638903 8.8342682,2.44139904 7.96058238,0.522875771 C11.2227433,0.271169367 12.5871264,0.287352055 12.9426513,0.169918224 C14.186023,2.49104053 15.0734406,4.0312388 16.4989732,5.08442563 C16.4989732,5.20929475 23.1258544,4.96721048 23.5845824,4.97180287 C26.3034789,2.06307404 27.1385441,0.0100595088 27.2526897,0.137115478 C28.9133793,0.240553471 29.5109272,-0.0557646682 32.180046,0.176916143 C32.5518774,0.20753204 30.00141,4.45198869 29.5040613,5.03544019 L38.5992337,4.93418905 L38.5992337,9.52198111 L22.979954,9.52198111 L22.979954,11.6615949 L36.6145594,11.6615949 L36.6145594,16.0683158 L22.979954,16.0683158 L22.979954,18.4434533 L39.3495479,18.4434533 L39.3495479,23.0312453 L0.916168582,23.0312453 L0.916168582,18.4434533 L17.1036015,18.4434533 L17.1036015,16.0683158 L3.65587739,16.0683158 L3.65587739,11.6615949 L17.1036015,11.6615949 L17.1036015,9.52198111 L1.54354023,9.52198111 L1.54354023,4.93418905 L10.6638161,4.98339317 Z M50.9861762,5.61583011 L77.9616552,5.61583011 L77.9616552,33.897483 C77.9616552,35.1848814 76.9680307,36.2356627 75.749977,36.2356627 L50.9861762,36.2356627 L50.9861762,5.61583011 Z M46.2010728,0.824004979 L82.9216245,0.824004979 L82.9216245,38.3873041 C82.9216245,40.0956712 81.566682,41.4921934 79.9094253,41.4921934 L46.2010728,41.4921934 L46.2010728,0.824004979 Z M52.1808429,11.5706219 L67.416705,11.5706219 L67.416705,6.52621566 L71.7484444,6.52621566 L71.7484444,11.5706219 L76.6397548,11.5706219 L76.6397548,16.2815336 L71.7484444,16.2815336 L71.7484444,26.4510409 C71.7484444,27.5339689 72.0200766,31.2890086 71.6091954,32.2816197 C71.0663602,33.5911053 69.6120766,34.9196165 65.9508352,34.9998739 L61.722728,35.053233 L61.6708046,30.2692806 C61.6708046,30.2692806 64.1163525,30.5638492 66.0688429,29.9165417 C67.9076169,29.3057546 67.416705,28.7680082 67.416705,27.0229021 L67.416705,18.7220579 C63.0682299,26.5168651 53.4742069,31.656618 53.4742069,31.656618 L53.4742069,25.7090428 C54.0339923,25.4195039 54.5296245,25.0687332 55.0469272,24.7013425 C60.400613,20.9100011 62.346023,17.9949304 63.0566437,16.2815336 L52.1808429,16.2815336 L52.1808429,11.5706219 Z M0.172076628,55.9833532 L1.48904215,55.9833532 L1.48904215,51.8983179 C1.52744828,51.2278297 1.66068966,50.686147 1.88855172,50.275238 C2.23334866,49.7558612 2.76781609,49.4722268 3.49023755,49.4365811 C4.29440613,49.4365811 4.69391571,49.9034735 4.69391571,50.8355089 L4.69391571,55.9833532 L6.01109579,55.9833532 L6.01109579,51.4519818 C6.12416858,50.2210041 6.71527969,49.5507347 7.78271264,49.4365811 C8.77483525,49.399186 9.252659,49.9765143 9.21446743,51.1700969 L9.21446743,55.9833532 L10.5297165,55.9833532 L10.5297165,50.8355089 C10.4932414,49.2312359 9.69057471,48.3720227 8.12708046,48.2633362 C7.24824521,48.2244103 6.46724904,48.6353194 5.78130268,49.4925645 C5.78130268,49.4925645 5.76134866,49.4722268 5.72122605,49.4365811 C5.3051954,48.6539076 4.6559387,48.2633362 3.7783908,48.2633362 C2.78605364,48.2633362 2.00355556,48.6895532 1.43239847,49.5507347 L1.43239847,48.484208 L0.172076628,48.484208 L0.172076628,55.9833532 Z M13.4618851,51.2940913 C13.609931,49.9340894 14.2958774,49.20062 15.5212261,49.0901841 C16.819954,49.0901841 17.5258544,49.8240909 17.6374253,51.2940913 L13.4618851,51.2940913 Z M18.3034176,53.4588538 C17.5689808,54.528442 13.9828352,54.6607464 13.7429579,53.5028095 C13.6665747,53.1360748 13.4618851,52.7660598 13.4618851,52.2873584 L18.9177011,52.2873584 C18.9177011,51.0751876 18.6945594,50.0989779 18.2502069,49.3652898 C17.7307586,48.4094178 16.8748812,47.9322472 15.6877241,47.9322472 C14.5756628,47.9322472 13.7215019,48.2803937 13.1269579,48.9799669 C12.4594636,49.7134363 12.124751,50.7438799 12.124751,52.0664866 C12.124751,52.60139 12.1863295,53.0953994 12.3195709,53.5367057 C12.6690881,54.6913623 13.7481073,55.5809728 14.9202452,55.6811305 C16.207387,55.7915664 18.1352031,55.5249894 18.4233563,55.0239822 L18.3034176,53.4588538 Z M20.3878621,46.9374492 L21.7348659,46.9374492 L21.7348659,45.5468315 L20.3878621,45.5468315 L20.3878621,46.9374492 Z M20.3878621,55.7167762 L21.7348659,55.7167762 L21.7348659,48.2685847 L20.3878621,48.2685847 L20.3878621,55.7167762 Z M27.9334866,49.215928 L27.9334866,48.0359039 L25.4192797,48.0359039 L25.4192797,45.7386182 L24.1222682,45.7386182 L24.1222682,48.0359039 L23.1651188,48.0359039 L23.1651188,49.215928 L24.1222682,49.215928 L24.1473716,53.9985683 C24.1508046,54.4943272 24.2537931,54.9120155 24.4870192,55.2398242 C24.5769195,55.3653494 24.7301149,55.45173 24.9348046,55.5199597 C25.9837854,55.8764162 27.3908659,55.6419859 28.0583602,55.4501992 L27.9901303,54.0748894 L27.4372107,54.2583661 C26.6748812,54.5129154 25.66259,54.3093197 25.5791264,53.874574 C25.4609042,53.2633495 25.4377318,52.7898965 25.4342989,52.1666443 L25.4192797,49.215928 L27.9334866,49.215928 Z M35.4106667,55.3924664 L35.4106667,47.7813545 L34.1803831,47.7813545 L34.1803831,51.9851358 C34.0688123,53.6506405 33.377931,54.5028559 32.1109579,54.540251 C31.1417931,54.540251 30.657318,53.9714514 30.657318,52.8356016 L30.657318,47.7813545 L29.3703908,47.7813545 L29.3703908,53.2329522 C29.4068659,54.1802955 29.7068199,54.8254162 30.2642452,55.165034 C30.6738391,55.3924664 31.1784828,55.5061825 31.7745287,55.5061825 C32.8550498,55.5418282 33.6577165,55.1276389 34.1803831,54.2566166 L34.2370268,54.3143494 L34.2370268,55.3924664 L35.4106667,55.3924664 Z M41.8839234,52.5808337 C41.9223295,53.6897852 41.2679234,54.1361212 39.8679234,54.209162 C39.0435862,54.2533363 38.3876782,53.9629227 38.3876782,53.0545053 C38.3876782,52.3041972 38.8938238,51.927403 39.8962452,51.8119373 C40.9400766,51.6912232 41.5577931,51.5707278 41.8442299,51.3756608 L41.8839234,52.5808337 Z M37.716751,49.3331431 C38.7906207,49.1004623 41.2247969,48.2126013 41.9373487,49.5638558 C42.1937471,50.0495551 41.8922912,50.4213195 41.2762912,50.4639631 L39.2251034,50.6030468 C37.776613,50.7016737 37.0807969,51.8119373 37.0990345,53.2329522 C37.1157701,54.6150413 37.9216552,55.3771584 39.3566284,55.4215515 C40.3957395,55.4552289 41.3413027,55.2192679 42.0590038,54.4300338 C42.0371188,54.898457 41.9173946,55.1667835 42.2454559,55.3415128 C42.5351111,55.496123 43.0779464,55.3450117 43.3774713,55.3025868 C43.4841073,55.2888097 43.3592337,55.3347335 43.4323985,55.3347335 C43.4323985,54.372301 43.4791724,53.4654144 43.4375479,52.4909541 L43.3141762,49.6368965 C43.2594636,48.3584642 42.2885824,47.5845381 40.4789885,47.6031263 C38.5790651,47.623464 38.6642452,47.7763248 37.6051801,47.9322472 L37.716751,49.3331431 Z M50.9265287,50.3161321 C50.8881226,48.5928945 50.0258084,47.7133435 48.3389425,47.6774792 C47.4000307,47.6774792 46.6308352,48.1054457 46.0313563,48.9681579 L46.0313563,47.9001005 L44.792705,47.9001005 L44.792705,55.4283307 L46.0864981,55.4283307 L46.0864981,51.3279874 C46.1246897,50.4283175 46.3128582,49.8103137 46.6490728,49.4757257 C47.02541,49.0615364 47.493364,48.8559725 48.0544368,48.8559725 C49.2199234,48.7829317 49.7625441,49.4365811 49.6878774,50.8219504 L49.6878774,55.4283307 L50.9265287,55.4283307 L50.9265287,50.3161321 Z M53.9234943,55.4469189 L55.6200153,55.4469189 L55.6200153,53.755828 L53.9234943,53.755828 L53.9234943,55.4469189 Z M65.5596935,51.3516054 C65.6678314,49.443579 66.3771648,48.4721804 67.6825441,48.4332544 C68.9911418,48.4721804 69.6987586,49.443579 69.8068966,51.3516054 C69.6987586,53.2565702 68.9911418,54.2279689 67.6825441,54.2668948 C66.3771648,54.2279689 65.6678314,53.2565702 65.5596935,51.3516054 Z M64.306023,51.3516054 C64.3424981,52.6862398 64.7239847,53.7525477 65.4498391,54.55206 C65.9958927,55.0480375 66.7384828,55.2958076 67.6825441,55.2958076 C68.7364598,55.2958076 69.5721686,54.9323532 70.1881686,54.2106928 C70.7691954,53.4859708 71.0607816,52.5316295 71.0607816,51.3516054 C71.0258084,50.168301 70.7159847,49.1973397 70.1349579,48.4332544 C69.5172414,47.6726681 68.7014866,47.2923749 67.6825441,47.2923749 C66.7017931,47.2923749 65.8860383,47.6726681 65.2318467,48.4332544 C64.6506054,49.1581951 64.3424981,50.1311246 64.306023,51.3516054 Z M72.315954,55.0766853 L73.6479387,55.0766853 L73.6479387,50.9238576 C73.6880613,50.2430913 73.8210881,49.6911304 74.0525977,49.2754103 C74.400613,48.7455366 74.9417318,48.4586219 75.6742375,48.4231949 C76.4850575,48.4231949 76.891433,48.8968666 76.891433,49.8442099 L76.891433,55.0766853 L78.2217011,55.0766853 L78.2217011,50.4705237 C78.3382069,49.2192082 78.9359693,48.5366924 80.0147739,48.4231949 C81.0186973,48.3840503 81.5016705,48.9712195 81.4632644,50.183609 L81.4632644,55.0766853 L82.7935326,55.0766853 L82.7935326,49.8442099 C82.7568429,48.2143508 81.9445211,47.3398296 80.3627893,47.2296124 C79.4753716,47.1904677 78.6845057,47.6079374 77.9901916,48.4789596 C77.9901916,48.4789596 77.9702375,48.4586219 77.9301149,48.4231949 C77.5089349,47.6267443 76.8513103,47.2296124 75.9638927,47.2296124 C74.9599693,47.2296124 74.1691034,47.6641394 73.5915096,48.5366924 L73.5915096,47.4552952 L72.315954,47.4552952 L72.315954,55.0766853 Z M63.285364,48.2957016 C62.8922912,47.8679538 62.3013946,47.2700691 60.6831877,47.2482006 C59.5393716,47.2328926 58.6869272,47.6267443 58.0874483,48.3604324 C57.759387,48.7610632 57.4830345,49.2192082 57.2950805,49.7794791 C56.8502989,51.1038353 56.9650881,53.1701897 57.9441226,54.2498374 C59.1181916,55.5435777 61.3790038,55.5099002 62.9075249,54.699891 C63.0257471,54.6371285 63.1521226,54.5640877 63.285364,54.4807687 L63.0989119,52.8559393 C62.4513716,53.5741008 61.9016705,53.8866016 60.9063295,53.9204978 C59.546023,53.9646722 58.458636,53.4588538 58.4953257,51.4279265 C58.5302989,49.5520468 59.2093793,48.679275 60.5349272,48.6368502 C61.5654559,48.602954 62.3496705,49.0442603 63.0023602,49.642145 L63.285364,48.2957016 L63.285364,48.2957016 Z" id="Fill-7"></path>
                        </g>
                    </g>
                </g>
            </g>
        </g>
    </g>
</svg>