<?xml version="1.0" encoding="UTF-8"?>
<svg width="170px" height="100px" viewBox="0 0 170 100" version="1.1" xmlns="http://www.w3.org/2000/svg" xmlns:xlink="http://www.w3.org/1999/xlink">
    <!-- Generator: Sketch 44 (41411) - http://www.bohemiancoding.com/sketch -->
    <title>enterprise-07</title>
    <desc>Created with Sketch.</desc>
    <defs></defs>
    <g id="______Slice" stroke="none" stroke-width="1" fill="none" fill-rule="evenodd">
        <g id="about" transform="translate(-1345.000000, -5896.000000)" fill="#399B8C">
            <g id="enterprise-07" transform="translate(1295.000000, 5866.000000)">
                <g id="meituan_color" transform="translate(93.000000, 52.000000)">
                    <path d="M22.6502404,23.3205 C22.6502404,24.2285313 22.417456,25.0514688 22.417456,25.9853125 L39.2289926,25.9853125 L39.2289926,30.5725 L24.051023,30.5725 C26.9388364,33.4090313 30.8367408,35.8603438 39.1215041,36.4059063 C40.1092822,36.47175 39.5209921,39.7387813 39.4570569,41.213375 C29.2651782,41.2418125 23.3370079,36.7915625 20.1318783,32.5082188 C17.1576022,37.7278125 9.42680126,40.6207813 0.722596992,41.9969375 C0.359582114,40.002375 0.398629813,38.7487188 0.45548498,36.9820938 C8.28411967,36.4951563 12.7138881,34.1195313 15.325793,30.5725 L0.918479134,30.5725 L0.918479134,25.9853125 L16.9293233,25.9853125 C17.2485704,25.039875 17.4242851,24.1532813 17.533919,23.2095938 C18.5579556,23.3439063 22.0480047,23.1065625 22.6502404,23.3205 Z M10.6632402,4.984875 C9.85804234,3.9475625 8.83379114,2.442125 7.96015249,0.52303125 C11.2221373,0.27125 12.5864467,0.2874375 12.9419524,0.16996875 C14.1852569,2.49178125 15.0726266,4.0324375 16.4980822,5.0859375 C16.4980822,5.21084375 23.1246056,4.9686875 23.5833088,4.97328125 C26.3020585,2.0636875 27.1370785,0.0100625 27.251218,0.13715625 C28.9118179,0.240625 29.5093336,-0.05578125 32.1783082,0.17696875 C32.5501195,0.20759375 29.9997898,4.4533125 29.502468,5.0369375 L38.5971493,4.93565625 L38.5971493,9.5248125 L22.9787131,9.5248125 L22.9787131,11.6650625 L36.6125821,11.6650625 L36.6125821,16.0730938 L22.9787131,16.0730938 L22.9787131,18.4489375 L39.347423,18.4489375 L39.347423,23.0380938 L0.916119108,23.0380938 L0.916119108,18.4489375 L17.1026779,18.4489375 L17.1026779,16.0730938 L3.65567997,16.0730938 L3.65567997,11.6650625 L17.1026779,11.6650625 L17.1026779,9.5248125 L1.54345688,9.5248125 L1.54345688,4.93565625 L10.6632402,4.984875 Z M50.9834229,5.6175 L77.9574451,5.6175 L77.9574451,33.9075625 C77.9574451,35.1953438 76.9638743,36.2464375 75.7458864,36.2464375 L50.9834229,36.2464375 L50.9834229,5.6175 Z M46.1985779,0.82425 L82.9171466,0.82425 L82.9171466,38.3987188 C82.9171466,40.1075938 81.5622773,41.5045313 79.9051101,41.5045313 L46.1985779,41.5045313 L46.1985779,0.82425 Z M52.1780251,11.5740625 L67.4130644,11.5740625 L67.4130644,6.52815625 L71.7445699,6.52815625 L71.7445699,11.5740625 L76.6356161,11.5740625 L76.6356161,16.286375 L71.7445699,16.286375 L71.7445699,26.4589062 C71.7445699,27.5421563 72.0161874,31.2983125 71.6053284,32.2912187 C71.0625225,33.6010937 69.6083175,34.93 65.9472738,35.0102812 L61.7193949,35.0636562 L61.6674743,30.2782812 C61.6674743,30.2782812 64.1128901,30.5729375 66.0652751,29.9254375 C67.9039498,29.3144687 67.4130644,28.7765625 67.4130644,27.0309375 L67.4130644,18.727625 C63.0648241,26.52475 53.4713192,31.6660312 53.4713192,31.6660312 L53.4713192,25.7166875 C54.0310744,25.4270625 54.5266798,25.0761875 55.0439546,24.7086875 C60.3973513,20.9162187 62.3426562,18.0002813 63.0532385,16.286375 L52.1780251,16.286375 L52.1780251,11.5740625 Z M0.172067336,56 L1.48896174,56 L1.48896174,51.91375 C1.52736579,51.2430625 1.66059998,50.7012188 1.88844974,50.2901875 C2.23322806,49.7706563 2.76766663,49.4869375 3.49004907,49.4512813 C4.29417423,49.4512813 4.69366223,49.9183125 4.69366223,50.850625 L4.69366223,56 L6.01077118,56 L6.01077118,51.4672812 C6.12383787,50.2359375 6.71491706,49.5654688 7.78229237,49.4512813 C8.7743614,49.413875 9.25215935,49.991375 9.21396984,51.1853125 L9.21396984,56 L10.5291479,56 L10.5291479,50.850625 C10.4926747,49.245875 9.69005141,48.3864063 8.12664159,48.2776875 C7.2478538,48.23875 6.4668998,48.6497813 5.78099048,49.5072812 C5.78099048,49.5072812 5.76103754,49.4869375 5.7209171,49.4512813 C5.30490891,48.668375 4.65568727,48.2776875 3.77818677,48.2776875 C2.78590319,48.2776875 2.00344736,48.7040312 1.43232112,49.5654688 L1.43232112,48.498625 L0.172067336,48.498625 L0.172067336,56 Z M13.4611581,51.3093438 C13.6091961,49.9489375 14.2951054,49.21525 15.5203879,49.1047813 C16.8190457,49.1047813 17.524908,49.8389063 17.6364728,51.3093438 L13.4611581,51.3093438 Z M18.3024292,53.47475 C17.5680321,54.5446562 13.9820802,54.677 13.7422157,53.5187187 C13.6658367,53.151875 13.4611581,52.78175 13.4611581,52.3029062 L18.9166796,52.3029062 C18.9166796,51.090375 18.6935499,50.113875 18.2492214,49.3799687 C17.7298011,48.4238125 16.87397,47.9465 15.686877,47.9465 C14.5748757,47.9465 13.7207609,48.29475 13.126249,48.9945312 C12.4587908,49.7282187 12.1240962,50.7589687 12.1240962,52.0819687 C12.1240962,52.6170312 12.1856714,53.1111875 12.3189056,53.552625 C12.668404,54.707625 13.7473649,55.5975 14.9194395,55.6976875 C16.2065118,55.8081562 18.1342237,55.5415 18.4223614,55.0403437 L18.3024292,53.47475 Z M20.3867611,46.9514062 L21.7336922,46.9514062 L21.7336922,45.560375 L20.3867611,45.560375 L20.3867611,46.9514062 Z M20.3867611,55.7333438 L21.7336922,55.7333438 L21.7336922,48.2829375 L20.3867611,48.2829375 L20.3867611,55.7333438 Z M27.9319781,49.2305625 L27.9319781,48.0501875 L25.417907,48.0501875 L25.417907,45.7522187 L24.1209656,45.7522187 L24.1209656,48.0501875 L23.1638678,48.0501875 L23.1638678,49.2305625 L24.1209656,49.2305625 L24.1460677,54.014625 C24.1495004,54.5105312 24.2524834,54.9283437 24.4856968,55.25625 C24.5755924,55.3818125 24.7287795,55.4682187 24.9334581,55.5364687 C25.9823823,55.8930312 27.3893868,55.6585312 28.056845,55.4666875 L27.9886188,54.0909687 L27.4357291,54.2745 C26.6734407,54.529125 25.6612042,54.3254687 25.5777451,53.8905937 C25.4595293,53.2791875 25.4363581,52.8055937 25.4329254,52.1821562 L25.417907,49.2305625 L27.9319781,49.2305625 Z M35.4087544,55.4089375 L35.4087544,47.7955625 L34.1785374,47.7955625 L34.1785374,52.0005938 C34.0669725,53.6665938 33.3761286,54.5190625 32.1092238,54.5564688 C31.1401114,54.5564688 30.6556625,53.9875 30.6556625,52.8513125 L30.6556625,47.7955625 L29.3688048,47.7955625 L29.3688048,53.2487813 C29.4052779,54.1964063 29.7052157,54.8417188 30.2626109,55.1814375 C30.6721826,55.4089375 31.1767991,55.5226875 31.7728129,55.5226875 C32.8532756,55.5583438 33.6558989,55.1440313 34.1785374,54.27275 L34.235178,54.3305 L34.235178,55.4089375 L35.4087544,55.4089375 Z M41.8816616,52.5964688 C41.9200656,53.70575 41.2656948,54.1522188 39.8657704,54.2252813 C39.0414778,54.2694688 38.3856052,53.9789688 38.3856052,53.0702813 C38.3856052,52.31975 38.8917234,51.9428438 39.8940908,51.8273438 C40.9378658,51.7065938 41.5555489,51.5860625 41.8419702,51.3909375 L41.8816616,52.5964688 Z M37.7147142,49.3478125 C38.7885259,49.1150625 41.2225707,48.2269375 41.935084,49.5785938 C42.1914686,50.0644375 41.8900289,50.4363125 41.2740622,50.4789688 L39.2229852,50.6180938 C37.774573,50.71675 37.0787945,51.8273438 37.0970311,53.2487813 C37.1137658,54.6312813 37.9196073,55.393625 39.354503,55.4380313 C40.393558,55.4717188 41.3390702,55.2356875 42.0567326,54.4462187 C42.0348487,54.9147813 41.915131,55.1831875 42.2431746,55.3579688 C42.5328142,55.512625 43.0756201,55.3614688 43.3751288,55.3190313 C43.4817591,55.30525 43.3568923,55.3511875 43.4300531,55.3511875 C43.4300531,54.3884688 43.4768245,53.4813125 43.4352022,52.5065625 L43.3118372,49.6516563 C43.2571275,48.3728438 42.2862987,47.5986875 40.4768026,47.6172813 C38.5769818,47.637625 38.6621573,47.7905313 37.6031493,47.9465 L37.7147142,49.3478125 Z M50.9237786,50.3310938 C50.8853746,48.6073438 50.023107,47.7275313 48.3363322,47.6916563 C47.397471,47.6916563 46.6283171,48.11975 46.0288706,48.9827188 L46.0288706,47.9143438 L44.7902861,47.9143438 L44.7902861,55.4448125 L46.0840093,55.4448125 L46.0840093,51.34325 C46.1221989,50.4433125 46.3103573,49.825125 46.6465537,49.4904375 C47.0228705,49.076125 47.4907993,48.8705 48.0518418,48.8705 C49.2172654,48.7974375 49.7598568,49.4512813 49.6851942,50.8370625 L49.6851942,55.4448125 L50.9237786,55.4448125 L50.9237786,50.3310938 Z M53.9205823,55.4634062 L55.6170118,55.4634062 L55.6170118,53.7718125 L53.9205823,53.7718125 L53.9205823,55.4634062 Z M65.5561532,51.366875 C65.6642853,49.4582812 66.3735803,48.4865937 67.6788891,48.4476562 C68.9874161,48.4865937 69.6949948,49.4582812 69.8031269,51.366875 C69.6949948,53.2724062 68.9874161,54.2440937 67.6788891,54.2830313 C66.3735803,54.2440937 65.6642853,53.2724062 65.5561532,51.366875 Z M64.3025504,51.366875 C64.3390235,52.7019063 64.7204895,53.7685313 65.4463047,54.5682813 C65.9923288,55.0644063 66.7348788,55.31225 67.6788891,55.31225 C68.7327479,55.31225 69.5684116,54.9486875 70.1843783,54.2268125 C70.7653738,53.501875 71.0569442,52.54725 71.0569442,51.366875 C71.0219729,50.1832188 70.7121659,49.2119688 70.1311705,48.4476563 C69.5134874,47.6868438 68.6977766,47.3064375 67.6788891,47.3064375 C66.6981911,47.3064375 65.8824804,47.6868438 65.2283241,48.4476563 C64.6471141,49.1728125 64.3390235,50.1460313 64.3025504,51.366875 Z M72.3120489,55.0930625 L73.6439616,55.0930625 L73.6439616,50.939 C73.684082,50.2580313 73.8171017,49.7059063 74.0485988,49.2900625 C74.3965953,48.7600313 74.9376848,48.4730313 75.670151,48.4375938 C76.4809272,48.4375938 76.8872807,48.9114063 76.8872807,49.8590313 L76.8872807,55.0930625 L78.2174771,55.0930625 L78.2174771,50.4855313 C78.3339765,49.2338438 78.9317067,48.551125 80.010453,48.4375938 C81.0143222,48.3984375 81.4972693,48.9857813 81.4588652,50.1985313 L81.4588652,55.0930625 L82.7890616,55.0930625 L82.7890616,49.8590313 C82.7523739,48.2286875 81.940096,47.3539063 80.3584496,47.2436563 C79.4710799,47.2045 78.6802567,47.6220938 77.98598,48.493375 C77.98598,48.493375 77.966027,48.4730313 77.9259066,48.4375938 C77.5047493,47.6409063 76.8471603,47.2436563 75.9597906,47.2436563 C74.9559214,47.2436563 74.1650982,47.6783125 73.5875355,48.551125 L73.5875355,47.4694063 L72.3120489,47.4694063 L72.3120489,55.0930625 Z M63.2819465,48.3100625 C62.8888949,47.8821875 62.2980303,47.284125 60.6799108,47.26225 C59.5361564,47.2469375 58.683758,47.6409063 58.0843115,48.3748125 C57.7562679,48.7755625 57.4799303,49.2338438 57.2919864,49.7942813 C56.8472289,51.1190313 56.9620119,53.186 57.9409935,54.2659688 C59.1149991,55.5600938 61.3756893,55.5264063 62.9041278,54.7161563 C63.0223436,54.653375 63.1487123,54.5803125 63.2819465,54.4969688 L63.0955044,52.8716563 C62.4479992,53.5900313 61.8983277,53.902625 60.9030405,53.9365313 C59.5428074,53.9807188 58.4554792,53.47475 58.4921668,51.4432188 C58.5271381,49.5667813 59.2061819,48.69375 60.5316582,48.6513125 C61.5621313,48.6174063 62.3463035,49.0588438 62.9989579,49.6569063 L63.2819465,48.3100625 L63.2819465,48.3100625 Z" id="Fill-7"></path>
                </g>
            </g>
        </g>
    </g>
</svg>